G04 #@! TF.GenerationSoftware,KiCad,Pcbnew,5.1.5*
G04 #@! TF.CreationDate,2019-12-16T15:30:59-05:00*
G04 #@! TF.ProjectId,rustypill,72757374-7970-4696-9c6c-2e6b69636164,rev?*
G04 #@! TF.SameCoordinates,Original*
G04 #@! TF.FileFunction,Copper,L2,Bot*
G04 #@! TF.FilePolarity,Positive*
%FSLAX46Y46*%
G04 Gerber Fmt 4.6, Leading zero omitted, Abs format (unit mm)*
G04 Created by KiCad (PCBNEW 5.1.5) date 2019-12-16 15:30:59*
%MOMM*%
%LPD*%
G04 APERTURE LIST*
%ADD10C,0.100000*%
%ADD11R,0.558800X1.981200*%
%ADD12R,1.700000X1.700000*%
%ADD13O,1.700000X1.700000*%
%ADD14R,1.500000X1.950000*%
%ADD15R,1.250000X1.500000*%
%ADD16R,1.727200X1.727200*%
%ADD17O,1.727200X1.727200*%
%ADD18R,1.500000X1.250000*%
%ADD19R,1.500000X1.900000*%
%ADD20C,1.450000*%
%ADD21R,0.400000X1.350000*%
%ADD22O,1.200000X1.900000*%
%ADD23R,1.200000X1.900000*%
%ADD24R,1.500000X1.300000*%
%ADD25R,1.000000X2.500000*%
%ADD26R,1.800000X1.000000*%
%ADD27C,0.800000*%
%ADD28C,0.250000*%
%ADD29C,0.254000*%
G04 APERTURE END LIST*
G04 #@! TA.AperFunction,SMDPad,CuDef*
D10*
G36*
X82050857Y-123419695D02*
G01*
X82970095Y-122500457D01*
X84030755Y-123561117D01*
X83111517Y-124480355D01*
X82050857Y-123419695D01*
G37*
G04 #@! TD.AperFunction*
G04 #@! TA.AperFunction,SMDPad,CuDef*
G36*
X83960045Y-125328883D02*
G01*
X84879283Y-124409645D01*
X85939943Y-125470305D01*
X85020705Y-126389543D01*
X83960045Y-125328883D01*
G37*
G04 #@! TD.AperFunction*
G04 #@! TA.AperFunction,SMDPad,CuDef*
G36*
X82354905Y-125975457D02*
G01*
X83274143Y-126894695D01*
X82213483Y-127955355D01*
X81294245Y-127036117D01*
X82354905Y-125975457D01*
G37*
G04 #@! TD.AperFunction*
G04 #@! TA.AperFunction,SMDPad,CuDef*
G36*
X80445717Y-127884645D02*
G01*
X81364955Y-128803883D01*
X80304295Y-129864543D01*
X79385057Y-128945305D01*
X80445717Y-127884645D01*
G37*
G04 #@! TD.AperFunction*
D11*
X102300000Y-109549800D03*
X101030000Y-109549800D03*
X99760000Y-109549800D03*
X98490000Y-109549800D03*
X98490000Y-104622200D03*
X99760000Y-104622200D03*
X101030000Y-104622200D03*
X102300000Y-104622200D03*
D12*
X77330000Y-99850000D03*
D13*
X79870000Y-99850000D03*
X82410000Y-99850000D03*
X84950000Y-99850000D03*
D12*
X127350000Y-95950000D03*
D13*
X124810000Y-95950000D03*
X122270000Y-95950000D03*
X119730000Y-95950000D03*
X117190000Y-95950000D03*
X114650000Y-95950000D03*
X112110000Y-95950000D03*
X109570000Y-95950000D03*
X107030000Y-95950000D03*
X104490000Y-95950000D03*
X101950000Y-95950000D03*
X99410000Y-95950000D03*
X96870000Y-95950000D03*
X94330000Y-95950000D03*
X91790000Y-95950000D03*
X89250000Y-95950000D03*
D12*
X127350000Y-99850000D03*
D13*
X124810000Y-99850000D03*
X122270000Y-99850000D03*
X119730000Y-99850000D03*
X117190000Y-99850000D03*
X114650000Y-99850000D03*
X112110000Y-99850000D03*
X109570000Y-99850000D03*
X107030000Y-99850000D03*
X104490000Y-99850000D03*
X101950000Y-99850000D03*
X99410000Y-99850000D03*
X96870000Y-99850000D03*
X94330000Y-99850000D03*
X91790000Y-99850000D03*
X89250000Y-99850000D03*
D12*
X127350000Y-140450000D03*
D13*
X124810000Y-140450000D03*
X122270000Y-140450000D03*
X119730000Y-140450000D03*
X117190000Y-140450000D03*
X114650000Y-140450000D03*
X112110000Y-140450000D03*
X109570000Y-140450000D03*
X107030000Y-140450000D03*
X104490000Y-140450000D03*
X101950000Y-140450000D03*
X99410000Y-140450000D03*
X96870000Y-140450000D03*
X94330000Y-140450000D03*
X91790000Y-140450000D03*
X89250000Y-140450000D03*
D12*
X77330000Y-95950000D03*
D13*
X79870000Y-95950000D03*
X82410000Y-95950000D03*
X84950000Y-95950000D03*
D14*
X94400000Y-119525000D03*
X94400000Y-122275000D03*
X91000000Y-119525000D03*
X91000000Y-122275000D03*
G04 #@! TA.AperFunction,SMDPad,CuDef*
D10*
G36*
X85690055Y-112456271D02*
G01*
X84806171Y-113340155D01*
X83745511Y-112279495D01*
X84629395Y-111395611D01*
X85690055Y-112456271D01*
G37*
G04 #@! TD.AperFunction*
G04 #@! TA.AperFunction,SMDPad,CuDef*
G36*
X83922289Y-110688505D02*
G01*
X83038405Y-111572389D01*
X81977745Y-110511729D01*
X82861629Y-109627845D01*
X83922289Y-110688505D01*
G37*
G04 #@! TD.AperFunction*
G04 #@! TA.AperFunction,SMDPad,CuDef*
G36*
X75051143Y-107126305D02*
G01*
X74131905Y-108045543D01*
X73071245Y-106984883D01*
X73990483Y-106065645D01*
X75051143Y-107126305D01*
G37*
G04 #@! TD.AperFunction*
G04 #@! TA.AperFunction,SMDPad,CuDef*
G36*
X73141955Y-105217117D02*
G01*
X72222717Y-106136355D01*
X71162057Y-105075695D01*
X72081295Y-104156457D01*
X73141955Y-105217117D01*
G37*
G04 #@! TD.AperFunction*
D15*
X128090000Y-129870000D03*
X128090000Y-127370000D03*
G04 #@! TA.AperFunction,SMDPad,CuDef*
D10*
G36*
X76426255Y-105488271D02*
G01*
X75542371Y-106372155D01*
X74481711Y-105311495D01*
X75365595Y-104427611D01*
X76426255Y-105488271D01*
G37*
G04 #@! TD.AperFunction*
G04 #@! TA.AperFunction,SMDPad,CuDef*
G36*
X74658489Y-103720505D02*
G01*
X73774605Y-104604389D01*
X72713945Y-103543729D01*
X73597829Y-102659845D01*
X74658489Y-103720505D01*
G37*
G04 #@! TD.AperFunction*
D16*
X87840000Y-130350000D03*
D17*
X87840000Y-127810000D03*
X90380000Y-130350000D03*
X90380000Y-127810000D03*
X92920000Y-130350000D03*
X92920000Y-127810000D03*
X95460000Y-130350000D03*
X95460000Y-127810000D03*
X98000000Y-130350000D03*
X98000000Y-127810000D03*
D15*
X103850000Y-117400000D03*
X103850000Y-114900000D03*
D18*
X99350000Y-119500000D03*
X101850000Y-119500000D03*
D15*
X79100000Y-107700000D03*
X79100000Y-105200000D03*
G04 #@! TA.AperFunction,SMDPad,CuDef*
D10*
G36*
X83727729Y-122306155D02*
G01*
X82843845Y-121422271D01*
X83904505Y-120361611D01*
X84788389Y-121245495D01*
X83727729Y-122306155D01*
G37*
G04 #@! TD.AperFunction*
G04 #@! TA.AperFunction,SMDPad,CuDef*
G36*
X85495495Y-120538389D02*
G01*
X84611611Y-119654505D01*
X85672271Y-118593845D01*
X86556155Y-119477729D01*
X85495495Y-120538389D01*
G37*
G04 #@! TD.AperFunction*
G04 #@! TA.AperFunction,SMDPad,CuDef*
G36*
X87579395Y-122354389D02*
G01*
X86695511Y-121470505D01*
X87756171Y-120409845D01*
X88640055Y-121293729D01*
X87579395Y-122354389D01*
G37*
G04 #@! TD.AperFunction*
G04 #@! TA.AperFunction,SMDPad,CuDef*
G36*
X85811629Y-124122155D02*
G01*
X84927745Y-123238271D01*
X85988405Y-122177611D01*
X86872289Y-123061495D01*
X85811629Y-124122155D01*
G37*
G04 #@! TD.AperFunction*
G04 #@! TA.AperFunction,SMDPad,CuDef*
G36*
X74127745Y-120311729D02*
G01*
X75011629Y-119427845D01*
X76072289Y-120488505D01*
X75188405Y-121372389D01*
X74127745Y-120311729D01*
G37*
G04 #@! TD.AperFunction*
G04 #@! TA.AperFunction,SMDPad,CuDef*
G36*
X75895511Y-122079495D02*
G01*
X76779395Y-121195611D01*
X77840055Y-122256271D01*
X76956171Y-123140155D01*
X75895511Y-122079495D01*
G37*
G04 #@! TD.AperFunction*
G04 #@! TA.AperFunction,SMDPad,CuDef*
G36*
X74311611Y-123645495D02*
G01*
X75195495Y-122761611D01*
X76256155Y-123822271D01*
X75372271Y-124706155D01*
X74311611Y-123645495D01*
G37*
G04 #@! TD.AperFunction*
G04 #@! TA.AperFunction,SMDPad,CuDef*
G36*
X72543845Y-121877729D02*
G01*
X73427729Y-120993845D01*
X74488389Y-122054505D01*
X73604505Y-122938389D01*
X72543845Y-121877729D01*
G37*
G04 #@! TD.AperFunction*
D18*
X110400000Y-130825000D03*
X112900000Y-130825000D03*
D15*
X104250000Y-108250000D03*
X104250000Y-105750000D03*
X112200000Y-124300000D03*
X112200000Y-126800000D03*
D18*
X84216100Y-130866000D03*
X81716100Y-130866000D03*
D19*
X80950000Y-142326000D03*
D20*
X84450000Y-139626000D03*
D21*
X82600000Y-139626000D03*
X83250000Y-139626000D03*
X80650000Y-139626000D03*
X81300000Y-139626000D03*
X81950000Y-139626000D03*
D20*
X79450000Y-139626000D03*
D19*
X82950000Y-142326000D03*
D22*
X85450000Y-142326000D03*
X78450000Y-142326000D03*
D23*
X79050000Y-142326000D03*
X84850000Y-142326000D03*
D24*
X85300000Y-109500000D03*
X88000000Y-109500000D03*
G04 #@! TA.AperFunction,SMDPad,CuDef*
D10*
G36*
X75629283Y-111940355D02*
G01*
X74710045Y-111021117D01*
X75770705Y-109960457D01*
X76689943Y-110879695D01*
X75629283Y-111940355D01*
G37*
G04 #@! TD.AperFunction*
G04 #@! TA.AperFunction,SMDPad,CuDef*
G36*
X73720095Y-113849543D02*
G01*
X72800857Y-112930305D01*
X73861517Y-111869645D01*
X74780755Y-112788883D01*
X73720095Y-113849543D01*
G37*
G04 #@! TD.AperFunction*
G04 #@! TA.AperFunction,SMDPad,CuDef*
G36*
X78916117Y-115964645D02*
G01*
X79835355Y-116883883D01*
X78774695Y-117944543D01*
X77855457Y-117025305D01*
X78916117Y-115964645D01*
G37*
G04 #@! TD.AperFunction*
G04 #@! TA.AperFunction,SMDPad,CuDef*
G36*
X80825305Y-114055457D02*
G01*
X81744543Y-114974695D01*
X80683883Y-116035355D01*
X79764645Y-115116117D01*
X80825305Y-114055457D01*
G37*
G04 #@! TD.AperFunction*
D24*
X118400000Y-126650000D03*
X115700000Y-126650000D03*
X115700000Y-124450000D03*
X118400000Y-124450000D03*
X114450000Y-103650000D03*
X111750000Y-103650000D03*
G04 #@! TA.AperFunction,SMDPad,CuDef*
D10*
G36*
X77985355Y-129016117D02*
G01*
X77066117Y-129935355D01*
X76005457Y-128874695D01*
X76924695Y-127955457D01*
X77985355Y-129016117D01*
G37*
G04 #@! TD.AperFunction*
G04 #@! TA.AperFunction,SMDPad,CuDef*
G36*
X79894543Y-130925305D02*
G01*
X78975305Y-131844543D01*
X77914645Y-130783883D01*
X78833883Y-129864645D01*
X79894543Y-130925305D01*
G37*
G04 #@! TD.AperFunction*
D24*
X120250000Y-103650000D03*
X117550000Y-103650000D03*
G04 #@! TA.AperFunction,SMDPad,CuDef*
D10*
G36*
X78224543Y-132645305D02*
G01*
X77305305Y-133564543D01*
X76244645Y-132503883D01*
X77163883Y-131584645D01*
X78224543Y-132645305D01*
G37*
G04 #@! TD.AperFunction*
G04 #@! TA.AperFunction,SMDPad,CuDef*
G36*
X76315355Y-130736117D02*
G01*
X75396117Y-131655355D01*
X74335457Y-130594695D01*
X75254695Y-129675457D01*
X76315355Y-130736117D01*
G37*
G04 #@! TD.AperFunction*
G04 #@! TA.AperFunction,SMDPad,CuDef*
G36*
X78883883Y-124585355D02*
G01*
X77964645Y-123666117D01*
X79025305Y-122605457D01*
X79944543Y-123524695D01*
X78883883Y-124585355D01*
G37*
G04 #@! TD.AperFunction*
G04 #@! TA.AperFunction,SMDPad,CuDef*
G36*
X76974695Y-126494543D02*
G01*
X76055457Y-125575305D01*
X77116117Y-124514645D01*
X78035355Y-125433883D01*
X76974695Y-126494543D01*
G37*
G04 #@! TD.AperFunction*
G04 #@! TA.AperFunction,SMDPad,CuDef*
G36*
X78674695Y-128244543D02*
G01*
X77755457Y-127325305D01*
X78816117Y-126264645D01*
X79735355Y-127183883D01*
X78674695Y-128244543D01*
G37*
G04 #@! TD.AperFunction*
G04 #@! TA.AperFunction,SMDPad,CuDef*
G36*
X80583883Y-126335355D02*
G01*
X79664645Y-125416117D01*
X80725305Y-124355457D01*
X81644543Y-125274695D01*
X80583883Y-126335355D01*
G37*
G04 #@! TD.AperFunction*
D24*
X94950000Y-125050000D03*
X97650000Y-125050000D03*
X123250000Y-103650000D03*
X125950000Y-103650000D03*
G04 #@! TA.AperFunction,SMDPad,CuDef*
D10*
G36*
X72685457Y-132244695D02*
G01*
X73604695Y-131325457D01*
X74665355Y-132386117D01*
X73746117Y-133305355D01*
X72685457Y-132244695D01*
G37*
G04 #@! TD.AperFunction*
G04 #@! TA.AperFunction,SMDPad,CuDef*
G36*
X74594645Y-134153883D02*
G01*
X75513883Y-133234645D01*
X76574543Y-134295305D01*
X75655305Y-135214543D01*
X74594645Y-134153883D01*
G37*
G04 #@! TD.AperFunction*
D25*
X126180000Y-121556000D03*
X124180000Y-121556000D03*
X122180000Y-121556000D03*
X120180000Y-121556000D03*
X118180000Y-121556000D03*
X116180000Y-121556000D03*
X114180000Y-121556000D03*
X112180000Y-121556000D03*
D26*
X110680000Y-118956000D03*
X110680000Y-116956000D03*
X110680000Y-114956000D03*
X110680000Y-112956000D03*
X110680000Y-110956000D03*
X110680000Y-108956000D03*
D25*
X112180000Y-106356000D03*
X114180000Y-106356000D03*
X116180000Y-106356000D03*
X118180000Y-106356000D03*
X120180000Y-106356000D03*
X122180000Y-106356000D03*
X124180000Y-106356000D03*
X126180000Y-106356000D03*
D27*
X112486000Y-114150000D03*
X76625800Y-106149700D03*
X103676100Y-112395100D03*
X94200000Y-108287500D03*
X96870600Y-112662700D03*
X121700000Y-128875000D03*
X71613800Y-109787500D03*
X95906200Y-121135900D03*
X79848000Y-121105600D03*
X74437800Y-115655000D03*
X111650000Y-133250021D03*
X78641300Y-109350000D03*
X81991200Y-120991000D03*
X79557700Y-110140300D03*
X82559500Y-120144000D03*
X82542800Y-122013100D03*
X86248800Y-120950900D03*
X93658500Y-110517000D03*
X86669700Y-108526200D03*
X99309800Y-124853100D03*
X94660800Y-132727300D03*
X86044626Y-135010074D03*
X81977800Y-124218000D03*
X109404900Y-125025000D03*
X117434200Y-112513400D03*
X113088900Y-102723000D03*
X98840300Y-106213600D03*
X104046639Y-133746961D03*
X119679900Y-109791000D03*
X84100000Y-127022100D03*
X107586300Y-128052600D03*
X102431100Y-107948600D03*
X105180390Y-134880710D03*
X77023800Y-98219100D03*
X74979500Y-114688200D03*
X73474800Y-117958600D03*
X74180900Y-98500000D03*
X112729000Y-119404000D03*
X125108000Y-119864000D03*
X118021000Y-97950600D03*
X95368800Y-105862000D03*
X85937100Y-111837000D03*
X105825500Y-123025500D03*
X117665800Y-130434300D03*
X103850000Y-130025000D03*
X116579206Y-132546213D03*
X91990800Y-136435000D03*
X107605000Y-136175000D03*
X106356000Y-135448000D03*
X102864000Y-134691000D03*
X107091800Y-121766800D03*
X90681600Y-113899000D03*
X83778400Y-109695000D03*
X104492410Y-127984590D03*
X84981900Y-137460800D03*
X86659700Y-138509500D03*
X74925500Y-117556200D03*
X74637900Y-101775600D03*
X84222700Y-97863200D03*
X73404400Y-116856600D03*
X74499300Y-128004000D03*
X71301400Y-124925000D03*
X72960800Y-119046100D03*
X127325000Y-101600000D03*
X88971500Y-135476700D03*
X103638260Y-126493540D03*
X102585000Y-137779100D03*
X101409360Y-124264640D03*
X96710900Y-126323000D03*
X106927600Y-105093500D03*
X97136100Y-111599300D03*
X109179000Y-107345000D03*
X100065100Y-111160200D03*
X81008600Y-107250000D03*
X95560500Y-104471000D03*
X93094400Y-103355100D03*
X77747700Y-105169600D03*
X71028300Y-105890600D03*
X75662700Y-107296000D03*
X81549600Y-122467200D03*
X83528200Y-119051000D03*
X87100000Y-115711900D03*
X119044700Y-108102800D03*
D28*
X120020000Y-113177000D02*
X125270000Y-107927000D01*
X125270000Y-107927000D02*
X125270000Y-104330000D01*
X125270000Y-104330000D02*
X125950000Y-103650000D01*
X112695000Y-113242000D02*
X119955000Y-113242000D01*
X119955000Y-113242000D02*
X120020000Y-113177000D01*
X112695000Y-113242000D02*
X112695000Y-113941000D01*
X112695000Y-113941000D02*
X112486000Y-114150000D01*
X101030000Y-109447000D02*
X99760000Y-109447000D01*
X125950000Y-102674700D02*
X126175000Y-102449700D01*
X126175000Y-102449700D02*
X126175000Y-98300300D01*
X126175000Y-98300300D02*
X127350000Y-97125300D01*
X128090000Y-126294700D02*
X127215000Y-125419700D01*
X127215000Y-125419700D02*
X127215000Y-120372000D01*
X127215000Y-120372000D02*
X120020000Y-113177000D01*
X85450000Y-142326000D02*
X84850000Y-142326000D01*
X112200000Y-125724700D02*
X111724900Y-125724700D01*
X111724900Y-125724700D02*
X111250000Y-125249800D01*
X111250000Y-125249800D02*
X111250000Y-120196000D01*
X111250000Y-120196000D02*
X111465000Y-119981000D01*
X111465000Y-119981000D02*
X111565000Y-119981000D01*
X111565000Y-119981000D02*
X112004000Y-119541000D01*
X112004000Y-119541000D02*
X112004000Y-114632000D01*
X112004000Y-114632000D02*
X112486000Y-114150000D01*
X79050000Y-142326000D02*
X78450000Y-142326000D01*
X99760000Y-109549800D02*
X99760000Y-109447000D01*
X101030000Y-109549800D02*
X101030000Y-109447000D01*
X79050000Y-142326000D02*
X79050000Y-141050700D01*
X74261800Y-133931800D02*
X74261800Y-134437800D01*
X74261800Y-134437800D02*
X79450000Y-139626000D01*
X103850000Y-117400000D02*
X102899700Y-117400000D01*
X112200000Y-126800000D02*
X112200000Y-125724700D01*
X128090000Y-127370000D02*
X128090000Y-126294700D01*
X103850000Y-117400000D02*
X103850000Y-116324700D01*
X102300000Y-109549800D02*
X102300000Y-110865700D01*
X99760000Y-109447000D02*
X98490000Y-109447000D01*
X98490000Y-109549800D02*
X98490000Y-109447000D01*
X125950000Y-103650000D02*
X125950000Y-102674700D01*
X127350000Y-95950000D02*
X127350000Y-97125300D01*
X82412400Y-142326000D02*
X80950000Y-142326000D01*
X80950000Y-142326000D02*
X80950000Y-141050700D01*
X79868200Y-140231900D02*
X79450000Y-139814000D01*
X79450000Y-139814000D02*
X79450000Y-139626000D01*
X79868200Y-140231900D02*
X79050000Y-141050700D01*
X80650000Y-140231900D02*
X79868200Y-140231900D01*
X80950000Y-141050700D02*
X80650000Y-140750700D01*
X80650000Y-140750700D02*
X80650000Y-140231900D01*
X80650000Y-140231900D02*
X80650000Y-139626000D01*
X82412400Y-142326000D02*
X82950000Y-142326000D01*
X84850000Y-142326000D02*
X84850000Y-141050700D01*
X82950000Y-142326000D02*
X82950000Y-141050700D01*
X82950000Y-141050700D02*
X84450000Y-141050700D01*
X84450000Y-141050700D02*
X84850000Y-141050700D01*
X85900000Y-123149900D02*
X85228100Y-122477900D01*
X81716100Y-130866000D02*
X81716100Y-130028400D01*
X85900000Y-123149900D02*
X86572000Y-123821800D01*
X91000000Y-122275000D02*
X92075300Y-122275000D01*
X94400000Y-122275000D02*
X94400000Y-120974700D01*
X87840000Y-130350000D02*
X87840000Y-131538900D01*
X84450000Y-141050700D02*
X84450000Y-139626000D01*
X101030000Y-103306300D02*
X99452700Y-101729000D01*
X99452700Y-101729000D02*
X88004300Y-101729000D01*
X88004300Y-101729000D02*
X86125300Y-99850000D01*
X101030000Y-104622200D02*
X101030000Y-103306300D01*
X84950000Y-99850000D02*
X86125300Y-99850000D01*
X79100000Y-105200000D02*
X79100000Y-105922100D01*
X75454000Y-105399900D02*
X76214400Y-106160200D01*
X76625800Y-106149700D02*
X76224900Y-106149700D01*
X76224900Y-106149700D02*
X76214400Y-106160200D01*
X86878200Y-112628200D02*
X88878500Y-114628000D01*
X88000000Y-109500000D02*
X88000000Y-111400000D01*
X88000000Y-111400000D02*
X86944000Y-112456000D01*
X86944000Y-112456000D02*
X86944000Y-112562400D01*
X86944000Y-112562400D02*
X86878200Y-112628200D01*
X86878200Y-112628200D02*
X85978200Y-112628200D01*
X85978200Y-112628200D02*
X85478200Y-113128200D01*
X84717800Y-112367900D02*
X85478200Y-113128200D01*
X76625800Y-106149700D02*
X76853400Y-105922100D01*
X76853400Y-105922100D02*
X79100000Y-105922100D01*
X84717800Y-112367900D02*
X84045900Y-113039800D01*
X87840000Y-131538900D02*
X84245600Y-135133300D01*
X84245600Y-135133300D02*
X84245600Y-139421600D01*
X84245600Y-139421600D02*
X84450000Y-139626000D01*
X83816100Y-121333900D02*
X84163800Y-121333900D01*
X84163800Y-121333900D02*
X84163800Y-119642100D01*
X84163800Y-119642100D02*
X85656300Y-118149600D01*
X85656300Y-118149600D02*
X85733100Y-118149600D01*
X85733100Y-118149600D02*
X88878500Y-115004200D01*
X88878500Y-115004200D02*
X88878500Y-114628000D01*
X81716100Y-130028400D02*
X82211700Y-130028400D01*
X82211700Y-130028400D02*
X86308100Y-125932000D01*
X86308100Y-125932000D02*
X86308100Y-124085700D01*
X86308100Y-124085700D02*
X86572000Y-123821800D01*
X85228100Y-122477900D02*
X84163800Y-121413700D01*
X84163800Y-121413700D02*
X84163800Y-121333900D01*
X94400000Y-120974700D02*
X93304700Y-120974700D01*
X93304700Y-120974700D02*
X93304700Y-121045600D01*
X93304700Y-121045600D02*
X92075300Y-122275000D01*
X101850000Y-118449700D02*
X101582600Y-118182300D01*
X101582600Y-118182300D02*
X93498900Y-118182300D01*
X93498900Y-118182300D02*
X93304700Y-118376500D01*
X93304700Y-118376500D02*
X93304700Y-120974700D01*
X101850000Y-119500000D02*
X101850000Y-118449700D01*
X101850000Y-118449700D02*
X102899700Y-117400000D01*
X101030000Y-109447000D02*
X101970000Y-109447000D01*
X101970000Y-109447000D02*
X102197200Y-109447000D01*
X102197200Y-109447000D02*
X102300000Y-109549800D01*
X101970000Y-109447000D02*
X102102700Y-109447000D01*
X102102700Y-109447000D02*
X103299700Y-108250000D01*
X104250000Y-108250000D02*
X103844900Y-108250000D01*
X103844900Y-108250000D02*
X103299700Y-108250000D01*
X103844900Y-108250000D02*
X101533000Y-105938100D01*
X101533000Y-105938100D02*
X101030000Y-105938100D01*
X101030000Y-104622200D02*
X101030000Y-105938100D01*
X112180000Y-106356000D02*
X112180000Y-112727000D01*
X112180000Y-112727000D02*
X112695000Y-113242000D01*
X112180000Y-104780700D02*
X112024600Y-104625300D01*
X112024600Y-104625300D02*
X111750000Y-104625300D01*
X112180000Y-106356000D02*
X112180000Y-104780700D01*
X111750000Y-103650000D02*
X111750000Y-104625300D01*
X102300000Y-110865700D02*
X103676100Y-112241800D01*
X103676100Y-112241800D02*
X103676100Y-112395100D01*
X103676100Y-112395100D02*
X104800000Y-113519000D01*
X104800000Y-113519000D02*
X104800000Y-115857200D01*
X104800000Y-115857200D02*
X104335200Y-116324700D01*
X104335200Y-116324700D02*
X103850000Y-116324700D01*
X79100000Y-105922100D02*
X79235900Y-105922100D01*
X79235900Y-105922100D02*
X80283300Y-106969500D01*
X80283300Y-106969500D02*
X80283300Y-107550400D01*
X80283300Y-107550400D02*
X81051700Y-108318800D01*
X81051700Y-108318800D02*
X81051700Y-110801800D01*
X81051700Y-110801800D02*
X82684200Y-112434300D01*
X82684200Y-112434300D02*
X83440300Y-112434300D01*
X83440300Y-112434300D02*
X84045900Y-113039800D01*
X94200000Y-108939000D02*
X97982000Y-108939000D01*
X97982000Y-108939000D02*
X98490000Y-109447000D01*
X88878500Y-114628000D02*
X91026400Y-114628000D01*
X91026400Y-114628000D02*
X91608500Y-114046000D01*
X91608500Y-114046000D02*
X91608500Y-111531000D01*
X91608500Y-111531000D02*
X94200000Y-108939000D01*
X94200000Y-108939000D02*
X94200000Y-108287500D01*
X80516000Y-130866000D02*
X81716100Y-130866000D01*
X79189635Y-129539635D02*
X80516000Y-130866000D01*
X74261800Y-133931800D02*
X76027600Y-132166000D01*
X78699257Y-129539635D02*
X79189635Y-129539635D01*
X76027600Y-132166000D02*
X77793500Y-130400000D01*
X78653500Y-129540000D02*
X78698892Y-129540000D01*
X78698892Y-129540000D02*
X78699257Y-129539635D01*
X77793500Y-130400000D02*
X78653500Y-129540000D01*
X111325000Y-126800000D02*
X112200000Y-126800000D01*
X110400000Y-127725000D02*
X111325000Y-126800000D01*
X110400000Y-130825000D02*
X110400000Y-127725000D01*
X74428100Y-121072000D02*
X75100000Y-120400100D01*
X72837000Y-122638000D02*
X72844200Y-122638000D01*
X72094200Y-123380800D02*
X72837000Y-122638000D01*
X72094200Y-132130800D02*
X72094200Y-123380800D01*
X74261800Y-133931800D02*
X73895200Y-133931800D01*
X73895200Y-133931800D02*
X72094200Y-132130800D01*
X72844200Y-122638000D02*
X74188100Y-121294100D01*
X74188100Y-121294100D02*
X74188100Y-121294200D01*
X74428000Y-121072000D02*
X74428100Y-121072000D01*
X74188100Y-121294200D02*
X74188300Y-121294000D01*
X74188300Y-121294000D02*
X74205900Y-121294000D01*
X74205900Y-121294000D02*
X74428000Y-121072000D01*
X103850000Y-114900000D02*
X102899700Y-114900000D01*
X91000000Y-119525000D02*
X92075300Y-119525000D01*
X97085100Y-113559000D02*
X101558700Y-113559000D01*
X101558700Y-113559000D02*
X102899700Y-114900000D01*
X97085100Y-113559000D02*
X92075300Y-118568800D01*
X92075300Y-118568800D02*
X92075300Y-119525000D01*
X97085100Y-113559000D02*
X97085100Y-112877200D01*
X97085100Y-112877200D02*
X96870600Y-112662700D01*
X100753000Y-101033000D02*
X96385000Y-101033000D01*
X96385000Y-101033000D02*
X95600000Y-100248000D01*
X95600000Y-100248000D02*
X95600000Y-99410700D01*
X95600000Y-99410700D02*
X92965300Y-96776000D01*
X92965300Y-96776000D02*
X92965300Y-95950000D01*
X118543000Y-98810500D02*
X117846000Y-98810500D01*
X117846000Y-98810500D02*
X116772000Y-97736000D01*
X116772000Y-97736000D02*
X102385000Y-97736000D01*
X102385000Y-97736000D02*
X100753000Y-99368600D01*
X100753000Y-99368600D02*
X100753000Y-101033000D01*
X115700000Y-124450000D02*
X115700000Y-126650000D01*
X115700000Y-124450000D02*
X113300300Y-124450000D01*
X113300300Y-124450000D02*
X113150300Y-124300000D01*
X120250000Y-102674700D02*
X118543000Y-100966700D01*
X118543000Y-100966700D02*
X118543000Y-98810500D01*
X128090000Y-129870000D02*
X122695000Y-129870000D01*
X122695000Y-129870000D02*
X121700000Y-128875000D01*
X103299700Y-105750000D02*
X103111600Y-105938100D01*
X103111600Y-105938100D02*
X102300000Y-105938100D01*
X102300000Y-104622200D02*
X102300000Y-102580000D01*
X102300000Y-102580000D02*
X100753000Y-101033000D01*
X75955900Y-123061900D02*
X75955900Y-123062000D01*
X75955900Y-123062000D02*
X75973700Y-123062000D01*
X75973700Y-123062000D02*
X76195900Y-122840000D01*
X78745400Y-127254600D02*
X78055700Y-126564900D01*
X76355700Y-124814900D02*
X76611700Y-124558900D01*
X76611700Y-124558900D02*
X76611700Y-123256000D01*
X76611700Y-123256000D02*
X76195900Y-122840000D01*
X78055700Y-126564900D02*
X78055700Y-126514900D01*
X78055700Y-126514900D02*
X77045400Y-125504600D01*
X73686200Y-103632100D02*
X73014300Y-104304000D01*
X91790000Y-95950000D02*
X90614700Y-95950000D01*
X90614700Y-95950000D02*
X90614700Y-95582600D01*
X90614700Y-95582600D02*
X89806800Y-94774700D01*
X89806800Y-94774700D02*
X79343700Y-94774700D01*
X79343700Y-94774700D02*
X78154100Y-95964300D01*
X81234700Y-99850000D02*
X81234700Y-99044900D01*
X81234700Y-99044900D02*
X78154100Y-95964300D01*
X82410000Y-99850000D02*
X81234700Y-99850000D01*
X77045400Y-125504600D02*
X76355700Y-124814900D01*
X76195900Y-122839800D02*
X76195900Y-122840000D01*
X75283900Y-123733900D02*
X75955900Y-123061900D01*
X91790000Y-95950000D02*
X92965300Y-95950000D01*
X112200000Y-124300000D02*
X113150300Y-124300000D01*
X102300000Y-104622200D02*
X102300000Y-105938100D01*
X120250000Y-103650000D02*
X120250000Y-102674700D01*
X78745400Y-127254600D02*
X79475000Y-127984200D01*
X103774900Y-105750000D02*
X103299700Y-105750000D01*
X103774900Y-105750000D02*
X104250000Y-105750000D01*
X105200300Y-105750000D02*
X105291300Y-105841000D01*
X105291300Y-105841000D02*
X105291300Y-117898500D01*
X105291300Y-117898500D02*
X102739500Y-120450300D01*
X102739500Y-120450300D02*
X99350000Y-120450300D01*
X71613800Y-109787500D02*
X71166400Y-110234900D01*
X71166400Y-110234900D02*
X73101100Y-112169900D01*
X73014300Y-104304000D02*
X73487800Y-104778000D01*
X73487800Y-104778000D02*
X73487800Y-105331000D01*
X73487800Y-105331000D02*
X71613800Y-107205400D01*
X71613800Y-107205400D02*
X71613800Y-109787500D01*
X80375000Y-128874600D02*
X79559500Y-128059100D01*
X104250000Y-105750000D02*
X105200300Y-105750000D01*
X79475000Y-128059100D02*
X79475000Y-127984200D01*
X79559500Y-128059100D02*
X79475000Y-128059100D01*
X79475000Y-128059100D02*
X75531200Y-132002900D01*
X75531200Y-132002900D02*
X74742300Y-132002900D01*
X74742300Y-132002900D02*
X74365100Y-131625700D01*
X73675400Y-132315400D02*
X74365100Y-131625700D01*
X73686200Y-103632100D02*
X74358200Y-102960100D01*
X78154100Y-95964300D02*
X78139800Y-95950000D01*
X78139800Y-95950000D02*
X77330000Y-95950000D01*
X77330000Y-97125300D02*
X77041100Y-97125300D01*
X77041100Y-97125300D02*
X75690000Y-98476400D01*
X75690000Y-98476400D02*
X75690000Y-101759700D01*
X75690000Y-101759700D02*
X74489500Y-102960200D01*
X74489500Y-102960200D02*
X74358200Y-102960200D01*
X74358200Y-102960200D02*
X74358200Y-102960100D01*
X77330000Y-95950000D02*
X77330000Y-97125300D01*
X80754600Y-115045400D02*
X79994200Y-115805800D01*
X76750200Y-122285500D02*
X76195900Y-122839800D01*
X76750200Y-122285500D02*
X76867800Y-122167900D01*
X76867800Y-122167900D02*
X77539800Y-121495900D01*
X99350000Y-119500000D02*
X99350000Y-119975100D01*
X99350000Y-119975100D02*
X99350000Y-120450300D01*
X94400000Y-119525000D02*
X95475300Y-119525000D01*
X99350000Y-119975100D02*
X95925400Y-119975100D01*
X95925400Y-119975100D02*
X95475300Y-119525000D01*
X95925400Y-119975100D02*
X95906200Y-119994300D01*
X95906200Y-119994300D02*
X95906200Y-121135900D01*
X95906200Y-121135900D02*
X95906200Y-123118500D01*
X95906200Y-123118500D02*
X94950000Y-124074700D01*
X94950000Y-125050000D02*
X94950000Y-124074700D01*
X112180000Y-121556000D02*
X112180000Y-123204700D01*
X112180000Y-123204700D02*
X112200000Y-123224700D01*
X112200000Y-124300000D02*
X112200000Y-123224700D01*
X77539700Y-121105600D02*
X77539700Y-121495900D01*
X77539700Y-121495900D02*
X77539800Y-121495900D01*
X77539700Y-121105600D02*
X79848000Y-121105600D01*
X73790800Y-112859600D02*
X73101100Y-112169900D01*
X73790800Y-112859600D02*
X74480500Y-113549300D01*
X77530100Y-116762100D02*
X77530100Y-121096000D01*
X77530100Y-121096000D02*
X77539700Y-121105600D01*
X79994200Y-115805800D02*
X79814500Y-115626100D01*
X79814500Y-115626100D02*
X78666100Y-115626100D01*
X78666100Y-115626100D02*
X77530100Y-116762100D01*
X74480500Y-113549300D02*
X74221900Y-113807900D01*
X74221900Y-113807900D02*
X74221900Y-115439100D01*
X74221900Y-115439100D02*
X74437800Y-115655000D01*
X77530100Y-116762100D02*
X75544900Y-116762100D01*
X75544900Y-116762100D02*
X74437800Y-115655000D01*
X128525001Y-94839999D02*
X128460001Y-94774999D01*
X128090000Y-129870000D02*
X129040300Y-129870000D01*
X121784000Y-94764700D02*
X121000000Y-95549100D01*
X135268000Y-103154410D02*
X128525001Y-96411412D01*
X128525001Y-96411412D02*
X128525001Y-94839999D01*
X127288578Y-94774999D02*
X127278279Y-94764700D01*
X121000000Y-96353100D02*
X118543000Y-98810500D01*
X127278279Y-94764700D02*
X121784000Y-94764700D01*
X135268000Y-123642300D02*
X135268000Y-103154410D01*
X121000000Y-95549100D02*
X121000000Y-96353100D01*
X128460001Y-94774999D02*
X127288578Y-94774999D01*
X129040300Y-129870000D02*
X135268000Y-123642300D01*
X111650000Y-129700000D02*
X111650000Y-133250021D01*
X115700000Y-126650000D02*
X114700000Y-126650000D01*
X112175000Y-129225000D02*
X112125000Y-129225000D01*
X112900000Y-129950000D02*
X112175000Y-129225000D01*
X112900000Y-130825000D02*
X112900000Y-129950000D01*
X114700000Y-126650000D02*
X112125000Y-129225000D01*
X112125000Y-129225000D02*
X111650000Y-129700000D01*
X78641300Y-109350000D02*
X78832400Y-109541100D01*
X78832400Y-109541100D02*
X78832400Y-110440700D01*
X78832400Y-110440700D02*
X78916300Y-110524600D01*
X78916300Y-110524600D02*
X78916300Y-111137500D01*
X78916300Y-111137500D02*
X82107300Y-114328000D01*
X82107300Y-114328000D02*
X82107300Y-115149000D01*
X82107300Y-115149000D02*
X81833000Y-115424000D01*
X81833000Y-115424000D02*
X81833000Y-120832000D01*
X81833000Y-120832000D02*
X81991200Y-120991000D01*
X79557700Y-110140300D02*
X79876000Y-110458600D01*
X79876000Y-110458600D02*
X79876000Y-111367000D01*
X79876000Y-111367000D02*
X82559500Y-114051000D01*
X82559500Y-114051000D02*
X82559500Y-120144000D01*
X85583900Y-119566100D02*
X86255900Y-120238000D01*
X78845400Y-116954600D02*
X79535100Y-117644300D01*
X79535100Y-117644300D02*
X79535100Y-119659800D01*
X79535100Y-119659800D02*
X81600000Y-121725000D01*
X81600000Y-121725000D02*
X82110800Y-121725000D01*
X82110800Y-121725000D02*
X82470900Y-122085000D01*
X82470900Y-122085000D02*
X82542800Y-122013100D01*
X87667800Y-121382100D02*
X86995900Y-120710100D01*
X86255900Y-120238000D02*
X86423300Y-120405200D01*
X86423300Y-120405200D02*
X86608900Y-120590900D01*
X86248800Y-120950900D02*
X86248900Y-120950900D01*
X86248900Y-120950900D02*
X86608900Y-120590900D01*
X86608900Y-120590900D02*
X86728000Y-120710000D01*
X86728000Y-120710000D02*
X86995800Y-120710000D01*
X86995800Y-120710000D02*
X86995900Y-120710100D01*
X86651100Y-127810000D02*
X84545700Y-129915700D01*
X84545700Y-129915700D02*
X84216100Y-129915700D01*
X87840000Y-127810000D02*
X87840000Y-126621100D01*
X87840000Y-127810000D02*
X86651100Y-127810000D01*
X84216100Y-130866000D02*
X84216100Y-129915700D01*
X93658500Y-110517000D02*
X93658500Y-112769900D01*
X93658500Y-112769900D02*
X88997100Y-117431800D01*
X88997100Y-117431800D02*
X88997100Y-118048900D01*
X88997100Y-118048900D02*
X88970000Y-118076000D01*
X88970000Y-118076000D02*
X88970000Y-125491100D01*
X88970000Y-125491100D02*
X87840000Y-126621100D01*
X83250000Y-139626000D02*
X83250000Y-132782400D01*
X83250000Y-132782400D02*
X84216100Y-131816300D01*
X84216100Y-130866000D02*
X84216100Y-131816300D01*
X86375300Y-109500000D02*
X86375300Y-108820600D01*
X86375300Y-108820600D02*
X86669700Y-108526200D01*
X85300000Y-109500000D02*
X86375300Y-109500000D01*
X107030000Y-99850000D02*
X107030000Y-101025300D01*
X107030000Y-101025300D02*
X106202100Y-101853200D01*
X106202100Y-101853200D02*
X106202100Y-118330300D01*
X106202100Y-118330300D02*
X102825700Y-121706700D01*
X102825700Y-121706700D02*
X102268400Y-121706700D01*
X102268400Y-121706700D02*
X99309800Y-124665300D01*
X99309800Y-124665300D02*
X99309800Y-124853100D01*
X99309800Y-124853100D02*
X99112300Y-125050000D01*
X99112300Y-125050000D02*
X97650000Y-125050000D01*
X86871685Y-134748700D02*
X86610311Y-135010074D01*
X86610311Y-135010074D02*
X86044626Y-135010074D01*
X92639400Y-134748700D02*
X86871685Y-134748700D01*
X94660800Y-132727300D02*
X92639400Y-134748700D01*
X81414900Y-124585100D02*
X81415100Y-124585300D01*
X81415100Y-124585300D02*
X81415300Y-124585000D01*
X81415300Y-124585000D02*
X81610700Y-124585000D01*
X81610700Y-124585000D02*
X81977800Y-124218000D01*
X80654600Y-125345400D02*
X81414900Y-124585100D01*
X98490000Y-104622200D02*
X98490000Y-105280100D01*
X77330000Y-99850000D02*
X78505300Y-99850000D01*
X98490000Y-105280100D02*
X95839600Y-102629700D01*
X95839600Y-102629700D02*
X80917700Y-102629700D01*
X80917700Y-102629700D02*
X78505300Y-100217300D01*
X78505300Y-100217300D02*
X78505300Y-99850000D01*
X117434200Y-110680600D02*
X117434200Y-112513400D01*
X120180000Y-106356000D02*
X120180000Y-108007700D01*
X120180000Y-108007700D02*
X117507100Y-110680600D01*
X117507100Y-110680600D02*
X117434200Y-110680600D01*
X98490000Y-105280100D02*
X98490000Y-105863300D01*
X98490000Y-105863300D02*
X98840300Y-106213600D01*
X117434200Y-110680600D02*
X116278800Y-110680600D01*
X116278800Y-110680600D02*
X113088900Y-107490700D01*
X113088900Y-107490700D02*
X113088900Y-102723000D01*
X106834200Y-127595700D02*
X106834200Y-130959400D01*
X104046639Y-134769961D02*
X104046639Y-133746961D01*
X109404900Y-125025000D02*
X106834200Y-127595700D01*
X104490000Y-135213322D02*
X104046639Y-134769961D01*
X104490000Y-140450000D02*
X104490000Y-135213322D01*
X106834200Y-130959400D02*
X104046639Y-133746961D01*
X122180000Y-106356000D02*
X122180000Y-107931300D01*
X78954600Y-123595400D02*
X79644300Y-124285100D01*
X79644300Y-124285100D02*
X79299400Y-124630000D01*
X79299400Y-124630000D02*
X79299400Y-125560700D01*
X79299400Y-125560700D02*
X82019400Y-128280700D01*
X82019400Y-128280700D02*
X82841400Y-128280700D01*
X82841400Y-128280700D02*
X84100000Y-127022100D01*
X99760000Y-104622200D02*
X99760000Y-103306300D01*
X79870000Y-99850000D02*
X82199400Y-102179400D01*
X82199400Y-102179400D02*
X98633100Y-102179400D01*
X98633100Y-102179400D02*
X99760000Y-103306300D01*
X99760000Y-104622200D02*
X99760000Y-105938100D01*
X99760000Y-105938100D02*
X101770500Y-107948600D01*
X101770500Y-107948600D02*
X102431100Y-107948600D01*
X122180000Y-107931300D02*
X120320300Y-109791000D01*
X120320300Y-109791000D02*
X119679900Y-109791000D01*
X107586300Y-132474800D02*
X105180390Y-134880710D01*
X107586300Y-128052600D02*
X107586300Y-132474800D01*
X105180390Y-138600390D02*
X105180390Y-134880710D01*
X107030000Y-140450000D02*
X105180390Y-138600390D01*
X81950000Y-138625700D02*
X77994900Y-134670600D01*
X77994900Y-134670600D02*
X77994900Y-133334900D01*
X81950000Y-139626000D02*
X81950000Y-138625700D01*
X77234600Y-132574600D02*
X77994900Y-133334900D01*
X75584600Y-134224600D02*
X77234600Y-132574600D01*
X78904600Y-130854600D02*
X82600000Y-134550000D01*
X82600000Y-134550000D02*
X82600000Y-139626000D01*
X81045300Y-95950000D02*
X81045300Y-96335700D01*
X81045300Y-96335700D02*
X83310700Y-98601100D01*
X83310700Y-98601100D02*
X86055400Y-98601100D01*
X86055400Y-98601100D02*
X88479600Y-101025000D01*
X88479600Y-101025000D02*
X92279100Y-101025000D01*
X92279100Y-101025000D02*
X93154700Y-100149800D01*
X93154700Y-100149800D02*
X93154700Y-99850000D01*
X79870000Y-95950000D02*
X81045300Y-95950000D01*
X94330000Y-99850000D02*
X93154700Y-99850000D01*
X77023800Y-98219100D02*
X76741000Y-98219100D01*
X76741000Y-98219100D02*
X76154700Y-98805400D01*
X76154700Y-98805400D02*
X76154700Y-102764600D01*
X76154700Y-102764600D02*
X74213100Y-104706200D01*
X74213100Y-104706200D02*
X73938200Y-104981000D01*
X73938200Y-104981000D02*
X73938200Y-105518000D01*
X73938200Y-105518000D02*
X72741200Y-106715000D01*
X72741200Y-106715000D02*
X72741200Y-109798000D01*
X72741200Y-109798000D02*
X75136500Y-112193500D01*
X75136500Y-112193500D02*
X75136500Y-114531200D01*
X75136500Y-114531200D02*
X74979500Y-114688200D01*
X83585300Y-95950000D02*
X83585300Y-96317400D01*
X83585300Y-96317400D02*
X84393200Y-97125300D01*
X84393200Y-97125300D02*
X88257300Y-97125300D01*
X88257300Y-97125300D02*
X90614700Y-99482700D01*
X90614700Y-99482700D02*
X90614700Y-99850000D01*
X82410000Y-95950000D02*
X83585300Y-95950000D01*
X91790000Y-99850000D02*
X90614700Y-99850000D01*
X69366400Y-103314500D02*
X74180900Y-98500000D01*
X69366400Y-113850200D02*
X69366400Y-103314500D01*
X73474800Y-117958600D02*
X69366400Y-113850200D01*
X125108000Y-119864000D02*
X113190000Y-119864000D01*
X113190000Y-119864000D02*
X112729000Y-119404000D01*
X95368800Y-105862000D02*
X86097000Y-105862000D01*
X86097000Y-105862000D02*
X81646100Y-110313100D01*
X81646100Y-110313100D02*
X81646100Y-110718000D01*
X81646100Y-110718000D02*
X82868900Y-111941000D01*
X82868900Y-111941000D02*
X83222300Y-111941000D01*
X83222300Y-111941000D02*
X84114900Y-111048000D01*
X84114900Y-111048000D02*
X85148400Y-111048000D01*
X85148400Y-111048000D02*
X85937100Y-111837000D01*
X119646000Y-94299800D02*
X118460000Y-95486300D01*
X128975012Y-94653599D02*
X128646401Y-94324988D01*
X118460000Y-95486300D02*
X118460000Y-97511600D01*
X118460000Y-97511600D02*
X118021000Y-97950600D01*
X127475000Y-94324988D02*
X127464713Y-94314699D01*
X124810000Y-140450000D02*
X124810000Y-139274700D01*
X124810000Y-139274700D02*
X135755000Y-128329700D01*
X135755000Y-128329700D02*
X135755000Y-103005000D01*
X127464699Y-94314698D02*
X127449800Y-94299800D01*
X127449800Y-94299800D02*
X119646000Y-94299800D01*
X135755000Y-103005000D02*
X128975012Y-96225012D01*
X128975012Y-96225012D02*
X128975012Y-94653599D01*
X127464713Y-94314699D02*
X127464699Y-94314698D01*
X128646401Y-94324988D02*
X127475000Y-94324988D01*
X122270000Y-139274700D02*
X117665800Y-134670500D01*
X117665800Y-134670500D02*
X117665800Y-130434300D01*
X122270000Y-140450000D02*
X122270000Y-139274700D01*
X105425501Y-128449499D02*
X103850000Y-130025000D01*
X105425501Y-123425499D02*
X105425501Y-128449499D01*
X105825500Y-123025500D02*
X105425501Y-123425499D01*
X119730000Y-140450000D02*
X116579206Y-137299206D01*
X116579206Y-137299206D02*
X116579206Y-132546213D01*
X117190000Y-140450000D02*
X115498000Y-142142000D01*
X115498000Y-142142000D02*
X99435300Y-142142000D01*
X99435300Y-142142000D02*
X98234600Y-140941000D01*
X98234600Y-140941000D02*
X98234600Y-140091000D01*
X98234600Y-140091000D02*
X94578900Y-136435000D01*
X94578900Y-136435000D02*
X91990800Y-136435000D01*
X114650000Y-136175000D02*
X107605000Y-136175000D01*
X118400000Y-125425300D02*
X117759900Y-125425300D01*
X117759900Y-125425300D02*
X117050000Y-126135200D01*
X117050000Y-126135200D02*
X117050000Y-127562000D01*
X117050000Y-127562000D02*
X114650000Y-129962000D01*
X114650000Y-129962000D02*
X114650000Y-136175000D01*
X114650000Y-136175000D02*
X114650000Y-140450000D01*
X118400000Y-124450000D02*
X118400000Y-125425300D01*
X122180000Y-121556000D02*
X122180000Y-121810000D01*
X122180000Y-121810000D02*
X119540000Y-124450000D01*
X119540000Y-124450000D02*
X118400000Y-124450000D01*
X126180000Y-123131300D02*
X121918700Y-123131300D01*
X121918700Y-123131300D02*
X118400000Y-126650000D01*
X110934700Y-140450000D02*
X110934700Y-140082600D01*
X110934700Y-140082600D02*
X110126800Y-139274700D01*
X110126800Y-139274700D02*
X109616700Y-139274700D01*
X109616700Y-139274700D02*
X106356000Y-136014000D01*
X106356000Y-136014000D02*
X106356000Y-135448000D01*
X112110000Y-140450000D02*
X110934700Y-140450000D01*
X126180000Y-121556000D02*
X126180000Y-123131300D01*
X115761362Y-130263938D02*
X115761362Y-132598011D01*
X115165000Y-141625000D02*
X113285000Y-141625000D01*
X115840000Y-140950000D02*
X115165000Y-141625000D01*
X113285000Y-141625000D02*
X112110000Y-140450000D01*
X118400000Y-127625300D02*
X115761362Y-130263938D01*
X118400000Y-126650000D02*
X118400000Y-127625300D01*
X115761362Y-132598011D02*
X115840000Y-132676649D01*
X115840000Y-132676649D02*
X115840000Y-140950000D01*
X109570000Y-140450000D02*
X108394700Y-140450000D01*
X108394700Y-140450000D02*
X108394700Y-140817300D01*
X108394700Y-140817300D02*
X107572000Y-141640000D01*
X107572000Y-141640000D02*
X103993000Y-141640000D01*
X103993000Y-141640000D02*
X103310300Y-140957300D01*
X103310300Y-140957300D02*
X103310300Y-135137300D01*
X103310300Y-135137300D02*
X102864000Y-134691000D01*
X101950000Y-139274700D02*
X101612300Y-138937000D01*
X101612300Y-138937000D02*
X101612300Y-134219800D01*
X101612300Y-134219800D02*
X104141500Y-131690600D01*
X104141500Y-131690600D02*
X104249100Y-131690600D01*
X104249100Y-131690600D02*
X105933600Y-130006100D01*
X105933600Y-130006100D02*
X105933600Y-127072000D01*
X105933600Y-127072000D02*
X107091800Y-125913800D01*
X107091800Y-125913800D02*
X107091800Y-121766800D01*
X101950000Y-140450000D02*
X101950000Y-139274700D01*
X83778400Y-109695000D02*
X83621900Y-109851000D01*
X83621900Y-109851000D02*
X83621900Y-109928100D01*
X83621900Y-109928100D02*
X83622000Y-109928100D01*
X82950000Y-110600100D02*
X83622000Y-109928100D01*
X90681600Y-113899000D02*
X90681600Y-110257000D01*
X90681600Y-110257000D02*
X88143000Y-107719000D01*
X88143000Y-107719000D02*
X85210600Y-107719000D01*
X85210600Y-107719000D02*
X83778400Y-109151000D01*
X83778400Y-109151000D02*
X83778400Y-109695000D01*
X104092411Y-128659585D02*
X104092411Y-128384589D01*
X104092411Y-128384589D02*
X104492410Y-127984590D01*
X99410000Y-133341996D02*
X104092411Y-128659585D01*
X99410000Y-140450000D02*
X99410000Y-133341996D01*
X96870000Y-140450000D02*
X95694700Y-140450000D01*
X95694700Y-140450000D02*
X95694700Y-140082700D01*
X95694700Y-140082700D02*
X93072900Y-137460900D01*
X93072900Y-137460900D02*
X84981900Y-137460900D01*
X84981900Y-137460900D02*
X84981900Y-137460800D01*
X94330000Y-140450000D02*
X93154700Y-140450000D01*
X93154700Y-140450000D02*
X93154700Y-140082700D01*
X93154700Y-140082700D02*
X91581500Y-138509500D01*
X91581500Y-138509500D02*
X86659700Y-138509500D01*
X84222700Y-97863200D02*
X86087900Y-97863200D01*
X86087900Y-97863200D02*
X88074700Y-99850000D01*
X89250000Y-99850000D02*
X88074700Y-99850000D01*
X74925500Y-117556200D02*
X74925500Y-117351800D01*
X74925500Y-117351800D02*
X70270400Y-112696700D01*
X70270400Y-112696700D02*
X70270400Y-105499800D01*
X70270400Y-105499800D02*
X73994600Y-101775600D01*
X73994600Y-101775600D02*
X74637900Y-101775600D01*
X75325400Y-130665400D02*
X73752500Y-129092500D01*
X73752500Y-129092500D02*
X73752500Y-123497500D01*
X73752500Y-123497500D02*
X76407500Y-120842500D01*
X76407500Y-120842500D02*
X76407500Y-120160300D01*
X76407500Y-120160300D02*
X74200100Y-117952900D01*
X74200100Y-117952900D02*
X74200100Y-117652300D01*
X74200100Y-117652300D02*
X73404400Y-116856600D01*
X75098800Y-95987610D02*
X75098800Y-99996800D01*
X69816700Y-105278900D02*
X69816700Y-113268900D01*
X69816700Y-113268900D02*
X73404400Y-116856600D01*
X94397500Y-94309900D02*
X76776510Y-94309900D01*
X95694700Y-95607100D02*
X94397500Y-94309900D01*
X75098800Y-99996800D02*
X69816700Y-105278900D01*
X95694700Y-98674700D02*
X95694700Y-95607100D01*
X96870000Y-99850000D02*
X95694700Y-98674700D01*
X76776510Y-94309900D02*
X75098800Y-95987610D01*
X76995400Y-128945400D02*
X76305700Y-129635100D01*
X71301400Y-119687500D02*
X71301400Y-124925000D01*
X76305700Y-129635100D02*
X74674700Y-128004100D01*
X74674700Y-128004100D02*
X74499300Y-128004100D01*
X74499300Y-128004100D02*
X74499300Y-128004000D01*
X71301400Y-119687500D02*
X72319400Y-119687500D01*
X72319400Y-119687500D02*
X72960800Y-119046100D01*
X68916100Y-117302200D02*
X71301400Y-119687500D01*
X74100000Y-96350000D02*
X74100000Y-96850000D01*
X99410000Y-98674700D02*
X98234700Y-97499400D01*
X76590400Y-93859600D02*
X74100000Y-96350000D01*
X98234700Y-97499400D02*
X98234700Y-95642100D01*
X74100000Y-96850000D02*
X68916100Y-102033900D01*
X99410000Y-99850000D02*
X99410000Y-98674700D01*
X68916100Y-102033900D02*
X68916100Y-117302200D01*
X96452200Y-93859600D02*
X76590400Y-93859600D01*
X98234700Y-95642100D02*
X96452200Y-93859600D01*
X126180000Y-104780700D02*
X126695800Y-104780700D01*
X126695800Y-104780700D02*
X127325000Y-104151500D01*
X127325000Y-104151500D02*
X127325000Y-101600000D01*
X126180000Y-106356000D02*
X126180000Y-104780700D01*
X103638260Y-128350440D02*
X103638260Y-126493540D01*
X88971500Y-135476700D02*
X96512000Y-135476700D01*
X96512000Y-135476700D02*
X103638260Y-128350440D01*
X124180000Y-106356000D02*
X124180000Y-104780700D01*
X104490000Y-99850000D02*
X105665300Y-99850000D01*
X115836000Y-101582500D02*
X115836000Y-99335200D01*
X115836000Y-99335200D02*
X115175500Y-98674700D01*
X115175500Y-98674700D02*
X106473200Y-98674700D01*
X106473200Y-98674700D02*
X105665300Y-99482600D01*
X105665300Y-99482600D02*
X105665300Y-99850000D01*
X124180000Y-104780700D02*
X119520600Y-104780700D01*
X119520600Y-104780700D02*
X119059300Y-104319400D01*
X119059300Y-104319400D02*
X119059300Y-103284200D01*
X119059300Y-103284200D02*
X117357600Y-101582500D01*
X117357600Y-101582500D02*
X115836000Y-101582500D01*
X115836000Y-101582500D02*
X111921500Y-101582500D01*
X111921500Y-101582500D02*
X109904300Y-103599700D01*
X109904300Y-103599700D02*
X109904300Y-107871600D01*
X109904300Y-107871600D02*
X109454700Y-108321200D01*
X109454700Y-108321200D02*
X109454700Y-122696700D01*
X109454700Y-122696700D02*
X107559500Y-124591900D01*
X107559500Y-124591900D02*
X107559500Y-126083000D01*
X107559500Y-126083000D02*
X106383900Y-127258600D01*
X106383900Y-127258600D02*
X106383900Y-130192700D01*
X106383900Y-130192700D02*
X104435700Y-132140900D01*
X104435700Y-132140900D02*
X104328100Y-132140900D01*
X104328100Y-132140900D02*
X102118800Y-134350200D01*
X102118800Y-134350200D02*
X102118800Y-137312900D01*
X102118800Y-137312900D02*
X102585000Y-137779100D01*
X109570000Y-99850000D02*
X109570000Y-101025300D01*
X98000000Y-130350000D02*
X98000000Y-129161100D01*
X101462000Y-124348000D02*
X102350400Y-123459400D01*
X102350400Y-123459400D02*
X107553000Y-118256800D01*
X107553000Y-118256800D02*
X107553000Y-106489000D01*
X107553000Y-106489000D02*
X107653000Y-106389000D01*
X107653000Y-106389000D02*
X107653000Y-102942300D01*
X107653000Y-102942300D02*
X109570000Y-101025300D01*
X98000000Y-129161100D02*
X98371600Y-129161100D01*
X98371600Y-129161100D02*
X99188900Y-128343800D01*
X99188900Y-128343800D02*
X99188900Y-126941800D01*
X99188900Y-126941800D02*
X100819300Y-125311400D01*
X100819300Y-125311400D02*
X100819300Y-125242700D01*
X100819300Y-125242700D02*
X101462000Y-124600000D01*
X101462000Y-124600000D02*
X101462000Y-124348000D01*
X101409360Y-124295360D02*
X101409360Y-124264640D01*
X101462000Y-124348000D02*
X101409360Y-124295360D01*
X103820000Y-122702700D02*
X108003300Y-118519400D01*
X98533600Y-131539000D02*
X99676300Y-130396000D01*
X108104000Y-106575000D02*
X108104000Y-105691300D01*
X108128500Y-105666800D02*
X108128500Y-103831500D01*
X108128500Y-103831500D02*
X112110000Y-99850000D01*
X108003300Y-106675700D02*
X108104000Y-106575000D01*
X108104000Y-105691300D02*
X108128500Y-105666800D01*
X99676300Y-130396000D02*
X99676300Y-127091300D01*
X103820000Y-122947600D02*
X103820000Y-122702700D01*
X96649000Y-131539000D02*
X98533600Y-131539000D01*
X108003300Y-118519400D02*
X108003300Y-106675700D01*
X99676300Y-127091300D02*
X103820000Y-122947600D01*
X95460000Y-130350000D02*
X96649000Y-131539000D01*
X114650000Y-99850000D02*
X113474700Y-99850000D01*
X92920000Y-130350000D02*
X94108900Y-130350000D01*
X113474700Y-99850000D02*
X113474700Y-100217400D01*
X113474700Y-100217400D02*
X112666800Y-101025300D01*
X112666800Y-101025300D02*
X111816700Y-101025300D01*
X111816700Y-101025300D02*
X108578800Y-104263200D01*
X108578800Y-104263200D02*
X108578800Y-105853400D01*
X108578800Y-105853400D02*
X108554000Y-105878200D01*
X108554000Y-105878200D02*
X108554000Y-106762000D01*
X108554000Y-106762000D02*
X108453600Y-106862000D01*
X108453600Y-106862000D02*
X108453600Y-118706000D01*
X108453600Y-118706000D02*
X104271000Y-122888600D01*
X104271000Y-122888600D02*
X104271000Y-123257000D01*
X104271000Y-123257000D02*
X100127000Y-127402000D01*
X100127000Y-127402000D02*
X100127000Y-130583000D01*
X100127000Y-130583000D02*
X98707700Y-132002000D01*
X98707700Y-132002000D02*
X95598200Y-132002000D01*
X95598200Y-132002000D02*
X95147900Y-131551700D01*
X95147900Y-131551700D02*
X94939100Y-131551700D01*
X94939100Y-131551700D02*
X94108900Y-130722000D01*
X94108900Y-130722000D02*
X94108900Y-130350000D01*
X90380000Y-129161100D02*
X90751800Y-129161100D01*
X90751800Y-129161100D02*
X91568900Y-128344000D01*
X91568900Y-128344000D02*
X91568900Y-127476000D01*
X91568900Y-127476000D02*
X92427700Y-126617000D01*
X92427700Y-126617000D02*
X93484700Y-126617000D01*
X93484700Y-126617000D02*
X94190000Y-127323000D01*
X94190000Y-127323000D02*
X94190000Y-128243000D01*
X94190000Y-128243000D02*
X94945700Y-128999000D01*
X94945700Y-128999000D02*
X95974300Y-128999000D01*
X95974300Y-128999000D02*
X96705900Y-128267000D01*
X96705900Y-128267000D02*
X96705900Y-126323000D01*
X90380000Y-130350000D02*
X90380000Y-129161100D01*
X117190000Y-99850000D02*
X115526400Y-98186400D01*
X115526400Y-98186400D02*
X104478800Y-98186400D01*
X104478800Y-98186400D02*
X103296300Y-99368900D01*
X103296300Y-99368900D02*
X103296300Y-101852500D01*
X103296300Y-101852500D02*
X105751700Y-104307900D01*
X105751700Y-104307900D02*
X105751700Y-118125000D01*
X105751700Y-118125000D02*
X102620300Y-121256400D01*
X102620300Y-121256400D02*
X99570900Y-121256400D01*
X99570900Y-121256400D02*
X96516000Y-124311300D01*
X96516000Y-124311300D02*
X96516000Y-126133100D01*
X96516000Y-126133100D02*
X96705900Y-126323000D01*
X96705900Y-126323000D02*
X96710900Y-126323000D01*
X98000000Y-127810000D02*
X98000000Y-126621100D01*
X98000000Y-126621100D02*
X98574300Y-126621100D01*
X98574300Y-126621100D02*
X100205800Y-124989600D01*
X100205800Y-124989600D02*
X100205800Y-124419900D01*
X100205800Y-124419900D02*
X102243600Y-122382100D01*
X102243600Y-122382100D02*
X102788900Y-122382100D01*
X102788900Y-122382100D02*
X106927600Y-118243400D01*
X106927600Y-118243400D02*
X106927600Y-105093500D01*
X95460000Y-127810000D02*
X95460000Y-126621100D01*
X97136100Y-111599300D02*
X96740300Y-111599300D01*
X96740300Y-111599300D02*
X89924600Y-118415000D01*
X89924600Y-118415000D02*
X89924600Y-123385400D01*
X89924600Y-123385400D02*
X90136600Y-123597400D01*
X90136600Y-123597400D02*
X91572300Y-123597400D01*
X91572300Y-123597400D02*
X94596000Y-126621100D01*
X94596000Y-126621100D02*
X95460000Y-126621100D01*
X92920000Y-127810000D02*
X92920000Y-128998900D01*
X109179000Y-107345000D02*
X108997000Y-107527000D01*
X108997000Y-107527000D02*
X108997000Y-118722000D01*
X108997000Y-118722000D02*
X108903900Y-118815100D01*
X108903900Y-118815100D02*
X108903900Y-118892600D01*
X108903900Y-118892600D02*
X104721000Y-123075500D01*
X104721000Y-123075500D02*
X104721000Y-123636000D01*
X104721000Y-123636000D02*
X100577000Y-127780000D01*
X100577000Y-127780000D02*
X100577000Y-130770000D01*
X100577000Y-130770000D02*
X98894300Y-132452000D01*
X98894300Y-132452000D02*
X95411300Y-132452000D01*
X95411300Y-132452000D02*
X94961300Y-132002000D01*
X94961300Y-132002000D02*
X94360400Y-132002000D01*
X94360400Y-132002000D02*
X94342100Y-132020300D01*
X94342100Y-132020300D02*
X93716600Y-132020300D01*
X93716600Y-132020300D02*
X93310900Y-132426000D01*
X93310900Y-132426000D02*
X91731100Y-130847000D01*
X91731100Y-130847000D02*
X91731100Y-128999000D01*
X91731100Y-128999000D02*
X92056400Y-128674000D01*
X92056400Y-128674000D02*
X92079500Y-128650800D01*
X92079500Y-128650800D02*
X92427600Y-128998900D01*
X92427600Y-128998900D02*
X92920000Y-128998900D01*
X90380000Y-127810000D02*
X90380000Y-126621100D01*
X100065100Y-111160200D02*
X99778900Y-110874000D01*
X99778900Y-110874000D02*
X96828700Y-110874000D01*
X96828700Y-110874000D02*
X89420400Y-118282300D01*
X89420400Y-118282300D02*
X89420400Y-125661500D01*
X89420400Y-125661500D02*
X90380000Y-126621100D01*
X114180000Y-104780700D02*
X114294600Y-104780700D01*
X114294600Y-104780700D02*
X114450000Y-104625300D01*
X114450000Y-103650000D02*
X114450000Y-104625300D01*
X114180000Y-106356000D02*
X114180000Y-104780700D01*
X116180000Y-104780700D02*
X117394600Y-104780700D01*
X117394600Y-104780700D02*
X117550000Y-104625300D01*
X116180000Y-106356000D02*
X116180000Y-104780700D01*
X117550000Y-103650000D02*
X117550000Y-104625300D01*
X123250000Y-102674700D02*
X123445000Y-102479700D01*
X123445000Y-102479700D02*
X123445000Y-98300600D01*
X123445000Y-98300600D02*
X122270000Y-97125300D01*
X123250000Y-103650000D02*
X123250000Y-102674700D01*
X122270000Y-95950000D02*
X122270000Y-97125300D01*
X81008600Y-107250000D02*
X83787600Y-104471000D01*
X83787600Y-104471000D02*
X95560500Y-104471000D01*
X93094400Y-103355100D02*
X79045200Y-103355100D01*
X79045200Y-103355100D02*
X77747700Y-104652600D01*
X77747700Y-104652600D02*
X77747700Y-105169600D01*
X72152000Y-105146400D02*
X71462300Y-105836100D01*
X71462300Y-105836100D02*
X71082800Y-105836100D01*
X71082800Y-105836100D02*
X71028300Y-105890600D01*
X74061200Y-107055600D02*
X74821500Y-107815900D01*
X74821500Y-107815900D02*
X74821700Y-107815700D01*
X74821700Y-107815700D02*
X74821700Y-107815800D01*
X74821700Y-107815800D02*
X75341900Y-107296000D01*
X75341900Y-107296000D02*
X75662700Y-107296000D01*
X84950000Y-125399600D02*
X84233800Y-126115800D01*
X82284200Y-126965400D02*
X83044500Y-126205100D01*
X84233800Y-126115800D02*
X83980600Y-126115800D01*
X83980600Y-126115800D02*
X83891300Y-126205100D01*
X83891300Y-126205100D02*
X83044500Y-126205100D01*
X81549600Y-122467200D02*
X82572800Y-123490400D01*
X82572800Y-123490400D02*
X83040800Y-123490400D01*
X75700000Y-110950400D02*
X78149700Y-108500700D01*
X78149700Y-107700000D02*
X78149700Y-108500700D01*
X79100000Y-107700000D02*
X79100000Y-108775300D01*
X86229900Y-115936000D02*
X86229900Y-116349000D01*
X86229900Y-116349000D02*
X83528200Y-119051000D01*
X118180000Y-106356000D02*
X118180000Y-107931300D01*
X86229900Y-115936000D02*
X86875900Y-115936000D01*
X86875900Y-115936000D02*
X87100000Y-115711900D01*
X79100000Y-108775300D02*
X79218300Y-108775300D01*
X79218300Y-108775300D02*
X80601300Y-110157900D01*
X80601300Y-110157900D02*
X80601300Y-110988900D01*
X80601300Y-110988900D02*
X81149400Y-111537000D01*
X81149400Y-111537000D02*
X81149500Y-111537000D01*
X81149500Y-111537000D02*
X82567000Y-112954000D01*
X82567000Y-112954000D02*
X83248700Y-112954000D01*
X83248700Y-112954000D02*
X86229900Y-115936000D01*
X79100000Y-107700000D02*
X78149700Y-107700000D01*
X118180000Y-107931300D02*
X118873200Y-107931300D01*
X118873200Y-107931300D02*
X119044700Y-108102800D01*
D29*
G36*
X68210554Y-117594446D02*
G01*
X68281126Y-117726476D01*
X68350079Y-117810494D01*
X68376100Y-117842201D01*
X68405098Y-117865999D01*
X70541400Y-120002302D01*
X70541401Y-124221288D01*
X70497463Y-124265226D01*
X70384195Y-124434744D01*
X70306174Y-124623102D01*
X70266400Y-124823061D01*
X70266400Y-125026939D01*
X70306174Y-125226898D01*
X70384195Y-125415256D01*
X70497463Y-125584774D01*
X70641626Y-125728937D01*
X70811144Y-125842205D01*
X70999502Y-125920226D01*
X71199461Y-125960000D01*
X71403339Y-125960000D01*
X71603298Y-125920226D01*
X71791656Y-125842205D01*
X71961174Y-125728937D01*
X72105337Y-125584774D01*
X72218605Y-125415256D01*
X72296626Y-125226898D01*
X72336400Y-125026939D01*
X72336400Y-124823061D01*
X72296626Y-124623102D01*
X72218605Y-124434744D01*
X72105337Y-124265226D01*
X72061400Y-124221289D01*
X72061400Y-122290824D01*
X72092660Y-122328914D01*
X72423107Y-122655016D01*
X72647613Y-122655016D01*
X73336512Y-121966117D01*
X72559225Y-121188830D01*
X72334718Y-121188830D01*
X72092660Y-121426544D01*
X72061400Y-121464634D01*
X72061400Y-120784718D01*
X72738830Y-120784718D01*
X72738830Y-121009225D01*
X73516117Y-121786512D01*
X74205016Y-121097613D01*
X74205016Y-121089016D01*
X74231513Y-121089016D01*
X74920412Y-120400117D01*
X74143125Y-119622830D01*
X73918618Y-119622830D01*
X73676560Y-119860544D01*
X73597207Y-119957235D01*
X73538243Y-120067549D01*
X73501934Y-120187247D01*
X73489673Y-120311729D01*
X73494661Y-120362366D01*
X73427729Y-120355773D01*
X73303247Y-120368034D01*
X73183549Y-120404343D01*
X73073235Y-120463307D01*
X72976544Y-120542660D01*
X72738830Y-120784718D01*
X72061400Y-120784718D01*
X72061400Y-120447500D01*
X72282078Y-120447500D01*
X72319400Y-120451176D01*
X72356722Y-120447500D01*
X72356733Y-120447500D01*
X72468386Y-120436503D01*
X72611647Y-120393046D01*
X72743676Y-120322474D01*
X72859401Y-120227501D01*
X72883203Y-120198498D01*
X73000601Y-120081100D01*
X73062739Y-120081100D01*
X73262698Y-120041326D01*
X73451056Y-119963305D01*
X73620574Y-119850037D01*
X73764737Y-119705874D01*
X73878005Y-119536356D01*
X73956026Y-119347998D01*
X73995800Y-119148039D01*
X73995800Y-118944161D01*
X73980192Y-118865692D01*
X74014900Y-118842501D01*
X74356614Y-119184215D01*
X74322730Y-119218718D01*
X74322730Y-119443225D01*
X75100017Y-120220512D01*
X75114160Y-120206370D01*
X75293765Y-120385975D01*
X75279622Y-120400117D01*
X75293765Y-120414260D01*
X75114160Y-120593865D01*
X75100017Y-120579722D01*
X74411118Y-121268621D01*
X74411118Y-121277218D01*
X74384621Y-121277218D01*
X73695722Y-121966117D01*
X73709865Y-121980260D01*
X73530260Y-122159865D01*
X73516117Y-122145722D01*
X72827218Y-122834621D01*
X72827218Y-123059127D01*
X73029196Y-123263796D01*
X73024194Y-123280286D01*
X73003498Y-123348514D01*
X72992655Y-123458603D01*
X72988824Y-123497500D01*
X72992501Y-123534832D01*
X72992500Y-129055177D01*
X72988824Y-129092500D01*
X72992500Y-129129822D01*
X72992500Y-129129832D01*
X73003497Y-129241485D01*
X73043690Y-129373985D01*
X73046954Y-129384746D01*
X73117526Y-129516776D01*
X73155490Y-129563035D01*
X73212499Y-129632501D01*
X73241503Y-129656304D01*
X73814151Y-130228953D01*
X73804920Y-130240201D01*
X73745955Y-130350515D01*
X73709645Y-130470213D01*
X73697385Y-130594695D01*
X73707511Y-130697511D01*
X73604695Y-130687385D01*
X73480213Y-130699645D01*
X73360515Y-130735955D01*
X73250201Y-130794920D01*
X73153510Y-130874272D01*
X72234272Y-131793510D01*
X72154920Y-131890201D01*
X72095955Y-132000515D01*
X72059645Y-132120213D01*
X72047385Y-132244695D01*
X72059645Y-132369177D01*
X72095955Y-132488875D01*
X72154920Y-132599189D01*
X72234272Y-132695880D01*
X73294932Y-133756540D01*
X73391623Y-133835892D01*
X73501937Y-133894857D01*
X73621635Y-133931167D01*
X73746117Y-133943427D01*
X73870599Y-133931167D01*
X73990297Y-133894857D01*
X74022191Y-133877809D01*
X74005143Y-133909703D01*
X73968833Y-134029401D01*
X73956573Y-134153883D01*
X73968833Y-134278365D01*
X74005143Y-134398063D01*
X74064108Y-134508377D01*
X74143460Y-134605068D01*
X75204120Y-135665728D01*
X75300811Y-135745080D01*
X75411125Y-135804045D01*
X75530823Y-135840355D01*
X75655305Y-135852615D01*
X75779787Y-135840355D01*
X75899485Y-135804045D01*
X76009799Y-135745080D01*
X76106490Y-135665728D01*
X77025728Y-134746490D01*
X77105080Y-134649799D01*
X77164045Y-134539485D01*
X77200355Y-134419787D01*
X77212615Y-134295305D01*
X77202489Y-134192489D01*
X77234900Y-134195681D01*
X77234900Y-134633277D01*
X77231224Y-134670600D01*
X77234900Y-134707922D01*
X77234900Y-134707932D01*
X77245897Y-134819585D01*
X77276038Y-134918947D01*
X77289354Y-134962846D01*
X77359926Y-135094876D01*
X77394743Y-135137300D01*
X77454899Y-135210601D01*
X77483903Y-135234404D01*
X80565498Y-138316000D01*
X80522998Y-138316000D01*
X80522998Y-138420748D01*
X80418250Y-138316000D01*
X80315526Y-138327259D01*
X80196424Y-138365479D01*
X80090655Y-138424208D01*
X79904322Y-138337150D01*
X79644151Y-138273281D01*
X79376518Y-138261396D01*
X79111709Y-138301952D01*
X78859900Y-138393391D01*
X78752965Y-138450550D01*
X78690472Y-138686867D01*
X79450000Y-139446395D01*
X79464143Y-139432253D01*
X79643748Y-139611858D01*
X79629605Y-139626000D01*
X79643748Y-139640143D01*
X79464143Y-139819748D01*
X79450000Y-139805605D01*
X78690472Y-140565133D01*
X78736909Y-140740733D01*
X78450000Y-140737928D01*
X78418808Y-140741000D01*
X78322998Y-140741000D01*
X78322998Y-140750952D01*
X78205820Y-140786498D01*
X78168735Y-140806321D01*
X78132391Y-140782538D01*
X78094718Y-140786409D01*
X77869467Y-140878579D01*
X77666526Y-141012922D01*
X77493693Y-141184275D01*
X77357610Y-141386054D01*
X77263507Y-141610504D01*
X77215000Y-141849000D01*
X77215000Y-142199000D01*
X80823000Y-142199000D01*
X80823000Y-142179000D01*
X81077000Y-142179000D01*
X81077000Y-142199000D01*
X82823000Y-142199000D01*
X82823000Y-142179000D01*
X83077000Y-142179000D01*
X83077000Y-142199000D01*
X86685000Y-142199000D01*
X86685000Y-141849000D01*
X86636493Y-141610504D01*
X86542390Y-141386054D01*
X86406307Y-141184275D01*
X86233474Y-141012922D01*
X86030533Y-140878579D01*
X85805282Y-140786409D01*
X85767609Y-140782538D01*
X85731265Y-140806321D01*
X85694180Y-140786498D01*
X85577002Y-140750952D01*
X85577002Y-140741000D01*
X85481192Y-140741000D01*
X85450000Y-140737928D01*
X85163091Y-140740733D01*
X85209528Y-140565133D01*
X84450000Y-139805605D01*
X84435858Y-139819748D01*
X84256253Y-139640143D01*
X84270395Y-139626000D01*
X84629605Y-139626000D01*
X85389133Y-140385528D01*
X85625450Y-140323035D01*
X85738850Y-140080322D01*
X85802719Y-139820151D01*
X85814604Y-139552518D01*
X85774048Y-139287709D01*
X85682609Y-139035900D01*
X85625450Y-138928965D01*
X85389133Y-138866472D01*
X84629605Y-139626000D01*
X84270395Y-139626000D01*
X84256253Y-139611858D01*
X84435858Y-139432253D01*
X84450000Y-139446395D01*
X85209528Y-138686867D01*
X85155245Y-138481597D01*
X85283798Y-138456026D01*
X85472156Y-138378005D01*
X85641674Y-138264737D01*
X85655949Y-138250462D01*
X85624700Y-138407561D01*
X85624700Y-138611439D01*
X85664474Y-138811398D01*
X85742495Y-138999756D01*
X85855763Y-139169274D01*
X85999926Y-139313437D01*
X86169444Y-139426705D01*
X86357802Y-139504726D01*
X86557761Y-139544500D01*
X86761639Y-139544500D01*
X86961598Y-139504726D01*
X87149956Y-139426705D01*
X87319474Y-139313437D01*
X87363411Y-139269500D01*
X88343814Y-139269500D01*
X88303368Y-139296525D01*
X88096525Y-139503368D01*
X87934010Y-139746589D01*
X87822068Y-140016842D01*
X87765000Y-140303740D01*
X87765000Y-140596260D01*
X87822068Y-140883158D01*
X87934010Y-141153411D01*
X88096525Y-141396632D01*
X88303368Y-141603475D01*
X88546589Y-141765990D01*
X88816842Y-141877932D01*
X89103740Y-141935000D01*
X89396260Y-141935000D01*
X89683158Y-141877932D01*
X89953411Y-141765990D01*
X90196632Y-141603475D01*
X90403475Y-141396632D01*
X90520000Y-141222240D01*
X90636525Y-141396632D01*
X90843368Y-141603475D01*
X91086589Y-141765990D01*
X91356842Y-141877932D01*
X91643740Y-141935000D01*
X91936260Y-141935000D01*
X92223158Y-141877932D01*
X92493411Y-141765990D01*
X92736632Y-141603475D01*
X92943475Y-141396632D01*
X93060000Y-141222240D01*
X93176525Y-141396632D01*
X93383368Y-141603475D01*
X93626589Y-141765990D01*
X93896842Y-141877932D01*
X94183740Y-141935000D01*
X94476260Y-141935000D01*
X94763158Y-141877932D01*
X95033411Y-141765990D01*
X95276632Y-141603475D01*
X95483475Y-141396632D01*
X95600000Y-141222240D01*
X95716525Y-141396632D01*
X95923368Y-141603475D01*
X96166589Y-141765990D01*
X96436842Y-141877932D01*
X96723740Y-141935000D01*
X97016260Y-141935000D01*
X97303158Y-141877932D01*
X97573411Y-141765990D01*
X97816632Y-141603475D01*
X97819437Y-141600670D01*
X98841512Y-142623000D01*
X86685000Y-142623000D01*
X86685000Y-142453000D01*
X83077000Y-142453000D01*
X83077000Y-142473000D01*
X82823000Y-142473000D01*
X82823000Y-142453000D01*
X81077000Y-142453000D01*
X81077000Y-142473000D01*
X80823000Y-142473000D01*
X80823000Y-142453000D01*
X77215000Y-142453000D01*
X77215000Y-142803000D01*
X77263507Y-143041496D01*
X77357610Y-143265946D01*
X77407553Y-143340000D01*
X70882279Y-143340000D01*
X70201874Y-143273286D01*
X69578430Y-143085057D01*
X69003427Y-142779323D01*
X68498752Y-142367721D01*
X68083638Y-141865933D01*
X67773896Y-141293077D01*
X67581318Y-140670961D01*
X67527036Y-140154495D01*
X68515000Y-140154495D01*
X68515000Y-140545505D01*
X68591282Y-140929003D01*
X68740915Y-141290250D01*
X68958149Y-141615364D01*
X69234636Y-141891851D01*
X69559750Y-142109085D01*
X69920997Y-142258718D01*
X70304495Y-142335000D01*
X70695505Y-142335000D01*
X71079003Y-142258718D01*
X71440250Y-142109085D01*
X71765364Y-141891851D01*
X72041851Y-141615364D01*
X72259085Y-141290250D01*
X72408718Y-140929003D01*
X72485000Y-140545505D01*
X72485000Y-140154495D01*
X72408718Y-139770997D01*
X72379096Y-139699482D01*
X78085396Y-139699482D01*
X78125952Y-139964291D01*
X78217391Y-140216100D01*
X78274550Y-140323035D01*
X78510867Y-140385528D01*
X79270395Y-139626000D01*
X78510867Y-138866472D01*
X78274550Y-138928965D01*
X78161150Y-139171678D01*
X78097281Y-139431849D01*
X78085396Y-139699482D01*
X72379096Y-139699482D01*
X72259085Y-139409750D01*
X72041851Y-139084636D01*
X71765364Y-138808149D01*
X71440250Y-138590915D01*
X71079003Y-138441282D01*
X70695505Y-138365000D01*
X70304495Y-138365000D01*
X69920997Y-138441282D01*
X69559750Y-138590915D01*
X69234636Y-138808149D01*
X68958149Y-139084636D01*
X68740915Y-139409750D01*
X68591282Y-139770997D01*
X68515000Y-140154495D01*
X67527036Y-140154495D01*
X67510000Y-139992417D01*
X67510000Y-131861714D01*
X68050000Y-131861714D01*
X68074776Y-131859274D01*
X68098601Y-131852047D01*
X68120557Y-131840311D01*
X68139803Y-131824517D01*
X68155597Y-131805271D01*
X68167333Y-131783315D01*
X68174560Y-131759490D01*
X68177000Y-131734714D01*
X68177000Y-117483829D01*
X68210554Y-117594446D01*
G37*
X68210554Y-117594446D02*
X68281126Y-117726476D01*
X68350079Y-117810494D01*
X68376100Y-117842201D01*
X68405098Y-117865999D01*
X70541400Y-120002302D01*
X70541401Y-124221288D01*
X70497463Y-124265226D01*
X70384195Y-124434744D01*
X70306174Y-124623102D01*
X70266400Y-124823061D01*
X70266400Y-125026939D01*
X70306174Y-125226898D01*
X70384195Y-125415256D01*
X70497463Y-125584774D01*
X70641626Y-125728937D01*
X70811144Y-125842205D01*
X70999502Y-125920226D01*
X71199461Y-125960000D01*
X71403339Y-125960000D01*
X71603298Y-125920226D01*
X71791656Y-125842205D01*
X71961174Y-125728937D01*
X72105337Y-125584774D01*
X72218605Y-125415256D01*
X72296626Y-125226898D01*
X72336400Y-125026939D01*
X72336400Y-124823061D01*
X72296626Y-124623102D01*
X72218605Y-124434744D01*
X72105337Y-124265226D01*
X72061400Y-124221289D01*
X72061400Y-122290824D01*
X72092660Y-122328914D01*
X72423107Y-122655016D01*
X72647613Y-122655016D01*
X73336512Y-121966117D01*
X72559225Y-121188830D01*
X72334718Y-121188830D01*
X72092660Y-121426544D01*
X72061400Y-121464634D01*
X72061400Y-120784718D01*
X72738830Y-120784718D01*
X72738830Y-121009225D01*
X73516117Y-121786512D01*
X74205016Y-121097613D01*
X74205016Y-121089016D01*
X74231513Y-121089016D01*
X74920412Y-120400117D01*
X74143125Y-119622830D01*
X73918618Y-119622830D01*
X73676560Y-119860544D01*
X73597207Y-119957235D01*
X73538243Y-120067549D01*
X73501934Y-120187247D01*
X73489673Y-120311729D01*
X73494661Y-120362366D01*
X73427729Y-120355773D01*
X73303247Y-120368034D01*
X73183549Y-120404343D01*
X73073235Y-120463307D01*
X72976544Y-120542660D01*
X72738830Y-120784718D01*
X72061400Y-120784718D01*
X72061400Y-120447500D01*
X72282078Y-120447500D01*
X72319400Y-120451176D01*
X72356722Y-120447500D01*
X72356733Y-120447500D01*
X72468386Y-120436503D01*
X72611647Y-120393046D01*
X72743676Y-120322474D01*
X72859401Y-120227501D01*
X72883203Y-120198498D01*
X73000601Y-120081100D01*
X73062739Y-120081100D01*
X73262698Y-120041326D01*
X73451056Y-119963305D01*
X73620574Y-119850037D01*
X73764737Y-119705874D01*
X73878005Y-119536356D01*
X73956026Y-119347998D01*
X73995800Y-119148039D01*
X73995800Y-118944161D01*
X73980192Y-118865692D01*
X74014900Y-118842501D01*
X74356614Y-119184215D01*
X74322730Y-119218718D01*
X74322730Y-119443225D01*
X75100017Y-120220512D01*
X75114160Y-120206370D01*
X75293765Y-120385975D01*
X75279622Y-120400117D01*
X75293765Y-120414260D01*
X75114160Y-120593865D01*
X75100017Y-120579722D01*
X74411118Y-121268621D01*
X74411118Y-121277218D01*
X74384621Y-121277218D01*
X73695722Y-121966117D01*
X73709865Y-121980260D01*
X73530260Y-122159865D01*
X73516117Y-122145722D01*
X72827218Y-122834621D01*
X72827218Y-123059127D01*
X73029196Y-123263796D01*
X73024194Y-123280286D01*
X73003498Y-123348514D01*
X72992655Y-123458603D01*
X72988824Y-123497500D01*
X72992501Y-123534832D01*
X72992500Y-129055177D01*
X72988824Y-129092500D01*
X72992500Y-129129822D01*
X72992500Y-129129832D01*
X73003497Y-129241485D01*
X73043690Y-129373985D01*
X73046954Y-129384746D01*
X73117526Y-129516776D01*
X73155490Y-129563035D01*
X73212499Y-129632501D01*
X73241503Y-129656304D01*
X73814151Y-130228953D01*
X73804920Y-130240201D01*
X73745955Y-130350515D01*
X73709645Y-130470213D01*
X73697385Y-130594695D01*
X73707511Y-130697511D01*
X73604695Y-130687385D01*
X73480213Y-130699645D01*
X73360515Y-130735955D01*
X73250201Y-130794920D01*
X73153510Y-130874272D01*
X72234272Y-131793510D01*
X72154920Y-131890201D01*
X72095955Y-132000515D01*
X72059645Y-132120213D01*
X72047385Y-132244695D01*
X72059645Y-132369177D01*
X72095955Y-132488875D01*
X72154920Y-132599189D01*
X72234272Y-132695880D01*
X73294932Y-133756540D01*
X73391623Y-133835892D01*
X73501937Y-133894857D01*
X73621635Y-133931167D01*
X73746117Y-133943427D01*
X73870599Y-133931167D01*
X73990297Y-133894857D01*
X74022191Y-133877809D01*
X74005143Y-133909703D01*
X73968833Y-134029401D01*
X73956573Y-134153883D01*
X73968833Y-134278365D01*
X74005143Y-134398063D01*
X74064108Y-134508377D01*
X74143460Y-134605068D01*
X75204120Y-135665728D01*
X75300811Y-135745080D01*
X75411125Y-135804045D01*
X75530823Y-135840355D01*
X75655305Y-135852615D01*
X75779787Y-135840355D01*
X75899485Y-135804045D01*
X76009799Y-135745080D01*
X76106490Y-135665728D01*
X77025728Y-134746490D01*
X77105080Y-134649799D01*
X77164045Y-134539485D01*
X77200355Y-134419787D01*
X77212615Y-134295305D01*
X77202489Y-134192489D01*
X77234900Y-134195681D01*
X77234900Y-134633277D01*
X77231224Y-134670600D01*
X77234900Y-134707922D01*
X77234900Y-134707932D01*
X77245897Y-134819585D01*
X77276038Y-134918947D01*
X77289354Y-134962846D01*
X77359926Y-135094876D01*
X77394743Y-135137300D01*
X77454899Y-135210601D01*
X77483903Y-135234404D01*
X80565498Y-138316000D01*
X80522998Y-138316000D01*
X80522998Y-138420748D01*
X80418250Y-138316000D01*
X80315526Y-138327259D01*
X80196424Y-138365479D01*
X80090655Y-138424208D01*
X79904322Y-138337150D01*
X79644151Y-138273281D01*
X79376518Y-138261396D01*
X79111709Y-138301952D01*
X78859900Y-138393391D01*
X78752965Y-138450550D01*
X78690472Y-138686867D01*
X79450000Y-139446395D01*
X79464143Y-139432253D01*
X79643748Y-139611858D01*
X79629605Y-139626000D01*
X79643748Y-139640143D01*
X79464143Y-139819748D01*
X79450000Y-139805605D01*
X78690472Y-140565133D01*
X78736909Y-140740733D01*
X78450000Y-140737928D01*
X78418808Y-140741000D01*
X78322998Y-140741000D01*
X78322998Y-140750952D01*
X78205820Y-140786498D01*
X78168735Y-140806321D01*
X78132391Y-140782538D01*
X78094718Y-140786409D01*
X77869467Y-140878579D01*
X77666526Y-141012922D01*
X77493693Y-141184275D01*
X77357610Y-141386054D01*
X77263507Y-141610504D01*
X77215000Y-141849000D01*
X77215000Y-142199000D01*
X80823000Y-142199000D01*
X80823000Y-142179000D01*
X81077000Y-142179000D01*
X81077000Y-142199000D01*
X82823000Y-142199000D01*
X82823000Y-142179000D01*
X83077000Y-142179000D01*
X83077000Y-142199000D01*
X86685000Y-142199000D01*
X86685000Y-141849000D01*
X86636493Y-141610504D01*
X86542390Y-141386054D01*
X86406307Y-141184275D01*
X86233474Y-141012922D01*
X86030533Y-140878579D01*
X85805282Y-140786409D01*
X85767609Y-140782538D01*
X85731265Y-140806321D01*
X85694180Y-140786498D01*
X85577002Y-140750952D01*
X85577002Y-140741000D01*
X85481192Y-140741000D01*
X85450000Y-140737928D01*
X85163091Y-140740733D01*
X85209528Y-140565133D01*
X84450000Y-139805605D01*
X84435858Y-139819748D01*
X84256253Y-139640143D01*
X84270395Y-139626000D01*
X84629605Y-139626000D01*
X85389133Y-140385528D01*
X85625450Y-140323035D01*
X85738850Y-140080322D01*
X85802719Y-139820151D01*
X85814604Y-139552518D01*
X85774048Y-139287709D01*
X85682609Y-139035900D01*
X85625450Y-138928965D01*
X85389133Y-138866472D01*
X84629605Y-139626000D01*
X84270395Y-139626000D01*
X84256253Y-139611858D01*
X84435858Y-139432253D01*
X84450000Y-139446395D01*
X85209528Y-138686867D01*
X85155245Y-138481597D01*
X85283798Y-138456026D01*
X85472156Y-138378005D01*
X85641674Y-138264737D01*
X85655949Y-138250462D01*
X85624700Y-138407561D01*
X85624700Y-138611439D01*
X85664474Y-138811398D01*
X85742495Y-138999756D01*
X85855763Y-139169274D01*
X85999926Y-139313437D01*
X86169444Y-139426705D01*
X86357802Y-139504726D01*
X86557761Y-139544500D01*
X86761639Y-139544500D01*
X86961598Y-139504726D01*
X87149956Y-139426705D01*
X87319474Y-139313437D01*
X87363411Y-139269500D01*
X88343814Y-139269500D01*
X88303368Y-139296525D01*
X88096525Y-139503368D01*
X87934010Y-139746589D01*
X87822068Y-140016842D01*
X87765000Y-140303740D01*
X87765000Y-140596260D01*
X87822068Y-140883158D01*
X87934010Y-141153411D01*
X88096525Y-141396632D01*
X88303368Y-141603475D01*
X88546589Y-141765990D01*
X88816842Y-141877932D01*
X89103740Y-141935000D01*
X89396260Y-141935000D01*
X89683158Y-141877932D01*
X89953411Y-141765990D01*
X90196632Y-141603475D01*
X90403475Y-141396632D01*
X90520000Y-141222240D01*
X90636525Y-141396632D01*
X90843368Y-141603475D01*
X91086589Y-141765990D01*
X91356842Y-141877932D01*
X91643740Y-141935000D01*
X91936260Y-141935000D01*
X92223158Y-141877932D01*
X92493411Y-141765990D01*
X92736632Y-141603475D01*
X92943475Y-141396632D01*
X93060000Y-141222240D01*
X93176525Y-141396632D01*
X93383368Y-141603475D01*
X93626589Y-141765990D01*
X93896842Y-141877932D01*
X94183740Y-141935000D01*
X94476260Y-141935000D01*
X94763158Y-141877932D01*
X95033411Y-141765990D01*
X95276632Y-141603475D01*
X95483475Y-141396632D01*
X95600000Y-141222240D01*
X95716525Y-141396632D01*
X95923368Y-141603475D01*
X96166589Y-141765990D01*
X96436842Y-141877932D01*
X96723740Y-141935000D01*
X97016260Y-141935000D01*
X97303158Y-141877932D01*
X97573411Y-141765990D01*
X97816632Y-141603475D01*
X97819437Y-141600670D01*
X98841512Y-142623000D01*
X86685000Y-142623000D01*
X86685000Y-142453000D01*
X83077000Y-142453000D01*
X83077000Y-142473000D01*
X82823000Y-142473000D01*
X82823000Y-142453000D01*
X81077000Y-142453000D01*
X81077000Y-142473000D01*
X80823000Y-142473000D01*
X80823000Y-142453000D01*
X77215000Y-142453000D01*
X77215000Y-142803000D01*
X77263507Y-143041496D01*
X77357610Y-143265946D01*
X77407553Y-143340000D01*
X70882279Y-143340000D01*
X70201874Y-143273286D01*
X69578430Y-143085057D01*
X69003427Y-142779323D01*
X68498752Y-142367721D01*
X68083638Y-141865933D01*
X67773896Y-141293077D01*
X67581318Y-140670961D01*
X67527036Y-140154495D01*
X68515000Y-140154495D01*
X68515000Y-140545505D01*
X68591282Y-140929003D01*
X68740915Y-141290250D01*
X68958149Y-141615364D01*
X69234636Y-141891851D01*
X69559750Y-142109085D01*
X69920997Y-142258718D01*
X70304495Y-142335000D01*
X70695505Y-142335000D01*
X71079003Y-142258718D01*
X71440250Y-142109085D01*
X71765364Y-141891851D01*
X72041851Y-141615364D01*
X72259085Y-141290250D01*
X72408718Y-140929003D01*
X72485000Y-140545505D01*
X72485000Y-140154495D01*
X72408718Y-139770997D01*
X72379096Y-139699482D01*
X78085396Y-139699482D01*
X78125952Y-139964291D01*
X78217391Y-140216100D01*
X78274550Y-140323035D01*
X78510867Y-140385528D01*
X79270395Y-139626000D01*
X78510867Y-138866472D01*
X78274550Y-138928965D01*
X78161150Y-139171678D01*
X78097281Y-139431849D01*
X78085396Y-139699482D01*
X72379096Y-139699482D01*
X72259085Y-139409750D01*
X72041851Y-139084636D01*
X71765364Y-138808149D01*
X71440250Y-138590915D01*
X71079003Y-138441282D01*
X70695505Y-138365000D01*
X70304495Y-138365000D01*
X69920997Y-138441282D01*
X69559750Y-138590915D01*
X69234636Y-138808149D01*
X68958149Y-139084636D01*
X68740915Y-139409750D01*
X68591282Y-139770997D01*
X68515000Y-140154495D01*
X67527036Y-140154495D01*
X67510000Y-139992417D01*
X67510000Y-131861714D01*
X68050000Y-131861714D01*
X68074776Y-131859274D01*
X68098601Y-131852047D01*
X68120557Y-131840311D01*
X68139803Y-131824517D01*
X68155597Y-131805271D01*
X68167333Y-131783315D01*
X68174560Y-131759490D01*
X68177000Y-131734714D01*
X68177000Y-117483829D01*
X68210554Y-117594446D01*
G36*
X127477000Y-95823000D02*
G01*
X127497000Y-95823000D01*
X127497000Y-96077000D01*
X127477000Y-96077000D01*
X127477000Y-97276250D01*
X127635750Y-97435000D01*
X128200000Y-97438072D01*
X128324482Y-97425812D01*
X128431988Y-97393200D01*
X134508001Y-103469213D01*
X134508001Y-105675738D01*
X127749112Y-105723003D01*
X127725224Y-105725440D01*
X127701399Y-105732667D01*
X127679443Y-105744403D01*
X127660197Y-105760197D01*
X127644403Y-105779443D01*
X127632667Y-105801399D01*
X127625440Y-105825224D01*
X127623000Y-105850000D01*
X127623000Y-122150000D01*
X127625617Y-122175647D01*
X127633010Y-122199420D01*
X127644899Y-122221294D01*
X127660828Y-122240428D01*
X127680183Y-122256087D01*
X127702221Y-122267670D01*
X127726095Y-122274730D01*
X127750888Y-122276997D01*
X134508000Y-122229744D01*
X134508000Y-123327498D01*
X129166410Y-128669089D01*
X129166185Y-128668815D01*
X129106704Y-128620000D01*
X129166185Y-128571185D01*
X129245537Y-128474494D01*
X129304502Y-128364180D01*
X129340812Y-128244482D01*
X129353072Y-128120000D01*
X129350000Y-127655750D01*
X129191250Y-127497000D01*
X128217000Y-127497000D01*
X128217000Y-127517000D01*
X127963000Y-127517000D01*
X127963000Y-127497000D01*
X126988750Y-127497000D01*
X126830000Y-127655750D01*
X126826928Y-128120000D01*
X126839188Y-128244482D01*
X126875498Y-128364180D01*
X126934463Y-128474494D01*
X127013815Y-128571185D01*
X127073296Y-128620000D01*
X127013815Y-128668815D01*
X126934463Y-128765506D01*
X126875498Y-128875820D01*
X126839188Y-128995518D01*
X126827913Y-129110000D01*
X123009803Y-129110000D01*
X122735000Y-128835198D01*
X122735000Y-128773061D01*
X122695226Y-128573102D01*
X122617205Y-128384744D01*
X122503937Y-128215226D01*
X122359774Y-128071063D01*
X122190256Y-127957795D01*
X122001898Y-127879774D01*
X121801939Y-127840000D01*
X121598061Y-127840000D01*
X121398102Y-127879774D01*
X121209744Y-127957795D01*
X121040226Y-128071063D01*
X120896063Y-128215226D01*
X120782795Y-128384744D01*
X120704774Y-128573102D01*
X120665000Y-128773061D01*
X120665000Y-128976939D01*
X120704774Y-129176898D01*
X120782795Y-129365256D01*
X120896063Y-129534774D01*
X121040226Y-129678937D01*
X121209744Y-129792205D01*
X121398102Y-129870226D01*
X121598061Y-129910000D01*
X121660198Y-129910000D01*
X122131205Y-130381008D01*
X122154999Y-130410001D01*
X122183992Y-130433795D01*
X122183996Y-130433799D01*
X122237735Y-130477901D01*
X122270724Y-130504974D01*
X122402753Y-130575546D01*
X122546014Y-130619003D01*
X122657667Y-130630000D01*
X122657676Y-130630000D01*
X122694999Y-130633676D01*
X122732322Y-130630000D01*
X126827913Y-130630000D01*
X126839188Y-130744482D01*
X126875498Y-130864180D01*
X126934463Y-130974494D01*
X127013815Y-131071185D01*
X127110506Y-131150537D01*
X127220820Y-131209502D01*
X127340518Y-131245812D01*
X127465000Y-131258072D01*
X128715000Y-131258072D01*
X128839482Y-131245812D01*
X128959180Y-131209502D01*
X129069494Y-131150537D01*
X129166185Y-131071185D01*
X129245537Y-130974494D01*
X129304502Y-130864180D01*
X129340812Y-130744482D01*
X129353072Y-130620000D01*
X129353072Y-130564575D01*
X129464576Y-130504974D01*
X129580301Y-130410001D01*
X129604104Y-130380997D01*
X134995000Y-124990102D01*
X134995000Y-128014897D01*
X124298998Y-138710901D01*
X124270000Y-138734699D01*
X124246202Y-138763697D01*
X124246201Y-138763698D01*
X124175026Y-138850424D01*
X124104454Y-138982454D01*
X124083972Y-139049976D01*
X124060998Y-139125714D01*
X124056912Y-139167203D01*
X123863368Y-139296525D01*
X123656525Y-139503368D01*
X123540000Y-139677760D01*
X123423475Y-139503368D01*
X123216632Y-139296525D01*
X123023089Y-139167204D01*
X123019003Y-139125714D01*
X122975546Y-138982453D01*
X122913552Y-138866472D01*
X122904974Y-138850423D01*
X122833799Y-138763697D01*
X122810001Y-138734699D01*
X122781003Y-138710901D01*
X118425800Y-134355699D01*
X118425800Y-131138011D01*
X118469737Y-131094074D01*
X118583005Y-130924556D01*
X118661026Y-130736198D01*
X118700800Y-130536239D01*
X118700800Y-130332361D01*
X118661026Y-130132402D01*
X118583005Y-129944044D01*
X118469737Y-129774526D01*
X118325574Y-129630363D01*
X118156056Y-129517095D01*
X117967698Y-129439074D01*
X117767739Y-129399300D01*
X117700802Y-129399300D01*
X118911003Y-128189099D01*
X118940001Y-128165301D01*
X119034974Y-128049576D01*
X119094575Y-127938072D01*
X119150000Y-127938072D01*
X119274482Y-127925812D01*
X119394180Y-127889502D01*
X119504494Y-127830537D01*
X119601185Y-127751185D01*
X119680537Y-127654494D01*
X119739502Y-127544180D01*
X119775812Y-127424482D01*
X119788072Y-127300000D01*
X119788072Y-126620000D01*
X126826928Y-126620000D01*
X126830000Y-127084250D01*
X126988750Y-127243000D01*
X127963000Y-127243000D01*
X127963000Y-126143750D01*
X128217000Y-126143750D01*
X128217000Y-127243000D01*
X129191250Y-127243000D01*
X129350000Y-127084250D01*
X129353072Y-126620000D01*
X129340812Y-126495518D01*
X129304502Y-126375820D01*
X129245537Y-126265506D01*
X129166185Y-126168815D01*
X129069494Y-126089463D01*
X128959180Y-126030498D01*
X128839482Y-125994188D01*
X128715000Y-125981928D01*
X128375750Y-125985000D01*
X128217000Y-126143750D01*
X127963000Y-126143750D01*
X127804250Y-125985000D01*
X127465000Y-125981928D01*
X127340518Y-125994188D01*
X127220820Y-126030498D01*
X127110506Y-126089463D01*
X127013815Y-126168815D01*
X126934463Y-126265506D01*
X126875498Y-126375820D01*
X126839188Y-126495518D01*
X126826928Y-126620000D01*
X119788072Y-126620000D01*
X119788072Y-126336729D01*
X122233502Y-123891300D01*
X126142667Y-123891300D01*
X126180000Y-123894977D01*
X126221689Y-123890871D01*
X126328986Y-123880303D01*
X126472247Y-123836846D01*
X126604276Y-123766274D01*
X126720001Y-123671301D01*
X126814974Y-123555576D01*
X126885546Y-123423547D01*
X126891000Y-123405567D01*
X126924180Y-123395502D01*
X127034494Y-123336537D01*
X127131185Y-123257185D01*
X127210537Y-123160494D01*
X127269502Y-123050180D01*
X127305812Y-122930482D01*
X127318072Y-122806000D01*
X127318072Y-120306000D01*
X127305812Y-120181518D01*
X127269502Y-120061820D01*
X127210537Y-119951506D01*
X127131185Y-119854815D01*
X127034494Y-119775463D01*
X126924180Y-119716498D01*
X126804482Y-119680188D01*
X126680000Y-119667928D01*
X126124276Y-119667928D01*
X126103226Y-119562102D01*
X126025205Y-119373744D01*
X125911937Y-119204226D01*
X125767774Y-119060063D01*
X125598256Y-118946795D01*
X125409898Y-118868774D01*
X125209939Y-118829000D01*
X125006061Y-118829000D01*
X124806102Y-118868774D01*
X124617744Y-118946795D01*
X124448226Y-119060063D01*
X124404289Y-119104000D01*
X113724604Y-119104000D01*
X113724226Y-119102102D01*
X113646205Y-118913744D01*
X113532937Y-118744226D01*
X113388774Y-118600063D01*
X113219256Y-118486795D01*
X113030898Y-118408774D01*
X112830939Y-118369000D01*
X112627061Y-118369000D01*
X112427102Y-118408774D01*
X112238744Y-118486795D01*
X112218072Y-118500608D01*
X112218072Y-118456000D01*
X112205812Y-118331518D01*
X112169502Y-118211820D01*
X112110537Y-118101506D01*
X112031185Y-118004815D01*
X111971704Y-117956000D01*
X112031185Y-117907185D01*
X112110537Y-117810494D01*
X112169502Y-117700180D01*
X112205812Y-117580482D01*
X112218072Y-117456000D01*
X112218072Y-116456000D01*
X112205812Y-116331518D01*
X112169502Y-116211820D01*
X112110537Y-116101506D01*
X112031185Y-116004815D01*
X111971704Y-115956000D01*
X112031185Y-115907185D01*
X112110537Y-115810494D01*
X112169502Y-115700180D01*
X112205812Y-115580482D01*
X112218072Y-115456000D01*
X112218072Y-114456000D01*
X112205812Y-114331518D01*
X112169502Y-114211820D01*
X112110537Y-114101506D01*
X112031185Y-114004815D01*
X111971704Y-113956000D01*
X112031185Y-113907185D01*
X112110537Y-113810494D01*
X112169502Y-113700180D01*
X112205812Y-113580482D01*
X112218072Y-113456000D01*
X112218072Y-112456000D01*
X112205812Y-112331518D01*
X112169502Y-112211820D01*
X112110537Y-112101506D01*
X112031185Y-112004815D01*
X111971704Y-111956000D01*
X112031185Y-111907185D01*
X112110537Y-111810494D01*
X112169502Y-111700180D01*
X112205812Y-111580482D01*
X112218072Y-111456000D01*
X112218072Y-110456000D01*
X112205812Y-110331518D01*
X112169502Y-110211820D01*
X112110537Y-110101506D01*
X112031185Y-110004815D01*
X111971704Y-109956000D01*
X112031185Y-109907185D01*
X112110537Y-109810494D01*
X112169502Y-109700180D01*
X112205812Y-109580482D01*
X112218072Y-109456000D01*
X112218072Y-108456000D01*
X112205812Y-108331518D01*
X112169502Y-108211820D01*
X112110537Y-108101506D01*
X112053000Y-108031397D01*
X112053000Y-106483000D01*
X111203750Y-106483000D01*
X111045000Y-106641750D01*
X111041928Y-107606000D01*
X111054188Y-107730482D01*
X111080714Y-107817928D01*
X110664300Y-107817928D01*
X110664300Y-104840583D01*
X110755820Y-104889502D01*
X110875518Y-104925812D01*
X111000000Y-104938072D01*
X111067503Y-104937625D01*
X111054188Y-104981518D01*
X111041928Y-105106000D01*
X111045000Y-106070250D01*
X111203750Y-106229000D01*
X112053000Y-106229000D01*
X112053000Y-106209000D01*
X112307000Y-106209000D01*
X112307000Y-106229000D01*
X112327000Y-106229000D01*
X112327000Y-106483000D01*
X112307000Y-106483000D01*
X112307000Y-108082250D01*
X112465750Y-108241000D01*
X112680000Y-108244072D01*
X112759628Y-108236230D01*
X115715001Y-111191603D01*
X115738799Y-111220601D01*
X115854524Y-111315574D01*
X115986553Y-111386146D01*
X116129814Y-111429603D01*
X116241467Y-111440600D01*
X116241477Y-111440600D01*
X116278800Y-111444276D01*
X116316123Y-111440600D01*
X116674200Y-111440600D01*
X116674201Y-111809688D01*
X116630263Y-111853626D01*
X116516995Y-112023144D01*
X116438974Y-112211502D01*
X116399200Y-112411461D01*
X116399200Y-112615339D01*
X116438974Y-112815298D01*
X116516995Y-113003656D01*
X116630263Y-113173174D01*
X116774426Y-113317337D01*
X116943944Y-113430605D01*
X117132302Y-113508626D01*
X117332261Y-113548400D01*
X117536139Y-113548400D01*
X117736098Y-113508626D01*
X117924456Y-113430605D01*
X118093974Y-113317337D01*
X118238137Y-113173174D01*
X118351405Y-113003656D01*
X118429426Y-112815298D01*
X118469200Y-112615339D01*
X118469200Y-112411461D01*
X118429426Y-112211502D01*
X118351405Y-112023144D01*
X118238137Y-111853626D01*
X118194200Y-111809689D01*
X118194200Y-111068301D01*
X118850234Y-110412268D01*
X118875963Y-110450774D01*
X119020126Y-110594937D01*
X119189644Y-110708205D01*
X119378002Y-110786226D01*
X119577961Y-110826000D01*
X119781839Y-110826000D01*
X119981798Y-110786226D01*
X120170156Y-110708205D01*
X120339674Y-110594937D01*
X120386449Y-110548162D01*
X120469286Y-110540003D01*
X120612547Y-110496546D01*
X120744576Y-110425974D01*
X120860301Y-110331001D01*
X120884104Y-110301997D01*
X122691003Y-108495099D01*
X122720001Y-108471301D01*
X122758606Y-108424261D01*
X122814974Y-108355577D01*
X122885546Y-108223547D01*
X122888683Y-108213205D01*
X122891000Y-108205567D01*
X122924180Y-108195502D01*
X123034494Y-108136537D01*
X123131185Y-108057185D01*
X123180000Y-107997704D01*
X123228815Y-108057185D01*
X123325506Y-108136537D01*
X123435820Y-108195502D01*
X123555518Y-108231812D01*
X123680000Y-108244072D01*
X124680000Y-108244072D01*
X124804482Y-108231812D01*
X124924180Y-108195502D01*
X125034494Y-108136537D01*
X125131185Y-108057185D01*
X125180000Y-107997704D01*
X125228815Y-108057185D01*
X125325506Y-108136537D01*
X125435820Y-108195502D01*
X125555518Y-108231812D01*
X125680000Y-108244072D01*
X126680000Y-108244072D01*
X126804482Y-108231812D01*
X126924180Y-108195502D01*
X127034494Y-108136537D01*
X127131185Y-108057185D01*
X127210537Y-107960494D01*
X127269502Y-107850180D01*
X127305812Y-107730482D01*
X127318072Y-107606000D01*
X127318072Y-105233229D01*
X127836004Y-104715298D01*
X127865001Y-104691501D01*
X127959974Y-104575776D01*
X128030546Y-104443747D01*
X128074003Y-104300486D01*
X128085000Y-104188833D01*
X128085000Y-104188824D01*
X128088676Y-104151501D01*
X128085000Y-104114178D01*
X128085000Y-102303711D01*
X128128937Y-102259774D01*
X128242205Y-102090256D01*
X128320226Y-101901898D01*
X128360000Y-101701939D01*
X128360000Y-101498061D01*
X128325666Y-101325453D01*
X128444180Y-101289502D01*
X128554494Y-101230537D01*
X128651185Y-101151185D01*
X128730537Y-101054494D01*
X128789502Y-100944180D01*
X128825812Y-100824482D01*
X128838072Y-100700000D01*
X128838072Y-99000000D01*
X128825812Y-98875518D01*
X128789502Y-98755820D01*
X128730537Y-98645506D01*
X128651185Y-98548815D01*
X128554494Y-98469463D01*
X128444180Y-98410498D01*
X128324482Y-98374188D01*
X128200000Y-98361928D01*
X126500000Y-98361928D01*
X126375518Y-98374188D01*
X126255820Y-98410498D01*
X126145506Y-98469463D01*
X126048815Y-98548815D01*
X125969463Y-98645506D01*
X125910498Y-98755820D01*
X125888487Y-98828380D01*
X125756632Y-98696525D01*
X125513411Y-98534010D01*
X125243158Y-98422068D01*
X124956260Y-98365000D01*
X124663740Y-98365000D01*
X124376842Y-98422068D01*
X124205000Y-98493247D01*
X124205000Y-98337971D01*
X124208676Y-98300697D01*
X124205000Y-98263325D01*
X124205000Y-98263267D01*
X124200610Y-98218698D01*
X124194021Y-98151709D01*
X124194008Y-98151667D01*
X124194003Y-98151614D01*
X124170983Y-98075725D01*
X124150583Y-98008443D01*
X124150561Y-98008401D01*
X124150546Y-98008353D01*
X124115514Y-97942813D01*
X124080028Y-97876404D01*
X124079996Y-97876365D01*
X124079974Y-97876324D01*
X124032731Y-97818758D01*
X124008864Y-97789669D01*
X124008831Y-97789636D01*
X123985001Y-97760599D01*
X123956039Y-97736830D01*
X123269745Y-97050362D01*
X123423475Y-96896632D01*
X123540000Y-96722240D01*
X123656525Y-96896632D01*
X123863368Y-97103475D01*
X124106589Y-97265990D01*
X124376842Y-97377932D01*
X124663740Y-97435000D01*
X124956260Y-97435000D01*
X125243158Y-97377932D01*
X125513411Y-97265990D01*
X125756632Y-97103475D01*
X125888487Y-96971620D01*
X125910498Y-97044180D01*
X125969463Y-97154494D01*
X126048815Y-97251185D01*
X126145506Y-97330537D01*
X126255820Y-97389502D01*
X126375518Y-97425812D01*
X126500000Y-97438072D01*
X127064250Y-97435000D01*
X127223000Y-97276250D01*
X127223000Y-96077000D01*
X127203000Y-96077000D01*
X127203000Y-95823000D01*
X127223000Y-95823000D01*
X127223000Y-95803000D01*
X127477000Y-95803000D01*
X127477000Y-95823000D01*
G37*
X127477000Y-95823000D02*
X127497000Y-95823000D01*
X127497000Y-96077000D01*
X127477000Y-96077000D01*
X127477000Y-97276250D01*
X127635750Y-97435000D01*
X128200000Y-97438072D01*
X128324482Y-97425812D01*
X128431988Y-97393200D01*
X134508001Y-103469213D01*
X134508001Y-105675738D01*
X127749112Y-105723003D01*
X127725224Y-105725440D01*
X127701399Y-105732667D01*
X127679443Y-105744403D01*
X127660197Y-105760197D01*
X127644403Y-105779443D01*
X127632667Y-105801399D01*
X127625440Y-105825224D01*
X127623000Y-105850000D01*
X127623000Y-122150000D01*
X127625617Y-122175647D01*
X127633010Y-122199420D01*
X127644899Y-122221294D01*
X127660828Y-122240428D01*
X127680183Y-122256087D01*
X127702221Y-122267670D01*
X127726095Y-122274730D01*
X127750888Y-122276997D01*
X134508000Y-122229744D01*
X134508000Y-123327498D01*
X129166410Y-128669089D01*
X129166185Y-128668815D01*
X129106704Y-128620000D01*
X129166185Y-128571185D01*
X129245537Y-128474494D01*
X129304502Y-128364180D01*
X129340812Y-128244482D01*
X129353072Y-128120000D01*
X129350000Y-127655750D01*
X129191250Y-127497000D01*
X128217000Y-127497000D01*
X128217000Y-127517000D01*
X127963000Y-127517000D01*
X127963000Y-127497000D01*
X126988750Y-127497000D01*
X126830000Y-127655750D01*
X126826928Y-128120000D01*
X126839188Y-128244482D01*
X126875498Y-128364180D01*
X126934463Y-128474494D01*
X127013815Y-128571185D01*
X127073296Y-128620000D01*
X127013815Y-128668815D01*
X126934463Y-128765506D01*
X126875498Y-128875820D01*
X126839188Y-128995518D01*
X126827913Y-129110000D01*
X123009803Y-129110000D01*
X122735000Y-128835198D01*
X122735000Y-128773061D01*
X122695226Y-128573102D01*
X122617205Y-128384744D01*
X122503937Y-128215226D01*
X122359774Y-128071063D01*
X122190256Y-127957795D01*
X122001898Y-127879774D01*
X121801939Y-127840000D01*
X121598061Y-127840000D01*
X121398102Y-127879774D01*
X121209744Y-127957795D01*
X121040226Y-128071063D01*
X120896063Y-128215226D01*
X120782795Y-128384744D01*
X120704774Y-128573102D01*
X120665000Y-128773061D01*
X120665000Y-128976939D01*
X120704774Y-129176898D01*
X120782795Y-129365256D01*
X120896063Y-129534774D01*
X121040226Y-129678937D01*
X121209744Y-129792205D01*
X121398102Y-129870226D01*
X121598061Y-129910000D01*
X121660198Y-129910000D01*
X122131205Y-130381008D01*
X122154999Y-130410001D01*
X122183992Y-130433795D01*
X122183996Y-130433799D01*
X122237735Y-130477901D01*
X122270724Y-130504974D01*
X122402753Y-130575546D01*
X122546014Y-130619003D01*
X122657667Y-130630000D01*
X122657676Y-130630000D01*
X122694999Y-130633676D01*
X122732322Y-130630000D01*
X126827913Y-130630000D01*
X126839188Y-130744482D01*
X126875498Y-130864180D01*
X126934463Y-130974494D01*
X127013815Y-131071185D01*
X127110506Y-131150537D01*
X127220820Y-131209502D01*
X127340518Y-131245812D01*
X127465000Y-131258072D01*
X128715000Y-131258072D01*
X128839482Y-131245812D01*
X128959180Y-131209502D01*
X129069494Y-131150537D01*
X129166185Y-131071185D01*
X129245537Y-130974494D01*
X129304502Y-130864180D01*
X129340812Y-130744482D01*
X129353072Y-130620000D01*
X129353072Y-130564575D01*
X129464576Y-130504974D01*
X129580301Y-130410001D01*
X129604104Y-130380997D01*
X134995000Y-124990102D01*
X134995000Y-128014897D01*
X124298998Y-138710901D01*
X124270000Y-138734699D01*
X124246202Y-138763697D01*
X124246201Y-138763698D01*
X124175026Y-138850424D01*
X124104454Y-138982454D01*
X124083972Y-139049976D01*
X124060998Y-139125714D01*
X124056912Y-139167203D01*
X123863368Y-139296525D01*
X123656525Y-139503368D01*
X123540000Y-139677760D01*
X123423475Y-139503368D01*
X123216632Y-139296525D01*
X123023089Y-139167204D01*
X123019003Y-139125714D01*
X122975546Y-138982453D01*
X122913552Y-138866472D01*
X122904974Y-138850423D01*
X122833799Y-138763697D01*
X122810001Y-138734699D01*
X122781003Y-138710901D01*
X118425800Y-134355699D01*
X118425800Y-131138011D01*
X118469737Y-131094074D01*
X118583005Y-130924556D01*
X118661026Y-130736198D01*
X118700800Y-130536239D01*
X118700800Y-130332361D01*
X118661026Y-130132402D01*
X118583005Y-129944044D01*
X118469737Y-129774526D01*
X118325574Y-129630363D01*
X118156056Y-129517095D01*
X117967698Y-129439074D01*
X117767739Y-129399300D01*
X117700802Y-129399300D01*
X118911003Y-128189099D01*
X118940001Y-128165301D01*
X119034974Y-128049576D01*
X119094575Y-127938072D01*
X119150000Y-127938072D01*
X119274482Y-127925812D01*
X119394180Y-127889502D01*
X119504494Y-127830537D01*
X119601185Y-127751185D01*
X119680537Y-127654494D01*
X119739502Y-127544180D01*
X119775812Y-127424482D01*
X119788072Y-127300000D01*
X119788072Y-126620000D01*
X126826928Y-126620000D01*
X126830000Y-127084250D01*
X126988750Y-127243000D01*
X127963000Y-127243000D01*
X127963000Y-126143750D01*
X128217000Y-126143750D01*
X128217000Y-127243000D01*
X129191250Y-127243000D01*
X129350000Y-127084250D01*
X129353072Y-126620000D01*
X129340812Y-126495518D01*
X129304502Y-126375820D01*
X129245537Y-126265506D01*
X129166185Y-126168815D01*
X129069494Y-126089463D01*
X128959180Y-126030498D01*
X128839482Y-125994188D01*
X128715000Y-125981928D01*
X128375750Y-125985000D01*
X128217000Y-126143750D01*
X127963000Y-126143750D01*
X127804250Y-125985000D01*
X127465000Y-125981928D01*
X127340518Y-125994188D01*
X127220820Y-126030498D01*
X127110506Y-126089463D01*
X127013815Y-126168815D01*
X126934463Y-126265506D01*
X126875498Y-126375820D01*
X126839188Y-126495518D01*
X126826928Y-126620000D01*
X119788072Y-126620000D01*
X119788072Y-126336729D01*
X122233502Y-123891300D01*
X126142667Y-123891300D01*
X126180000Y-123894977D01*
X126221689Y-123890871D01*
X126328986Y-123880303D01*
X126472247Y-123836846D01*
X126604276Y-123766274D01*
X126720001Y-123671301D01*
X126814974Y-123555576D01*
X126885546Y-123423547D01*
X126891000Y-123405567D01*
X126924180Y-123395502D01*
X127034494Y-123336537D01*
X127131185Y-123257185D01*
X127210537Y-123160494D01*
X127269502Y-123050180D01*
X127305812Y-122930482D01*
X127318072Y-122806000D01*
X127318072Y-120306000D01*
X127305812Y-120181518D01*
X127269502Y-120061820D01*
X127210537Y-119951506D01*
X127131185Y-119854815D01*
X127034494Y-119775463D01*
X126924180Y-119716498D01*
X126804482Y-119680188D01*
X126680000Y-119667928D01*
X126124276Y-119667928D01*
X126103226Y-119562102D01*
X126025205Y-119373744D01*
X125911937Y-119204226D01*
X125767774Y-119060063D01*
X125598256Y-118946795D01*
X125409898Y-118868774D01*
X125209939Y-118829000D01*
X125006061Y-118829000D01*
X124806102Y-118868774D01*
X124617744Y-118946795D01*
X124448226Y-119060063D01*
X124404289Y-119104000D01*
X113724604Y-119104000D01*
X113724226Y-119102102D01*
X113646205Y-118913744D01*
X113532937Y-118744226D01*
X113388774Y-118600063D01*
X113219256Y-118486795D01*
X113030898Y-118408774D01*
X112830939Y-118369000D01*
X112627061Y-118369000D01*
X112427102Y-118408774D01*
X112238744Y-118486795D01*
X112218072Y-118500608D01*
X112218072Y-118456000D01*
X112205812Y-118331518D01*
X112169502Y-118211820D01*
X112110537Y-118101506D01*
X112031185Y-118004815D01*
X111971704Y-117956000D01*
X112031185Y-117907185D01*
X112110537Y-117810494D01*
X112169502Y-117700180D01*
X112205812Y-117580482D01*
X112218072Y-117456000D01*
X112218072Y-116456000D01*
X112205812Y-116331518D01*
X112169502Y-116211820D01*
X112110537Y-116101506D01*
X112031185Y-116004815D01*
X111971704Y-115956000D01*
X112031185Y-115907185D01*
X112110537Y-115810494D01*
X112169502Y-115700180D01*
X112205812Y-115580482D01*
X112218072Y-115456000D01*
X112218072Y-114456000D01*
X112205812Y-114331518D01*
X112169502Y-114211820D01*
X112110537Y-114101506D01*
X112031185Y-114004815D01*
X111971704Y-113956000D01*
X112031185Y-113907185D01*
X112110537Y-113810494D01*
X112169502Y-113700180D01*
X112205812Y-113580482D01*
X112218072Y-113456000D01*
X112218072Y-112456000D01*
X112205812Y-112331518D01*
X112169502Y-112211820D01*
X112110537Y-112101506D01*
X112031185Y-112004815D01*
X111971704Y-111956000D01*
X112031185Y-111907185D01*
X112110537Y-111810494D01*
X112169502Y-111700180D01*
X112205812Y-111580482D01*
X112218072Y-111456000D01*
X112218072Y-110456000D01*
X112205812Y-110331518D01*
X112169502Y-110211820D01*
X112110537Y-110101506D01*
X112031185Y-110004815D01*
X111971704Y-109956000D01*
X112031185Y-109907185D01*
X112110537Y-109810494D01*
X112169502Y-109700180D01*
X112205812Y-109580482D01*
X112218072Y-109456000D01*
X112218072Y-108456000D01*
X112205812Y-108331518D01*
X112169502Y-108211820D01*
X112110537Y-108101506D01*
X112053000Y-108031397D01*
X112053000Y-106483000D01*
X111203750Y-106483000D01*
X111045000Y-106641750D01*
X111041928Y-107606000D01*
X111054188Y-107730482D01*
X111080714Y-107817928D01*
X110664300Y-107817928D01*
X110664300Y-104840583D01*
X110755820Y-104889502D01*
X110875518Y-104925812D01*
X111000000Y-104938072D01*
X111067503Y-104937625D01*
X111054188Y-104981518D01*
X111041928Y-105106000D01*
X111045000Y-106070250D01*
X111203750Y-106229000D01*
X112053000Y-106229000D01*
X112053000Y-106209000D01*
X112307000Y-106209000D01*
X112307000Y-106229000D01*
X112327000Y-106229000D01*
X112327000Y-106483000D01*
X112307000Y-106483000D01*
X112307000Y-108082250D01*
X112465750Y-108241000D01*
X112680000Y-108244072D01*
X112759628Y-108236230D01*
X115715001Y-111191603D01*
X115738799Y-111220601D01*
X115854524Y-111315574D01*
X115986553Y-111386146D01*
X116129814Y-111429603D01*
X116241467Y-111440600D01*
X116241477Y-111440600D01*
X116278800Y-111444276D01*
X116316123Y-111440600D01*
X116674200Y-111440600D01*
X116674201Y-111809688D01*
X116630263Y-111853626D01*
X116516995Y-112023144D01*
X116438974Y-112211502D01*
X116399200Y-112411461D01*
X116399200Y-112615339D01*
X116438974Y-112815298D01*
X116516995Y-113003656D01*
X116630263Y-113173174D01*
X116774426Y-113317337D01*
X116943944Y-113430605D01*
X117132302Y-113508626D01*
X117332261Y-113548400D01*
X117536139Y-113548400D01*
X117736098Y-113508626D01*
X117924456Y-113430605D01*
X118093974Y-113317337D01*
X118238137Y-113173174D01*
X118351405Y-113003656D01*
X118429426Y-112815298D01*
X118469200Y-112615339D01*
X118469200Y-112411461D01*
X118429426Y-112211502D01*
X118351405Y-112023144D01*
X118238137Y-111853626D01*
X118194200Y-111809689D01*
X118194200Y-111068301D01*
X118850234Y-110412268D01*
X118875963Y-110450774D01*
X119020126Y-110594937D01*
X119189644Y-110708205D01*
X119378002Y-110786226D01*
X119577961Y-110826000D01*
X119781839Y-110826000D01*
X119981798Y-110786226D01*
X120170156Y-110708205D01*
X120339674Y-110594937D01*
X120386449Y-110548162D01*
X120469286Y-110540003D01*
X120612547Y-110496546D01*
X120744576Y-110425974D01*
X120860301Y-110331001D01*
X120884104Y-110301997D01*
X122691003Y-108495099D01*
X122720001Y-108471301D01*
X122758606Y-108424261D01*
X122814974Y-108355577D01*
X122885546Y-108223547D01*
X122888683Y-108213205D01*
X122891000Y-108205567D01*
X122924180Y-108195502D01*
X123034494Y-108136537D01*
X123131185Y-108057185D01*
X123180000Y-107997704D01*
X123228815Y-108057185D01*
X123325506Y-108136537D01*
X123435820Y-108195502D01*
X123555518Y-108231812D01*
X123680000Y-108244072D01*
X124680000Y-108244072D01*
X124804482Y-108231812D01*
X124924180Y-108195502D01*
X125034494Y-108136537D01*
X125131185Y-108057185D01*
X125180000Y-107997704D01*
X125228815Y-108057185D01*
X125325506Y-108136537D01*
X125435820Y-108195502D01*
X125555518Y-108231812D01*
X125680000Y-108244072D01*
X126680000Y-108244072D01*
X126804482Y-108231812D01*
X126924180Y-108195502D01*
X127034494Y-108136537D01*
X127131185Y-108057185D01*
X127210537Y-107960494D01*
X127269502Y-107850180D01*
X127305812Y-107730482D01*
X127318072Y-107606000D01*
X127318072Y-105233229D01*
X127836004Y-104715298D01*
X127865001Y-104691501D01*
X127959974Y-104575776D01*
X128030546Y-104443747D01*
X128074003Y-104300486D01*
X128085000Y-104188833D01*
X128085000Y-104188824D01*
X128088676Y-104151501D01*
X128085000Y-104114178D01*
X128085000Y-102303711D01*
X128128937Y-102259774D01*
X128242205Y-102090256D01*
X128320226Y-101901898D01*
X128360000Y-101701939D01*
X128360000Y-101498061D01*
X128325666Y-101325453D01*
X128444180Y-101289502D01*
X128554494Y-101230537D01*
X128651185Y-101151185D01*
X128730537Y-101054494D01*
X128789502Y-100944180D01*
X128825812Y-100824482D01*
X128838072Y-100700000D01*
X128838072Y-99000000D01*
X128825812Y-98875518D01*
X128789502Y-98755820D01*
X128730537Y-98645506D01*
X128651185Y-98548815D01*
X128554494Y-98469463D01*
X128444180Y-98410498D01*
X128324482Y-98374188D01*
X128200000Y-98361928D01*
X126500000Y-98361928D01*
X126375518Y-98374188D01*
X126255820Y-98410498D01*
X126145506Y-98469463D01*
X126048815Y-98548815D01*
X125969463Y-98645506D01*
X125910498Y-98755820D01*
X125888487Y-98828380D01*
X125756632Y-98696525D01*
X125513411Y-98534010D01*
X125243158Y-98422068D01*
X124956260Y-98365000D01*
X124663740Y-98365000D01*
X124376842Y-98422068D01*
X124205000Y-98493247D01*
X124205000Y-98337971D01*
X124208676Y-98300697D01*
X124205000Y-98263325D01*
X124205000Y-98263267D01*
X124200610Y-98218698D01*
X124194021Y-98151709D01*
X124194008Y-98151667D01*
X124194003Y-98151614D01*
X124170983Y-98075725D01*
X124150583Y-98008443D01*
X124150561Y-98008401D01*
X124150546Y-98008353D01*
X124115514Y-97942813D01*
X124080028Y-97876404D01*
X124079996Y-97876365D01*
X124079974Y-97876324D01*
X124032731Y-97818758D01*
X124008864Y-97789669D01*
X124008831Y-97789636D01*
X123985001Y-97760599D01*
X123956039Y-97736830D01*
X123269745Y-97050362D01*
X123423475Y-96896632D01*
X123540000Y-96722240D01*
X123656525Y-96896632D01*
X123863368Y-97103475D01*
X124106589Y-97265990D01*
X124376842Y-97377932D01*
X124663740Y-97435000D01*
X124956260Y-97435000D01*
X125243158Y-97377932D01*
X125513411Y-97265990D01*
X125756632Y-97103475D01*
X125888487Y-96971620D01*
X125910498Y-97044180D01*
X125969463Y-97154494D01*
X126048815Y-97251185D01*
X126145506Y-97330537D01*
X126255820Y-97389502D01*
X126375518Y-97425812D01*
X126500000Y-97438072D01*
X127064250Y-97435000D01*
X127223000Y-97276250D01*
X127223000Y-96077000D01*
X127203000Y-96077000D01*
X127203000Y-95823000D01*
X127223000Y-95823000D01*
X127223000Y-95803000D01*
X127477000Y-95803000D01*
X127477000Y-95823000D01*
G36*
X86790023Y-128879364D02*
G01*
X86732220Y-128896898D01*
X86621906Y-128955863D01*
X86525215Y-129035215D01*
X86445863Y-129131906D01*
X86386898Y-129242220D01*
X86350588Y-129361918D01*
X86338328Y-129486400D01*
X86341400Y-130064250D01*
X86500150Y-130223000D01*
X87713000Y-130223000D01*
X87713000Y-130203000D01*
X87967000Y-130203000D01*
X87967000Y-130223000D01*
X87987000Y-130223000D01*
X87987000Y-130477000D01*
X87967000Y-130477000D01*
X87967000Y-131689850D01*
X88125750Y-131848600D01*
X88703600Y-131851672D01*
X88828082Y-131839412D01*
X88947780Y-131803102D01*
X89058094Y-131744137D01*
X89154785Y-131664785D01*
X89234137Y-131568094D01*
X89293102Y-131457780D01*
X89310636Y-131399977D01*
X89424698Y-131514039D01*
X89670147Y-131678042D01*
X89942875Y-131791010D01*
X90232401Y-131848600D01*
X90527599Y-131848600D01*
X90817125Y-131791010D01*
X91089853Y-131678042D01*
X91328171Y-131518804D01*
X92747159Y-132937074D01*
X92770899Y-132966001D01*
X92799975Y-132989863D01*
X92800040Y-132989928D01*
X92828083Y-133012931D01*
X92886624Y-133060974D01*
X92886709Y-133061019D01*
X92886784Y-133061081D01*
X92953069Y-133096490D01*
X93018654Y-133131546D01*
X93018745Y-133131574D01*
X93018832Y-133131620D01*
X93092265Y-133153875D01*
X93143793Y-133169505D01*
X92324599Y-133988700D01*
X86909010Y-133988700D01*
X86871685Y-133985024D01*
X86834360Y-133988700D01*
X86834352Y-133988700D01*
X86722699Y-133999697D01*
X86579438Y-134043154D01*
X86507584Y-134081562D01*
X86346524Y-134014848D01*
X86146565Y-133975074D01*
X85942687Y-133975074D01*
X85742728Y-134014848D01*
X85554370Y-134092869D01*
X85384852Y-134206137D01*
X85240689Y-134350300D01*
X85127421Y-134519818D01*
X85049400Y-134708176D01*
X85009626Y-134908135D01*
X85009626Y-135112013D01*
X85049400Y-135311972D01*
X85127421Y-135500330D01*
X85240689Y-135669848D01*
X85384852Y-135814011D01*
X85554370Y-135927279D01*
X85742728Y-136005300D01*
X85942687Y-136045074D01*
X86146565Y-136045074D01*
X86346524Y-136005300D01*
X86534882Y-135927279D01*
X86704400Y-135814011D01*
X86759350Y-135759061D01*
X86902558Y-135715620D01*
X87034587Y-135645048D01*
X87150312Y-135550075D01*
X87174115Y-135521071D01*
X87186486Y-135508700D01*
X87936500Y-135508700D01*
X87936500Y-135578639D01*
X87976274Y-135778598D01*
X88054295Y-135966956D01*
X88167563Y-136136474D01*
X88311726Y-136280637D01*
X88481244Y-136393905D01*
X88669602Y-136471926D01*
X88869561Y-136511700D01*
X89073439Y-136511700D01*
X89273398Y-136471926D01*
X89461756Y-136393905D01*
X89631274Y-136280637D01*
X89675211Y-136236700D01*
X90974967Y-136236700D01*
X90955800Y-136333061D01*
X90955800Y-136536939D01*
X90988414Y-136700900D01*
X85685711Y-136700900D01*
X85641674Y-136656863D01*
X85472156Y-136543595D01*
X85283798Y-136465574D01*
X85083839Y-136425800D01*
X84879961Y-136425800D01*
X84680002Y-136465574D01*
X84491644Y-136543595D01*
X84322126Y-136656863D01*
X84177963Y-136801026D01*
X84064695Y-136970544D01*
X84010000Y-137102588D01*
X84010000Y-133097201D01*
X84727103Y-132380099D01*
X84756101Y-132356301D01*
X84851074Y-132240576D01*
X84910675Y-132129072D01*
X84966100Y-132129072D01*
X85090582Y-132116812D01*
X85210280Y-132080502D01*
X85320594Y-132021537D01*
X85417285Y-131942185D01*
X85496637Y-131845494D01*
X85555602Y-131735180D01*
X85591912Y-131615482D01*
X85604172Y-131491000D01*
X85604172Y-131213600D01*
X86338328Y-131213600D01*
X86350588Y-131338082D01*
X86386898Y-131457780D01*
X86445863Y-131568094D01*
X86525215Y-131664785D01*
X86621906Y-131744137D01*
X86732220Y-131803102D01*
X86851918Y-131839412D01*
X86976400Y-131851672D01*
X87554250Y-131848600D01*
X87713000Y-131689850D01*
X87713000Y-130477000D01*
X86500150Y-130477000D01*
X86341400Y-130635750D01*
X86338328Y-131213600D01*
X85604172Y-131213600D01*
X85604172Y-130241000D01*
X85591912Y-130116518D01*
X85555602Y-129996820D01*
X85549929Y-129986206D01*
X86723313Y-128812654D01*
X86790023Y-128879364D01*
G37*
X86790023Y-128879364D02*
X86732220Y-128896898D01*
X86621906Y-128955863D01*
X86525215Y-129035215D01*
X86445863Y-129131906D01*
X86386898Y-129242220D01*
X86350588Y-129361918D01*
X86338328Y-129486400D01*
X86341400Y-130064250D01*
X86500150Y-130223000D01*
X87713000Y-130223000D01*
X87713000Y-130203000D01*
X87967000Y-130203000D01*
X87967000Y-130223000D01*
X87987000Y-130223000D01*
X87987000Y-130477000D01*
X87967000Y-130477000D01*
X87967000Y-131689850D01*
X88125750Y-131848600D01*
X88703600Y-131851672D01*
X88828082Y-131839412D01*
X88947780Y-131803102D01*
X89058094Y-131744137D01*
X89154785Y-131664785D01*
X89234137Y-131568094D01*
X89293102Y-131457780D01*
X89310636Y-131399977D01*
X89424698Y-131514039D01*
X89670147Y-131678042D01*
X89942875Y-131791010D01*
X90232401Y-131848600D01*
X90527599Y-131848600D01*
X90817125Y-131791010D01*
X91089853Y-131678042D01*
X91328171Y-131518804D01*
X92747159Y-132937074D01*
X92770899Y-132966001D01*
X92799975Y-132989863D01*
X92800040Y-132989928D01*
X92828083Y-133012931D01*
X92886624Y-133060974D01*
X92886709Y-133061019D01*
X92886784Y-133061081D01*
X92953069Y-133096490D01*
X93018654Y-133131546D01*
X93018745Y-133131574D01*
X93018832Y-133131620D01*
X93092265Y-133153875D01*
X93143793Y-133169505D01*
X92324599Y-133988700D01*
X86909010Y-133988700D01*
X86871685Y-133985024D01*
X86834360Y-133988700D01*
X86834352Y-133988700D01*
X86722699Y-133999697D01*
X86579438Y-134043154D01*
X86507584Y-134081562D01*
X86346524Y-134014848D01*
X86146565Y-133975074D01*
X85942687Y-133975074D01*
X85742728Y-134014848D01*
X85554370Y-134092869D01*
X85384852Y-134206137D01*
X85240689Y-134350300D01*
X85127421Y-134519818D01*
X85049400Y-134708176D01*
X85009626Y-134908135D01*
X85009626Y-135112013D01*
X85049400Y-135311972D01*
X85127421Y-135500330D01*
X85240689Y-135669848D01*
X85384852Y-135814011D01*
X85554370Y-135927279D01*
X85742728Y-136005300D01*
X85942687Y-136045074D01*
X86146565Y-136045074D01*
X86346524Y-136005300D01*
X86534882Y-135927279D01*
X86704400Y-135814011D01*
X86759350Y-135759061D01*
X86902558Y-135715620D01*
X87034587Y-135645048D01*
X87150312Y-135550075D01*
X87174115Y-135521071D01*
X87186486Y-135508700D01*
X87936500Y-135508700D01*
X87936500Y-135578639D01*
X87976274Y-135778598D01*
X88054295Y-135966956D01*
X88167563Y-136136474D01*
X88311726Y-136280637D01*
X88481244Y-136393905D01*
X88669602Y-136471926D01*
X88869561Y-136511700D01*
X89073439Y-136511700D01*
X89273398Y-136471926D01*
X89461756Y-136393905D01*
X89631274Y-136280637D01*
X89675211Y-136236700D01*
X90974967Y-136236700D01*
X90955800Y-136333061D01*
X90955800Y-136536939D01*
X90988414Y-136700900D01*
X85685711Y-136700900D01*
X85641674Y-136656863D01*
X85472156Y-136543595D01*
X85283798Y-136465574D01*
X85083839Y-136425800D01*
X84879961Y-136425800D01*
X84680002Y-136465574D01*
X84491644Y-136543595D01*
X84322126Y-136656863D01*
X84177963Y-136801026D01*
X84064695Y-136970544D01*
X84010000Y-137102588D01*
X84010000Y-133097201D01*
X84727103Y-132380099D01*
X84756101Y-132356301D01*
X84851074Y-132240576D01*
X84910675Y-132129072D01*
X84966100Y-132129072D01*
X85090582Y-132116812D01*
X85210280Y-132080502D01*
X85320594Y-132021537D01*
X85417285Y-131942185D01*
X85496637Y-131845494D01*
X85555602Y-131735180D01*
X85591912Y-131615482D01*
X85604172Y-131491000D01*
X85604172Y-131213600D01*
X86338328Y-131213600D01*
X86350588Y-131338082D01*
X86386898Y-131457780D01*
X86445863Y-131568094D01*
X86525215Y-131664785D01*
X86621906Y-131744137D01*
X86732220Y-131803102D01*
X86851918Y-131839412D01*
X86976400Y-131851672D01*
X87554250Y-131848600D01*
X87713000Y-131689850D01*
X87713000Y-130477000D01*
X86500150Y-130477000D01*
X86341400Y-130635750D01*
X86338328Y-131213600D01*
X85604172Y-131213600D01*
X85604172Y-130241000D01*
X85591912Y-130116518D01*
X85555602Y-129996820D01*
X85549929Y-129986206D01*
X86723313Y-128812654D01*
X86790023Y-128879364D01*
G36*
X111054188Y-120181518D02*
G01*
X111041928Y-120306000D01*
X111041928Y-122806000D01*
X111054188Y-122930482D01*
X111090498Y-123050180D01*
X111119382Y-123104217D01*
X111044463Y-123195506D01*
X110985498Y-123305820D01*
X110949188Y-123425518D01*
X110936928Y-123550000D01*
X110936928Y-125050000D01*
X110949188Y-125174482D01*
X110985498Y-125294180D01*
X111044463Y-125404494D01*
X111123815Y-125501185D01*
X111183296Y-125550000D01*
X111123815Y-125598815D01*
X111044463Y-125695506D01*
X110985498Y-125805820D01*
X110949188Y-125925518D01*
X110936928Y-126050000D01*
X110940000Y-126514250D01*
X111098750Y-126673000D01*
X112073000Y-126673000D01*
X112073000Y-126653000D01*
X112327000Y-126653000D01*
X112327000Y-126673000D01*
X113301250Y-126673000D01*
X113460000Y-126514250D01*
X113463072Y-126050000D01*
X113450812Y-125925518D01*
X113414502Y-125805820D01*
X113355537Y-125695506D01*
X113276185Y-125598815D01*
X113216704Y-125550000D01*
X113276185Y-125501185D01*
X113355537Y-125404494D01*
X113414502Y-125294180D01*
X113440038Y-125210000D01*
X114322762Y-125210000D01*
X114324188Y-125224482D01*
X114360498Y-125344180D01*
X114419463Y-125454494D01*
X114497842Y-125550000D01*
X114419463Y-125645506D01*
X114360498Y-125755820D01*
X114324188Y-125875518D01*
X114312378Y-125995433D01*
X114275723Y-126015026D01*
X114200535Y-126076732D01*
X114159999Y-126109999D01*
X114136201Y-126138997D01*
X113324724Y-126950474D01*
X113301250Y-126927000D01*
X112327000Y-126927000D01*
X112327000Y-126947000D01*
X112073000Y-126947000D01*
X112073000Y-126927000D01*
X111098750Y-126927000D01*
X110940000Y-127085750D01*
X110936928Y-127550000D01*
X110949188Y-127674482D01*
X110985498Y-127794180D01*
X111044463Y-127904494D01*
X111123815Y-128001185D01*
X111220506Y-128080537D01*
X111330820Y-128139502D01*
X111450518Y-128175812D01*
X111575000Y-128188072D01*
X111914250Y-128185000D01*
X112072998Y-128026252D01*
X112072998Y-128185000D01*
X112090199Y-128185000D01*
X111614003Y-128661196D01*
X111584999Y-128684999D01*
X111561200Y-128713998D01*
X111139002Y-129136197D01*
X111109999Y-129159999D01*
X111066505Y-129212997D01*
X111015026Y-129275724D01*
X110962503Y-129373987D01*
X110944454Y-129407754D01*
X110900997Y-129551015D01*
X110899759Y-129563584D01*
X110685750Y-129565000D01*
X110527000Y-129723750D01*
X110527000Y-130698000D01*
X110547000Y-130698000D01*
X110547000Y-130952000D01*
X110527000Y-130952000D01*
X110527000Y-131926250D01*
X110685750Y-132085000D01*
X110890001Y-132086352D01*
X110890001Y-132546309D01*
X110846063Y-132590247D01*
X110732795Y-132759765D01*
X110654774Y-132948123D01*
X110615000Y-133148082D01*
X110615000Y-133351960D01*
X110654774Y-133551919D01*
X110732795Y-133740277D01*
X110846063Y-133909795D01*
X110990226Y-134053958D01*
X111159744Y-134167226D01*
X111348102Y-134245247D01*
X111548061Y-134285021D01*
X111751939Y-134285021D01*
X111951898Y-134245247D01*
X112140256Y-134167226D01*
X112309774Y-134053958D01*
X112453937Y-133909795D01*
X112567205Y-133740277D01*
X112645226Y-133551919D01*
X112685000Y-133351960D01*
X112685000Y-133148082D01*
X112645226Y-132948123D01*
X112567205Y-132759765D01*
X112453937Y-132590247D01*
X112410000Y-132546310D01*
X112410000Y-132088072D01*
X113650000Y-132088072D01*
X113774482Y-132075812D01*
X113890000Y-132040770D01*
X113890001Y-135415000D01*
X108308711Y-135415000D01*
X108264774Y-135371063D01*
X108095256Y-135257795D01*
X107906898Y-135179774D01*
X107706939Y-135140000D01*
X107503061Y-135140000D01*
X107355837Y-135169284D01*
X107351226Y-135146102D01*
X107273205Y-134957744D01*
X107159937Y-134788226D01*
X107015774Y-134644063D01*
X106846256Y-134530795D01*
X106675738Y-134460164D01*
X108097303Y-133038599D01*
X108126301Y-133014801D01*
X108221274Y-132899076D01*
X108291846Y-132767047D01*
X108335303Y-132623786D01*
X108346300Y-132512133D01*
X108349977Y-132474800D01*
X108346300Y-132437467D01*
X108346300Y-131450000D01*
X109011928Y-131450000D01*
X109024188Y-131574482D01*
X109060498Y-131694180D01*
X109119463Y-131804494D01*
X109198815Y-131901185D01*
X109295506Y-131980537D01*
X109405820Y-132039502D01*
X109525518Y-132075812D01*
X109650000Y-132088072D01*
X110114250Y-132085000D01*
X110273000Y-131926250D01*
X110273000Y-130952000D01*
X109173750Y-130952000D01*
X109015000Y-131110750D01*
X109011928Y-131450000D01*
X108346300Y-131450000D01*
X108346300Y-130200000D01*
X109011928Y-130200000D01*
X109015000Y-130539250D01*
X109173750Y-130698000D01*
X110273000Y-130698000D01*
X110273000Y-129723750D01*
X110114250Y-129565000D01*
X109650000Y-129561928D01*
X109525518Y-129574188D01*
X109405820Y-129610498D01*
X109295506Y-129669463D01*
X109198815Y-129748815D01*
X109119463Y-129845506D01*
X109060498Y-129955820D01*
X109024188Y-130075518D01*
X109011928Y-130200000D01*
X108346300Y-130200000D01*
X108346300Y-128756311D01*
X108390237Y-128712374D01*
X108503505Y-128542856D01*
X108581526Y-128354498D01*
X108621300Y-128154539D01*
X108621300Y-127950661D01*
X108581526Y-127750702D01*
X108503505Y-127562344D01*
X108390237Y-127392826D01*
X108251056Y-127253645D01*
X109444702Y-126060000D01*
X109506839Y-126060000D01*
X109706798Y-126020226D01*
X109895156Y-125942205D01*
X110064674Y-125828937D01*
X110208837Y-125684774D01*
X110322105Y-125515256D01*
X110400126Y-125326898D01*
X110439900Y-125126939D01*
X110439900Y-124923061D01*
X110400126Y-124723102D01*
X110322105Y-124534744D01*
X110208837Y-124365226D01*
X110064674Y-124221063D01*
X109895156Y-124107795D01*
X109706798Y-124029774D01*
X109506839Y-123990000D01*
X109302961Y-123990000D01*
X109219625Y-124006576D01*
X109965703Y-123260499D01*
X109994701Y-123236701D01*
X110089674Y-123120976D01*
X110160246Y-122988947D01*
X110203703Y-122845686D01*
X110214700Y-122734033D01*
X110218377Y-122696700D01*
X110214700Y-122659367D01*
X110214700Y-120094072D01*
X111080714Y-120094072D01*
X111054188Y-120181518D01*
G37*
X111054188Y-120181518D02*
X111041928Y-120306000D01*
X111041928Y-122806000D01*
X111054188Y-122930482D01*
X111090498Y-123050180D01*
X111119382Y-123104217D01*
X111044463Y-123195506D01*
X110985498Y-123305820D01*
X110949188Y-123425518D01*
X110936928Y-123550000D01*
X110936928Y-125050000D01*
X110949188Y-125174482D01*
X110985498Y-125294180D01*
X111044463Y-125404494D01*
X111123815Y-125501185D01*
X111183296Y-125550000D01*
X111123815Y-125598815D01*
X111044463Y-125695506D01*
X110985498Y-125805820D01*
X110949188Y-125925518D01*
X110936928Y-126050000D01*
X110940000Y-126514250D01*
X111098750Y-126673000D01*
X112073000Y-126673000D01*
X112073000Y-126653000D01*
X112327000Y-126653000D01*
X112327000Y-126673000D01*
X113301250Y-126673000D01*
X113460000Y-126514250D01*
X113463072Y-126050000D01*
X113450812Y-125925518D01*
X113414502Y-125805820D01*
X113355537Y-125695506D01*
X113276185Y-125598815D01*
X113216704Y-125550000D01*
X113276185Y-125501185D01*
X113355537Y-125404494D01*
X113414502Y-125294180D01*
X113440038Y-125210000D01*
X114322762Y-125210000D01*
X114324188Y-125224482D01*
X114360498Y-125344180D01*
X114419463Y-125454494D01*
X114497842Y-125550000D01*
X114419463Y-125645506D01*
X114360498Y-125755820D01*
X114324188Y-125875518D01*
X114312378Y-125995433D01*
X114275723Y-126015026D01*
X114200535Y-126076732D01*
X114159999Y-126109999D01*
X114136201Y-126138997D01*
X113324724Y-126950474D01*
X113301250Y-126927000D01*
X112327000Y-126927000D01*
X112327000Y-126947000D01*
X112073000Y-126947000D01*
X112073000Y-126927000D01*
X111098750Y-126927000D01*
X110940000Y-127085750D01*
X110936928Y-127550000D01*
X110949188Y-127674482D01*
X110985498Y-127794180D01*
X111044463Y-127904494D01*
X111123815Y-128001185D01*
X111220506Y-128080537D01*
X111330820Y-128139502D01*
X111450518Y-128175812D01*
X111575000Y-128188072D01*
X111914250Y-128185000D01*
X112072998Y-128026252D01*
X112072998Y-128185000D01*
X112090199Y-128185000D01*
X111614003Y-128661196D01*
X111584999Y-128684999D01*
X111561200Y-128713998D01*
X111139002Y-129136197D01*
X111109999Y-129159999D01*
X111066505Y-129212997D01*
X111015026Y-129275724D01*
X110962503Y-129373987D01*
X110944454Y-129407754D01*
X110900997Y-129551015D01*
X110899759Y-129563584D01*
X110685750Y-129565000D01*
X110527000Y-129723750D01*
X110527000Y-130698000D01*
X110547000Y-130698000D01*
X110547000Y-130952000D01*
X110527000Y-130952000D01*
X110527000Y-131926250D01*
X110685750Y-132085000D01*
X110890001Y-132086352D01*
X110890001Y-132546309D01*
X110846063Y-132590247D01*
X110732795Y-132759765D01*
X110654774Y-132948123D01*
X110615000Y-133148082D01*
X110615000Y-133351960D01*
X110654774Y-133551919D01*
X110732795Y-133740277D01*
X110846063Y-133909795D01*
X110990226Y-134053958D01*
X111159744Y-134167226D01*
X111348102Y-134245247D01*
X111548061Y-134285021D01*
X111751939Y-134285021D01*
X111951898Y-134245247D01*
X112140256Y-134167226D01*
X112309774Y-134053958D01*
X112453937Y-133909795D01*
X112567205Y-133740277D01*
X112645226Y-133551919D01*
X112685000Y-133351960D01*
X112685000Y-133148082D01*
X112645226Y-132948123D01*
X112567205Y-132759765D01*
X112453937Y-132590247D01*
X112410000Y-132546310D01*
X112410000Y-132088072D01*
X113650000Y-132088072D01*
X113774482Y-132075812D01*
X113890000Y-132040770D01*
X113890001Y-135415000D01*
X108308711Y-135415000D01*
X108264774Y-135371063D01*
X108095256Y-135257795D01*
X107906898Y-135179774D01*
X107706939Y-135140000D01*
X107503061Y-135140000D01*
X107355837Y-135169284D01*
X107351226Y-135146102D01*
X107273205Y-134957744D01*
X107159937Y-134788226D01*
X107015774Y-134644063D01*
X106846256Y-134530795D01*
X106675738Y-134460164D01*
X108097303Y-133038599D01*
X108126301Y-133014801D01*
X108221274Y-132899076D01*
X108291846Y-132767047D01*
X108335303Y-132623786D01*
X108346300Y-132512133D01*
X108349977Y-132474800D01*
X108346300Y-132437467D01*
X108346300Y-131450000D01*
X109011928Y-131450000D01*
X109024188Y-131574482D01*
X109060498Y-131694180D01*
X109119463Y-131804494D01*
X109198815Y-131901185D01*
X109295506Y-131980537D01*
X109405820Y-132039502D01*
X109525518Y-132075812D01*
X109650000Y-132088072D01*
X110114250Y-132085000D01*
X110273000Y-131926250D01*
X110273000Y-130952000D01*
X109173750Y-130952000D01*
X109015000Y-131110750D01*
X109011928Y-131450000D01*
X108346300Y-131450000D01*
X108346300Y-130200000D01*
X109011928Y-130200000D01*
X109015000Y-130539250D01*
X109173750Y-130698000D01*
X110273000Y-130698000D01*
X110273000Y-129723750D01*
X110114250Y-129565000D01*
X109650000Y-129561928D01*
X109525518Y-129574188D01*
X109405820Y-129610498D01*
X109295506Y-129669463D01*
X109198815Y-129748815D01*
X109119463Y-129845506D01*
X109060498Y-129955820D01*
X109024188Y-130075518D01*
X109011928Y-130200000D01*
X108346300Y-130200000D01*
X108346300Y-128756311D01*
X108390237Y-128712374D01*
X108503505Y-128542856D01*
X108581526Y-128354498D01*
X108621300Y-128154539D01*
X108621300Y-127950661D01*
X108581526Y-127750702D01*
X108503505Y-127562344D01*
X108390237Y-127392826D01*
X108251056Y-127253645D01*
X109444702Y-126060000D01*
X109506839Y-126060000D01*
X109706798Y-126020226D01*
X109895156Y-125942205D01*
X110064674Y-125828937D01*
X110208837Y-125684774D01*
X110322105Y-125515256D01*
X110400126Y-125326898D01*
X110439900Y-125126939D01*
X110439900Y-124923061D01*
X110400126Y-124723102D01*
X110322105Y-124534744D01*
X110208837Y-124365226D01*
X110064674Y-124221063D01*
X109895156Y-124107795D01*
X109706798Y-124029774D01*
X109506839Y-123990000D01*
X109302961Y-123990000D01*
X109219625Y-124006576D01*
X109965703Y-123260499D01*
X109994701Y-123236701D01*
X110089674Y-123120976D01*
X110160246Y-122988947D01*
X110203703Y-122845686D01*
X110214700Y-122734033D01*
X110218377Y-122696700D01*
X110214700Y-122659367D01*
X110214700Y-120094072D01*
X111080714Y-120094072D01*
X111054188Y-120181518D01*
G36*
X84009865Y-121319741D02*
G01*
X83995722Y-121333883D01*
X84684621Y-122022782D01*
X84909127Y-122022782D01*
X85239574Y-121696680D01*
X85318927Y-121599988D01*
X85371723Y-121501213D01*
X85444863Y-121610674D01*
X85550070Y-121715881D01*
X85537220Y-121726426D01*
X85211118Y-122056873D01*
X85211118Y-122281379D01*
X85900017Y-122970278D01*
X85914160Y-122956136D01*
X86093765Y-123135741D01*
X86079622Y-123149883D01*
X86768521Y-123838782D01*
X86993027Y-123838782D01*
X87323474Y-123512680D01*
X87402827Y-123415988D01*
X87461791Y-123305674D01*
X87498100Y-123185976D01*
X87510361Y-123061495D01*
X87502819Y-122984919D01*
X87579395Y-122992461D01*
X87703877Y-122980201D01*
X87823575Y-122943891D01*
X87933889Y-122884926D01*
X88030580Y-122805574D01*
X88210001Y-122626153D01*
X88210001Y-125176297D01*
X87328998Y-126057301D01*
X87300000Y-126081099D01*
X87276202Y-126110097D01*
X87276201Y-126110098D01*
X87205026Y-126196824D01*
X87134454Y-126328854D01*
X87116778Y-126387127D01*
X87090998Y-126472114D01*
X87087202Y-126510653D01*
X86884698Y-126645961D01*
X86675961Y-126854698D01*
X86540653Y-127057201D01*
X86502114Y-127060997D01*
X86502081Y-127061007D01*
X86502060Y-127061009D01*
X86438737Y-127080222D01*
X86358853Y-127104454D01*
X86358829Y-127104467D01*
X86358802Y-127104475D01*
X86296610Y-127137724D01*
X86226824Y-127175026D01*
X86226802Y-127175044D01*
X86226778Y-127175057D01*
X86170909Y-127220914D01*
X86111099Y-127269999D01*
X86087285Y-127299017D01*
X84232890Y-129153677D01*
X84216100Y-129152023D01*
X84178767Y-129155700D01*
X84067114Y-129166697D01*
X83923853Y-129210154D01*
X83791824Y-129280726D01*
X83676099Y-129375699D01*
X83581126Y-129491424D01*
X83521525Y-129602928D01*
X83466100Y-129602928D01*
X83341618Y-129615188D01*
X83221920Y-129651498D01*
X83111606Y-129710463D01*
X83014915Y-129789815D01*
X82966100Y-129849296D01*
X82917285Y-129789815D01*
X82820594Y-129710463D01*
X82710280Y-129651498D01*
X82590582Y-129615188D01*
X82466100Y-129602928D01*
X82001850Y-129606000D01*
X81843100Y-129764750D01*
X81843100Y-130739000D01*
X81863100Y-130739000D01*
X81863100Y-130993000D01*
X81843100Y-130993000D01*
X81843100Y-131967250D01*
X82001850Y-132126000D01*
X82466100Y-132129072D01*
X82590582Y-132116812D01*
X82710280Y-132080502D01*
X82820594Y-132021537D01*
X82917285Y-131942185D01*
X82966100Y-131882704D01*
X83014915Y-131942185D01*
X83015189Y-131942410D01*
X82738998Y-132218601D01*
X82710000Y-132242399D01*
X82686202Y-132271397D01*
X82686201Y-132271398D01*
X82615026Y-132358124D01*
X82544454Y-132490154D01*
X82528454Y-132542901D01*
X82500998Y-132633414D01*
X82493608Y-132708445D01*
X82486324Y-132782400D01*
X82490001Y-132819732D01*
X82490001Y-133365199D01*
X81251982Y-132127180D01*
X81430350Y-132126000D01*
X81589100Y-131967250D01*
X81589100Y-130993000D01*
X81569100Y-130993000D01*
X81569100Y-130739000D01*
X81589100Y-130739000D01*
X81589100Y-129764750D01*
X81447779Y-129623429D01*
X81816140Y-129255068D01*
X81895492Y-129158377D01*
X81954457Y-129048063D01*
X81957427Y-129038273D01*
X81982067Y-129040700D01*
X81982077Y-129040700D01*
X82019400Y-129044376D01*
X82056723Y-129040700D01*
X82804078Y-129040700D01*
X82841400Y-129044376D01*
X82878722Y-129040700D01*
X82878733Y-129040700D01*
X82990386Y-129029703D01*
X83133647Y-128986246D01*
X83265676Y-128915674D01*
X83381401Y-128820701D01*
X83405204Y-128791697D01*
X84139802Y-128057100D01*
X84201939Y-128057100D01*
X84401898Y-128017326D01*
X84590256Y-127939305D01*
X84759774Y-127826037D01*
X84903937Y-127681874D01*
X85017205Y-127512356D01*
X85095226Y-127323998D01*
X85135000Y-127124039D01*
X85135000Y-127016358D01*
X85145187Y-127015355D01*
X85264885Y-126979045D01*
X85375199Y-126920080D01*
X85471890Y-126840728D01*
X86391128Y-125921490D01*
X86470480Y-125824799D01*
X86529445Y-125714485D01*
X86565755Y-125594787D01*
X86578015Y-125470305D01*
X86565755Y-125345823D01*
X86529445Y-125226125D01*
X86470480Y-125115811D01*
X86391128Y-125019120D01*
X86073962Y-124701954D01*
X86166122Y-124652693D01*
X86262814Y-124573340D01*
X86588916Y-124242893D01*
X86588916Y-124018387D01*
X85900017Y-123329488D01*
X85885875Y-123343631D01*
X85706270Y-123164026D01*
X85720412Y-123149883D01*
X85031513Y-122460984D01*
X84807007Y-122460984D01*
X84476560Y-122787086D01*
X84397207Y-122883778D01*
X84347946Y-122975938D01*
X84151690Y-122779682D01*
X84178914Y-122757340D01*
X84505016Y-122426893D01*
X84505016Y-122202387D01*
X83816117Y-121513488D01*
X83801975Y-121527631D01*
X83622370Y-121348026D01*
X83636512Y-121333883D01*
X83622370Y-121319741D01*
X83801975Y-121140136D01*
X83816117Y-121154278D01*
X83830260Y-121140136D01*
X84009865Y-121319741D01*
G37*
X84009865Y-121319741D02*
X83995722Y-121333883D01*
X84684621Y-122022782D01*
X84909127Y-122022782D01*
X85239574Y-121696680D01*
X85318927Y-121599988D01*
X85371723Y-121501213D01*
X85444863Y-121610674D01*
X85550070Y-121715881D01*
X85537220Y-121726426D01*
X85211118Y-122056873D01*
X85211118Y-122281379D01*
X85900017Y-122970278D01*
X85914160Y-122956136D01*
X86093765Y-123135741D01*
X86079622Y-123149883D01*
X86768521Y-123838782D01*
X86993027Y-123838782D01*
X87323474Y-123512680D01*
X87402827Y-123415988D01*
X87461791Y-123305674D01*
X87498100Y-123185976D01*
X87510361Y-123061495D01*
X87502819Y-122984919D01*
X87579395Y-122992461D01*
X87703877Y-122980201D01*
X87823575Y-122943891D01*
X87933889Y-122884926D01*
X88030580Y-122805574D01*
X88210001Y-122626153D01*
X88210001Y-125176297D01*
X87328998Y-126057301D01*
X87300000Y-126081099D01*
X87276202Y-126110097D01*
X87276201Y-126110098D01*
X87205026Y-126196824D01*
X87134454Y-126328854D01*
X87116778Y-126387127D01*
X87090998Y-126472114D01*
X87087202Y-126510653D01*
X86884698Y-126645961D01*
X86675961Y-126854698D01*
X86540653Y-127057201D01*
X86502114Y-127060997D01*
X86502081Y-127061007D01*
X86502060Y-127061009D01*
X86438737Y-127080222D01*
X86358853Y-127104454D01*
X86358829Y-127104467D01*
X86358802Y-127104475D01*
X86296610Y-127137724D01*
X86226824Y-127175026D01*
X86226802Y-127175044D01*
X86226778Y-127175057D01*
X86170909Y-127220914D01*
X86111099Y-127269999D01*
X86087285Y-127299017D01*
X84232890Y-129153677D01*
X84216100Y-129152023D01*
X84178767Y-129155700D01*
X84067114Y-129166697D01*
X83923853Y-129210154D01*
X83791824Y-129280726D01*
X83676099Y-129375699D01*
X83581126Y-129491424D01*
X83521525Y-129602928D01*
X83466100Y-129602928D01*
X83341618Y-129615188D01*
X83221920Y-129651498D01*
X83111606Y-129710463D01*
X83014915Y-129789815D01*
X82966100Y-129849296D01*
X82917285Y-129789815D01*
X82820594Y-129710463D01*
X82710280Y-129651498D01*
X82590582Y-129615188D01*
X82466100Y-129602928D01*
X82001850Y-129606000D01*
X81843100Y-129764750D01*
X81843100Y-130739000D01*
X81863100Y-130739000D01*
X81863100Y-130993000D01*
X81843100Y-130993000D01*
X81843100Y-131967250D01*
X82001850Y-132126000D01*
X82466100Y-132129072D01*
X82590582Y-132116812D01*
X82710280Y-132080502D01*
X82820594Y-132021537D01*
X82917285Y-131942185D01*
X82966100Y-131882704D01*
X83014915Y-131942185D01*
X83015189Y-131942410D01*
X82738998Y-132218601D01*
X82710000Y-132242399D01*
X82686202Y-132271397D01*
X82686201Y-132271398D01*
X82615026Y-132358124D01*
X82544454Y-132490154D01*
X82528454Y-132542901D01*
X82500998Y-132633414D01*
X82493608Y-132708445D01*
X82486324Y-132782400D01*
X82490001Y-132819732D01*
X82490001Y-133365199D01*
X81251982Y-132127180D01*
X81430350Y-132126000D01*
X81589100Y-131967250D01*
X81589100Y-130993000D01*
X81569100Y-130993000D01*
X81569100Y-130739000D01*
X81589100Y-130739000D01*
X81589100Y-129764750D01*
X81447779Y-129623429D01*
X81816140Y-129255068D01*
X81895492Y-129158377D01*
X81954457Y-129048063D01*
X81957427Y-129038273D01*
X81982067Y-129040700D01*
X81982077Y-129040700D01*
X82019400Y-129044376D01*
X82056723Y-129040700D01*
X82804078Y-129040700D01*
X82841400Y-129044376D01*
X82878722Y-129040700D01*
X82878733Y-129040700D01*
X82990386Y-129029703D01*
X83133647Y-128986246D01*
X83265676Y-128915674D01*
X83381401Y-128820701D01*
X83405204Y-128791697D01*
X84139802Y-128057100D01*
X84201939Y-128057100D01*
X84401898Y-128017326D01*
X84590256Y-127939305D01*
X84759774Y-127826037D01*
X84903937Y-127681874D01*
X85017205Y-127512356D01*
X85095226Y-127323998D01*
X85135000Y-127124039D01*
X85135000Y-127016358D01*
X85145187Y-127015355D01*
X85264885Y-126979045D01*
X85375199Y-126920080D01*
X85471890Y-126840728D01*
X86391128Y-125921490D01*
X86470480Y-125824799D01*
X86529445Y-125714485D01*
X86565755Y-125594787D01*
X86578015Y-125470305D01*
X86565755Y-125345823D01*
X86529445Y-125226125D01*
X86470480Y-125115811D01*
X86391128Y-125019120D01*
X86073962Y-124701954D01*
X86166122Y-124652693D01*
X86262814Y-124573340D01*
X86588916Y-124242893D01*
X86588916Y-124018387D01*
X85900017Y-123329488D01*
X85885875Y-123343631D01*
X85706270Y-123164026D01*
X85720412Y-123149883D01*
X85031513Y-122460984D01*
X84807007Y-122460984D01*
X84476560Y-122787086D01*
X84397207Y-122883778D01*
X84347946Y-122975938D01*
X84151690Y-122779682D01*
X84178914Y-122757340D01*
X84505016Y-122426893D01*
X84505016Y-122202387D01*
X83816117Y-121513488D01*
X83801975Y-121527631D01*
X83622370Y-121348026D01*
X83636512Y-121333883D01*
X83622370Y-121319741D01*
X83801975Y-121140136D01*
X83816117Y-121154278D01*
X83830260Y-121140136D01*
X84009865Y-121319741D01*
G36*
X93011928Y-120500000D02*
G01*
X93024188Y-120624482D01*
X93060498Y-120744180D01*
X93119463Y-120854494D01*
X93156809Y-120900000D01*
X93119463Y-120945506D01*
X93060498Y-121055820D01*
X93024188Y-121175518D01*
X93011928Y-121300000D01*
X93015000Y-121989250D01*
X93173750Y-122148000D01*
X94273000Y-122148000D01*
X94273000Y-122128000D01*
X94527000Y-122128000D01*
X94527000Y-122148000D01*
X94547000Y-122148000D01*
X94547000Y-122402000D01*
X94527000Y-122402000D01*
X94527000Y-122422000D01*
X94273000Y-122422000D01*
X94273000Y-122402000D01*
X93173750Y-122402000D01*
X93015000Y-122560750D01*
X93011928Y-123250000D01*
X93024188Y-123374482D01*
X93060498Y-123494180D01*
X93119463Y-123604494D01*
X93198815Y-123701185D01*
X93295506Y-123780537D01*
X93405820Y-123839502D01*
X93525518Y-123875812D01*
X93650000Y-123888072D01*
X93824236Y-123886919D01*
X93748815Y-123948815D01*
X93669463Y-124045506D01*
X93610498Y-124155820D01*
X93574188Y-124275518D01*
X93561928Y-124400000D01*
X93561928Y-124512227D01*
X92380149Y-123330448D01*
X92388072Y-123250000D01*
X92385000Y-122560750D01*
X92226250Y-122402000D01*
X91127000Y-122402000D01*
X91127000Y-122422000D01*
X90873000Y-122422000D01*
X90873000Y-122402000D01*
X90853000Y-122402000D01*
X90853000Y-122148000D01*
X90873000Y-122148000D01*
X90873000Y-122128000D01*
X91127000Y-122128000D01*
X91127000Y-122148000D01*
X92226250Y-122148000D01*
X92385000Y-121989250D01*
X92388072Y-121300000D01*
X92375812Y-121175518D01*
X92339502Y-121055820D01*
X92280537Y-120945506D01*
X92243191Y-120900000D01*
X92280537Y-120854494D01*
X92339502Y-120744180D01*
X92375812Y-120624482D01*
X92388072Y-120500000D01*
X92388072Y-120219575D01*
X92499576Y-120159974D01*
X92615301Y-120065001D01*
X92710274Y-119949276D01*
X92780846Y-119817247D01*
X92824303Y-119673986D01*
X92835300Y-119562333D01*
X92838977Y-119525000D01*
X92835300Y-119487667D01*
X92835300Y-118883601D01*
X93011928Y-118706973D01*
X93011928Y-120500000D01*
G37*
X93011928Y-120500000D02*
X93024188Y-120624482D01*
X93060498Y-120744180D01*
X93119463Y-120854494D01*
X93156809Y-120900000D01*
X93119463Y-120945506D01*
X93060498Y-121055820D01*
X93024188Y-121175518D01*
X93011928Y-121300000D01*
X93015000Y-121989250D01*
X93173750Y-122148000D01*
X94273000Y-122148000D01*
X94273000Y-122128000D01*
X94527000Y-122128000D01*
X94527000Y-122148000D01*
X94547000Y-122148000D01*
X94547000Y-122402000D01*
X94527000Y-122402000D01*
X94527000Y-122422000D01*
X94273000Y-122422000D01*
X94273000Y-122402000D01*
X93173750Y-122402000D01*
X93015000Y-122560750D01*
X93011928Y-123250000D01*
X93024188Y-123374482D01*
X93060498Y-123494180D01*
X93119463Y-123604494D01*
X93198815Y-123701185D01*
X93295506Y-123780537D01*
X93405820Y-123839502D01*
X93525518Y-123875812D01*
X93650000Y-123888072D01*
X93824236Y-123886919D01*
X93748815Y-123948815D01*
X93669463Y-124045506D01*
X93610498Y-124155820D01*
X93574188Y-124275518D01*
X93561928Y-124400000D01*
X93561928Y-124512227D01*
X92380149Y-123330448D01*
X92388072Y-123250000D01*
X92385000Y-122560750D01*
X92226250Y-122402000D01*
X91127000Y-122402000D01*
X91127000Y-122422000D01*
X90873000Y-122422000D01*
X90873000Y-122402000D01*
X90853000Y-122402000D01*
X90853000Y-122148000D01*
X90873000Y-122148000D01*
X90873000Y-122128000D01*
X91127000Y-122128000D01*
X91127000Y-122148000D01*
X92226250Y-122148000D01*
X92385000Y-121989250D01*
X92388072Y-121300000D01*
X92375812Y-121175518D01*
X92339502Y-121055820D01*
X92280537Y-120945506D01*
X92243191Y-120900000D01*
X92280537Y-120854494D01*
X92339502Y-120744180D01*
X92375812Y-120624482D01*
X92388072Y-120500000D01*
X92388072Y-120219575D01*
X92499576Y-120159974D01*
X92615301Y-120065001D01*
X92710274Y-119949276D01*
X92780846Y-119817247D01*
X92824303Y-119673986D01*
X92835300Y-119562333D01*
X92838977Y-119525000D01*
X92835300Y-119487667D01*
X92835300Y-118883601D01*
X93011928Y-118706973D01*
X93011928Y-120500000D01*
G36*
X88127000Y-109373000D02*
G01*
X88147000Y-109373000D01*
X88147000Y-109627000D01*
X88127000Y-109627000D01*
X88127000Y-110626250D01*
X88285750Y-110785000D01*
X88750000Y-110788072D01*
X88874482Y-110775812D01*
X88994180Y-110739502D01*
X89104494Y-110680537D01*
X89201185Y-110601185D01*
X89280537Y-110504494D01*
X89339502Y-110394180D01*
X89375812Y-110274482D01*
X89388072Y-110150000D01*
X89387123Y-110037504D01*
X89921601Y-110571856D01*
X89921600Y-113195289D01*
X89877663Y-113239226D01*
X89764395Y-113408744D01*
X89686374Y-113597102D01*
X89646600Y-113797061D01*
X89646600Y-114000939D01*
X89686374Y-114200898D01*
X89764395Y-114389256D01*
X89877663Y-114558774D01*
X90021826Y-114702937D01*
X90191344Y-114816205D01*
X90379702Y-114894226D01*
X90446394Y-114907492D01*
X88486088Y-116868009D01*
X88457099Y-116891799D01*
X88433284Y-116920818D01*
X88433274Y-116920828D01*
X88418564Y-116938754D01*
X88362126Y-117007525D01*
X88362117Y-117007543D01*
X88362104Y-117007558D01*
X88330900Y-117065944D01*
X88291554Y-117139554D01*
X88291547Y-117139577D01*
X88291539Y-117139592D01*
X88274006Y-117197402D01*
X88248097Y-117282815D01*
X88248095Y-117282840D01*
X88248090Y-117282855D01*
X88242950Y-117335068D01*
X88237100Y-117394468D01*
X88237100Y-117394497D01*
X88233424Y-117431840D01*
X88237100Y-117469142D01*
X88237100Y-117873930D01*
X88220997Y-117927015D01*
X88210000Y-118038668D01*
X88210000Y-118038678D01*
X88206324Y-118076000D01*
X88210000Y-118113322D01*
X88210000Y-119961304D01*
X88207356Y-119958660D01*
X88110665Y-119879308D01*
X88000351Y-119820343D01*
X87880653Y-119784033D01*
X87756171Y-119771773D01*
X87631689Y-119784033D01*
X87511991Y-119820343D01*
X87401677Y-119879308D01*
X87304986Y-119958660D01*
X87265908Y-119997738D01*
X87144786Y-119960997D01*
X87043919Y-119951062D01*
X87013852Y-119920979D01*
X87086692Y-119832223D01*
X87145657Y-119721909D01*
X87181967Y-119602211D01*
X87194227Y-119477729D01*
X87181967Y-119353247D01*
X87145657Y-119233549D01*
X87086692Y-119123235D01*
X87007340Y-119026544D01*
X86123456Y-118142660D01*
X86026765Y-118063308D01*
X85916451Y-118004343D01*
X85796753Y-117968033D01*
X85695737Y-117958084D01*
X86740919Y-116912786D01*
X86769901Y-116889001D01*
X86793713Y-116859986D01*
X86793727Y-116859972D01*
X86815535Y-116833396D01*
X86864874Y-116773276D01*
X86864885Y-116773256D01*
X86864897Y-116773241D01*
X86890418Y-116725489D01*
X86998061Y-116746900D01*
X87201939Y-116746900D01*
X87401898Y-116707126D01*
X87590256Y-116629105D01*
X87759774Y-116515837D01*
X87903937Y-116371674D01*
X88017205Y-116202156D01*
X88095226Y-116013798D01*
X88135000Y-115813839D01*
X88135000Y-115609961D01*
X88095226Y-115410002D01*
X88017205Y-115221644D01*
X87903937Y-115052126D01*
X87759774Y-114907963D01*
X87590256Y-114794695D01*
X87401898Y-114716674D01*
X87201939Y-114676900D01*
X86998061Y-114676900D01*
X86798102Y-114716674D01*
X86609744Y-114794695D01*
X86440226Y-114907963D01*
X86358500Y-114989689D01*
X85204137Y-113835016D01*
X85257356Y-113791340D01*
X85495070Y-113549282D01*
X85495070Y-113324775D01*
X84717783Y-112547488D01*
X84703641Y-112561631D01*
X84524036Y-112382026D01*
X84538178Y-112367883D01*
X84524036Y-112353741D01*
X84703641Y-112174136D01*
X84717783Y-112188278D01*
X84731926Y-112174136D01*
X84911531Y-112353741D01*
X84897388Y-112367883D01*
X85674675Y-113145170D01*
X85899182Y-113145170D01*
X86141240Y-112907456D01*
X86195954Y-112840788D01*
X86238998Y-112832226D01*
X86427356Y-112754205D01*
X86596874Y-112640937D01*
X86741037Y-112496774D01*
X86854305Y-112327256D01*
X86932326Y-112138898D01*
X86972100Y-111938939D01*
X86972100Y-111735061D01*
X86932326Y-111535102D01*
X86854305Y-111346744D01*
X86741037Y-111177226D01*
X86596874Y-111033063D01*
X86427356Y-110919795D01*
X86238998Y-110841774D01*
X86039039Y-110802000D01*
X85977091Y-110802000D01*
X85963168Y-110788072D01*
X86050000Y-110788072D01*
X86174482Y-110775812D01*
X86294180Y-110739502D01*
X86404494Y-110680537D01*
X86501185Y-110601185D01*
X86580537Y-110504494D01*
X86639502Y-110394180D01*
X86650000Y-110359573D01*
X86660498Y-110394180D01*
X86719463Y-110504494D01*
X86798815Y-110601185D01*
X86895506Y-110680537D01*
X87005820Y-110739502D01*
X87125518Y-110775812D01*
X87250000Y-110788072D01*
X87714250Y-110785000D01*
X87873000Y-110626250D01*
X87873000Y-109627000D01*
X87853000Y-109627000D01*
X87853000Y-109373000D01*
X87873000Y-109373000D01*
X87873000Y-109353000D01*
X88127000Y-109353000D01*
X88127000Y-109373000D01*
G37*
X88127000Y-109373000D02*
X88147000Y-109373000D01*
X88147000Y-109627000D01*
X88127000Y-109627000D01*
X88127000Y-110626250D01*
X88285750Y-110785000D01*
X88750000Y-110788072D01*
X88874482Y-110775812D01*
X88994180Y-110739502D01*
X89104494Y-110680537D01*
X89201185Y-110601185D01*
X89280537Y-110504494D01*
X89339502Y-110394180D01*
X89375812Y-110274482D01*
X89388072Y-110150000D01*
X89387123Y-110037504D01*
X89921601Y-110571856D01*
X89921600Y-113195289D01*
X89877663Y-113239226D01*
X89764395Y-113408744D01*
X89686374Y-113597102D01*
X89646600Y-113797061D01*
X89646600Y-114000939D01*
X89686374Y-114200898D01*
X89764395Y-114389256D01*
X89877663Y-114558774D01*
X90021826Y-114702937D01*
X90191344Y-114816205D01*
X90379702Y-114894226D01*
X90446394Y-114907492D01*
X88486088Y-116868009D01*
X88457099Y-116891799D01*
X88433284Y-116920818D01*
X88433274Y-116920828D01*
X88418564Y-116938754D01*
X88362126Y-117007525D01*
X88362117Y-117007543D01*
X88362104Y-117007558D01*
X88330900Y-117065944D01*
X88291554Y-117139554D01*
X88291547Y-117139577D01*
X88291539Y-117139592D01*
X88274006Y-117197402D01*
X88248097Y-117282815D01*
X88248095Y-117282840D01*
X88248090Y-117282855D01*
X88242950Y-117335068D01*
X88237100Y-117394468D01*
X88237100Y-117394497D01*
X88233424Y-117431840D01*
X88237100Y-117469142D01*
X88237100Y-117873930D01*
X88220997Y-117927015D01*
X88210000Y-118038668D01*
X88210000Y-118038678D01*
X88206324Y-118076000D01*
X88210000Y-118113322D01*
X88210000Y-119961304D01*
X88207356Y-119958660D01*
X88110665Y-119879308D01*
X88000351Y-119820343D01*
X87880653Y-119784033D01*
X87756171Y-119771773D01*
X87631689Y-119784033D01*
X87511991Y-119820343D01*
X87401677Y-119879308D01*
X87304986Y-119958660D01*
X87265908Y-119997738D01*
X87144786Y-119960997D01*
X87043919Y-119951062D01*
X87013852Y-119920979D01*
X87086692Y-119832223D01*
X87145657Y-119721909D01*
X87181967Y-119602211D01*
X87194227Y-119477729D01*
X87181967Y-119353247D01*
X87145657Y-119233549D01*
X87086692Y-119123235D01*
X87007340Y-119026544D01*
X86123456Y-118142660D01*
X86026765Y-118063308D01*
X85916451Y-118004343D01*
X85796753Y-117968033D01*
X85695737Y-117958084D01*
X86740919Y-116912786D01*
X86769901Y-116889001D01*
X86793713Y-116859986D01*
X86793727Y-116859972D01*
X86815535Y-116833396D01*
X86864874Y-116773276D01*
X86864885Y-116773256D01*
X86864897Y-116773241D01*
X86890418Y-116725489D01*
X86998061Y-116746900D01*
X87201939Y-116746900D01*
X87401898Y-116707126D01*
X87590256Y-116629105D01*
X87759774Y-116515837D01*
X87903937Y-116371674D01*
X88017205Y-116202156D01*
X88095226Y-116013798D01*
X88135000Y-115813839D01*
X88135000Y-115609961D01*
X88095226Y-115410002D01*
X88017205Y-115221644D01*
X87903937Y-115052126D01*
X87759774Y-114907963D01*
X87590256Y-114794695D01*
X87401898Y-114716674D01*
X87201939Y-114676900D01*
X86998061Y-114676900D01*
X86798102Y-114716674D01*
X86609744Y-114794695D01*
X86440226Y-114907963D01*
X86358500Y-114989689D01*
X85204137Y-113835016D01*
X85257356Y-113791340D01*
X85495070Y-113549282D01*
X85495070Y-113324775D01*
X84717783Y-112547488D01*
X84703641Y-112561631D01*
X84524036Y-112382026D01*
X84538178Y-112367883D01*
X84524036Y-112353741D01*
X84703641Y-112174136D01*
X84717783Y-112188278D01*
X84731926Y-112174136D01*
X84911531Y-112353741D01*
X84897388Y-112367883D01*
X85674675Y-113145170D01*
X85899182Y-113145170D01*
X86141240Y-112907456D01*
X86195954Y-112840788D01*
X86238998Y-112832226D01*
X86427356Y-112754205D01*
X86596874Y-112640937D01*
X86741037Y-112496774D01*
X86854305Y-112327256D01*
X86932326Y-112138898D01*
X86972100Y-111938939D01*
X86972100Y-111735061D01*
X86932326Y-111535102D01*
X86854305Y-111346744D01*
X86741037Y-111177226D01*
X86596874Y-111033063D01*
X86427356Y-110919795D01*
X86238998Y-110841774D01*
X86039039Y-110802000D01*
X85977091Y-110802000D01*
X85963168Y-110788072D01*
X86050000Y-110788072D01*
X86174482Y-110775812D01*
X86294180Y-110739502D01*
X86404494Y-110680537D01*
X86501185Y-110601185D01*
X86580537Y-110504494D01*
X86639502Y-110394180D01*
X86650000Y-110359573D01*
X86660498Y-110394180D01*
X86719463Y-110504494D01*
X86798815Y-110601185D01*
X86895506Y-110680537D01*
X87005820Y-110739502D01*
X87125518Y-110775812D01*
X87250000Y-110788072D01*
X87714250Y-110785000D01*
X87873000Y-110626250D01*
X87873000Y-109627000D01*
X87853000Y-109627000D01*
X87853000Y-109373000D01*
X87873000Y-109373000D01*
X87873000Y-109353000D01*
X88127000Y-109353000D01*
X88127000Y-109373000D01*
G36*
X102335905Y-115411008D02*
G01*
X102359699Y-115440001D01*
X102388692Y-115463795D01*
X102388696Y-115463799D01*
X102440136Y-115506014D01*
X102475424Y-115534974D01*
X102586928Y-115594575D01*
X102586928Y-115650000D01*
X102599188Y-115774482D01*
X102635498Y-115894180D01*
X102694463Y-116004494D01*
X102773815Y-116101185D01*
X102833296Y-116150000D01*
X102773815Y-116198815D01*
X102694463Y-116295506D01*
X102635498Y-116405820D01*
X102599188Y-116525518D01*
X102586928Y-116650000D01*
X102590000Y-117114250D01*
X102748750Y-117273000D01*
X103723000Y-117273000D01*
X103723000Y-117253000D01*
X103977000Y-117253000D01*
X103977000Y-117273000D01*
X103997000Y-117273000D01*
X103997000Y-117527000D01*
X103977000Y-117527000D01*
X103977000Y-117547000D01*
X103723000Y-117547000D01*
X103723000Y-117527000D01*
X102748750Y-117527000D01*
X102590000Y-117685750D01*
X102586928Y-118150000D01*
X102595492Y-118236958D01*
X102135750Y-118240000D01*
X101977000Y-118398750D01*
X101977000Y-119373000D01*
X101997000Y-119373000D01*
X101997000Y-119627000D01*
X101977000Y-119627000D01*
X101977000Y-119647000D01*
X101723000Y-119647000D01*
X101723000Y-119627000D01*
X101703000Y-119627000D01*
X101703000Y-119373000D01*
X101723000Y-119373000D01*
X101723000Y-118398750D01*
X101564250Y-118240000D01*
X101100000Y-118236928D01*
X100975518Y-118249188D01*
X100855820Y-118285498D01*
X100745506Y-118344463D01*
X100648815Y-118423815D01*
X100600000Y-118483296D01*
X100551185Y-118423815D01*
X100454494Y-118344463D01*
X100344180Y-118285498D01*
X100224482Y-118249188D01*
X100100000Y-118236928D01*
X98600000Y-118236928D01*
X98475518Y-118249188D01*
X98355820Y-118285498D01*
X98245506Y-118344463D01*
X98148815Y-118423815D01*
X98069463Y-118520506D01*
X98010498Y-118630820D01*
X97974188Y-118750518D01*
X97961928Y-118875000D01*
X97961928Y-119215100D01*
X96240201Y-119215100D01*
X96039104Y-119014003D01*
X96015301Y-118984999D01*
X95899576Y-118890026D01*
X95788072Y-118830425D01*
X95788072Y-118550000D01*
X95775812Y-118425518D01*
X95739502Y-118305820D01*
X95680537Y-118195506D01*
X95601185Y-118098815D01*
X95504494Y-118019463D01*
X95394180Y-117960498D01*
X95274482Y-117924188D01*
X95150000Y-117911928D01*
X93806973Y-117911928D01*
X97399902Y-114319000D01*
X101243899Y-114319000D01*
X102335905Y-115411008D01*
G37*
X102335905Y-115411008D02*
X102359699Y-115440001D01*
X102388692Y-115463795D01*
X102388696Y-115463799D01*
X102440136Y-115506014D01*
X102475424Y-115534974D01*
X102586928Y-115594575D01*
X102586928Y-115650000D01*
X102599188Y-115774482D01*
X102635498Y-115894180D01*
X102694463Y-116004494D01*
X102773815Y-116101185D01*
X102833296Y-116150000D01*
X102773815Y-116198815D01*
X102694463Y-116295506D01*
X102635498Y-116405820D01*
X102599188Y-116525518D01*
X102586928Y-116650000D01*
X102590000Y-117114250D01*
X102748750Y-117273000D01*
X103723000Y-117273000D01*
X103723000Y-117253000D01*
X103977000Y-117253000D01*
X103977000Y-117273000D01*
X103997000Y-117273000D01*
X103997000Y-117527000D01*
X103977000Y-117527000D01*
X103977000Y-117547000D01*
X103723000Y-117547000D01*
X103723000Y-117527000D01*
X102748750Y-117527000D01*
X102590000Y-117685750D01*
X102586928Y-118150000D01*
X102595492Y-118236958D01*
X102135750Y-118240000D01*
X101977000Y-118398750D01*
X101977000Y-119373000D01*
X101997000Y-119373000D01*
X101997000Y-119627000D01*
X101977000Y-119627000D01*
X101977000Y-119647000D01*
X101723000Y-119647000D01*
X101723000Y-119627000D01*
X101703000Y-119627000D01*
X101703000Y-119373000D01*
X101723000Y-119373000D01*
X101723000Y-118398750D01*
X101564250Y-118240000D01*
X101100000Y-118236928D01*
X100975518Y-118249188D01*
X100855820Y-118285498D01*
X100745506Y-118344463D01*
X100648815Y-118423815D01*
X100600000Y-118483296D01*
X100551185Y-118423815D01*
X100454494Y-118344463D01*
X100344180Y-118285498D01*
X100224482Y-118249188D01*
X100100000Y-118236928D01*
X98600000Y-118236928D01*
X98475518Y-118249188D01*
X98355820Y-118285498D01*
X98245506Y-118344463D01*
X98148815Y-118423815D01*
X98069463Y-118520506D01*
X98010498Y-118630820D01*
X97974188Y-118750518D01*
X97961928Y-118875000D01*
X97961928Y-119215100D01*
X96240201Y-119215100D01*
X96039104Y-119014003D01*
X96015301Y-118984999D01*
X95899576Y-118890026D01*
X95788072Y-118830425D01*
X95788072Y-118550000D01*
X95775812Y-118425518D01*
X95739502Y-118305820D01*
X95680537Y-118195506D01*
X95601185Y-118098815D01*
X95504494Y-118019463D01*
X95394180Y-117960498D01*
X95274482Y-117924188D01*
X95150000Y-117911928D01*
X93806973Y-117911928D01*
X97399902Y-114319000D01*
X101243899Y-114319000D01*
X102335905Y-115411008D01*
G36*
X97572528Y-105437430D02*
G01*
X97572528Y-105612800D01*
X97584788Y-105737282D01*
X97621098Y-105856980D01*
X97680063Y-105967294D01*
X97755075Y-106058697D01*
X97784454Y-106155547D01*
X97789414Y-106164826D01*
X97805300Y-106194546D01*
X97805300Y-106315539D01*
X97845074Y-106515498D01*
X97923095Y-106703856D01*
X98036363Y-106873374D01*
X98180526Y-107017537D01*
X98350044Y-107130805D01*
X98538402Y-107208826D01*
X98738361Y-107248600D01*
X98942239Y-107248600D01*
X99142198Y-107208826D01*
X99330556Y-107130805D01*
X99500074Y-107017537D01*
X99632355Y-106885256D01*
X100676660Y-107929562D01*
X100624600Y-107933692D01*
X100504990Y-107970293D01*
X100395000Y-108029428D01*
X100285010Y-107970293D01*
X100165400Y-107933692D01*
X100045750Y-107924200D01*
X99887000Y-108082950D01*
X99887000Y-109422800D01*
X100903000Y-109422800D01*
X100903000Y-109402800D01*
X101157000Y-109402800D01*
X101157000Y-109422800D01*
X102173000Y-109422800D01*
X102173000Y-109402800D01*
X102427000Y-109402800D01*
X102427000Y-109422800D01*
X103055650Y-109422800D01*
X103107757Y-109370693D01*
X103173815Y-109451185D01*
X103270506Y-109530537D01*
X103380820Y-109589502D01*
X103500518Y-109625812D01*
X103625000Y-109638072D01*
X103964250Y-109635000D01*
X104123000Y-109476250D01*
X104123000Y-108377000D01*
X104103000Y-108377000D01*
X104103000Y-108123000D01*
X104123000Y-108123000D01*
X104123000Y-108103000D01*
X104377000Y-108103000D01*
X104377000Y-108123000D01*
X104397000Y-108123000D01*
X104397000Y-108377000D01*
X104377000Y-108377000D01*
X104377000Y-109476250D01*
X104531300Y-109630550D01*
X104531301Y-113517473D01*
X104475000Y-113511928D01*
X103225000Y-113511928D01*
X103100518Y-113524188D01*
X102980820Y-113560498D01*
X102870506Y-113619463D01*
X102773815Y-113698815D01*
X102773591Y-113699089D01*
X102122503Y-113048002D01*
X102098701Y-113018999D01*
X101982976Y-112924026D01*
X101850947Y-112853454D01*
X101707686Y-112809997D01*
X101596033Y-112799000D01*
X101596022Y-112799000D01*
X101558700Y-112795324D01*
X101521378Y-112799000D01*
X97898765Y-112799000D01*
X97905600Y-112764639D01*
X97905600Y-112560761D01*
X97865826Y-112360802D01*
X97857766Y-112341345D01*
X97940037Y-112259074D01*
X98053305Y-112089556D01*
X98131326Y-111901198D01*
X98171100Y-111701239D01*
X98171100Y-111634000D01*
X99141079Y-111634000D01*
X99147895Y-111650456D01*
X99261163Y-111819974D01*
X99405326Y-111964137D01*
X99574844Y-112077405D01*
X99763202Y-112155426D01*
X99963161Y-112195200D01*
X100167039Y-112195200D01*
X100366998Y-112155426D01*
X100555356Y-112077405D01*
X100724874Y-111964137D01*
X100869037Y-111819974D01*
X100982305Y-111650456D01*
X101060326Y-111462098D01*
X101100100Y-111262139D01*
X101100100Y-111175400D01*
X101157002Y-111175400D01*
X101157002Y-111016652D01*
X101315750Y-111175400D01*
X101435400Y-111165908D01*
X101555010Y-111129307D01*
X101665000Y-111070172D01*
X101774990Y-111129307D01*
X101894600Y-111165908D01*
X102014250Y-111175400D01*
X102173000Y-111016650D01*
X102173000Y-109676800D01*
X102427000Y-109676800D01*
X102427000Y-111016650D01*
X102585750Y-111175400D01*
X102705400Y-111165908D01*
X102825010Y-111129307D01*
X102935180Y-111070075D01*
X103031679Y-110990489D01*
X103110796Y-110893605D01*
X103169493Y-110783148D01*
X103205512Y-110663362D01*
X103217470Y-110538851D01*
X103214400Y-109835550D01*
X103055650Y-109676800D01*
X102427000Y-109676800D01*
X102173000Y-109676800D01*
X101157000Y-109676800D01*
X101157000Y-109696800D01*
X100903000Y-109696800D01*
X100903000Y-109676800D01*
X99887000Y-109676800D01*
X99887000Y-109696800D01*
X99633000Y-109696800D01*
X99633000Y-109676800D01*
X98617000Y-109676800D01*
X98617000Y-109696800D01*
X98363000Y-109696800D01*
X98363000Y-109676800D01*
X97734350Y-109676800D01*
X97575600Y-109835550D01*
X97574385Y-110114000D01*
X96866022Y-110114000D01*
X96828699Y-110110324D01*
X96791376Y-110114000D01*
X96791367Y-110114000D01*
X96679714Y-110124997D01*
X96536453Y-110168454D01*
X96404424Y-110239026D01*
X96288699Y-110333999D01*
X96264901Y-110362997D01*
X94418500Y-112209398D01*
X94418500Y-111220711D01*
X94462437Y-111176774D01*
X94575705Y-111007256D01*
X94653726Y-110818898D01*
X94693500Y-110618939D01*
X94693500Y-110415061D01*
X94653726Y-110215102D01*
X94575705Y-110026744D01*
X94462437Y-109857226D01*
X94318274Y-109713063D01*
X94148756Y-109599795D01*
X93960398Y-109521774D01*
X93760439Y-109482000D01*
X93556561Y-109482000D01*
X93356602Y-109521774D01*
X93168244Y-109599795D01*
X92998726Y-109713063D01*
X92854563Y-109857226D01*
X92741295Y-110026744D01*
X92663274Y-110215102D01*
X92623500Y-110415061D01*
X92623500Y-110618939D01*
X92663274Y-110818898D01*
X92741295Y-111007256D01*
X92854563Y-111176774D01*
X92898500Y-111220711D01*
X92898501Y-112455121D01*
X91690070Y-113663682D01*
X91676826Y-113597102D01*
X91598805Y-113408744D01*
X91485537Y-113239226D01*
X91441600Y-113195289D01*
X91441600Y-110294278D01*
X91445276Y-110256909D01*
X91438486Y-110188046D01*
X91430603Y-110108014D01*
X91430589Y-110107969D01*
X91430585Y-110107925D01*
X91408250Y-110034325D01*
X91387146Y-109964753D01*
X91387124Y-109964712D01*
X91387111Y-109964669D01*
X91352530Y-109899992D01*
X91316574Y-109832724D01*
X91316544Y-109832688D01*
X91316523Y-109832648D01*
X91268607Y-109774276D01*
X91221601Y-109716999D01*
X91192567Y-109693171D01*
X90059877Y-108560749D01*
X97572530Y-108560749D01*
X97575600Y-109264050D01*
X97734350Y-109422800D01*
X98363000Y-109422800D01*
X98363000Y-108082950D01*
X98617000Y-108082950D01*
X98617000Y-109422800D01*
X99633000Y-109422800D01*
X99633000Y-108082950D01*
X99474250Y-107924200D01*
X99354600Y-107933692D01*
X99234990Y-107970293D01*
X99125000Y-108029428D01*
X99015010Y-107970293D01*
X98895400Y-107933692D01*
X98775750Y-107924200D01*
X98617000Y-108082950D01*
X98363000Y-108082950D01*
X98204250Y-107924200D01*
X98084600Y-107933692D01*
X97964990Y-107970293D01*
X97854820Y-108029525D01*
X97758321Y-108109111D01*
X97679204Y-108205995D01*
X97620507Y-108316452D01*
X97584488Y-108436238D01*
X97572530Y-108560749D01*
X90059877Y-108560749D01*
X88706774Y-107207967D01*
X88683001Y-107178999D01*
X88653964Y-107155169D01*
X88653936Y-107155141D01*
X88624276Y-107130805D01*
X88567276Y-107084026D01*
X88567236Y-107084004D01*
X88567201Y-107083976D01*
X88504318Y-107050374D01*
X88435247Y-107013454D01*
X88435200Y-107013440D01*
X88435163Y-107013420D01*
X88369248Y-106993434D01*
X88291986Y-106969997D01*
X88291937Y-106969992D01*
X88291897Y-106969980D01*
X88224211Y-106963322D01*
X88180333Y-106959000D01*
X88180279Y-106959000D01*
X88142910Y-106955324D01*
X88105631Y-106959000D01*
X86074827Y-106959000D01*
X86411812Y-106622000D01*
X94665089Y-106622000D01*
X94709026Y-106665937D01*
X94878544Y-106779205D01*
X95066902Y-106857226D01*
X95266861Y-106897000D01*
X95470739Y-106897000D01*
X95670698Y-106857226D01*
X95859056Y-106779205D01*
X96028574Y-106665937D01*
X96172737Y-106521774D01*
X96286005Y-106352256D01*
X96364026Y-106163898D01*
X96403800Y-105963939D01*
X96403800Y-105760061D01*
X96364026Y-105560102D01*
X96286005Y-105371744D01*
X96220902Y-105274309D01*
X96364437Y-105130774D01*
X96477705Y-104961256D01*
X96555726Y-104772898D01*
X96595500Y-104572939D01*
X96595500Y-104460401D01*
X97572528Y-105437430D01*
G37*
X97572528Y-105437430D02*
X97572528Y-105612800D01*
X97584788Y-105737282D01*
X97621098Y-105856980D01*
X97680063Y-105967294D01*
X97755075Y-106058697D01*
X97784454Y-106155547D01*
X97789414Y-106164826D01*
X97805300Y-106194546D01*
X97805300Y-106315539D01*
X97845074Y-106515498D01*
X97923095Y-106703856D01*
X98036363Y-106873374D01*
X98180526Y-107017537D01*
X98350044Y-107130805D01*
X98538402Y-107208826D01*
X98738361Y-107248600D01*
X98942239Y-107248600D01*
X99142198Y-107208826D01*
X99330556Y-107130805D01*
X99500074Y-107017537D01*
X99632355Y-106885256D01*
X100676660Y-107929562D01*
X100624600Y-107933692D01*
X100504990Y-107970293D01*
X100395000Y-108029428D01*
X100285010Y-107970293D01*
X100165400Y-107933692D01*
X100045750Y-107924200D01*
X99887000Y-108082950D01*
X99887000Y-109422800D01*
X100903000Y-109422800D01*
X100903000Y-109402800D01*
X101157000Y-109402800D01*
X101157000Y-109422800D01*
X102173000Y-109422800D01*
X102173000Y-109402800D01*
X102427000Y-109402800D01*
X102427000Y-109422800D01*
X103055650Y-109422800D01*
X103107757Y-109370693D01*
X103173815Y-109451185D01*
X103270506Y-109530537D01*
X103380820Y-109589502D01*
X103500518Y-109625812D01*
X103625000Y-109638072D01*
X103964250Y-109635000D01*
X104123000Y-109476250D01*
X104123000Y-108377000D01*
X104103000Y-108377000D01*
X104103000Y-108123000D01*
X104123000Y-108123000D01*
X104123000Y-108103000D01*
X104377000Y-108103000D01*
X104377000Y-108123000D01*
X104397000Y-108123000D01*
X104397000Y-108377000D01*
X104377000Y-108377000D01*
X104377000Y-109476250D01*
X104531300Y-109630550D01*
X104531301Y-113517473D01*
X104475000Y-113511928D01*
X103225000Y-113511928D01*
X103100518Y-113524188D01*
X102980820Y-113560498D01*
X102870506Y-113619463D01*
X102773815Y-113698815D01*
X102773591Y-113699089D01*
X102122503Y-113048002D01*
X102098701Y-113018999D01*
X101982976Y-112924026D01*
X101850947Y-112853454D01*
X101707686Y-112809997D01*
X101596033Y-112799000D01*
X101596022Y-112799000D01*
X101558700Y-112795324D01*
X101521378Y-112799000D01*
X97898765Y-112799000D01*
X97905600Y-112764639D01*
X97905600Y-112560761D01*
X97865826Y-112360802D01*
X97857766Y-112341345D01*
X97940037Y-112259074D01*
X98053305Y-112089556D01*
X98131326Y-111901198D01*
X98171100Y-111701239D01*
X98171100Y-111634000D01*
X99141079Y-111634000D01*
X99147895Y-111650456D01*
X99261163Y-111819974D01*
X99405326Y-111964137D01*
X99574844Y-112077405D01*
X99763202Y-112155426D01*
X99963161Y-112195200D01*
X100167039Y-112195200D01*
X100366998Y-112155426D01*
X100555356Y-112077405D01*
X100724874Y-111964137D01*
X100869037Y-111819974D01*
X100982305Y-111650456D01*
X101060326Y-111462098D01*
X101100100Y-111262139D01*
X101100100Y-111175400D01*
X101157002Y-111175400D01*
X101157002Y-111016652D01*
X101315750Y-111175400D01*
X101435400Y-111165908D01*
X101555010Y-111129307D01*
X101665000Y-111070172D01*
X101774990Y-111129307D01*
X101894600Y-111165908D01*
X102014250Y-111175400D01*
X102173000Y-111016650D01*
X102173000Y-109676800D01*
X102427000Y-109676800D01*
X102427000Y-111016650D01*
X102585750Y-111175400D01*
X102705400Y-111165908D01*
X102825010Y-111129307D01*
X102935180Y-111070075D01*
X103031679Y-110990489D01*
X103110796Y-110893605D01*
X103169493Y-110783148D01*
X103205512Y-110663362D01*
X103217470Y-110538851D01*
X103214400Y-109835550D01*
X103055650Y-109676800D01*
X102427000Y-109676800D01*
X102173000Y-109676800D01*
X101157000Y-109676800D01*
X101157000Y-109696800D01*
X100903000Y-109696800D01*
X100903000Y-109676800D01*
X99887000Y-109676800D01*
X99887000Y-109696800D01*
X99633000Y-109696800D01*
X99633000Y-109676800D01*
X98617000Y-109676800D01*
X98617000Y-109696800D01*
X98363000Y-109696800D01*
X98363000Y-109676800D01*
X97734350Y-109676800D01*
X97575600Y-109835550D01*
X97574385Y-110114000D01*
X96866022Y-110114000D01*
X96828699Y-110110324D01*
X96791376Y-110114000D01*
X96791367Y-110114000D01*
X96679714Y-110124997D01*
X96536453Y-110168454D01*
X96404424Y-110239026D01*
X96288699Y-110333999D01*
X96264901Y-110362997D01*
X94418500Y-112209398D01*
X94418500Y-111220711D01*
X94462437Y-111176774D01*
X94575705Y-111007256D01*
X94653726Y-110818898D01*
X94693500Y-110618939D01*
X94693500Y-110415061D01*
X94653726Y-110215102D01*
X94575705Y-110026744D01*
X94462437Y-109857226D01*
X94318274Y-109713063D01*
X94148756Y-109599795D01*
X93960398Y-109521774D01*
X93760439Y-109482000D01*
X93556561Y-109482000D01*
X93356602Y-109521774D01*
X93168244Y-109599795D01*
X92998726Y-109713063D01*
X92854563Y-109857226D01*
X92741295Y-110026744D01*
X92663274Y-110215102D01*
X92623500Y-110415061D01*
X92623500Y-110618939D01*
X92663274Y-110818898D01*
X92741295Y-111007256D01*
X92854563Y-111176774D01*
X92898500Y-111220711D01*
X92898501Y-112455121D01*
X91690070Y-113663682D01*
X91676826Y-113597102D01*
X91598805Y-113408744D01*
X91485537Y-113239226D01*
X91441600Y-113195289D01*
X91441600Y-110294278D01*
X91445276Y-110256909D01*
X91438486Y-110188046D01*
X91430603Y-110108014D01*
X91430589Y-110107969D01*
X91430585Y-110107925D01*
X91408250Y-110034325D01*
X91387146Y-109964753D01*
X91387124Y-109964712D01*
X91387111Y-109964669D01*
X91352530Y-109899992D01*
X91316574Y-109832724D01*
X91316544Y-109832688D01*
X91316523Y-109832648D01*
X91268607Y-109774276D01*
X91221601Y-109716999D01*
X91192567Y-109693171D01*
X90059877Y-108560749D01*
X97572530Y-108560749D01*
X97575600Y-109264050D01*
X97734350Y-109422800D01*
X98363000Y-109422800D01*
X98363000Y-108082950D01*
X98617000Y-108082950D01*
X98617000Y-109422800D01*
X99633000Y-109422800D01*
X99633000Y-108082950D01*
X99474250Y-107924200D01*
X99354600Y-107933692D01*
X99234990Y-107970293D01*
X99125000Y-108029428D01*
X99015010Y-107970293D01*
X98895400Y-107933692D01*
X98775750Y-107924200D01*
X98617000Y-108082950D01*
X98363000Y-108082950D01*
X98204250Y-107924200D01*
X98084600Y-107933692D01*
X97964990Y-107970293D01*
X97854820Y-108029525D01*
X97758321Y-108109111D01*
X97679204Y-108205995D01*
X97620507Y-108316452D01*
X97584488Y-108436238D01*
X97572530Y-108560749D01*
X90059877Y-108560749D01*
X88706774Y-107207967D01*
X88683001Y-107178999D01*
X88653964Y-107155169D01*
X88653936Y-107155141D01*
X88624276Y-107130805D01*
X88567276Y-107084026D01*
X88567236Y-107084004D01*
X88567201Y-107083976D01*
X88504318Y-107050374D01*
X88435247Y-107013454D01*
X88435200Y-107013440D01*
X88435163Y-107013420D01*
X88369248Y-106993434D01*
X88291986Y-106969997D01*
X88291937Y-106969992D01*
X88291897Y-106969980D01*
X88224211Y-106963322D01*
X88180333Y-106959000D01*
X88180279Y-106959000D01*
X88142910Y-106955324D01*
X88105631Y-106959000D01*
X86074827Y-106959000D01*
X86411812Y-106622000D01*
X94665089Y-106622000D01*
X94709026Y-106665937D01*
X94878544Y-106779205D01*
X95066902Y-106857226D01*
X95266861Y-106897000D01*
X95470739Y-106897000D01*
X95670698Y-106857226D01*
X95859056Y-106779205D01*
X96028574Y-106665937D01*
X96172737Y-106521774D01*
X96286005Y-106352256D01*
X96364026Y-106163898D01*
X96403800Y-105963939D01*
X96403800Y-105760061D01*
X96364026Y-105560102D01*
X96286005Y-105371744D01*
X96220902Y-105274309D01*
X96364437Y-105130774D01*
X96477705Y-104961256D01*
X96555726Y-104772898D01*
X96595500Y-104572939D01*
X96595500Y-104460401D01*
X97572528Y-105437430D01*
G36*
X79808298Y-102595100D02*
G01*
X79082522Y-102595100D01*
X79045199Y-102591424D01*
X79007876Y-102595100D01*
X79007867Y-102595100D01*
X78896214Y-102606097D01*
X78766298Y-102645506D01*
X78752953Y-102649554D01*
X78620923Y-102720126D01*
X78549568Y-102778686D01*
X78505199Y-102815099D01*
X78481401Y-102844097D01*
X77236703Y-104088796D01*
X77207699Y-104112599D01*
X77152571Y-104179774D01*
X77112726Y-104228324D01*
X77058473Y-104329823D01*
X77042154Y-104360354D01*
X77019912Y-104433677D01*
X76943763Y-104509826D01*
X76830495Y-104679344D01*
X76752474Y-104867702D01*
X76744815Y-104906205D01*
X76546993Y-104710984D01*
X76322487Y-104710984D01*
X75633588Y-105399883D01*
X76410875Y-106177170D01*
X76635382Y-106177170D01*
X76877440Y-105939456D01*
X76956793Y-105842765D01*
X76956919Y-105842530D01*
X77087926Y-105973537D01*
X77257444Y-106086805D01*
X77445802Y-106164826D01*
X77645761Y-106204600D01*
X77849639Y-106204600D01*
X77887086Y-106197151D01*
X77944463Y-106304494D01*
X78023815Y-106401185D01*
X78083296Y-106450000D01*
X78023815Y-106498815D01*
X77944463Y-106595506D01*
X77885498Y-106705820D01*
X77849188Y-106825518D01*
X77836928Y-106950000D01*
X77836928Y-107005425D01*
X77725424Y-107065026D01*
X77609699Y-107159999D01*
X77514726Y-107275724D01*
X77444154Y-107407753D01*
X77400697Y-107551014D01*
X77386023Y-107700000D01*
X77389700Y-107737333D01*
X77389700Y-108185898D01*
X76136447Y-109439151D01*
X76125199Y-109429920D01*
X76014885Y-109370955D01*
X75895187Y-109334645D01*
X75770705Y-109322385D01*
X75646223Y-109334645D01*
X75526525Y-109370955D01*
X75416211Y-109429920D01*
X75319520Y-109509272D01*
X74423349Y-110405443D01*
X73501200Y-109483217D01*
X73501200Y-108317208D01*
X73680720Y-108496728D01*
X73777411Y-108576080D01*
X73887725Y-108635045D01*
X74007423Y-108671355D01*
X74131905Y-108683615D01*
X74256387Y-108671355D01*
X74376085Y-108635045D01*
X74486399Y-108576080D01*
X74546570Y-108526699D01*
X74672514Y-108564903D01*
X74821500Y-108579577D01*
X74970486Y-108564903D01*
X75113746Y-108521446D01*
X75113915Y-108521356D01*
X75113947Y-108521346D01*
X75181062Y-108485472D01*
X75245731Y-108450937D01*
X75245843Y-108450845D01*
X75245976Y-108450774D01*
X75304568Y-108402689D01*
X75332485Y-108379796D01*
X75332586Y-108379695D01*
X75361701Y-108355801D01*
X75385408Y-108326914D01*
X75411109Y-108301233D01*
X75560761Y-108331000D01*
X75764639Y-108331000D01*
X75964598Y-108291226D01*
X76152956Y-108213205D01*
X76322474Y-108099937D01*
X76466637Y-107955774D01*
X76579905Y-107786256D01*
X76657926Y-107597898D01*
X76697700Y-107397939D01*
X76697700Y-107194061D01*
X76657926Y-106994102D01*
X76579905Y-106805744D01*
X76466637Y-106636226D01*
X76322474Y-106492063D01*
X76231270Y-106431123D01*
X76231270Y-106356775D01*
X75453983Y-105579488D01*
X75439841Y-105593631D01*
X75260236Y-105414026D01*
X75274378Y-105399883D01*
X75260236Y-105385741D01*
X75439841Y-105206136D01*
X75453983Y-105220278D01*
X76142882Y-104531379D01*
X76142882Y-104306873D01*
X75916563Y-104077539D01*
X76665703Y-103328399D01*
X76694701Y-103304601D01*
X76737503Y-103252447D01*
X76789674Y-103188877D01*
X76860246Y-103056847D01*
X76875734Y-103005788D01*
X76903703Y-102913586D01*
X76914700Y-102801933D01*
X76914700Y-102801924D01*
X76918376Y-102764601D01*
X76914700Y-102727278D01*
X76914700Y-101338072D01*
X78180000Y-101338072D01*
X78304482Y-101325812D01*
X78424180Y-101289502D01*
X78475350Y-101262151D01*
X79808298Y-102595100D01*
G37*
X79808298Y-102595100D02*
X79082522Y-102595100D01*
X79045199Y-102591424D01*
X79007876Y-102595100D01*
X79007867Y-102595100D01*
X78896214Y-102606097D01*
X78766298Y-102645506D01*
X78752953Y-102649554D01*
X78620923Y-102720126D01*
X78549568Y-102778686D01*
X78505199Y-102815099D01*
X78481401Y-102844097D01*
X77236703Y-104088796D01*
X77207699Y-104112599D01*
X77152571Y-104179774D01*
X77112726Y-104228324D01*
X77058473Y-104329823D01*
X77042154Y-104360354D01*
X77019912Y-104433677D01*
X76943763Y-104509826D01*
X76830495Y-104679344D01*
X76752474Y-104867702D01*
X76744815Y-104906205D01*
X76546993Y-104710984D01*
X76322487Y-104710984D01*
X75633588Y-105399883D01*
X76410875Y-106177170D01*
X76635382Y-106177170D01*
X76877440Y-105939456D01*
X76956793Y-105842765D01*
X76956919Y-105842530D01*
X77087926Y-105973537D01*
X77257444Y-106086805D01*
X77445802Y-106164826D01*
X77645761Y-106204600D01*
X77849639Y-106204600D01*
X77887086Y-106197151D01*
X77944463Y-106304494D01*
X78023815Y-106401185D01*
X78083296Y-106450000D01*
X78023815Y-106498815D01*
X77944463Y-106595506D01*
X77885498Y-106705820D01*
X77849188Y-106825518D01*
X77836928Y-106950000D01*
X77836928Y-107005425D01*
X77725424Y-107065026D01*
X77609699Y-107159999D01*
X77514726Y-107275724D01*
X77444154Y-107407753D01*
X77400697Y-107551014D01*
X77386023Y-107700000D01*
X77389700Y-107737333D01*
X77389700Y-108185898D01*
X76136447Y-109439151D01*
X76125199Y-109429920D01*
X76014885Y-109370955D01*
X75895187Y-109334645D01*
X75770705Y-109322385D01*
X75646223Y-109334645D01*
X75526525Y-109370955D01*
X75416211Y-109429920D01*
X75319520Y-109509272D01*
X74423349Y-110405443D01*
X73501200Y-109483217D01*
X73501200Y-108317208D01*
X73680720Y-108496728D01*
X73777411Y-108576080D01*
X73887725Y-108635045D01*
X74007423Y-108671355D01*
X74131905Y-108683615D01*
X74256387Y-108671355D01*
X74376085Y-108635045D01*
X74486399Y-108576080D01*
X74546570Y-108526699D01*
X74672514Y-108564903D01*
X74821500Y-108579577D01*
X74970486Y-108564903D01*
X75113746Y-108521446D01*
X75113915Y-108521356D01*
X75113947Y-108521346D01*
X75181062Y-108485472D01*
X75245731Y-108450937D01*
X75245843Y-108450845D01*
X75245976Y-108450774D01*
X75304568Y-108402689D01*
X75332485Y-108379796D01*
X75332586Y-108379695D01*
X75361701Y-108355801D01*
X75385408Y-108326914D01*
X75411109Y-108301233D01*
X75560761Y-108331000D01*
X75764639Y-108331000D01*
X75964598Y-108291226D01*
X76152956Y-108213205D01*
X76322474Y-108099937D01*
X76466637Y-107955774D01*
X76579905Y-107786256D01*
X76657926Y-107597898D01*
X76697700Y-107397939D01*
X76697700Y-107194061D01*
X76657926Y-106994102D01*
X76579905Y-106805744D01*
X76466637Y-106636226D01*
X76322474Y-106492063D01*
X76231270Y-106431123D01*
X76231270Y-106356775D01*
X75453983Y-105579488D01*
X75439841Y-105593631D01*
X75260236Y-105414026D01*
X75274378Y-105399883D01*
X75260236Y-105385741D01*
X75439841Y-105206136D01*
X75453983Y-105220278D01*
X76142882Y-104531379D01*
X76142882Y-104306873D01*
X75916563Y-104077539D01*
X76665703Y-103328399D01*
X76694701Y-103304601D01*
X76737503Y-103252447D01*
X76789674Y-103188877D01*
X76860246Y-103056847D01*
X76875734Y-103005788D01*
X76903703Y-102913586D01*
X76914700Y-102801933D01*
X76914700Y-102801924D01*
X76918376Y-102764601D01*
X76914700Y-102727278D01*
X76914700Y-101338072D01*
X78180000Y-101338072D01*
X78304482Y-101325812D01*
X78424180Y-101289502D01*
X78475350Y-101262151D01*
X79808298Y-102595100D01*
G36*
X85614344Y-105274937D02*
G01*
X85556999Y-105321999D01*
X85533199Y-105350999D01*
X81197734Y-109686660D01*
X81189409Y-109676518D01*
X81141301Y-109617899D01*
X81112258Y-109594064D01*
X80278844Y-108760891D01*
X80314502Y-108694180D01*
X80350812Y-108574482D01*
X80363072Y-108450000D01*
X80363072Y-108063456D01*
X80518344Y-108167205D01*
X80706702Y-108245226D01*
X80906661Y-108285000D01*
X81110539Y-108285000D01*
X81310498Y-108245226D01*
X81498856Y-108167205D01*
X81668374Y-108053937D01*
X81812537Y-107909774D01*
X81925805Y-107740256D01*
X82003826Y-107551898D01*
X82043600Y-107351939D01*
X82043600Y-107289801D01*
X84102403Y-105231000D01*
X85667879Y-105231000D01*
X85614344Y-105274937D01*
G37*
X85614344Y-105274937D02*
X85556999Y-105321999D01*
X85533199Y-105350999D01*
X81197734Y-109686660D01*
X81189409Y-109676518D01*
X81141301Y-109617899D01*
X81112258Y-109594064D01*
X80278844Y-108760891D01*
X80314502Y-108694180D01*
X80350812Y-108574482D01*
X80363072Y-108450000D01*
X80363072Y-108063456D01*
X80518344Y-108167205D01*
X80706702Y-108245226D01*
X80906661Y-108285000D01*
X81110539Y-108285000D01*
X81310498Y-108245226D01*
X81498856Y-108167205D01*
X81668374Y-108053937D01*
X81812537Y-107909774D01*
X81925805Y-107740256D01*
X82003826Y-107551898D01*
X82043600Y-107351939D01*
X82043600Y-107289801D01*
X84102403Y-105231000D01*
X85667879Y-105231000D01*
X85614344Y-105274937D01*
G36*
X80968799Y-106215000D02*
G01*
X80906661Y-106215000D01*
X80706702Y-106254774D01*
X80518344Y-106332795D01*
X80348826Y-106446063D01*
X80230225Y-106564664D01*
X80176185Y-106498815D01*
X80116704Y-106450000D01*
X80176185Y-106401185D01*
X80255537Y-106304494D01*
X80314502Y-106194180D01*
X80350812Y-106074482D01*
X80363072Y-105950000D01*
X80360000Y-105485750D01*
X80201250Y-105327000D01*
X79227000Y-105327000D01*
X79227000Y-105347000D01*
X78973000Y-105347000D01*
X78973000Y-105327000D01*
X78953000Y-105327000D01*
X78953000Y-105073000D01*
X78973000Y-105073000D01*
X78973000Y-105053000D01*
X79227000Y-105053000D01*
X79227000Y-105073000D01*
X80201250Y-105073000D01*
X80360000Y-104914250D01*
X80363072Y-104450000D01*
X80350812Y-104325518D01*
X80314502Y-104205820D01*
X80266010Y-104115100D01*
X83068697Y-104115100D01*
X80968799Y-106215000D01*
G37*
X80968799Y-106215000D02*
X80906661Y-106215000D01*
X80706702Y-106254774D01*
X80518344Y-106332795D01*
X80348826Y-106446063D01*
X80230225Y-106564664D01*
X80176185Y-106498815D01*
X80116704Y-106450000D01*
X80176185Y-106401185D01*
X80255537Y-106304494D01*
X80314502Y-106194180D01*
X80350812Y-106074482D01*
X80363072Y-105950000D01*
X80360000Y-105485750D01*
X80201250Y-105327000D01*
X79227000Y-105327000D01*
X79227000Y-105347000D01*
X78973000Y-105347000D01*
X78973000Y-105327000D01*
X78953000Y-105327000D01*
X78953000Y-105073000D01*
X78973000Y-105073000D01*
X78973000Y-105053000D01*
X79227000Y-105053000D01*
X79227000Y-105073000D01*
X80201250Y-105073000D01*
X80360000Y-104914250D01*
X80363072Y-104450000D01*
X80350812Y-104325518D01*
X80314502Y-104205820D01*
X80266010Y-104115100D01*
X83068697Y-104115100D01*
X80968799Y-106215000D01*
G36*
X101540001Y-102894804D02*
G01*
X101540001Y-103038100D01*
X101435400Y-103006092D01*
X101315750Y-102996600D01*
X101157000Y-103155350D01*
X101157000Y-104495200D01*
X101177000Y-104495200D01*
X101177000Y-104749200D01*
X101157000Y-104749200D01*
X101157000Y-104769200D01*
X100903000Y-104769200D01*
X100903000Y-104749200D01*
X100883000Y-104749200D01*
X100883000Y-104495200D01*
X100903000Y-104495200D01*
X100903000Y-103155350D01*
X100744250Y-102996600D01*
X100624600Y-103006092D01*
X100504990Y-103042693D01*
X100478546Y-103056910D01*
X100465546Y-103014053D01*
X100394974Y-102882024D01*
X100300001Y-102766299D01*
X100271003Y-102742501D01*
X99321501Y-101793000D01*
X100438199Y-101793000D01*
X101540001Y-102894804D01*
G37*
X101540001Y-102894804D02*
X101540001Y-103038100D01*
X101435400Y-103006092D01*
X101315750Y-102996600D01*
X101157000Y-103155350D01*
X101157000Y-104495200D01*
X101177000Y-104495200D01*
X101177000Y-104749200D01*
X101157000Y-104749200D01*
X101157000Y-104769200D01*
X100903000Y-104769200D01*
X100903000Y-104749200D01*
X100883000Y-104749200D01*
X100883000Y-104495200D01*
X100903000Y-104495200D01*
X100903000Y-103155350D01*
X100744250Y-102996600D01*
X100624600Y-103006092D01*
X100504990Y-103042693D01*
X100478546Y-103056910D01*
X100465546Y-103014053D01*
X100394974Y-102882024D01*
X100300001Y-102766299D01*
X100271003Y-102742501D01*
X99321501Y-101793000D01*
X100438199Y-101793000D01*
X101540001Y-102894804D01*
G36*
X111877000Y-103523000D02*
G01*
X111897000Y-103523000D01*
X111897000Y-103777000D01*
X111877000Y-103777000D01*
X111877000Y-103797000D01*
X111623000Y-103797000D01*
X111623000Y-103777000D01*
X111603000Y-103777000D01*
X111603000Y-103523000D01*
X111623000Y-103523000D01*
X111623000Y-103503000D01*
X111877000Y-103503000D01*
X111877000Y-103523000D01*
G37*
X111877000Y-103523000D02*
X111897000Y-103523000D01*
X111897000Y-103777000D01*
X111877000Y-103777000D01*
X111877000Y-103797000D01*
X111623000Y-103797000D01*
X111623000Y-103777000D01*
X111603000Y-103777000D01*
X111603000Y-103523000D01*
X111623000Y-103523000D01*
X111623000Y-103503000D01*
X111877000Y-103503000D01*
X111877000Y-103523000D01*
G36*
X125910498Y-100944180D02*
G01*
X125969463Y-101054494D01*
X126048815Y-101151185D01*
X126145506Y-101230537D01*
X126255820Y-101289502D01*
X126327179Y-101311148D01*
X126290000Y-101498061D01*
X126290000Y-101701939D01*
X126329774Y-101901898D01*
X126407795Y-102090256D01*
X126521063Y-102259774D01*
X126565001Y-102303712D01*
X126565001Y-102362821D01*
X126235750Y-102365000D01*
X126077000Y-102523750D01*
X126077000Y-103523000D01*
X126097000Y-103523000D01*
X126097000Y-103777000D01*
X126077000Y-103777000D01*
X126077000Y-103797000D01*
X125823000Y-103797000D01*
X125823000Y-103777000D01*
X125803000Y-103777000D01*
X125803000Y-103523000D01*
X125823000Y-103523000D01*
X125823000Y-102523750D01*
X125664250Y-102365000D01*
X125200000Y-102361928D01*
X125075518Y-102374188D01*
X124955820Y-102410498D01*
X124845506Y-102469463D01*
X124748815Y-102548815D01*
X124669463Y-102645506D01*
X124610498Y-102755820D01*
X124600000Y-102790427D01*
X124589502Y-102755820D01*
X124530537Y-102645506D01*
X124451185Y-102548815D01*
X124354494Y-102469463D01*
X124244180Y-102410498D01*
X124205000Y-102398613D01*
X124205000Y-101206753D01*
X124376842Y-101277932D01*
X124663740Y-101335000D01*
X124956260Y-101335000D01*
X125243158Y-101277932D01*
X125513411Y-101165990D01*
X125756632Y-101003475D01*
X125888487Y-100871620D01*
X125910498Y-100944180D01*
G37*
X125910498Y-100944180D02*
X125969463Y-101054494D01*
X126048815Y-101151185D01*
X126145506Y-101230537D01*
X126255820Y-101289502D01*
X126327179Y-101311148D01*
X126290000Y-101498061D01*
X126290000Y-101701939D01*
X126329774Y-101901898D01*
X126407795Y-102090256D01*
X126521063Y-102259774D01*
X126565001Y-102303712D01*
X126565001Y-102362821D01*
X126235750Y-102365000D01*
X126077000Y-102523750D01*
X126077000Y-103523000D01*
X126097000Y-103523000D01*
X126097000Y-103777000D01*
X126077000Y-103777000D01*
X126077000Y-103797000D01*
X125823000Y-103797000D01*
X125823000Y-103777000D01*
X125803000Y-103777000D01*
X125803000Y-103523000D01*
X125823000Y-103523000D01*
X125823000Y-102523750D01*
X125664250Y-102365000D01*
X125200000Y-102361928D01*
X125075518Y-102374188D01*
X124955820Y-102410498D01*
X124845506Y-102469463D01*
X124748815Y-102548815D01*
X124669463Y-102645506D01*
X124610498Y-102755820D01*
X124600000Y-102790427D01*
X124589502Y-102755820D01*
X124530537Y-102645506D01*
X124451185Y-102548815D01*
X124354494Y-102469463D01*
X124244180Y-102410498D01*
X124205000Y-102398613D01*
X124205000Y-101206753D01*
X124376842Y-101277932D01*
X124663740Y-101335000D01*
X124956260Y-101335000D01*
X125243158Y-101277932D01*
X125513411Y-101165990D01*
X125756632Y-101003475D01*
X125888487Y-100871620D01*
X125910498Y-100944180D01*
G36*
X85077000Y-99723000D02*
G01*
X85097000Y-99723000D01*
X85097000Y-99977000D01*
X85077000Y-99977000D01*
X85077000Y-101170155D01*
X85306890Y-101291476D01*
X85454099Y-101246825D01*
X85716920Y-101121641D01*
X85950269Y-100947588D01*
X86145178Y-100731355D01*
X86294157Y-100481252D01*
X86391481Y-100206891D01*
X86270815Y-99977002D01*
X86356604Y-99977002D01*
X87799180Y-101419400D01*
X82514202Y-101419400D01*
X82429802Y-101335000D01*
X82556260Y-101335000D01*
X82843158Y-101277932D01*
X83113411Y-101165990D01*
X83356632Y-101003475D01*
X83563475Y-100796632D01*
X83685195Y-100614466D01*
X83754822Y-100731355D01*
X83949731Y-100947588D01*
X84183080Y-101121641D01*
X84445901Y-101246825D01*
X84593110Y-101291476D01*
X84823000Y-101170155D01*
X84823000Y-99977000D01*
X84803000Y-99977000D01*
X84803000Y-99723000D01*
X84823000Y-99723000D01*
X84823000Y-99703000D01*
X85077000Y-99703000D01*
X85077000Y-99723000D01*
G37*
X85077000Y-99723000D02*
X85097000Y-99723000D01*
X85097000Y-99977000D01*
X85077000Y-99977000D01*
X85077000Y-101170155D01*
X85306890Y-101291476D01*
X85454099Y-101246825D01*
X85716920Y-101121641D01*
X85950269Y-100947588D01*
X86145178Y-100731355D01*
X86294157Y-100481252D01*
X86391481Y-100206891D01*
X86270815Y-99977002D01*
X86356604Y-99977002D01*
X87799180Y-101419400D01*
X82514202Y-101419400D01*
X82429802Y-101335000D01*
X82556260Y-101335000D01*
X82843158Y-101277932D01*
X83113411Y-101165990D01*
X83356632Y-101003475D01*
X83563475Y-100796632D01*
X83685195Y-100614466D01*
X83754822Y-100731355D01*
X83949731Y-100947588D01*
X84183080Y-101121641D01*
X84445901Y-101246825D01*
X84593110Y-101291476D01*
X84823000Y-101170155D01*
X84823000Y-99977000D01*
X84803000Y-99977000D01*
X84803000Y-99723000D01*
X84823000Y-99723000D01*
X84823000Y-99703000D01*
X85077000Y-99703000D01*
X85077000Y-99723000D01*
G36*
X87765000Y-95803740D02*
G01*
X87765000Y-96096260D01*
X87818516Y-96365300D01*
X86370762Y-96365300D01*
X86391481Y-96306891D01*
X86270814Y-96077000D01*
X85077000Y-96077000D01*
X85077000Y-96097000D01*
X84823000Y-96097000D01*
X84823000Y-96077000D01*
X84803000Y-96077000D01*
X84803000Y-95823000D01*
X84823000Y-95823000D01*
X84823000Y-95803000D01*
X85077000Y-95803000D01*
X85077000Y-95823000D01*
X86270814Y-95823000D01*
X86391481Y-95593109D01*
X86370762Y-95534700D01*
X87818516Y-95534700D01*
X87765000Y-95803740D01*
G37*
X87765000Y-95803740D02*
X87765000Y-96096260D01*
X87818516Y-96365300D01*
X86370762Y-96365300D01*
X86391481Y-96306891D01*
X86270814Y-96077000D01*
X85077000Y-96077000D01*
X85077000Y-96097000D01*
X84823000Y-96097000D01*
X84823000Y-96077000D01*
X84803000Y-96077000D01*
X84803000Y-95823000D01*
X84823000Y-95823000D01*
X84823000Y-95803000D01*
X85077000Y-95803000D01*
X85077000Y-95823000D01*
X86270814Y-95823000D01*
X86391481Y-95593109D01*
X86370762Y-95534700D01*
X87818516Y-95534700D01*
X87765000Y-95803740D01*
M02*
