M48
; DRILL file {KiCad 5.1.4} date Thu 07 Nov 2019 01:03:24 PM EST
; FORMAT={-:-/ absolute / metric / decimal}
; #@! TF.CreationDate,2019-11-07T13:03:24-05:00
; #@! TF.GenerationSoftware,Kicad,Pcbnew,5.1.4
; #@! TF.FileFunction,Plated,1,2,PTH
FMAT,2
METRIC
T1C0.400
T2C0.600
T3C0.850
T4C1.000
T5C1.016
T6C1.020
%
G90
G05
T1
X72.884Y-107.288
X73.037Y-105.243
X74.418Y-115.89
X74.814Y-100.871
X76.205Y-115.914
X76.345Y-98.654
X76.952Y-131.025
X77.91Y-110.158
X78.299Y-114.713
X79.109Y-112.948
X79.835Y-121.138
X80.087Y-118.658
X80.336Y-107.579
X80.582Y-123.489
X81.592Y-127.74
X81.991Y-114.342
X82.29Y-109.055
X82.471Y-115.919
X82.558Y-100.121
X82.586Y-125.952
X82.75Y-116.975
X82.89Y-111.071
X82.928Y-122.401
X83.519Y-108.125
X83.898Y-100.474
X83.946Y-109.748
X84.711Y-112.323
X89.192Y-121.946
X89.355Y-119.284
X89.644Y-106.95
X90.739Y-116.775
X91.355Y-114.402
X92.364Y-118.808
X93.02Y-112.32
X93.374Y-125.576
X94.447Y-108.189
X95.952Y-119.287
X96.858Y-113.104
X96.871Y-114.55
X97.115Y-108.816
X97.183Y-107.576
X99.589Y-125.398
X99.811Y-120.776
X101.582Y-122.915
X101.794Y-102.623
X102.05Y-111.381
X102.104Y-132.025
X106.068Y-132.351
X106.897Y-103.803
X107.386Y-118.344
X107.394Y-120.776
X107.802Y-97.237
X108.087Y-117.631
X110.96Y-127.431
X112.203Y-115.702
X112.337Y-131.169
X113.2Y-115.236
X113.53Y-123.626
X113.671Y-113.673
X113.671Y-116.704
X114.378Y-119.187
X115.42Y-93.979
X115.688Y-128.396
X115.692Y-130.391
X117.081Y-116.322
X117.189Y-119.948
X120.463Y-101.19
X120.666Y-129.41
X121.174Y-125.907
X124.405Y-124.493
X126.114Y-108.566
X127.234Y-113.06
X130.015Y-125.054
T3
X79.45Y-135.85
X84.45Y-135.85
T4
X89.25Y-135.95
X91.79Y-135.95
X94.33Y-135.95
X96.87Y-135.95
X99.41Y-135.95
X101.95Y-135.95
X104.49Y-135.95
X107.03Y-135.95
X109.57Y-135.95
X112.11Y-135.95
X114.65Y-135.95
X117.19Y-135.95
X119.73Y-135.95
X122.27Y-135.95
X124.81Y-135.95
X127.35Y-135.95
X77.35Y-95.95
X79.89Y-95.95
X82.43Y-95.95
X84.97Y-95.95
X89.25Y-99.85
X91.79Y-99.85
X94.33Y-99.85
X96.87Y-99.85
X99.41Y-99.85
X101.95Y-99.85
X104.49Y-99.85
X107.03Y-99.85
X109.57Y-99.85
X112.11Y-99.85
X114.65Y-99.85
X117.19Y-99.85
X119.73Y-99.85
X122.27Y-99.85
X124.81Y-99.85
X127.35Y-99.85
X89.25Y-95.95
X91.79Y-95.95
X94.33Y-95.95
X96.87Y-95.95
X99.41Y-95.95
X101.95Y-95.95
X104.49Y-95.95
X107.03Y-95.95
X109.57Y-95.95
X112.11Y-95.95
X114.65Y-95.95
X117.19Y-95.95
X119.73Y-95.95
X122.27Y-95.95
X124.81Y-95.95
X127.35Y-95.95
T5
X87.85Y-127.81
X87.85Y-130.35
X90.39Y-127.81
X90.39Y-130.35
X92.93Y-127.81
X92.93Y-130.35
X95.47Y-127.81
X95.47Y-130.35
X98.01Y-127.81
X98.01Y-130.35
T6
X109.0Y-106.44
X109.0Y-129.3
T2
G00X78.45Y-138.9
M15
G01X78.45Y-138.2
M16
G05
G00X85.45Y-138.2
M15
G01X85.45Y-138.9
M16
G05
T0
M30
