M48
; DRILL file {KiCad 5.1.5} date Sat 11 Jan 2020 06:26:49 AM EST
; FORMAT={-:-/ absolute / inch / decimal}
; #@! TF.CreationDate,2020-01-11T06:26:49-05:00
; #@! TF.GenerationSoftware,Kicad,Pcbnew,5.1.5
; #@! TF.FileFunction,Plated,1,2,PTH
FMAT,2
INCH
T1C0.0157
T2C0.0236
T3C0.0335
T4C0.0394
T5C0.0400
%
G90
G05
T1
X2.7964Y-4.1689
X2.8071Y-4.9183
X2.8194Y-4.3223
X2.8725Y-4.6869
X2.8899Y-4.6007
X2.8927Y-4.644
X2.9205Y-3.878
X2.9306Y-4.5533
X2.933Y-5.0395
X2.9385Y-4.0069
X2.9498Y-4.6282
X2.9519Y-4.5153
X2.9788Y-4.2243
X3.0168Y-4.1791
X3.0324Y-3.8669
X3.0609Y-4.1405
X3.0961Y-4.3051
X3.1322Y-4.3362
X3.1436Y-4.7679
X3.1893Y-4.2224
X3.2106Y-4.8215
X3.2275Y-4.8905
X3.228Y-4.7634
X3.2497Y-4.8037
X3.2504Y-4.7301
X3.2885Y-4.687
X3.2984Y-4.3187
X3.311Y-5.0009
X3.3159Y-3.8529
X3.3457Y-5.4118
X3.3834Y-4.403
X3.3876Y-5.3154
X3.3956Y-4.7618
X3.4118Y-5.4531
X3.4122Y-4.2727
X3.4291Y-4.5556
X3.5028Y-5.3337
X3.5701Y-4.4842
X3.6217Y-5.3715
X3.6651Y-4.0691
X3.6873Y-4.3511
X3.7087Y-4.2633
X3.7268Y-5.2255
X3.7547Y-4.1678
X3.7622Y-4.113
X3.7758Y-4.7691
X3.8075Y-4.9733
X3.8138Y-4.4355
X3.8243Y-4.3937
X3.8914Y-4.1816
X3.9098Y-4.9155
X3.9396Y-4.3764
X3.9925Y-4.8923
X4.0327Y-4.2499
X4.0388Y-5.4244
X4.0498Y-5.3028
X4.0802Y-4.9801
X4.0817Y-4.425
X4.0886Y-5.1191
X4.0963Y-5.2656
X4.1139Y-5.0388
X4.141Y-5.3103
X4.1664Y-4.8435
X4.1872Y-5.3326
X4.2097Y-4.1375
X4.2162Y-4.794
X4.2357Y-5.0414
X4.2364Y-5.3612
X4.2984Y-4.2262
X4.3073Y-4.9222
X4.3957Y-5.2461
X4.4286Y-4.4941
X4.4381Y-4.7009
X4.4523Y-4.0442
X4.5897Y-5.2184
X4.6234Y-4.4297
X4.6325Y-5.1352
X4.6465Y-3.8563
X4.6868Y-4.256
X4.7118Y-4.3225
X4.9255Y-4.7191
X5.0128Y-4.0
X5.2606Y-4.8596
X5.2687Y-5.0184
T3
X3.128Y-5.4971
X3.3248Y-5.4971
T4
X3.5138Y-3.9311
X3.6138Y-3.9311
X3.7138Y-3.9311
X3.8138Y-3.9311
X3.9138Y-3.9311
X4.0138Y-3.9311
X4.1138Y-3.9311
X4.2138Y-3.9311
X4.3138Y-3.9311
X4.4138Y-3.9311
X4.5138Y-3.9311
X4.6138Y-3.9311
X4.7138Y-3.9311
X4.8138Y-3.9311
X4.9138Y-3.9311
X5.0138Y-3.9311
X3.5138Y-3.7776
X3.6138Y-3.7776
X3.7138Y-3.7776
X3.8138Y-3.7776
X3.9138Y-3.7776
X4.0138Y-3.7776
X4.1138Y-3.7776
X4.2138Y-3.7776
X4.3138Y-3.7776
X4.4138Y-3.7776
X4.5138Y-3.7776
X4.6138Y-3.7776
X4.7138Y-3.7776
X4.8138Y-3.7776
X4.9138Y-3.7776
X5.0138Y-3.7776
X3.0445Y-3.9311
X3.1445Y-3.9311
X3.2445Y-3.9311
X3.3445Y-3.9311
X3.0445Y-3.7776
X3.1445Y-3.7776
X3.2445Y-3.7776
X3.3445Y-3.7776
X3.5138Y-5.5295
X3.6138Y-5.5295
X3.7138Y-5.5295
X3.8138Y-5.5295
X3.9138Y-5.5295
X4.0138Y-5.5295
X4.1138Y-5.5295
X4.2138Y-5.5295
X4.3138Y-5.5295
X4.4138Y-5.5295
X4.5138Y-5.5295
X4.6138Y-5.5295
X4.7138Y-5.5295
X4.8138Y-5.5295
X4.9138Y-5.5295
X5.0138Y-5.5295
T5
X3.4583Y-5.0319
X3.4583Y-5.1319
X3.5583Y-5.0319
X3.5583Y-5.1319
X3.6583Y-5.0319
X3.6583Y-5.1319
X3.7583Y-5.0319
X3.7583Y-5.1319
X3.8583Y-5.0319
X3.8583Y-5.1319
T2
G00X3.0886Y-5.6172
M15
G01X3.0886Y-5.5896
M16
G05
G00X3.3642Y-5.5896
M15
G01X3.3642Y-5.6172
M16
G05
T0
M30
