G04 #@! TF.GenerationSoftware,KiCad,Pcbnew,5.1.5*
G04 #@! TF.CreationDate,2020-01-11T06:26:57-05:00*
G04 #@! TF.ProjectId,rustypill,72757374-7970-4696-9c6c-2e6b69636164,rev?*
G04 #@! TF.SameCoordinates,Original*
G04 #@! TF.FileFunction,Copper,L1,Top*
G04 #@! TF.FilePolarity,Positive*
%FSLAX46Y46*%
G04 Gerber Fmt 4.6, Leading zero omitted, Abs format (unit mm)*
G04 Created by KiCad (PCBNEW 5.1.5) date 2020-01-11 06:26:57*
%MOMM*%
%LPD*%
G04 APERTURE LIST*
%ADD10R,1.400000X1.300000*%
%ADD11R,1.900000X1.400000*%
%ADD12R,1.500000X0.800000*%
%ADD13R,1.300000X1.500000*%
%ADD14C,0.100000*%
%ADD15R,0.600000X2.200000*%
%ADD16R,1.700000X1.700000*%
%ADD17O,1.700000X1.700000*%
%ADD18R,1.727200X1.727200*%
%ADD19O,1.727200X1.727200*%
%ADD20R,3.500000X2.400000*%
%ADD21R,1.270000X5.080000*%
%ADD22R,3.960000X3.960000*%
%ADD23R,1.100000X1.800000*%
%ADD24R,1.500000X1.250000*%
%ADD25R,0.800000X0.900000*%
%ADD26R,1.500000X1.300000*%
%ADD27C,1.450000*%
%ADD28O,1.200000X1.900000*%
%ADD29R,2.000000X1.500000*%
%ADD30R,2.000000X3.800000*%
%ADD31C,0.800000*%
%ADD32C,0.250000*%
%ADD33C,0.254000*%
G04 APERTURE END LIST*
D10*
X121400000Y-128932000D03*
X121400000Y-134632000D03*
D11*
X134550000Y-136232000D03*
X135550000Y-123082000D03*
D12*
X131750000Y-135442000D03*
X131750000Y-134342000D03*
X131950000Y-133242000D03*
X131750000Y-132142000D03*
X131950000Y-131042000D03*
X131750000Y-129942000D03*
X131350000Y-128842000D03*
X131750000Y-127742000D03*
D13*
X119523000Y-131656000D03*
X119523000Y-134356000D03*
G04 #@! TA.AperFunction,SMDPad,CuDef*
D14*
G36*
X83880509Y-116150000D02*
G01*
X79850000Y-120180509D01*
X75819491Y-116150000D01*
X79850000Y-112119491D01*
X83880509Y-116150000D01*
G37*
G04 #@! TD.AperFunction*
G04 #@! TA.AperFunction,SMDPad,CuDef*
G36*
X79761611Y-120339608D02*
G01*
X79160571Y-120940648D01*
X78948439Y-120728516D01*
X79549479Y-120127476D01*
X79761611Y-120339608D01*
G37*
G04 #@! TD.AperFunction*
G04 #@! TA.AperFunction,SMDPad,CuDef*
G36*
X79408058Y-119986055D02*
G01*
X78807018Y-120587095D01*
X78594886Y-120374963D01*
X79195926Y-119773923D01*
X79408058Y-119986055D01*
G37*
G04 #@! TD.AperFunction*
G04 #@! TA.AperFunction,SMDPad,CuDef*
G36*
X79054504Y-119632501D02*
G01*
X78453464Y-120233541D01*
X78241332Y-120021409D01*
X78842372Y-119420369D01*
X79054504Y-119632501D01*
G37*
G04 #@! TD.AperFunction*
G04 #@! TA.AperFunction,SMDPad,CuDef*
G36*
X78700951Y-119278948D02*
G01*
X78099911Y-119879988D01*
X77887779Y-119667856D01*
X78488819Y-119066816D01*
X78700951Y-119278948D01*
G37*
G04 #@! TD.AperFunction*
G04 #@! TA.AperFunction,SMDPad,CuDef*
G36*
X78347398Y-118925394D02*
G01*
X77746358Y-119526434D01*
X77534226Y-119314302D01*
X78135266Y-118713262D01*
X78347398Y-118925394D01*
G37*
G04 #@! TD.AperFunction*
G04 #@! TA.AperFunction,SMDPad,CuDef*
G36*
X77993844Y-118571841D02*
G01*
X77392804Y-119172881D01*
X77180672Y-118960749D01*
X77781712Y-118359709D01*
X77993844Y-118571841D01*
G37*
G04 #@! TD.AperFunction*
G04 #@! TA.AperFunction,SMDPad,CuDef*
G36*
X77640291Y-118218288D02*
G01*
X77039251Y-118819328D01*
X76827119Y-118607196D01*
X77428159Y-118006156D01*
X77640291Y-118218288D01*
G37*
G04 #@! TD.AperFunction*
G04 #@! TA.AperFunction,SMDPad,CuDef*
G36*
X77286738Y-117864734D02*
G01*
X76685698Y-118465774D01*
X76473566Y-118253642D01*
X77074606Y-117652602D01*
X77286738Y-117864734D01*
G37*
G04 #@! TD.AperFunction*
G04 #@! TA.AperFunction,SMDPad,CuDef*
G36*
X76933184Y-117511181D02*
G01*
X76332144Y-118112221D01*
X76120012Y-117900089D01*
X76721052Y-117299049D01*
X76933184Y-117511181D01*
G37*
G04 #@! TD.AperFunction*
G04 #@! TA.AperFunction,SMDPad,CuDef*
G36*
X76579631Y-117157628D02*
G01*
X75978591Y-117758668D01*
X75766459Y-117546536D01*
X76367499Y-116945496D01*
X76579631Y-117157628D01*
G37*
G04 #@! TD.AperFunction*
G04 #@! TA.AperFunction,SMDPad,CuDef*
G36*
X76226077Y-116804074D02*
G01*
X75625037Y-117405114D01*
X75412905Y-117192982D01*
X76013945Y-116591942D01*
X76226077Y-116804074D01*
G37*
G04 #@! TD.AperFunction*
G04 #@! TA.AperFunction,SMDPad,CuDef*
G36*
X75872524Y-116450521D02*
G01*
X75271484Y-117051561D01*
X75059352Y-116839429D01*
X75660392Y-116238389D01*
X75872524Y-116450521D01*
G37*
G04 #@! TD.AperFunction*
G04 #@! TA.AperFunction,SMDPad,CuDef*
G36*
X75271484Y-115248439D02*
G01*
X75872524Y-115849479D01*
X75660392Y-116061611D01*
X75059352Y-115460571D01*
X75271484Y-115248439D01*
G37*
G04 #@! TD.AperFunction*
G04 #@! TA.AperFunction,SMDPad,CuDef*
G36*
X75625037Y-114894886D02*
G01*
X76226077Y-115495926D01*
X76013945Y-115708058D01*
X75412905Y-115107018D01*
X75625037Y-114894886D01*
G37*
G04 #@! TD.AperFunction*
G04 #@! TA.AperFunction,SMDPad,CuDef*
G36*
X75978591Y-114541332D02*
G01*
X76579631Y-115142372D01*
X76367499Y-115354504D01*
X75766459Y-114753464D01*
X75978591Y-114541332D01*
G37*
G04 #@! TD.AperFunction*
G04 #@! TA.AperFunction,SMDPad,CuDef*
G36*
X76332144Y-114187779D02*
G01*
X76933184Y-114788819D01*
X76721052Y-115000951D01*
X76120012Y-114399911D01*
X76332144Y-114187779D01*
G37*
G04 #@! TD.AperFunction*
G04 #@! TA.AperFunction,SMDPad,CuDef*
G36*
X76685698Y-113834226D02*
G01*
X77286738Y-114435266D01*
X77074606Y-114647398D01*
X76473566Y-114046358D01*
X76685698Y-113834226D01*
G37*
G04 #@! TD.AperFunction*
G04 #@! TA.AperFunction,SMDPad,CuDef*
G36*
X77039251Y-113480672D02*
G01*
X77640291Y-114081712D01*
X77428159Y-114293844D01*
X76827119Y-113692804D01*
X77039251Y-113480672D01*
G37*
G04 #@! TD.AperFunction*
G04 #@! TA.AperFunction,SMDPad,CuDef*
G36*
X77392804Y-113127119D02*
G01*
X77993844Y-113728159D01*
X77781712Y-113940291D01*
X77180672Y-113339251D01*
X77392804Y-113127119D01*
G37*
G04 #@! TD.AperFunction*
G04 #@! TA.AperFunction,SMDPad,CuDef*
G36*
X77746358Y-112773566D02*
G01*
X78347398Y-113374606D01*
X78135266Y-113586738D01*
X77534226Y-112985698D01*
X77746358Y-112773566D01*
G37*
G04 #@! TD.AperFunction*
G04 #@! TA.AperFunction,SMDPad,CuDef*
G36*
X78099911Y-112420012D02*
G01*
X78700951Y-113021052D01*
X78488819Y-113233184D01*
X77887779Y-112632144D01*
X78099911Y-112420012D01*
G37*
G04 #@! TD.AperFunction*
G04 #@! TA.AperFunction,SMDPad,CuDef*
G36*
X78453464Y-112066459D02*
G01*
X79054504Y-112667499D01*
X78842372Y-112879631D01*
X78241332Y-112278591D01*
X78453464Y-112066459D01*
G37*
G04 #@! TD.AperFunction*
G04 #@! TA.AperFunction,SMDPad,CuDef*
G36*
X78807018Y-111712905D02*
G01*
X79408058Y-112313945D01*
X79195926Y-112526077D01*
X78594886Y-111925037D01*
X78807018Y-111712905D01*
G37*
G04 #@! TD.AperFunction*
G04 #@! TA.AperFunction,SMDPad,CuDef*
G36*
X79160571Y-111359352D02*
G01*
X79761611Y-111960392D01*
X79549479Y-112172524D01*
X78948439Y-111571484D01*
X79160571Y-111359352D01*
G37*
G04 #@! TD.AperFunction*
G04 #@! TA.AperFunction,SMDPad,CuDef*
G36*
X80751561Y-111571484D02*
G01*
X80150521Y-112172524D01*
X79938389Y-111960392D01*
X80539429Y-111359352D01*
X80751561Y-111571484D01*
G37*
G04 #@! TD.AperFunction*
G04 #@! TA.AperFunction,SMDPad,CuDef*
G36*
X81105114Y-111925037D02*
G01*
X80504074Y-112526077D01*
X80291942Y-112313945D01*
X80892982Y-111712905D01*
X81105114Y-111925037D01*
G37*
G04 #@! TD.AperFunction*
G04 #@! TA.AperFunction,SMDPad,CuDef*
G36*
X81458668Y-112278591D02*
G01*
X80857628Y-112879631D01*
X80645496Y-112667499D01*
X81246536Y-112066459D01*
X81458668Y-112278591D01*
G37*
G04 #@! TD.AperFunction*
G04 #@! TA.AperFunction,SMDPad,CuDef*
G36*
X81812221Y-112632144D02*
G01*
X81211181Y-113233184D01*
X80999049Y-113021052D01*
X81600089Y-112420012D01*
X81812221Y-112632144D01*
G37*
G04 #@! TD.AperFunction*
G04 #@! TA.AperFunction,SMDPad,CuDef*
G36*
X82165774Y-112985698D02*
G01*
X81564734Y-113586738D01*
X81352602Y-113374606D01*
X81953642Y-112773566D01*
X82165774Y-112985698D01*
G37*
G04 #@! TD.AperFunction*
G04 #@! TA.AperFunction,SMDPad,CuDef*
G36*
X82519328Y-113339251D02*
G01*
X81918288Y-113940291D01*
X81706156Y-113728159D01*
X82307196Y-113127119D01*
X82519328Y-113339251D01*
G37*
G04 #@! TD.AperFunction*
G04 #@! TA.AperFunction,SMDPad,CuDef*
G36*
X82872881Y-113692804D02*
G01*
X82271841Y-114293844D01*
X82059709Y-114081712D01*
X82660749Y-113480672D01*
X82872881Y-113692804D01*
G37*
G04 #@! TD.AperFunction*
G04 #@! TA.AperFunction,SMDPad,CuDef*
G36*
X83226434Y-114046358D02*
G01*
X82625394Y-114647398D01*
X82413262Y-114435266D01*
X83014302Y-113834226D01*
X83226434Y-114046358D01*
G37*
G04 #@! TD.AperFunction*
G04 #@! TA.AperFunction,SMDPad,CuDef*
G36*
X83579988Y-114399911D02*
G01*
X82978948Y-115000951D01*
X82766816Y-114788819D01*
X83367856Y-114187779D01*
X83579988Y-114399911D01*
G37*
G04 #@! TD.AperFunction*
G04 #@! TA.AperFunction,SMDPad,CuDef*
G36*
X83933541Y-114753464D02*
G01*
X83332501Y-115354504D01*
X83120369Y-115142372D01*
X83721409Y-114541332D01*
X83933541Y-114753464D01*
G37*
G04 #@! TD.AperFunction*
G04 #@! TA.AperFunction,SMDPad,CuDef*
G36*
X84287095Y-115107018D02*
G01*
X83686055Y-115708058D01*
X83473923Y-115495926D01*
X84074963Y-114894886D01*
X84287095Y-115107018D01*
G37*
G04 #@! TD.AperFunction*
G04 #@! TA.AperFunction,SMDPad,CuDef*
G36*
X84640648Y-115460571D02*
G01*
X84039608Y-116061611D01*
X83827476Y-115849479D01*
X84428516Y-115248439D01*
X84640648Y-115460571D01*
G37*
G04 #@! TD.AperFunction*
G04 #@! TA.AperFunction,SMDPad,CuDef*
G36*
X84039608Y-116238389D02*
G01*
X84640648Y-116839429D01*
X84428516Y-117051561D01*
X83827476Y-116450521D01*
X84039608Y-116238389D01*
G37*
G04 #@! TD.AperFunction*
G04 #@! TA.AperFunction,SMDPad,CuDef*
G36*
X83686055Y-116591942D02*
G01*
X84287095Y-117192982D01*
X84074963Y-117405114D01*
X83473923Y-116804074D01*
X83686055Y-116591942D01*
G37*
G04 #@! TD.AperFunction*
G04 #@! TA.AperFunction,SMDPad,CuDef*
G36*
X83332501Y-116945496D02*
G01*
X83933541Y-117546536D01*
X83721409Y-117758668D01*
X83120369Y-117157628D01*
X83332501Y-116945496D01*
G37*
G04 #@! TD.AperFunction*
G04 #@! TA.AperFunction,SMDPad,CuDef*
G36*
X82978948Y-117299049D02*
G01*
X83579988Y-117900089D01*
X83367856Y-118112221D01*
X82766816Y-117511181D01*
X82978948Y-117299049D01*
G37*
G04 #@! TD.AperFunction*
G04 #@! TA.AperFunction,SMDPad,CuDef*
G36*
X82625394Y-117652602D02*
G01*
X83226434Y-118253642D01*
X83014302Y-118465774D01*
X82413262Y-117864734D01*
X82625394Y-117652602D01*
G37*
G04 #@! TD.AperFunction*
G04 #@! TA.AperFunction,SMDPad,CuDef*
G36*
X82271841Y-118006156D02*
G01*
X82872881Y-118607196D01*
X82660749Y-118819328D01*
X82059709Y-118218288D01*
X82271841Y-118006156D01*
G37*
G04 #@! TD.AperFunction*
G04 #@! TA.AperFunction,SMDPad,CuDef*
G36*
X81918288Y-118359709D02*
G01*
X82519328Y-118960749D01*
X82307196Y-119172881D01*
X81706156Y-118571841D01*
X81918288Y-118359709D01*
G37*
G04 #@! TD.AperFunction*
G04 #@! TA.AperFunction,SMDPad,CuDef*
G36*
X81564734Y-118713262D02*
G01*
X82165774Y-119314302D01*
X81953642Y-119526434D01*
X81352602Y-118925394D01*
X81564734Y-118713262D01*
G37*
G04 #@! TD.AperFunction*
G04 #@! TA.AperFunction,SMDPad,CuDef*
G36*
X81211181Y-119066816D02*
G01*
X81812221Y-119667856D01*
X81600089Y-119879988D01*
X80999049Y-119278948D01*
X81211181Y-119066816D01*
G37*
G04 #@! TD.AperFunction*
G04 #@! TA.AperFunction,SMDPad,CuDef*
G36*
X80857628Y-119420369D02*
G01*
X81458668Y-120021409D01*
X81246536Y-120233541D01*
X80645496Y-119632501D01*
X80857628Y-119420369D01*
G37*
G04 #@! TD.AperFunction*
G04 #@! TA.AperFunction,SMDPad,CuDef*
G36*
X80504074Y-119773923D02*
G01*
X81105114Y-120374963D01*
X80892982Y-120587095D01*
X80291942Y-119986055D01*
X80504074Y-119773923D01*
G37*
G04 #@! TD.AperFunction*
G04 #@! TA.AperFunction,SMDPad,CuDef*
G36*
X80150521Y-120127476D02*
G01*
X80751561Y-120728516D01*
X80539429Y-120940648D01*
X79938389Y-120339608D01*
X80150521Y-120127476D01*
G37*
G04 #@! TD.AperFunction*
D15*
X109775000Y-135950000D03*
X112315000Y-126750000D03*
X108505000Y-135950000D03*
X111045000Y-135950000D03*
X112315000Y-135950000D03*
X111045000Y-126750000D03*
X113585000Y-126750000D03*
X114855000Y-126750000D03*
X114855000Y-135950000D03*
X117395000Y-126750000D03*
X113585000Y-135950000D03*
X116125000Y-135950000D03*
X116125000Y-126750000D03*
X117395000Y-135950000D03*
X109775000Y-126750000D03*
X108505000Y-126750000D03*
D16*
X77330000Y-99850000D03*
D17*
X79870000Y-99850000D03*
X82410000Y-99850000D03*
X84950000Y-99850000D03*
D16*
X127350000Y-95950000D03*
D17*
X124810000Y-95950000D03*
X122270000Y-95950000D03*
X119730000Y-95950000D03*
X117190000Y-95950000D03*
X114650000Y-95950000D03*
X112110000Y-95950000D03*
X109570000Y-95950000D03*
X107030000Y-95950000D03*
X104490000Y-95950000D03*
X101950000Y-95950000D03*
X99410000Y-95950000D03*
X96870000Y-95950000D03*
X94330000Y-95950000D03*
X91790000Y-95950000D03*
X89250000Y-95950000D03*
D16*
X127350000Y-99850000D03*
D17*
X124810000Y-99850000D03*
X122270000Y-99850000D03*
X119730000Y-99850000D03*
X117190000Y-99850000D03*
X114650000Y-99850000D03*
X112110000Y-99850000D03*
X109570000Y-99850000D03*
X107030000Y-99850000D03*
X104490000Y-99850000D03*
X101950000Y-99850000D03*
X99410000Y-99850000D03*
X96870000Y-99850000D03*
X94330000Y-99850000D03*
X91790000Y-99850000D03*
X89250000Y-99850000D03*
D16*
X127350000Y-140450000D03*
D17*
X124810000Y-140450000D03*
X122270000Y-140450000D03*
X119730000Y-140450000D03*
X117190000Y-140450000D03*
X114650000Y-140450000D03*
X112110000Y-140450000D03*
X109570000Y-140450000D03*
X107030000Y-140450000D03*
X104490000Y-140450000D03*
X101950000Y-140450000D03*
X99410000Y-140450000D03*
X96870000Y-140450000D03*
X94330000Y-140450000D03*
X91790000Y-140450000D03*
X89250000Y-140450000D03*
D16*
X77330000Y-95950000D03*
D17*
X79870000Y-95950000D03*
X82410000Y-95950000D03*
X84950000Y-95950000D03*
G04 #@! TA.AperFunction,SMDPad,CuDef*
D14*
G36*
X72235313Y-107848604D02*
G01*
X72800999Y-108414290D01*
X72164603Y-109050686D01*
X71598917Y-108485000D01*
X72235313Y-107848604D01*
G37*
G04 #@! TD.AperFunction*
G04 #@! TA.AperFunction,SMDPad,CuDef*
G36*
X70891810Y-106505101D02*
G01*
X71457496Y-107070787D01*
X70821100Y-107707183D01*
X70255414Y-107141497D01*
X70891810Y-106505101D01*
G37*
G04 #@! TD.AperFunction*
G04 #@! TA.AperFunction,SMDPad,CuDef*
G36*
X70149348Y-108591066D02*
G01*
X70715034Y-109156752D01*
X70078638Y-109793148D01*
X69512952Y-109227462D01*
X70149348Y-108591066D01*
G37*
G04 #@! TD.AperFunction*
G04 #@! TA.AperFunction,SMDPad,CuDef*
G36*
X71914359Y-104288305D02*
G01*
X71920426Y-104289205D01*
X71926376Y-104290695D01*
X71932151Y-104292762D01*
X71937695Y-104295384D01*
X71942956Y-104298537D01*
X71947883Y-104302191D01*
X71952427Y-104306310D01*
X72447402Y-104801285D01*
X72451521Y-104805829D01*
X72455175Y-104810756D01*
X72458328Y-104816017D01*
X72460950Y-104821561D01*
X72463017Y-104827336D01*
X72464507Y-104833286D01*
X72465407Y-104839353D01*
X72465708Y-104845479D01*
X72465407Y-104851605D01*
X72464507Y-104857672D01*
X72463017Y-104863622D01*
X72460950Y-104869397D01*
X72458328Y-104874941D01*
X72455175Y-104880202D01*
X72451521Y-104885129D01*
X72447402Y-104889673D01*
X72359013Y-104978062D01*
X72354469Y-104982181D01*
X72349542Y-104985835D01*
X72344281Y-104988988D01*
X72338737Y-104991610D01*
X72332962Y-104993677D01*
X72327012Y-104995167D01*
X72320945Y-104996067D01*
X72314819Y-104996368D01*
X72308693Y-104996067D01*
X72302626Y-104995167D01*
X72296676Y-104993677D01*
X72290901Y-104991610D01*
X72285357Y-104988988D01*
X72280096Y-104985835D01*
X72275169Y-104982181D01*
X72270625Y-104978062D01*
X71775650Y-104483087D01*
X71771531Y-104478543D01*
X71767877Y-104473616D01*
X71764724Y-104468355D01*
X71762102Y-104462811D01*
X71760035Y-104457036D01*
X71758545Y-104451086D01*
X71757645Y-104445019D01*
X71757344Y-104438893D01*
X71757645Y-104432767D01*
X71758545Y-104426700D01*
X71760035Y-104420750D01*
X71762102Y-104414975D01*
X71764724Y-104409431D01*
X71767877Y-104404170D01*
X71771531Y-104399243D01*
X71775650Y-104394699D01*
X71864039Y-104306310D01*
X71868583Y-104302191D01*
X71873510Y-104298537D01*
X71878771Y-104295384D01*
X71884315Y-104292762D01*
X71890090Y-104290695D01*
X71896040Y-104289205D01*
X71902107Y-104288305D01*
X71908233Y-104288004D01*
X71914359Y-104288305D01*
G37*
G04 #@! TD.AperFunction*
G04 #@! TA.AperFunction,SMDPad,CuDef*
G36*
X72267913Y-103934752D02*
G01*
X72273980Y-103935652D01*
X72279930Y-103937142D01*
X72285705Y-103939209D01*
X72291249Y-103941831D01*
X72296510Y-103944984D01*
X72301437Y-103948638D01*
X72305981Y-103952757D01*
X72800956Y-104447732D01*
X72805075Y-104452276D01*
X72808729Y-104457203D01*
X72811882Y-104462464D01*
X72814504Y-104468008D01*
X72816571Y-104473783D01*
X72818061Y-104479733D01*
X72818961Y-104485800D01*
X72819262Y-104491926D01*
X72818961Y-104498052D01*
X72818061Y-104504119D01*
X72816571Y-104510069D01*
X72814504Y-104515844D01*
X72811882Y-104521388D01*
X72808729Y-104526649D01*
X72805075Y-104531576D01*
X72800956Y-104536120D01*
X72712567Y-104624509D01*
X72708023Y-104628628D01*
X72703096Y-104632282D01*
X72697835Y-104635435D01*
X72692291Y-104638057D01*
X72686516Y-104640124D01*
X72680566Y-104641614D01*
X72674499Y-104642514D01*
X72668373Y-104642815D01*
X72662247Y-104642514D01*
X72656180Y-104641614D01*
X72650230Y-104640124D01*
X72644455Y-104638057D01*
X72638911Y-104635435D01*
X72633650Y-104632282D01*
X72628723Y-104628628D01*
X72624179Y-104624509D01*
X72129204Y-104129534D01*
X72125085Y-104124990D01*
X72121431Y-104120063D01*
X72118278Y-104114802D01*
X72115656Y-104109258D01*
X72113589Y-104103483D01*
X72112099Y-104097533D01*
X72111199Y-104091466D01*
X72110898Y-104085340D01*
X72111199Y-104079214D01*
X72112099Y-104073147D01*
X72113589Y-104067197D01*
X72115656Y-104061422D01*
X72118278Y-104055878D01*
X72121431Y-104050617D01*
X72125085Y-104045690D01*
X72129204Y-104041146D01*
X72217593Y-103952757D01*
X72222137Y-103948638D01*
X72227064Y-103944984D01*
X72232325Y-103941831D01*
X72237869Y-103939209D01*
X72243644Y-103937142D01*
X72249594Y-103935652D01*
X72255661Y-103934752D01*
X72261787Y-103934451D01*
X72267913Y-103934752D01*
G37*
G04 #@! TD.AperFunction*
G04 #@! TA.AperFunction,SMDPad,CuDef*
G36*
X72621466Y-103581199D02*
G01*
X72627533Y-103582099D01*
X72633483Y-103583589D01*
X72639258Y-103585656D01*
X72644802Y-103588278D01*
X72650063Y-103591431D01*
X72654990Y-103595085D01*
X72659534Y-103599204D01*
X73154509Y-104094179D01*
X73158628Y-104098723D01*
X73162282Y-104103650D01*
X73165435Y-104108911D01*
X73168057Y-104114455D01*
X73170124Y-104120230D01*
X73171614Y-104126180D01*
X73172514Y-104132247D01*
X73172815Y-104138373D01*
X73172514Y-104144499D01*
X73171614Y-104150566D01*
X73170124Y-104156516D01*
X73168057Y-104162291D01*
X73165435Y-104167835D01*
X73162282Y-104173096D01*
X73158628Y-104178023D01*
X73154509Y-104182567D01*
X73066120Y-104270956D01*
X73061576Y-104275075D01*
X73056649Y-104278729D01*
X73051388Y-104281882D01*
X73045844Y-104284504D01*
X73040069Y-104286571D01*
X73034119Y-104288061D01*
X73028052Y-104288961D01*
X73021926Y-104289262D01*
X73015800Y-104288961D01*
X73009733Y-104288061D01*
X73003783Y-104286571D01*
X72998008Y-104284504D01*
X72992464Y-104281882D01*
X72987203Y-104278729D01*
X72982276Y-104275075D01*
X72977732Y-104270956D01*
X72482757Y-103775981D01*
X72478638Y-103771437D01*
X72474984Y-103766510D01*
X72471831Y-103761249D01*
X72469209Y-103755705D01*
X72467142Y-103749930D01*
X72465652Y-103743980D01*
X72464752Y-103737913D01*
X72464451Y-103731787D01*
X72464752Y-103725661D01*
X72465652Y-103719594D01*
X72467142Y-103713644D01*
X72469209Y-103707869D01*
X72471831Y-103702325D01*
X72474984Y-103697064D01*
X72478638Y-103692137D01*
X72482757Y-103687593D01*
X72571146Y-103599204D01*
X72575690Y-103595085D01*
X72580617Y-103591431D01*
X72585878Y-103588278D01*
X72591422Y-103585656D01*
X72597197Y-103583589D01*
X72603147Y-103582099D01*
X72609214Y-103581199D01*
X72615340Y-103580898D01*
X72621466Y-103581199D01*
G37*
G04 #@! TD.AperFunction*
G04 #@! TA.AperFunction,SMDPad,CuDef*
G36*
X72975019Y-103227645D02*
G01*
X72981086Y-103228545D01*
X72987036Y-103230035D01*
X72992811Y-103232102D01*
X72998355Y-103234724D01*
X73003616Y-103237877D01*
X73008543Y-103241531D01*
X73013087Y-103245650D01*
X73508062Y-103740625D01*
X73512181Y-103745169D01*
X73515835Y-103750096D01*
X73518988Y-103755357D01*
X73521610Y-103760901D01*
X73523677Y-103766676D01*
X73525167Y-103772626D01*
X73526067Y-103778693D01*
X73526368Y-103784819D01*
X73526067Y-103790945D01*
X73525167Y-103797012D01*
X73523677Y-103802962D01*
X73521610Y-103808737D01*
X73518988Y-103814281D01*
X73515835Y-103819542D01*
X73512181Y-103824469D01*
X73508062Y-103829013D01*
X73419673Y-103917402D01*
X73415129Y-103921521D01*
X73410202Y-103925175D01*
X73404941Y-103928328D01*
X73399397Y-103930950D01*
X73393622Y-103933017D01*
X73387672Y-103934507D01*
X73381605Y-103935407D01*
X73375479Y-103935708D01*
X73369353Y-103935407D01*
X73363286Y-103934507D01*
X73357336Y-103933017D01*
X73351561Y-103930950D01*
X73346017Y-103928328D01*
X73340756Y-103925175D01*
X73335829Y-103921521D01*
X73331285Y-103917402D01*
X72836310Y-103422427D01*
X72832191Y-103417883D01*
X72828537Y-103412956D01*
X72825384Y-103407695D01*
X72822762Y-103402151D01*
X72820695Y-103396376D01*
X72819205Y-103390426D01*
X72818305Y-103384359D01*
X72818004Y-103378233D01*
X72818305Y-103372107D01*
X72819205Y-103366040D01*
X72820695Y-103360090D01*
X72822762Y-103354315D01*
X72825384Y-103348771D01*
X72828537Y-103343510D01*
X72832191Y-103338583D01*
X72836310Y-103334039D01*
X72924699Y-103245650D01*
X72929243Y-103241531D01*
X72934170Y-103237877D01*
X72939431Y-103234724D01*
X72944975Y-103232102D01*
X72950750Y-103230035D01*
X72956700Y-103228545D01*
X72962767Y-103227645D01*
X72968893Y-103227344D01*
X72975019Y-103227645D01*
G37*
G04 #@! TD.AperFunction*
G04 #@! TA.AperFunction,SMDPad,CuDef*
G36*
X74389233Y-103227645D02*
G01*
X74395300Y-103228545D01*
X74401250Y-103230035D01*
X74407025Y-103232102D01*
X74412569Y-103234724D01*
X74417830Y-103237877D01*
X74422757Y-103241531D01*
X74427301Y-103245650D01*
X74515690Y-103334039D01*
X74519809Y-103338583D01*
X74523463Y-103343510D01*
X74526616Y-103348771D01*
X74529238Y-103354315D01*
X74531305Y-103360090D01*
X74532795Y-103366040D01*
X74533695Y-103372107D01*
X74533996Y-103378233D01*
X74533695Y-103384359D01*
X74532795Y-103390426D01*
X74531305Y-103396376D01*
X74529238Y-103402151D01*
X74526616Y-103407695D01*
X74523463Y-103412956D01*
X74519809Y-103417883D01*
X74515690Y-103422427D01*
X74020715Y-103917402D01*
X74016171Y-103921521D01*
X74011244Y-103925175D01*
X74005983Y-103928328D01*
X74000439Y-103930950D01*
X73994664Y-103933017D01*
X73988714Y-103934507D01*
X73982647Y-103935407D01*
X73976521Y-103935708D01*
X73970395Y-103935407D01*
X73964328Y-103934507D01*
X73958378Y-103933017D01*
X73952603Y-103930950D01*
X73947059Y-103928328D01*
X73941798Y-103925175D01*
X73936871Y-103921521D01*
X73932327Y-103917402D01*
X73843938Y-103829013D01*
X73839819Y-103824469D01*
X73836165Y-103819542D01*
X73833012Y-103814281D01*
X73830390Y-103808737D01*
X73828323Y-103802962D01*
X73826833Y-103797012D01*
X73825933Y-103790945D01*
X73825632Y-103784819D01*
X73825933Y-103778693D01*
X73826833Y-103772626D01*
X73828323Y-103766676D01*
X73830390Y-103760901D01*
X73833012Y-103755357D01*
X73836165Y-103750096D01*
X73839819Y-103745169D01*
X73843938Y-103740625D01*
X74338913Y-103245650D01*
X74343457Y-103241531D01*
X74348384Y-103237877D01*
X74353645Y-103234724D01*
X74359189Y-103232102D01*
X74364964Y-103230035D01*
X74370914Y-103228545D01*
X74376981Y-103227645D01*
X74383107Y-103227344D01*
X74389233Y-103227645D01*
G37*
G04 #@! TD.AperFunction*
G04 #@! TA.AperFunction,SMDPad,CuDef*
G36*
X74742786Y-103581199D02*
G01*
X74748853Y-103582099D01*
X74754803Y-103583589D01*
X74760578Y-103585656D01*
X74766122Y-103588278D01*
X74771383Y-103591431D01*
X74776310Y-103595085D01*
X74780854Y-103599204D01*
X74869243Y-103687593D01*
X74873362Y-103692137D01*
X74877016Y-103697064D01*
X74880169Y-103702325D01*
X74882791Y-103707869D01*
X74884858Y-103713644D01*
X74886348Y-103719594D01*
X74887248Y-103725661D01*
X74887549Y-103731787D01*
X74887248Y-103737913D01*
X74886348Y-103743980D01*
X74884858Y-103749930D01*
X74882791Y-103755705D01*
X74880169Y-103761249D01*
X74877016Y-103766510D01*
X74873362Y-103771437D01*
X74869243Y-103775981D01*
X74374268Y-104270956D01*
X74369724Y-104275075D01*
X74364797Y-104278729D01*
X74359536Y-104281882D01*
X74353992Y-104284504D01*
X74348217Y-104286571D01*
X74342267Y-104288061D01*
X74336200Y-104288961D01*
X74330074Y-104289262D01*
X74323948Y-104288961D01*
X74317881Y-104288061D01*
X74311931Y-104286571D01*
X74306156Y-104284504D01*
X74300612Y-104281882D01*
X74295351Y-104278729D01*
X74290424Y-104275075D01*
X74285880Y-104270956D01*
X74197491Y-104182567D01*
X74193372Y-104178023D01*
X74189718Y-104173096D01*
X74186565Y-104167835D01*
X74183943Y-104162291D01*
X74181876Y-104156516D01*
X74180386Y-104150566D01*
X74179486Y-104144499D01*
X74179185Y-104138373D01*
X74179486Y-104132247D01*
X74180386Y-104126180D01*
X74181876Y-104120230D01*
X74183943Y-104114455D01*
X74186565Y-104108911D01*
X74189718Y-104103650D01*
X74193372Y-104098723D01*
X74197491Y-104094179D01*
X74692466Y-103599204D01*
X74697010Y-103595085D01*
X74701937Y-103591431D01*
X74707198Y-103588278D01*
X74712742Y-103585656D01*
X74718517Y-103583589D01*
X74724467Y-103582099D01*
X74730534Y-103581199D01*
X74736660Y-103580898D01*
X74742786Y-103581199D01*
G37*
G04 #@! TD.AperFunction*
G04 #@! TA.AperFunction,SMDPad,CuDef*
G36*
X75096339Y-103934752D02*
G01*
X75102406Y-103935652D01*
X75108356Y-103937142D01*
X75114131Y-103939209D01*
X75119675Y-103941831D01*
X75124936Y-103944984D01*
X75129863Y-103948638D01*
X75134407Y-103952757D01*
X75222796Y-104041146D01*
X75226915Y-104045690D01*
X75230569Y-104050617D01*
X75233722Y-104055878D01*
X75236344Y-104061422D01*
X75238411Y-104067197D01*
X75239901Y-104073147D01*
X75240801Y-104079214D01*
X75241102Y-104085340D01*
X75240801Y-104091466D01*
X75239901Y-104097533D01*
X75238411Y-104103483D01*
X75236344Y-104109258D01*
X75233722Y-104114802D01*
X75230569Y-104120063D01*
X75226915Y-104124990D01*
X75222796Y-104129534D01*
X74727821Y-104624509D01*
X74723277Y-104628628D01*
X74718350Y-104632282D01*
X74713089Y-104635435D01*
X74707545Y-104638057D01*
X74701770Y-104640124D01*
X74695820Y-104641614D01*
X74689753Y-104642514D01*
X74683627Y-104642815D01*
X74677501Y-104642514D01*
X74671434Y-104641614D01*
X74665484Y-104640124D01*
X74659709Y-104638057D01*
X74654165Y-104635435D01*
X74648904Y-104632282D01*
X74643977Y-104628628D01*
X74639433Y-104624509D01*
X74551044Y-104536120D01*
X74546925Y-104531576D01*
X74543271Y-104526649D01*
X74540118Y-104521388D01*
X74537496Y-104515844D01*
X74535429Y-104510069D01*
X74533939Y-104504119D01*
X74533039Y-104498052D01*
X74532738Y-104491926D01*
X74533039Y-104485800D01*
X74533939Y-104479733D01*
X74535429Y-104473783D01*
X74537496Y-104468008D01*
X74540118Y-104462464D01*
X74543271Y-104457203D01*
X74546925Y-104452276D01*
X74551044Y-104447732D01*
X75046019Y-103952757D01*
X75050563Y-103948638D01*
X75055490Y-103944984D01*
X75060751Y-103941831D01*
X75066295Y-103939209D01*
X75072070Y-103937142D01*
X75078020Y-103935652D01*
X75084087Y-103934752D01*
X75090213Y-103934451D01*
X75096339Y-103934752D01*
G37*
G04 #@! TD.AperFunction*
G04 #@! TA.AperFunction,SMDPad,CuDef*
G36*
X75449893Y-104288305D02*
G01*
X75455960Y-104289205D01*
X75461910Y-104290695D01*
X75467685Y-104292762D01*
X75473229Y-104295384D01*
X75478490Y-104298537D01*
X75483417Y-104302191D01*
X75487961Y-104306310D01*
X75576350Y-104394699D01*
X75580469Y-104399243D01*
X75584123Y-104404170D01*
X75587276Y-104409431D01*
X75589898Y-104414975D01*
X75591965Y-104420750D01*
X75593455Y-104426700D01*
X75594355Y-104432767D01*
X75594656Y-104438893D01*
X75594355Y-104445019D01*
X75593455Y-104451086D01*
X75591965Y-104457036D01*
X75589898Y-104462811D01*
X75587276Y-104468355D01*
X75584123Y-104473616D01*
X75580469Y-104478543D01*
X75576350Y-104483087D01*
X75081375Y-104978062D01*
X75076831Y-104982181D01*
X75071904Y-104985835D01*
X75066643Y-104988988D01*
X75061099Y-104991610D01*
X75055324Y-104993677D01*
X75049374Y-104995167D01*
X75043307Y-104996067D01*
X75037181Y-104996368D01*
X75031055Y-104996067D01*
X75024988Y-104995167D01*
X75019038Y-104993677D01*
X75013263Y-104991610D01*
X75007719Y-104988988D01*
X75002458Y-104985835D01*
X74997531Y-104982181D01*
X74992987Y-104978062D01*
X74904598Y-104889673D01*
X74900479Y-104885129D01*
X74896825Y-104880202D01*
X74893672Y-104874941D01*
X74891050Y-104869397D01*
X74888983Y-104863622D01*
X74887493Y-104857672D01*
X74886593Y-104851605D01*
X74886292Y-104845479D01*
X74886593Y-104839353D01*
X74887493Y-104833286D01*
X74888983Y-104827336D01*
X74891050Y-104821561D01*
X74893672Y-104816017D01*
X74896825Y-104810756D01*
X74900479Y-104805829D01*
X74904598Y-104801285D01*
X75399573Y-104306310D01*
X75404117Y-104302191D01*
X75409044Y-104298537D01*
X75414305Y-104295384D01*
X75419849Y-104292762D01*
X75425624Y-104290695D01*
X75431574Y-104289205D01*
X75437641Y-104288305D01*
X75443767Y-104288004D01*
X75449893Y-104288305D01*
G37*
G04 #@! TD.AperFunction*
G04 #@! TA.AperFunction,SMDPad,CuDef*
G36*
X75043307Y-105295933D02*
G01*
X75049374Y-105296833D01*
X75055324Y-105298323D01*
X75061099Y-105300390D01*
X75066643Y-105303012D01*
X75071904Y-105306165D01*
X75076831Y-105309819D01*
X75081375Y-105313938D01*
X75576350Y-105808913D01*
X75580469Y-105813457D01*
X75584123Y-105818384D01*
X75587276Y-105823645D01*
X75589898Y-105829189D01*
X75591965Y-105834964D01*
X75593455Y-105840914D01*
X75594355Y-105846981D01*
X75594656Y-105853107D01*
X75594355Y-105859233D01*
X75593455Y-105865300D01*
X75591965Y-105871250D01*
X75589898Y-105877025D01*
X75587276Y-105882569D01*
X75584123Y-105887830D01*
X75580469Y-105892757D01*
X75576350Y-105897301D01*
X75487961Y-105985690D01*
X75483417Y-105989809D01*
X75478490Y-105993463D01*
X75473229Y-105996616D01*
X75467685Y-105999238D01*
X75461910Y-106001305D01*
X75455960Y-106002795D01*
X75449893Y-106003695D01*
X75443767Y-106003996D01*
X75437641Y-106003695D01*
X75431574Y-106002795D01*
X75425624Y-106001305D01*
X75419849Y-105999238D01*
X75414305Y-105996616D01*
X75409044Y-105993463D01*
X75404117Y-105989809D01*
X75399573Y-105985690D01*
X74904598Y-105490715D01*
X74900479Y-105486171D01*
X74896825Y-105481244D01*
X74893672Y-105475983D01*
X74891050Y-105470439D01*
X74888983Y-105464664D01*
X74887493Y-105458714D01*
X74886593Y-105452647D01*
X74886292Y-105446521D01*
X74886593Y-105440395D01*
X74887493Y-105434328D01*
X74888983Y-105428378D01*
X74891050Y-105422603D01*
X74893672Y-105417059D01*
X74896825Y-105411798D01*
X74900479Y-105406871D01*
X74904598Y-105402327D01*
X74992987Y-105313938D01*
X74997531Y-105309819D01*
X75002458Y-105306165D01*
X75007719Y-105303012D01*
X75013263Y-105300390D01*
X75019038Y-105298323D01*
X75024988Y-105296833D01*
X75031055Y-105295933D01*
X75037181Y-105295632D01*
X75043307Y-105295933D01*
G37*
G04 #@! TD.AperFunction*
G04 #@! TA.AperFunction,SMDPad,CuDef*
G36*
X74689753Y-105649486D02*
G01*
X74695820Y-105650386D01*
X74701770Y-105651876D01*
X74707545Y-105653943D01*
X74713089Y-105656565D01*
X74718350Y-105659718D01*
X74723277Y-105663372D01*
X74727821Y-105667491D01*
X75222796Y-106162466D01*
X75226915Y-106167010D01*
X75230569Y-106171937D01*
X75233722Y-106177198D01*
X75236344Y-106182742D01*
X75238411Y-106188517D01*
X75239901Y-106194467D01*
X75240801Y-106200534D01*
X75241102Y-106206660D01*
X75240801Y-106212786D01*
X75239901Y-106218853D01*
X75238411Y-106224803D01*
X75236344Y-106230578D01*
X75233722Y-106236122D01*
X75230569Y-106241383D01*
X75226915Y-106246310D01*
X75222796Y-106250854D01*
X75134407Y-106339243D01*
X75129863Y-106343362D01*
X75124936Y-106347016D01*
X75119675Y-106350169D01*
X75114131Y-106352791D01*
X75108356Y-106354858D01*
X75102406Y-106356348D01*
X75096339Y-106357248D01*
X75090213Y-106357549D01*
X75084087Y-106357248D01*
X75078020Y-106356348D01*
X75072070Y-106354858D01*
X75066295Y-106352791D01*
X75060751Y-106350169D01*
X75055490Y-106347016D01*
X75050563Y-106343362D01*
X75046019Y-106339243D01*
X74551044Y-105844268D01*
X74546925Y-105839724D01*
X74543271Y-105834797D01*
X74540118Y-105829536D01*
X74537496Y-105823992D01*
X74535429Y-105818217D01*
X74533939Y-105812267D01*
X74533039Y-105806200D01*
X74532738Y-105800074D01*
X74533039Y-105793948D01*
X74533939Y-105787881D01*
X74535429Y-105781931D01*
X74537496Y-105776156D01*
X74540118Y-105770612D01*
X74543271Y-105765351D01*
X74546925Y-105760424D01*
X74551044Y-105755880D01*
X74639433Y-105667491D01*
X74643977Y-105663372D01*
X74648904Y-105659718D01*
X74654165Y-105656565D01*
X74659709Y-105653943D01*
X74665484Y-105651876D01*
X74671434Y-105650386D01*
X74677501Y-105649486D01*
X74683627Y-105649185D01*
X74689753Y-105649486D01*
G37*
G04 #@! TD.AperFunction*
G04 #@! TA.AperFunction,SMDPad,CuDef*
G36*
X74336200Y-106003039D02*
G01*
X74342267Y-106003939D01*
X74348217Y-106005429D01*
X74353992Y-106007496D01*
X74359536Y-106010118D01*
X74364797Y-106013271D01*
X74369724Y-106016925D01*
X74374268Y-106021044D01*
X74869243Y-106516019D01*
X74873362Y-106520563D01*
X74877016Y-106525490D01*
X74880169Y-106530751D01*
X74882791Y-106536295D01*
X74884858Y-106542070D01*
X74886348Y-106548020D01*
X74887248Y-106554087D01*
X74887549Y-106560213D01*
X74887248Y-106566339D01*
X74886348Y-106572406D01*
X74884858Y-106578356D01*
X74882791Y-106584131D01*
X74880169Y-106589675D01*
X74877016Y-106594936D01*
X74873362Y-106599863D01*
X74869243Y-106604407D01*
X74780854Y-106692796D01*
X74776310Y-106696915D01*
X74771383Y-106700569D01*
X74766122Y-106703722D01*
X74760578Y-106706344D01*
X74754803Y-106708411D01*
X74748853Y-106709901D01*
X74742786Y-106710801D01*
X74736660Y-106711102D01*
X74730534Y-106710801D01*
X74724467Y-106709901D01*
X74718517Y-106708411D01*
X74712742Y-106706344D01*
X74707198Y-106703722D01*
X74701937Y-106700569D01*
X74697010Y-106696915D01*
X74692466Y-106692796D01*
X74197491Y-106197821D01*
X74193372Y-106193277D01*
X74189718Y-106188350D01*
X74186565Y-106183089D01*
X74183943Y-106177545D01*
X74181876Y-106171770D01*
X74180386Y-106165820D01*
X74179486Y-106159753D01*
X74179185Y-106153627D01*
X74179486Y-106147501D01*
X74180386Y-106141434D01*
X74181876Y-106135484D01*
X74183943Y-106129709D01*
X74186565Y-106124165D01*
X74189718Y-106118904D01*
X74193372Y-106113977D01*
X74197491Y-106109433D01*
X74285880Y-106021044D01*
X74290424Y-106016925D01*
X74295351Y-106013271D01*
X74300612Y-106010118D01*
X74306156Y-106007496D01*
X74311931Y-106005429D01*
X74317881Y-106003939D01*
X74323948Y-106003039D01*
X74330074Y-106002738D01*
X74336200Y-106003039D01*
G37*
G04 #@! TD.AperFunction*
G04 #@! TA.AperFunction,SMDPad,CuDef*
G36*
X73982647Y-106356593D02*
G01*
X73988714Y-106357493D01*
X73994664Y-106358983D01*
X74000439Y-106361050D01*
X74005983Y-106363672D01*
X74011244Y-106366825D01*
X74016171Y-106370479D01*
X74020715Y-106374598D01*
X74515690Y-106869573D01*
X74519809Y-106874117D01*
X74523463Y-106879044D01*
X74526616Y-106884305D01*
X74529238Y-106889849D01*
X74531305Y-106895624D01*
X74532795Y-106901574D01*
X74533695Y-106907641D01*
X74533996Y-106913767D01*
X74533695Y-106919893D01*
X74532795Y-106925960D01*
X74531305Y-106931910D01*
X74529238Y-106937685D01*
X74526616Y-106943229D01*
X74523463Y-106948490D01*
X74519809Y-106953417D01*
X74515690Y-106957961D01*
X74427301Y-107046350D01*
X74422757Y-107050469D01*
X74417830Y-107054123D01*
X74412569Y-107057276D01*
X74407025Y-107059898D01*
X74401250Y-107061965D01*
X74395300Y-107063455D01*
X74389233Y-107064355D01*
X74383107Y-107064656D01*
X74376981Y-107064355D01*
X74370914Y-107063455D01*
X74364964Y-107061965D01*
X74359189Y-107059898D01*
X74353645Y-107057276D01*
X74348384Y-107054123D01*
X74343457Y-107050469D01*
X74338913Y-107046350D01*
X73843938Y-106551375D01*
X73839819Y-106546831D01*
X73836165Y-106541904D01*
X73833012Y-106536643D01*
X73830390Y-106531099D01*
X73828323Y-106525324D01*
X73826833Y-106519374D01*
X73825933Y-106513307D01*
X73825632Y-106507181D01*
X73825933Y-106501055D01*
X73826833Y-106494988D01*
X73828323Y-106489038D01*
X73830390Y-106483263D01*
X73833012Y-106477719D01*
X73836165Y-106472458D01*
X73839819Y-106467531D01*
X73843938Y-106462987D01*
X73932327Y-106374598D01*
X73936871Y-106370479D01*
X73941798Y-106366825D01*
X73947059Y-106363672D01*
X73952603Y-106361050D01*
X73958378Y-106358983D01*
X73964328Y-106357493D01*
X73970395Y-106356593D01*
X73976521Y-106356292D01*
X73982647Y-106356593D01*
G37*
G04 #@! TD.AperFunction*
G04 #@! TA.AperFunction,SMDPad,CuDef*
G36*
X73381605Y-106356593D02*
G01*
X73387672Y-106357493D01*
X73393622Y-106358983D01*
X73399397Y-106361050D01*
X73404941Y-106363672D01*
X73410202Y-106366825D01*
X73415129Y-106370479D01*
X73419673Y-106374598D01*
X73508062Y-106462987D01*
X73512181Y-106467531D01*
X73515835Y-106472458D01*
X73518988Y-106477719D01*
X73521610Y-106483263D01*
X73523677Y-106489038D01*
X73525167Y-106494988D01*
X73526067Y-106501055D01*
X73526368Y-106507181D01*
X73526067Y-106513307D01*
X73525167Y-106519374D01*
X73523677Y-106525324D01*
X73521610Y-106531099D01*
X73518988Y-106536643D01*
X73515835Y-106541904D01*
X73512181Y-106546831D01*
X73508062Y-106551375D01*
X73013087Y-107046350D01*
X73008543Y-107050469D01*
X73003616Y-107054123D01*
X72998355Y-107057276D01*
X72992811Y-107059898D01*
X72987036Y-107061965D01*
X72981086Y-107063455D01*
X72975019Y-107064355D01*
X72968893Y-107064656D01*
X72962767Y-107064355D01*
X72956700Y-107063455D01*
X72950750Y-107061965D01*
X72944975Y-107059898D01*
X72939431Y-107057276D01*
X72934170Y-107054123D01*
X72929243Y-107050469D01*
X72924699Y-107046350D01*
X72836310Y-106957961D01*
X72832191Y-106953417D01*
X72828537Y-106948490D01*
X72825384Y-106943229D01*
X72822762Y-106937685D01*
X72820695Y-106931910D01*
X72819205Y-106925960D01*
X72818305Y-106919893D01*
X72818004Y-106913767D01*
X72818305Y-106907641D01*
X72819205Y-106901574D01*
X72820695Y-106895624D01*
X72822762Y-106889849D01*
X72825384Y-106884305D01*
X72828537Y-106879044D01*
X72832191Y-106874117D01*
X72836310Y-106869573D01*
X73331285Y-106374598D01*
X73335829Y-106370479D01*
X73340756Y-106366825D01*
X73346017Y-106363672D01*
X73351561Y-106361050D01*
X73357336Y-106358983D01*
X73363286Y-106357493D01*
X73369353Y-106356593D01*
X73375479Y-106356292D01*
X73381605Y-106356593D01*
G37*
G04 #@! TD.AperFunction*
G04 #@! TA.AperFunction,SMDPad,CuDef*
G36*
X73028052Y-106003039D02*
G01*
X73034119Y-106003939D01*
X73040069Y-106005429D01*
X73045844Y-106007496D01*
X73051388Y-106010118D01*
X73056649Y-106013271D01*
X73061576Y-106016925D01*
X73066120Y-106021044D01*
X73154509Y-106109433D01*
X73158628Y-106113977D01*
X73162282Y-106118904D01*
X73165435Y-106124165D01*
X73168057Y-106129709D01*
X73170124Y-106135484D01*
X73171614Y-106141434D01*
X73172514Y-106147501D01*
X73172815Y-106153627D01*
X73172514Y-106159753D01*
X73171614Y-106165820D01*
X73170124Y-106171770D01*
X73168057Y-106177545D01*
X73165435Y-106183089D01*
X73162282Y-106188350D01*
X73158628Y-106193277D01*
X73154509Y-106197821D01*
X72659534Y-106692796D01*
X72654990Y-106696915D01*
X72650063Y-106700569D01*
X72644802Y-106703722D01*
X72639258Y-106706344D01*
X72633483Y-106708411D01*
X72627533Y-106709901D01*
X72621466Y-106710801D01*
X72615340Y-106711102D01*
X72609214Y-106710801D01*
X72603147Y-106709901D01*
X72597197Y-106708411D01*
X72591422Y-106706344D01*
X72585878Y-106703722D01*
X72580617Y-106700569D01*
X72575690Y-106696915D01*
X72571146Y-106692796D01*
X72482757Y-106604407D01*
X72478638Y-106599863D01*
X72474984Y-106594936D01*
X72471831Y-106589675D01*
X72469209Y-106584131D01*
X72467142Y-106578356D01*
X72465652Y-106572406D01*
X72464752Y-106566339D01*
X72464451Y-106560213D01*
X72464752Y-106554087D01*
X72465652Y-106548020D01*
X72467142Y-106542070D01*
X72469209Y-106536295D01*
X72471831Y-106530751D01*
X72474984Y-106525490D01*
X72478638Y-106520563D01*
X72482757Y-106516019D01*
X72977732Y-106021044D01*
X72982276Y-106016925D01*
X72987203Y-106013271D01*
X72992464Y-106010118D01*
X72998008Y-106007496D01*
X73003783Y-106005429D01*
X73009733Y-106003939D01*
X73015800Y-106003039D01*
X73021926Y-106002738D01*
X73028052Y-106003039D01*
G37*
G04 #@! TD.AperFunction*
G04 #@! TA.AperFunction,SMDPad,CuDef*
G36*
X72674499Y-105649486D02*
G01*
X72680566Y-105650386D01*
X72686516Y-105651876D01*
X72692291Y-105653943D01*
X72697835Y-105656565D01*
X72703096Y-105659718D01*
X72708023Y-105663372D01*
X72712567Y-105667491D01*
X72800956Y-105755880D01*
X72805075Y-105760424D01*
X72808729Y-105765351D01*
X72811882Y-105770612D01*
X72814504Y-105776156D01*
X72816571Y-105781931D01*
X72818061Y-105787881D01*
X72818961Y-105793948D01*
X72819262Y-105800074D01*
X72818961Y-105806200D01*
X72818061Y-105812267D01*
X72816571Y-105818217D01*
X72814504Y-105823992D01*
X72811882Y-105829536D01*
X72808729Y-105834797D01*
X72805075Y-105839724D01*
X72800956Y-105844268D01*
X72305981Y-106339243D01*
X72301437Y-106343362D01*
X72296510Y-106347016D01*
X72291249Y-106350169D01*
X72285705Y-106352791D01*
X72279930Y-106354858D01*
X72273980Y-106356348D01*
X72267913Y-106357248D01*
X72261787Y-106357549D01*
X72255661Y-106357248D01*
X72249594Y-106356348D01*
X72243644Y-106354858D01*
X72237869Y-106352791D01*
X72232325Y-106350169D01*
X72227064Y-106347016D01*
X72222137Y-106343362D01*
X72217593Y-106339243D01*
X72129204Y-106250854D01*
X72125085Y-106246310D01*
X72121431Y-106241383D01*
X72118278Y-106236122D01*
X72115656Y-106230578D01*
X72113589Y-106224803D01*
X72112099Y-106218853D01*
X72111199Y-106212786D01*
X72110898Y-106206660D01*
X72111199Y-106200534D01*
X72112099Y-106194467D01*
X72113589Y-106188517D01*
X72115656Y-106182742D01*
X72118278Y-106177198D01*
X72121431Y-106171937D01*
X72125085Y-106167010D01*
X72129204Y-106162466D01*
X72624179Y-105667491D01*
X72628723Y-105663372D01*
X72633650Y-105659718D01*
X72638911Y-105656565D01*
X72644455Y-105653943D01*
X72650230Y-105651876D01*
X72656180Y-105650386D01*
X72662247Y-105649486D01*
X72668373Y-105649185D01*
X72674499Y-105649486D01*
G37*
G04 #@! TD.AperFunction*
G04 #@! TA.AperFunction,SMDPad,CuDef*
G36*
X72320945Y-105295933D02*
G01*
X72327012Y-105296833D01*
X72332962Y-105298323D01*
X72338737Y-105300390D01*
X72344281Y-105303012D01*
X72349542Y-105306165D01*
X72354469Y-105309819D01*
X72359013Y-105313938D01*
X72447402Y-105402327D01*
X72451521Y-105406871D01*
X72455175Y-105411798D01*
X72458328Y-105417059D01*
X72460950Y-105422603D01*
X72463017Y-105428378D01*
X72464507Y-105434328D01*
X72465407Y-105440395D01*
X72465708Y-105446521D01*
X72465407Y-105452647D01*
X72464507Y-105458714D01*
X72463017Y-105464664D01*
X72460950Y-105470439D01*
X72458328Y-105475983D01*
X72455175Y-105481244D01*
X72451521Y-105486171D01*
X72447402Y-105490715D01*
X71952427Y-105985690D01*
X71947883Y-105989809D01*
X71942956Y-105993463D01*
X71937695Y-105996616D01*
X71932151Y-105999238D01*
X71926376Y-106001305D01*
X71920426Y-106002795D01*
X71914359Y-106003695D01*
X71908233Y-106003996D01*
X71902107Y-106003695D01*
X71896040Y-106002795D01*
X71890090Y-106001305D01*
X71884315Y-105999238D01*
X71878771Y-105996616D01*
X71873510Y-105993463D01*
X71868583Y-105989809D01*
X71864039Y-105985690D01*
X71775650Y-105897301D01*
X71771531Y-105892757D01*
X71767877Y-105887830D01*
X71764724Y-105882569D01*
X71762102Y-105877025D01*
X71760035Y-105871250D01*
X71758545Y-105865300D01*
X71757645Y-105859233D01*
X71757344Y-105853107D01*
X71757645Y-105846981D01*
X71758545Y-105840914D01*
X71760035Y-105834964D01*
X71762102Y-105829189D01*
X71764724Y-105823645D01*
X71767877Y-105818384D01*
X71771531Y-105813457D01*
X71775650Y-105808913D01*
X72270625Y-105313938D01*
X72275169Y-105309819D01*
X72280096Y-105306165D01*
X72285357Y-105303012D01*
X72290901Y-105300390D01*
X72296676Y-105298323D01*
X72302626Y-105296833D01*
X72308693Y-105295933D01*
X72314819Y-105295632D01*
X72320945Y-105295933D01*
G37*
G04 #@! TD.AperFunction*
G04 #@! TA.AperFunction,SMDPad,CuDef*
G36*
X73700504Y-104062818D02*
G01*
X73724773Y-104066418D01*
X73748571Y-104072379D01*
X73771671Y-104080644D01*
X73793849Y-104091134D01*
X73814893Y-104103747D01*
X73834598Y-104118361D01*
X73852777Y-104134837D01*
X74687163Y-104969223D01*
X74703639Y-104987402D01*
X74718253Y-105007107D01*
X74730866Y-105028151D01*
X74741356Y-105050329D01*
X74749621Y-105073429D01*
X74755582Y-105097227D01*
X74759182Y-105121496D01*
X74760386Y-105146000D01*
X74759182Y-105170504D01*
X74755582Y-105194773D01*
X74749621Y-105218571D01*
X74741356Y-105241671D01*
X74730866Y-105263849D01*
X74718253Y-105284893D01*
X74703639Y-105304598D01*
X74687163Y-105322777D01*
X73852777Y-106157163D01*
X73834598Y-106173639D01*
X73814893Y-106188253D01*
X73793849Y-106200866D01*
X73771671Y-106211356D01*
X73748571Y-106219621D01*
X73724773Y-106225582D01*
X73700504Y-106229182D01*
X73676000Y-106230386D01*
X73651496Y-106229182D01*
X73627227Y-106225582D01*
X73603429Y-106219621D01*
X73580329Y-106211356D01*
X73558151Y-106200866D01*
X73537107Y-106188253D01*
X73517402Y-106173639D01*
X73499223Y-106157163D01*
X72664837Y-105322777D01*
X72648361Y-105304598D01*
X72633747Y-105284893D01*
X72621134Y-105263849D01*
X72610644Y-105241671D01*
X72602379Y-105218571D01*
X72596418Y-105194773D01*
X72592818Y-105170504D01*
X72591614Y-105146000D01*
X72592818Y-105121496D01*
X72596418Y-105097227D01*
X72602379Y-105073429D01*
X72610644Y-105050329D01*
X72621134Y-105028151D01*
X72633747Y-105007107D01*
X72648361Y-104987402D01*
X72664837Y-104969223D01*
X73499223Y-104134837D01*
X73517402Y-104118361D01*
X73537107Y-104103747D01*
X73558151Y-104091134D01*
X73580329Y-104080644D01*
X73603429Y-104072379D01*
X73627227Y-104066418D01*
X73651496Y-104062818D01*
X73676000Y-104061614D01*
X73700504Y-104062818D01*
G37*
G04 #@! TD.AperFunction*
D18*
X87840000Y-130350000D03*
D19*
X87840000Y-127810000D03*
X90380000Y-130350000D03*
X90380000Y-127810000D03*
X92920000Y-130350000D03*
X92920000Y-127810000D03*
X95460000Y-130350000D03*
X95460000Y-127810000D03*
X98000000Y-130350000D03*
X98000000Y-127810000D03*
D20*
X83450000Y-105050000D03*
X88650000Y-105050000D03*
D21*
X120885000Y-114150000D03*
X98915000Y-114150000D03*
D22*
X109900000Y-114150000D03*
D23*
X126800000Y-111250000D03*
X126800000Y-117450000D03*
X123100000Y-111250000D03*
X123100000Y-117450000D03*
D24*
X91700000Y-104475000D03*
X94200000Y-104475000D03*
X94200000Y-106950000D03*
X91700000Y-106950000D03*
D25*
X93950000Y-109450000D03*
X91850000Y-109450000D03*
D26*
X88000000Y-109450000D03*
X85300000Y-109450000D03*
D27*
X84450000Y-139626000D03*
X79450000Y-139626000D03*
D28*
X85450000Y-142326000D03*
X78450000Y-142326000D03*
D29*
X95250000Y-116850000D03*
X95250000Y-112250000D03*
X95250000Y-114550000D03*
D30*
X88950000Y-114550000D03*
D31*
X112486000Y-114150000D03*
X76625800Y-106149700D03*
X103676100Y-112395100D03*
X94200000Y-108287500D03*
X133620000Y-123434000D03*
X96870600Y-112662700D03*
X71613800Y-109787500D03*
X95906200Y-121135900D03*
X79848000Y-121105600D03*
X74437800Y-115655000D03*
X111650000Y-133250021D03*
X133824000Y-127467018D03*
X78641300Y-109350000D03*
X81991200Y-120991000D03*
X79557700Y-110140300D03*
X82559500Y-120144000D03*
X82542800Y-122013100D03*
X86248800Y-120950900D03*
X93658500Y-110517000D03*
X86669700Y-108526200D03*
X99309800Y-124853100D03*
X94660800Y-132727300D03*
X86044626Y-135010074D03*
X81977800Y-124218000D03*
X109404900Y-125025000D03*
X117434200Y-112513400D03*
X113088900Y-102723000D03*
X98840300Y-106213600D03*
X104046639Y-133746961D03*
X119679900Y-109791000D03*
X84100000Y-127022100D03*
X107586300Y-128052600D03*
X102431100Y-107948600D03*
X105180390Y-134880710D03*
X77023800Y-98219100D03*
X74979500Y-114688200D03*
X73474800Y-117958600D03*
X74180900Y-98500000D03*
X112729000Y-119404000D03*
X125108000Y-119864000D03*
X118021000Y-97950600D03*
X95368800Y-105862000D03*
X85937100Y-111837000D03*
X105825500Y-123025500D03*
X117665800Y-130434300D03*
X103850000Y-130025000D03*
X116579206Y-132546213D03*
X91990800Y-136435000D03*
X107605000Y-136175000D03*
X106356000Y-135448000D03*
X102864000Y-134691000D03*
X107091800Y-121766800D03*
X90681600Y-113899000D03*
X83778400Y-109695000D03*
X104492410Y-127984590D03*
X84981900Y-137460800D03*
X86659700Y-138509500D03*
X74925500Y-117556200D03*
X74637900Y-101775600D03*
X84222700Y-97863200D03*
X73404400Y-116856600D03*
X74499300Y-128004000D03*
X71301400Y-124925000D03*
X72960800Y-119046100D03*
X127325000Y-101600000D03*
X88971500Y-135476700D03*
X103638260Y-126493540D03*
X102585000Y-137779100D03*
X101409360Y-124264640D03*
X96710900Y-126323000D03*
X106927600Y-105093500D03*
X97136100Y-111599300D03*
X109179000Y-107345000D03*
X100065100Y-111160200D03*
X81008600Y-107250000D03*
X95560500Y-104471000D03*
X93094400Y-103355100D03*
X77747700Y-105169600D03*
X71028300Y-105890600D03*
X75662700Y-107296000D03*
X81549600Y-122467200D03*
X83528200Y-119051000D03*
X87100000Y-115711900D03*
X119044700Y-108102800D03*
D32*
X120885000Y-117015300D02*
X119354400Y-117015300D01*
X119354400Y-117015300D02*
X111045000Y-125324700D01*
X120885000Y-114150000D02*
X120885000Y-117015300D01*
X111045000Y-126750000D02*
X111045000Y-125324700D01*
X126800000Y-111250000D02*
X126800000Y-117450000D01*
X94200000Y-106950000D02*
X94200000Y-104475000D01*
X78506100Y-116150000D02*
X78506100Y-118589000D01*
X76350000Y-115832000D02*
X76350300Y-115831700D01*
X76350300Y-115831700D02*
X76668800Y-116150000D01*
X76668800Y-116150000D02*
X78506100Y-116150000D01*
X79532000Y-119650000D02*
X79399400Y-119517400D01*
X79399400Y-119517400D02*
X79399400Y-119482400D01*
X79399400Y-119482400D02*
X78506100Y-118589000D01*
X79001500Y-120180500D02*
X79532000Y-119650000D01*
X75819500Y-115301500D02*
X76350000Y-115832000D01*
X82819800Y-118059200D02*
X82289300Y-117528700D01*
X79850000Y-116150000D02*
X80910600Y-116150000D01*
X80910600Y-116150000D02*
X82289300Y-117528700D01*
X126800000Y-117450000D02*
X126800000Y-118675300D01*
X122650000Y-123400000D02*
X122650000Y-121233000D01*
X122650000Y-121233000D02*
X125207700Y-118675300D01*
X125207700Y-118675300D02*
X126800000Y-118675300D01*
X122650000Y-123400000D02*
X122650000Y-124425300D01*
X112315000Y-126750000D02*
X112315000Y-126136000D01*
X112315000Y-126136000D02*
X114025700Y-124425300D01*
X114025700Y-124425300D02*
X122650000Y-124425300D01*
X75240500Y-105649800D02*
X76125900Y-105649800D01*
X76125900Y-105649800D02*
X76625800Y-106149700D01*
X127350000Y-97125300D02*
X127496900Y-97125300D01*
X127496900Y-97125300D02*
X129000900Y-98629300D01*
X129000900Y-98629300D02*
X129000900Y-102363200D01*
X129000900Y-102363200D02*
X126800000Y-104564100D01*
X126800000Y-104564100D02*
X126800000Y-111250000D01*
X127350000Y-95950000D02*
X127350000Y-97125300D01*
X112486000Y-114150000D02*
X109900000Y-114150000D01*
X109900000Y-114150000D02*
X105431000Y-114150000D01*
X95250000Y-116850000D02*
X96575300Y-116850000D01*
X104015300Y-112734200D02*
X99734100Y-117015400D01*
X99734100Y-117015400D02*
X96740700Y-117015400D01*
X96740700Y-117015400D02*
X96575300Y-116850000D01*
X105431000Y-114150000D02*
X104015300Y-112734200D01*
X104015300Y-112734200D02*
X103676100Y-112395100D01*
X84950000Y-99850000D02*
X84950000Y-95950000D01*
X78506100Y-116150000D02*
X79850000Y-116150000D01*
X79850000Y-116150000D02*
X79850000Y-112968000D01*
X79850000Y-112968000D02*
X80698500Y-112119500D01*
X94200000Y-108287500D02*
X94200000Y-106950000D01*
X77206189Y-121417600D02*
X86138589Y-130350000D01*
X86138589Y-130350000D02*
X87840000Y-130350000D01*
X77206189Y-119888911D02*
X77206189Y-121417600D01*
X78506100Y-118589000D02*
X77206189Y-119888911D01*
X82504200Y-94312200D02*
X76166400Y-94312200D01*
X83774700Y-95950000D02*
X83774700Y-95582700D01*
X76166400Y-94312200D02*
X74558811Y-95919789D01*
X83774700Y-95582700D02*
X82504200Y-94312200D01*
X70662200Y-108643900D02*
X70114000Y-109192100D01*
X71064400Y-100522010D02*
X71064400Y-104602700D01*
X74558811Y-97027600D02*
X71064400Y-100522010D01*
X74558811Y-95919789D02*
X74558811Y-97027600D01*
X72818600Y-106356900D02*
X70662100Y-108513400D01*
X70662100Y-108513400D02*
X70662100Y-108643900D01*
X84950000Y-95950000D02*
X83774700Y-95950000D01*
X70662100Y-108643900D02*
X70662200Y-108643900D01*
X71064400Y-104602700D02*
X72818600Y-106356900D01*
X135516000Y-123434000D02*
X135550000Y-123400000D01*
X133620000Y-123434000D02*
X135516000Y-123434000D01*
X131817300Y-124425300D02*
X122650000Y-124425300D01*
X134636000Y-127244000D02*
X131817300Y-124425300D01*
X134550000Y-136232000D02*
X134636000Y-136146000D01*
X134411000Y-133242000D02*
X134636000Y-133467000D01*
X131950000Y-133242000D02*
X134411000Y-133242000D01*
X134636000Y-136146000D02*
X134636000Y-133467000D01*
X134636000Y-133467000D02*
X134636000Y-127244000D01*
X93924700Y-112250000D02*
X91900000Y-110225300D01*
X91900000Y-110225300D02*
X91850000Y-110225300D01*
X91850000Y-109450000D02*
X91850000Y-110225300D01*
X94587400Y-112250000D02*
X93924700Y-112250000D01*
X94587400Y-112250000D02*
X95250000Y-112250000D01*
X95250000Y-112250000D02*
X96575300Y-112250000D01*
X96575300Y-112250000D02*
X96575300Y-112367400D01*
X96575300Y-112367400D02*
X96870600Y-112662700D01*
X77330000Y-95950000D02*
X77330000Y-97125300D01*
X80345000Y-111765900D02*
X80875600Y-111235300D01*
X95250000Y-114550000D02*
X95250000Y-113474700D01*
X88000000Y-109450000D02*
X90150500Y-109450000D01*
X90150500Y-109450000D02*
X94174700Y-113474700D01*
X94174700Y-113474700D02*
X95250000Y-113474700D01*
X88000000Y-109450000D02*
X88000000Y-108474700D01*
X88000000Y-108474700D02*
X87923900Y-108474700D01*
X87923900Y-108474700D02*
X87179100Y-107730000D01*
X87179100Y-107730000D02*
X84381300Y-107730000D01*
X84381300Y-107730000D02*
X80875700Y-111235400D01*
X80875700Y-111235400D02*
X80875600Y-111235300D01*
X77330000Y-97125300D02*
X77036200Y-97125300D01*
X77036200Y-97125300D02*
X74487100Y-99674400D01*
X74487100Y-99674400D02*
X74389300Y-99674400D01*
X74389300Y-99674400D02*
X72986700Y-101077000D01*
X72986700Y-101077000D02*
X72986700Y-101114700D01*
X72986700Y-101114700D02*
X72986600Y-101114800D01*
X72986600Y-101114800D02*
X72986600Y-101174900D01*
X72986600Y-101174900D02*
X71561400Y-102600100D01*
X71561400Y-102600100D02*
X71561400Y-104021800D01*
X71561400Y-104021800D02*
X71730300Y-104190700D01*
X71730300Y-104190700D02*
X71730300Y-104260900D01*
X71730300Y-104260900D02*
X72111500Y-104642200D01*
X88950000Y-116775300D02*
X93310600Y-121135900D01*
X93310600Y-121135900D02*
X95906200Y-121135900D01*
X88950000Y-114550000D02*
X88950000Y-116775300D01*
X80875600Y-111235300D02*
X80505900Y-110865600D01*
X80505900Y-110865600D02*
X79127000Y-110865600D01*
X79127000Y-110865600D02*
X78048900Y-109787500D01*
X78048900Y-109787500D02*
X71613800Y-109787500D01*
X79848000Y-120958300D02*
X79848000Y-121105600D01*
X80345000Y-120534100D02*
X79920800Y-120958300D01*
X79920800Y-120958300D02*
X79848000Y-120958300D01*
X79848000Y-120958300D02*
X79779200Y-120958300D01*
X79779200Y-120958300D02*
X79355000Y-120534100D01*
X75465900Y-115655000D02*
X74437800Y-115655000D01*
X119525000Y-131325000D02*
X119525000Y-131425000D01*
X109775000Y-135950000D02*
X109775000Y-134600000D01*
X111124979Y-133250021D02*
X111650000Y-133250021D01*
X109775000Y-134600000D02*
X111124979Y-133250021D01*
X131962000Y-131054000D02*
X131950000Y-131042000D01*
X133874000Y-130546000D02*
X133366000Y-131054000D01*
X133824000Y-127467018D02*
X133874000Y-127517018D01*
X133366000Y-131054000D02*
X131962000Y-131054000D01*
X133874000Y-127517018D02*
X133874000Y-130546000D01*
X118553690Y-131656000D02*
X118623000Y-131656000D01*
X118623000Y-131656000D02*
X119523000Y-131656000D01*
X112049999Y-133650020D02*
X116559670Y-133650020D01*
X116559670Y-133650020D02*
X118553690Y-131656000D01*
X111650000Y-133250021D02*
X112049999Y-133650020D01*
X132261971Y-125904989D02*
X133824000Y-127467018D01*
X121855598Y-125904989D02*
X132261971Y-125904989D01*
X119523000Y-131656000D02*
X119523000Y-128237587D01*
X119523000Y-128237587D02*
X121855598Y-125904989D01*
X81991200Y-120991000D02*
X82738800Y-120991000D01*
X82738800Y-120991000D02*
X83284800Y-120445000D01*
X83284800Y-120445000D02*
X83284800Y-119844000D01*
X83284800Y-119844000D02*
X82859900Y-119419000D01*
X82859900Y-119419000D02*
X82765100Y-119419000D01*
X82765100Y-119419000D02*
X82643300Y-119297000D01*
X82643300Y-119297000D02*
X82643400Y-119296900D01*
X82112700Y-118766300D02*
X82643400Y-119296900D01*
X83450000Y-105050000D02*
X83450000Y-106575300D01*
X91700000Y-103524700D02*
X86676200Y-103524700D01*
X86676200Y-103524700D02*
X85525300Y-104675600D01*
X85525300Y-104675600D02*
X85525300Y-105050000D01*
X91700000Y-104475000D02*
X91700000Y-103524700D01*
X83450000Y-105050000D02*
X85525300Y-105050000D01*
X78641300Y-109350000D02*
X79248400Y-108743000D01*
X79248400Y-108743000D02*
X80361300Y-108743000D01*
X80361300Y-108743000D02*
X81128900Y-107975300D01*
X81128900Y-107975300D02*
X81309100Y-107975300D01*
X81309100Y-107975300D02*
X81450600Y-107833800D01*
X81450600Y-107833800D02*
X81886700Y-107833800D01*
X81886700Y-107833800D02*
X82311500Y-107409000D01*
X82311500Y-107409000D02*
X83145100Y-106575300D01*
X83145100Y-106575300D02*
X83450000Y-106575300D01*
X91700000Y-106950000D02*
X89787400Y-106950000D01*
X89787400Y-106950000D02*
X88650000Y-105813000D01*
X88650000Y-105050000D02*
X88650000Y-105813000D01*
X82289900Y-119650400D02*
X82559500Y-119919900D01*
X82559500Y-119919900D02*
X82559500Y-120144000D01*
X81759200Y-119119800D02*
X82289900Y-119650400D01*
X79557700Y-110140300D02*
X79876000Y-109822000D01*
X79876000Y-109822000D02*
X80409100Y-109822000D01*
X80409100Y-109822000D02*
X81946900Y-108284100D01*
X81946900Y-108284100D02*
X82073300Y-108284100D01*
X82073300Y-108284100D02*
X83229300Y-107128100D01*
X83229300Y-107128100D02*
X84390400Y-107128100D01*
X84390400Y-107128100D02*
X84755500Y-106763000D01*
X84755500Y-106763000D02*
X87699800Y-106763000D01*
X87699800Y-106763000D02*
X88650000Y-105813000D01*
X83173400Y-117705600D02*
X83704000Y-118236100D01*
X84363400Y-120193000D02*
X85490900Y-120193000D01*
X85490900Y-120193000D02*
X86248800Y-120950900D01*
X83704000Y-118236100D02*
X83703900Y-118236200D01*
X83703900Y-118236200D02*
X83737700Y-118270000D01*
X83737700Y-118270000D02*
X83773100Y-118270000D01*
X83773100Y-118270000D02*
X84363400Y-118860300D01*
X84363400Y-118860300D02*
X84363400Y-120193000D01*
X84363400Y-120193000D02*
X82870900Y-121685000D01*
X82870900Y-121685000D02*
X82542800Y-122013100D01*
X93950000Y-110225300D02*
X93949700Y-110225300D01*
X93949700Y-110225300D02*
X93658500Y-110517000D01*
X93950000Y-109450000D02*
X93950000Y-110225300D01*
X124810000Y-95950000D02*
X123634700Y-95950000D01*
X123634700Y-95950000D02*
X123634700Y-96793900D01*
X123634700Y-96793900D02*
X123635000Y-96794200D01*
X123635000Y-96794200D02*
X121000000Y-99428900D01*
X121000000Y-99428900D02*
X121000000Y-100250000D01*
X121000000Y-100250000D02*
X115706200Y-105543800D01*
X115706200Y-105543800D02*
X112384400Y-105543800D01*
X112384400Y-105543800D02*
X111848000Y-106080200D01*
X111848000Y-106080200D02*
X108326900Y-106080200D01*
X108326900Y-106080200D02*
X108272100Y-106135000D01*
X108272100Y-106135000D02*
X107608200Y-106135000D01*
X107608200Y-106135000D02*
X107551500Y-106191700D01*
X107551500Y-106191700D02*
X101856700Y-106191700D01*
X101856700Y-106191700D02*
X101847800Y-106200600D01*
X101847800Y-106200600D02*
X101730800Y-106200600D01*
X101730800Y-106200600D02*
X101701400Y-106230000D01*
X101701400Y-106230000D02*
X100409700Y-106230000D01*
X100409700Y-106230000D02*
X97189600Y-109450000D01*
X97189600Y-109450000D02*
X93950000Y-109450000D01*
X86375300Y-109450000D02*
X86375300Y-108820600D01*
X86375300Y-108820600D02*
X86669700Y-108526200D01*
X85300000Y-109450000D02*
X86375300Y-109450000D01*
X99309800Y-124853100D02*
X101668000Y-127211300D01*
X101668000Y-127211300D02*
X101668000Y-129112900D01*
X101668000Y-129112900D02*
X98053600Y-132727300D01*
X98053600Y-132727300D02*
X94660800Y-132727300D01*
X71328200Y-120682557D02*
X85655716Y-135010074D01*
X77940800Y-113180200D02*
X76835600Y-112075000D01*
X76835600Y-112075000D02*
X73973200Y-112075000D01*
X73973200Y-112075000D02*
X71328200Y-114720000D01*
X71328200Y-114720000D02*
X71328200Y-120682557D01*
X85655716Y-135010074D02*
X86044626Y-135010074D01*
X108505000Y-134524700D02*
X108505000Y-135950000D01*
X105849700Y-134524700D02*
X108505000Y-134524700D01*
X101668000Y-130343000D02*
X105849700Y-134524700D01*
X101668000Y-129112900D02*
X101668000Y-130343000D01*
X109775000Y-126750000D02*
X109775000Y-125324700D01*
X81977800Y-124218000D02*
X81893000Y-124218000D01*
X81893000Y-124218000D02*
X78117300Y-120442300D01*
X78117300Y-120442300D02*
X78117300Y-120357600D01*
X78647900Y-119827000D02*
X78117300Y-120357600D01*
X77330000Y-99850000D02*
X76154700Y-99850000D01*
X76154700Y-99850000D02*
X75842400Y-100162300D01*
X75842400Y-100162300D02*
X74575900Y-100162300D01*
X74575900Y-100162300D02*
X74575900Y-100162400D01*
X74575900Y-100162400D02*
X73436900Y-101301400D01*
X73436900Y-101301400D02*
X73436900Y-101526500D01*
X73436900Y-101526500D02*
X72011800Y-102951600D01*
X72011800Y-102951600D02*
X72011800Y-103835300D01*
X72011800Y-103835300D02*
X72465100Y-104288600D01*
X109775000Y-125324700D02*
X109704600Y-125324700D01*
X109704600Y-125324700D02*
X109404900Y-125025000D01*
X117434200Y-112513400D02*
X114505700Y-115441900D01*
X114505700Y-115441900D02*
X114505700Y-119508200D01*
X114505700Y-119508200D02*
X109404900Y-124609000D01*
X109404900Y-124609000D02*
X109404900Y-125025000D01*
X98840300Y-106213600D02*
X101257000Y-103796900D01*
X101257000Y-103796900D02*
X112015000Y-103796900D01*
X112015000Y-103796900D02*
X113088900Y-102723000D01*
X89110000Y-128280000D02*
X89910000Y-129080000D01*
X91569000Y-130765400D02*
X94263060Y-133459460D01*
X89910000Y-129080000D02*
X90813300Y-129080000D01*
X94263060Y-133459460D02*
X103759138Y-133459460D01*
X90813300Y-129080000D02*
X91569000Y-129835700D01*
X89110000Y-127346100D02*
X89110000Y-128280000D01*
X103759138Y-133459460D02*
X104046639Y-133746961D01*
X85981900Y-124218000D02*
X89110000Y-127346100D01*
X91569000Y-129835700D02*
X91569000Y-130765400D01*
X81977800Y-124218000D02*
X85981900Y-124218000D01*
X113492500Y-109791000D02*
X113492500Y-119884500D01*
X113492500Y-119884500D02*
X108505000Y-124872000D01*
X108505000Y-124872000D02*
X108505000Y-126750000D01*
X113492500Y-109791000D02*
X104273500Y-109791000D01*
X104273500Y-109791000D02*
X102431100Y-107948600D01*
X108505000Y-126750000D02*
X108505000Y-128175300D01*
X108505000Y-128175300D02*
X107709000Y-128175300D01*
X107709000Y-128175300D02*
X107586300Y-128052600D01*
X113492500Y-109791000D02*
X119679900Y-109791000D01*
X78694700Y-99850000D02*
X78694700Y-100658100D01*
X78694700Y-100658100D02*
X78327500Y-101025300D01*
X78327500Y-101025300D02*
X74362500Y-101025300D01*
X74362500Y-101025300D02*
X73912500Y-101475300D01*
X73912500Y-101475300D02*
X73912500Y-101742600D01*
X73912500Y-101742600D02*
X72462200Y-103192900D01*
X72462200Y-103192900D02*
X72462200Y-103578700D01*
X72462200Y-103578700D02*
X72818600Y-103935100D01*
X79870000Y-99850000D02*
X78694700Y-99850000D01*
X84100000Y-127022000D02*
X84100000Y-127022100D01*
X83447000Y-127022000D02*
X84100000Y-127022000D01*
X77656200Y-120111600D02*
X77656200Y-121231200D01*
X78294400Y-119473400D02*
X77656200Y-120111600D01*
X77656200Y-121231200D02*
X83447000Y-127022000D01*
X89029000Y-129339500D02*
X89029000Y-130729400D01*
X89029000Y-130729400D02*
X92220800Y-133921200D01*
X92220800Y-133921200D02*
X103147874Y-133921200D01*
X104107384Y-134880710D02*
X105180390Y-134880710D01*
X103147874Y-133921200D02*
X104107384Y-134880710D01*
X86157600Y-129079700D02*
X88769200Y-129079700D01*
X84100000Y-127022100D02*
X86157600Y-129079700D01*
X88769200Y-129079700D02*
X89029000Y-129339500D01*
X78694700Y-95950000D02*
X78694700Y-96764600D01*
X78694700Y-96764600D02*
X77240200Y-98219100D01*
X77240200Y-98219100D02*
X77023800Y-98219100D01*
X76173000Y-114947900D02*
X75642400Y-114417300D01*
X79870000Y-95950000D02*
X78694700Y-95950000D01*
X75642400Y-114417300D02*
X75371500Y-114688200D01*
X75371500Y-114688200D02*
X74979500Y-114688200D01*
X75465900Y-116645000D02*
X74788400Y-116645000D01*
X74788400Y-116645000D02*
X73474800Y-117958600D01*
X76340615Y-94774600D02*
X75008822Y-96106393D01*
X75008822Y-97672078D02*
X74180900Y-98500000D01*
X81234600Y-94774600D02*
X76340615Y-94774600D01*
X82410000Y-95950000D02*
X81234600Y-94774600D01*
X75008822Y-96106393D02*
X75008822Y-97672078D01*
X82466300Y-113887300D02*
X82997000Y-113356600D01*
X112729000Y-119404000D02*
X112329000Y-119803000D01*
X112329000Y-119803000D02*
X108336100Y-123796800D01*
X108336100Y-123796800D02*
X105471800Y-123796800D01*
X105471800Y-123796800D02*
X100926000Y-119251000D01*
X100926000Y-119251000D02*
X96519900Y-119251000D01*
X96519900Y-119251000D02*
X96500100Y-119231200D01*
X96500100Y-119231200D02*
X95152800Y-119231200D01*
X95152800Y-119231200D02*
X95133000Y-119251000D01*
X95133000Y-119251000D02*
X94133500Y-119251000D01*
X94133500Y-119251000D02*
X91950200Y-117067000D01*
X91950200Y-117067000D02*
X91950200Y-113504000D01*
X91950200Y-113504000D02*
X90293300Y-111847000D01*
X90293300Y-111847000D02*
X87082500Y-111847000D01*
X87082500Y-111847000D02*
X86366900Y-112562000D01*
X86366900Y-112562000D02*
X83791400Y-112562000D01*
X83791400Y-112562000D02*
X82996900Y-113356600D01*
X82996900Y-113356600D02*
X82997000Y-113356600D01*
X125108000Y-120429685D02*
X125108000Y-119864000D01*
X127153325Y-122475010D02*
X125108000Y-120429685D01*
X130629010Y-122475010D02*
X127153325Y-122475010D01*
X136033000Y-133975000D02*
X135144000Y-133086000D01*
X127350000Y-138213000D02*
X128286000Y-137277000D01*
X135144000Y-133086000D02*
X135144000Y-126990000D01*
X127350000Y-140450000D02*
X127350000Y-138213000D01*
X135144000Y-126990000D02*
X130629010Y-122475010D01*
X135652000Y-137277000D02*
X136033000Y-136896000D01*
X128286000Y-137277000D02*
X135652000Y-137277000D01*
X136033000Y-136896000D02*
X136033000Y-133975000D01*
X82112700Y-113533700D02*
X82960900Y-112685500D01*
X82960900Y-112685500D02*
X82961000Y-112685500D01*
X82961000Y-112685500D02*
X83809200Y-111837000D01*
X83809200Y-111837000D02*
X85937100Y-111837000D01*
X118021000Y-97950600D02*
X117297000Y-98674600D01*
X117297000Y-98674600D02*
X114095000Y-98674600D01*
X114095000Y-98674600D02*
X113380000Y-99389200D01*
X113380000Y-99389200D02*
X113380000Y-100242000D01*
X113380000Y-100242000D02*
X110847500Y-102775400D01*
X110847500Y-102775400D02*
X110210800Y-102775400D01*
X110210800Y-102775400D02*
X109892200Y-103094000D01*
X109892200Y-103094000D02*
X100652000Y-103094000D01*
X100652000Y-103094000D02*
X98161900Y-105583800D01*
X98161900Y-105583800D02*
X97673100Y-105583800D01*
X97673100Y-105583800D02*
X97394900Y-105862000D01*
X97394900Y-105862000D02*
X95368800Y-105862000D01*
X105825500Y-123025500D02*
X101580900Y-118780900D01*
X101580900Y-118780900D02*
X94346200Y-118780900D01*
X94346200Y-118780900D02*
X94327100Y-118800000D01*
X94327100Y-118800000D02*
X92437300Y-116910000D01*
X92437300Y-116910000D02*
X92437300Y-113346000D01*
X92437300Y-113346000D02*
X90173500Y-111082000D01*
X90173500Y-111082000D02*
X83857400Y-111082000D01*
X83857400Y-111082000D02*
X82808300Y-112131000D01*
X82808300Y-112131000D02*
X82808300Y-112131100D01*
X82808300Y-112131100D02*
X81759200Y-113180200D01*
X116025100Y-132075000D02*
X105900000Y-132075000D01*
X117665800Y-130434300D02*
X116025100Y-132075000D01*
X105900000Y-132075000D02*
X103850000Y-130025000D01*
X102100500Y-137237900D02*
X102284600Y-137053800D01*
X109150000Y-134527000D02*
X111151989Y-132525011D01*
X91761500Y-137237900D02*
X102100500Y-137237900D01*
X103253800Y-137422100D02*
X108902900Y-137422100D01*
X115992319Y-132525011D02*
X116013521Y-132546213D01*
X74868700Y-118656500D02*
X74868700Y-122262166D01*
X109150000Y-137175000D02*
X109150000Y-134527000D01*
X102885500Y-137053800D02*
X103253800Y-137422100D01*
X74868700Y-122262166D02*
X85991585Y-133385051D01*
X111151989Y-132525011D02*
X115992319Y-132525011D01*
X102284600Y-137053800D02*
X102885500Y-137053800D01*
X85991585Y-133385051D02*
X87908651Y-133385051D01*
X108902900Y-137422100D02*
X109150000Y-137175000D01*
X75642400Y-117882700D02*
X74868700Y-118656500D01*
X87908651Y-133385051D02*
X91761500Y-137237900D01*
X76173000Y-117352100D02*
X75642400Y-117882700D01*
X116013521Y-132546213D02*
X116579206Y-132546213D01*
X88490840Y-132935040D02*
X86177985Y-132935040D01*
X86177985Y-132935040D02*
X75346300Y-122103355D01*
X75346300Y-122103355D02*
X75346300Y-118885900D01*
X75346300Y-118885900D02*
X76526600Y-117705600D01*
X91990800Y-136435000D02*
X88490840Y-132935040D01*
X88821529Y-132485029D02*
X86364385Y-132485029D01*
X86364385Y-132485029D02*
X75805700Y-121926344D01*
X75805700Y-121926344D02*
X75805700Y-119133700D01*
X92756400Y-136175000D02*
X92291400Y-135710000D01*
X107605000Y-136175000D02*
X92756400Y-136175000D01*
X92291400Y-135710000D02*
X92046500Y-135710000D01*
X92046500Y-135710000D02*
X88821529Y-132485029D01*
X75805700Y-119133700D02*
X76880200Y-118059200D01*
X105632603Y-135605712D02*
X105790315Y-135448000D01*
X76306167Y-119340233D02*
X76306167Y-121790400D01*
X92666100Y-135448000D02*
X104674676Y-135448000D01*
X104832388Y-135605712D02*
X105632603Y-135605712D01*
X104674676Y-135448000D02*
X104832388Y-135605712D01*
X105790315Y-135448000D02*
X106356000Y-135448000D01*
X86550785Y-132035018D02*
X89008218Y-132035018D01*
X92478100Y-135260000D02*
X92666100Y-135448000D01*
X92233200Y-135260000D02*
X92478100Y-135260000D01*
X89008218Y-132035018D02*
X92233200Y-135260000D01*
X77233700Y-118412700D02*
X76306167Y-119340233D01*
X76306167Y-121790400D02*
X86550785Y-132035018D01*
X86694178Y-131542000D02*
X89204700Y-131542000D01*
X92353700Y-134691000D02*
X102864000Y-134691000D01*
X89204700Y-131542000D02*
X92353700Y-134691000D01*
X76756178Y-121604000D02*
X86694178Y-131542000D01*
X76756178Y-119597422D02*
X76756178Y-121604000D01*
X77587300Y-118766300D02*
X76756178Y-119597422D01*
X107091800Y-121766800D02*
X103364000Y-118039000D01*
X103364000Y-118039000D02*
X94203100Y-118039000D01*
X94203100Y-118039000D02*
X93682600Y-117519000D01*
X93682600Y-117519000D02*
X93682600Y-113930000D01*
X93682600Y-113930000D02*
X90384200Y-110632000D01*
X90384200Y-110632000D02*
X83600200Y-110632000D01*
X83600200Y-110632000D02*
X81405600Y-112826600D01*
X81582700Y-111942400D02*
X83778400Y-109746900D01*
X83778400Y-109746900D02*
X83778400Y-109695000D01*
X81052100Y-112473000D02*
X81582700Y-111942400D01*
X90681600Y-117152000D02*
X93700900Y-120171000D01*
X93700900Y-120171000D02*
X96290400Y-120171000D01*
X96290400Y-120171000D02*
X103703991Y-127584591D01*
X90681600Y-113899000D02*
X90681600Y-117152000D01*
X104092411Y-127584591D02*
X104492410Y-127984590D01*
X103703991Y-127584591D02*
X104092411Y-127584591D01*
X96870000Y-140450000D02*
X98045300Y-140450000D01*
X98045300Y-140450000D02*
X98045300Y-140082600D01*
X98045300Y-140082600D02*
X98853200Y-139274700D01*
X98853200Y-139274700D02*
X115943200Y-139274700D01*
X115943200Y-139274700D02*
X119525000Y-135692900D01*
X73195500Y-110262400D02*
X69504700Y-113953200D01*
X69504700Y-113953200D02*
X69504700Y-121404700D01*
X79355000Y-111765900D02*
X77851500Y-110262400D01*
X77851500Y-110262400D02*
X73195500Y-110262400D01*
X84981900Y-136881900D02*
X84981900Y-137460800D01*
X69504700Y-121404700D02*
X84981900Y-136881900D01*
X119523000Y-135690900D02*
X119523000Y-134356000D01*
X119525000Y-135692900D02*
X119523000Y-135690900D01*
X130668000Y-128842000D02*
X131350000Y-128842000D01*
X125916000Y-133594000D02*
X130668000Y-128842000D01*
X120502998Y-133594000D02*
X125916000Y-133594000D01*
X119523000Y-134356000D02*
X119740998Y-134356000D01*
X119740998Y-134356000D02*
X120502998Y-133594000D01*
X69955000Y-114139800D02*
X73382100Y-110712700D01*
X86659700Y-138509500D02*
X86659700Y-137923290D01*
X86659700Y-137923290D02*
X69955000Y-121218590D01*
X73382100Y-110712700D02*
X77594700Y-110712700D01*
X77594700Y-110712700D02*
X79001500Y-112119500D01*
X69955000Y-121218590D02*
X69955000Y-114139800D01*
X130742588Y-132142000D02*
X131750000Y-132142000D01*
X126959587Y-135925001D02*
X130742588Y-132142000D01*
X119975997Y-135925001D02*
X126959587Y-135925001D01*
X116000000Y-139900998D02*
X119975997Y-135925001D01*
X116000000Y-140769000D02*
X116000000Y-139900998D01*
X95505300Y-140450000D02*
X95505300Y-140817300D01*
X94330000Y-140450000D02*
X95505300Y-140450000D01*
X96320000Y-141632000D02*
X115137000Y-141632000D01*
X95505300Y-140817300D02*
X96320000Y-141632000D01*
X115137000Y-141632000D02*
X116000000Y-140769000D01*
X70424300Y-114350100D02*
X73605600Y-111168800D01*
X91790000Y-140450000D02*
X90614700Y-141625300D01*
X90614700Y-141625300D02*
X88746800Y-141625300D01*
X88746800Y-141625300D02*
X87385000Y-140263500D01*
X87385000Y-140263500D02*
X87385000Y-138012179D01*
X77343700Y-111168800D02*
X78647900Y-112473000D01*
X73605600Y-111168800D02*
X77343700Y-111168800D01*
X70424300Y-121051479D02*
X70424300Y-114350100D01*
X87385000Y-138012179D02*
X70424300Y-121051479D01*
X123460000Y-140060998D02*
X129178998Y-134342000D01*
X123460000Y-141214000D02*
X123460000Y-140060998D01*
X92965300Y-140450000D02*
X92965300Y-140817300D01*
X129178998Y-134342000D02*
X131750000Y-134342000D01*
X91790000Y-140450000D02*
X92965300Y-140450000D01*
X92965300Y-140817300D02*
X94237700Y-142089700D01*
X122584300Y-142089700D02*
X123460000Y-141214000D01*
X94237700Y-142089700D02*
X122584300Y-142089700D01*
X89250000Y-140450000D02*
X89250000Y-138664400D01*
X70874700Y-114536600D02*
X73786600Y-111624700D01*
X88673632Y-138664400D02*
X70874700Y-120865468D01*
X70874700Y-120865468D02*
X70874700Y-114536600D01*
X77092500Y-111624700D02*
X78294400Y-112826600D01*
X73786600Y-111624700D02*
X77092500Y-111624700D01*
X89250000Y-138664400D02*
X88673632Y-138664400D01*
X120539000Y-133086000D02*
X120539000Y-130324002D01*
X111670400Y-137216000D02*
X111670400Y-134692800D01*
X132750000Y-129942000D02*
X131750000Y-129942000D01*
X112178900Y-134184300D02*
X116661800Y-134184300D01*
X116661800Y-134184300D02*
X117760100Y-133086000D01*
X120374999Y-128021999D02*
X120439999Y-127956999D01*
X122359998Y-126355000D02*
X132075572Y-126355000D01*
X133099000Y-129593000D02*
X132750000Y-129942000D01*
X111670400Y-134692800D02*
X112178900Y-134184300D01*
X133099000Y-127378428D02*
X133099000Y-129593000D01*
X120539000Y-130324002D02*
X120374999Y-130160001D01*
X89250000Y-138664400D02*
X110222000Y-138664400D01*
X110222000Y-138664400D02*
X111670400Y-137216000D01*
X120757999Y-127956999D02*
X122359998Y-126355000D01*
X132075572Y-126355000D02*
X133099000Y-127378428D01*
X120374999Y-130160001D02*
X120374999Y-128021999D01*
X120439999Y-127956999D02*
X120757999Y-127956999D01*
X117760100Y-133086000D02*
X120539000Y-133086000D01*
X75819500Y-116998500D02*
X75289000Y-117529000D01*
X75289000Y-117529000D02*
X74952700Y-117529000D01*
X74952700Y-117529000D02*
X74925500Y-117556200D01*
X84222700Y-97863200D02*
X83585400Y-98500500D01*
X83585400Y-98500500D02*
X83585400Y-100357300D01*
X83585400Y-100357300D02*
X82886100Y-101056600D01*
X82886100Y-101056600D02*
X79651300Y-101056600D01*
X79651300Y-101056600D02*
X78932300Y-101775600D01*
X78932300Y-101775600D02*
X74637900Y-101775600D01*
X73404400Y-116856600D02*
X73404400Y-115213100D01*
X73404400Y-115213100D02*
X74659700Y-113957800D01*
X74659700Y-113957800D02*
X75890000Y-113957800D01*
X75890000Y-113957800D02*
X76526600Y-114594400D01*
X71301400Y-124925000D02*
X74380400Y-128004000D01*
X74380400Y-128004000D02*
X74499300Y-128004000D01*
X72960800Y-119046100D02*
X72679100Y-118764400D01*
X72679100Y-118764400D02*
X72679100Y-115279800D01*
X72679100Y-115279800D02*
X74483600Y-113475300D01*
X74483600Y-113475300D02*
X76114700Y-113475300D01*
X76114700Y-113475300D02*
X76880200Y-114240800D01*
X101950000Y-99850000D02*
X103715000Y-98085000D01*
X103715000Y-98085000D02*
X104036000Y-98085000D01*
X104036000Y-98085000D02*
X105684000Y-96436600D01*
X105684000Y-96436600D02*
X105684000Y-95592400D01*
X105684000Y-95592400D02*
X107028000Y-94248100D01*
X107028000Y-94248100D02*
X124799000Y-94248100D01*
X124799000Y-94248100D02*
X126128000Y-95576800D01*
X126128000Y-95576800D02*
X126128000Y-96897800D01*
X126128000Y-96897800D02*
X127392000Y-98162000D01*
X127392000Y-98162000D02*
X127830000Y-98162000D01*
X127830000Y-98162000D02*
X128547000Y-98879200D01*
X128547000Y-98879200D02*
X128547000Y-100928000D01*
X128547000Y-100928000D02*
X127875000Y-101600000D01*
X127875000Y-101600000D02*
X127325000Y-101600000D01*
X72228800Y-120272300D02*
X72228800Y-115093200D01*
X74346400Y-112975600D02*
X76322000Y-112975600D01*
X72228800Y-115093200D02*
X74346400Y-112975600D01*
X76322000Y-112975600D02*
X77233700Y-113887300D01*
X85791562Y-133835062D02*
X72228800Y-120272300D01*
X87329862Y-133835062D02*
X85791562Y-133835062D01*
X88971500Y-135476700D02*
X87329862Y-133835062D01*
X107271900Y-128783000D02*
X104982440Y-126493540D01*
X109649200Y-128783000D02*
X107271900Y-128783000D01*
X118287800Y-108396700D02*
X118944400Y-109053300D01*
X104982440Y-126493540D02*
X103638260Y-126493540D01*
X110400300Y-128031900D02*
X109649200Y-128783000D01*
X115650600Y-115322800D02*
X115650600Y-119305700D01*
X120424600Y-109482500D02*
X120424600Y-110548800D01*
X119995400Y-109053300D02*
X120424600Y-109482500D01*
X118944400Y-109053300D02*
X119995400Y-109053300D01*
X124521700Y-101600000D02*
X118287800Y-107833900D01*
X118287800Y-107833900D02*
X118287800Y-108396700D01*
X115650600Y-119305700D02*
X110400300Y-124556000D01*
X127325000Y-101600000D02*
X124521700Y-101600000D01*
X120424600Y-110548800D02*
X115650600Y-115322800D01*
X110400300Y-124556000D02*
X110400300Y-128031900D01*
X71778500Y-120458900D02*
X71778500Y-114906600D01*
X102585000Y-137779100D02*
X89886654Y-137779100D01*
X76578900Y-112525300D02*
X77587300Y-113533700D01*
X74159800Y-112525300D02*
X76578900Y-112525300D01*
X89886654Y-137779100D02*
X86392627Y-134285073D01*
X85604673Y-134285073D02*
X71778500Y-120458900D01*
X86392627Y-134285073D02*
X85604673Y-134285073D01*
X71778500Y-114906600D02*
X74159800Y-112525300D01*
X95339400Y-119681500D02*
X96313500Y-119681500D01*
X87793500Y-112302000D02*
X90111600Y-112302000D01*
X91472500Y-113663000D02*
X91472500Y-117306000D01*
X91472500Y-117306000D02*
X93887500Y-119721000D01*
X83992300Y-113068000D02*
X87027200Y-113068000D01*
X93887500Y-119721000D02*
X95299900Y-119721000D01*
X83406000Y-113654600D02*
X83992300Y-113068000D01*
X90111600Y-112302000D02*
X91472500Y-113663000D01*
X96865720Y-119721000D02*
X101409360Y-124264640D01*
X87027200Y-113068000D02*
X87793500Y-112302000D01*
X95299900Y-119721000D02*
X95339400Y-119681500D01*
X96353000Y-119721000D02*
X96865720Y-119721000D01*
X82819800Y-114240800D02*
X83406000Y-113654600D01*
X96313500Y-119681500D02*
X96353000Y-119721000D01*
X94768012Y-122222011D02*
X99694600Y-127148000D01*
X86371400Y-116010000D02*
X92033359Y-121672232D01*
X83959100Y-113809000D02*
X84807900Y-113809000D01*
X84807900Y-113809000D02*
X86371400Y-115373000D01*
X83173400Y-114594400D02*
X83704000Y-114063800D01*
X96280400Y-130350000D02*
X95460000Y-130350000D01*
X99694600Y-130388000D02*
X98544200Y-131539000D01*
X99694600Y-127148000D02*
X99694600Y-130388000D01*
X86371400Y-115373000D02*
X86371400Y-116010000D01*
X83704100Y-114064000D02*
X83959100Y-113809000D01*
X83704000Y-114063800D02*
X83704100Y-114064000D01*
X97469400Y-131539000D02*
X96280400Y-130350000D01*
X98544200Y-131539000D02*
X97469400Y-131539000D01*
X92583112Y-122222011D02*
X94768012Y-122222011D01*
X92319489Y-121958388D02*
X92583112Y-122222011D01*
X92033359Y-121672232D02*
X92319489Y-121958388D01*
X83527000Y-114947900D02*
X84185900Y-114289000D01*
X94581123Y-122672022D02*
X99211600Y-127302000D01*
X84185900Y-114289000D02*
X84650900Y-114289000D01*
X85470700Y-115109000D02*
X85470700Y-115746000D01*
X94109000Y-129161000D02*
X92920000Y-130350000D01*
X84650900Y-114289000D02*
X85470700Y-115109000D01*
X99211600Y-127302000D02*
X99211600Y-128284000D01*
X99211600Y-128284000D02*
X98334500Y-129161000D01*
X92396722Y-122672022D02*
X94581123Y-122672022D01*
X98334500Y-129161000D02*
X94109000Y-129161000D01*
X85470700Y-115746000D02*
X92396722Y-122672022D01*
X83880500Y-115301500D02*
X84411100Y-114770900D01*
X84411100Y-114770900D02*
X84411100Y-114771000D01*
X84411100Y-114771000D02*
X85020400Y-115380000D01*
X85020400Y-115380000D02*
X85020400Y-115935100D01*
X85020400Y-115935100D02*
X92528700Y-123443000D01*
X92528700Y-123443000D02*
X93825700Y-123443000D01*
X93825700Y-123443000D02*
X96705900Y-126323000D01*
X96705900Y-126323000D02*
X96710900Y-126323000D01*
X119730000Y-99850000D02*
X118554700Y-99850000D01*
X96811100Y-127810000D02*
X96811100Y-127449100D01*
X96811100Y-127449100D02*
X94778500Y-125416500D01*
X94778500Y-125416500D02*
X93863400Y-125416500D01*
X93863400Y-125416500D02*
X84234100Y-115787200D01*
X84234100Y-115787200D02*
X84234100Y-115655000D01*
X98000000Y-127810000D02*
X96811100Y-127810000D01*
X118554700Y-99850000D02*
X118554700Y-100217300D01*
X118554700Y-100217300D02*
X113678500Y-105093500D01*
X113678500Y-105093500D02*
X106927600Y-105093500D01*
X95460000Y-127810000D02*
X94271100Y-127810000D01*
X94271100Y-127810000D02*
X94271100Y-126673600D01*
X94271100Y-126673600D02*
X84773100Y-117175600D01*
X84773100Y-117175600D02*
X84764700Y-117175600D01*
X84234100Y-116645000D02*
X84764700Y-117175600D01*
X122270000Y-99850000D02*
X115534700Y-106585300D01*
X115534700Y-106585300D02*
X108579200Y-106585300D01*
X108579200Y-106585300D02*
X108522500Y-106642000D01*
X108522500Y-106642000D02*
X102043300Y-106642000D01*
X102043300Y-106642000D02*
X97136100Y-111549200D01*
X97136100Y-111549200D02*
X97136100Y-111599300D01*
X124810000Y-99850000D02*
X123634700Y-99850000D01*
X83880500Y-116998500D02*
X84411100Y-117529000D01*
X92920000Y-127810000D02*
X92920000Y-126031100D01*
X92920000Y-126031100D02*
X87424400Y-120535100D01*
X87424400Y-120535100D02*
X87424400Y-120463800D01*
X87424400Y-120463800D02*
X86735900Y-119775300D01*
X86735900Y-119775300D02*
X86664600Y-119775300D01*
X86664600Y-119775300D02*
X84744500Y-117855100D01*
X84744500Y-117855100D02*
X84744500Y-117862500D01*
X84744500Y-117862500D02*
X84411000Y-117529100D01*
X84411000Y-117529100D02*
X84411100Y-117529000D01*
X123634700Y-99850000D02*
X123634700Y-100217300D01*
X123634700Y-100217300D02*
X116507000Y-107345000D01*
X116507000Y-107345000D02*
X109179000Y-107345000D01*
X90380000Y-127810000D02*
X90380000Y-124128000D01*
X90380000Y-124128000D02*
X86974100Y-120721900D01*
X86974100Y-120721900D02*
X86974100Y-120650400D01*
X86974100Y-120650400D02*
X86549300Y-120225600D01*
X86549300Y-120225600D02*
X86477800Y-120225600D01*
X86477800Y-120225600D02*
X84557700Y-118305400D01*
X84557700Y-118305400D02*
X84480300Y-118305400D01*
X84480300Y-118305400D02*
X83527000Y-117352100D01*
X127350000Y-99850000D02*
X126174700Y-99850000D01*
X126174700Y-99850000D02*
X126174700Y-100217400D01*
X126174700Y-100217400D02*
X125366800Y-101025300D01*
X125366800Y-101025300D02*
X123463600Y-101025300D01*
X123463600Y-101025300D02*
X116412800Y-108076100D01*
X116412800Y-108076100D02*
X103814600Y-108076100D01*
X103814600Y-108076100D02*
X102953800Y-107215300D01*
X102953800Y-107215300D02*
X102106900Y-107215300D01*
X102106900Y-107215300D02*
X100065100Y-109257100D01*
X100065100Y-109257100D02*
X100065100Y-111160200D01*
X73172200Y-106710500D02*
X74953600Y-108491900D01*
X74953600Y-108491900D02*
X77223600Y-108491900D01*
X77223600Y-108491900D02*
X78465500Y-107250000D01*
X78465500Y-107250000D02*
X81008600Y-107250000D01*
X119730000Y-95950000D02*
X118554700Y-95950000D01*
X118554700Y-95950000D02*
X118554700Y-96247600D01*
X118554700Y-96247600D02*
X116578100Y-98224200D01*
X116578100Y-98224200D02*
X109443200Y-98224200D01*
X109443200Y-98224200D02*
X108300000Y-99367400D01*
X108300000Y-99367400D02*
X108300000Y-100258300D01*
X108300000Y-100258300D02*
X105914700Y-102643600D01*
X105914700Y-102643600D02*
X99021600Y-102643600D01*
X99021600Y-102643600D02*
X97194200Y-104471000D01*
X97194200Y-104471000D02*
X95560500Y-104471000D01*
X117190000Y-95950000D02*
X116014700Y-95950000D01*
X74179800Y-106710500D02*
X74179800Y-106893000D01*
X74179800Y-106893000D02*
X75324700Y-108038000D01*
X75324700Y-108038000D02*
X76568300Y-108038000D01*
X76568300Y-108038000D02*
X77090300Y-107516000D01*
X77090300Y-107516000D02*
X77562100Y-107516000D01*
X77562100Y-107516000D02*
X81576600Y-103502000D01*
X81576600Y-103502000D02*
X86031100Y-103502000D01*
X86031100Y-103502000D02*
X86084100Y-103448900D01*
X86084100Y-103448900D02*
X86459000Y-103074000D01*
X86459000Y-103074000D02*
X92349800Y-103074000D01*
X92349800Y-103074000D02*
X93006900Y-102416900D01*
X93006900Y-102416900D02*
X93113200Y-102416900D01*
X93113200Y-102416900D02*
X93349700Y-102180400D01*
X93349700Y-102180400D02*
X93803800Y-102180400D01*
X93803800Y-102180400D02*
X94283300Y-101701000D01*
X94283300Y-101701000D02*
X97384900Y-101701000D01*
X97384900Y-101701000D02*
X97953600Y-101132000D01*
X97953600Y-101132000D02*
X102334000Y-101132000D01*
X102334000Y-101132000D02*
X103315000Y-100151000D01*
X103315000Y-100151000D02*
X103315000Y-99363100D01*
X103315000Y-99363100D02*
X104003000Y-98674700D01*
X104003000Y-98674700D02*
X105906200Y-98674700D01*
X105906200Y-98674700D02*
X106356500Y-98224400D01*
X106356500Y-98224400D02*
X106414200Y-98224400D01*
X106414200Y-98224400D02*
X106414300Y-98224300D01*
X106414300Y-98224300D02*
X106471500Y-98224300D01*
X106471500Y-98224300D02*
X108395000Y-96301400D01*
X108395000Y-96301400D02*
X108395000Y-95463100D01*
X108395000Y-95463100D02*
X109141000Y-94717100D01*
X109141000Y-94717100D02*
X115148800Y-94717100D01*
X115148800Y-94717100D02*
X116014700Y-95582600D01*
X116014700Y-95582600D02*
X116014700Y-95950000D01*
X114650000Y-95950000D02*
X113474700Y-95950000D01*
X74886900Y-106003400D02*
X75395300Y-106511800D01*
X75395300Y-106511800D02*
X75962200Y-106511800D01*
X75962200Y-106511800D02*
X76325400Y-106875000D01*
X76325400Y-106875000D02*
X76972600Y-106875000D01*
X76972600Y-106875000D02*
X77747700Y-106099900D01*
X77747700Y-106099900D02*
X77747700Y-105169600D01*
X113474700Y-95950000D02*
X113474700Y-96336000D01*
X113474700Y-96336000D02*
X112685300Y-97125400D01*
X112685300Y-97125400D02*
X108233800Y-97125400D01*
X108233800Y-97125400D02*
X106684500Y-98674700D01*
X106684500Y-98674700D02*
X106543100Y-98674700D01*
X106543100Y-98674700D02*
X105760000Y-99457800D01*
X105760000Y-99457800D02*
X105760000Y-100350000D01*
X105760000Y-100350000D02*
X104097300Y-102012700D01*
X104097300Y-102012700D02*
X98022500Y-102012700D01*
X98022500Y-102012700D02*
X96680100Y-103355100D01*
X96680100Y-103355100D02*
X93094400Y-103355100D01*
X101950000Y-95950000D02*
X100774700Y-95950000D01*
X100774700Y-95950000D02*
X100774700Y-96811900D01*
X100774700Y-96811900D02*
X100775000Y-96812200D01*
X100775000Y-96812200D02*
X98140000Y-99446900D01*
X98140000Y-99446900D02*
X98140000Y-100273000D01*
X98140000Y-100273000D02*
X97162600Y-101251000D01*
X97162600Y-101251000D02*
X94096700Y-101251000D01*
X94096700Y-101251000D02*
X93617500Y-101730100D01*
X93617500Y-101730100D02*
X93163100Y-101730100D01*
X93163100Y-101730100D02*
X92926600Y-101966600D01*
X92926600Y-101966600D02*
X92820300Y-101966600D01*
X92820300Y-101966600D02*
X92185900Y-102601000D01*
X92185900Y-102601000D02*
X86293000Y-102601000D01*
X86293000Y-102601000D02*
X86270000Y-102624000D01*
X86270000Y-102624000D02*
X86229000Y-102624000D01*
X86229000Y-102624000D02*
X85802000Y-103051000D01*
X85802000Y-103051000D02*
X81383400Y-103051000D01*
X81383400Y-103051000D02*
X80016400Y-104418200D01*
X80016400Y-104418200D02*
X77372700Y-104418200D01*
X77372700Y-104418200D02*
X77148900Y-104642000D01*
X77148900Y-104642000D02*
X75240700Y-104642000D01*
X75240700Y-104642000D02*
X75240500Y-104642200D01*
X99410000Y-95950000D02*
X98234700Y-95950000D01*
X74886900Y-104288600D02*
X74887100Y-104288800D01*
X74887100Y-104288800D02*
X75239600Y-103936000D01*
X75239600Y-103936000D02*
X79862000Y-103936000D01*
X79862000Y-103936000D02*
X81196900Y-102601000D01*
X81196900Y-102601000D02*
X85615100Y-102601000D01*
X85615100Y-102601000D02*
X86042400Y-102173700D01*
X86042400Y-102173700D02*
X86083700Y-102173700D01*
X86083700Y-102173700D02*
X86106400Y-102151000D01*
X86106400Y-102151000D02*
X91159200Y-102151000D01*
X91159200Y-102151000D02*
X93060000Y-100250000D01*
X93060000Y-100250000D02*
X93060000Y-99434900D01*
X93060000Y-99434900D02*
X93865400Y-98629500D01*
X93865400Y-98629500D02*
X93949700Y-98629500D01*
X93949700Y-98629500D02*
X93967600Y-98611600D01*
X93967600Y-98611600D02*
X95940400Y-98611600D01*
X95940400Y-98611600D02*
X98234700Y-96317300D01*
X98234700Y-96317300D02*
X98234700Y-95950000D01*
X74533400Y-103935100D02*
X75166200Y-103302300D01*
X75166200Y-103302300D02*
X79848500Y-103302300D01*
X79848500Y-103302300D02*
X81000200Y-102150600D01*
X81000200Y-102150600D02*
X85097100Y-102150600D01*
X85097100Y-102150600D02*
X89086500Y-98161200D01*
X89086500Y-98161200D02*
X93850800Y-98161200D01*
X93850800Y-98161200D02*
X95694700Y-96317300D01*
X95694700Y-96317300D02*
X95694700Y-95950000D01*
X96870000Y-95950000D02*
X95694700Y-95950000D01*
X94330000Y-95950000D02*
X93154700Y-95950000D01*
X93154700Y-95950000D02*
X93154700Y-96317300D01*
X93154700Y-96317300D02*
X91761100Y-97710900D01*
X91761100Y-97710900D02*
X88899900Y-97710900D01*
X88899900Y-97710900D02*
X85099800Y-101507000D01*
X85099800Y-101507000D02*
X81006900Y-101507000D01*
X81006900Y-101507000D02*
X80163500Y-102350000D01*
X80163500Y-102350000D02*
X76973500Y-102350000D01*
X76973500Y-102350000D02*
X76947300Y-102376200D01*
X76947300Y-102376200D02*
X76041300Y-102376200D01*
X76041300Y-102376200D02*
X75977000Y-102440500D01*
X75977000Y-102440500D02*
X75320800Y-102440500D01*
X75320800Y-102440500D02*
X74179800Y-103581500D01*
X71651800Y-108997800D02*
X72200000Y-108449600D01*
X71394000Y-108997800D02*
X71651800Y-108997800D01*
X71329600Y-109062200D02*
X71394000Y-108997800D01*
X71313400Y-109062200D02*
X71329600Y-109062200D01*
X70522300Y-109853300D02*
X71313400Y-109062200D01*
X70500500Y-109853300D02*
X70522300Y-109853300D01*
X69905700Y-110135400D02*
X70218400Y-110135400D01*
X74108800Y-96841200D02*
X69179900Y-101770100D01*
X70218400Y-110135400D02*
X70500500Y-109853300D01*
X88074700Y-95950000D02*
X86427500Y-94302800D01*
X74108800Y-95728500D02*
X74108800Y-96841200D01*
X86427500Y-94302800D02*
X85218800Y-94302800D01*
X89250000Y-95950000D02*
X88074700Y-95950000D01*
X85218800Y-94302800D02*
X84777800Y-93861800D01*
X69179900Y-109409600D02*
X69905700Y-110135400D01*
X84777800Y-93861800D02*
X75975500Y-93861800D01*
X75975500Y-93861800D02*
X74108800Y-95728500D01*
X69179900Y-101770100D02*
X69179900Y-109409600D01*
X70856500Y-107106100D02*
X70343700Y-106593200D01*
X70343700Y-106593200D02*
X70779300Y-106157600D01*
X70779300Y-106157600D02*
X70779300Y-106139600D01*
X70779300Y-106139600D02*
X71028300Y-105890600D01*
X74533400Y-106356900D02*
X75472100Y-107296000D01*
X75472100Y-107296000D02*
X75662700Y-107296000D01*
X81229100Y-120711000D02*
X81229000Y-120711100D01*
X81229000Y-120711100D02*
X81229000Y-122146600D01*
X81229000Y-122146600D02*
X81549600Y-122467200D01*
X80698500Y-120180500D02*
X81229100Y-120711000D01*
X123100000Y-111250000D02*
X123100000Y-117450000D01*
X82466300Y-118412700D02*
X82997000Y-118943300D01*
X82997000Y-118943300D02*
X83421500Y-118943300D01*
X83421500Y-118943300D02*
X83528200Y-119051000D01*
X123100000Y-111250000D02*
X123100000Y-110024700D01*
X123100000Y-110024700D02*
X121178100Y-108102800D01*
X121178100Y-108102800D02*
X119044700Y-108102800D01*
X118524700Y-118675300D02*
X123100000Y-118675300D01*
X111690000Y-128009400D02*
X111690000Y-125510000D01*
X110526700Y-128783000D02*
X110916400Y-128783000D01*
X123100000Y-118675300D02*
X123100000Y-117450000D01*
X95153900Y-121772000D02*
X96231200Y-122849000D01*
X110459000Y-128850700D02*
X110526700Y-128783000D01*
X96231200Y-122849000D02*
X98331500Y-122849000D01*
X92769500Y-121772000D02*
X95153900Y-121772000D01*
X87100000Y-116102000D02*
X92769500Y-121772000D01*
X98331500Y-122849000D02*
X104265500Y-128783000D01*
X110916400Y-128783000D02*
X111690000Y-128009400D01*
X87100000Y-115711900D02*
X87100000Y-116102000D01*
X104265500Y-128783000D02*
X106449100Y-128783000D01*
X106449100Y-128783000D02*
X106899400Y-129233300D01*
X111690000Y-125510000D02*
X118524700Y-118675300D01*
X106899400Y-129233300D02*
X110076300Y-129233300D01*
X110076300Y-129233300D02*
X110458900Y-128850700D01*
X110458900Y-128850700D02*
X110459000Y-128850700D01*
D33*
G36*
X75423000Y-93200000D02*
G01*
X75425440Y-93224776D01*
X75432667Y-93248601D01*
X75444403Y-93270557D01*
X75460197Y-93289803D01*
X75467341Y-93295666D01*
X75464496Y-93298001D01*
X75464492Y-93298005D01*
X75435499Y-93321799D01*
X75411705Y-93350792D01*
X73597802Y-95164697D01*
X73568799Y-95188499D01*
X73521126Y-95246589D01*
X73473826Y-95304224D01*
X73407811Y-95427729D01*
X73403254Y-95436254D01*
X73359797Y-95579515D01*
X73348800Y-95691168D01*
X73348800Y-95691178D01*
X73345124Y-95728500D01*
X73348800Y-95765823D01*
X73348801Y-96526397D01*
X68668903Y-101206296D01*
X68639899Y-101230099D01*
X68598138Y-101280986D01*
X68544926Y-101345824D01*
X68489053Y-101450354D01*
X68474354Y-101477854D01*
X68430897Y-101621115D01*
X68419900Y-101732768D01*
X68419900Y-101732778D01*
X68416224Y-101770100D01*
X68419900Y-101807422D01*
X68419901Y-109372268D01*
X68416224Y-109409600D01*
X68419901Y-109446933D01*
X68430898Y-109558586D01*
X68442065Y-109595399D01*
X68474354Y-109701846D01*
X68544926Y-109833876D01*
X68616101Y-109920602D01*
X68639900Y-109949601D01*
X68668898Y-109973399D01*
X69341901Y-110646402D01*
X69365699Y-110675401D01*
X69481424Y-110770374D01*
X69613453Y-110840946D01*
X69756714Y-110884403D01*
X69868367Y-110895400D01*
X69868376Y-110895400D01*
X69905699Y-110899076D01*
X69943022Y-110895400D01*
X70181078Y-110895400D01*
X70218400Y-110899076D01*
X70255722Y-110895400D01*
X70255733Y-110895400D01*
X70367386Y-110884403D01*
X70510647Y-110840946D01*
X70642676Y-110770374D01*
X70758401Y-110675401D01*
X70782204Y-110646397D01*
X70895595Y-110533006D01*
X70954026Y-110591437D01*
X71123544Y-110704705D01*
X71311902Y-110782726D01*
X71511861Y-110822500D01*
X71560598Y-110822500D01*
X68993703Y-113389396D01*
X68964699Y-113413199D01*
X68913734Y-113475301D01*
X68869726Y-113528924D01*
X68818015Y-113625668D01*
X68799154Y-113660954D01*
X68755697Y-113804215D01*
X68744700Y-113915868D01*
X68744700Y-113915878D01*
X68741024Y-113953200D01*
X68744700Y-113990522D01*
X68744701Y-121367368D01*
X68741024Y-121404700D01*
X68744701Y-121442033D01*
X68755698Y-121553686D01*
X68767706Y-121593273D01*
X68799154Y-121696946D01*
X68869726Y-121828976D01*
X68937174Y-121911161D01*
X68964700Y-121944701D01*
X68993698Y-121968499D01*
X70968015Y-123942816D01*
X70811144Y-124007795D01*
X70641626Y-124121063D01*
X70497463Y-124265226D01*
X70384195Y-124434744D01*
X70306174Y-124623102D01*
X70266400Y-124823061D01*
X70266400Y-125026939D01*
X70306174Y-125226898D01*
X70384195Y-125415256D01*
X70497463Y-125584774D01*
X70641626Y-125728937D01*
X70811144Y-125842205D01*
X70999502Y-125920226D01*
X71199461Y-125960000D01*
X71261599Y-125960000D01*
X73478394Y-128176796D01*
X73504074Y-128305898D01*
X73582095Y-128494256D01*
X73695363Y-128663774D01*
X73839526Y-128807937D01*
X74009044Y-128921205D01*
X74197402Y-128999226D01*
X74397361Y-129039000D01*
X74601239Y-129039000D01*
X74801198Y-128999226D01*
X74989556Y-128921205D01*
X75159074Y-128807937D01*
X75303237Y-128663774D01*
X75416505Y-128494256D01*
X75446658Y-128421460D01*
X84044499Y-137019301D01*
X83986674Y-137158902D01*
X83946900Y-137358861D01*
X83946900Y-137562739D01*
X83986674Y-137762698D01*
X84064695Y-137951056D01*
X84177963Y-138120574D01*
X84322126Y-138264737D01*
X84328201Y-138268796D01*
X84111709Y-138301952D01*
X83859900Y-138393391D01*
X83752965Y-138450550D01*
X83690472Y-138686867D01*
X84450000Y-139446395D01*
X85209528Y-138686867D01*
X85155245Y-138481597D01*
X85283798Y-138456026D01*
X85472156Y-138378005D01*
X85641674Y-138264737D01*
X85655949Y-138250462D01*
X85624700Y-138407561D01*
X85624700Y-138611439D01*
X85664474Y-138811398D01*
X85742495Y-138999756D01*
X85855763Y-139169274D01*
X85999926Y-139313437D01*
X86169444Y-139426705D01*
X86357802Y-139504726D01*
X86557761Y-139544500D01*
X86625000Y-139544500D01*
X86625000Y-140226177D01*
X86621324Y-140263500D01*
X86625000Y-140300822D01*
X86625000Y-140300832D01*
X86635997Y-140412485D01*
X86678143Y-140551425D01*
X86679454Y-140555746D01*
X86750026Y-140687776D01*
X86770344Y-140712533D01*
X86844999Y-140803501D01*
X86874003Y-140827304D01*
X88183001Y-142136303D01*
X88206799Y-142165301D01*
X88235797Y-142189099D01*
X88322523Y-142260274D01*
X88447021Y-142326820D01*
X88454553Y-142330846D01*
X88597814Y-142374303D01*
X88709467Y-142385300D01*
X88709476Y-142385300D01*
X88746799Y-142388976D01*
X88784122Y-142385300D01*
X90577378Y-142385300D01*
X90614700Y-142388976D01*
X90652022Y-142385300D01*
X90652033Y-142385300D01*
X90763686Y-142374303D01*
X90906947Y-142330846D01*
X91038976Y-142260274D01*
X91154701Y-142165301D01*
X91178504Y-142136297D01*
X91423592Y-141891209D01*
X91643740Y-141935000D01*
X91936260Y-141935000D01*
X92223158Y-141877932D01*
X92493411Y-141765990D01*
X92700690Y-141627491D01*
X93673901Y-142600703D01*
X93692200Y-142623000D01*
X86685000Y-142623000D01*
X86685000Y-142453000D01*
X85577000Y-142453000D01*
X85577000Y-142473000D01*
X85323000Y-142473000D01*
X85323000Y-142453000D01*
X84215000Y-142453000D01*
X84215000Y-142803000D01*
X84263507Y-143041496D01*
X84357610Y-143265946D01*
X84407553Y-143340000D01*
X79492447Y-143340000D01*
X79542390Y-143265946D01*
X79636493Y-143041496D01*
X79685000Y-142803000D01*
X79685000Y-142453000D01*
X78577000Y-142453000D01*
X78577000Y-142473000D01*
X78323000Y-142473000D01*
X78323000Y-142453000D01*
X77215000Y-142453000D01*
X77215000Y-142803000D01*
X77263507Y-143041496D01*
X77357610Y-143265946D01*
X77407553Y-143340000D01*
X70882279Y-143340000D01*
X70201874Y-143273286D01*
X69578430Y-143085057D01*
X69003427Y-142779323D01*
X68498752Y-142367721D01*
X68083638Y-141865933D01*
X67773896Y-141293077D01*
X67581318Y-140670961D01*
X67527036Y-140154495D01*
X68515000Y-140154495D01*
X68515000Y-140545505D01*
X68591282Y-140929003D01*
X68740915Y-141290250D01*
X68958149Y-141615364D01*
X69234636Y-141891851D01*
X69559750Y-142109085D01*
X69920997Y-142258718D01*
X70304495Y-142335000D01*
X70695505Y-142335000D01*
X71079003Y-142258718D01*
X71440250Y-142109085D01*
X71765364Y-141891851D01*
X71808215Y-141849000D01*
X77215000Y-141849000D01*
X77215000Y-142199000D01*
X78323000Y-142199000D01*
X78323000Y-140907269D01*
X78577000Y-140907269D01*
X78577000Y-142199000D01*
X79685000Y-142199000D01*
X79685000Y-141849000D01*
X79636493Y-141610504D01*
X79542390Y-141386054D01*
X79406307Y-141184275D01*
X79233474Y-141012922D01*
X79138164Y-140949829D01*
X79255849Y-140978719D01*
X79523482Y-140990604D01*
X79788291Y-140950048D01*
X80040100Y-140858609D01*
X80147035Y-140801450D01*
X80209528Y-140565133D01*
X83690472Y-140565133D01*
X83752965Y-140801450D01*
X83995678Y-140914850D01*
X84255849Y-140978719D01*
X84523482Y-140990604D01*
X84753442Y-140955385D01*
X84666526Y-141012922D01*
X84493693Y-141184275D01*
X84357610Y-141386054D01*
X84263507Y-141610504D01*
X84215000Y-141849000D01*
X84215000Y-142199000D01*
X85323000Y-142199000D01*
X85323000Y-140907269D01*
X85577000Y-140907269D01*
X85577000Y-142199000D01*
X86685000Y-142199000D01*
X86685000Y-141849000D01*
X86636493Y-141610504D01*
X86542390Y-141386054D01*
X86406307Y-141184275D01*
X86233474Y-141012922D01*
X86030533Y-140878579D01*
X85805282Y-140786409D01*
X85767609Y-140782538D01*
X85577000Y-140907269D01*
X85323000Y-140907269D01*
X85149138Y-140793497D01*
X85209528Y-140565133D01*
X84450000Y-139805605D01*
X83690472Y-140565133D01*
X80209528Y-140565133D01*
X79450000Y-139805605D01*
X78690472Y-140565133D01*
X78750862Y-140793497D01*
X78577000Y-140907269D01*
X78323000Y-140907269D01*
X78132391Y-140782538D01*
X78094718Y-140786409D01*
X77869467Y-140878579D01*
X77666526Y-141012922D01*
X77493693Y-141184275D01*
X77357610Y-141386054D01*
X77263507Y-141610504D01*
X77215000Y-141849000D01*
X71808215Y-141849000D01*
X72041851Y-141615364D01*
X72259085Y-141290250D01*
X72408718Y-140929003D01*
X72485000Y-140545505D01*
X72485000Y-140154495D01*
X72408718Y-139770997D01*
X72379096Y-139699482D01*
X78085396Y-139699482D01*
X78125952Y-139964291D01*
X78217391Y-140216100D01*
X78274550Y-140323035D01*
X78510867Y-140385528D01*
X79270395Y-139626000D01*
X79629605Y-139626000D01*
X80389133Y-140385528D01*
X80625450Y-140323035D01*
X80738850Y-140080322D01*
X80802719Y-139820151D01*
X80808077Y-139699482D01*
X83085396Y-139699482D01*
X83125952Y-139964291D01*
X83217391Y-140216100D01*
X83274550Y-140323035D01*
X83510867Y-140385528D01*
X84270395Y-139626000D01*
X84629605Y-139626000D01*
X85389133Y-140385528D01*
X85625450Y-140323035D01*
X85738850Y-140080322D01*
X85802719Y-139820151D01*
X85814604Y-139552518D01*
X85774048Y-139287709D01*
X85682609Y-139035900D01*
X85625450Y-138928965D01*
X85389133Y-138866472D01*
X84629605Y-139626000D01*
X84270395Y-139626000D01*
X83510867Y-138866472D01*
X83274550Y-138928965D01*
X83161150Y-139171678D01*
X83097281Y-139431849D01*
X83085396Y-139699482D01*
X80808077Y-139699482D01*
X80814604Y-139552518D01*
X80774048Y-139287709D01*
X80682609Y-139035900D01*
X80625450Y-138928965D01*
X80389133Y-138866472D01*
X79629605Y-139626000D01*
X79270395Y-139626000D01*
X78510867Y-138866472D01*
X78274550Y-138928965D01*
X78161150Y-139171678D01*
X78097281Y-139431849D01*
X78085396Y-139699482D01*
X72379096Y-139699482D01*
X72259085Y-139409750D01*
X72041851Y-139084636D01*
X71765364Y-138808149D01*
X71583853Y-138686867D01*
X78690472Y-138686867D01*
X79450000Y-139446395D01*
X80209528Y-138686867D01*
X80147035Y-138450550D01*
X79904322Y-138337150D01*
X79644151Y-138273281D01*
X79376518Y-138261396D01*
X79111709Y-138301952D01*
X78859900Y-138393391D01*
X78752965Y-138450550D01*
X78690472Y-138686867D01*
X71583853Y-138686867D01*
X71440250Y-138590915D01*
X71079003Y-138441282D01*
X70695505Y-138365000D01*
X70304495Y-138365000D01*
X69920997Y-138441282D01*
X69559750Y-138590915D01*
X69234636Y-138808149D01*
X68958149Y-139084636D01*
X68740915Y-139409750D01*
X68591282Y-139770997D01*
X68515000Y-140154495D01*
X67527036Y-140154495D01*
X67510000Y-139992417D01*
X67510000Y-131861714D01*
X68050000Y-131861714D01*
X68074776Y-131859274D01*
X68098601Y-131852047D01*
X68120557Y-131840311D01*
X68139803Y-131824517D01*
X68155597Y-131805271D01*
X68167333Y-131783315D01*
X68174560Y-131759490D01*
X68177000Y-131734714D01*
X68177000Y-98834714D01*
X68174560Y-98809938D01*
X68167333Y-98786113D01*
X68155597Y-98764157D01*
X68139803Y-98744911D01*
X68120557Y-98729117D01*
X68098601Y-98717381D01*
X68074776Y-98710154D01*
X68050000Y-98707714D01*
X67510000Y-98707714D01*
X67510000Y-96032278D01*
X67566651Y-95454495D01*
X68515000Y-95454495D01*
X68515000Y-95845505D01*
X68591282Y-96229003D01*
X68740915Y-96590250D01*
X68958149Y-96915364D01*
X69234636Y-97191851D01*
X69559750Y-97409085D01*
X69920997Y-97558718D01*
X70304495Y-97635000D01*
X70695505Y-97635000D01*
X71079003Y-97558718D01*
X71440250Y-97409085D01*
X71765364Y-97191851D01*
X72041851Y-96915364D01*
X72259085Y-96590250D01*
X72408718Y-96229003D01*
X72485000Y-95845505D01*
X72485000Y-95454495D01*
X72408718Y-95070997D01*
X72259085Y-94709750D01*
X72041851Y-94384636D01*
X71765364Y-94108149D01*
X71440250Y-93890915D01*
X71079003Y-93741282D01*
X70695505Y-93665000D01*
X70304495Y-93665000D01*
X69920997Y-93741282D01*
X69559750Y-93890915D01*
X69234636Y-94108149D01*
X68958149Y-94384636D01*
X68740915Y-94709750D01*
X68591282Y-95070997D01*
X68515000Y-95454495D01*
X67566651Y-95454495D01*
X67576714Y-95351874D01*
X67764943Y-94728428D01*
X68070681Y-94153421D01*
X68482279Y-93648753D01*
X68984067Y-93233638D01*
X69556924Y-92923895D01*
X70179039Y-92731318D01*
X70857584Y-92660000D01*
X75423000Y-92660000D01*
X75423000Y-93200000D01*
G37*
X75423000Y-93200000D02*
X75425440Y-93224776D01*
X75432667Y-93248601D01*
X75444403Y-93270557D01*
X75460197Y-93289803D01*
X75467341Y-93295666D01*
X75464496Y-93298001D01*
X75464492Y-93298005D01*
X75435499Y-93321799D01*
X75411705Y-93350792D01*
X73597802Y-95164697D01*
X73568799Y-95188499D01*
X73521126Y-95246589D01*
X73473826Y-95304224D01*
X73407811Y-95427729D01*
X73403254Y-95436254D01*
X73359797Y-95579515D01*
X73348800Y-95691168D01*
X73348800Y-95691178D01*
X73345124Y-95728500D01*
X73348800Y-95765823D01*
X73348801Y-96526397D01*
X68668903Y-101206296D01*
X68639899Y-101230099D01*
X68598138Y-101280986D01*
X68544926Y-101345824D01*
X68489053Y-101450354D01*
X68474354Y-101477854D01*
X68430897Y-101621115D01*
X68419900Y-101732768D01*
X68419900Y-101732778D01*
X68416224Y-101770100D01*
X68419900Y-101807422D01*
X68419901Y-109372268D01*
X68416224Y-109409600D01*
X68419901Y-109446933D01*
X68430898Y-109558586D01*
X68442065Y-109595399D01*
X68474354Y-109701846D01*
X68544926Y-109833876D01*
X68616101Y-109920602D01*
X68639900Y-109949601D01*
X68668898Y-109973399D01*
X69341901Y-110646402D01*
X69365699Y-110675401D01*
X69481424Y-110770374D01*
X69613453Y-110840946D01*
X69756714Y-110884403D01*
X69868367Y-110895400D01*
X69868376Y-110895400D01*
X69905699Y-110899076D01*
X69943022Y-110895400D01*
X70181078Y-110895400D01*
X70218400Y-110899076D01*
X70255722Y-110895400D01*
X70255733Y-110895400D01*
X70367386Y-110884403D01*
X70510647Y-110840946D01*
X70642676Y-110770374D01*
X70758401Y-110675401D01*
X70782204Y-110646397D01*
X70895595Y-110533006D01*
X70954026Y-110591437D01*
X71123544Y-110704705D01*
X71311902Y-110782726D01*
X71511861Y-110822500D01*
X71560598Y-110822500D01*
X68993703Y-113389396D01*
X68964699Y-113413199D01*
X68913734Y-113475301D01*
X68869726Y-113528924D01*
X68818015Y-113625668D01*
X68799154Y-113660954D01*
X68755697Y-113804215D01*
X68744700Y-113915868D01*
X68744700Y-113915878D01*
X68741024Y-113953200D01*
X68744700Y-113990522D01*
X68744701Y-121367368D01*
X68741024Y-121404700D01*
X68744701Y-121442033D01*
X68755698Y-121553686D01*
X68767706Y-121593273D01*
X68799154Y-121696946D01*
X68869726Y-121828976D01*
X68937174Y-121911161D01*
X68964700Y-121944701D01*
X68993698Y-121968499D01*
X70968015Y-123942816D01*
X70811144Y-124007795D01*
X70641626Y-124121063D01*
X70497463Y-124265226D01*
X70384195Y-124434744D01*
X70306174Y-124623102D01*
X70266400Y-124823061D01*
X70266400Y-125026939D01*
X70306174Y-125226898D01*
X70384195Y-125415256D01*
X70497463Y-125584774D01*
X70641626Y-125728937D01*
X70811144Y-125842205D01*
X70999502Y-125920226D01*
X71199461Y-125960000D01*
X71261599Y-125960000D01*
X73478394Y-128176796D01*
X73504074Y-128305898D01*
X73582095Y-128494256D01*
X73695363Y-128663774D01*
X73839526Y-128807937D01*
X74009044Y-128921205D01*
X74197402Y-128999226D01*
X74397361Y-129039000D01*
X74601239Y-129039000D01*
X74801198Y-128999226D01*
X74989556Y-128921205D01*
X75159074Y-128807937D01*
X75303237Y-128663774D01*
X75416505Y-128494256D01*
X75446658Y-128421460D01*
X84044499Y-137019301D01*
X83986674Y-137158902D01*
X83946900Y-137358861D01*
X83946900Y-137562739D01*
X83986674Y-137762698D01*
X84064695Y-137951056D01*
X84177963Y-138120574D01*
X84322126Y-138264737D01*
X84328201Y-138268796D01*
X84111709Y-138301952D01*
X83859900Y-138393391D01*
X83752965Y-138450550D01*
X83690472Y-138686867D01*
X84450000Y-139446395D01*
X85209528Y-138686867D01*
X85155245Y-138481597D01*
X85283798Y-138456026D01*
X85472156Y-138378005D01*
X85641674Y-138264737D01*
X85655949Y-138250462D01*
X85624700Y-138407561D01*
X85624700Y-138611439D01*
X85664474Y-138811398D01*
X85742495Y-138999756D01*
X85855763Y-139169274D01*
X85999926Y-139313437D01*
X86169444Y-139426705D01*
X86357802Y-139504726D01*
X86557761Y-139544500D01*
X86625000Y-139544500D01*
X86625000Y-140226177D01*
X86621324Y-140263500D01*
X86625000Y-140300822D01*
X86625000Y-140300832D01*
X86635997Y-140412485D01*
X86678143Y-140551425D01*
X86679454Y-140555746D01*
X86750026Y-140687776D01*
X86770344Y-140712533D01*
X86844999Y-140803501D01*
X86874003Y-140827304D01*
X88183001Y-142136303D01*
X88206799Y-142165301D01*
X88235797Y-142189099D01*
X88322523Y-142260274D01*
X88447021Y-142326820D01*
X88454553Y-142330846D01*
X88597814Y-142374303D01*
X88709467Y-142385300D01*
X88709476Y-142385300D01*
X88746799Y-142388976D01*
X88784122Y-142385300D01*
X90577378Y-142385300D01*
X90614700Y-142388976D01*
X90652022Y-142385300D01*
X90652033Y-142385300D01*
X90763686Y-142374303D01*
X90906947Y-142330846D01*
X91038976Y-142260274D01*
X91154701Y-142165301D01*
X91178504Y-142136297D01*
X91423592Y-141891209D01*
X91643740Y-141935000D01*
X91936260Y-141935000D01*
X92223158Y-141877932D01*
X92493411Y-141765990D01*
X92700690Y-141627491D01*
X93673901Y-142600703D01*
X93692200Y-142623000D01*
X86685000Y-142623000D01*
X86685000Y-142453000D01*
X85577000Y-142453000D01*
X85577000Y-142473000D01*
X85323000Y-142473000D01*
X85323000Y-142453000D01*
X84215000Y-142453000D01*
X84215000Y-142803000D01*
X84263507Y-143041496D01*
X84357610Y-143265946D01*
X84407553Y-143340000D01*
X79492447Y-143340000D01*
X79542390Y-143265946D01*
X79636493Y-143041496D01*
X79685000Y-142803000D01*
X79685000Y-142453000D01*
X78577000Y-142453000D01*
X78577000Y-142473000D01*
X78323000Y-142473000D01*
X78323000Y-142453000D01*
X77215000Y-142453000D01*
X77215000Y-142803000D01*
X77263507Y-143041496D01*
X77357610Y-143265946D01*
X77407553Y-143340000D01*
X70882279Y-143340000D01*
X70201874Y-143273286D01*
X69578430Y-143085057D01*
X69003427Y-142779323D01*
X68498752Y-142367721D01*
X68083638Y-141865933D01*
X67773896Y-141293077D01*
X67581318Y-140670961D01*
X67527036Y-140154495D01*
X68515000Y-140154495D01*
X68515000Y-140545505D01*
X68591282Y-140929003D01*
X68740915Y-141290250D01*
X68958149Y-141615364D01*
X69234636Y-141891851D01*
X69559750Y-142109085D01*
X69920997Y-142258718D01*
X70304495Y-142335000D01*
X70695505Y-142335000D01*
X71079003Y-142258718D01*
X71440250Y-142109085D01*
X71765364Y-141891851D01*
X71808215Y-141849000D01*
X77215000Y-141849000D01*
X77215000Y-142199000D01*
X78323000Y-142199000D01*
X78323000Y-140907269D01*
X78577000Y-140907269D01*
X78577000Y-142199000D01*
X79685000Y-142199000D01*
X79685000Y-141849000D01*
X79636493Y-141610504D01*
X79542390Y-141386054D01*
X79406307Y-141184275D01*
X79233474Y-141012922D01*
X79138164Y-140949829D01*
X79255849Y-140978719D01*
X79523482Y-140990604D01*
X79788291Y-140950048D01*
X80040100Y-140858609D01*
X80147035Y-140801450D01*
X80209528Y-140565133D01*
X83690472Y-140565133D01*
X83752965Y-140801450D01*
X83995678Y-140914850D01*
X84255849Y-140978719D01*
X84523482Y-140990604D01*
X84753442Y-140955385D01*
X84666526Y-141012922D01*
X84493693Y-141184275D01*
X84357610Y-141386054D01*
X84263507Y-141610504D01*
X84215000Y-141849000D01*
X84215000Y-142199000D01*
X85323000Y-142199000D01*
X85323000Y-140907269D01*
X85577000Y-140907269D01*
X85577000Y-142199000D01*
X86685000Y-142199000D01*
X86685000Y-141849000D01*
X86636493Y-141610504D01*
X86542390Y-141386054D01*
X86406307Y-141184275D01*
X86233474Y-141012922D01*
X86030533Y-140878579D01*
X85805282Y-140786409D01*
X85767609Y-140782538D01*
X85577000Y-140907269D01*
X85323000Y-140907269D01*
X85149138Y-140793497D01*
X85209528Y-140565133D01*
X84450000Y-139805605D01*
X83690472Y-140565133D01*
X80209528Y-140565133D01*
X79450000Y-139805605D01*
X78690472Y-140565133D01*
X78750862Y-140793497D01*
X78577000Y-140907269D01*
X78323000Y-140907269D01*
X78132391Y-140782538D01*
X78094718Y-140786409D01*
X77869467Y-140878579D01*
X77666526Y-141012922D01*
X77493693Y-141184275D01*
X77357610Y-141386054D01*
X77263507Y-141610504D01*
X77215000Y-141849000D01*
X71808215Y-141849000D01*
X72041851Y-141615364D01*
X72259085Y-141290250D01*
X72408718Y-140929003D01*
X72485000Y-140545505D01*
X72485000Y-140154495D01*
X72408718Y-139770997D01*
X72379096Y-139699482D01*
X78085396Y-139699482D01*
X78125952Y-139964291D01*
X78217391Y-140216100D01*
X78274550Y-140323035D01*
X78510867Y-140385528D01*
X79270395Y-139626000D01*
X79629605Y-139626000D01*
X80389133Y-140385528D01*
X80625450Y-140323035D01*
X80738850Y-140080322D01*
X80802719Y-139820151D01*
X80808077Y-139699482D01*
X83085396Y-139699482D01*
X83125952Y-139964291D01*
X83217391Y-140216100D01*
X83274550Y-140323035D01*
X83510867Y-140385528D01*
X84270395Y-139626000D01*
X84629605Y-139626000D01*
X85389133Y-140385528D01*
X85625450Y-140323035D01*
X85738850Y-140080322D01*
X85802719Y-139820151D01*
X85814604Y-139552518D01*
X85774048Y-139287709D01*
X85682609Y-139035900D01*
X85625450Y-138928965D01*
X85389133Y-138866472D01*
X84629605Y-139626000D01*
X84270395Y-139626000D01*
X83510867Y-138866472D01*
X83274550Y-138928965D01*
X83161150Y-139171678D01*
X83097281Y-139431849D01*
X83085396Y-139699482D01*
X80808077Y-139699482D01*
X80814604Y-139552518D01*
X80774048Y-139287709D01*
X80682609Y-139035900D01*
X80625450Y-138928965D01*
X80389133Y-138866472D01*
X79629605Y-139626000D01*
X79270395Y-139626000D01*
X78510867Y-138866472D01*
X78274550Y-138928965D01*
X78161150Y-139171678D01*
X78097281Y-139431849D01*
X78085396Y-139699482D01*
X72379096Y-139699482D01*
X72259085Y-139409750D01*
X72041851Y-139084636D01*
X71765364Y-138808149D01*
X71583853Y-138686867D01*
X78690472Y-138686867D01*
X79450000Y-139446395D01*
X80209528Y-138686867D01*
X80147035Y-138450550D01*
X79904322Y-138337150D01*
X79644151Y-138273281D01*
X79376518Y-138261396D01*
X79111709Y-138301952D01*
X78859900Y-138393391D01*
X78752965Y-138450550D01*
X78690472Y-138686867D01*
X71583853Y-138686867D01*
X71440250Y-138590915D01*
X71079003Y-138441282D01*
X70695505Y-138365000D01*
X70304495Y-138365000D01*
X69920997Y-138441282D01*
X69559750Y-138590915D01*
X69234636Y-138808149D01*
X68958149Y-139084636D01*
X68740915Y-139409750D01*
X68591282Y-139770997D01*
X68515000Y-140154495D01*
X67527036Y-140154495D01*
X67510000Y-139992417D01*
X67510000Y-131861714D01*
X68050000Y-131861714D01*
X68074776Y-131859274D01*
X68098601Y-131852047D01*
X68120557Y-131840311D01*
X68139803Y-131824517D01*
X68155597Y-131805271D01*
X68167333Y-131783315D01*
X68174560Y-131759490D01*
X68177000Y-131734714D01*
X68177000Y-98834714D01*
X68174560Y-98809938D01*
X68167333Y-98786113D01*
X68155597Y-98764157D01*
X68139803Y-98744911D01*
X68120557Y-98729117D01*
X68098601Y-98717381D01*
X68074776Y-98710154D01*
X68050000Y-98707714D01*
X67510000Y-98707714D01*
X67510000Y-96032278D01*
X67566651Y-95454495D01*
X68515000Y-95454495D01*
X68515000Y-95845505D01*
X68591282Y-96229003D01*
X68740915Y-96590250D01*
X68958149Y-96915364D01*
X69234636Y-97191851D01*
X69559750Y-97409085D01*
X69920997Y-97558718D01*
X70304495Y-97635000D01*
X70695505Y-97635000D01*
X71079003Y-97558718D01*
X71440250Y-97409085D01*
X71765364Y-97191851D01*
X72041851Y-96915364D01*
X72259085Y-96590250D01*
X72408718Y-96229003D01*
X72485000Y-95845505D01*
X72485000Y-95454495D01*
X72408718Y-95070997D01*
X72259085Y-94709750D01*
X72041851Y-94384636D01*
X71765364Y-94108149D01*
X71440250Y-93890915D01*
X71079003Y-93741282D01*
X70695505Y-93665000D01*
X70304495Y-93665000D01*
X69920997Y-93741282D01*
X69559750Y-93890915D01*
X69234636Y-94108149D01*
X68958149Y-94384636D01*
X68740915Y-94709750D01*
X68591282Y-95070997D01*
X68515000Y-95454495D01*
X67566651Y-95454495D01*
X67576714Y-95351874D01*
X67764943Y-94728428D01*
X68070681Y-94153421D01*
X68482279Y-93648753D01*
X68984067Y-93233638D01*
X69556924Y-92923895D01*
X70179039Y-92731318D01*
X70857584Y-92660000D01*
X75423000Y-92660000D01*
X75423000Y-93200000D01*
G36*
X134384000Y-133048677D02*
G01*
X134380324Y-133086000D01*
X134384000Y-133123322D01*
X134384000Y-133123332D01*
X134394997Y-133234985D01*
X134430644Y-133352498D01*
X134438454Y-133378246D01*
X134509026Y-133510276D01*
X134535731Y-133542816D01*
X134603999Y-133626001D01*
X134633002Y-133649803D01*
X135273001Y-134289803D01*
X135273001Y-134894978D01*
X134835750Y-134897000D01*
X134677000Y-135055750D01*
X134677000Y-136105000D01*
X134697000Y-136105000D01*
X134697000Y-136359000D01*
X134677000Y-136359000D01*
X134677000Y-136379000D01*
X134423000Y-136379000D01*
X134423000Y-136359000D01*
X134403000Y-136359000D01*
X134403000Y-136105000D01*
X134423000Y-136105000D01*
X134423000Y-135055750D01*
X134264250Y-134897000D01*
X133600000Y-134893928D01*
X133475518Y-134906188D01*
X133355820Y-134942498D01*
X133245506Y-135001463D01*
X133148815Y-135080815D01*
X133138072Y-135093905D01*
X133138072Y-135042000D01*
X133125812Y-134917518D01*
X133118071Y-134892000D01*
X133125812Y-134866482D01*
X133138072Y-134742000D01*
X133138072Y-134103947D01*
X133151185Y-134093185D01*
X133230537Y-133996494D01*
X133289502Y-133886180D01*
X133325812Y-133766482D01*
X133338072Y-133642000D01*
X133335000Y-133527750D01*
X133176250Y-133369000D01*
X132775053Y-133369000D01*
X132744180Y-133352498D01*
X132624482Y-133316188D01*
X132500000Y-133303928D01*
X131803000Y-133303928D01*
X131803000Y-133180072D01*
X132500000Y-133180072D01*
X132624482Y-133167812D01*
X132744180Y-133131502D01*
X132775053Y-133115000D01*
X133176250Y-133115000D01*
X133335000Y-132956250D01*
X133338072Y-132842000D01*
X133325812Y-132717518D01*
X133289502Y-132597820D01*
X133230537Y-132487506D01*
X133151185Y-132390815D01*
X133138072Y-132380053D01*
X133138072Y-131903947D01*
X133151185Y-131893185D01*
X133216170Y-131814000D01*
X133328678Y-131814000D01*
X133366000Y-131817676D01*
X133403322Y-131814000D01*
X133403333Y-131814000D01*
X133514986Y-131803003D01*
X133658247Y-131759546D01*
X133790276Y-131688974D01*
X133906001Y-131594001D01*
X133929803Y-131564998D01*
X134384000Y-131110802D01*
X134384000Y-133048677D01*
G37*
X134384000Y-133048677D02*
X134380324Y-133086000D01*
X134384000Y-133123322D01*
X134384000Y-133123332D01*
X134394997Y-133234985D01*
X134430644Y-133352498D01*
X134438454Y-133378246D01*
X134509026Y-133510276D01*
X134535731Y-133542816D01*
X134603999Y-133626001D01*
X134633002Y-133649803D01*
X135273001Y-134289803D01*
X135273001Y-134894978D01*
X134835750Y-134897000D01*
X134677000Y-135055750D01*
X134677000Y-136105000D01*
X134697000Y-136105000D01*
X134697000Y-136359000D01*
X134677000Y-136359000D01*
X134677000Y-136379000D01*
X134423000Y-136379000D01*
X134423000Y-136359000D01*
X134403000Y-136359000D01*
X134403000Y-136105000D01*
X134423000Y-136105000D01*
X134423000Y-135055750D01*
X134264250Y-134897000D01*
X133600000Y-134893928D01*
X133475518Y-134906188D01*
X133355820Y-134942498D01*
X133245506Y-135001463D01*
X133148815Y-135080815D01*
X133138072Y-135093905D01*
X133138072Y-135042000D01*
X133125812Y-134917518D01*
X133118071Y-134892000D01*
X133125812Y-134866482D01*
X133138072Y-134742000D01*
X133138072Y-134103947D01*
X133151185Y-134093185D01*
X133230537Y-133996494D01*
X133289502Y-133886180D01*
X133325812Y-133766482D01*
X133338072Y-133642000D01*
X133335000Y-133527750D01*
X133176250Y-133369000D01*
X132775053Y-133369000D01*
X132744180Y-133352498D01*
X132624482Y-133316188D01*
X132500000Y-133303928D01*
X131803000Y-133303928D01*
X131803000Y-133180072D01*
X132500000Y-133180072D01*
X132624482Y-133167812D01*
X132744180Y-133131502D01*
X132775053Y-133115000D01*
X133176250Y-133115000D01*
X133335000Y-132956250D01*
X133338072Y-132842000D01*
X133325812Y-132717518D01*
X133289502Y-132597820D01*
X133230537Y-132487506D01*
X133151185Y-132390815D01*
X133138072Y-132380053D01*
X133138072Y-131903947D01*
X133151185Y-131893185D01*
X133216170Y-131814000D01*
X133328678Y-131814000D01*
X133366000Y-131817676D01*
X133403322Y-131814000D01*
X133403333Y-131814000D01*
X133514986Y-131803003D01*
X133658247Y-131759546D01*
X133790276Y-131688974D01*
X133906001Y-131594001D01*
X133929803Y-131564998D01*
X134384000Y-131110802D01*
X134384000Y-133048677D01*
G36*
X133498126Y-92726714D02*
G01*
X134121572Y-92914943D01*
X134696579Y-93220681D01*
X135201247Y-93632279D01*
X135616362Y-94134067D01*
X135926105Y-94706924D01*
X136118682Y-95329039D01*
X136190001Y-96007594D01*
X136190001Y-105723000D01*
X136150000Y-105723000D01*
X136125224Y-105725440D01*
X136101399Y-105732667D01*
X136079443Y-105744403D01*
X136060197Y-105760197D01*
X136044403Y-105779443D01*
X136032667Y-105801399D01*
X136025440Y-105825224D01*
X136023000Y-105850000D01*
X136023000Y-121746134D01*
X135835750Y-121747000D01*
X135677000Y-121905750D01*
X135677000Y-122955000D01*
X135697000Y-122955000D01*
X135697000Y-123209000D01*
X135677000Y-123209000D01*
X135677000Y-124258250D01*
X135835750Y-124417000D01*
X136190000Y-124418638D01*
X136190000Y-133057199D01*
X135904000Y-132771199D01*
X135904000Y-127027322D01*
X135907676Y-126989999D01*
X135904000Y-126952676D01*
X135904000Y-126952667D01*
X135893003Y-126841014D01*
X135849546Y-126697753D01*
X135832621Y-126666089D01*
X135778974Y-126565723D01*
X135707799Y-126478997D01*
X135684001Y-126449999D01*
X135655003Y-126426201D01*
X133010802Y-123782000D01*
X133961928Y-123782000D01*
X133974188Y-123906482D01*
X134010498Y-124026180D01*
X134069463Y-124136494D01*
X134148815Y-124233185D01*
X134245506Y-124312537D01*
X134355820Y-124371502D01*
X134475518Y-124407812D01*
X134600000Y-124420072D01*
X135264250Y-124417000D01*
X135423000Y-124258250D01*
X135423000Y-123209000D01*
X134123750Y-123209000D01*
X133965000Y-123367750D01*
X133961928Y-123782000D01*
X133010802Y-123782000D01*
X131479722Y-122250921D01*
X133981496Y-122233426D01*
X133974188Y-122257518D01*
X133961928Y-122382000D01*
X133965000Y-122796250D01*
X134123750Y-122955000D01*
X135423000Y-122955000D01*
X135423000Y-121905750D01*
X135264250Y-121747000D01*
X135027000Y-121745903D01*
X135027000Y-105800000D01*
X135024383Y-105774353D01*
X135016990Y-105750580D01*
X135005101Y-105728706D01*
X134989172Y-105709572D01*
X134969817Y-105693913D01*
X134947779Y-105682330D01*
X134923905Y-105675270D01*
X134899112Y-105673003D01*
X127749112Y-105723003D01*
X127725224Y-105725440D01*
X127701399Y-105732667D01*
X127679443Y-105744403D01*
X127660197Y-105760197D01*
X127644403Y-105779443D01*
X127632667Y-105801399D01*
X127625440Y-105825224D01*
X127623000Y-105850000D01*
X127623000Y-109775903D01*
X127594180Y-109760498D01*
X127474482Y-109724188D01*
X127350000Y-109711928D01*
X127085750Y-109715000D01*
X126927000Y-109873750D01*
X126927000Y-111123000D01*
X126947000Y-111123000D01*
X126947000Y-111377000D01*
X126927000Y-111377000D01*
X126927000Y-112626250D01*
X127085750Y-112785000D01*
X127350000Y-112788072D01*
X127474482Y-112775812D01*
X127594180Y-112739502D01*
X127623000Y-112724097D01*
X127623000Y-115975903D01*
X127594180Y-115960498D01*
X127474482Y-115924188D01*
X127350000Y-115911928D01*
X127085750Y-115915000D01*
X126927000Y-116073750D01*
X126927000Y-117323000D01*
X126947000Y-117323000D01*
X126947000Y-117577000D01*
X126927000Y-117577000D01*
X126927000Y-118826250D01*
X127085750Y-118985000D01*
X127350000Y-118988072D01*
X127474482Y-118975812D01*
X127594180Y-118939502D01*
X127623000Y-118924097D01*
X127623000Y-121715010D01*
X127468127Y-121715010D01*
X126049271Y-120296155D01*
X126103226Y-120165898D01*
X126143000Y-119965939D01*
X126143000Y-119762061D01*
X126103226Y-119562102D01*
X126025205Y-119373744D01*
X125911937Y-119204226D01*
X125767774Y-119060063D01*
X125598256Y-118946795D01*
X125409898Y-118868774D01*
X125209939Y-118829000D01*
X125006061Y-118829000D01*
X124806102Y-118868774D01*
X124617744Y-118946795D01*
X124448226Y-119060063D01*
X124304063Y-119204226D01*
X124190795Y-119373744D01*
X124112774Y-119562102D01*
X124073000Y-119762061D01*
X124073000Y-119965939D01*
X124112774Y-120165898D01*
X124190795Y-120354256D01*
X124304063Y-120523774D01*
X124359014Y-120578725D01*
X124401835Y-120719890D01*
X124402454Y-120721931D01*
X124473026Y-120853961D01*
X124501024Y-120888076D01*
X124567999Y-120969686D01*
X124597003Y-120993489D01*
X126589525Y-122986012D01*
X126613324Y-123015011D01*
X126729049Y-123109984D01*
X126861078Y-123180556D01*
X127004339Y-123224013D01*
X127115992Y-123235010D01*
X127116001Y-123235010D01*
X127153324Y-123238686D01*
X127190647Y-123235010D01*
X130314209Y-123235010D01*
X132224188Y-125144989D01*
X121892923Y-125144989D01*
X121855598Y-125141313D01*
X121818273Y-125144989D01*
X121818265Y-125144989D01*
X121706612Y-125155986D01*
X121563351Y-125199443D01*
X121431322Y-125270015D01*
X121315597Y-125364988D01*
X121291799Y-125393986D01*
X119011998Y-127673788D01*
X118983000Y-127697586D01*
X118959202Y-127726584D01*
X118959201Y-127726585D01*
X118888026Y-127813311D01*
X118817454Y-127945341D01*
X118792892Y-128026314D01*
X118773998Y-128088601D01*
X118767657Y-128152986D01*
X118759324Y-128237587D01*
X118763001Y-128274919D01*
X118763000Y-130278762D01*
X118748518Y-130280188D01*
X118693728Y-130296808D01*
X118661026Y-130132402D01*
X118583005Y-129944044D01*
X118469737Y-129774526D01*
X118325574Y-129630363D01*
X118156056Y-129517095D01*
X117967698Y-129439074D01*
X117767739Y-129399300D01*
X117563861Y-129399300D01*
X117363902Y-129439074D01*
X117175544Y-129517095D01*
X117006026Y-129630363D01*
X116861863Y-129774526D01*
X116748595Y-129944044D01*
X116670574Y-130132402D01*
X116630800Y-130332361D01*
X116630800Y-130394498D01*
X115710299Y-131315000D01*
X106214802Y-131315000D01*
X104885000Y-129985199D01*
X104885000Y-129923061D01*
X104845226Y-129723102D01*
X104770625Y-129543000D01*
X106134299Y-129543000D01*
X106335596Y-129744297D01*
X106359399Y-129773301D01*
X106475124Y-129868274D01*
X106607153Y-129938846D01*
X106750414Y-129982303D01*
X106862067Y-129993300D01*
X106862076Y-129993300D01*
X106899399Y-129996976D01*
X106936722Y-129993300D01*
X110038978Y-129993300D01*
X110076300Y-129996976D01*
X110113622Y-129993300D01*
X110113633Y-129993300D01*
X110225286Y-129982303D01*
X110368547Y-129938846D01*
X110500576Y-129868274D01*
X110616301Y-129773301D01*
X110640104Y-129744297D01*
X110841401Y-129543000D01*
X110879078Y-129543000D01*
X110916400Y-129546676D01*
X110953722Y-129543000D01*
X110953733Y-129543000D01*
X111065386Y-129532003D01*
X111208647Y-129488546D01*
X111340676Y-129417974D01*
X111456401Y-129323001D01*
X111480203Y-129293998D01*
X112201004Y-128573198D01*
X112230001Y-128549401D01*
X112324974Y-128433676D01*
X112395546Y-128301647D01*
X112439003Y-128158386D01*
X112442000Y-128127957D01*
X112442000Y-128326250D01*
X112600750Y-128485000D01*
X112615000Y-128488072D01*
X112739482Y-128475812D01*
X112859180Y-128439502D01*
X112950000Y-128390957D01*
X113040820Y-128439502D01*
X113160518Y-128475812D01*
X113285000Y-128488072D01*
X113885000Y-128488072D01*
X114009482Y-128475812D01*
X114129180Y-128439502D01*
X114220000Y-128390957D01*
X114310820Y-128439502D01*
X114430518Y-128475812D01*
X114555000Y-128488072D01*
X115155000Y-128488072D01*
X115279482Y-128475812D01*
X115399180Y-128439502D01*
X115490000Y-128390957D01*
X115580820Y-128439502D01*
X115700518Y-128475812D01*
X115825000Y-128488072D01*
X116425000Y-128488072D01*
X116549482Y-128475812D01*
X116669180Y-128439502D01*
X116760000Y-128390957D01*
X116850820Y-128439502D01*
X116970518Y-128475812D01*
X117095000Y-128488072D01*
X117695000Y-128488072D01*
X117819482Y-128475812D01*
X117939180Y-128439502D01*
X118049494Y-128380537D01*
X118146185Y-128301185D01*
X118225537Y-128204494D01*
X118284502Y-128094180D01*
X118320812Y-127974482D01*
X118333072Y-127850000D01*
X118333072Y-125650000D01*
X118320812Y-125525518D01*
X118284502Y-125405820D01*
X118225537Y-125295506D01*
X118146185Y-125198815D01*
X118049494Y-125119463D01*
X117939180Y-125060498D01*
X117819482Y-125024188D01*
X117695000Y-125011928D01*
X117095000Y-125011928D01*
X116970518Y-125024188D01*
X116850820Y-125060498D01*
X116760000Y-125109043D01*
X116669180Y-125060498D01*
X116549482Y-125024188D01*
X116425000Y-125011928D01*
X115825000Y-125011928D01*
X115700518Y-125024188D01*
X115580820Y-125060498D01*
X115490000Y-125109043D01*
X115399180Y-125060498D01*
X115279482Y-125024188D01*
X115155000Y-125011928D01*
X114555000Y-125011928D01*
X114430518Y-125024188D01*
X114310820Y-125060498D01*
X114220000Y-125109043D01*
X114129180Y-125060498D01*
X114009482Y-125024188D01*
X113885000Y-125011928D01*
X113285000Y-125011928D01*
X113260456Y-125014345D01*
X118839503Y-119435300D01*
X123062667Y-119435300D01*
X123100000Y-119438977D01*
X123137333Y-119435300D01*
X123248986Y-119424303D01*
X123392247Y-119380846D01*
X123524276Y-119310274D01*
X123640001Y-119215301D01*
X123734974Y-119099576D01*
X123805546Y-118967547D01*
X123805933Y-118966271D01*
X123894180Y-118939502D01*
X124004494Y-118880537D01*
X124101185Y-118801185D01*
X124180537Y-118704494D01*
X124239502Y-118594180D01*
X124275812Y-118474482D01*
X124288072Y-118350000D01*
X125611928Y-118350000D01*
X125624188Y-118474482D01*
X125660498Y-118594180D01*
X125719463Y-118704494D01*
X125798815Y-118801185D01*
X125895506Y-118880537D01*
X126005820Y-118939502D01*
X126125518Y-118975812D01*
X126250000Y-118988072D01*
X126514250Y-118985000D01*
X126673000Y-118826250D01*
X126673000Y-117577000D01*
X125773750Y-117577000D01*
X125615000Y-117735750D01*
X125611928Y-118350000D01*
X124288072Y-118350000D01*
X124288072Y-116550000D01*
X125611928Y-116550000D01*
X125615000Y-117164250D01*
X125773750Y-117323000D01*
X126673000Y-117323000D01*
X126673000Y-116073750D01*
X126514250Y-115915000D01*
X126250000Y-115911928D01*
X126125518Y-115924188D01*
X126005820Y-115960498D01*
X125895506Y-116019463D01*
X125798815Y-116098815D01*
X125719463Y-116195506D01*
X125660498Y-116305820D01*
X125624188Y-116425518D01*
X125611928Y-116550000D01*
X124288072Y-116550000D01*
X124275812Y-116425518D01*
X124239502Y-116305820D01*
X124180537Y-116195506D01*
X124101185Y-116098815D01*
X124004494Y-116019463D01*
X123894180Y-115960498D01*
X123860000Y-115950130D01*
X123860000Y-112749870D01*
X123894180Y-112739502D01*
X124004494Y-112680537D01*
X124101185Y-112601185D01*
X124180537Y-112504494D01*
X124239502Y-112394180D01*
X124275812Y-112274482D01*
X124288072Y-112150000D01*
X125611928Y-112150000D01*
X125624188Y-112274482D01*
X125660498Y-112394180D01*
X125719463Y-112504494D01*
X125798815Y-112601185D01*
X125895506Y-112680537D01*
X126005820Y-112739502D01*
X126125518Y-112775812D01*
X126250000Y-112788072D01*
X126514250Y-112785000D01*
X126673000Y-112626250D01*
X126673000Y-111377000D01*
X125773750Y-111377000D01*
X125615000Y-111535750D01*
X125611928Y-112150000D01*
X124288072Y-112150000D01*
X124288072Y-110350000D01*
X125611928Y-110350000D01*
X125615000Y-110964250D01*
X125773750Y-111123000D01*
X126673000Y-111123000D01*
X126673000Y-109873750D01*
X126514250Y-109715000D01*
X126250000Y-109711928D01*
X126125518Y-109724188D01*
X126005820Y-109760498D01*
X125895506Y-109819463D01*
X125798815Y-109898815D01*
X125719463Y-109995506D01*
X125660498Y-110105820D01*
X125624188Y-110225518D01*
X125611928Y-110350000D01*
X124288072Y-110350000D01*
X124275812Y-110225518D01*
X124239502Y-110105820D01*
X124180537Y-109995506D01*
X124101185Y-109898815D01*
X124004494Y-109819463D01*
X123894180Y-109760498D01*
X123805933Y-109733729D01*
X123805546Y-109732453D01*
X123801128Y-109724188D01*
X123734974Y-109600423D01*
X123663799Y-109513697D01*
X123640001Y-109484699D01*
X123611003Y-109460901D01*
X121741904Y-107591803D01*
X121718101Y-107562799D01*
X121602376Y-107467826D01*
X121470347Y-107397254D01*
X121327086Y-107353797D01*
X121215433Y-107342800D01*
X121215422Y-107342800D01*
X121178100Y-107339124D01*
X121140778Y-107342800D01*
X119853701Y-107342800D01*
X124836502Y-102360000D01*
X126621289Y-102360000D01*
X126665226Y-102403937D01*
X126834744Y-102517205D01*
X127023102Y-102595226D01*
X127223061Y-102635000D01*
X127426939Y-102635000D01*
X127626898Y-102595226D01*
X127815256Y-102517205D01*
X127984774Y-102403937D01*
X128046554Y-102342157D01*
X128167247Y-102305546D01*
X128299276Y-102234974D01*
X128415001Y-102140001D01*
X128438803Y-102110998D01*
X129058002Y-101491800D01*
X129087001Y-101468001D01*
X129181974Y-101352276D01*
X129252546Y-101220247D01*
X129296003Y-101076986D01*
X129307000Y-100965333D01*
X129310677Y-100928000D01*
X129307000Y-100890667D01*
X129307000Y-98916585D01*
X129310677Y-98879306D01*
X129307000Y-98841922D01*
X129307000Y-98841867D01*
X129302582Y-98797007D01*
X129296023Y-98730318D01*
X129296009Y-98730270D01*
X129296003Y-98730214D01*
X129273747Y-98656845D01*
X129252587Y-98587052D01*
X129252562Y-98587005D01*
X129252546Y-98586953D01*
X129217292Y-98520998D01*
X129182033Y-98455012D01*
X129181999Y-98454970D01*
X129181974Y-98454924D01*
X129135308Y-98398061D01*
X129110871Y-98368276D01*
X129110831Y-98368236D01*
X129087001Y-98339199D01*
X129058047Y-98315437D01*
X128393834Y-97651040D01*
X128370001Y-97621999D01*
X128309448Y-97572304D01*
X128254364Y-97527086D01*
X128254321Y-97527063D01*
X128254276Y-97527026D01*
X128182493Y-97488657D01*
X128122344Y-97456495D01*
X128122297Y-97456481D01*
X128122247Y-97456454D01*
X128059120Y-97437305D01*
X128200000Y-97438072D01*
X128324482Y-97425812D01*
X128444180Y-97389502D01*
X128554494Y-97330537D01*
X128651185Y-97251185D01*
X128730537Y-97154494D01*
X128789502Y-97044180D01*
X128825812Y-96924482D01*
X128838072Y-96800000D01*
X128835000Y-96235750D01*
X128676250Y-96077000D01*
X127477000Y-96077000D01*
X127477000Y-96097000D01*
X127223000Y-96097000D01*
X127223000Y-96077000D01*
X127203000Y-96077000D01*
X127203000Y-95823000D01*
X127223000Y-95823000D01*
X127223000Y-94623750D01*
X127477000Y-94623750D01*
X127477000Y-95823000D01*
X128676250Y-95823000D01*
X128835000Y-95664250D01*
X128836141Y-95454495D01*
X131215000Y-95454495D01*
X131215000Y-95845505D01*
X131291282Y-96229003D01*
X131440915Y-96590250D01*
X131658149Y-96915364D01*
X131934636Y-97191851D01*
X132259750Y-97409085D01*
X132620997Y-97558718D01*
X133004495Y-97635000D01*
X133395505Y-97635000D01*
X133779003Y-97558718D01*
X134140250Y-97409085D01*
X134465364Y-97191851D01*
X134741851Y-96915364D01*
X134959085Y-96590250D01*
X135108718Y-96229003D01*
X135185000Y-95845505D01*
X135185000Y-95454495D01*
X135108718Y-95070997D01*
X134959085Y-94709750D01*
X134741851Y-94384636D01*
X134465364Y-94108149D01*
X134140250Y-93890915D01*
X133779003Y-93741282D01*
X133395505Y-93665000D01*
X133004495Y-93665000D01*
X132620997Y-93741282D01*
X132259750Y-93890915D01*
X131934636Y-94108149D01*
X131658149Y-94384636D01*
X131440915Y-94709750D01*
X131291282Y-95070997D01*
X131215000Y-95454495D01*
X128836141Y-95454495D01*
X128838072Y-95100000D01*
X128825812Y-94975518D01*
X128789502Y-94855820D01*
X128730537Y-94745506D01*
X128651185Y-94648815D01*
X128554494Y-94569463D01*
X128444180Y-94510498D01*
X128324482Y-94474188D01*
X128200000Y-94461928D01*
X127635750Y-94465000D01*
X127477000Y-94623750D01*
X127223000Y-94623750D01*
X127064250Y-94465000D01*
X126500000Y-94461928D01*
X126375518Y-94474188D01*
X126255820Y-94510498D01*
X126177991Y-94552099D01*
X125362772Y-93737064D01*
X125339001Y-93708099D01*
X125309969Y-93684273D01*
X125309939Y-93684243D01*
X125283000Y-93662140D01*
X125223276Y-93613126D01*
X125223234Y-93613103D01*
X125223204Y-93613079D01*
X125163437Y-93581141D01*
X125091247Y-93542554D01*
X125091202Y-93542540D01*
X125091166Y-93542521D01*
X125024861Y-93522416D01*
X124947986Y-93499097D01*
X124947938Y-93499092D01*
X124947901Y-93499081D01*
X124881535Y-93492552D01*
X124836333Y-93488100D01*
X124836280Y-93488100D01*
X124798914Y-93484424D01*
X124761633Y-93488100D01*
X107065280Y-93488100D01*
X107027914Y-93484424D01*
X106959329Y-93491187D01*
X106879014Y-93499097D01*
X106878971Y-93499110D01*
X106878930Y-93499114D01*
X106809573Y-93520161D01*
X106735753Y-93542554D01*
X106735714Y-93542575D01*
X106735674Y-93542587D01*
X106671529Y-93576883D01*
X106603724Y-93613126D01*
X106603691Y-93613153D01*
X106603652Y-93613174D01*
X106545076Y-93661257D01*
X106487999Y-93708099D01*
X106464174Y-93737130D01*
X105417678Y-94783860D01*
X105193411Y-94634010D01*
X104923158Y-94522068D01*
X104636260Y-94465000D01*
X104343740Y-94465000D01*
X104056842Y-94522068D01*
X103786589Y-94634010D01*
X103543368Y-94796525D01*
X103336525Y-95003368D01*
X103220000Y-95177760D01*
X103103475Y-95003368D01*
X102896632Y-94796525D01*
X102653411Y-94634010D01*
X102383158Y-94522068D01*
X102096260Y-94465000D01*
X101803740Y-94465000D01*
X101516842Y-94522068D01*
X101246589Y-94634010D01*
X101003368Y-94796525D01*
X100796525Y-95003368D01*
X100680000Y-95177760D01*
X100563475Y-95003368D01*
X100356632Y-94796525D01*
X100113411Y-94634010D01*
X99843158Y-94522068D01*
X99556260Y-94465000D01*
X99263740Y-94465000D01*
X98976842Y-94522068D01*
X98706589Y-94634010D01*
X98463368Y-94796525D01*
X98256525Y-95003368D01*
X98140000Y-95177760D01*
X98023475Y-95003368D01*
X97816632Y-94796525D01*
X97573411Y-94634010D01*
X97303158Y-94522068D01*
X97016260Y-94465000D01*
X96723740Y-94465000D01*
X96436842Y-94522068D01*
X96166589Y-94634010D01*
X95923368Y-94796525D01*
X95716525Y-95003368D01*
X95600000Y-95177760D01*
X95483475Y-95003368D01*
X95276632Y-94796525D01*
X95033411Y-94634010D01*
X94763158Y-94522068D01*
X94476260Y-94465000D01*
X94183740Y-94465000D01*
X93896842Y-94522068D01*
X93626589Y-94634010D01*
X93383368Y-94796525D01*
X93176525Y-95003368D01*
X93060000Y-95177760D01*
X92943475Y-95003368D01*
X92736632Y-94796525D01*
X92493411Y-94634010D01*
X92223158Y-94522068D01*
X91936260Y-94465000D01*
X91643740Y-94465000D01*
X91356842Y-94522068D01*
X91086589Y-94634010D01*
X90843368Y-94796525D01*
X90636525Y-95003368D01*
X90520000Y-95177760D01*
X90403475Y-95003368D01*
X90196632Y-94796525D01*
X89953411Y-94634010D01*
X89683158Y-94522068D01*
X89396260Y-94465000D01*
X89103740Y-94465000D01*
X88816842Y-94522068D01*
X88546589Y-94634010D01*
X88303368Y-94796525D01*
X88149697Y-94950196D01*
X86991304Y-93791803D01*
X86967501Y-93762799D01*
X86851776Y-93667826D01*
X86719747Y-93597254D01*
X86576486Y-93553797D01*
X86464833Y-93542800D01*
X86464822Y-93542800D01*
X86427500Y-93539124D01*
X86390178Y-93542800D01*
X85533601Y-93542800D01*
X85341604Y-93350803D01*
X85322069Y-93327000D01*
X129150000Y-93327000D01*
X129174776Y-93324560D01*
X129198601Y-93317333D01*
X129220557Y-93305597D01*
X129239803Y-93289803D01*
X129255597Y-93270557D01*
X129267333Y-93248601D01*
X129274560Y-93224776D01*
X129277000Y-93200000D01*
X129277000Y-92660000D01*
X132817722Y-92660000D01*
X133498126Y-92726714D01*
G37*
X133498126Y-92726714D02*
X134121572Y-92914943D01*
X134696579Y-93220681D01*
X135201247Y-93632279D01*
X135616362Y-94134067D01*
X135926105Y-94706924D01*
X136118682Y-95329039D01*
X136190001Y-96007594D01*
X136190001Y-105723000D01*
X136150000Y-105723000D01*
X136125224Y-105725440D01*
X136101399Y-105732667D01*
X136079443Y-105744403D01*
X136060197Y-105760197D01*
X136044403Y-105779443D01*
X136032667Y-105801399D01*
X136025440Y-105825224D01*
X136023000Y-105850000D01*
X136023000Y-121746134D01*
X135835750Y-121747000D01*
X135677000Y-121905750D01*
X135677000Y-122955000D01*
X135697000Y-122955000D01*
X135697000Y-123209000D01*
X135677000Y-123209000D01*
X135677000Y-124258250D01*
X135835750Y-124417000D01*
X136190000Y-124418638D01*
X136190000Y-133057199D01*
X135904000Y-132771199D01*
X135904000Y-127027322D01*
X135907676Y-126989999D01*
X135904000Y-126952676D01*
X135904000Y-126952667D01*
X135893003Y-126841014D01*
X135849546Y-126697753D01*
X135832621Y-126666089D01*
X135778974Y-126565723D01*
X135707799Y-126478997D01*
X135684001Y-126449999D01*
X135655003Y-126426201D01*
X133010802Y-123782000D01*
X133961928Y-123782000D01*
X133974188Y-123906482D01*
X134010498Y-124026180D01*
X134069463Y-124136494D01*
X134148815Y-124233185D01*
X134245506Y-124312537D01*
X134355820Y-124371502D01*
X134475518Y-124407812D01*
X134600000Y-124420072D01*
X135264250Y-124417000D01*
X135423000Y-124258250D01*
X135423000Y-123209000D01*
X134123750Y-123209000D01*
X133965000Y-123367750D01*
X133961928Y-123782000D01*
X133010802Y-123782000D01*
X131479722Y-122250921D01*
X133981496Y-122233426D01*
X133974188Y-122257518D01*
X133961928Y-122382000D01*
X133965000Y-122796250D01*
X134123750Y-122955000D01*
X135423000Y-122955000D01*
X135423000Y-121905750D01*
X135264250Y-121747000D01*
X135027000Y-121745903D01*
X135027000Y-105800000D01*
X135024383Y-105774353D01*
X135016990Y-105750580D01*
X135005101Y-105728706D01*
X134989172Y-105709572D01*
X134969817Y-105693913D01*
X134947779Y-105682330D01*
X134923905Y-105675270D01*
X134899112Y-105673003D01*
X127749112Y-105723003D01*
X127725224Y-105725440D01*
X127701399Y-105732667D01*
X127679443Y-105744403D01*
X127660197Y-105760197D01*
X127644403Y-105779443D01*
X127632667Y-105801399D01*
X127625440Y-105825224D01*
X127623000Y-105850000D01*
X127623000Y-109775903D01*
X127594180Y-109760498D01*
X127474482Y-109724188D01*
X127350000Y-109711928D01*
X127085750Y-109715000D01*
X126927000Y-109873750D01*
X126927000Y-111123000D01*
X126947000Y-111123000D01*
X126947000Y-111377000D01*
X126927000Y-111377000D01*
X126927000Y-112626250D01*
X127085750Y-112785000D01*
X127350000Y-112788072D01*
X127474482Y-112775812D01*
X127594180Y-112739502D01*
X127623000Y-112724097D01*
X127623000Y-115975903D01*
X127594180Y-115960498D01*
X127474482Y-115924188D01*
X127350000Y-115911928D01*
X127085750Y-115915000D01*
X126927000Y-116073750D01*
X126927000Y-117323000D01*
X126947000Y-117323000D01*
X126947000Y-117577000D01*
X126927000Y-117577000D01*
X126927000Y-118826250D01*
X127085750Y-118985000D01*
X127350000Y-118988072D01*
X127474482Y-118975812D01*
X127594180Y-118939502D01*
X127623000Y-118924097D01*
X127623000Y-121715010D01*
X127468127Y-121715010D01*
X126049271Y-120296155D01*
X126103226Y-120165898D01*
X126143000Y-119965939D01*
X126143000Y-119762061D01*
X126103226Y-119562102D01*
X126025205Y-119373744D01*
X125911937Y-119204226D01*
X125767774Y-119060063D01*
X125598256Y-118946795D01*
X125409898Y-118868774D01*
X125209939Y-118829000D01*
X125006061Y-118829000D01*
X124806102Y-118868774D01*
X124617744Y-118946795D01*
X124448226Y-119060063D01*
X124304063Y-119204226D01*
X124190795Y-119373744D01*
X124112774Y-119562102D01*
X124073000Y-119762061D01*
X124073000Y-119965939D01*
X124112774Y-120165898D01*
X124190795Y-120354256D01*
X124304063Y-120523774D01*
X124359014Y-120578725D01*
X124401835Y-120719890D01*
X124402454Y-120721931D01*
X124473026Y-120853961D01*
X124501024Y-120888076D01*
X124567999Y-120969686D01*
X124597003Y-120993489D01*
X126589525Y-122986012D01*
X126613324Y-123015011D01*
X126729049Y-123109984D01*
X126861078Y-123180556D01*
X127004339Y-123224013D01*
X127115992Y-123235010D01*
X127116001Y-123235010D01*
X127153324Y-123238686D01*
X127190647Y-123235010D01*
X130314209Y-123235010D01*
X132224188Y-125144989D01*
X121892923Y-125144989D01*
X121855598Y-125141313D01*
X121818273Y-125144989D01*
X121818265Y-125144989D01*
X121706612Y-125155986D01*
X121563351Y-125199443D01*
X121431322Y-125270015D01*
X121315597Y-125364988D01*
X121291799Y-125393986D01*
X119011998Y-127673788D01*
X118983000Y-127697586D01*
X118959202Y-127726584D01*
X118959201Y-127726585D01*
X118888026Y-127813311D01*
X118817454Y-127945341D01*
X118792892Y-128026314D01*
X118773998Y-128088601D01*
X118767657Y-128152986D01*
X118759324Y-128237587D01*
X118763001Y-128274919D01*
X118763000Y-130278762D01*
X118748518Y-130280188D01*
X118693728Y-130296808D01*
X118661026Y-130132402D01*
X118583005Y-129944044D01*
X118469737Y-129774526D01*
X118325574Y-129630363D01*
X118156056Y-129517095D01*
X117967698Y-129439074D01*
X117767739Y-129399300D01*
X117563861Y-129399300D01*
X117363902Y-129439074D01*
X117175544Y-129517095D01*
X117006026Y-129630363D01*
X116861863Y-129774526D01*
X116748595Y-129944044D01*
X116670574Y-130132402D01*
X116630800Y-130332361D01*
X116630800Y-130394498D01*
X115710299Y-131315000D01*
X106214802Y-131315000D01*
X104885000Y-129985199D01*
X104885000Y-129923061D01*
X104845226Y-129723102D01*
X104770625Y-129543000D01*
X106134299Y-129543000D01*
X106335596Y-129744297D01*
X106359399Y-129773301D01*
X106475124Y-129868274D01*
X106607153Y-129938846D01*
X106750414Y-129982303D01*
X106862067Y-129993300D01*
X106862076Y-129993300D01*
X106899399Y-129996976D01*
X106936722Y-129993300D01*
X110038978Y-129993300D01*
X110076300Y-129996976D01*
X110113622Y-129993300D01*
X110113633Y-129993300D01*
X110225286Y-129982303D01*
X110368547Y-129938846D01*
X110500576Y-129868274D01*
X110616301Y-129773301D01*
X110640104Y-129744297D01*
X110841401Y-129543000D01*
X110879078Y-129543000D01*
X110916400Y-129546676D01*
X110953722Y-129543000D01*
X110953733Y-129543000D01*
X111065386Y-129532003D01*
X111208647Y-129488546D01*
X111340676Y-129417974D01*
X111456401Y-129323001D01*
X111480203Y-129293998D01*
X112201004Y-128573198D01*
X112230001Y-128549401D01*
X112324974Y-128433676D01*
X112395546Y-128301647D01*
X112439003Y-128158386D01*
X112442000Y-128127957D01*
X112442000Y-128326250D01*
X112600750Y-128485000D01*
X112615000Y-128488072D01*
X112739482Y-128475812D01*
X112859180Y-128439502D01*
X112950000Y-128390957D01*
X113040820Y-128439502D01*
X113160518Y-128475812D01*
X113285000Y-128488072D01*
X113885000Y-128488072D01*
X114009482Y-128475812D01*
X114129180Y-128439502D01*
X114220000Y-128390957D01*
X114310820Y-128439502D01*
X114430518Y-128475812D01*
X114555000Y-128488072D01*
X115155000Y-128488072D01*
X115279482Y-128475812D01*
X115399180Y-128439502D01*
X115490000Y-128390957D01*
X115580820Y-128439502D01*
X115700518Y-128475812D01*
X115825000Y-128488072D01*
X116425000Y-128488072D01*
X116549482Y-128475812D01*
X116669180Y-128439502D01*
X116760000Y-128390957D01*
X116850820Y-128439502D01*
X116970518Y-128475812D01*
X117095000Y-128488072D01*
X117695000Y-128488072D01*
X117819482Y-128475812D01*
X117939180Y-128439502D01*
X118049494Y-128380537D01*
X118146185Y-128301185D01*
X118225537Y-128204494D01*
X118284502Y-128094180D01*
X118320812Y-127974482D01*
X118333072Y-127850000D01*
X118333072Y-125650000D01*
X118320812Y-125525518D01*
X118284502Y-125405820D01*
X118225537Y-125295506D01*
X118146185Y-125198815D01*
X118049494Y-125119463D01*
X117939180Y-125060498D01*
X117819482Y-125024188D01*
X117695000Y-125011928D01*
X117095000Y-125011928D01*
X116970518Y-125024188D01*
X116850820Y-125060498D01*
X116760000Y-125109043D01*
X116669180Y-125060498D01*
X116549482Y-125024188D01*
X116425000Y-125011928D01*
X115825000Y-125011928D01*
X115700518Y-125024188D01*
X115580820Y-125060498D01*
X115490000Y-125109043D01*
X115399180Y-125060498D01*
X115279482Y-125024188D01*
X115155000Y-125011928D01*
X114555000Y-125011928D01*
X114430518Y-125024188D01*
X114310820Y-125060498D01*
X114220000Y-125109043D01*
X114129180Y-125060498D01*
X114009482Y-125024188D01*
X113885000Y-125011928D01*
X113285000Y-125011928D01*
X113260456Y-125014345D01*
X118839503Y-119435300D01*
X123062667Y-119435300D01*
X123100000Y-119438977D01*
X123137333Y-119435300D01*
X123248986Y-119424303D01*
X123392247Y-119380846D01*
X123524276Y-119310274D01*
X123640001Y-119215301D01*
X123734974Y-119099576D01*
X123805546Y-118967547D01*
X123805933Y-118966271D01*
X123894180Y-118939502D01*
X124004494Y-118880537D01*
X124101185Y-118801185D01*
X124180537Y-118704494D01*
X124239502Y-118594180D01*
X124275812Y-118474482D01*
X124288072Y-118350000D01*
X125611928Y-118350000D01*
X125624188Y-118474482D01*
X125660498Y-118594180D01*
X125719463Y-118704494D01*
X125798815Y-118801185D01*
X125895506Y-118880537D01*
X126005820Y-118939502D01*
X126125518Y-118975812D01*
X126250000Y-118988072D01*
X126514250Y-118985000D01*
X126673000Y-118826250D01*
X126673000Y-117577000D01*
X125773750Y-117577000D01*
X125615000Y-117735750D01*
X125611928Y-118350000D01*
X124288072Y-118350000D01*
X124288072Y-116550000D01*
X125611928Y-116550000D01*
X125615000Y-117164250D01*
X125773750Y-117323000D01*
X126673000Y-117323000D01*
X126673000Y-116073750D01*
X126514250Y-115915000D01*
X126250000Y-115911928D01*
X126125518Y-115924188D01*
X126005820Y-115960498D01*
X125895506Y-116019463D01*
X125798815Y-116098815D01*
X125719463Y-116195506D01*
X125660498Y-116305820D01*
X125624188Y-116425518D01*
X125611928Y-116550000D01*
X124288072Y-116550000D01*
X124275812Y-116425518D01*
X124239502Y-116305820D01*
X124180537Y-116195506D01*
X124101185Y-116098815D01*
X124004494Y-116019463D01*
X123894180Y-115960498D01*
X123860000Y-115950130D01*
X123860000Y-112749870D01*
X123894180Y-112739502D01*
X124004494Y-112680537D01*
X124101185Y-112601185D01*
X124180537Y-112504494D01*
X124239502Y-112394180D01*
X124275812Y-112274482D01*
X124288072Y-112150000D01*
X125611928Y-112150000D01*
X125624188Y-112274482D01*
X125660498Y-112394180D01*
X125719463Y-112504494D01*
X125798815Y-112601185D01*
X125895506Y-112680537D01*
X126005820Y-112739502D01*
X126125518Y-112775812D01*
X126250000Y-112788072D01*
X126514250Y-112785000D01*
X126673000Y-112626250D01*
X126673000Y-111377000D01*
X125773750Y-111377000D01*
X125615000Y-111535750D01*
X125611928Y-112150000D01*
X124288072Y-112150000D01*
X124288072Y-110350000D01*
X125611928Y-110350000D01*
X125615000Y-110964250D01*
X125773750Y-111123000D01*
X126673000Y-111123000D01*
X126673000Y-109873750D01*
X126514250Y-109715000D01*
X126250000Y-109711928D01*
X126125518Y-109724188D01*
X126005820Y-109760498D01*
X125895506Y-109819463D01*
X125798815Y-109898815D01*
X125719463Y-109995506D01*
X125660498Y-110105820D01*
X125624188Y-110225518D01*
X125611928Y-110350000D01*
X124288072Y-110350000D01*
X124275812Y-110225518D01*
X124239502Y-110105820D01*
X124180537Y-109995506D01*
X124101185Y-109898815D01*
X124004494Y-109819463D01*
X123894180Y-109760498D01*
X123805933Y-109733729D01*
X123805546Y-109732453D01*
X123801128Y-109724188D01*
X123734974Y-109600423D01*
X123663799Y-109513697D01*
X123640001Y-109484699D01*
X123611003Y-109460901D01*
X121741904Y-107591803D01*
X121718101Y-107562799D01*
X121602376Y-107467826D01*
X121470347Y-107397254D01*
X121327086Y-107353797D01*
X121215433Y-107342800D01*
X121215422Y-107342800D01*
X121178100Y-107339124D01*
X121140778Y-107342800D01*
X119853701Y-107342800D01*
X124836502Y-102360000D01*
X126621289Y-102360000D01*
X126665226Y-102403937D01*
X126834744Y-102517205D01*
X127023102Y-102595226D01*
X127223061Y-102635000D01*
X127426939Y-102635000D01*
X127626898Y-102595226D01*
X127815256Y-102517205D01*
X127984774Y-102403937D01*
X128046554Y-102342157D01*
X128167247Y-102305546D01*
X128299276Y-102234974D01*
X128415001Y-102140001D01*
X128438803Y-102110998D01*
X129058002Y-101491800D01*
X129087001Y-101468001D01*
X129181974Y-101352276D01*
X129252546Y-101220247D01*
X129296003Y-101076986D01*
X129307000Y-100965333D01*
X129310677Y-100928000D01*
X129307000Y-100890667D01*
X129307000Y-98916585D01*
X129310677Y-98879306D01*
X129307000Y-98841922D01*
X129307000Y-98841867D01*
X129302582Y-98797007D01*
X129296023Y-98730318D01*
X129296009Y-98730270D01*
X129296003Y-98730214D01*
X129273747Y-98656845D01*
X129252587Y-98587052D01*
X129252562Y-98587005D01*
X129252546Y-98586953D01*
X129217292Y-98520998D01*
X129182033Y-98455012D01*
X129181999Y-98454970D01*
X129181974Y-98454924D01*
X129135308Y-98398061D01*
X129110871Y-98368276D01*
X129110831Y-98368236D01*
X129087001Y-98339199D01*
X129058047Y-98315437D01*
X128393834Y-97651040D01*
X128370001Y-97621999D01*
X128309448Y-97572304D01*
X128254364Y-97527086D01*
X128254321Y-97527063D01*
X128254276Y-97527026D01*
X128182493Y-97488657D01*
X128122344Y-97456495D01*
X128122297Y-97456481D01*
X128122247Y-97456454D01*
X128059120Y-97437305D01*
X128200000Y-97438072D01*
X128324482Y-97425812D01*
X128444180Y-97389502D01*
X128554494Y-97330537D01*
X128651185Y-97251185D01*
X128730537Y-97154494D01*
X128789502Y-97044180D01*
X128825812Y-96924482D01*
X128838072Y-96800000D01*
X128835000Y-96235750D01*
X128676250Y-96077000D01*
X127477000Y-96077000D01*
X127477000Y-96097000D01*
X127223000Y-96097000D01*
X127223000Y-96077000D01*
X127203000Y-96077000D01*
X127203000Y-95823000D01*
X127223000Y-95823000D01*
X127223000Y-94623750D01*
X127477000Y-94623750D01*
X127477000Y-95823000D01*
X128676250Y-95823000D01*
X128835000Y-95664250D01*
X128836141Y-95454495D01*
X131215000Y-95454495D01*
X131215000Y-95845505D01*
X131291282Y-96229003D01*
X131440915Y-96590250D01*
X131658149Y-96915364D01*
X131934636Y-97191851D01*
X132259750Y-97409085D01*
X132620997Y-97558718D01*
X133004495Y-97635000D01*
X133395505Y-97635000D01*
X133779003Y-97558718D01*
X134140250Y-97409085D01*
X134465364Y-97191851D01*
X134741851Y-96915364D01*
X134959085Y-96590250D01*
X135108718Y-96229003D01*
X135185000Y-95845505D01*
X135185000Y-95454495D01*
X135108718Y-95070997D01*
X134959085Y-94709750D01*
X134741851Y-94384636D01*
X134465364Y-94108149D01*
X134140250Y-93890915D01*
X133779003Y-93741282D01*
X133395505Y-93665000D01*
X133004495Y-93665000D01*
X132620997Y-93741282D01*
X132259750Y-93890915D01*
X131934636Y-94108149D01*
X131658149Y-94384636D01*
X131440915Y-94709750D01*
X131291282Y-95070997D01*
X131215000Y-95454495D01*
X128836141Y-95454495D01*
X128838072Y-95100000D01*
X128825812Y-94975518D01*
X128789502Y-94855820D01*
X128730537Y-94745506D01*
X128651185Y-94648815D01*
X128554494Y-94569463D01*
X128444180Y-94510498D01*
X128324482Y-94474188D01*
X128200000Y-94461928D01*
X127635750Y-94465000D01*
X127477000Y-94623750D01*
X127223000Y-94623750D01*
X127064250Y-94465000D01*
X126500000Y-94461928D01*
X126375518Y-94474188D01*
X126255820Y-94510498D01*
X126177991Y-94552099D01*
X125362772Y-93737064D01*
X125339001Y-93708099D01*
X125309969Y-93684273D01*
X125309939Y-93684243D01*
X125283000Y-93662140D01*
X125223276Y-93613126D01*
X125223234Y-93613103D01*
X125223204Y-93613079D01*
X125163437Y-93581141D01*
X125091247Y-93542554D01*
X125091202Y-93542540D01*
X125091166Y-93542521D01*
X125024861Y-93522416D01*
X124947986Y-93499097D01*
X124947938Y-93499092D01*
X124947901Y-93499081D01*
X124881535Y-93492552D01*
X124836333Y-93488100D01*
X124836280Y-93488100D01*
X124798914Y-93484424D01*
X124761633Y-93488100D01*
X107065280Y-93488100D01*
X107027914Y-93484424D01*
X106959329Y-93491187D01*
X106879014Y-93499097D01*
X106878971Y-93499110D01*
X106878930Y-93499114D01*
X106809573Y-93520161D01*
X106735753Y-93542554D01*
X106735714Y-93542575D01*
X106735674Y-93542587D01*
X106671529Y-93576883D01*
X106603724Y-93613126D01*
X106603691Y-93613153D01*
X106603652Y-93613174D01*
X106545076Y-93661257D01*
X106487999Y-93708099D01*
X106464174Y-93737130D01*
X105417678Y-94783860D01*
X105193411Y-94634010D01*
X104923158Y-94522068D01*
X104636260Y-94465000D01*
X104343740Y-94465000D01*
X104056842Y-94522068D01*
X103786589Y-94634010D01*
X103543368Y-94796525D01*
X103336525Y-95003368D01*
X103220000Y-95177760D01*
X103103475Y-95003368D01*
X102896632Y-94796525D01*
X102653411Y-94634010D01*
X102383158Y-94522068D01*
X102096260Y-94465000D01*
X101803740Y-94465000D01*
X101516842Y-94522068D01*
X101246589Y-94634010D01*
X101003368Y-94796525D01*
X100796525Y-95003368D01*
X100680000Y-95177760D01*
X100563475Y-95003368D01*
X100356632Y-94796525D01*
X100113411Y-94634010D01*
X99843158Y-94522068D01*
X99556260Y-94465000D01*
X99263740Y-94465000D01*
X98976842Y-94522068D01*
X98706589Y-94634010D01*
X98463368Y-94796525D01*
X98256525Y-95003368D01*
X98140000Y-95177760D01*
X98023475Y-95003368D01*
X97816632Y-94796525D01*
X97573411Y-94634010D01*
X97303158Y-94522068D01*
X97016260Y-94465000D01*
X96723740Y-94465000D01*
X96436842Y-94522068D01*
X96166589Y-94634010D01*
X95923368Y-94796525D01*
X95716525Y-95003368D01*
X95600000Y-95177760D01*
X95483475Y-95003368D01*
X95276632Y-94796525D01*
X95033411Y-94634010D01*
X94763158Y-94522068D01*
X94476260Y-94465000D01*
X94183740Y-94465000D01*
X93896842Y-94522068D01*
X93626589Y-94634010D01*
X93383368Y-94796525D01*
X93176525Y-95003368D01*
X93060000Y-95177760D01*
X92943475Y-95003368D01*
X92736632Y-94796525D01*
X92493411Y-94634010D01*
X92223158Y-94522068D01*
X91936260Y-94465000D01*
X91643740Y-94465000D01*
X91356842Y-94522068D01*
X91086589Y-94634010D01*
X90843368Y-94796525D01*
X90636525Y-95003368D01*
X90520000Y-95177760D01*
X90403475Y-95003368D01*
X90196632Y-94796525D01*
X89953411Y-94634010D01*
X89683158Y-94522068D01*
X89396260Y-94465000D01*
X89103740Y-94465000D01*
X88816842Y-94522068D01*
X88546589Y-94634010D01*
X88303368Y-94796525D01*
X88149697Y-94950196D01*
X86991304Y-93791803D01*
X86967501Y-93762799D01*
X86851776Y-93667826D01*
X86719747Y-93597254D01*
X86576486Y-93553797D01*
X86464833Y-93542800D01*
X86464822Y-93542800D01*
X86427500Y-93539124D01*
X86390178Y-93542800D01*
X85533601Y-93542800D01*
X85341604Y-93350803D01*
X85322069Y-93327000D01*
X129150000Y-93327000D01*
X129174776Y-93324560D01*
X129198601Y-93317333D01*
X129220557Y-93305597D01*
X129239803Y-93289803D01*
X129255597Y-93270557D01*
X129267333Y-93248601D01*
X129274560Y-93224776D01*
X129277000Y-93200000D01*
X129277000Y-92660000D01*
X132817722Y-92660000D01*
X133498126Y-92726714D01*
G36*
X87967000Y-130223000D02*
G01*
X87987000Y-130223000D01*
X87987000Y-130477000D01*
X87967000Y-130477000D01*
X87967000Y-130497000D01*
X87713000Y-130497000D01*
X87713000Y-130477000D01*
X87693000Y-130477000D01*
X87693000Y-130223000D01*
X87713000Y-130223000D01*
X87713000Y-130203000D01*
X87967000Y-130203000D01*
X87967000Y-130223000D01*
G37*
X87967000Y-130223000D02*
X87987000Y-130223000D01*
X87987000Y-130477000D01*
X87967000Y-130477000D01*
X87967000Y-130497000D01*
X87713000Y-130497000D01*
X87713000Y-130477000D01*
X87693000Y-130477000D01*
X87693000Y-130223000D01*
X87713000Y-130223000D01*
X87713000Y-130203000D01*
X87967000Y-130203000D01*
X87967000Y-130223000D01*
G36*
X101771326Y-108752537D02*
G01*
X101940844Y-108865805D01*
X102129202Y-108943826D01*
X102329161Y-108983600D01*
X102391299Y-108983600D01*
X103709701Y-110302003D01*
X103733499Y-110331001D01*
X103762497Y-110354799D01*
X103849223Y-110425974D01*
X103962127Y-110486323D01*
X103981253Y-110496546D01*
X104124514Y-110540003D01*
X104236167Y-110551000D01*
X104236176Y-110551000D01*
X104273499Y-110554676D01*
X104310822Y-110551000D01*
X112732500Y-110551000D01*
X112732501Y-118369000D01*
X112627061Y-118369000D01*
X112427102Y-118408774D01*
X112238744Y-118486795D01*
X112069226Y-118600063D01*
X111925063Y-118744226D01*
X111811795Y-118913744D01*
X111733774Y-119102102D01*
X111694000Y-119302061D01*
X111694000Y-119363219D01*
X108021248Y-123036800D01*
X106860500Y-123036800D01*
X106860500Y-122923561D01*
X106829954Y-122769993D01*
X106989861Y-122801800D01*
X107193739Y-122801800D01*
X107393698Y-122762026D01*
X107582056Y-122684005D01*
X107751574Y-122570737D01*
X107895737Y-122426574D01*
X108009005Y-122257056D01*
X108087026Y-122068698D01*
X108126800Y-121868739D01*
X108126800Y-121664861D01*
X108087026Y-121464902D01*
X108009005Y-121276544D01*
X107895737Y-121107026D01*
X107751574Y-120962863D01*
X107582056Y-120849595D01*
X107393698Y-120771574D01*
X107193739Y-120731800D01*
X107131602Y-120731800D01*
X103927804Y-117528003D01*
X103904001Y-117498999D01*
X103788276Y-117404026D01*
X103656247Y-117333454D01*
X103512986Y-117289997D01*
X103401333Y-117279000D01*
X103401322Y-117279000D01*
X103364000Y-117275324D01*
X103326678Y-117279000D01*
X99795119Y-117279000D01*
X99904494Y-117220537D01*
X100001185Y-117141185D01*
X100080537Y-117044494D01*
X100139502Y-116934180D01*
X100175812Y-116814482D01*
X100188072Y-116690000D01*
X100188072Y-116130000D01*
X107281928Y-116130000D01*
X107294188Y-116254482D01*
X107330498Y-116374180D01*
X107389463Y-116484494D01*
X107468815Y-116581185D01*
X107565506Y-116660537D01*
X107675820Y-116719502D01*
X107795518Y-116755812D01*
X107920000Y-116768072D01*
X109614250Y-116765000D01*
X109773000Y-116606250D01*
X109773000Y-114277000D01*
X110027000Y-114277000D01*
X110027000Y-116606250D01*
X110185750Y-116765000D01*
X111880000Y-116768072D01*
X112004482Y-116755812D01*
X112124180Y-116719502D01*
X112234494Y-116660537D01*
X112331185Y-116581185D01*
X112410537Y-116484494D01*
X112469502Y-116374180D01*
X112505812Y-116254482D01*
X112518072Y-116130000D01*
X112515000Y-114435750D01*
X112356250Y-114277000D01*
X110027000Y-114277000D01*
X109773000Y-114277000D01*
X107443750Y-114277000D01*
X107285000Y-114435750D01*
X107281928Y-116130000D01*
X100188072Y-116130000D01*
X100188072Y-112191016D01*
X100293728Y-112170000D01*
X107281928Y-112170000D01*
X107285000Y-113864250D01*
X107443750Y-114023000D01*
X109773000Y-114023000D01*
X109773000Y-111693750D01*
X110027000Y-111693750D01*
X110027000Y-114023000D01*
X112356250Y-114023000D01*
X112515000Y-113864250D01*
X112518072Y-112170000D01*
X112505812Y-112045518D01*
X112469502Y-111925820D01*
X112410537Y-111815506D01*
X112331185Y-111718815D01*
X112234494Y-111639463D01*
X112124180Y-111580498D01*
X112004482Y-111544188D01*
X111880000Y-111531928D01*
X110185750Y-111535000D01*
X110027000Y-111693750D01*
X109773000Y-111693750D01*
X109614250Y-111535000D01*
X107920000Y-111531928D01*
X107795518Y-111544188D01*
X107675820Y-111580498D01*
X107565506Y-111639463D01*
X107468815Y-111718815D01*
X107389463Y-111815506D01*
X107330498Y-111925820D01*
X107294188Y-112045518D01*
X107281928Y-112170000D01*
X100293728Y-112170000D01*
X100366998Y-112155426D01*
X100555356Y-112077405D01*
X100724874Y-111964137D01*
X100869037Y-111819974D01*
X100982305Y-111650456D01*
X101060326Y-111462098D01*
X101100100Y-111262139D01*
X101100100Y-111058261D01*
X101060326Y-110858302D01*
X100982305Y-110669944D01*
X100869037Y-110500426D01*
X100825100Y-110456489D01*
X100825100Y-109571901D01*
X101707895Y-108689106D01*
X101771326Y-108752537D01*
G37*
X101771326Y-108752537D02*
X101940844Y-108865805D01*
X102129202Y-108943826D01*
X102329161Y-108983600D01*
X102391299Y-108983600D01*
X103709701Y-110302003D01*
X103733499Y-110331001D01*
X103762497Y-110354799D01*
X103849223Y-110425974D01*
X103962127Y-110486323D01*
X103981253Y-110496546D01*
X104124514Y-110540003D01*
X104236167Y-110551000D01*
X104236176Y-110551000D01*
X104273499Y-110554676D01*
X104310822Y-110551000D01*
X112732500Y-110551000D01*
X112732501Y-118369000D01*
X112627061Y-118369000D01*
X112427102Y-118408774D01*
X112238744Y-118486795D01*
X112069226Y-118600063D01*
X111925063Y-118744226D01*
X111811795Y-118913744D01*
X111733774Y-119102102D01*
X111694000Y-119302061D01*
X111694000Y-119363219D01*
X108021248Y-123036800D01*
X106860500Y-123036800D01*
X106860500Y-122923561D01*
X106829954Y-122769993D01*
X106989861Y-122801800D01*
X107193739Y-122801800D01*
X107393698Y-122762026D01*
X107582056Y-122684005D01*
X107751574Y-122570737D01*
X107895737Y-122426574D01*
X108009005Y-122257056D01*
X108087026Y-122068698D01*
X108126800Y-121868739D01*
X108126800Y-121664861D01*
X108087026Y-121464902D01*
X108009005Y-121276544D01*
X107895737Y-121107026D01*
X107751574Y-120962863D01*
X107582056Y-120849595D01*
X107393698Y-120771574D01*
X107193739Y-120731800D01*
X107131602Y-120731800D01*
X103927804Y-117528003D01*
X103904001Y-117498999D01*
X103788276Y-117404026D01*
X103656247Y-117333454D01*
X103512986Y-117289997D01*
X103401333Y-117279000D01*
X103401322Y-117279000D01*
X103364000Y-117275324D01*
X103326678Y-117279000D01*
X99795119Y-117279000D01*
X99904494Y-117220537D01*
X100001185Y-117141185D01*
X100080537Y-117044494D01*
X100139502Y-116934180D01*
X100175812Y-116814482D01*
X100188072Y-116690000D01*
X100188072Y-116130000D01*
X107281928Y-116130000D01*
X107294188Y-116254482D01*
X107330498Y-116374180D01*
X107389463Y-116484494D01*
X107468815Y-116581185D01*
X107565506Y-116660537D01*
X107675820Y-116719502D01*
X107795518Y-116755812D01*
X107920000Y-116768072D01*
X109614250Y-116765000D01*
X109773000Y-116606250D01*
X109773000Y-114277000D01*
X110027000Y-114277000D01*
X110027000Y-116606250D01*
X110185750Y-116765000D01*
X111880000Y-116768072D01*
X112004482Y-116755812D01*
X112124180Y-116719502D01*
X112234494Y-116660537D01*
X112331185Y-116581185D01*
X112410537Y-116484494D01*
X112469502Y-116374180D01*
X112505812Y-116254482D01*
X112518072Y-116130000D01*
X112515000Y-114435750D01*
X112356250Y-114277000D01*
X110027000Y-114277000D01*
X109773000Y-114277000D01*
X107443750Y-114277000D01*
X107285000Y-114435750D01*
X107281928Y-116130000D01*
X100188072Y-116130000D01*
X100188072Y-112191016D01*
X100293728Y-112170000D01*
X107281928Y-112170000D01*
X107285000Y-113864250D01*
X107443750Y-114023000D01*
X109773000Y-114023000D01*
X109773000Y-111693750D01*
X110027000Y-111693750D01*
X110027000Y-114023000D01*
X112356250Y-114023000D01*
X112515000Y-113864250D01*
X112518072Y-112170000D01*
X112505812Y-112045518D01*
X112469502Y-111925820D01*
X112410537Y-111815506D01*
X112331185Y-111718815D01*
X112234494Y-111639463D01*
X112124180Y-111580498D01*
X112004482Y-111544188D01*
X111880000Y-111531928D01*
X110185750Y-111535000D01*
X110027000Y-111693750D01*
X109773000Y-111693750D01*
X109614250Y-111535000D01*
X107920000Y-111531928D01*
X107795518Y-111544188D01*
X107675820Y-111580498D01*
X107565506Y-111639463D01*
X107468815Y-111718815D01*
X107389463Y-111815506D01*
X107330498Y-111925820D01*
X107294188Y-112045518D01*
X107281928Y-112170000D01*
X100293728Y-112170000D01*
X100366998Y-112155426D01*
X100555356Y-112077405D01*
X100724874Y-111964137D01*
X100869037Y-111819974D01*
X100982305Y-111650456D01*
X101060326Y-111462098D01*
X101100100Y-111262139D01*
X101100100Y-111058261D01*
X101060326Y-110858302D01*
X100982305Y-110669944D01*
X100869037Y-110500426D01*
X100825100Y-110456489D01*
X100825100Y-109571901D01*
X101707895Y-108689106D01*
X101771326Y-108752537D01*
G36*
X97641928Y-116690000D02*
G01*
X97654188Y-116814482D01*
X97690498Y-116934180D01*
X97749463Y-117044494D01*
X97828815Y-117141185D01*
X97925506Y-117220537D01*
X98034881Y-117279000D01*
X96885948Y-117279000D01*
X96885000Y-117135750D01*
X96726250Y-116977000D01*
X95377000Y-116977000D01*
X95377000Y-116997000D01*
X95123000Y-116997000D01*
X95123000Y-116977000D01*
X95103000Y-116977000D01*
X95103000Y-116723000D01*
X95123000Y-116723000D01*
X95123000Y-116703000D01*
X95377000Y-116703000D01*
X95377000Y-116723000D01*
X96726250Y-116723000D01*
X96885000Y-116564250D01*
X96888072Y-116100000D01*
X96875812Y-115975518D01*
X96839502Y-115855820D01*
X96780537Y-115745506D01*
X96743191Y-115700000D01*
X96780537Y-115654494D01*
X96839502Y-115544180D01*
X96875812Y-115424482D01*
X96888072Y-115300000D01*
X96888072Y-113800000D01*
X96877997Y-113697700D01*
X96972539Y-113697700D01*
X97172498Y-113657926D01*
X97360856Y-113579905D01*
X97530374Y-113466637D01*
X97641928Y-113355083D01*
X97641928Y-116690000D01*
G37*
X97641928Y-116690000D02*
X97654188Y-116814482D01*
X97690498Y-116934180D01*
X97749463Y-117044494D01*
X97828815Y-117141185D01*
X97925506Y-117220537D01*
X98034881Y-117279000D01*
X96885948Y-117279000D01*
X96885000Y-117135750D01*
X96726250Y-116977000D01*
X95377000Y-116977000D01*
X95377000Y-116997000D01*
X95123000Y-116997000D01*
X95123000Y-116977000D01*
X95103000Y-116977000D01*
X95103000Y-116723000D01*
X95123000Y-116723000D01*
X95123000Y-116703000D01*
X95377000Y-116703000D01*
X95377000Y-116723000D01*
X96726250Y-116723000D01*
X96885000Y-116564250D01*
X96888072Y-116100000D01*
X96875812Y-115975518D01*
X96839502Y-115855820D01*
X96780537Y-115745506D01*
X96743191Y-115700000D01*
X96780537Y-115654494D01*
X96839502Y-115544180D01*
X96875812Y-115424482D01*
X96888072Y-115300000D01*
X96888072Y-113800000D01*
X96877997Y-113697700D01*
X96972539Y-113697700D01*
X97172498Y-113657926D01*
X97360856Y-113579905D01*
X97530374Y-113466637D01*
X97641928Y-113355083D01*
X97641928Y-116690000D01*
G36*
X80043748Y-116135858D02*
G01*
X80029605Y-116150000D01*
X80043748Y-116164143D01*
X79864143Y-116343748D01*
X79850000Y-116329605D01*
X79835858Y-116343748D01*
X79656253Y-116164143D01*
X79670395Y-116150000D01*
X79656253Y-116135858D01*
X79835858Y-115956253D01*
X79850000Y-115970395D01*
X79864143Y-115956253D01*
X80043748Y-116135858D01*
G37*
X80043748Y-116135858D02*
X80029605Y-116150000D01*
X80043748Y-116164143D01*
X79864143Y-116343748D01*
X79850000Y-116329605D01*
X79835858Y-116343748D01*
X79656253Y-116164143D01*
X79670395Y-116150000D01*
X79656253Y-116135858D01*
X79835858Y-115956253D01*
X79850000Y-115970395D01*
X79864143Y-115956253D01*
X80043748Y-116135858D01*
G36*
X94327000Y-104348000D02*
G01*
X94347000Y-104348000D01*
X94347000Y-104602000D01*
X94327000Y-104602000D01*
X94327000Y-105576250D01*
X94363168Y-105612418D01*
X94333800Y-105760061D01*
X94333800Y-105841950D01*
X94327000Y-105848750D01*
X94327000Y-106823000D01*
X94984274Y-106823000D01*
X95066902Y-106857226D01*
X95266861Y-106897000D01*
X95470739Y-106897000D01*
X95670698Y-106857226D01*
X95859056Y-106779205D01*
X96028574Y-106665937D01*
X96072511Y-106622000D01*
X97357578Y-106622000D01*
X97394900Y-106625676D01*
X97432222Y-106622000D01*
X97432233Y-106622000D01*
X97543886Y-106611003D01*
X97687147Y-106567546D01*
X97819176Y-106496974D01*
X97838272Y-106481302D01*
X97845074Y-106515498D01*
X97923095Y-106703856D01*
X98036363Y-106873374D01*
X98180526Y-107017537D01*
X98350044Y-107130805D01*
X98409443Y-107155409D01*
X96874806Y-108690000D01*
X94904320Y-108690000D01*
X94880537Y-108645506D01*
X94801185Y-108548815D01*
X94704494Y-108469463D01*
X94594180Y-108410498D01*
X94474482Y-108374188D01*
X94350000Y-108361928D01*
X93550000Y-108361928D01*
X93425518Y-108374188D01*
X93305820Y-108410498D01*
X93195506Y-108469463D01*
X93098815Y-108548815D01*
X93019463Y-108645506D01*
X92960498Y-108755820D01*
X92924188Y-108875518D01*
X92911928Y-109000000D01*
X92911928Y-109799861D01*
X92888072Y-109823717D01*
X92888072Y-109000000D01*
X92875812Y-108875518D01*
X92839502Y-108755820D01*
X92780537Y-108645506D01*
X92701185Y-108548815D01*
X92604494Y-108469463D01*
X92494180Y-108410498D01*
X92374482Y-108374188D01*
X92250000Y-108361928D01*
X91450000Y-108361928D01*
X91325518Y-108374188D01*
X91205820Y-108410498D01*
X91095506Y-108469463D01*
X90998815Y-108548815D01*
X90919463Y-108645506D01*
X90860498Y-108755820D01*
X90824188Y-108875518D01*
X90811928Y-109000000D01*
X90811928Y-109036643D01*
X90714320Y-108939022D01*
X90690501Y-108909999D01*
X90619589Y-108851803D01*
X90574815Y-108815053D01*
X90574797Y-108815044D01*
X90574776Y-108815026D01*
X90499194Y-108774626D01*
X90442790Y-108744472D01*
X90442768Y-108744465D01*
X90442747Y-108744454D01*
X90363101Y-108720294D01*
X90299532Y-108701007D01*
X90299513Y-108701005D01*
X90299486Y-108700997D01*
X90209715Y-108692155D01*
X90150547Y-108686324D01*
X90113199Y-108690000D01*
X89377238Y-108690000D01*
X89375812Y-108675518D01*
X89339502Y-108555820D01*
X89280537Y-108445506D01*
X89201185Y-108348815D01*
X89104494Y-108269463D01*
X88994180Y-108210498D01*
X88874482Y-108174188D01*
X88750000Y-108161928D01*
X88694575Y-108161928D01*
X88634974Y-108050424D01*
X88540001Y-107934699D01*
X88424276Y-107839726D01*
X88294152Y-107770172D01*
X87992332Y-107468394D01*
X88064860Y-107429626D01*
X88124009Y-107398018D01*
X88124038Y-107397995D01*
X88124076Y-107397974D01*
X88185523Y-107347546D01*
X88210743Y-107326853D01*
X88210769Y-107326827D01*
X88239801Y-107303001D01*
X88263576Y-107274032D01*
X88649617Y-106888072D01*
X88650460Y-106888072D01*
X89223644Y-107461056D01*
X89247399Y-107490001D01*
X89276447Y-107513840D01*
X89276496Y-107513889D01*
X89305801Y-107537930D01*
X89363124Y-107584974D01*
X89363184Y-107585006D01*
X89363235Y-107585048D01*
X89427907Y-107619602D01*
X89495153Y-107655546D01*
X89495219Y-107655566D01*
X89495277Y-107655597D01*
X89565981Y-107677031D01*
X89638414Y-107699003D01*
X89638481Y-107699010D01*
X89638545Y-107699029D01*
X89709967Y-107706050D01*
X89750067Y-107710000D01*
X89750142Y-107710000D01*
X89787534Y-107713676D01*
X89824790Y-107710000D01*
X90327379Y-107710000D01*
X90360498Y-107819180D01*
X90419463Y-107929494D01*
X90498815Y-108026185D01*
X90595506Y-108105537D01*
X90705820Y-108164502D01*
X90825518Y-108200812D01*
X90950000Y-108213072D01*
X92450000Y-108213072D01*
X92574482Y-108200812D01*
X92694180Y-108164502D01*
X92804494Y-108105537D01*
X92901185Y-108026185D01*
X92950000Y-107966704D01*
X92998815Y-108026185D01*
X93095506Y-108105537D01*
X93205820Y-108164502D01*
X93325518Y-108200812D01*
X93450000Y-108213072D01*
X93914250Y-108210000D01*
X94073000Y-108051250D01*
X94073000Y-107077000D01*
X94327000Y-107077000D01*
X94327000Y-108051250D01*
X94485750Y-108210000D01*
X94950000Y-108213072D01*
X95074482Y-108200812D01*
X95194180Y-108164502D01*
X95304494Y-108105537D01*
X95401185Y-108026185D01*
X95480537Y-107929494D01*
X95539502Y-107819180D01*
X95575812Y-107699482D01*
X95588072Y-107575000D01*
X95585000Y-107235750D01*
X95426250Y-107077000D01*
X94327000Y-107077000D01*
X94073000Y-107077000D01*
X94053000Y-107077000D01*
X94053000Y-106823000D01*
X94073000Y-106823000D01*
X94073000Y-105848750D01*
X93936750Y-105712500D01*
X94073000Y-105576250D01*
X94073000Y-104602000D01*
X94053000Y-104602000D01*
X94053000Y-104348000D01*
X94073000Y-104348000D01*
X94073000Y-104328000D01*
X94327000Y-104328000D01*
X94327000Y-104348000D01*
G37*
X94327000Y-104348000D02*
X94347000Y-104348000D01*
X94347000Y-104602000D01*
X94327000Y-104602000D01*
X94327000Y-105576250D01*
X94363168Y-105612418D01*
X94333800Y-105760061D01*
X94333800Y-105841950D01*
X94327000Y-105848750D01*
X94327000Y-106823000D01*
X94984274Y-106823000D01*
X95066902Y-106857226D01*
X95266861Y-106897000D01*
X95470739Y-106897000D01*
X95670698Y-106857226D01*
X95859056Y-106779205D01*
X96028574Y-106665937D01*
X96072511Y-106622000D01*
X97357578Y-106622000D01*
X97394900Y-106625676D01*
X97432222Y-106622000D01*
X97432233Y-106622000D01*
X97543886Y-106611003D01*
X97687147Y-106567546D01*
X97819176Y-106496974D01*
X97838272Y-106481302D01*
X97845074Y-106515498D01*
X97923095Y-106703856D01*
X98036363Y-106873374D01*
X98180526Y-107017537D01*
X98350044Y-107130805D01*
X98409443Y-107155409D01*
X96874806Y-108690000D01*
X94904320Y-108690000D01*
X94880537Y-108645506D01*
X94801185Y-108548815D01*
X94704494Y-108469463D01*
X94594180Y-108410498D01*
X94474482Y-108374188D01*
X94350000Y-108361928D01*
X93550000Y-108361928D01*
X93425518Y-108374188D01*
X93305820Y-108410498D01*
X93195506Y-108469463D01*
X93098815Y-108548815D01*
X93019463Y-108645506D01*
X92960498Y-108755820D01*
X92924188Y-108875518D01*
X92911928Y-109000000D01*
X92911928Y-109799861D01*
X92888072Y-109823717D01*
X92888072Y-109000000D01*
X92875812Y-108875518D01*
X92839502Y-108755820D01*
X92780537Y-108645506D01*
X92701185Y-108548815D01*
X92604494Y-108469463D01*
X92494180Y-108410498D01*
X92374482Y-108374188D01*
X92250000Y-108361928D01*
X91450000Y-108361928D01*
X91325518Y-108374188D01*
X91205820Y-108410498D01*
X91095506Y-108469463D01*
X90998815Y-108548815D01*
X90919463Y-108645506D01*
X90860498Y-108755820D01*
X90824188Y-108875518D01*
X90811928Y-109000000D01*
X90811928Y-109036643D01*
X90714320Y-108939022D01*
X90690501Y-108909999D01*
X90619589Y-108851803D01*
X90574815Y-108815053D01*
X90574797Y-108815044D01*
X90574776Y-108815026D01*
X90499194Y-108774626D01*
X90442790Y-108744472D01*
X90442768Y-108744465D01*
X90442747Y-108744454D01*
X90363101Y-108720294D01*
X90299532Y-108701007D01*
X90299513Y-108701005D01*
X90299486Y-108700997D01*
X90209715Y-108692155D01*
X90150547Y-108686324D01*
X90113199Y-108690000D01*
X89377238Y-108690000D01*
X89375812Y-108675518D01*
X89339502Y-108555820D01*
X89280537Y-108445506D01*
X89201185Y-108348815D01*
X89104494Y-108269463D01*
X88994180Y-108210498D01*
X88874482Y-108174188D01*
X88750000Y-108161928D01*
X88694575Y-108161928D01*
X88634974Y-108050424D01*
X88540001Y-107934699D01*
X88424276Y-107839726D01*
X88294152Y-107770172D01*
X87992332Y-107468394D01*
X88064860Y-107429626D01*
X88124009Y-107398018D01*
X88124038Y-107397995D01*
X88124076Y-107397974D01*
X88185523Y-107347546D01*
X88210743Y-107326853D01*
X88210769Y-107326827D01*
X88239801Y-107303001D01*
X88263576Y-107274032D01*
X88649617Y-106888072D01*
X88650460Y-106888072D01*
X89223644Y-107461056D01*
X89247399Y-107490001D01*
X89276447Y-107513840D01*
X89276496Y-107513889D01*
X89305801Y-107537930D01*
X89363124Y-107584974D01*
X89363184Y-107585006D01*
X89363235Y-107585048D01*
X89427907Y-107619602D01*
X89495153Y-107655546D01*
X89495219Y-107655566D01*
X89495277Y-107655597D01*
X89565981Y-107677031D01*
X89638414Y-107699003D01*
X89638481Y-107699010D01*
X89638545Y-107699029D01*
X89709967Y-107706050D01*
X89750067Y-107710000D01*
X89750142Y-107710000D01*
X89787534Y-107713676D01*
X89824790Y-107710000D01*
X90327379Y-107710000D01*
X90360498Y-107819180D01*
X90419463Y-107929494D01*
X90498815Y-108026185D01*
X90595506Y-108105537D01*
X90705820Y-108164502D01*
X90825518Y-108200812D01*
X90950000Y-108213072D01*
X92450000Y-108213072D01*
X92574482Y-108200812D01*
X92694180Y-108164502D01*
X92804494Y-108105537D01*
X92901185Y-108026185D01*
X92950000Y-107966704D01*
X92998815Y-108026185D01*
X93095506Y-108105537D01*
X93205820Y-108164502D01*
X93325518Y-108200812D01*
X93450000Y-108213072D01*
X93914250Y-108210000D01*
X94073000Y-108051250D01*
X94073000Y-107077000D01*
X94327000Y-107077000D01*
X94327000Y-108051250D01*
X94485750Y-108210000D01*
X94950000Y-108213072D01*
X95074482Y-108200812D01*
X95194180Y-108164502D01*
X95304494Y-108105537D01*
X95401185Y-108026185D01*
X95480537Y-107929494D01*
X95539502Y-107819180D01*
X95575812Y-107699482D01*
X95588072Y-107575000D01*
X95585000Y-107235750D01*
X95426250Y-107077000D01*
X94327000Y-107077000D01*
X94073000Y-107077000D01*
X94053000Y-107077000D01*
X94053000Y-106823000D01*
X94073000Y-106823000D01*
X94073000Y-105848750D01*
X93936750Y-105712500D01*
X94073000Y-105576250D01*
X94073000Y-104602000D01*
X94053000Y-104602000D01*
X94053000Y-104348000D01*
X94073000Y-104348000D01*
X94073000Y-104328000D01*
X94327000Y-104328000D01*
X94327000Y-104348000D01*
G36*
X70973105Y-108360518D02*
G01*
X70973053Y-108361047D01*
X70969724Y-108362826D01*
X70895228Y-108423963D01*
X70889124Y-108427226D01*
X70773399Y-108522199D01*
X70749601Y-108551198D01*
X70089648Y-109211150D01*
X70076224Y-109218326D01*
X70069196Y-109224094D01*
X69971656Y-109126554D01*
X70099851Y-108998360D01*
X70113993Y-109012502D01*
X70679148Y-108447347D01*
X70679148Y-108327696D01*
X70696618Y-108332995D01*
X70821100Y-108345255D01*
X70945582Y-108332995D01*
X70985089Y-108321011D01*
X70973105Y-108360518D01*
G37*
X70973105Y-108360518D02*
X70973053Y-108361047D01*
X70969724Y-108362826D01*
X70895228Y-108423963D01*
X70889124Y-108427226D01*
X70773399Y-108522199D01*
X70749601Y-108551198D01*
X70089648Y-109211150D01*
X70076224Y-109218326D01*
X70069196Y-109224094D01*
X69971656Y-109126554D01*
X70099851Y-108998360D01*
X70113993Y-109012502D01*
X70679148Y-108447347D01*
X70679148Y-108327696D01*
X70696618Y-108332995D01*
X70821100Y-108345255D01*
X70945582Y-108332995D01*
X70985089Y-108321011D01*
X70973105Y-108360518D01*
G36*
X76752474Y-105471498D02*
G01*
X76830495Y-105659856D01*
X76943627Y-105829171D01*
X76657799Y-106115000D01*
X76640201Y-106115000D01*
X76526004Y-106000803D01*
X76502201Y-105971799D01*
X76386476Y-105876826D01*
X76254538Y-105806303D01*
X76243311Y-105714196D01*
X76204245Y-105595370D01*
X76142747Y-105486448D01*
X76070114Y-105402000D01*
X76738650Y-105402000D01*
X76752474Y-105471498D01*
G37*
X76752474Y-105471498D02*
X76830495Y-105659856D01*
X76943627Y-105829171D01*
X76657799Y-106115000D01*
X76640201Y-106115000D01*
X76526004Y-106000803D01*
X76502201Y-105971799D01*
X76386476Y-105876826D01*
X76254538Y-105806303D01*
X76243311Y-105714196D01*
X76204245Y-105595370D01*
X76142747Y-105486448D01*
X76070114Y-105402000D01*
X76738650Y-105402000D01*
X76752474Y-105471498D01*
G36*
X73263695Y-98990256D02*
G01*
X73376963Y-99159774D01*
X73521126Y-99303937D01*
X73619338Y-99369560D01*
X72475703Y-100513196D01*
X72446699Y-100536999D01*
X72395815Y-100599002D01*
X72351726Y-100652724D01*
X72298179Y-100752903D01*
X72281154Y-100784754D01*
X72272101Y-100814597D01*
X71050403Y-102036296D01*
X71021399Y-102060099D01*
X70975862Y-102115587D01*
X70926426Y-102175824D01*
X70863285Y-102293952D01*
X70855854Y-102307854D01*
X70812397Y-102451115D01*
X70801400Y-102562768D01*
X70801400Y-102562778D01*
X70797724Y-102600100D01*
X70801400Y-102637423D01*
X70801401Y-103984468D01*
X70797724Y-104021800D01*
X70801401Y-104059133D01*
X70812398Y-104170786D01*
X70823465Y-104207270D01*
X70855854Y-104314046D01*
X70926426Y-104446076D01*
X70993324Y-104527590D01*
X71021400Y-104561801D01*
X71035616Y-104573468D01*
X71062618Y-104623985D01*
X71095271Y-104685092D01*
X71095300Y-104685127D01*
X71095326Y-104685176D01*
X71146508Y-104747541D01*
X71166434Y-104771828D01*
X71166464Y-104771858D01*
X71190299Y-104800901D01*
X71219263Y-104824671D01*
X71279957Y-104885380D01*
X71130239Y-104855600D01*
X70926361Y-104855600D01*
X70726402Y-104895374D01*
X70538044Y-104973395D01*
X70368526Y-105086663D01*
X70224363Y-105230826D01*
X70111095Y-105400344D01*
X70033074Y-105588702D01*
X69993300Y-105788661D01*
X69993300Y-105868799D01*
X69939900Y-105922199D01*
X69939900Y-102084901D01*
X73196578Y-98828223D01*
X73263695Y-98990256D01*
G37*
X73263695Y-98990256D02*
X73376963Y-99159774D01*
X73521126Y-99303937D01*
X73619338Y-99369560D01*
X72475703Y-100513196D01*
X72446699Y-100536999D01*
X72395815Y-100599002D01*
X72351726Y-100652724D01*
X72298179Y-100752903D01*
X72281154Y-100784754D01*
X72272101Y-100814597D01*
X71050403Y-102036296D01*
X71021399Y-102060099D01*
X70975862Y-102115587D01*
X70926426Y-102175824D01*
X70863285Y-102293952D01*
X70855854Y-102307854D01*
X70812397Y-102451115D01*
X70801400Y-102562768D01*
X70801400Y-102562778D01*
X70797724Y-102600100D01*
X70801400Y-102637423D01*
X70801401Y-103984468D01*
X70797724Y-104021800D01*
X70801401Y-104059133D01*
X70812398Y-104170786D01*
X70823465Y-104207270D01*
X70855854Y-104314046D01*
X70926426Y-104446076D01*
X70993324Y-104527590D01*
X71021400Y-104561801D01*
X71035616Y-104573468D01*
X71062618Y-104623985D01*
X71095271Y-104685092D01*
X71095300Y-104685127D01*
X71095326Y-104685176D01*
X71146508Y-104747541D01*
X71166434Y-104771828D01*
X71166464Y-104771858D01*
X71190299Y-104800901D01*
X71219263Y-104824671D01*
X71279957Y-104885380D01*
X71130239Y-104855600D01*
X70926361Y-104855600D01*
X70726402Y-104895374D01*
X70538044Y-104973395D01*
X70368526Y-105086663D01*
X70224363Y-105230826D01*
X70111095Y-105400344D01*
X70033074Y-105588702D01*
X69993300Y-105788661D01*
X69993300Y-105868799D01*
X69939900Y-105922199D01*
X69939900Y-102084901D01*
X73196578Y-98828223D01*
X73263695Y-98990256D01*
G36*
X85077000Y-99723000D02*
G01*
X85097000Y-99723000D01*
X85097000Y-99977000D01*
X85077000Y-99977000D01*
X85077000Y-99997000D01*
X84823000Y-99997000D01*
X84823000Y-99977000D01*
X84803000Y-99977000D01*
X84803000Y-99723000D01*
X84823000Y-99723000D01*
X84823000Y-99703000D01*
X85077000Y-99703000D01*
X85077000Y-99723000D01*
G37*
X85077000Y-99723000D02*
X85097000Y-99723000D01*
X85097000Y-99977000D01*
X85077000Y-99977000D01*
X85077000Y-99997000D01*
X84823000Y-99997000D01*
X84823000Y-99977000D01*
X84803000Y-99977000D01*
X84803000Y-99723000D01*
X84823000Y-99723000D01*
X84823000Y-99703000D01*
X85077000Y-99703000D01*
X85077000Y-99723000D01*
G36*
X87510901Y-96461003D02*
G01*
X87534699Y-96490001D01*
X87563697Y-96513799D01*
X87650424Y-96584974D01*
X87782453Y-96655546D01*
X87925714Y-96699003D01*
X87967204Y-96703089D01*
X88096525Y-96896632D01*
X88303368Y-97103475D01*
X88379814Y-97154555D01*
X88359899Y-97170899D01*
X88336228Y-97199742D01*
X86299635Y-99234192D01*
X86294157Y-99218748D01*
X86145178Y-98968645D01*
X85950269Y-98752412D01*
X85716920Y-98578359D01*
X85454099Y-98453175D01*
X85306890Y-98408524D01*
X85077002Y-98529844D01*
X85077002Y-98447597D01*
X85139905Y-98353456D01*
X85217926Y-98165098D01*
X85257700Y-97965139D01*
X85257700Y-97761261D01*
X85217926Y-97561302D01*
X85139905Y-97372944D01*
X85077002Y-97278803D01*
X85077002Y-97270156D01*
X85306890Y-97391476D01*
X85454099Y-97346825D01*
X85716920Y-97221641D01*
X85950269Y-97047588D01*
X86145178Y-96831355D01*
X86294157Y-96581252D01*
X86391481Y-96306891D01*
X86270814Y-96077000D01*
X85077000Y-96077000D01*
X85077000Y-96097000D01*
X84823000Y-96097000D01*
X84823000Y-96077000D01*
X84803000Y-96077000D01*
X84803000Y-95823000D01*
X84823000Y-95823000D01*
X84823000Y-95803000D01*
X85077000Y-95803000D01*
X85077000Y-95823000D01*
X86270814Y-95823000D01*
X86391481Y-95593109D01*
X86294157Y-95318748D01*
X86184416Y-95134517D01*
X87510901Y-96461003D01*
G37*
X87510901Y-96461003D02*
X87534699Y-96490001D01*
X87563697Y-96513799D01*
X87650424Y-96584974D01*
X87782453Y-96655546D01*
X87925714Y-96699003D01*
X87967204Y-96703089D01*
X88096525Y-96896632D01*
X88303368Y-97103475D01*
X88379814Y-97154555D01*
X88359899Y-97170899D01*
X88336228Y-97199742D01*
X86299635Y-99234192D01*
X86294157Y-99218748D01*
X86145178Y-98968645D01*
X85950269Y-98752412D01*
X85716920Y-98578359D01*
X85454099Y-98453175D01*
X85306890Y-98408524D01*
X85077002Y-98529844D01*
X85077002Y-98447597D01*
X85139905Y-98353456D01*
X85217926Y-98165098D01*
X85257700Y-97965139D01*
X85257700Y-97761261D01*
X85217926Y-97561302D01*
X85139905Y-97372944D01*
X85077002Y-97278803D01*
X85077002Y-97270156D01*
X85306890Y-97391476D01*
X85454099Y-97346825D01*
X85716920Y-97221641D01*
X85950269Y-97047588D01*
X86145178Y-96831355D01*
X86294157Y-96581252D01*
X86391481Y-96306891D01*
X86270814Y-96077000D01*
X85077000Y-96077000D01*
X85077000Y-96097000D01*
X84823000Y-96097000D01*
X84823000Y-96077000D01*
X84803000Y-96077000D01*
X84803000Y-95823000D01*
X84823000Y-95823000D01*
X84823000Y-95803000D01*
X85077000Y-95803000D01*
X85077000Y-95823000D01*
X86270814Y-95823000D01*
X86391481Y-95593109D01*
X86294157Y-95318748D01*
X86184416Y-95134517D01*
X87510901Y-96461003D01*
M02*
