G04 #@! TF.GenerationSoftware,KiCad,Pcbnew,5.1.4*
G04 #@! TF.CreationDate,2019-11-07T11:14:49-05:00*
G04 #@! TF.ProjectId,rustypill,72757374-7970-4696-9c6c-2e6b69636164,rev?*
G04 #@! TF.SameCoordinates,Original*
G04 #@! TF.FileFunction,Soldermask,Bot*
G04 #@! TF.FilePolarity,Negative*
%FSLAX46Y46*%
G04 Gerber Fmt 4.6, Leading zero omitted, Abs format (unit mm)*
G04 Created by KiCad (PCBNEW 5.1.4) date 2019-11-07 11:14:49*
%MOMM*%
%LPD*%
G04 APERTURE LIST*
%ADD10C,0.100000*%
G04 APERTURE END LIST*
D10*
G36*
X78475862Y-137548398D02*
G01*
X78488114Y-137549000D01*
X79701000Y-137549000D01*
X79701000Y-139551000D01*
X78488114Y-139551000D01*
X78475862Y-139551602D01*
X78450000Y-139554149D01*
X78424138Y-139551602D01*
X78411886Y-139551000D01*
X78338594Y-139551000D01*
X78321836Y-139542043D01*
X78310299Y-139537915D01*
X78225307Y-139512132D01*
X78199664Y-139504354D01*
X78086575Y-139443906D01*
X77987447Y-139362554D01*
X77906094Y-139263424D01*
X77845646Y-139150335D01*
X77835960Y-139118403D01*
X77808420Y-139027617D01*
X77799000Y-138931972D01*
X77799000Y-138168027D01*
X77808420Y-138072382D01*
X77845645Y-137949668D01*
X77906096Y-137836574D01*
X77987447Y-137737446D01*
X78086576Y-137656094D01*
X78199666Y-137595646D01*
X78213165Y-137591551D01*
X78310290Y-137562088D01*
X78332925Y-137552712D01*
X78338481Y-137549000D01*
X78411886Y-137549000D01*
X78424138Y-137548398D01*
X78450000Y-137545851D01*
X78475862Y-137548398D01*
X78475862Y-137548398D01*
G37*
G36*
X85475862Y-137548398D02*
G01*
X85488114Y-137549000D01*
X85561406Y-137549000D01*
X85578164Y-137557957D01*
X85589707Y-137562087D01*
X85686835Y-137591551D01*
X85700334Y-137595646D01*
X85813424Y-137656094D01*
X85912554Y-137737447D01*
X85993906Y-137836575D01*
X86054354Y-137949664D01*
X86064040Y-137981596D01*
X86091580Y-138072382D01*
X86101000Y-138168027D01*
X86101000Y-138931973D01*
X86091580Y-139027618D01*
X86064040Y-139118404D01*
X86054354Y-139150336D01*
X85993906Y-139263425D01*
X85912554Y-139362554D01*
X85813425Y-139443906D01*
X85700336Y-139504354D01*
X85674693Y-139512132D01*
X85589708Y-139537913D01*
X85567075Y-139547287D01*
X85561518Y-139551000D01*
X85488114Y-139551000D01*
X85475862Y-139551602D01*
X85450000Y-139554149D01*
X85424138Y-139551602D01*
X85411886Y-139551000D01*
X84199000Y-139551000D01*
X84199000Y-137549000D01*
X85411886Y-137549000D01*
X85424138Y-137548398D01*
X85450000Y-137545851D01*
X85475862Y-137548398D01*
X85475862Y-137548398D01*
G37*
G36*
X81751000Y-139551000D02*
G01*
X80149000Y-139551000D01*
X80149000Y-137549000D01*
X81751000Y-137549000D01*
X81751000Y-139551000D01*
X81751000Y-139551000D01*
G37*
G36*
X83751000Y-139551000D02*
G01*
X82149000Y-139551000D01*
X82149000Y-137549000D01*
X83751000Y-137549000D01*
X83751000Y-139551000D01*
X83751000Y-139551000D01*
G37*
G36*
X133518433Y-134984893D02*
G01*
X133608657Y-135002839D01*
X133714267Y-135046585D01*
X133863621Y-135108449D01*
X133939763Y-135159325D01*
X134093086Y-135261772D01*
X134288228Y-135456914D01*
X134323215Y-135509276D01*
X134441551Y-135686379D01*
X134547161Y-135941344D01*
X134601000Y-136212012D01*
X134601000Y-136487988D01*
X134579479Y-136596180D01*
X134547161Y-136758657D01*
X134514311Y-136837963D01*
X134441551Y-137013621D01*
X134441550Y-137013622D01*
X134288228Y-137243086D01*
X134093086Y-137438228D01*
X133939763Y-137540675D01*
X133863621Y-137591551D01*
X133714267Y-137653415D01*
X133608657Y-137697161D01*
X133518433Y-137715107D01*
X133337988Y-137751000D01*
X133062012Y-137751000D01*
X132881567Y-137715107D01*
X132791343Y-137697161D01*
X132685733Y-137653415D01*
X132536379Y-137591551D01*
X132460237Y-137540675D01*
X132306914Y-137438228D01*
X132111772Y-137243086D01*
X131958450Y-137013622D01*
X131958449Y-137013621D01*
X131885689Y-136837963D01*
X131852839Y-136758657D01*
X131820521Y-136596180D01*
X131799000Y-136487988D01*
X131799000Y-136212012D01*
X131852839Y-135941344D01*
X131958449Y-135686379D01*
X132076785Y-135509276D01*
X132111772Y-135456914D01*
X132306914Y-135261772D01*
X132460237Y-135159325D01*
X132536379Y-135108449D01*
X132685733Y-135046585D01*
X132791343Y-135002839D01*
X132881567Y-134984893D01*
X133062012Y-134949000D01*
X133337988Y-134949000D01*
X133518433Y-134984893D01*
X133518433Y-134984893D01*
G37*
G36*
X71818433Y-134984893D02*
G01*
X71908657Y-135002839D01*
X72014267Y-135046585D01*
X72163621Y-135108449D01*
X72239763Y-135159325D01*
X72393086Y-135261772D01*
X72588228Y-135456914D01*
X72623215Y-135509276D01*
X72741551Y-135686379D01*
X72847161Y-135941344D01*
X72901000Y-136212012D01*
X72901000Y-136487988D01*
X72879479Y-136596180D01*
X72847161Y-136758657D01*
X72814311Y-136837963D01*
X72741551Y-137013621D01*
X72741550Y-137013622D01*
X72588228Y-137243086D01*
X72393086Y-137438228D01*
X72239763Y-137540675D01*
X72163621Y-137591551D01*
X72014267Y-137653415D01*
X71908657Y-137697161D01*
X71818433Y-137715107D01*
X71637988Y-137751000D01*
X71362012Y-137751000D01*
X71181567Y-137715107D01*
X71091343Y-137697161D01*
X70985733Y-137653415D01*
X70836379Y-137591551D01*
X70760237Y-137540675D01*
X70606914Y-137438228D01*
X70411772Y-137243086D01*
X70258450Y-137013622D01*
X70258449Y-137013621D01*
X70185689Y-136837963D01*
X70152839Y-136758657D01*
X70120521Y-136596180D01*
X70099000Y-136487988D01*
X70099000Y-136212012D01*
X70152839Y-135941344D01*
X70258449Y-135686379D01*
X70376785Y-135509276D01*
X70411772Y-135456914D01*
X70606914Y-135261772D01*
X70760237Y-135159325D01*
X70836379Y-135108449D01*
X70985733Y-135046585D01*
X71091343Y-135002839D01*
X71181567Y-134984893D01*
X71362012Y-134949000D01*
X71637988Y-134949000D01*
X71818433Y-134984893D01*
X71818433Y-134984893D01*
G37*
G36*
X109680442Y-135055518D02*
G01*
X109746627Y-135062037D01*
X109916466Y-135113557D01*
X110072991Y-135197222D01*
X110108729Y-135226552D01*
X110210186Y-135309814D01*
X110293448Y-135411271D01*
X110322778Y-135447009D01*
X110406443Y-135603534D01*
X110457963Y-135773373D01*
X110475359Y-135950000D01*
X110457963Y-136126627D01*
X110406443Y-136296466D01*
X110322778Y-136452991D01*
X110293448Y-136488729D01*
X110210186Y-136590186D01*
X110108729Y-136673448D01*
X110072991Y-136702778D01*
X109916466Y-136786443D01*
X109746627Y-136837963D01*
X109680443Y-136844481D01*
X109614260Y-136851000D01*
X109525740Y-136851000D01*
X109459557Y-136844481D01*
X109393373Y-136837963D01*
X109223534Y-136786443D01*
X109067009Y-136702778D01*
X109031271Y-136673448D01*
X108929814Y-136590186D01*
X108846552Y-136488729D01*
X108817222Y-136452991D01*
X108733557Y-136296466D01*
X108682037Y-136126627D01*
X108664641Y-135950000D01*
X108682037Y-135773373D01*
X108733557Y-135603534D01*
X108817222Y-135447009D01*
X108846552Y-135411271D01*
X108929814Y-135309814D01*
X109031271Y-135226552D01*
X109067009Y-135197222D01*
X109223534Y-135113557D01*
X109393373Y-135062037D01*
X109459558Y-135055518D01*
X109525740Y-135049000D01*
X109614260Y-135049000D01*
X109680442Y-135055518D01*
X109680442Y-135055518D01*
G37*
G36*
X107140442Y-135055518D02*
G01*
X107206627Y-135062037D01*
X107376466Y-135113557D01*
X107532991Y-135197222D01*
X107568729Y-135226552D01*
X107670186Y-135309814D01*
X107753448Y-135411271D01*
X107782778Y-135447009D01*
X107866443Y-135603534D01*
X107917963Y-135773373D01*
X107935359Y-135950000D01*
X107917963Y-136126627D01*
X107866443Y-136296466D01*
X107782778Y-136452991D01*
X107753448Y-136488729D01*
X107670186Y-136590186D01*
X107568729Y-136673448D01*
X107532991Y-136702778D01*
X107376466Y-136786443D01*
X107206627Y-136837963D01*
X107140443Y-136844481D01*
X107074260Y-136851000D01*
X106985740Y-136851000D01*
X106919557Y-136844481D01*
X106853373Y-136837963D01*
X106683534Y-136786443D01*
X106527009Y-136702778D01*
X106491271Y-136673448D01*
X106389814Y-136590186D01*
X106306552Y-136488729D01*
X106277222Y-136452991D01*
X106193557Y-136296466D01*
X106142037Y-136126627D01*
X106124641Y-135950000D01*
X106142037Y-135773373D01*
X106193557Y-135603534D01*
X106277222Y-135447009D01*
X106306552Y-135411271D01*
X106389814Y-135309814D01*
X106491271Y-135226552D01*
X106527009Y-135197222D01*
X106683534Y-135113557D01*
X106853373Y-135062037D01*
X106919558Y-135055518D01*
X106985740Y-135049000D01*
X107074260Y-135049000D01*
X107140442Y-135055518D01*
X107140442Y-135055518D01*
G37*
G36*
X104600442Y-135055518D02*
G01*
X104666627Y-135062037D01*
X104836466Y-135113557D01*
X104992991Y-135197222D01*
X105028729Y-135226552D01*
X105130186Y-135309814D01*
X105213448Y-135411271D01*
X105242778Y-135447009D01*
X105326443Y-135603534D01*
X105377963Y-135773373D01*
X105395359Y-135950000D01*
X105377963Y-136126627D01*
X105326443Y-136296466D01*
X105242778Y-136452991D01*
X105213448Y-136488729D01*
X105130186Y-136590186D01*
X105028729Y-136673448D01*
X104992991Y-136702778D01*
X104836466Y-136786443D01*
X104666627Y-136837963D01*
X104600443Y-136844481D01*
X104534260Y-136851000D01*
X104445740Y-136851000D01*
X104379557Y-136844481D01*
X104313373Y-136837963D01*
X104143534Y-136786443D01*
X103987009Y-136702778D01*
X103951271Y-136673448D01*
X103849814Y-136590186D01*
X103766552Y-136488729D01*
X103737222Y-136452991D01*
X103653557Y-136296466D01*
X103602037Y-136126627D01*
X103584641Y-135950000D01*
X103602037Y-135773373D01*
X103653557Y-135603534D01*
X103737222Y-135447009D01*
X103766552Y-135411271D01*
X103849814Y-135309814D01*
X103951271Y-135226552D01*
X103987009Y-135197222D01*
X104143534Y-135113557D01*
X104313373Y-135062037D01*
X104379558Y-135055518D01*
X104445740Y-135049000D01*
X104534260Y-135049000D01*
X104600442Y-135055518D01*
X104600442Y-135055518D01*
G37*
G36*
X102060442Y-135055518D02*
G01*
X102126627Y-135062037D01*
X102296466Y-135113557D01*
X102452991Y-135197222D01*
X102488729Y-135226552D01*
X102590186Y-135309814D01*
X102673448Y-135411271D01*
X102702778Y-135447009D01*
X102786443Y-135603534D01*
X102837963Y-135773373D01*
X102855359Y-135950000D01*
X102837963Y-136126627D01*
X102786443Y-136296466D01*
X102702778Y-136452991D01*
X102673448Y-136488729D01*
X102590186Y-136590186D01*
X102488729Y-136673448D01*
X102452991Y-136702778D01*
X102296466Y-136786443D01*
X102126627Y-136837963D01*
X102060443Y-136844481D01*
X101994260Y-136851000D01*
X101905740Y-136851000D01*
X101839557Y-136844481D01*
X101773373Y-136837963D01*
X101603534Y-136786443D01*
X101447009Y-136702778D01*
X101411271Y-136673448D01*
X101309814Y-136590186D01*
X101226552Y-136488729D01*
X101197222Y-136452991D01*
X101113557Y-136296466D01*
X101062037Y-136126627D01*
X101044641Y-135950000D01*
X101062037Y-135773373D01*
X101113557Y-135603534D01*
X101197222Y-135447009D01*
X101226552Y-135411271D01*
X101309814Y-135309814D01*
X101411271Y-135226552D01*
X101447009Y-135197222D01*
X101603534Y-135113557D01*
X101773373Y-135062037D01*
X101839558Y-135055518D01*
X101905740Y-135049000D01*
X101994260Y-135049000D01*
X102060442Y-135055518D01*
X102060442Y-135055518D01*
G37*
G36*
X99520442Y-135055518D02*
G01*
X99586627Y-135062037D01*
X99756466Y-135113557D01*
X99912991Y-135197222D01*
X99948729Y-135226552D01*
X100050186Y-135309814D01*
X100133448Y-135411271D01*
X100162778Y-135447009D01*
X100246443Y-135603534D01*
X100297963Y-135773373D01*
X100315359Y-135950000D01*
X100297963Y-136126627D01*
X100246443Y-136296466D01*
X100162778Y-136452991D01*
X100133448Y-136488729D01*
X100050186Y-136590186D01*
X99948729Y-136673448D01*
X99912991Y-136702778D01*
X99756466Y-136786443D01*
X99586627Y-136837963D01*
X99520443Y-136844481D01*
X99454260Y-136851000D01*
X99365740Y-136851000D01*
X99299557Y-136844481D01*
X99233373Y-136837963D01*
X99063534Y-136786443D01*
X98907009Y-136702778D01*
X98871271Y-136673448D01*
X98769814Y-136590186D01*
X98686552Y-136488729D01*
X98657222Y-136452991D01*
X98573557Y-136296466D01*
X98522037Y-136126627D01*
X98504641Y-135950000D01*
X98522037Y-135773373D01*
X98573557Y-135603534D01*
X98657222Y-135447009D01*
X98686552Y-135411271D01*
X98769814Y-135309814D01*
X98871271Y-135226552D01*
X98907009Y-135197222D01*
X99063534Y-135113557D01*
X99233373Y-135062037D01*
X99299558Y-135055518D01*
X99365740Y-135049000D01*
X99454260Y-135049000D01*
X99520442Y-135055518D01*
X99520442Y-135055518D01*
G37*
G36*
X96980442Y-135055518D02*
G01*
X97046627Y-135062037D01*
X97216466Y-135113557D01*
X97372991Y-135197222D01*
X97408729Y-135226552D01*
X97510186Y-135309814D01*
X97593448Y-135411271D01*
X97622778Y-135447009D01*
X97706443Y-135603534D01*
X97757963Y-135773373D01*
X97775359Y-135950000D01*
X97757963Y-136126627D01*
X97706443Y-136296466D01*
X97622778Y-136452991D01*
X97593448Y-136488729D01*
X97510186Y-136590186D01*
X97408729Y-136673448D01*
X97372991Y-136702778D01*
X97216466Y-136786443D01*
X97046627Y-136837963D01*
X96980443Y-136844481D01*
X96914260Y-136851000D01*
X96825740Y-136851000D01*
X96759557Y-136844481D01*
X96693373Y-136837963D01*
X96523534Y-136786443D01*
X96367009Y-136702778D01*
X96331271Y-136673448D01*
X96229814Y-136590186D01*
X96146552Y-136488729D01*
X96117222Y-136452991D01*
X96033557Y-136296466D01*
X95982037Y-136126627D01*
X95964641Y-135950000D01*
X95982037Y-135773373D01*
X96033557Y-135603534D01*
X96117222Y-135447009D01*
X96146552Y-135411271D01*
X96229814Y-135309814D01*
X96331271Y-135226552D01*
X96367009Y-135197222D01*
X96523534Y-135113557D01*
X96693373Y-135062037D01*
X96759558Y-135055518D01*
X96825740Y-135049000D01*
X96914260Y-135049000D01*
X96980442Y-135055518D01*
X96980442Y-135055518D01*
G37*
G36*
X94440442Y-135055518D02*
G01*
X94506627Y-135062037D01*
X94676466Y-135113557D01*
X94832991Y-135197222D01*
X94868729Y-135226552D01*
X94970186Y-135309814D01*
X95053448Y-135411271D01*
X95082778Y-135447009D01*
X95166443Y-135603534D01*
X95217963Y-135773373D01*
X95235359Y-135950000D01*
X95217963Y-136126627D01*
X95166443Y-136296466D01*
X95082778Y-136452991D01*
X95053448Y-136488729D01*
X94970186Y-136590186D01*
X94868729Y-136673448D01*
X94832991Y-136702778D01*
X94676466Y-136786443D01*
X94506627Y-136837963D01*
X94440443Y-136844481D01*
X94374260Y-136851000D01*
X94285740Y-136851000D01*
X94219557Y-136844481D01*
X94153373Y-136837963D01*
X93983534Y-136786443D01*
X93827009Y-136702778D01*
X93791271Y-136673448D01*
X93689814Y-136590186D01*
X93606552Y-136488729D01*
X93577222Y-136452991D01*
X93493557Y-136296466D01*
X93442037Y-136126627D01*
X93424641Y-135950000D01*
X93442037Y-135773373D01*
X93493557Y-135603534D01*
X93577222Y-135447009D01*
X93606552Y-135411271D01*
X93689814Y-135309814D01*
X93791271Y-135226552D01*
X93827009Y-135197222D01*
X93983534Y-135113557D01*
X94153373Y-135062037D01*
X94219558Y-135055518D01*
X94285740Y-135049000D01*
X94374260Y-135049000D01*
X94440442Y-135055518D01*
X94440442Y-135055518D01*
G37*
G36*
X91900442Y-135055518D02*
G01*
X91966627Y-135062037D01*
X92136466Y-135113557D01*
X92292991Y-135197222D01*
X92328729Y-135226552D01*
X92430186Y-135309814D01*
X92513448Y-135411271D01*
X92542778Y-135447009D01*
X92626443Y-135603534D01*
X92677963Y-135773373D01*
X92695359Y-135950000D01*
X92677963Y-136126627D01*
X92626443Y-136296466D01*
X92542778Y-136452991D01*
X92513448Y-136488729D01*
X92430186Y-136590186D01*
X92328729Y-136673448D01*
X92292991Y-136702778D01*
X92136466Y-136786443D01*
X91966627Y-136837963D01*
X91900443Y-136844481D01*
X91834260Y-136851000D01*
X91745740Y-136851000D01*
X91679557Y-136844481D01*
X91613373Y-136837963D01*
X91443534Y-136786443D01*
X91287009Y-136702778D01*
X91251271Y-136673448D01*
X91149814Y-136590186D01*
X91066552Y-136488729D01*
X91037222Y-136452991D01*
X90953557Y-136296466D01*
X90902037Y-136126627D01*
X90884641Y-135950000D01*
X90902037Y-135773373D01*
X90953557Y-135603534D01*
X91037222Y-135447009D01*
X91066552Y-135411271D01*
X91149814Y-135309814D01*
X91251271Y-135226552D01*
X91287009Y-135197222D01*
X91443534Y-135113557D01*
X91613373Y-135062037D01*
X91679558Y-135055518D01*
X91745740Y-135049000D01*
X91834260Y-135049000D01*
X91900442Y-135055518D01*
X91900442Y-135055518D01*
G37*
G36*
X89360442Y-135055518D02*
G01*
X89426627Y-135062037D01*
X89596466Y-135113557D01*
X89752991Y-135197222D01*
X89788729Y-135226552D01*
X89890186Y-135309814D01*
X89973448Y-135411271D01*
X90002778Y-135447009D01*
X90086443Y-135603534D01*
X90137963Y-135773373D01*
X90155359Y-135950000D01*
X90137963Y-136126627D01*
X90086443Y-136296466D01*
X90002778Y-136452991D01*
X89973448Y-136488729D01*
X89890186Y-136590186D01*
X89788729Y-136673448D01*
X89752991Y-136702778D01*
X89596466Y-136786443D01*
X89426627Y-136837963D01*
X89360443Y-136844481D01*
X89294260Y-136851000D01*
X89205740Y-136851000D01*
X89139557Y-136844481D01*
X89073373Y-136837963D01*
X88903534Y-136786443D01*
X88747009Y-136702778D01*
X88711271Y-136673448D01*
X88609814Y-136590186D01*
X88526552Y-136488729D01*
X88497222Y-136452991D01*
X88413557Y-136296466D01*
X88362037Y-136126627D01*
X88344641Y-135950000D01*
X88362037Y-135773373D01*
X88413557Y-135603534D01*
X88497222Y-135447009D01*
X88526552Y-135411271D01*
X88609814Y-135309814D01*
X88711271Y-135226552D01*
X88747009Y-135197222D01*
X88903534Y-135113557D01*
X89073373Y-135062037D01*
X89139558Y-135055518D01*
X89205740Y-135049000D01*
X89294260Y-135049000D01*
X89360442Y-135055518D01*
X89360442Y-135055518D01*
G37*
G36*
X117300442Y-135055518D02*
G01*
X117366627Y-135062037D01*
X117536466Y-135113557D01*
X117692991Y-135197222D01*
X117728729Y-135226552D01*
X117830186Y-135309814D01*
X117913448Y-135411271D01*
X117942778Y-135447009D01*
X118026443Y-135603534D01*
X118077963Y-135773373D01*
X118095359Y-135950000D01*
X118077963Y-136126627D01*
X118026443Y-136296466D01*
X117942778Y-136452991D01*
X117913448Y-136488729D01*
X117830186Y-136590186D01*
X117728729Y-136673448D01*
X117692991Y-136702778D01*
X117536466Y-136786443D01*
X117366627Y-136837963D01*
X117300443Y-136844481D01*
X117234260Y-136851000D01*
X117145740Y-136851000D01*
X117079557Y-136844481D01*
X117013373Y-136837963D01*
X116843534Y-136786443D01*
X116687009Y-136702778D01*
X116651271Y-136673448D01*
X116549814Y-136590186D01*
X116466552Y-136488729D01*
X116437222Y-136452991D01*
X116353557Y-136296466D01*
X116302037Y-136126627D01*
X116284641Y-135950000D01*
X116302037Y-135773373D01*
X116353557Y-135603534D01*
X116437222Y-135447009D01*
X116466552Y-135411271D01*
X116549814Y-135309814D01*
X116651271Y-135226552D01*
X116687009Y-135197222D01*
X116843534Y-135113557D01*
X117013373Y-135062037D01*
X117079558Y-135055518D01*
X117145740Y-135049000D01*
X117234260Y-135049000D01*
X117300442Y-135055518D01*
X117300442Y-135055518D01*
G37*
G36*
X119840442Y-135055518D02*
G01*
X119906627Y-135062037D01*
X120076466Y-135113557D01*
X120232991Y-135197222D01*
X120268729Y-135226552D01*
X120370186Y-135309814D01*
X120453448Y-135411271D01*
X120482778Y-135447009D01*
X120566443Y-135603534D01*
X120617963Y-135773373D01*
X120635359Y-135950000D01*
X120617963Y-136126627D01*
X120566443Y-136296466D01*
X120482778Y-136452991D01*
X120453448Y-136488729D01*
X120370186Y-136590186D01*
X120268729Y-136673448D01*
X120232991Y-136702778D01*
X120076466Y-136786443D01*
X119906627Y-136837963D01*
X119840443Y-136844481D01*
X119774260Y-136851000D01*
X119685740Y-136851000D01*
X119619557Y-136844481D01*
X119553373Y-136837963D01*
X119383534Y-136786443D01*
X119227009Y-136702778D01*
X119191271Y-136673448D01*
X119089814Y-136590186D01*
X119006552Y-136488729D01*
X118977222Y-136452991D01*
X118893557Y-136296466D01*
X118842037Y-136126627D01*
X118824641Y-135950000D01*
X118842037Y-135773373D01*
X118893557Y-135603534D01*
X118977222Y-135447009D01*
X119006552Y-135411271D01*
X119089814Y-135309814D01*
X119191271Y-135226552D01*
X119227009Y-135197222D01*
X119383534Y-135113557D01*
X119553373Y-135062037D01*
X119619558Y-135055518D01*
X119685740Y-135049000D01*
X119774260Y-135049000D01*
X119840442Y-135055518D01*
X119840442Y-135055518D01*
G37*
G36*
X122380442Y-135055518D02*
G01*
X122446627Y-135062037D01*
X122616466Y-135113557D01*
X122772991Y-135197222D01*
X122808729Y-135226552D01*
X122910186Y-135309814D01*
X122993448Y-135411271D01*
X123022778Y-135447009D01*
X123106443Y-135603534D01*
X123157963Y-135773373D01*
X123175359Y-135950000D01*
X123157963Y-136126627D01*
X123106443Y-136296466D01*
X123022778Y-136452991D01*
X122993448Y-136488729D01*
X122910186Y-136590186D01*
X122808729Y-136673448D01*
X122772991Y-136702778D01*
X122616466Y-136786443D01*
X122446627Y-136837963D01*
X122380443Y-136844481D01*
X122314260Y-136851000D01*
X122225740Y-136851000D01*
X122159557Y-136844481D01*
X122093373Y-136837963D01*
X121923534Y-136786443D01*
X121767009Y-136702778D01*
X121731271Y-136673448D01*
X121629814Y-136590186D01*
X121546552Y-136488729D01*
X121517222Y-136452991D01*
X121433557Y-136296466D01*
X121382037Y-136126627D01*
X121364641Y-135950000D01*
X121382037Y-135773373D01*
X121433557Y-135603534D01*
X121517222Y-135447009D01*
X121546552Y-135411271D01*
X121629814Y-135309814D01*
X121731271Y-135226552D01*
X121767009Y-135197222D01*
X121923534Y-135113557D01*
X122093373Y-135062037D01*
X122159558Y-135055518D01*
X122225740Y-135049000D01*
X122314260Y-135049000D01*
X122380442Y-135055518D01*
X122380442Y-135055518D01*
G37*
G36*
X124920442Y-135055518D02*
G01*
X124986627Y-135062037D01*
X125156466Y-135113557D01*
X125312991Y-135197222D01*
X125348729Y-135226552D01*
X125450186Y-135309814D01*
X125533448Y-135411271D01*
X125562778Y-135447009D01*
X125646443Y-135603534D01*
X125697963Y-135773373D01*
X125715359Y-135950000D01*
X125697963Y-136126627D01*
X125646443Y-136296466D01*
X125562778Y-136452991D01*
X125533448Y-136488729D01*
X125450186Y-136590186D01*
X125348729Y-136673448D01*
X125312991Y-136702778D01*
X125156466Y-136786443D01*
X124986627Y-136837963D01*
X124920443Y-136844481D01*
X124854260Y-136851000D01*
X124765740Y-136851000D01*
X124699557Y-136844481D01*
X124633373Y-136837963D01*
X124463534Y-136786443D01*
X124307009Y-136702778D01*
X124271271Y-136673448D01*
X124169814Y-136590186D01*
X124086552Y-136488729D01*
X124057222Y-136452991D01*
X123973557Y-136296466D01*
X123922037Y-136126627D01*
X123904641Y-135950000D01*
X123922037Y-135773373D01*
X123973557Y-135603534D01*
X124057222Y-135447009D01*
X124086552Y-135411271D01*
X124169814Y-135309814D01*
X124271271Y-135226552D01*
X124307009Y-135197222D01*
X124463534Y-135113557D01*
X124633373Y-135062037D01*
X124699558Y-135055518D01*
X124765740Y-135049000D01*
X124854260Y-135049000D01*
X124920442Y-135055518D01*
X124920442Y-135055518D01*
G37*
G36*
X128251000Y-136851000D02*
G01*
X126449000Y-136851000D01*
X126449000Y-135049000D01*
X128251000Y-135049000D01*
X128251000Y-136851000D01*
X128251000Y-136851000D01*
G37*
G36*
X114760442Y-135055518D02*
G01*
X114826627Y-135062037D01*
X114996466Y-135113557D01*
X115152991Y-135197222D01*
X115188729Y-135226552D01*
X115290186Y-135309814D01*
X115373448Y-135411271D01*
X115402778Y-135447009D01*
X115486443Y-135603534D01*
X115537963Y-135773373D01*
X115555359Y-135950000D01*
X115537963Y-136126627D01*
X115486443Y-136296466D01*
X115402778Y-136452991D01*
X115373448Y-136488729D01*
X115290186Y-136590186D01*
X115188729Y-136673448D01*
X115152991Y-136702778D01*
X114996466Y-136786443D01*
X114826627Y-136837963D01*
X114760443Y-136844481D01*
X114694260Y-136851000D01*
X114605740Y-136851000D01*
X114539557Y-136844481D01*
X114473373Y-136837963D01*
X114303534Y-136786443D01*
X114147009Y-136702778D01*
X114111271Y-136673448D01*
X114009814Y-136590186D01*
X113926552Y-136488729D01*
X113897222Y-136452991D01*
X113813557Y-136296466D01*
X113762037Y-136126627D01*
X113744641Y-135950000D01*
X113762037Y-135773373D01*
X113813557Y-135603534D01*
X113897222Y-135447009D01*
X113926552Y-135411271D01*
X114009814Y-135309814D01*
X114111271Y-135226552D01*
X114147009Y-135197222D01*
X114303534Y-135113557D01*
X114473373Y-135062037D01*
X114539558Y-135055518D01*
X114605740Y-135049000D01*
X114694260Y-135049000D01*
X114760442Y-135055518D01*
X114760442Y-135055518D01*
G37*
G36*
X112220442Y-135055518D02*
G01*
X112286627Y-135062037D01*
X112456466Y-135113557D01*
X112612991Y-135197222D01*
X112648729Y-135226552D01*
X112750186Y-135309814D01*
X112833448Y-135411271D01*
X112862778Y-135447009D01*
X112946443Y-135603534D01*
X112997963Y-135773373D01*
X113015359Y-135950000D01*
X112997963Y-136126627D01*
X112946443Y-136296466D01*
X112862778Y-136452991D01*
X112833448Y-136488729D01*
X112750186Y-136590186D01*
X112648729Y-136673448D01*
X112612991Y-136702778D01*
X112456466Y-136786443D01*
X112286627Y-136837963D01*
X112220443Y-136844481D01*
X112154260Y-136851000D01*
X112065740Y-136851000D01*
X111999557Y-136844481D01*
X111933373Y-136837963D01*
X111763534Y-136786443D01*
X111607009Y-136702778D01*
X111571271Y-136673448D01*
X111469814Y-136590186D01*
X111386552Y-136488729D01*
X111357222Y-136452991D01*
X111273557Y-136296466D01*
X111222037Y-136126627D01*
X111204641Y-135950000D01*
X111222037Y-135773373D01*
X111273557Y-135603534D01*
X111357222Y-135447009D01*
X111386552Y-135411271D01*
X111469814Y-135309814D01*
X111571271Y-135226552D01*
X111607009Y-135197222D01*
X111763534Y-135113557D01*
X111933373Y-135062037D01*
X111999558Y-135055518D01*
X112065740Y-135049000D01*
X112154260Y-135049000D01*
X112220442Y-135055518D01*
X112220442Y-135055518D01*
G37*
G36*
X79676348Y-135103820D02*
G01*
X79676350Y-135103821D01*
X79676351Y-135103821D01*
X79817574Y-135162317D01*
X79817577Y-135162319D01*
X79944669Y-135247239D01*
X80052761Y-135355331D01*
X80109375Y-135440060D01*
X80137683Y-135482426D01*
X80158517Y-135532725D01*
X80170068Y-135554336D01*
X80185614Y-135573278D01*
X80204556Y-135588823D01*
X80226166Y-135600374D01*
X80249615Y-135607487D01*
X80274001Y-135609889D01*
X80298387Y-135607487D01*
X80321836Y-135600374D01*
X80343447Y-135588823D01*
X80362389Y-135573277D01*
X80377934Y-135554335D01*
X80389485Y-135532725D01*
X80396598Y-135509276D01*
X80399000Y-135484890D01*
X80399000Y-135124000D01*
X83501000Y-135124000D01*
X83501000Y-135484890D01*
X83503402Y-135509276D01*
X83510515Y-135532725D01*
X83522066Y-135554336D01*
X83537611Y-135573278D01*
X83556553Y-135588823D01*
X83578164Y-135600374D01*
X83601613Y-135607487D01*
X83625999Y-135609889D01*
X83650385Y-135607487D01*
X83673834Y-135600374D01*
X83695445Y-135588823D01*
X83714387Y-135573278D01*
X83729932Y-135554336D01*
X83741483Y-135532725D01*
X83762317Y-135482426D01*
X83790625Y-135440060D01*
X83847239Y-135355331D01*
X83955331Y-135247239D01*
X84082423Y-135162319D01*
X84082426Y-135162317D01*
X84223649Y-135103821D01*
X84223650Y-135103821D01*
X84223652Y-135103820D01*
X84373569Y-135074000D01*
X84526431Y-135074000D01*
X84676348Y-135103820D01*
X84676350Y-135103821D01*
X84676351Y-135103821D01*
X84817574Y-135162317D01*
X84817577Y-135162319D01*
X84944669Y-135247239D01*
X85052761Y-135355331D01*
X85120636Y-135456914D01*
X85137683Y-135482426D01*
X85190479Y-135609889D01*
X85196180Y-135623652D01*
X85226000Y-135773569D01*
X85226000Y-135926431D01*
X85221312Y-135950000D01*
X85196179Y-136076351D01*
X85137683Y-136217574D01*
X85137682Y-136217575D01*
X85137681Y-136217577D01*
X85052761Y-136344669D01*
X84944669Y-136452761D01*
X84817577Y-136537681D01*
X84817574Y-136537683D01*
X84676351Y-136596179D01*
X84676350Y-136596179D01*
X84676348Y-136596180D01*
X84526431Y-136626000D01*
X84373569Y-136626000D01*
X84223652Y-136596180D01*
X84223650Y-136596179D01*
X84223649Y-136596179D01*
X84082426Y-136537683D01*
X84082423Y-136537681D01*
X83955331Y-136452761D01*
X83847239Y-136344669D01*
X83762318Y-136217575D01*
X83762317Y-136217574D01*
X83741481Y-136167272D01*
X83729932Y-136145664D01*
X83714386Y-136126722D01*
X83695444Y-136111177D01*
X83673834Y-136099626D01*
X83650385Y-136092513D01*
X83625999Y-136090111D01*
X83601613Y-136092513D01*
X83578164Y-136099626D01*
X83556553Y-136111177D01*
X83537611Y-136126723D01*
X83522066Y-136145665D01*
X83510515Y-136167275D01*
X83503402Y-136190724D01*
X83501000Y-136215110D01*
X83501000Y-136576000D01*
X80399000Y-136576000D01*
X80399000Y-136215110D01*
X80396598Y-136190724D01*
X80389485Y-136167275D01*
X80377934Y-136145664D01*
X80362389Y-136126722D01*
X80343447Y-136111177D01*
X80321836Y-136099626D01*
X80298387Y-136092513D01*
X80274001Y-136090111D01*
X80249615Y-136092513D01*
X80226166Y-136099626D01*
X80204555Y-136111177D01*
X80185613Y-136126722D01*
X80170068Y-136145664D01*
X80158519Y-136167272D01*
X80137683Y-136217574D01*
X80137682Y-136217575D01*
X80052761Y-136344669D01*
X79944669Y-136452761D01*
X79817577Y-136537681D01*
X79817574Y-136537683D01*
X79676351Y-136596179D01*
X79676350Y-136596179D01*
X79676348Y-136596180D01*
X79526431Y-136626000D01*
X79373569Y-136626000D01*
X79223652Y-136596180D01*
X79223650Y-136596179D01*
X79223649Y-136596179D01*
X79082426Y-136537683D01*
X79082423Y-136537681D01*
X78955331Y-136452761D01*
X78847239Y-136344669D01*
X78762319Y-136217577D01*
X78762318Y-136217575D01*
X78762317Y-136217574D01*
X78703821Y-136076351D01*
X78678689Y-135950000D01*
X78674000Y-135926431D01*
X78674000Y-135773569D01*
X78703820Y-135623652D01*
X78709521Y-135609889D01*
X78762317Y-135482426D01*
X78779364Y-135456914D01*
X78847239Y-135355331D01*
X78955331Y-135247239D01*
X79082423Y-135162319D01*
X79082426Y-135162317D01*
X79223649Y-135103821D01*
X79223650Y-135103821D01*
X79223652Y-135103820D01*
X79373569Y-135074000D01*
X79526431Y-135074000D01*
X79676348Y-135103820D01*
X79676348Y-135103820D01*
G37*
G36*
X118876000Y-132801000D02*
G01*
X117524000Y-132801000D01*
X117524000Y-131199000D01*
X118876000Y-131199000D01*
X118876000Y-132801000D01*
X118876000Y-132801000D01*
G37*
G36*
X79966668Y-130925305D02*
G01*
X78975305Y-131916668D01*
X77842520Y-130783883D01*
X78833883Y-129792520D01*
X79966668Y-130925305D01*
X79966668Y-130925305D01*
G37*
G36*
X82517100Y-131542000D02*
G01*
X80915100Y-131542000D01*
X80915100Y-130190000D01*
X82517100Y-130190000D01*
X82517100Y-131542000D01*
X82517100Y-131542000D01*
G37*
G36*
X85017100Y-131542000D02*
G01*
X83415100Y-131542000D01*
X83415100Y-130190000D01*
X85017100Y-130190000D01*
X85017100Y-131542000D01*
X85017100Y-131542000D01*
G37*
G36*
X93109294Y-129448633D02*
G01*
X93281695Y-129500931D01*
X93440583Y-129585858D01*
X93579849Y-129700151D01*
X93694142Y-129839417D01*
X93779069Y-129998305D01*
X93831367Y-130170706D01*
X93849025Y-130350000D01*
X93831367Y-130529294D01*
X93779069Y-130701695D01*
X93694142Y-130860583D01*
X93579849Y-130999849D01*
X93440583Y-131114142D01*
X93281695Y-131199069D01*
X93109294Y-131251367D01*
X92974931Y-131264600D01*
X92885069Y-131264600D01*
X92750706Y-131251367D01*
X92578305Y-131199069D01*
X92419417Y-131114142D01*
X92280151Y-130999849D01*
X92165858Y-130860583D01*
X92080931Y-130701695D01*
X92028633Y-130529294D01*
X92010975Y-130350000D01*
X92028633Y-130170706D01*
X92080931Y-129998305D01*
X92165858Y-129839417D01*
X92280151Y-129700151D01*
X92419417Y-129585858D01*
X92578305Y-129500931D01*
X92750706Y-129448633D01*
X92885069Y-129435400D01*
X92974931Y-129435400D01*
X93109294Y-129448633D01*
X93109294Y-129448633D01*
G37*
G36*
X95649294Y-129448633D02*
G01*
X95821695Y-129500931D01*
X95980583Y-129585858D01*
X96119849Y-129700151D01*
X96234142Y-129839417D01*
X96319069Y-129998305D01*
X96371367Y-130170706D01*
X96389025Y-130350000D01*
X96371367Y-130529294D01*
X96319069Y-130701695D01*
X96234142Y-130860583D01*
X96119849Y-130999849D01*
X95980583Y-131114142D01*
X95821695Y-131199069D01*
X95649294Y-131251367D01*
X95514931Y-131264600D01*
X95425069Y-131264600D01*
X95290706Y-131251367D01*
X95118305Y-131199069D01*
X94959417Y-131114142D01*
X94820151Y-130999849D01*
X94705858Y-130860583D01*
X94620931Y-130701695D01*
X94568633Y-130529294D01*
X94550975Y-130350000D01*
X94568633Y-130170706D01*
X94620931Y-129998305D01*
X94705858Y-129839417D01*
X94820151Y-129700151D01*
X94959417Y-129585858D01*
X95118305Y-129500931D01*
X95290706Y-129448633D01*
X95425069Y-129435400D01*
X95514931Y-129435400D01*
X95649294Y-129448633D01*
X95649294Y-129448633D01*
G37*
G36*
X98189294Y-129448633D02*
G01*
X98361695Y-129500931D01*
X98520583Y-129585858D01*
X98659849Y-129700151D01*
X98774142Y-129839417D01*
X98859069Y-129998305D01*
X98911367Y-130170706D01*
X98929025Y-130350000D01*
X98911367Y-130529294D01*
X98859069Y-130701695D01*
X98774142Y-130860583D01*
X98659849Y-130999849D01*
X98520583Y-131114142D01*
X98361695Y-131199069D01*
X98189294Y-131251367D01*
X98054931Y-131264600D01*
X97965069Y-131264600D01*
X97830706Y-131251367D01*
X97658305Y-131199069D01*
X97499417Y-131114142D01*
X97360151Y-130999849D01*
X97245858Y-130860583D01*
X97160931Y-130701695D01*
X97108633Y-130529294D01*
X97090975Y-130350000D01*
X97108633Y-130170706D01*
X97160931Y-129998305D01*
X97245858Y-129839417D01*
X97360151Y-129700151D01*
X97499417Y-129585858D01*
X97658305Y-129500931D01*
X97830706Y-129448633D01*
X97965069Y-129435400D01*
X98054931Y-129435400D01*
X98189294Y-129448633D01*
X98189294Y-129448633D01*
G37*
G36*
X90569294Y-129448633D02*
G01*
X90741695Y-129500931D01*
X90900583Y-129585858D01*
X91039849Y-129700151D01*
X91154142Y-129839417D01*
X91239069Y-129998305D01*
X91291367Y-130170706D01*
X91309025Y-130350000D01*
X91291367Y-130529294D01*
X91239069Y-130701695D01*
X91154142Y-130860583D01*
X91039849Y-130999849D01*
X90900583Y-131114142D01*
X90741695Y-131199069D01*
X90569294Y-131251367D01*
X90434931Y-131264600D01*
X90345069Y-131264600D01*
X90210706Y-131251367D01*
X90038305Y-131199069D01*
X89879417Y-131114142D01*
X89740151Y-130999849D01*
X89625858Y-130860583D01*
X89540931Y-130701695D01*
X89488633Y-130529294D01*
X89470975Y-130350000D01*
X89488633Y-130170706D01*
X89540931Y-129998305D01*
X89625858Y-129839417D01*
X89740151Y-129700151D01*
X89879417Y-129585858D01*
X90038305Y-129500931D01*
X90210706Y-129448633D01*
X90345069Y-129435400D01*
X90434931Y-129435400D01*
X90569294Y-129448633D01*
X90569294Y-129448633D01*
G37*
G36*
X88764600Y-131264600D02*
G01*
X86935400Y-131264600D01*
X86935400Y-129435400D01*
X88764600Y-129435400D01*
X88764600Y-131264600D01*
X88764600Y-131264600D01*
G37*
G36*
X109348859Y-128149961D02*
G01*
X109476361Y-128202774D01*
X109566518Y-128240118D01*
X109762406Y-128371006D01*
X109928994Y-128537594D01*
X110059882Y-128733482D01*
X110059882Y-128733483D01*
X110150039Y-128951141D01*
X110196000Y-129182203D01*
X110196000Y-129417797D01*
X110150039Y-129648859D01*
X110128793Y-129700151D01*
X110059882Y-129866518D01*
X109928994Y-130062406D01*
X109762406Y-130228994D01*
X109566518Y-130359882D01*
X109476361Y-130397226D01*
X109348859Y-130450039D01*
X109117797Y-130496000D01*
X108882203Y-130496000D01*
X108651141Y-130450039D01*
X108523639Y-130397226D01*
X108433482Y-130359882D01*
X108237594Y-130228994D01*
X108071006Y-130062406D01*
X107940118Y-129866518D01*
X107871207Y-129700151D01*
X107849961Y-129648859D01*
X107804000Y-129417797D01*
X107804000Y-129182203D01*
X107849961Y-128951141D01*
X107940118Y-128733483D01*
X107940118Y-128733482D01*
X108071006Y-128537594D01*
X108237594Y-128371006D01*
X108433482Y-128240118D01*
X108523639Y-128202774D01*
X108651141Y-128149961D01*
X108882203Y-128104000D01*
X109117797Y-128104000D01*
X109348859Y-128149961D01*
X109348859Y-128149961D01*
G37*
G36*
X118876000Y-130301000D02*
G01*
X117524000Y-130301000D01*
X117524000Y-128699000D01*
X118876000Y-128699000D01*
X118876000Y-130301000D01*
X118876000Y-130301000D01*
G37*
G36*
X78057480Y-129016117D02*
G01*
X77066117Y-130007480D01*
X75933332Y-128874695D01*
X76924695Y-127883332D01*
X78057480Y-129016117D01*
X78057480Y-129016117D01*
G37*
G36*
X95649294Y-126908633D02*
G01*
X95821695Y-126960931D01*
X95980583Y-127045858D01*
X96119849Y-127160151D01*
X96234142Y-127299417D01*
X96319069Y-127458305D01*
X96371367Y-127630706D01*
X96389025Y-127810000D01*
X96371367Y-127989294D01*
X96319069Y-128161695D01*
X96234142Y-128320583D01*
X96119849Y-128459849D01*
X95980583Y-128574142D01*
X95821695Y-128659069D01*
X95649294Y-128711367D01*
X95514931Y-128724600D01*
X95425069Y-128724600D01*
X95290706Y-128711367D01*
X95118305Y-128659069D01*
X94959417Y-128574142D01*
X94820151Y-128459849D01*
X94705858Y-128320583D01*
X94620931Y-128161695D01*
X94568633Y-127989294D01*
X94550975Y-127810000D01*
X94568633Y-127630706D01*
X94620931Y-127458305D01*
X94705858Y-127299417D01*
X94820151Y-127160151D01*
X94959417Y-127045858D01*
X95118305Y-126960931D01*
X95290706Y-126908633D01*
X95425069Y-126895400D01*
X95514931Y-126895400D01*
X95649294Y-126908633D01*
X95649294Y-126908633D01*
G37*
G36*
X98189294Y-126908633D02*
G01*
X98361695Y-126960931D01*
X98520583Y-127045858D01*
X98659849Y-127160151D01*
X98774142Y-127299417D01*
X98859069Y-127458305D01*
X98911367Y-127630706D01*
X98929025Y-127810000D01*
X98911367Y-127989294D01*
X98859069Y-128161695D01*
X98774142Y-128320583D01*
X98659849Y-128459849D01*
X98520583Y-128574142D01*
X98361695Y-128659069D01*
X98189294Y-128711367D01*
X98054931Y-128724600D01*
X97965069Y-128724600D01*
X97830706Y-128711367D01*
X97658305Y-128659069D01*
X97499417Y-128574142D01*
X97360151Y-128459849D01*
X97245858Y-128320583D01*
X97160931Y-128161695D01*
X97108633Y-127989294D01*
X97090975Y-127810000D01*
X97108633Y-127630706D01*
X97160931Y-127458305D01*
X97245858Y-127299417D01*
X97360151Y-127160151D01*
X97499417Y-127045858D01*
X97658305Y-126960931D01*
X97830706Y-126908633D01*
X97965069Y-126895400D01*
X98054931Y-126895400D01*
X98189294Y-126908633D01*
X98189294Y-126908633D01*
G37*
G36*
X93109294Y-126908633D02*
G01*
X93281695Y-126960931D01*
X93440583Y-127045858D01*
X93579849Y-127160151D01*
X93694142Y-127299417D01*
X93779069Y-127458305D01*
X93831367Y-127630706D01*
X93849025Y-127810000D01*
X93831367Y-127989294D01*
X93779069Y-128161695D01*
X93694142Y-128320583D01*
X93579849Y-128459849D01*
X93440583Y-128574142D01*
X93281695Y-128659069D01*
X93109294Y-128711367D01*
X92974931Y-128724600D01*
X92885069Y-128724600D01*
X92750706Y-128711367D01*
X92578305Y-128659069D01*
X92419417Y-128574142D01*
X92280151Y-128459849D01*
X92165858Y-128320583D01*
X92080931Y-128161695D01*
X92028633Y-127989294D01*
X92010975Y-127810000D01*
X92028633Y-127630706D01*
X92080931Y-127458305D01*
X92165858Y-127299417D01*
X92280151Y-127160151D01*
X92419417Y-127045858D01*
X92578305Y-126960931D01*
X92750706Y-126908633D01*
X92885069Y-126895400D01*
X92974931Y-126895400D01*
X93109294Y-126908633D01*
X93109294Y-126908633D01*
G37*
G36*
X88029294Y-126908633D02*
G01*
X88201695Y-126960931D01*
X88360583Y-127045858D01*
X88499849Y-127160151D01*
X88614142Y-127299417D01*
X88699069Y-127458305D01*
X88751367Y-127630706D01*
X88769025Y-127810000D01*
X88751367Y-127989294D01*
X88699069Y-128161695D01*
X88614142Y-128320583D01*
X88499849Y-128459849D01*
X88360583Y-128574142D01*
X88201695Y-128659069D01*
X88029294Y-128711367D01*
X87894931Y-128724600D01*
X87805069Y-128724600D01*
X87670706Y-128711367D01*
X87498305Y-128659069D01*
X87339417Y-128574142D01*
X87200151Y-128459849D01*
X87085858Y-128320583D01*
X87000931Y-128161695D01*
X86948633Y-127989294D01*
X86930975Y-127810000D01*
X86948633Y-127630706D01*
X87000931Y-127458305D01*
X87085858Y-127299417D01*
X87200151Y-127160151D01*
X87339417Y-127045858D01*
X87498305Y-126960931D01*
X87670706Y-126908633D01*
X87805069Y-126895400D01*
X87894931Y-126895400D01*
X88029294Y-126908633D01*
X88029294Y-126908633D01*
G37*
G36*
X90569294Y-126908633D02*
G01*
X90741695Y-126960931D01*
X90900583Y-127045858D01*
X91039849Y-127160151D01*
X91154142Y-127299417D01*
X91239069Y-127458305D01*
X91291367Y-127630706D01*
X91309025Y-127810000D01*
X91291367Y-127989294D01*
X91239069Y-128161695D01*
X91154142Y-128320583D01*
X91039849Y-128459849D01*
X90900583Y-128574142D01*
X90741695Y-128659069D01*
X90569294Y-128711367D01*
X90434931Y-128724600D01*
X90345069Y-128724600D01*
X90210706Y-128711367D01*
X90038305Y-128659069D01*
X89879417Y-128574142D01*
X89740151Y-128459849D01*
X89625858Y-128320583D01*
X89540931Y-128161695D01*
X89488633Y-127989294D01*
X89470975Y-127810000D01*
X89488633Y-127630706D01*
X89540931Y-127458305D01*
X89625858Y-127299417D01*
X89740151Y-127160151D01*
X89879417Y-127045858D01*
X90038305Y-126960931D01*
X90210706Y-126908633D01*
X90345069Y-126895400D01*
X90434931Y-126895400D01*
X90569294Y-126908633D01*
X90569294Y-126908633D01*
G37*
G36*
X79807480Y-127183883D02*
G01*
X78674695Y-128316668D01*
X77683332Y-127325305D01*
X78816117Y-126192520D01*
X79807480Y-127183883D01*
X79807480Y-127183883D01*
G37*
G36*
X112876000Y-127601000D02*
G01*
X111524000Y-127601000D01*
X111524000Y-125999000D01*
X112876000Y-125999000D01*
X112876000Y-127601000D01*
X112876000Y-127601000D01*
G37*
G36*
X119201000Y-127351000D02*
G01*
X117599000Y-127351000D01*
X117599000Y-125949000D01*
X119201000Y-125949000D01*
X119201000Y-127351000D01*
X119201000Y-127351000D01*
G37*
G36*
X116501000Y-127351000D02*
G01*
X114899000Y-127351000D01*
X114899000Y-125949000D01*
X116501000Y-125949000D01*
X116501000Y-127351000D01*
X116501000Y-127351000D01*
G37*
G36*
X78107480Y-125433883D02*
G01*
X76974695Y-126566668D01*
X75983332Y-125575305D01*
X77116117Y-124442520D01*
X78107480Y-125433883D01*
X78107480Y-125433883D01*
G37*
G36*
X81716668Y-125274695D02*
G01*
X80583883Y-126407480D01*
X79592520Y-125416117D01*
X80725305Y-124283332D01*
X81716668Y-125274695D01*
X81716668Y-125274695D01*
G37*
G36*
X95751000Y-125751000D02*
G01*
X94149000Y-125751000D01*
X94149000Y-124349000D01*
X95751000Y-124349000D01*
X95751000Y-125751000D01*
X95751000Y-125751000D01*
G37*
G36*
X98451000Y-125751000D02*
G01*
X96849000Y-125751000D01*
X96849000Y-124349000D01*
X98451000Y-124349000D01*
X98451000Y-125751000D01*
X98451000Y-125751000D01*
G37*
G36*
X119201000Y-125151000D02*
G01*
X117599000Y-125151000D01*
X117599000Y-123749000D01*
X119201000Y-123749000D01*
X119201000Y-125151000D01*
X119201000Y-125151000D01*
G37*
G36*
X116501000Y-125151000D02*
G01*
X114899000Y-125151000D01*
X114899000Y-123749000D01*
X116501000Y-123749000D01*
X116501000Y-125151000D01*
X116501000Y-125151000D01*
G37*
G36*
X112876000Y-125101000D02*
G01*
X111524000Y-125101000D01*
X111524000Y-123499000D01*
X112876000Y-123499000D01*
X112876000Y-125101000D01*
X112876000Y-125101000D01*
G37*
G36*
X76328280Y-123822271D02*
G01*
X75372271Y-124778280D01*
X74239486Y-123645495D01*
X75195495Y-122689486D01*
X76328280Y-123822271D01*
X76328280Y-123822271D01*
G37*
G36*
X80016668Y-123524695D02*
G01*
X78883883Y-124657480D01*
X77892520Y-123666117D01*
X79025305Y-122533332D01*
X80016668Y-123524695D01*
X80016668Y-123524695D01*
G37*
G36*
X86944414Y-123061495D02*
G01*
X85811629Y-124194280D01*
X84855620Y-123238271D01*
X85988405Y-122105486D01*
X86944414Y-123061495D01*
X86944414Y-123061495D01*
G37*
G36*
X77912180Y-122256271D02*
G01*
X76956171Y-123212280D01*
X75823386Y-122079495D01*
X76779395Y-121123486D01*
X77912180Y-122256271D01*
X77912180Y-122256271D01*
G37*
G36*
X74560514Y-122054505D02*
G01*
X73604505Y-123010514D01*
X72471720Y-121877729D01*
X73427729Y-120921720D01*
X74560514Y-122054505D01*
X74560514Y-122054505D01*
G37*
G36*
X95076000Y-122951000D02*
G01*
X93724000Y-122951000D01*
X93724000Y-121349000D01*
X95076000Y-121349000D01*
X95076000Y-122951000D01*
X95076000Y-122951000D01*
G37*
G36*
X91676000Y-122951000D02*
G01*
X90324000Y-122951000D01*
X90324000Y-121349000D01*
X91676000Y-121349000D01*
X91676000Y-122951000D01*
X91676000Y-122951000D01*
G37*
G36*
X124731000Y-122857000D02*
G01*
X123629000Y-122857000D01*
X123629000Y-120255000D01*
X124731000Y-120255000D01*
X124731000Y-122857000D01*
X124731000Y-122857000D01*
G37*
G36*
X122731000Y-122857000D02*
G01*
X121629000Y-122857000D01*
X121629000Y-120255000D01*
X122731000Y-120255000D01*
X122731000Y-122857000D01*
X122731000Y-122857000D01*
G37*
G36*
X120731000Y-122857000D02*
G01*
X119629000Y-122857000D01*
X119629000Y-120255000D01*
X120731000Y-120255000D01*
X120731000Y-122857000D01*
X120731000Y-122857000D01*
G37*
G36*
X118731000Y-122857000D02*
G01*
X117629000Y-122857000D01*
X117629000Y-120255000D01*
X118731000Y-120255000D01*
X118731000Y-122857000D01*
X118731000Y-122857000D01*
G37*
G36*
X116731000Y-122857000D02*
G01*
X115629000Y-122857000D01*
X115629000Y-120255000D01*
X116731000Y-120255000D01*
X116731000Y-122857000D01*
X116731000Y-122857000D01*
G37*
G36*
X114731000Y-122857000D02*
G01*
X113629000Y-122857000D01*
X113629000Y-120255000D01*
X114731000Y-120255000D01*
X114731000Y-122857000D01*
X114731000Y-122857000D01*
G37*
G36*
X112731000Y-122857000D02*
G01*
X111629000Y-122857000D01*
X111629000Y-120255000D01*
X112731000Y-120255000D01*
X112731000Y-122857000D01*
X112731000Y-122857000D01*
G37*
G36*
X126731000Y-122857000D02*
G01*
X125629000Y-122857000D01*
X125629000Y-120255000D01*
X126731000Y-120255000D01*
X126731000Y-122857000D01*
X126731000Y-122857000D01*
G37*
G36*
X88712180Y-121293729D02*
G01*
X87579395Y-122426514D01*
X86623386Y-121470505D01*
X87756171Y-120337720D01*
X88712180Y-121293729D01*
X88712180Y-121293729D01*
G37*
G36*
X84860514Y-121245495D02*
G01*
X83727729Y-122378280D01*
X82771720Y-121422271D01*
X83904505Y-120289486D01*
X84860514Y-121245495D01*
X84860514Y-121245495D01*
G37*
G36*
X76144414Y-120488505D02*
G01*
X75188405Y-121444514D01*
X74055620Y-120311729D01*
X75011629Y-119355720D01*
X76144414Y-120488505D01*
X76144414Y-120488505D01*
G37*
G36*
X86628280Y-119477729D02*
G01*
X85495495Y-120610514D01*
X84539486Y-119654505D01*
X85672271Y-118521720D01*
X86628280Y-119477729D01*
X86628280Y-119477729D01*
G37*
G36*
X95076000Y-120451000D02*
G01*
X93724000Y-120451000D01*
X93724000Y-118849000D01*
X95076000Y-118849000D01*
X95076000Y-120451000D01*
X95076000Y-120451000D01*
G37*
G36*
X91676000Y-120451000D02*
G01*
X90324000Y-120451000D01*
X90324000Y-118849000D01*
X91676000Y-118849000D01*
X91676000Y-120451000D01*
X91676000Y-120451000D01*
G37*
G36*
X102651000Y-120176000D02*
G01*
X101049000Y-120176000D01*
X101049000Y-118824000D01*
X102651000Y-118824000D01*
X102651000Y-120176000D01*
X102651000Y-120176000D01*
G37*
G36*
X100151000Y-120176000D02*
G01*
X98549000Y-120176000D01*
X98549000Y-118824000D01*
X100151000Y-118824000D01*
X100151000Y-120176000D01*
X100151000Y-120176000D01*
G37*
G36*
X111631000Y-119507000D02*
G01*
X109729000Y-119507000D01*
X109729000Y-118405000D01*
X111631000Y-118405000D01*
X111631000Y-119507000D01*
X111631000Y-119507000D01*
G37*
G36*
X104526000Y-118201000D02*
G01*
X103174000Y-118201000D01*
X103174000Y-116599000D01*
X104526000Y-116599000D01*
X104526000Y-118201000D01*
X104526000Y-118201000D01*
G37*
G36*
X79907480Y-116883883D02*
G01*
X78774695Y-118016668D01*
X77783332Y-117025305D01*
X78916117Y-115892520D01*
X79907480Y-116883883D01*
X79907480Y-116883883D01*
G37*
G36*
X111631000Y-117507000D02*
G01*
X109729000Y-117507000D01*
X109729000Y-116405000D01*
X111631000Y-116405000D01*
X111631000Y-117507000D01*
X111631000Y-117507000D01*
G37*
G36*
X81816668Y-114974695D02*
G01*
X80683883Y-116107480D01*
X79692520Y-115116117D01*
X80825305Y-113983332D01*
X81816668Y-114974695D01*
X81816668Y-114974695D01*
G37*
G36*
X104526000Y-115701000D02*
G01*
X103174000Y-115701000D01*
X103174000Y-114099000D01*
X104526000Y-114099000D01*
X104526000Y-115701000D01*
X104526000Y-115701000D01*
G37*
G36*
X111631000Y-115507000D02*
G01*
X109729000Y-115507000D01*
X109729000Y-114405000D01*
X111631000Y-114405000D01*
X111631000Y-115507000D01*
X111631000Y-115507000D01*
G37*
G36*
X74852880Y-112788883D02*
G01*
X73720095Y-113921668D01*
X72728732Y-112930305D01*
X73861517Y-111797520D01*
X74852880Y-112788883D01*
X74852880Y-112788883D01*
G37*
G36*
X111631000Y-113507000D02*
G01*
X109729000Y-113507000D01*
X109729000Y-112405000D01*
X111631000Y-112405000D01*
X111631000Y-113507000D01*
X111631000Y-113507000D01*
G37*
G36*
X76762068Y-110879695D02*
G01*
X75629283Y-112012480D01*
X74637920Y-111021117D01*
X75770705Y-109888332D01*
X76762068Y-110879695D01*
X76762068Y-110879695D01*
G37*
G36*
X111631000Y-111507000D02*
G01*
X109729000Y-111507000D01*
X109729000Y-110405000D01*
X111631000Y-110405000D01*
X111631000Y-111507000D01*
X111631000Y-111507000D01*
G37*
G36*
X104950400Y-110819400D02*
G01*
X104289600Y-110819400D01*
X104289600Y-108736200D01*
X104950400Y-108736200D01*
X104950400Y-110819400D01*
X104950400Y-110819400D01*
G37*
G36*
X103680400Y-110819400D02*
G01*
X103019600Y-110819400D01*
X103019600Y-108736200D01*
X103680400Y-108736200D01*
X103680400Y-110819400D01*
X103680400Y-110819400D01*
G37*
G36*
X102410400Y-110819400D02*
G01*
X101749600Y-110819400D01*
X101749600Y-108736200D01*
X102410400Y-108736200D01*
X102410400Y-110819400D01*
X102410400Y-110819400D01*
G37*
G36*
X101140400Y-110819400D02*
G01*
X100479600Y-110819400D01*
X100479600Y-108736200D01*
X101140400Y-108736200D01*
X101140400Y-110819400D01*
X101140400Y-110819400D01*
G37*
G36*
X99676000Y-110801000D02*
G01*
X98324000Y-110801000D01*
X98324000Y-109199000D01*
X99676000Y-109199000D01*
X99676000Y-110801000D01*
X99676000Y-110801000D01*
G37*
G36*
X88801000Y-110201000D02*
G01*
X87199000Y-110201000D01*
X87199000Y-108799000D01*
X88801000Y-108799000D01*
X88801000Y-110201000D01*
X88801000Y-110201000D01*
G37*
G36*
X86101000Y-110201000D02*
G01*
X84499000Y-110201000D01*
X84499000Y-108799000D01*
X86101000Y-108799000D01*
X86101000Y-110201000D01*
X86101000Y-110201000D01*
G37*
G36*
X111631000Y-109507000D02*
G01*
X109729000Y-109507000D01*
X109729000Y-108405000D01*
X111631000Y-108405000D01*
X111631000Y-109507000D01*
X111631000Y-109507000D01*
G37*
G36*
X79776000Y-108501000D02*
G01*
X78424000Y-108501000D01*
X78424000Y-106899000D01*
X79776000Y-106899000D01*
X79776000Y-108501000D01*
X79776000Y-108501000D01*
G37*
G36*
X99676000Y-108301000D02*
G01*
X98324000Y-108301000D01*
X98324000Y-106699000D01*
X99676000Y-106699000D01*
X99676000Y-108301000D01*
X99676000Y-108301000D01*
G37*
G36*
X116731000Y-107657000D02*
G01*
X115629000Y-107657000D01*
X115629000Y-105055000D01*
X116731000Y-105055000D01*
X116731000Y-107657000D01*
X116731000Y-107657000D01*
G37*
G36*
X118731000Y-107657000D02*
G01*
X117629000Y-107657000D01*
X117629000Y-105055000D01*
X118731000Y-105055000D01*
X118731000Y-107657000D01*
X118731000Y-107657000D01*
G37*
G36*
X120731000Y-107657000D02*
G01*
X119629000Y-107657000D01*
X119629000Y-105055000D01*
X120731000Y-105055000D01*
X120731000Y-107657000D01*
X120731000Y-107657000D01*
G37*
G36*
X122731000Y-107657000D02*
G01*
X121629000Y-107657000D01*
X121629000Y-105055000D01*
X122731000Y-105055000D01*
X122731000Y-107657000D01*
X122731000Y-107657000D01*
G37*
G36*
X124731000Y-107657000D02*
G01*
X123629000Y-107657000D01*
X123629000Y-105055000D01*
X124731000Y-105055000D01*
X124731000Y-107657000D01*
X124731000Y-107657000D01*
G37*
G36*
X126731000Y-107657000D02*
G01*
X125629000Y-107657000D01*
X125629000Y-105055000D01*
X126731000Y-105055000D01*
X126731000Y-107657000D01*
X126731000Y-107657000D01*
G37*
G36*
X112731000Y-107657000D02*
G01*
X111629000Y-107657000D01*
X111629000Y-105055000D01*
X112731000Y-105055000D01*
X112731000Y-107657000D01*
X112731000Y-107657000D01*
G37*
G36*
X114731000Y-107657000D02*
G01*
X113629000Y-107657000D01*
X113629000Y-105055000D01*
X114731000Y-105055000D01*
X114731000Y-107657000D01*
X114731000Y-107657000D01*
G37*
G36*
X109348859Y-105289961D02*
G01*
X109476361Y-105342774D01*
X109566518Y-105380118D01*
X109762406Y-105511006D01*
X109928994Y-105677594D01*
X110059882Y-105873482D01*
X110059882Y-105873483D01*
X110150039Y-106091141D01*
X110196000Y-106322203D01*
X110196000Y-106557797D01*
X110150039Y-106788859D01*
X110104417Y-106899000D01*
X110059882Y-107006518D01*
X109928994Y-107202406D01*
X109762406Y-107368994D01*
X109566518Y-107499882D01*
X109476361Y-107537226D01*
X109348859Y-107590039D01*
X109117797Y-107636000D01*
X108882203Y-107636000D01*
X108651141Y-107590039D01*
X108523639Y-107537226D01*
X108433482Y-107499882D01*
X108237594Y-107368994D01*
X108071006Y-107202406D01*
X107940118Y-107006518D01*
X107895583Y-106899000D01*
X107849961Y-106788859D01*
X107804000Y-106557797D01*
X107804000Y-106322203D01*
X107849961Y-106091141D01*
X107940118Y-105873483D01*
X107940118Y-105873482D01*
X108071006Y-105677594D01*
X108237594Y-105511006D01*
X108433482Y-105380118D01*
X108523639Y-105342774D01*
X108651141Y-105289961D01*
X108882203Y-105244000D01*
X109117797Y-105244000D01*
X109348859Y-105289961D01*
X109348859Y-105289961D01*
G37*
G36*
X79776000Y-106001000D02*
G01*
X78424000Y-106001000D01*
X78424000Y-104399000D01*
X79776000Y-104399000D01*
X79776000Y-106001000D01*
X79776000Y-106001000D01*
G37*
G36*
X103680400Y-105891800D02*
G01*
X103019600Y-105891800D01*
X103019600Y-103808600D01*
X103680400Y-103808600D01*
X103680400Y-105891800D01*
X103680400Y-105891800D01*
G37*
G36*
X101140400Y-105891800D02*
G01*
X100479600Y-105891800D01*
X100479600Y-103808600D01*
X101140400Y-103808600D01*
X101140400Y-105891800D01*
X101140400Y-105891800D01*
G37*
G36*
X102410400Y-105891800D02*
G01*
X101749600Y-105891800D01*
X101749600Y-103808600D01*
X102410400Y-103808600D01*
X102410400Y-105891800D01*
X102410400Y-105891800D01*
G37*
G36*
X104950400Y-105891800D02*
G01*
X104289600Y-105891800D01*
X104289600Y-103808600D01*
X104950400Y-103808600D01*
X104950400Y-105891800D01*
X104950400Y-105891800D01*
G37*
G36*
X115251000Y-104351000D02*
G01*
X113649000Y-104351000D01*
X113649000Y-102949000D01*
X115251000Y-102949000D01*
X115251000Y-104351000D01*
X115251000Y-104351000D01*
G37*
G36*
X112551000Y-104351000D02*
G01*
X110949000Y-104351000D01*
X110949000Y-102949000D01*
X112551000Y-102949000D01*
X112551000Y-104351000D01*
X112551000Y-104351000D01*
G37*
G36*
X121051000Y-104351000D02*
G01*
X119449000Y-104351000D01*
X119449000Y-102949000D01*
X121051000Y-102949000D01*
X121051000Y-104351000D01*
X121051000Y-104351000D01*
G37*
G36*
X124051000Y-104351000D02*
G01*
X122449000Y-104351000D01*
X122449000Y-102949000D01*
X124051000Y-102949000D01*
X124051000Y-104351000D01*
X124051000Y-104351000D01*
G37*
G36*
X118351000Y-104351000D02*
G01*
X116749000Y-104351000D01*
X116749000Y-102949000D01*
X118351000Y-102949000D01*
X118351000Y-104351000D01*
X118351000Y-104351000D01*
G37*
G36*
X126751000Y-104351000D02*
G01*
X125149000Y-104351000D01*
X125149000Y-102949000D01*
X126751000Y-102949000D01*
X126751000Y-104351000D01*
X126751000Y-104351000D01*
G37*
G36*
X102060443Y-98955519D02*
G01*
X102126627Y-98962037D01*
X102296466Y-99013557D01*
X102452991Y-99097222D01*
X102488729Y-99126552D01*
X102590186Y-99209814D01*
X102673448Y-99311271D01*
X102702778Y-99347009D01*
X102786443Y-99503534D01*
X102837963Y-99673373D01*
X102855359Y-99850000D01*
X102837963Y-100026627D01*
X102786443Y-100196466D01*
X102702778Y-100352991D01*
X102673448Y-100388729D01*
X102590186Y-100490186D01*
X102488729Y-100573448D01*
X102452991Y-100602778D01*
X102296466Y-100686443D01*
X102126627Y-100737963D01*
X102060443Y-100744481D01*
X101994260Y-100751000D01*
X101905740Y-100751000D01*
X101839557Y-100744481D01*
X101773373Y-100737963D01*
X101603534Y-100686443D01*
X101447009Y-100602778D01*
X101411271Y-100573448D01*
X101309814Y-100490186D01*
X101226552Y-100388729D01*
X101197222Y-100352991D01*
X101113557Y-100196466D01*
X101062037Y-100026627D01*
X101044641Y-99850000D01*
X101062037Y-99673373D01*
X101113557Y-99503534D01*
X101197222Y-99347009D01*
X101226552Y-99311271D01*
X101309814Y-99209814D01*
X101411271Y-99126552D01*
X101447009Y-99097222D01*
X101603534Y-99013557D01*
X101773373Y-98962037D01*
X101839558Y-98955518D01*
X101905740Y-98949000D01*
X101994260Y-98949000D01*
X102060443Y-98955519D01*
X102060443Y-98955519D01*
G37*
G36*
X128251000Y-100751000D02*
G01*
X126449000Y-100751000D01*
X126449000Y-98949000D01*
X128251000Y-98949000D01*
X128251000Y-100751000D01*
X128251000Y-100751000D01*
G37*
G36*
X89360443Y-98955519D02*
G01*
X89426627Y-98962037D01*
X89596466Y-99013557D01*
X89752991Y-99097222D01*
X89788729Y-99126552D01*
X89890186Y-99209814D01*
X89973448Y-99311271D01*
X90002778Y-99347009D01*
X90086443Y-99503534D01*
X90137963Y-99673373D01*
X90155359Y-99850000D01*
X90137963Y-100026627D01*
X90086443Y-100196466D01*
X90002778Y-100352991D01*
X89973448Y-100388729D01*
X89890186Y-100490186D01*
X89788729Y-100573448D01*
X89752991Y-100602778D01*
X89596466Y-100686443D01*
X89426627Y-100737963D01*
X89360443Y-100744481D01*
X89294260Y-100751000D01*
X89205740Y-100751000D01*
X89139557Y-100744481D01*
X89073373Y-100737963D01*
X88903534Y-100686443D01*
X88747009Y-100602778D01*
X88711271Y-100573448D01*
X88609814Y-100490186D01*
X88526552Y-100388729D01*
X88497222Y-100352991D01*
X88413557Y-100196466D01*
X88362037Y-100026627D01*
X88344641Y-99850000D01*
X88362037Y-99673373D01*
X88413557Y-99503534D01*
X88497222Y-99347009D01*
X88526552Y-99311271D01*
X88609814Y-99209814D01*
X88711271Y-99126552D01*
X88747009Y-99097222D01*
X88903534Y-99013557D01*
X89073373Y-98962037D01*
X89139558Y-98955518D01*
X89205740Y-98949000D01*
X89294260Y-98949000D01*
X89360443Y-98955519D01*
X89360443Y-98955519D01*
G37*
G36*
X91900443Y-98955519D02*
G01*
X91966627Y-98962037D01*
X92136466Y-99013557D01*
X92292991Y-99097222D01*
X92328729Y-99126552D01*
X92430186Y-99209814D01*
X92513448Y-99311271D01*
X92542778Y-99347009D01*
X92626443Y-99503534D01*
X92677963Y-99673373D01*
X92695359Y-99850000D01*
X92677963Y-100026627D01*
X92626443Y-100196466D01*
X92542778Y-100352991D01*
X92513448Y-100388729D01*
X92430186Y-100490186D01*
X92328729Y-100573448D01*
X92292991Y-100602778D01*
X92136466Y-100686443D01*
X91966627Y-100737963D01*
X91900443Y-100744481D01*
X91834260Y-100751000D01*
X91745740Y-100751000D01*
X91679557Y-100744481D01*
X91613373Y-100737963D01*
X91443534Y-100686443D01*
X91287009Y-100602778D01*
X91251271Y-100573448D01*
X91149814Y-100490186D01*
X91066552Y-100388729D01*
X91037222Y-100352991D01*
X90953557Y-100196466D01*
X90902037Y-100026627D01*
X90884641Y-99850000D01*
X90902037Y-99673373D01*
X90953557Y-99503534D01*
X91037222Y-99347009D01*
X91066552Y-99311271D01*
X91149814Y-99209814D01*
X91251271Y-99126552D01*
X91287009Y-99097222D01*
X91443534Y-99013557D01*
X91613373Y-98962037D01*
X91679558Y-98955518D01*
X91745740Y-98949000D01*
X91834260Y-98949000D01*
X91900443Y-98955519D01*
X91900443Y-98955519D01*
G37*
G36*
X94440443Y-98955519D02*
G01*
X94506627Y-98962037D01*
X94676466Y-99013557D01*
X94832991Y-99097222D01*
X94868729Y-99126552D01*
X94970186Y-99209814D01*
X95053448Y-99311271D01*
X95082778Y-99347009D01*
X95166443Y-99503534D01*
X95217963Y-99673373D01*
X95235359Y-99850000D01*
X95217963Y-100026627D01*
X95166443Y-100196466D01*
X95082778Y-100352991D01*
X95053448Y-100388729D01*
X94970186Y-100490186D01*
X94868729Y-100573448D01*
X94832991Y-100602778D01*
X94676466Y-100686443D01*
X94506627Y-100737963D01*
X94440443Y-100744481D01*
X94374260Y-100751000D01*
X94285740Y-100751000D01*
X94219557Y-100744481D01*
X94153373Y-100737963D01*
X93983534Y-100686443D01*
X93827009Y-100602778D01*
X93791271Y-100573448D01*
X93689814Y-100490186D01*
X93606552Y-100388729D01*
X93577222Y-100352991D01*
X93493557Y-100196466D01*
X93442037Y-100026627D01*
X93424641Y-99850000D01*
X93442037Y-99673373D01*
X93493557Y-99503534D01*
X93577222Y-99347009D01*
X93606552Y-99311271D01*
X93689814Y-99209814D01*
X93791271Y-99126552D01*
X93827009Y-99097222D01*
X93983534Y-99013557D01*
X94153373Y-98962037D01*
X94219558Y-98955518D01*
X94285740Y-98949000D01*
X94374260Y-98949000D01*
X94440443Y-98955519D01*
X94440443Y-98955519D01*
G37*
G36*
X96980443Y-98955519D02*
G01*
X97046627Y-98962037D01*
X97216466Y-99013557D01*
X97372991Y-99097222D01*
X97408729Y-99126552D01*
X97510186Y-99209814D01*
X97593448Y-99311271D01*
X97622778Y-99347009D01*
X97706443Y-99503534D01*
X97757963Y-99673373D01*
X97775359Y-99850000D01*
X97757963Y-100026627D01*
X97706443Y-100196466D01*
X97622778Y-100352991D01*
X97593448Y-100388729D01*
X97510186Y-100490186D01*
X97408729Y-100573448D01*
X97372991Y-100602778D01*
X97216466Y-100686443D01*
X97046627Y-100737963D01*
X96980443Y-100744481D01*
X96914260Y-100751000D01*
X96825740Y-100751000D01*
X96759557Y-100744481D01*
X96693373Y-100737963D01*
X96523534Y-100686443D01*
X96367009Y-100602778D01*
X96331271Y-100573448D01*
X96229814Y-100490186D01*
X96146552Y-100388729D01*
X96117222Y-100352991D01*
X96033557Y-100196466D01*
X95982037Y-100026627D01*
X95964641Y-99850000D01*
X95982037Y-99673373D01*
X96033557Y-99503534D01*
X96117222Y-99347009D01*
X96146552Y-99311271D01*
X96229814Y-99209814D01*
X96331271Y-99126552D01*
X96367009Y-99097222D01*
X96523534Y-99013557D01*
X96693373Y-98962037D01*
X96759558Y-98955518D01*
X96825740Y-98949000D01*
X96914260Y-98949000D01*
X96980443Y-98955519D01*
X96980443Y-98955519D01*
G37*
G36*
X99520443Y-98955519D02*
G01*
X99586627Y-98962037D01*
X99756466Y-99013557D01*
X99912991Y-99097222D01*
X99948729Y-99126552D01*
X100050186Y-99209814D01*
X100133448Y-99311271D01*
X100162778Y-99347009D01*
X100246443Y-99503534D01*
X100297963Y-99673373D01*
X100315359Y-99850000D01*
X100297963Y-100026627D01*
X100246443Y-100196466D01*
X100162778Y-100352991D01*
X100133448Y-100388729D01*
X100050186Y-100490186D01*
X99948729Y-100573448D01*
X99912991Y-100602778D01*
X99756466Y-100686443D01*
X99586627Y-100737963D01*
X99520443Y-100744481D01*
X99454260Y-100751000D01*
X99365740Y-100751000D01*
X99299557Y-100744481D01*
X99233373Y-100737963D01*
X99063534Y-100686443D01*
X98907009Y-100602778D01*
X98871271Y-100573448D01*
X98769814Y-100490186D01*
X98686552Y-100388729D01*
X98657222Y-100352991D01*
X98573557Y-100196466D01*
X98522037Y-100026627D01*
X98504641Y-99850000D01*
X98522037Y-99673373D01*
X98573557Y-99503534D01*
X98657222Y-99347009D01*
X98686552Y-99311271D01*
X98769814Y-99209814D01*
X98871271Y-99126552D01*
X98907009Y-99097222D01*
X99063534Y-99013557D01*
X99233373Y-98962037D01*
X99299558Y-98955518D01*
X99365740Y-98949000D01*
X99454260Y-98949000D01*
X99520443Y-98955519D01*
X99520443Y-98955519D01*
G37*
G36*
X124920443Y-98955519D02*
G01*
X124986627Y-98962037D01*
X125156466Y-99013557D01*
X125312991Y-99097222D01*
X125348729Y-99126552D01*
X125450186Y-99209814D01*
X125533448Y-99311271D01*
X125562778Y-99347009D01*
X125646443Y-99503534D01*
X125697963Y-99673373D01*
X125715359Y-99850000D01*
X125697963Y-100026627D01*
X125646443Y-100196466D01*
X125562778Y-100352991D01*
X125533448Y-100388729D01*
X125450186Y-100490186D01*
X125348729Y-100573448D01*
X125312991Y-100602778D01*
X125156466Y-100686443D01*
X124986627Y-100737963D01*
X124920443Y-100744481D01*
X124854260Y-100751000D01*
X124765740Y-100751000D01*
X124699557Y-100744481D01*
X124633373Y-100737963D01*
X124463534Y-100686443D01*
X124307009Y-100602778D01*
X124271271Y-100573448D01*
X124169814Y-100490186D01*
X124086552Y-100388729D01*
X124057222Y-100352991D01*
X123973557Y-100196466D01*
X123922037Y-100026627D01*
X123904641Y-99850000D01*
X123922037Y-99673373D01*
X123973557Y-99503534D01*
X124057222Y-99347009D01*
X124086552Y-99311271D01*
X124169814Y-99209814D01*
X124271271Y-99126552D01*
X124307009Y-99097222D01*
X124463534Y-99013557D01*
X124633373Y-98962037D01*
X124699558Y-98955518D01*
X124765740Y-98949000D01*
X124854260Y-98949000D01*
X124920443Y-98955519D01*
X124920443Y-98955519D01*
G37*
G36*
X104600443Y-98955519D02*
G01*
X104666627Y-98962037D01*
X104836466Y-99013557D01*
X104992991Y-99097222D01*
X105028729Y-99126552D01*
X105130186Y-99209814D01*
X105213448Y-99311271D01*
X105242778Y-99347009D01*
X105326443Y-99503534D01*
X105377963Y-99673373D01*
X105395359Y-99850000D01*
X105377963Y-100026627D01*
X105326443Y-100196466D01*
X105242778Y-100352991D01*
X105213448Y-100388729D01*
X105130186Y-100490186D01*
X105028729Y-100573448D01*
X104992991Y-100602778D01*
X104836466Y-100686443D01*
X104666627Y-100737963D01*
X104600443Y-100744481D01*
X104534260Y-100751000D01*
X104445740Y-100751000D01*
X104379557Y-100744481D01*
X104313373Y-100737963D01*
X104143534Y-100686443D01*
X103987009Y-100602778D01*
X103951271Y-100573448D01*
X103849814Y-100490186D01*
X103766552Y-100388729D01*
X103737222Y-100352991D01*
X103653557Y-100196466D01*
X103602037Y-100026627D01*
X103584641Y-99850000D01*
X103602037Y-99673373D01*
X103653557Y-99503534D01*
X103737222Y-99347009D01*
X103766552Y-99311271D01*
X103849814Y-99209814D01*
X103951271Y-99126552D01*
X103987009Y-99097222D01*
X104143534Y-99013557D01*
X104313373Y-98962037D01*
X104379558Y-98955518D01*
X104445740Y-98949000D01*
X104534260Y-98949000D01*
X104600443Y-98955519D01*
X104600443Y-98955519D01*
G37*
G36*
X107140443Y-98955519D02*
G01*
X107206627Y-98962037D01*
X107376466Y-99013557D01*
X107532991Y-99097222D01*
X107568729Y-99126552D01*
X107670186Y-99209814D01*
X107753448Y-99311271D01*
X107782778Y-99347009D01*
X107866443Y-99503534D01*
X107917963Y-99673373D01*
X107935359Y-99850000D01*
X107917963Y-100026627D01*
X107866443Y-100196466D01*
X107782778Y-100352991D01*
X107753448Y-100388729D01*
X107670186Y-100490186D01*
X107568729Y-100573448D01*
X107532991Y-100602778D01*
X107376466Y-100686443D01*
X107206627Y-100737963D01*
X107140443Y-100744481D01*
X107074260Y-100751000D01*
X106985740Y-100751000D01*
X106919557Y-100744481D01*
X106853373Y-100737963D01*
X106683534Y-100686443D01*
X106527009Y-100602778D01*
X106491271Y-100573448D01*
X106389814Y-100490186D01*
X106306552Y-100388729D01*
X106277222Y-100352991D01*
X106193557Y-100196466D01*
X106142037Y-100026627D01*
X106124641Y-99850000D01*
X106142037Y-99673373D01*
X106193557Y-99503534D01*
X106277222Y-99347009D01*
X106306552Y-99311271D01*
X106389814Y-99209814D01*
X106491271Y-99126552D01*
X106527009Y-99097222D01*
X106683534Y-99013557D01*
X106853373Y-98962037D01*
X106919558Y-98955518D01*
X106985740Y-98949000D01*
X107074260Y-98949000D01*
X107140443Y-98955519D01*
X107140443Y-98955519D01*
G37*
G36*
X109680443Y-98955519D02*
G01*
X109746627Y-98962037D01*
X109916466Y-99013557D01*
X110072991Y-99097222D01*
X110108729Y-99126552D01*
X110210186Y-99209814D01*
X110293448Y-99311271D01*
X110322778Y-99347009D01*
X110406443Y-99503534D01*
X110457963Y-99673373D01*
X110475359Y-99850000D01*
X110457963Y-100026627D01*
X110406443Y-100196466D01*
X110322778Y-100352991D01*
X110293448Y-100388729D01*
X110210186Y-100490186D01*
X110108729Y-100573448D01*
X110072991Y-100602778D01*
X109916466Y-100686443D01*
X109746627Y-100737963D01*
X109680443Y-100744481D01*
X109614260Y-100751000D01*
X109525740Y-100751000D01*
X109459557Y-100744481D01*
X109393373Y-100737963D01*
X109223534Y-100686443D01*
X109067009Y-100602778D01*
X109031271Y-100573448D01*
X108929814Y-100490186D01*
X108846552Y-100388729D01*
X108817222Y-100352991D01*
X108733557Y-100196466D01*
X108682037Y-100026627D01*
X108664641Y-99850000D01*
X108682037Y-99673373D01*
X108733557Y-99503534D01*
X108817222Y-99347009D01*
X108846552Y-99311271D01*
X108929814Y-99209814D01*
X109031271Y-99126552D01*
X109067009Y-99097222D01*
X109223534Y-99013557D01*
X109393373Y-98962037D01*
X109459558Y-98955518D01*
X109525740Y-98949000D01*
X109614260Y-98949000D01*
X109680443Y-98955519D01*
X109680443Y-98955519D01*
G37*
G36*
X112220443Y-98955519D02*
G01*
X112286627Y-98962037D01*
X112456466Y-99013557D01*
X112612991Y-99097222D01*
X112648729Y-99126552D01*
X112750186Y-99209814D01*
X112833448Y-99311271D01*
X112862778Y-99347009D01*
X112946443Y-99503534D01*
X112997963Y-99673373D01*
X113015359Y-99850000D01*
X112997963Y-100026627D01*
X112946443Y-100196466D01*
X112862778Y-100352991D01*
X112833448Y-100388729D01*
X112750186Y-100490186D01*
X112648729Y-100573448D01*
X112612991Y-100602778D01*
X112456466Y-100686443D01*
X112286627Y-100737963D01*
X112220443Y-100744481D01*
X112154260Y-100751000D01*
X112065740Y-100751000D01*
X111999557Y-100744481D01*
X111933373Y-100737963D01*
X111763534Y-100686443D01*
X111607009Y-100602778D01*
X111571271Y-100573448D01*
X111469814Y-100490186D01*
X111386552Y-100388729D01*
X111357222Y-100352991D01*
X111273557Y-100196466D01*
X111222037Y-100026627D01*
X111204641Y-99850000D01*
X111222037Y-99673373D01*
X111273557Y-99503534D01*
X111357222Y-99347009D01*
X111386552Y-99311271D01*
X111469814Y-99209814D01*
X111571271Y-99126552D01*
X111607009Y-99097222D01*
X111763534Y-99013557D01*
X111933373Y-98962037D01*
X111999558Y-98955518D01*
X112065740Y-98949000D01*
X112154260Y-98949000D01*
X112220443Y-98955519D01*
X112220443Y-98955519D01*
G37*
G36*
X114760443Y-98955519D02*
G01*
X114826627Y-98962037D01*
X114996466Y-99013557D01*
X115152991Y-99097222D01*
X115188729Y-99126552D01*
X115290186Y-99209814D01*
X115373448Y-99311271D01*
X115402778Y-99347009D01*
X115486443Y-99503534D01*
X115537963Y-99673373D01*
X115555359Y-99850000D01*
X115537963Y-100026627D01*
X115486443Y-100196466D01*
X115402778Y-100352991D01*
X115373448Y-100388729D01*
X115290186Y-100490186D01*
X115188729Y-100573448D01*
X115152991Y-100602778D01*
X114996466Y-100686443D01*
X114826627Y-100737963D01*
X114760443Y-100744481D01*
X114694260Y-100751000D01*
X114605740Y-100751000D01*
X114539557Y-100744481D01*
X114473373Y-100737963D01*
X114303534Y-100686443D01*
X114147009Y-100602778D01*
X114111271Y-100573448D01*
X114009814Y-100490186D01*
X113926552Y-100388729D01*
X113897222Y-100352991D01*
X113813557Y-100196466D01*
X113762037Y-100026627D01*
X113744641Y-99850000D01*
X113762037Y-99673373D01*
X113813557Y-99503534D01*
X113897222Y-99347009D01*
X113926552Y-99311271D01*
X114009814Y-99209814D01*
X114111271Y-99126552D01*
X114147009Y-99097222D01*
X114303534Y-99013557D01*
X114473373Y-98962037D01*
X114539558Y-98955518D01*
X114605740Y-98949000D01*
X114694260Y-98949000D01*
X114760443Y-98955519D01*
X114760443Y-98955519D01*
G37*
G36*
X117300443Y-98955519D02*
G01*
X117366627Y-98962037D01*
X117536466Y-99013557D01*
X117692991Y-99097222D01*
X117728729Y-99126552D01*
X117830186Y-99209814D01*
X117913448Y-99311271D01*
X117942778Y-99347009D01*
X118026443Y-99503534D01*
X118077963Y-99673373D01*
X118095359Y-99850000D01*
X118077963Y-100026627D01*
X118026443Y-100196466D01*
X117942778Y-100352991D01*
X117913448Y-100388729D01*
X117830186Y-100490186D01*
X117728729Y-100573448D01*
X117692991Y-100602778D01*
X117536466Y-100686443D01*
X117366627Y-100737963D01*
X117300443Y-100744481D01*
X117234260Y-100751000D01*
X117145740Y-100751000D01*
X117079557Y-100744481D01*
X117013373Y-100737963D01*
X116843534Y-100686443D01*
X116687009Y-100602778D01*
X116651271Y-100573448D01*
X116549814Y-100490186D01*
X116466552Y-100388729D01*
X116437222Y-100352991D01*
X116353557Y-100196466D01*
X116302037Y-100026627D01*
X116284641Y-99850000D01*
X116302037Y-99673373D01*
X116353557Y-99503534D01*
X116437222Y-99347009D01*
X116466552Y-99311271D01*
X116549814Y-99209814D01*
X116651271Y-99126552D01*
X116687009Y-99097222D01*
X116843534Y-99013557D01*
X117013373Y-98962037D01*
X117079558Y-98955518D01*
X117145740Y-98949000D01*
X117234260Y-98949000D01*
X117300443Y-98955519D01*
X117300443Y-98955519D01*
G37*
G36*
X119840443Y-98955519D02*
G01*
X119906627Y-98962037D01*
X120076466Y-99013557D01*
X120232991Y-99097222D01*
X120268729Y-99126552D01*
X120370186Y-99209814D01*
X120453448Y-99311271D01*
X120482778Y-99347009D01*
X120566443Y-99503534D01*
X120617963Y-99673373D01*
X120635359Y-99850000D01*
X120617963Y-100026627D01*
X120566443Y-100196466D01*
X120482778Y-100352991D01*
X120453448Y-100388729D01*
X120370186Y-100490186D01*
X120268729Y-100573448D01*
X120232991Y-100602778D01*
X120076466Y-100686443D01*
X119906627Y-100737963D01*
X119840443Y-100744481D01*
X119774260Y-100751000D01*
X119685740Y-100751000D01*
X119619557Y-100744481D01*
X119553373Y-100737963D01*
X119383534Y-100686443D01*
X119227009Y-100602778D01*
X119191271Y-100573448D01*
X119089814Y-100490186D01*
X119006552Y-100388729D01*
X118977222Y-100352991D01*
X118893557Y-100196466D01*
X118842037Y-100026627D01*
X118824641Y-99850000D01*
X118842037Y-99673373D01*
X118893557Y-99503534D01*
X118977222Y-99347009D01*
X119006552Y-99311271D01*
X119089814Y-99209814D01*
X119191271Y-99126552D01*
X119227009Y-99097222D01*
X119383534Y-99013557D01*
X119553373Y-98962037D01*
X119619558Y-98955518D01*
X119685740Y-98949000D01*
X119774260Y-98949000D01*
X119840443Y-98955519D01*
X119840443Y-98955519D01*
G37*
G36*
X122380443Y-98955519D02*
G01*
X122446627Y-98962037D01*
X122616466Y-99013557D01*
X122772991Y-99097222D01*
X122808729Y-99126552D01*
X122910186Y-99209814D01*
X122993448Y-99311271D01*
X123022778Y-99347009D01*
X123106443Y-99503534D01*
X123157963Y-99673373D01*
X123175359Y-99850000D01*
X123157963Y-100026627D01*
X123106443Y-100196466D01*
X123022778Y-100352991D01*
X122993448Y-100388729D01*
X122910186Y-100490186D01*
X122808729Y-100573448D01*
X122772991Y-100602778D01*
X122616466Y-100686443D01*
X122446627Y-100737963D01*
X122380443Y-100744481D01*
X122314260Y-100751000D01*
X122225740Y-100751000D01*
X122159557Y-100744481D01*
X122093373Y-100737963D01*
X121923534Y-100686443D01*
X121767009Y-100602778D01*
X121731271Y-100573448D01*
X121629814Y-100490186D01*
X121546552Y-100388729D01*
X121517222Y-100352991D01*
X121433557Y-100196466D01*
X121382037Y-100026627D01*
X121364641Y-99850000D01*
X121382037Y-99673373D01*
X121433557Y-99503534D01*
X121517222Y-99347009D01*
X121546552Y-99311271D01*
X121629814Y-99209814D01*
X121731271Y-99126552D01*
X121767009Y-99097222D01*
X121923534Y-99013557D01*
X122093373Y-98962037D01*
X122159558Y-98955518D01*
X122225740Y-98949000D01*
X122314260Y-98949000D01*
X122380443Y-98955519D01*
X122380443Y-98955519D01*
G37*
G36*
X71818433Y-94284893D02*
G01*
X71908657Y-94302839D01*
X72014267Y-94346585D01*
X72163621Y-94408449D01*
X72163622Y-94408450D01*
X72393086Y-94561772D01*
X72588228Y-94756914D01*
X72690675Y-94910237D01*
X72741551Y-94986379D01*
X72794230Y-95113557D01*
X72847161Y-95241343D01*
X72860781Y-95309815D01*
X72888071Y-95447011D01*
X72901000Y-95512014D01*
X72901000Y-95787986D01*
X72847161Y-96058657D01*
X72803415Y-96164267D01*
X72741551Y-96313621D01*
X72741550Y-96313622D01*
X72588228Y-96543086D01*
X72393086Y-96738228D01*
X72243821Y-96837963D01*
X72163621Y-96891551D01*
X72014267Y-96953415D01*
X71908657Y-96997161D01*
X71818433Y-97015107D01*
X71637988Y-97051000D01*
X71362012Y-97051000D01*
X71181567Y-97015107D01*
X71091343Y-96997161D01*
X70985733Y-96953415D01*
X70836379Y-96891551D01*
X70756179Y-96837963D01*
X70606914Y-96738228D01*
X70411772Y-96543086D01*
X70258450Y-96313622D01*
X70258449Y-96313621D01*
X70196585Y-96164267D01*
X70152839Y-96058657D01*
X70099000Y-95787986D01*
X70099000Y-95512014D01*
X70111930Y-95447011D01*
X70139219Y-95309815D01*
X70152839Y-95241343D01*
X70205770Y-95113557D01*
X70258449Y-94986379D01*
X70309325Y-94910237D01*
X70411772Y-94756914D01*
X70606914Y-94561772D01*
X70836378Y-94408450D01*
X70836379Y-94408449D01*
X70985733Y-94346585D01*
X71091343Y-94302839D01*
X71181567Y-94284893D01*
X71362012Y-94249000D01*
X71637988Y-94249000D01*
X71818433Y-94284893D01*
X71818433Y-94284893D01*
G37*
G36*
X133518433Y-94284893D02*
G01*
X133608657Y-94302839D01*
X133714267Y-94346585D01*
X133863621Y-94408449D01*
X133863622Y-94408450D01*
X134093086Y-94561772D01*
X134288228Y-94756914D01*
X134390675Y-94910237D01*
X134441551Y-94986379D01*
X134494230Y-95113557D01*
X134547161Y-95241343D01*
X134560781Y-95309815D01*
X134588071Y-95447011D01*
X134601000Y-95512014D01*
X134601000Y-95787986D01*
X134547161Y-96058657D01*
X134503415Y-96164267D01*
X134441551Y-96313621D01*
X134441550Y-96313622D01*
X134288228Y-96543086D01*
X134093086Y-96738228D01*
X133943821Y-96837963D01*
X133863621Y-96891551D01*
X133714267Y-96953415D01*
X133608657Y-96997161D01*
X133518433Y-97015107D01*
X133337988Y-97051000D01*
X133062012Y-97051000D01*
X132881567Y-97015107D01*
X132791343Y-96997161D01*
X132685733Y-96953415D01*
X132536379Y-96891551D01*
X132456179Y-96837963D01*
X132306914Y-96738228D01*
X132111772Y-96543086D01*
X131958450Y-96313622D01*
X131958449Y-96313621D01*
X131896585Y-96164267D01*
X131852839Y-96058657D01*
X131799000Y-95787986D01*
X131799000Y-95512014D01*
X131811930Y-95447011D01*
X131839219Y-95309815D01*
X131852839Y-95241343D01*
X131905770Y-95113557D01*
X131958449Y-94986379D01*
X132009325Y-94910237D01*
X132111772Y-94756914D01*
X132306914Y-94561772D01*
X132536378Y-94408450D01*
X132536379Y-94408449D01*
X132685733Y-94346585D01*
X132791343Y-94302839D01*
X132881567Y-94284893D01*
X133062012Y-94249000D01*
X133337988Y-94249000D01*
X133518433Y-94284893D01*
X133518433Y-94284893D01*
G37*
G36*
X107140443Y-95055519D02*
G01*
X107206627Y-95062037D01*
X107376466Y-95113557D01*
X107532991Y-95197222D01*
X107568729Y-95226552D01*
X107670186Y-95309814D01*
X107753448Y-95411271D01*
X107782778Y-95447009D01*
X107866443Y-95603534D01*
X107917963Y-95773373D01*
X107935359Y-95950000D01*
X107917963Y-96126627D01*
X107866443Y-96296466D01*
X107782778Y-96452991D01*
X107753448Y-96488729D01*
X107670186Y-96590186D01*
X107568729Y-96673448D01*
X107532991Y-96702778D01*
X107376466Y-96786443D01*
X107206627Y-96837963D01*
X107140443Y-96844481D01*
X107074260Y-96851000D01*
X106985740Y-96851000D01*
X106919557Y-96844481D01*
X106853373Y-96837963D01*
X106683534Y-96786443D01*
X106527009Y-96702778D01*
X106491271Y-96673448D01*
X106389814Y-96590186D01*
X106306552Y-96488729D01*
X106277222Y-96452991D01*
X106193557Y-96296466D01*
X106142037Y-96126627D01*
X106124641Y-95950000D01*
X106142037Y-95773373D01*
X106193557Y-95603534D01*
X106277222Y-95447009D01*
X106306552Y-95411271D01*
X106389814Y-95309814D01*
X106491271Y-95226552D01*
X106527009Y-95197222D01*
X106683534Y-95113557D01*
X106853373Y-95062037D01*
X106919557Y-95055519D01*
X106985740Y-95049000D01*
X107074260Y-95049000D01*
X107140443Y-95055519D01*
X107140443Y-95055519D01*
G37*
G36*
X78251000Y-96851000D02*
G01*
X76449000Y-96851000D01*
X76449000Y-95049000D01*
X78251000Y-95049000D01*
X78251000Y-96851000D01*
X78251000Y-96851000D01*
G37*
G36*
X80000443Y-95055519D02*
G01*
X80066627Y-95062037D01*
X80236466Y-95113557D01*
X80392991Y-95197222D01*
X80428729Y-95226552D01*
X80530186Y-95309814D01*
X80613448Y-95411271D01*
X80642778Y-95447009D01*
X80726443Y-95603534D01*
X80777963Y-95773373D01*
X80795359Y-95950000D01*
X80777963Y-96126627D01*
X80726443Y-96296466D01*
X80642778Y-96452991D01*
X80613448Y-96488729D01*
X80530186Y-96590186D01*
X80428729Y-96673448D01*
X80392991Y-96702778D01*
X80236466Y-96786443D01*
X80066627Y-96837963D01*
X80000443Y-96844481D01*
X79934260Y-96851000D01*
X79845740Y-96851000D01*
X79779557Y-96844481D01*
X79713373Y-96837963D01*
X79543534Y-96786443D01*
X79387009Y-96702778D01*
X79351271Y-96673448D01*
X79249814Y-96590186D01*
X79166552Y-96488729D01*
X79137222Y-96452991D01*
X79053557Y-96296466D01*
X79002037Y-96126627D01*
X78984641Y-95950000D01*
X79002037Y-95773373D01*
X79053557Y-95603534D01*
X79137222Y-95447009D01*
X79166552Y-95411271D01*
X79249814Y-95309814D01*
X79351271Y-95226552D01*
X79387009Y-95197222D01*
X79543534Y-95113557D01*
X79713373Y-95062037D01*
X79779557Y-95055519D01*
X79845740Y-95049000D01*
X79934260Y-95049000D01*
X80000443Y-95055519D01*
X80000443Y-95055519D01*
G37*
G36*
X85080443Y-95055519D02*
G01*
X85146627Y-95062037D01*
X85316466Y-95113557D01*
X85472991Y-95197222D01*
X85508729Y-95226552D01*
X85610186Y-95309814D01*
X85693448Y-95411271D01*
X85722778Y-95447009D01*
X85806443Y-95603534D01*
X85857963Y-95773373D01*
X85875359Y-95950000D01*
X85857963Y-96126627D01*
X85806443Y-96296466D01*
X85722778Y-96452991D01*
X85693448Y-96488729D01*
X85610186Y-96590186D01*
X85508729Y-96673448D01*
X85472991Y-96702778D01*
X85316466Y-96786443D01*
X85146627Y-96837963D01*
X85080443Y-96844481D01*
X85014260Y-96851000D01*
X84925740Y-96851000D01*
X84859557Y-96844481D01*
X84793373Y-96837963D01*
X84623534Y-96786443D01*
X84467009Y-96702778D01*
X84431271Y-96673448D01*
X84329814Y-96590186D01*
X84246552Y-96488729D01*
X84217222Y-96452991D01*
X84133557Y-96296466D01*
X84082037Y-96126627D01*
X84064641Y-95950000D01*
X84082037Y-95773373D01*
X84133557Y-95603534D01*
X84217222Y-95447009D01*
X84246552Y-95411271D01*
X84329814Y-95309814D01*
X84431271Y-95226552D01*
X84467009Y-95197222D01*
X84623534Y-95113557D01*
X84793373Y-95062037D01*
X84859557Y-95055519D01*
X84925740Y-95049000D01*
X85014260Y-95049000D01*
X85080443Y-95055519D01*
X85080443Y-95055519D01*
G37*
G36*
X89360443Y-95055519D02*
G01*
X89426627Y-95062037D01*
X89596466Y-95113557D01*
X89752991Y-95197222D01*
X89788729Y-95226552D01*
X89890186Y-95309814D01*
X89973448Y-95411271D01*
X90002778Y-95447009D01*
X90086443Y-95603534D01*
X90137963Y-95773373D01*
X90155359Y-95950000D01*
X90137963Y-96126627D01*
X90086443Y-96296466D01*
X90002778Y-96452991D01*
X89973448Y-96488729D01*
X89890186Y-96590186D01*
X89788729Y-96673448D01*
X89752991Y-96702778D01*
X89596466Y-96786443D01*
X89426627Y-96837963D01*
X89360443Y-96844481D01*
X89294260Y-96851000D01*
X89205740Y-96851000D01*
X89139557Y-96844481D01*
X89073373Y-96837963D01*
X88903534Y-96786443D01*
X88747009Y-96702778D01*
X88711271Y-96673448D01*
X88609814Y-96590186D01*
X88526552Y-96488729D01*
X88497222Y-96452991D01*
X88413557Y-96296466D01*
X88362037Y-96126627D01*
X88344641Y-95950000D01*
X88362037Y-95773373D01*
X88413557Y-95603534D01*
X88497222Y-95447009D01*
X88526552Y-95411271D01*
X88609814Y-95309814D01*
X88711271Y-95226552D01*
X88747009Y-95197222D01*
X88903534Y-95113557D01*
X89073373Y-95062037D01*
X89139557Y-95055519D01*
X89205740Y-95049000D01*
X89294260Y-95049000D01*
X89360443Y-95055519D01*
X89360443Y-95055519D01*
G37*
G36*
X91900443Y-95055519D02*
G01*
X91966627Y-95062037D01*
X92136466Y-95113557D01*
X92292991Y-95197222D01*
X92328729Y-95226552D01*
X92430186Y-95309814D01*
X92513448Y-95411271D01*
X92542778Y-95447009D01*
X92626443Y-95603534D01*
X92677963Y-95773373D01*
X92695359Y-95950000D01*
X92677963Y-96126627D01*
X92626443Y-96296466D01*
X92542778Y-96452991D01*
X92513448Y-96488729D01*
X92430186Y-96590186D01*
X92328729Y-96673448D01*
X92292991Y-96702778D01*
X92136466Y-96786443D01*
X91966627Y-96837963D01*
X91900443Y-96844481D01*
X91834260Y-96851000D01*
X91745740Y-96851000D01*
X91679557Y-96844481D01*
X91613373Y-96837963D01*
X91443534Y-96786443D01*
X91287009Y-96702778D01*
X91251271Y-96673448D01*
X91149814Y-96590186D01*
X91066552Y-96488729D01*
X91037222Y-96452991D01*
X90953557Y-96296466D01*
X90902037Y-96126627D01*
X90884641Y-95950000D01*
X90902037Y-95773373D01*
X90953557Y-95603534D01*
X91037222Y-95447009D01*
X91066552Y-95411271D01*
X91149814Y-95309814D01*
X91251271Y-95226552D01*
X91287009Y-95197222D01*
X91443534Y-95113557D01*
X91613373Y-95062037D01*
X91679557Y-95055519D01*
X91745740Y-95049000D01*
X91834260Y-95049000D01*
X91900443Y-95055519D01*
X91900443Y-95055519D01*
G37*
G36*
X94440443Y-95055519D02*
G01*
X94506627Y-95062037D01*
X94676466Y-95113557D01*
X94832991Y-95197222D01*
X94868729Y-95226552D01*
X94970186Y-95309814D01*
X95053448Y-95411271D01*
X95082778Y-95447009D01*
X95166443Y-95603534D01*
X95217963Y-95773373D01*
X95235359Y-95950000D01*
X95217963Y-96126627D01*
X95166443Y-96296466D01*
X95082778Y-96452991D01*
X95053448Y-96488729D01*
X94970186Y-96590186D01*
X94868729Y-96673448D01*
X94832991Y-96702778D01*
X94676466Y-96786443D01*
X94506627Y-96837963D01*
X94440443Y-96844481D01*
X94374260Y-96851000D01*
X94285740Y-96851000D01*
X94219557Y-96844481D01*
X94153373Y-96837963D01*
X93983534Y-96786443D01*
X93827009Y-96702778D01*
X93791271Y-96673448D01*
X93689814Y-96590186D01*
X93606552Y-96488729D01*
X93577222Y-96452991D01*
X93493557Y-96296466D01*
X93442037Y-96126627D01*
X93424641Y-95950000D01*
X93442037Y-95773373D01*
X93493557Y-95603534D01*
X93577222Y-95447009D01*
X93606552Y-95411271D01*
X93689814Y-95309814D01*
X93791271Y-95226552D01*
X93827009Y-95197222D01*
X93983534Y-95113557D01*
X94153373Y-95062037D01*
X94219557Y-95055519D01*
X94285740Y-95049000D01*
X94374260Y-95049000D01*
X94440443Y-95055519D01*
X94440443Y-95055519D01*
G37*
G36*
X96980443Y-95055519D02*
G01*
X97046627Y-95062037D01*
X97216466Y-95113557D01*
X97372991Y-95197222D01*
X97408729Y-95226552D01*
X97510186Y-95309814D01*
X97593448Y-95411271D01*
X97622778Y-95447009D01*
X97706443Y-95603534D01*
X97757963Y-95773373D01*
X97775359Y-95950000D01*
X97757963Y-96126627D01*
X97706443Y-96296466D01*
X97622778Y-96452991D01*
X97593448Y-96488729D01*
X97510186Y-96590186D01*
X97408729Y-96673448D01*
X97372991Y-96702778D01*
X97216466Y-96786443D01*
X97046627Y-96837963D01*
X96980443Y-96844481D01*
X96914260Y-96851000D01*
X96825740Y-96851000D01*
X96759557Y-96844481D01*
X96693373Y-96837963D01*
X96523534Y-96786443D01*
X96367009Y-96702778D01*
X96331271Y-96673448D01*
X96229814Y-96590186D01*
X96146552Y-96488729D01*
X96117222Y-96452991D01*
X96033557Y-96296466D01*
X95982037Y-96126627D01*
X95964641Y-95950000D01*
X95982037Y-95773373D01*
X96033557Y-95603534D01*
X96117222Y-95447009D01*
X96146552Y-95411271D01*
X96229814Y-95309814D01*
X96331271Y-95226552D01*
X96367009Y-95197222D01*
X96523534Y-95113557D01*
X96693373Y-95062037D01*
X96759557Y-95055519D01*
X96825740Y-95049000D01*
X96914260Y-95049000D01*
X96980443Y-95055519D01*
X96980443Y-95055519D01*
G37*
G36*
X99520443Y-95055519D02*
G01*
X99586627Y-95062037D01*
X99756466Y-95113557D01*
X99912991Y-95197222D01*
X99948729Y-95226552D01*
X100050186Y-95309814D01*
X100133448Y-95411271D01*
X100162778Y-95447009D01*
X100246443Y-95603534D01*
X100297963Y-95773373D01*
X100315359Y-95950000D01*
X100297963Y-96126627D01*
X100246443Y-96296466D01*
X100162778Y-96452991D01*
X100133448Y-96488729D01*
X100050186Y-96590186D01*
X99948729Y-96673448D01*
X99912991Y-96702778D01*
X99756466Y-96786443D01*
X99586627Y-96837963D01*
X99520443Y-96844481D01*
X99454260Y-96851000D01*
X99365740Y-96851000D01*
X99299557Y-96844481D01*
X99233373Y-96837963D01*
X99063534Y-96786443D01*
X98907009Y-96702778D01*
X98871271Y-96673448D01*
X98769814Y-96590186D01*
X98686552Y-96488729D01*
X98657222Y-96452991D01*
X98573557Y-96296466D01*
X98522037Y-96126627D01*
X98504641Y-95950000D01*
X98522037Y-95773373D01*
X98573557Y-95603534D01*
X98657222Y-95447009D01*
X98686552Y-95411271D01*
X98769814Y-95309814D01*
X98871271Y-95226552D01*
X98907009Y-95197222D01*
X99063534Y-95113557D01*
X99233373Y-95062037D01*
X99299557Y-95055519D01*
X99365740Y-95049000D01*
X99454260Y-95049000D01*
X99520443Y-95055519D01*
X99520443Y-95055519D01*
G37*
G36*
X102060443Y-95055519D02*
G01*
X102126627Y-95062037D01*
X102296466Y-95113557D01*
X102452991Y-95197222D01*
X102488729Y-95226552D01*
X102590186Y-95309814D01*
X102673448Y-95411271D01*
X102702778Y-95447009D01*
X102786443Y-95603534D01*
X102837963Y-95773373D01*
X102855359Y-95950000D01*
X102837963Y-96126627D01*
X102786443Y-96296466D01*
X102702778Y-96452991D01*
X102673448Y-96488729D01*
X102590186Y-96590186D01*
X102488729Y-96673448D01*
X102452991Y-96702778D01*
X102296466Y-96786443D01*
X102126627Y-96837963D01*
X102060443Y-96844481D01*
X101994260Y-96851000D01*
X101905740Y-96851000D01*
X101839557Y-96844481D01*
X101773373Y-96837963D01*
X101603534Y-96786443D01*
X101447009Y-96702778D01*
X101411271Y-96673448D01*
X101309814Y-96590186D01*
X101226552Y-96488729D01*
X101197222Y-96452991D01*
X101113557Y-96296466D01*
X101062037Y-96126627D01*
X101044641Y-95950000D01*
X101062037Y-95773373D01*
X101113557Y-95603534D01*
X101197222Y-95447009D01*
X101226552Y-95411271D01*
X101309814Y-95309814D01*
X101411271Y-95226552D01*
X101447009Y-95197222D01*
X101603534Y-95113557D01*
X101773373Y-95062037D01*
X101839557Y-95055519D01*
X101905740Y-95049000D01*
X101994260Y-95049000D01*
X102060443Y-95055519D01*
X102060443Y-95055519D01*
G37*
G36*
X82540443Y-95055519D02*
G01*
X82606627Y-95062037D01*
X82776466Y-95113557D01*
X82932991Y-95197222D01*
X82968729Y-95226552D01*
X83070186Y-95309814D01*
X83153448Y-95411271D01*
X83182778Y-95447009D01*
X83266443Y-95603534D01*
X83317963Y-95773373D01*
X83335359Y-95950000D01*
X83317963Y-96126627D01*
X83266443Y-96296466D01*
X83182778Y-96452991D01*
X83153448Y-96488729D01*
X83070186Y-96590186D01*
X82968729Y-96673448D01*
X82932991Y-96702778D01*
X82776466Y-96786443D01*
X82606627Y-96837963D01*
X82540443Y-96844481D01*
X82474260Y-96851000D01*
X82385740Y-96851000D01*
X82319557Y-96844481D01*
X82253373Y-96837963D01*
X82083534Y-96786443D01*
X81927009Y-96702778D01*
X81891271Y-96673448D01*
X81789814Y-96590186D01*
X81706552Y-96488729D01*
X81677222Y-96452991D01*
X81593557Y-96296466D01*
X81542037Y-96126627D01*
X81524641Y-95950000D01*
X81542037Y-95773373D01*
X81593557Y-95603534D01*
X81677222Y-95447009D01*
X81706552Y-95411271D01*
X81789814Y-95309814D01*
X81891271Y-95226552D01*
X81927009Y-95197222D01*
X82083534Y-95113557D01*
X82253373Y-95062037D01*
X82319557Y-95055519D01*
X82385740Y-95049000D01*
X82474260Y-95049000D01*
X82540443Y-95055519D01*
X82540443Y-95055519D01*
G37*
G36*
X109680443Y-95055519D02*
G01*
X109746627Y-95062037D01*
X109916466Y-95113557D01*
X110072991Y-95197222D01*
X110108729Y-95226552D01*
X110210186Y-95309814D01*
X110293448Y-95411271D01*
X110322778Y-95447009D01*
X110406443Y-95603534D01*
X110457963Y-95773373D01*
X110475359Y-95950000D01*
X110457963Y-96126627D01*
X110406443Y-96296466D01*
X110322778Y-96452991D01*
X110293448Y-96488729D01*
X110210186Y-96590186D01*
X110108729Y-96673448D01*
X110072991Y-96702778D01*
X109916466Y-96786443D01*
X109746627Y-96837963D01*
X109680443Y-96844481D01*
X109614260Y-96851000D01*
X109525740Y-96851000D01*
X109459557Y-96844481D01*
X109393373Y-96837963D01*
X109223534Y-96786443D01*
X109067009Y-96702778D01*
X109031271Y-96673448D01*
X108929814Y-96590186D01*
X108846552Y-96488729D01*
X108817222Y-96452991D01*
X108733557Y-96296466D01*
X108682037Y-96126627D01*
X108664641Y-95950000D01*
X108682037Y-95773373D01*
X108733557Y-95603534D01*
X108817222Y-95447009D01*
X108846552Y-95411271D01*
X108929814Y-95309814D01*
X109031271Y-95226552D01*
X109067009Y-95197222D01*
X109223534Y-95113557D01*
X109393373Y-95062037D01*
X109459557Y-95055519D01*
X109525740Y-95049000D01*
X109614260Y-95049000D01*
X109680443Y-95055519D01*
X109680443Y-95055519D01*
G37*
G36*
X112220443Y-95055519D02*
G01*
X112286627Y-95062037D01*
X112456466Y-95113557D01*
X112612991Y-95197222D01*
X112648729Y-95226552D01*
X112750186Y-95309814D01*
X112833448Y-95411271D01*
X112862778Y-95447009D01*
X112946443Y-95603534D01*
X112997963Y-95773373D01*
X113015359Y-95950000D01*
X112997963Y-96126627D01*
X112946443Y-96296466D01*
X112862778Y-96452991D01*
X112833448Y-96488729D01*
X112750186Y-96590186D01*
X112648729Y-96673448D01*
X112612991Y-96702778D01*
X112456466Y-96786443D01*
X112286627Y-96837963D01*
X112220443Y-96844481D01*
X112154260Y-96851000D01*
X112065740Y-96851000D01*
X111999557Y-96844481D01*
X111933373Y-96837963D01*
X111763534Y-96786443D01*
X111607009Y-96702778D01*
X111571271Y-96673448D01*
X111469814Y-96590186D01*
X111386552Y-96488729D01*
X111357222Y-96452991D01*
X111273557Y-96296466D01*
X111222037Y-96126627D01*
X111204641Y-95950000D01*
X111222037Y-95773373D01*
X111273557Y-95603534D01*
X111357222Y-95447009D01*
X111386552Y-95411271D01*
X111469814Y-95309814D01*
X111571271Y-95226552D01*
X111607009Y-95197222D01*
X111763534Y-95113557D01*
X111933373Y-95062037D01*
X111999557Y-95055519D01*
X112065740Y-95049000D01*
X112154260Y-95049000D01*
X112220443Y-95055519D01*
X112220443Y-95055519D01*
G37*
G36*
X117300443Y-95055519D02*
G01*
X117366627Y-95062037D01*
X117536466Y-95113557D01*
X117692991Y-95197222D01*
X117728729Y-95226552D01*
X117830186Y-95309814D01*
X117913448Y-95411271D01*
X117942778Y-95447009D01*
X118026443Y-95603534D01*
X118077963Y-95773373D01*
X118095359Y-95950000D01*
X118077963Y-96126627D01*
X118026443Y-96296466D01*
X117942778Y-96452991D01*
X117913448Y-96488729D01*
X117830186Y-96590186D01*
X117728729Y-96673448D01*
X117692991Y-96702778D01*
X117536466Y-96786443D01*
X117366627Y-96837963D01*
X117300443Y-96844481D01*
X117234260Y-96851000D01*
X117145740Y-96851000D01*
X117079557Y-96844481D01*
X117013373Y-96837963D01*
X116843534Y-96786443D01*
X116687009Y-96702778D01*
X116651271Y-96673448D01*
X116549814Y-96590186D01*
X116466552Y-96488729D01*
X116437222Y-96452991D01*
X116353557Y-96296466D01*
X116302037Y-96126627D01*
X116284641Y-95950000D01*
X116302037Y-95773373D01*
X116353557Y-95603534D01*
X116437222Y-95447009D01*
X116466552Y-95411271D01*
X116549814Y-95309814D01*
X116651271Y-95226552D01*
X116687009Y-95197222D01*
X116843534Y-95113557D01*
X117013373Y-95062037D01*
X117079557Y-95055519D01*
X117145740Y-95049000D01*
X117234260Y-95049000D01*
X117300443Y-95055519D01*
X117300443Y-95055519D01*
G37*
G36*
X119840443Y-95055519D02*
G01*
X119906627Y-95062037D01*
X120076466Y-95113557D01*
X120232991Y-95197222D01*
X120268729Y-95226552D01*
X120370186Y-95309814D01*
X120453448Y-95411271D01*
X120482778Y-95447009D01*
X120566443Y-95603534D01*
X120617963Y-95773373D01*
X120635359Y-95950000D01*
X120617963Y-96126627D01*
X120566443Y-96296466D01*
X120482778Y-96452991D01*
X120453448Y-96488729D01*
X120370186Y-96590186D01*
X120268729Y-96673448D01*
X120232991Y-96702778D01*
X120076466Y-96786443D01*
X119906627Y-96837963D01*
X119840443Y-96844481D01*
X119774260Y-96851000D01*
X119685740Y-96851000D01*
X119619557Y-96844481D01*
X119553373Y-96837963D01*
X119383534Y-96786443D01*
X119227009Y-96702778D01*
X119191271Y-96673448D01*
X119089814Y-96590186D01*
X119006552Y-96488729D01*
X118977222Y-96452991D01*
X118893557Y-96296466D01*
X118842037Y-96126627D01*
X118824641Y-95950000D01*
X118842037Y-95773373D01*
X118893557Y-95603534D01*
X118977222Y-95447009D01*
X119006552Y-95411271D01*
X119089814Y-95309814D01*
X119191271Y-95226552D01*
X119227009Y-95197222D01*
X119383534Y-95113557D01*
X119553373Y-95062037D01*
X119619557Y-95055519D01*
X119685740Y-95049000D01*
X119774260Y-95049000D01*
X119840443Y-95055519D01*
X119840443Y-95055519D01*
G37*
G36*
X122380443Y-95055519D02*
G01*
X122446627Y-95062037D01*
X122616466Y-95113557D01*
X122772991Y-95197222D01*
X122808729Y-95226552D01*
X122910186Y-95309814D01*
X122993448Y-95411271D01*
X123022778Y-95447009D01*
X123106443Y-95603534D01*
X123157963Y-95773373D01*
X123175359Y-95950000D01*
X123157963Y-96126627D01*
X123106443Y-96296466D01*
X123022778Y-96452991D01*
X122993448Y-96488729D01*
X122910186Y-96590186D01*
X122808729Y-96673448D01*
X122772991Y-96702778D01*
X122616466Y-96786443D01*
X122446627Y-96837963D01*
X122380443Y-96844481D01*
X122314260Y-96851000D01*
X122225740Y-96851000D01*
X122159557Y-96844481D01*
X122093373Y-96837963D01*
X121923534Y-96786443D01*
X121767009Y-96702778D01*
X121731271Y-96673448D01*
X121629814Y-96590186D01*
X121546552Y-96488729D01*
X121517222Y-96452991D01*
X121433557Y-96296466D01*
X121382037Y-96126627D01*
X121364641Y-95950000D01*
X121382037Y-95773373D01*
X121433557Y-95603534D01*
X121517222Y-95447009D01*
X121546552Y-95411271D01*
X121629814Y-95309814D01*
X121731271Y-95226552D01*
X121767009Y-95197222D01*
X121923534Y-95113557D01*
X122093373Y-95062037D01*
X122159557Y-95055519D01*
X122225740Y-95049000D01*
X122314260Y-95049000D01*
X122380443Y-95055519D01*
X122380443Y-95055519D01*
G37*
G36*
X124920443Y-95055519D02*
G01*
X124986627Y-95062037D01*
X125156466Y-95113557D01*
X125312991Y-95197222D01*
X125348729Y-95226552D01*
X125450186Y-95309814D01*
X125533448Y-95411271D01*
X125562778Y-95447009D01*
X125646443Y-95603534D01*
X125697963Y-95773373D01*
X125715359Y-95950000D01*
X125697963Y-96126627D01*
X125646443Y-96296466D01*
X125562778Y-96452991D01*
X125533448Y-96488729D01*
X125450186Y-96590186D01*
X125348729Y-96673448D01*
X125312991Y-96702778D01*
X125156466Y-96786443D01*
X124986627Y-96837963D01*
X124920443Y-96844481D01*
X124854260Y-96851000D01*
X124765740Y-96851000D01*
X124699557Y-96844481D01*
X124633373Y-96837963D01*
X124463534Y-96786443D01*
X124307009Y-96702778D01*
X124271271Y-96673448D01*
X124169814Y-96590186D01*
X124086552Y-96488729D01*
X124057222Y-96452991D01*
X123973557Y-96296466D01*
X123922037Y-96126627D01*
X123904641Y-95950000D01*
X123922037Y-95773373D01*
X123973557Y-95603534D01*
X124057222Y-95447009D01*
X124086552Y-95411271D01*
X124169814Y-95309814D01*
X124271271Y-95226552D01*
X124307009Y-95197222D01*
X124463534Y-95113557D01*
X124633373Y-95062037D01*
X124699557Y-95055519D01*
X124765740Y-95049000D01*
X124854260Y-95049000D01*
X124920443Y-95055519D01*
X124920443Y-95055519D01*
G37*
G36*
X114760443Y-95055519D02*
G01*
X114826627Y-95062037D01*
X114996466Y-95113557D01*
X115152991Y-95197222D01*
X115188729Y-95226552D01*
X115290186Y-95309814D01*
X115373448Y-95411271D01*
X115402778Y-95447009D01*
X115486443Y-95603534D01*
X115537963Y-95773373D01*
X115555359Y-95950000D01*
X115537963Y-96126627D01*
X115486443Y-96296466D01*
X115402778Y-96452991D01*
X115373448Y-96488729D01*
X115290186Y-96590186D01*
X115188729Y-96673448D01*
X115152991Y-96702778D01*
X114996466Y-96786443D01*
X114826627Y-96837963D01*
X114760443Y-96844481D01*
X114694260Y-96851000D01*
X114605740Y-96851000D01*
X114539557Y-96844481D01*
X114473373Y-96837963D01*
X114303534Y-96786443D01*
X114147009Y-96702778D01*
X114111271Y-96673448D01*
X114009814Y-96590186D01*
X113926552Y-96488729D01*
X113897222Y-96452991D01*
X113813557Y-96296466D01*
X113762037Y-96126627D01*
X113744641Y-95950000D01*
X113762037Y-95773373D01*
X113813557Y-95603534D01*
X113897222Y-95447009D01*
X113926552Y-95411271D01*
X114009814Y-95309814D01*
X114111271Y-95226552D01*
X114147009Y-95197222D01*
X114303534Y-95113557D01*
X114473373Y-95062037D01*
X114539557Y-95055519D01*
X114605740Y-95049000D01*
X114694260Y-95049000D01*
X114760443Y-95055519D01*
X114760443Y-95055519D01*
G37*
G36*
X128251000Y-96851000D02*
G01*
X126449000Y-96851000D01*
X126449000Y-95049000D01*
X128251000Y-95049000D01*
X128251000Y-96851000D01*
X128251000Y-96851000D01*
G37*
G36*
X104600443Y-95055519D02*
G01*
X104666627Y-95062037D01*
X104836466Y-95113557D01*
X104992991Y-95197222D01*
X105028729Y-95226552D01*
X105130186Y-95309814D01*
X105213448Y-95411271D01*
X105242778Y-95447009D01*
X105326443Y-95603534D01*
X105377963Y-95773373D01*
X105395359Y-95950000D01*
X105377963Y-96126627D01*
X105326443Y-96296466D01*
X105242778Y-96452991D01*
X105213448Y-96488729D01*
X105130186Y-96590186D01*
X105028729Y-96673448D01*
X104992991Y-96702778D01*
X104836466Y-96786443D01*
X104666627Y-96837963D01*
X104600443Y-96844481D01*
X104534260Y-96851000D01*
X104445740Y-96851000D01*
X104379557Y-96844481D01*
X104313373Y-96837963D01*
X104143534Y-96786443D01*
X103987009Y-96702778D01*
X103951271Y-96673448D01*
X103849814Y-96590186D01*
X103766552Y-96488729D01*
X103737222Y-96452991D01*
X103653557Y-96296466D01*
X103602037Y-96126627D01*
X103584641Y-95950000D01*
X103602037Y-95773373D01*
X103653557Y-95603534D01*
X103737222Y-95447009D01*
X103766552Y-95411271D01*
X103849814Y-95309814D01*
X103951271Y-95226552D01*
X103987009Y-95197222D01*
X104143534Y-95113557D01*
X104313373Y-95062037D01*
X104379557Y-95055519D01*
X104445740Y-95049000D01*
X104534260Y-95049000D01*
X104600443Y-95055519D01*
X104600443Y-95055519D01*
G37*
M02*
