G04 #@! TF.GenerationSoftware,KiCad,Pcbnew,5.1.4*
G04 #@! TF.CreationDate,2019-11-07T11:14:49-05:00*
G04 #@! TF.ProjectId,rustypill,72757374-7970-4696-9c6c-2e6b69636164,rev?*
G04 #@! TF.SameCoordinates,Original*
G04 #@! TF.FileFunction,Legend,Top*
G04 #@! TF.FilePolarity,Positive*
%FSLAX46Y46*%
G04 Gerber Fmt 4.6, Leading zero omitted, Abs format (unit mm)*
G04 Created by KiCad (PCBNEW 5.1.4) date 2019-11-07 11:14:49*
%MOMM*%
%LPD*%
G04 APERTURE LIST*
%ADD10C,0.150000*%
%ADD11C,0.120000*%
%ADD12C,0.127000*%
%ADD13C,0.200000*%
%ADD14C,0.050000*%
G04 APERTURE END LIST*
D10*
X118247619Y-104452380D02*
X117914285Y-103976190D01*
X117676190Y-104452380D02*
X117676190Y-103452380D01*
X118057142Y-103452380D01*
X118152380Y-103500000D01*
X118200000Y-103547619D01*
X118247619Y-103642857D01*
X118247619Y-103785714D01*
X118200000Y-103880952D01*
X118152380Y-103928571D01*
X118057142Y-103976190D01*
X117676190Y-103976190D01*
X119104761Y-103785714D02*
X119104761Y-104452380D01*
X118676190Y-103785714D02*
X118676190Y-104309523D01*
X118723809Y-104404761D01*
X118819047Y-104452380D01*
X118961904Y-104452380D01*
X119057142Y-104404761D01*
X119104761Y-104357142D01*
X119533333Y-104404761D02*
X119628571Y-104452380D01*
X119819047Y-104452380D01*
X119914285Y-104404761D01*
X119961904Y-104309523D01*
X119961904Y-104261904D01*
X119914285Y-104166666D01*
X119819047Y-104119047D01*
X119676190Y-104119047D01*
X119580952Y-104071428D01*
X119533333Y-103976190D01*
X119533333Y-103928571D01*
X119580952Y-103833333D01*
X119676190Y-103785714D01*
X119819047Y-103785714D01*
X119914285Y-103833333D01*
X120247619Y-103785714D02*
X120628571Y-103785714D01*
X120390476Y-103452380D02*
X120390476Y-104309523D01*
X120438095Y-104404761D01*
X120533333Y-104452380D01*
X120628571Y-104452380D01*
X120866666Y-103785714D02*
X121104761Y-104452380D01*
X121342857Y-103785714D02*
X121104761Y-104452380D01*
X121009523Y-104690476D01*
X120961904Y-104738095D01*
X120866666Y-104785714D01*
X121723809Y-103785714D02*
X121723809Y-104785714D01*
X121723809Y-103833333D02*
X121819047Y-103785714D01*
X122009523Y-103785714D01*
X122104761Y-103833333D01*
X122152380Y-103880952D01*
X122200000Y-103976190D01*
X122200000Y-104261904D01*
X122152380Y-104357142D01*
X122104761Y-104404761D01*
X122009523Y-104452380D01*
X121819047Y-104452380D01*
X121723809Y-104404761D01*
X122628571Y-104452380D02*
X122628571Y-103785714D01*
X122628571Y-103452380D02*
X122580952Y-103500000D01*
X122628571Y-103547619D01*
X122676190Y-103500000D01*
X122628571Y-103452380D01*
X122628571Y-103547619D01*
X123247619Y-104452380D02*
X123152380Y-104404761D01*
X123104761Y-104309523D01*
X123104761Y-103452380D01*
X123771428Y-104452380D02*
X123676190Y-104404761D01*
X123628571Y-104309523D01*
X123628571Y-103452380D01*
X124819047Y-103785714D02*
X125057142Y-104452380D01*
X125295238Y-103785714D01*
X125866666Y-103452380D02*
X125961904Y-103452380D01*
X126057142Y-103500000D01*
X126104761Y-103547619D01*
X126152380Y-103642857D01*
X126200000Y-103833333D01*
X126200000Y-104071428D01*
X126152380Y-104261904D01*
X126104761Y-104357142D01*
X126057142Y-104404761D01*
X125961904Y-104452380D01*
X125866666Y-104452380D01*
X125771428Y-104404761D01*
X125723809Y-104357142D01*
X125676190Y-104261904D01*
X125628571Y-104071428D01*
X125628571Y-103833333D01*
X125676190Y-103642857D01*
X125723809Y-103547619D01*
X125771428Y-103500000D01*
X125866666Y-103452380D01*
X126628571Y-104357142D02*
X126676190Y-104404761D01*
X126628571Y-104452380D01*
X126580952Y-104404761D01*
X126628571Y-104357142D01*
X126628571Y-104452380D01*
X127628571Y-104452380D02*
X127057142Y-104452380D01*
X127342857Y-104452380D02*
X127342857Y-103452380D01*
X127247619Y-103595238D01*
X127152380Y-103690476D01*
X127057142Y-103738095D01*
X128057142Y-104357142D02*
X128104761Y-104404761D01*
X128057142Y-104452380D01*
X128009523Y-104404761D01*
X128057142Y-104357142D01*
X128057142Y-104452380D01*
X128723809Y-103452380D02*
X128819047Y-103452380D01*
X128914285Y-103500000D01*
X128961904Y-103547619D01*
X129009523Y-103642857D01*
X129057142Y-103833333D01*
X129057142Y-104071428D01*
X129009523Y-104261904D01*
X128961904Y-104357142D01*
X128914285Y-104404761D01*
X128819047Y-104452380D01*
X128723809Y-104452380D01*
X128628571Y-104404761D01*
X128580952Y-104357142D01*
X128533333Y-104261904D01*
X128485714Y-104071428D01*
X128485714Y-103833333D01*
X128533333Y-103642857D01*
X128580952Y-103547619D01*
X128628571Y-103500000D01*
X128723809Y-103452380D01*
X130247619Y-104452380D02*
X130247619Y-103452380D01*
X130247619Y-103833333D02*
X130342857Y-103785714D01*
X130533333Y-103785714D01*
X130628571Y-103833333D01*
X130676190Y-103880952D01*
X130723809Y-103976190D01*
X130723809Y-104261904D01*
X130676190Y-104357142D01*
X130628571Y-104404761D01*
X130533333Y-104452380D01*
X130342857Y-104452380D01*
X130247619Y-104404761D01*
X131057142Y-103785714D02*
X131295238Y-104452380D01*
X131533333Y-103785714D02*
X131295238Y-104452380D01*
X131200000Y-104690476D01*
X131152380Y-104738095D01*
X131057142Y-104785714D01*
X132533333Y-103452380D02*
X133104761Y-103452380D01*
X132819047Y-104452380D02*
X132819047Y-103452380D01*
X133819047Y-104404761D02*
X133723809Y-104452380D01*
X133533333Y-104452380D01*
X133438095Y-104404761D01*
X133390476Y-104309523D01*
X133390476Y-103928571D01*
X133438095Y-103833333D01*
X133533333Y-103785714D01*
X133723809Y-103785714D01*
X133819047Y-103833333D01*
X133866666Y-103928571D01*
X133866666Y-104023809D01*
X133390476Y-104119047D01*
X134723809Y-104452380D02*
X134723809Y-103452380D01*
X134723809Y-104404761D02*
X134628571Y-104452380D01*
X134438095Y-104452380D01*
X134342857Y-104404761D01*
X134295238Y-104357142D01*
X134247619Y-104261904D01*
X134247619Y-103976190D01*
X134295238Y-103880952D01*
X134342857Y-103833333D01*
X134438095Y-103785714D01*
X134628571Y-103785714D01*
X134723809Y-103833333D01*
D11*
X127100000Y-114200000D02*
X124200000Y-114200000D01*
X127550000Y-113750000D02*
X127100000Y-114200000D01*
X128350000Y-110500000D02*
X128350000Y-112500000D01*
X127100000Y-108800000D02*
X127550000Y-109250000D01*
X124200000Y-108800000D02*
X127100000Y-108800000D01*
X123750000Y-109250000D02*
X124200000Y-108800000D01*
X122950000Y-112500000D02*
X122950000Y-110500000D01*
X124200000Y-114200000D02*
X123750000Y-113750000D01*
X112348030Y-124594857D02*
G75*
G03X105700000Y-124610000I-3348030J10534857D01*
G01*
X104550000Y-128670000D02*
X104550000Y-129930000D01*
X105190000Y-129300000D02*
X103920000Y-129300000D01*
X105700000Y-131960000D02*
X105700000Y-124610000D01*
X112300000Y-131960000D02*
X105700000Y-131960000D01*
X112300000Y-124610000D02*
X112300000Y-131960000D01*
X93450000Y-103625000D02*
X92450000Y-103625000D01*
X92450000Y-105325000D02*
X93450000Y-105325000D01*
X92450000Y-107800000D02*
X93450000Y-107800000D01*
X93450000Y-106100000D02*
X92450000Y-106100000D01*
X91300000Y-108650000D02*
X93900000Y-108650000D01*
X91300000Y-110250000D02*
X93900000Y-110250000D01*
X91300000Y-108650000D02*
X91300000Y-110250000D01*
X84450000Y-108700000D02*
X84450000Y-110200000D01*
X84450000Y-108700000D02*
X87650000Y-108700000D01*
X87650000Y-110200000D02*
X84450000Y-110200000D01*
X76080000Y-97220000D02*
X76080000Y-95950000D01*
X77350000Y-97220000D02*
X76080000Y-97220000D01*
X85350000Y-94907071D02*
X85350000Y-94510000D01*
X84590000Y-94907071D02*
X84590000Y-94510000D01*
X85350000Y-85850000D02*
X85350000Y-91850000D01*
X84590000Y-85850000D02*
X85350000Y-85850000D01*
X84590000Y-91850000D02*
X84590000Y-85850000D01*
X83700000Y-94510000D02*
X83700000Y-91850000D01*
X82810000Y-94907071D02*
X82810000Y-94510000D01*
X82050000Y-94907071D02*
X82050000Y-94510000D01*
X82810000Y-85850000D02*
X82810000Y-91850000D01*
X82050000Y-85850000D02*
X82810000Y-85850000D01*
X82050000Y-91850000D02*
X82050000Y-85850000D01*
X81160000Y-94510000D02*
X81160000Y-91850000D01*
X80270000Y-94907071D02*
X80270000Y-94510000D01*
X79510000Y-94907071D02*
X79510000Y-94510000D01*
X80270000Y-85850000D02*
X80270000Y-91850000D01*
X79510000Y-85850000D02*
X80270000Y-85850000D01*
X79510000Y-91850000D02*
X79510000Y-85850000D01*
X78620000Y-94510000D02*
X78620000Y-91850000D01*
X77730000Y-94840000D02*
X77730000Y-94510000D01*
X76970000Y-94840000D02*
X76970000Y-94510000D01*
X77630000Y-91850000D02*
X77630000Y-85850000D01*
X77510000Y-91850000D02*
X77510000Y-85850000D01*
X77390000Y-91850000D02*
X77390000Y-85850000D01*
X77270000Y-91850000D02*
X77270000Y-85850000D01*
X77150000Y-91850000D02*
X77150000Y-85850000D01*
X77030000Y-91850000D02*
X77030000Y-85850000D01*
X77730000Y-85850000D02*
X77730000Y-91850000D01*
X76970000Y-85850000D02*
X77730000Y-85850000D01*
X76970000Y-91850000D02*
X76970000Y-85850000D01*
X76020000Y-91850000D02*
X76020000Y-94510000D01*
X86300000Y-91850000D02*
X76020000Y-91850000D01*
X86300000Y-94510000D02*
X86300000Y-91850000D01*
X76020000Y-94510000D02*
X86300000Y-94510000D01*
X87920000Y-134620000D02*
X87920000Y-137280000D01*
X126080000Y-134620000D02*
X87920000Y-134620000D01*
X126080000Y-137280000D02*
X87920000Y-137280000D01*
X126080000Y-134620000D02*
X126080000Y-137280000D01*
X127350000Y-134620000D02*
X128680000Y-134620000D01*
X128680000Y-134620000D02*
X128680000Y-135950000D01*
X128680000Y-98520000D02*
X128680000Y-99850000D01*
X127350000Y-98520000D02*
X128680000Y-98520000D01*
X126080000Y-98520000D02*
X126080000Y-101180000D01*
X126080000Y-101180000D02*
X87920000Y-101180000D01*
X126080000Y-98520000D02*
X87920000Y-98520000D01*
X87920000Y-98520000D02*
X87920000Y-101180000D01*
X87920000Y-94620000D02*
X87920000Y-97280000D01*
X126080000Y-94620000D02*
X87920000Y-94620000D01*
X126080000Y-97280000D02*
X87920000Y-97280000D01*
X126080000Y-94620000D02*
X126080000Y-97280000D01*
X127350000Y-94620000D02*
X128680000Y-94620000D01*
X128680000Y-94620000D02*
X128680000Y-95950000D01*
X82500000Y-124405000D02*
X103360000Y-124405000D01*
X103360000Y-124405000D02*
X103360000Y-133755000D01*
X103360000Y-133755000D02*
X82500000Y-133755000D01*
X82500000Y-133755000D02*
X82500000Y-124405000D01*
X82250000Y-134005000D02*
X84790000Y-134005000D01*
X82250000Y-134005000D02*
X82250000Y-131465000D01*
X72997990Y-126903482D02*
X73846518Y-127752010D01*
X72602010Y-128996518D02*
X71753482Y-128147990D01*
X74252010Y-127346518D02*
X73403482Y-126497990D01*
X74647990Y-125253482D02*
X75496518Y-126102010D01*
X96200000Y-117960000D02*
X90190000Y-117960000D01*
X93950000Y-111140000D02*
X90190000Y-111140000D01*
X90190000Y-117960000D02*
X90190000Y-116700000D01*
X90190000Y-111140000D02*
X90190000Y-112400000D01*
D12*
X79632228Y-120899397D02*
X79908000Y-121175169D01*
X79908000Y-121175169D02*
X80183772Y-120899397D01*
D13*
X82214676Y-122412606D02*
G75*
G03X82214676Y-122412606I-150000J0D01*
G01*
D12*
X84723397Y-116359772D02*
X84999169Y-116084000D01*
X84999169Y-116084000D02*
X84723397Y-115808228D01*
X80183772Y-111268603D02*
X79908000Y-110992831D01*
X79908000Y-110992831D02*
X79632228Y-111268603D01*
X75092603Y-115808228D02*
X74816831Y-116084000D01*
X74816831Y-116084000D02*
X75092603Y-116359772D01*
D11*
X84125000Y-107879000D02*
X89225000Y-107879000D01*
X84125000Y-103629000D02*
X84125000Y-107879000D01*
D10*
X124316666Y-115504761D02*
X124459523Y-115552380D01*
X124697619Y-115552380D01*
X124792857Y-115504761D01*
X124840476Y-115457142D01*
X124888095Y-115361904D01*
X124888095Y-115266666D01*
X124840476Y-115171428D01*
X124792857Y-115123809D01*
X124697619Y-115076190D01*
X124507142Y-115028571D01*
X124411904Y-114980952D01*
X124364285Y-114933333D01*
X124316666Y-114838095D01*
X124316666Y-114742857D01*
X124364285Y-114647619D01*
X124411904Y-114600000D01*
X124507142Y-114552380D01*
X124745238Y-114552380D01*
X124888095Y-114600000D01*
X125221428Y-114552380D02*
X125459523Y-115552380D01*
X125650000Y-114838095D01*
X125840476Y-115552380D01*
X126078571Y-114552380D01*
X126983333Y-115552380D02*
X126411904Y-115552380D01*
X126697619Y-115552380D02*
X126697619Y-114552380D01*
X126602380Y-114695238D01*
X126507142Y-114790476D01*
X126411904Y-114838095D01*
X125478571Y-112185714D02*
X125526190Y-112042857D01*
X125573809Y-111995238D01*
X125669047Y-111947619D01*
X125811904Y-111947619D01*
X125907142Y-111995238D01*
X125954761Y-112042857D01*
X126002380Y-112138095D01*
X126002380Y-112519047D01*
X125002380Y-112519047D01*
X125002380Y-112185714D01*
X125050000Y-112090476D01*
X125097619Y-112042857D01*
X125192857Y-111995238D01*
X125288095Y-111995238D01*
X125383333Y-112042857D01*
X125430952Y-112090476D01*
X125478571Y-112185714D01*
X125478571Y-112519047D01*
X125002380Y-111661904D02*
X125002380Y-111090476D01*
X126002380Y-111376190D02*
X125002380Y-111376190D01*
X126002380Y-110233333D02*
X126002380Y-110804761D01*
X126002380Y-110519047D02*
X125002380Y-110519047D01*
X125145238Y-110614285D01*
X125240476Y-110709523D01*
X125288095Y-110804761D01*
X92783333Y-103082142D02*
X92735714Y-103129761D01*
X92592857Y-103177380D01*
X92497619Y-103177380D01*
X92354761Y-103129761D01*
X92259523Y-103034523D01*
X92211904Y-102939285D01*
X92164285Y-102748809D01*
X92164285Y-102605952D01*
X92211904Y-102415476D01*
X92259523Y-102320238D01*
X92354761Y-102225000D01*
X92497619Y-102177380D01*
X92592857Y-102177380D01*
X92735714Y-102225000D01*
X92783333Y-102272619D01*
X93640476Y-102510714D02*
X93640476Y-103177380D01*
X93402380Y-102129761D02*
X93164285Y-102844047D01*
X93783333Y-102844047D01*
X96133333Y-107307142D02*
X96085714Y-107354761D01*
X95942857Y-107402380D01*
X95847619Y-107402380D01*
X95704761Y-107354761D01*
X95609523Y-107259523D01*
X95561904Y-107164285D01*
X95514285Y-106973809D01*
X95514285Y-106830952D01*
X95561904Y-106640476D01*
X95609523Y-106545238D01*
X95704761Y-106450000D01*
X95847619Y-106402380D01*
X95942857Y-106402380D01*
X96085714Y-106450000D01*
X96133333Y-106497619D01*
X97038095Y-106402380D02*
X96561904Y-106402380D01*
X96514285Y-106878571D01*
X96561904Y-106830952D01*
X96657142Y-106783333D01*
X96895238Y-106783333D01*
X96990476Y-106830952D01*
X97038095Y-106878571D01*
X97085714Y-106973809D01*
X97085714Y-107211904D01*
X97038095Y-107307142D01*
X96990476Y-107354761D01*
X96895238Y-107402380D01*
X96657142Y-107402380D01*
X96561904Y-107354761D01*
X96514285Y-107307142D01*
X95211904Y-109902380D02*
X95211904Y-108902380D01*
X95450000Y-108902380D01*
X95592857Y-108950000D01*
X95688095Y-109045238D01*
X95735714Y-109140476D01*
X95783333Y-109330952D01*
X95783333Y-109473809D01*
X95735714Y-109664285D01*
X95688095Y-109759523D01*
X95592857Y-109854761D01*
X95450000Y-109902380D01*
X95211904Y-109902380D01*
X96735714Y-109902380D02*
X96164285Y-109902380D01*
X96450000Y-109902380D02*
X96450000Y-108902380D01*
X96354761Y-109045238D01*
X96259523Y-109140476D01*
X96164285Y-109188095D01*
X82311904Y-109852380D02*
X82311904Y-108852380D01*
X82550000Y-108852380D01*
X82692857Y-108900000D01*
X82788095Y-108995238D01*
X82835714Y-109090476D01*
X82883333Y-109280952D01*
X82883333Y-109423809D01*
X82835714Y-109614285D01*
X82788095Y-109709523D01*
X82692857Y-109804761D01*
X82550000Y-109852380D01*
X82311904Y-109852380D01*
X83264285Y-108947619D02*
X83311904Y-108900000D01*
X83407142Y-108852380D01*
X83645238Y-108852380D01*
X83740476Y-108900000D01*
X83788095Y-108947619D01*
X83835714Y-109042857D01*
X83835714Y-109138095D01*
X83788095Y-109280952D01*
X83216666Y-109852380D01*
X83835714Y-109852380D01*
D14*
X121803809Y-125597380D02*
X121803809Y-124597380D01*
X122851428Y-125502142D02*
X122803809Y-125549761D01*
X122660952Y-125597380D01*
X122565714Y-125597380D01*
X122422857Y-125549761D01*
X122327619Y-125454523D01*
X122280000Y-125359285D01*
X122232380Y-125168809D01*
X122232380Y-125025952D01*
X122280000Y-124835476D01*
X122327619Y-124740238D01*
X122422857Y-124645000D01*
X122565714Y-124597380D01*
X122660952Y-124597380D01*
X122803809Y-124645000D01*
X122851428Y-124692619D01*
X123803809Y-125597380D02*
X123232380Y-125597380D01*
X123518095Y-125597380D02*
X123518095Y-124597380D01*
X123422857Y-124740238D01*
X123327619Y-124835476D01*
X123232380Y-124883095D01*
X123057142Y-128602380D02*
X123057142Y-127602380D01*
X123295238Y-127602380D01*
X123438095Y-127650000D01*
X123533333Y-127745238D01*
X123580952Y-127840476D01*
X123628571Y-128030952D01*
X123628571Y-128173809D01*
X123580952Y-128364285D01*
X123533333Y-128459523D01*
X123438095Y-128554761D01*
X123295238Y-128602380D01*
X123057142Y-128602380D01*
X124009523Y-128554761D02*
X124152380Y-128602380D01*
X124390476Y-128602380D01*
X124485714Y-128554761D01*
X124533333Y-128507142D01*
X124580952Y-128411904D01*
X124580952Y-128316666D01*
X124533333Y-128221428D01*
X124485714Y-128173809D01*
X124390476Y-128126190D01*
X124200000Y-128078571D01*
X124104761Y-128030952D01*
X124057142Y-127983333D01*
X124009523Y-127888095D01*
X124009523Y-127792857D01*
X124057142Y-127697619D01*
X124104761Y-127650000D01*
X124200000Y-127602380D01*
X124438095Y-127602380D01*
X124580952Y-127650000D01*
X124914285Y-127602380D02*
X125533333Y-127602380D01*
X125200000Y-127983333D01*
X125342857Y-127983333D01*
X125438095Y-128030952D01*
X125485714Y-128078571D01*
X125533333Y-128173809D01*
X125533333Y-128411904D01*
X125485714Y-128507142D01*
X125438095Y-128554761D01*
X125342857Y-128602380D01*
X125057142Y-128602380D01*
X124961904Y-128554761D01*
X124914285Y-128507142D01*
X125914285Y-127697619D02*
X125961904Y-127650000D01*
X126057142Y-127602380D01*
X126295238Y-127602380D01*
X126390476Y-127650000D01*
X126438095Y-127697619D01*
X126485714Y-127792857D01*
X126485714Y-127888095D01*
X126438095Y-128030952D01*
X125866666Y-128602380D01*
X126485714Y-128602380D01*
X126819047Y-127602380D02*
X127438095Y-127602380D01*
X127104761Y-127983333D01*
X127247619Y-127983333D01*
X127342857Y-128030952D01*
X127390476Y-128078571D01*
X127438095Y-128173809D01*
X127438095Y-128411904D01*
X127390476Y-128507142D01*
X127342857Y-128554761D01*
X127247619Y-128602380D01*
X126961904Y-128602380D01*
X126866666Y-128554761D01*
X126819047Y-128507142D01*
X128390476Y-128602380D02*
X127819047Y-128602380D01*
X128104761Y-128602380D02*
X128104761Y-127602380D01*
X128009523Y-127745238D01*
X127914285Y-127840476D01*
X127819047Y-127888095D01*
D10*
X74532380Y-91898333D02*
X75246666Y-91898333D01*
X75389523Y-91945952D01*
X75484761Y-92041190D01*
X75532380Y-92184047D01*
X75532380Y-92279285D01*
X74627619Y-91469761D02*
X74580000Y-91422142D01*
X74532380Y-91326904D01*
X74532380Y-91088809D01*
X74580000Y-90993571D01*
X74627619Y-90945952D01*
X74722857Y-90898333D01*
X74818095Y-90898333D01*
X74960952Y-90945952D01*
X75532380Y-91517380D01*
X75532380Y-90898333D01*
X129132380Y-136283333D02*
X129846666Y-136283333D01*
X129989523Y-136330952D01*
X130084761Y-136426190D01*
X130132380Y-136569047D01*
X130132380Y-136664285D01*
X129132380Y-135902380D02*
X129132380Y-135283333D01*
X129513333Y-135616666D01*
X129513333Y-135473809D01*
X129560952Y-135378571D01*
X129608571Y-135330952D01*
X129703809Y-135283333D01*
X129941904Y-135283333D01*
X130037142Y-135330952D01*
X130084761Y-135378571D01*
X130132380Y-135473809D01*
X130132380Y-135759523D01*
X130084761Y-135854761D01*
X130037142Y-135902380D01*
X129132380Y-100183333D02*
X129846666Y-100183333D01*
X129989523Y-100230952D01*
X130084761Y-100326190D01*
X130132380Y-100469047D01*
X130132380Y-100564285D01*
X129465714Y-99278571D02*
X130132380Y-99278571D01*
X129084761Y-99516666D02*
X129799047Y-99754761D01*
X129799047Y-99135714D01*
X129132380Y-96283333D02*
X129846666Y-96283333D01*
X129989523Y-96330952D01*
X130084761Y-96426190D01*
X130132380Y-96569047D01*
X130132380Y-96664285D01*
X129132380Y-95330952D02*
X129132380Y-95807142D01*
X129608571Y-95854761D01*
X129560952Y-95807142D01*
X129513333Y-95711904D01*
X129513333Y-95473809D01*
X129560952Y-95378571D01*
X129608571Y-95330952D01*
X129703809Y-95283333D01*
X129941904Y-95283333D01*
X130037142Y-95330952D01*
X130084761Y-95378571D01*
X130132380Y-95473809D01*
X130132380Y-95711904D01*
X130084761Y-95807142D01*
X130037142Y-95854761D01*
X80698380Y-129413333D02*
X81412666Y-129413333D01*
X81555523Y-129460952D01*
X81650761Y-129556190D01*
X81698380Y-129699047D01*
X81698380Y-129794285D01*
X80698380Y-128508571D02*
X80698380Y-128699047D01*
X80746000Y-128794285D01*
X80793619Y-128841904D01*
X80936476Y-128937142D01*
X81126952Y-128984761D01*
X81507904Y-128984761D01*
X81603142Y-128937142D01*
X81650761Y-128889523D01*
X81698380Y-128794285D01*
X81698380Y-128603809D01*
X81650761Y-128508571D01*
X81603142Y-128460952D01*
X81507904Y-128413333D01*
X81269809Y-128413333D01*
X81174571Y-128460952D01*
X81126952Y-128508571D01*
X81079333Y-128603809D01*
X81079333Y-128794285D01*
X81126952Y-128889523D01*
X81174571Y-128937142D01*
X81269809Y-128984761D01*
X71160185Y-129354112D02*
X71261200Y-128781692D01*
X70756124Y-128950051D02*
X71463230Y-128242944D01*
X71732605Y-128512318D01*
X71766276Y-128613333D01*
X71766276Y-128680677D01*
X71732605Y-128781692D01*
X71631589Y-128882707D01*
X71530574Y-128916379D01*
X71463230Y-128916379D01*
X71362215Y-128882707D01*
X71092841Y-128613333D01*
X71496902Y-129690830D02*
X71631589Y-129825517D01*
X71732605Y-129859188D01*
X71799948Y-129859188D01*
X71968307Y-129825517D01*
X72136666Y-129724501D01*
X72406040Y-129455127D01*
X72439711Y-129354112D01*
X72439711Y-129286769D01*
X72406040Y-129185753D01*
X72271353Y-129051066D01*
X72170337Y-129017394D01*
X72102994Y-129017394D01*
X72001979Y-129051066D01*
X71833620Y-129219425D01*
X71799948Y-129320440D01*
X71799948Y-129387784D01*
X71833620Y-129488799D01*
X71968307Y-129623486D01*
X72069322Y-129657158D01*
X72136666Y-129657158D01*
X72237681Y-129623486D01*
X74877631Y-124963230D02*
X74978646Y-124390811D01*
X74473570Y-124559169D02*
X75180677Y-123852063D01*
X75450051Y-124121437D01*
X75483723Y-124222452D01*
X75483723Y-124289795D01*
X75450051Y-124390811D01*
X75349036Y-124491826D01*
X75248020Y-124525498D01*
X75180677Y-124525498D01*
X75079662Y-124491826D01*
X74810288Y-124222452D01*
X75551066Y-125636666D02*
X75147005Y-125232605D01*
X75349036Y-125434635D02*
X76056143Y-124727528D01*
X75887784Y-124761200D01*
X75753097Y-124761200D01*
X75652082Y-124727528D01*
X76628562Y-125771353D02*
X76157158Y-126242757D01*
X76729578Y-125333620D02*
X76056143Y-125670337D01*
X76493875Y-126108070D01*
X91338095Y-118502380D02*
X91338095Y-119311904D01*
X91385714Y-119407142D01*
X91433333Y-119454761D01*
X91528571Y-119502380D01*
X91719047Y-119502380D01*
X91814285Y-119454761D01*
X91861904Y-119407142D01*
X91909523Y-119311904D01*
X91909523Y-118502380D01*
X92909523Y-119502380D02*
X92338095Y-119502380D01*
X92623809Y-119502380D02*
X92623809Y-118502380D01*
X92528571Y-118645238D01*
X92433333Y-118740476D01*
X92338095Y-118788095D01*
D14*
X79138096Y-117302380D02*
X79138096Y-118111904D01*
X79185715Y-118207142D01*
X79233334Y-118254761D01*
X79328572Y-118302380D01*
X79519048Y-118302380D01*
X79614286Y-118254761D01*
X79661905Y-118207142D01*
X79709524Y-118111904D01*
X79709524Y-117302380D01*
X80614286Y-117635714D02*
X80614286Y-118302380D01*
X80376191Y-117254761D02*
X80138096Y-117969047D01*
X80757143Y-117969047D01*
D10*
X86198809Y-102805190D02*
X86198809Y-103281380D01*
X85865476Y-102281380D02*
X86198809Y-102805190D01*
X86532142Y-102281380D01*
X87389285Y-103281380D02*
X86817857Y-103281380D01*
X87103571Y-103281380D02*
X87103571Y-102281380D01*
X87008333Y-102424238D01*
X86913095Y-102519476D01*
X86817857Y-102567095D01*
M02*
