G04 #@! TF.GenerationSoftware,KiCad,Pcbnew,5.1.5*
G04 #@! TF.CreationDate,2020-01-11T06:26:57-05:00*
G04 #@! TF.ProjectId,rustypill,72757374-7970-4696-9c6c-2e6b69636164,rev?*
G04 #@! TF.SameCoordinates,Original*
G04 #@! TF.FileFunction,Legend,Bot*
G04 #@! TF.FilePolarity,Positive*
%FSLAX46Y46*%
G04 Gerber Fmt 4.6, Leading zero omitted, Abs format (unit mm)*
G04 Created by KiCad (PCBNEW 5.1.5) date 2020-01-11 06:26:57*
%MOMM*%
%LPD*%
G04 APERTURE LIST*
%ADD10C,0.120000*%
%ADD11C,0.152400*%
%ADD12C,0.150000*%
G04 APERTURE END LIST*
D10*
X85041918Y-124247010D02*
X84193390Y-123398482D01*
X82948882Y-124642990D02*
X83797410Y-125491518D01*
X81152823Y-129157437D02*
X83415565Y-126894695D01*
X82354905Y-125834035D02*
X80092163Y-128096777D01*
X82354905Y-125834035D02*
X83415565Y-126894695D01*
D11*
X97905800Y-108457600D02*
X97905800Y-105714400D01*
X102884200Y-105714400D02*
X102884200Y-106781200D01*
X102884200Y-107390800D02*
X102884200Y-108457600D01*
X102884200Y-106781200D02*
G75*
G03X102884200Y-107390800I0J-304800D01*
G01*
D10*
X86280000Y-98520000D02*
X86280000Y-101180000D01*
X78600000Y-98520000D02*
X86280000Y-98520000D01*
X78600000Y-101180000D02*
X86280000Y-101180000D01*
X78600000Y-98520000D02*
X78600000Y-101180000D01*
X77330000Y-98520000D02*
X76000000Y-98520000D01*
X76000000Y-98520000D02*
X76000000Y-99850000D01*
X87920000Y-97280000D02*
X87920000Y-94620000D01*
X126080000Y-97280000D02*
X87920000Y-97280000D01*
X126080000Y-94620000D02*
X87920000Y-94620000D01*
X126080000Y-97280000D02*
X126080000Y-94620000D01*
X127350000Y-97280000D02*
X128680000Y-97280000D01*
X128680000Y-97280000D02*
X128680000Y-95950000D01*
X93350000Y-118250000D02*
X93350000Y-122500000D01*
X95450000Y-118250000D02*
X95450000Y-122500000D01*
X93350000Y-118250000D02*
X95450000Y-118250000D01*
X89950000Y-118250000D02*
X89950000Y-122500000D01*
X92050000Y-118250000D02*
X92050000Y-122500000D01*
X89950000Y-118250000D02*
X92050000Y-118250000D01*
X84081387Y-110529406D02*
X84788494Y-111236513D01*
X83586413Y-112438594D02*
X82879306Y-111731487D01*
X72060082Y-106298990D02*
X72908610Y-107147518D01*
X74153118Y-105903010D02*
X73304590Y-105054482D01*
X128940000Y-128120000D02*
X128940000Y-129120000D01*
X127240000Y-129120000D02*
X127240000Y-128120000D01*
X74817587Y-103561406D02*
X75524694Y-104268513D01*
X74322613Y-105470594D02*
X73615506Y-104763487D01*
X104700000Y-115650000D02*
X104700000Y-116650000D01*
X103000000Y-116650000D02*
X103000000Y-115650000D01*
X101100000Y-120350000D02*
X100100000Y-120350000D01*
X100100000Y-118650000D02*
X101100000Y-118650000D01*
X79950000Y-105950000D02*
X79950000Y-106950000D01*
X78250000Y-106950000D02*
X78250000Y-105950000D01*
X85654594Y-120697487D02*
X84947487Y-121404594D01*
X83745406Y-120202513D02*
X84452513Y-119495406D01*
X85829306Y-122018513D02*
X86536413Y-121311406D01*
X87738494Y-122513487D02*
X87031387Y-123220594D01*
X75736413Y-122238594D02*
X75029306Y-121531487D01*
X76231387Y-120329406D02*
X76938494Y-121036513D01*
X74647487Y-121895406D02*
X75354594Y-122602513D01*
X74152513Y-123804594D02*
X73445406Y-123097487D01*
X112150000Y-131675000D02*
X111150000Y-131675000D01*
X111150000Y-129975000D02*
X112150000Y-129975000D01*
X105100000Y-106500000D02*
X105100000Y-107500000D01*
X103400000Y-107500000D02*
X103400000Y-106500000D01*
X111350000Y-126050000D02*
X111350000Y-125050000D01*
X113050000Y-125050000D02*
X113050000Y-126050000D01*
X82466100Y-130016000D02*
X83466100Y-130016000D01*
X83466100Y-131716000D02*
X82466100Y-131716000D01*
X85850000Y-139326000D02*
X85400000Y-139326000D01*
X85850000Y-141176000D02*
X85850000Y-139326000D01*
X78050000Y-143726000D02*
X78050000Y-143476000D01*
X85850000Y-143726000D02*
X85850000Y-143476000D01*
X78050000Y-141176000D02*
X78050000Y-139326000D01*
X78050000Y-139326000D02*
X78500000Y-139326000D01*
X83650000Y-138776000D02*
X83200000Y-138776000D01*
X83650000Y-138776000D02*
X83650000Y-139226000D01*
X87250000Y-108620000D02*
X86050000Y-108620000D01*
X86050000Y-110380000D02*
X87250000Y-110380000D01*
X74943390Y-112951518D02*
X75791918Y-112102990D01*
X74547410Y-110858482D02*
X73698882Y-111707010D01*
X79602010Y-114953482D02*
X78753482Y-115802010D01*
X79997990Y-117046518D02*
X80846518Y-116197990D01*
X116450000Y-127530000D02*
X117650000Y-127530000D01*
X117650000Y-125770000D02*
X116450000Y-125770000D01*
X117650000Y-123570000D02*
X116450000Y-123570000D01*
X116450000Y-125330000D02*
X117650000Y-125330000D01*
X112500000Y-104530000D02*
X113700000Y-104530000D01*
X113700000Y-102770000D02*
X112500000Y-102770000D01*
X78996518Y-129702010D02*
X78147990Y-128853482D01*
X76903482Y-130097990D02*
X77752010Y-130946518D01*
X118300000Y-104530000D02*
X119500000Y-104530000D01*
X119500000Y-102770000D02*
X118300000Y-102770000D01*
X75233482Y-131817990D02*
X76082010Y-132666518D01*
X77326518Y-131422010D02*
X76477990Y-130573482D01*
X78197990Y-125596518D02*
X79046518Y-124747990D01*
X77802010Y-123503482D02*
X76953482Y-124352010D01*
X79502010Y-125253482D02*
X78653482Y-126102010D01*
X79897990Y-127346518D02*
X80746518Y-126497990D01*
X96900000Y-124170000D02*
X95700000Y-124170000D01*
X95700000Y-125930000D02*
X96900000Y-125930000D01*
X125200000Y-102770000D02*
X124000000Y-102770000D01*
X124000000Y-104530000D02*
X125200000Y-104530000D01*
X75676518Y-133072010D02*
X74827990Y-132223482D01*
X73583482Y-133467990D02*
X74432010Y-134316518D01*
X134800000Y-122076000D02*
X134800000Y-105836000D01*
X134800000Y-105836000D02*
X127180000Y-105836000D01*
X111180000Y-105836000D02*
X110560000Y-105836000D01*
X110560000Y-105836000D02*
X110560000Y-107956000D01*
X110560000Y-119956000D02*
X110560000Y-122076000D01*
X110560000Y-122076000D02*
X111180000Y-122076000D01*
X127180000Y-122076000D02*
X134800000Y-122076000D01*
X127180000Y-122076000D02*
X127180000Y-122686000D01*
D12*
X87099450Y-126565312D02*
X86998435Y-125992893D01*
X87503511Y-126161251D02*
X86796404Y-125454145D01*
X86527030Y-125723519D01*
X86493358Y-125824534D01*
X86493358Y-125891877D01*
X86527030Y-125992893D01*
X86628045Y-126093908D01*
X86729061Y-126127580D01*
X86796404Y-126127580D01*
X86897419Y-126093908D01*
X87166793Y-125824534D01*
X86426015Y-127238748D02*
X86830076Y-126834687D01*
X86628045Y-127036717D02*
X85920938Y-126329610D01*
X86089297Y-126363282D01*
X86223984Y-126363282D01*
X86325000Y-126329610D01*
X85112816Y-127137732D02*
X85247503Y-127003045D01*
X85348519Y-126969374D01*
X85415862Y-126969374D01*
X85584221Y-127003045D01*
X85752580Y-127104061D01*
X86021954Y-127373435D01*
X86055625Y-127474450D01*
X86055625Y-127541793D01*
X86021954Y-127642809D01*
X85887267Y-127777496D01*
X85786251Y-127811167D01*
X85718908Y-127811167D01*
X85617893Y-127777496D01*
X85449534Y-127609137D01*
X85415862Y-127508122D01*
X85415862Y-127440778D01*
X85449534Y-127339763D01*
X85584221Y-127205076D01*
X85685236Y-127171404D01*
X85752580Y-127171404D01*
X85853595Y-127205076D01*
X83266793Y-128847969D02*
X82559687Y-128140862D01*
X82391328Y-128309221D01*
X82323984Y-128443908D01*
X82323984Y-128578595D01*
X82357656Y-128679610D01*
X82458671Y-128847969D01*
X82559687Y-128948984D01*
X82728045Y-129050000D01*
X82829061Y-129083671D01*
X82963748Y-129083671D01*
X83098435Y-129016328D01*
X83266793Y-128847969D01*
X81919923Y-128780625D02*
X81482190Y-129218358D01*
X81987267Y-129252030D01*
X81886251Y-129353045D01*
X81852580Y-129454061D01*
X81852580Y-129521404D01*
X81886251Y-129622419D01*
X82054610Y-129790778D01*
X82155625Y-129824450D01*
X82222969Y-129824450D01*
X82323984Y-129790778D01*
X82526015Y-129588748D01*
X82559687Y-129487732D01*
X82559687Y-129420389D01*
X96291380Y-106324095D02*
X97100904Y-106324095D01*
X97196142Y-106371714D01*
X97243761Y-106419333D01*
X97291380Y-106514571D01*
X97291380Y-106705047D01*
X97243761Y-106800285D01*
X97196142Y-106847904D01*
X97100904Y-106895523D01*
X96291380Y-106895523D01*
X96386619Y-107324095D02*
X96339000Y-107371714D01*
X96291380Y-107466952D01*
X96291380Y-107705047D01*
X96339000Y-107800285D01*
X96386619Y-107847904D01*
X96481857Y-107895523D01*
X96577095Y-107895523D01*
X96719952Y-107847904D01*
X97291380Y-107276476D01*
X97291380Y-107895523D01*
X74452380Y-99516666D02*
X75166666Y-99516666D01*
X75309523Y-99469047D01*
X75404761Y-99373809D01*
X75452380Y-99230952D01*
X75452380Y-99135714D01*
X74452380Y-99897619D02*
X74452380Y-100564285D01*
X75452380Y-100135714D01*
X129132380Y-95616666D02*
X129846666Y-95616666D01*
X129989523Y-95569047D01*
X130084761Y-95473809D01*
X130132380Y-95330952D01*
X130132380Y-95235714D01*
X129132380Y-96569047D02*
X129132380Y-96092857D01*
X129608571Y-96045238D01*
X129560952Y-96092857D01*
X129513333Y-96188095D01*
X129513333Y-96426190D01*
X129560952Y-96521428D01*
X129608571Y-96569047D01*
X129703809Y-96616666D01*
X129941904Y-96616666D01*
X130037142Y-96569047D01*
X130084761Y-96521428D01*
X130132380Y-96426190D01*
X130132380Y-96188095D01*
X130084761Y-96092857D01*
X130037142Y-96045238D01*
X95042857Y-117557142D02*
X95090476Y-117604761D01*
X95233333Y-117652380D01*
X95328571Y-117652380D01*
X95471428Y-117604761D01*
X95566666Y-117509523D01*
X95614285Y-117414285D01*
X95661904Y-117223809D01*
X95661904Y-117080952D01*
X95614285Y-116890476D01*
X95566666Y-116795238D01*
X95471428Y-116700000D01*
X95328571Y-116652380D01*
X95233333Y-116652380D01*
X95090476Y-116700000D01*
X95042857Y-116747619D01*
X94090476Y-117652380D02*
X94661904Y-117652380D01*
X94376190Y-117652380D02*
X94376190Y-116652380D01*
X94471428Y-116795238D01*
X94566666Y-116890476D01*
X94661904Y-116938095D01*
X93233333Y-116985714D02*
X93233333Y-117652380D01*
X93471428Y-116604761D02*
X93709523Y-117319047D01*
X93090476Y-117319047D01*
X91166666Y-117557142D02*
X91214285Y-117604761D01*
X91357142Y-117652380D01*
X91452380Y-117652380D01*
X91595238Y-117604761D01*
X91690476Y-117509523D01*
X91738095Y-117414285D01*
X91785714Y-117223809D01*
X91785714Y-117080952D01*
X91738095Y-116890476D01*
X91690476Y-116795238D01*
X91595238Y-116700000D01*
X91452380Y-116652380D01*
X91357142Y-116652380D01*
X91214285Y-116700000D01*
X91166666Y-116747619D01*
X90785714Y-116747619D02*
X90738095Y-116700000D01*
X90642857Y-116652380D01*
X90404761Y-116652380D01*
X90309523Y-116700000D01*
X90261904Y-116747619D01*
X90214285Y-116842857D01*
X90214285Y-116938095D01*
X90261904Y-117080952D01*
X90833333Y-117652380D01*
X90214285Y-117652380D01*
X82577030Y-113632106D02*
X82577030Y-113699450D01*
X82644374Y-113834137D01*
X82711717Y-113901480D01*
X82846404Y-113968824D01*
X82981091Y-113968824D01*
X83082106Y-113935152D01*
X83250465Y-113834137D01*
X83351480Y-113733122D01*
X83452496Y-113564763D01*
X83486167Y-113463748D01*
X83486167Y-113329061D01*
X83418824Y-113194374D01*
X83351480Y-113127030D01*
X83216793Y-113059687D01*
X83149450Y-113059687D01*
X81836251Y-113026015D02*
X82240312Y-113430076D01*
X82038282Y-113228045D02*
X82745389Y-112520938D01*
X82711717Y-112689297D01*
X82711717Y-112823984D01*
X82745389Y-112925000D01*
X81836251Y-112217893D02*
X81937267Y-112251564D01*
X82004610Y-112251564D01*
X82105625Y-112217893D01*
X82139297Y-112184221D01*
X82172969Y-112083206D01*
X82172969Y-112015862D01*
X82139297Y-111914847D01*
X82004610Y-111780160D01*
X81903595Y-111746488D01*
X81836251Y-111746488D01*
X81735236Y-111780160D01*
X81701564Y-111813832D01*
X81667893Y-111914847D01*
X81667893Y-111982190D01*
X81701564Y-112083206D01*
X81836251Y-112217893D01*
X81869923Y-112318908D01*
X81869923Y-112386251D01*
X81836251Y-112487267D01*
X81701564Y-112621954D01*
X81600549Y-112655625D01*
X81533206Y-112655625D01*
X81432190Y-112621954D01*
X81297503Y-112487267D01*
X81263832Y-112386251D01*
X81263832Y-112318908D01*
X81297503Y-112217893D01*
X81432190Y-112083206D01*
X81533206Y-112049534D01*
X81600549Y-112049534D01*
X81701564Y-112083206D01*
X71984687Y-108199450D02*
X72557106Y-108098435D01*
X72388748Y-108603511D02*
X73095854Y-107896404D01*
X72826480Y-107627030D01*
X72725465Y-107593358D01*
X72658122Y-107593358D01*
X72557106Y-107627030D01*
X72456091Y-107728045D01*
X72422419Y-107829061D01*
X72422419Y-107896404D01*
X72456091Y-107997419D01*
X72725465Y-108266793D01*
X71311251Y-107526015D02*
X71715312Y-107930076D01*
X71513282Y-107728045D02*
X72220389Y-107020938D01*
X72186717Y-107189297D01*
X72186717Y-107323984D01*
X72220389Y-107425000D01*
X71378595Y-106179145D02*
X71715312Y-106515862D01*
X71412267Y-106886251D01*
X71412267Y-106818908D01*
X71378595Y-106717893D01*
X71210236Y-106549534D01*
X71109221Y-106515862D01*
X71041877Y-106515862D01*
X70940862Y-106549534D01*
X70772503Y-106717893D01*
X70738832Y-106818908D01*
X70738832Y-106886251D01*
X70772503Y-106987267D01*
X70940862Y-107155625D01*
X71041877Y-107189297D01*
X71109221Y-107189297D01*
X130197142Y-127977142D02*
X130244761Y-127929523D01*
X130292380Y-127786666D01*
X130292380Y-127691428D01*
X130244761Y-127548571D01*
X130149523Y-127453333D01*
X130054285Y-127405714D01*
X129863809Y-127358095D01*
X129720952Y-127358095D01*
X129530476Y-127405714D01*
X129435238Y-127453333D01*
X129340000Y-127548571D01*
X129292380Y-127691428D01*
X129292380Y-127786666D01*
X129340000Y-127929523D01*
X129387619Y-127977142D01*
X130292380Y-128929523D02*
X130292380Y-128358095D01*
X130292380Y-128643809D02*
X129292380Y-128643809D01*
X129435238Y-128548571D01*
X129530476Y-128453333D01*
X129578095Y-128358095D01*
X129292380Y-129262857D02*
X129292380Y-129929523D01*
X130292380Y-129500952D01*
X76009567Y-103985669D02*
X76009567Y-104053013D01*
X76076911Y-104187700D01*
X76144254Y-104255043D01*
X76278941Y-104322387D01*
X76413628Y-104322387D01*
X76514643Y-104288715D01*
X76683002Y-104187700D01*
X76784017Y-104086685D01*
X76885033Y-103918326D01*
X76918704Y-103817311D01*
X76918704Y-103682624D01*
X76851361Y-103547937D01*
X76784017Y-103480593D01*
X76649330Y-103413250D01*
X76581987Y-103413250D01*
X75268788Y-103379578D02*
X75672849Y-103783639D01*
X75470819Y-103581608D02*
X76177926Y-102874501D01*
X76144254Y-103042860D01*
X76144254Y-103177547D01*
X76177926Y-103278563D01*
X75369804Y-102066379D02*
X75504491Y-102201066D01*
X75538162Y-102302082D01*
X75538162Y-102369425D01*
X75504491Y-102537784D01*
X75403475Y-102706143D01*
X75134101Y-102975517D01*
X75033086Y-103009188D01*
X74965743Y-103009188D01*
X74864727Y-102975517D01*
X74730040Y-102840830D01*
X74696369Y-102739814D01*
X74696369Y-102672471D01*
X74730040Y-102571456D01*
X74898399Y-102403097D01*
X74999414Y-102369425D01*
X75066758Y-102369425D01*
X75167773Y-102403097D01*
X75302460Y-102537784D01*
X75336132Y-102638799D01*
X75336132Y-102706143D01*
X75302460Y-102807158D01*
X102457142Y-115983333D02*
X102504761Y-115935714D01*
X102552380Y-115792857D01*
X102552380Y-115697619D01*
X102504761Y-115554761D01*
X102409523Y-115459523D01*
X102314285Y-115411904D01*
X102123809Y-115364285D01*
X101980952Y-115364285D01*
X101790476Y-115411904D01*
X101695238Y-115459523D01*
X101600000Y-115554761D01*
X101552380Y-115697619D01*
X101552380Y-115792857D01*
X101600000Y-115935714D01*
X101647619Y-115983333D01*
X102552380Y-116935714D02*
X102552380Y-116364285D01*
X102552380Y-116650000D02*
X101552380Y-116650000D01*
X101695238Y-116554761D01*
X101790476Y-116459523D01*
X101838095Y-116364285D01*
X100766666Y-121607142D02*
X100814285Y-121654761D01*
X100957142Y-121702380D01*
X101052380Y-121702380D01*
X101195238Y-121654761D01*
X101290476Y-121559523D01*
X101338095Y-121464285D01*
X101385714Y-121273809D01*
X101385714Y-121130952D01*
X101338095Y-120940476D01*
X101290476Y-120845238D01*
X101195238Y-120750000D01*
X101052380Y-120702380D01*
X100957142Y-120702380D01*
X100814285Y-120750000D01*
X100766666Y-120797619D01*
X100433333Y-120702380D02*
X99814285Y-120702380D01*
X100147619Y-121083333D01*
X100004761Y-121083333D01*
X99909523Y-121130952D01*
X99861904Y-121178571D01*
X99814285Y-121273809D01*
X99814285Y-121511904D01*
X99861904Y-121607142D01*
X99909523Y-121654761D01*
X100004761Y-121702380D01*
X100290476Y-121702380D01*
X100385714Y-121654761D01*
X100433333Y-121607142D01*
X81207142Y-106283333D02*
X81254761Y-106235714D01*
X81302380Y-106092857D01*
X81302380Y-105997619D01*
X81254761Y-105854761D01*
X81159523Y-105759523D01*
X81064285Y-105711904D01*
X80873809Y-105664285D01*
X80730952Y-105664285D01*
X80540476Y-105711904D01*
X80445238Y-105759523D01*
X80350000Y-105854761D01*
X80302380Y-105997619D01*
X80302380Y-106092857D01*
X80350000Y-106235714D01*
X80397619Y-106283333D01*
X80302380Y-107140476D02*
X80302380Y-106950000D01*
X80350000Y-106854761D01*
X80397619Y-106807142D01*
X80540476Y-106711904D01*
X80730952Y-106664285D01*
X81111904Y-106664285D01*
X81207142Y-106711904D01*
X81254761Y-106759523D01*
X81302380Y-106854761D01*
X81302380Y-107045238D01*
X81254761Y-107140476D01*
X81207142Y-107188095D01*
X81111904Y-107235714D01*
X80873809Y-107235714D01*
X80778571Y-107188095D01*
X80730952Y-107140476D01*
X80683333Y-107045238D01*
X80683333Y-106854761D01*
X80730952Y-106759523D01*
X80778571Y-106711904D01*
X80873809Y-106664285D01*
X87570389Y-118134686D02*
X87637732Y-118134686D01*
X87772419Y-118067342D01*
X87839763Y-117999999D01*
X87907106Y-117865311D01*
X87907106Y-117730624D01*
X87873435Y-117629609D01*
X87772419Y-117461250D01*
X87671404Y-117360235D01*
X87503045Y-117259220D01*
X87402030Y-117225548D01*
X87267343Y-117225548D01*
X87132656Y-117292892D01*
X87065312Y-117360235D01*
X86997969Y-117494922D01*
X86997969Y-117562266D01*
X86694923Y-117730624D02*
X86223519Y-118202029D01*
X87233671Y-118606090D01*
X88391726Y-123638124D02*
X88459069Y-123638124D01*
X88593756Y-123570780D01*
X88661100Y-123503437D01*
X88728443Y-123368749D01*
X88728443Y-123234062D01*
X88694772Y-123133047D01*
X88593756Y-122964688D01*
X88492741Y-122863673D01*
X88324382Y-122762658D01*
X88223367Y-122728986D01*
X88088680Y-122728986D01*
X87953993Y-122796330D01*
X87886649Y-122863673D01*
X87819306Y-122998360D01*
X87819306Y-123065704D01*
X87650947Y-123705467D02*
X87684619Y-123604452D01*
X87684619Y-123537108D01*
X87650947Y-123436093D01*
X87617275Y-123402421D01*
X87516260Y-123368749D01*
X87448917Y-123368749D01*
X87347901Y-123402421D01*
X87213214Y-123537108D01*
X87179543Y-123638124D01*
X87179543Y-123705467D01*
X87213214Y-123806482D01*
X87246886Y-123840154D01*
X87347901Y-123873826D01*
X87415245Y-123873826D01*
X87516260Y-123840154D01*
X87650947Y-123705467D01*
X87751962Y-123671795D01*
X87819306Y-123671795D01*
X87920321Y-123705467D01*
X88055008Y-123840154D01*
X88088680Y-123941169D01*
X88088680Y-124008513D01*
X88055008Y-124109528D01*
X87920321Y-124244215D01*
X87819306Y-124277887D01*
X87751962Y-124277887D01*
X87650947Y-124244215D01*
X87516260Y-124109528D01*
X87482588Y-124008513D01*
X87482588Y-123941169D01*
X87516260Y-123840154D01*
X73465312Y-119370389D02*
X73465312Y-119437732D01*
X73532656Y-119572419D01*
X73600000Y-119639763D01*
X73734687Y-119707106D01*
X73869374Y-119707106D01*
X73970389Y-119673435D01*
X74138748Y-119572419D01*
X74239763Y-119471404D01*
X74340778Y-119303045D01*
X74374450Y-119202030D01*
X74374450Y-119067343D01*
X74307106Y-118932656D01*
X74239763Y-118865312D01*
X74105076Y-118797969D01*
X74037732Y-118797969D01*
X73061251Y-119101015D02*
X72926564Y-118966328D01*
X72892893Y-118865312D01*
X72892893Y-118797969D01*
X72926564Y-118629610D01*
X73027580Y-118461251D01*
X73296954Y-118191877D01*
X73397969Y-118158206D01*
X73465312Y-118158206D01*
X73566328Y-118191877D01*
X73701015Y-118326564D01*
X73734687Y-118427580D01*
X73734687Y-118494923D01*
X73701015Y-118595938D01*
X73532656Y-118764297D01*
X73431641Y-118797969D01*
X73364297Y-118797969D01*
X73263282Y-118764297D01*
X73128595Y-118629610D01*
X73094923Y-118528595D01*
X73094923Y-118461251D01*
X73128595Y-118360236D01*
X71952030Y-120857106D02*
X71952030Y-120924450D01*
X72019374Y-121059137D01*
X72086717Y-121126480D01*
X72221404Y-121193824D01*
X72356091Y-121193824D01*
X72457106Y-121160152D01*
X72625465Y-121059137D01*
X72726480Y-120958122D01*
X72827496Y-120789763D01*
X72861167Y-120688748D01*
X72861167Y-120554061D01*
X72793824Y-120419374D01*
X72726480Y-120352030D01*
X72591793Y-120284687D01*
X72524450Y-120284687D01*
X71211251Y-120251015D02*
X71615312Y-120655076D01*
X71413282Y-120453045D02*
X72120389Y-119745938D01*
X72086717Y-119914297D01*
X72086717Y-120048984D01*
X72120389Y-120150000D01*
X71480625Y-119106175D02*
X71413282Y-119038832D01*
X71312267Y-119005160D01*
X71244923Y-119005160D01*
X71143908Y-119038832D01*
X70975549Y-119139847D01*
X70807190Y-119308206D01*
X70706175Y-119476564D01*
X70672503Y-119577580D01*
X70672503Y-119644923D01*
X70706175Y-119745938D01*
X70773519Y-119813282D01*
X70874534Y-119846954D01*
X70941877Y-119846954D01*
X71042893Y-119813282D01*
X71211251Y-119712267D01*
X71379610Y-119543908D01*
X71480625Y-119375549D01*
X71514297Y-119274534D01*
X71514297Y-119207190D01*
X71480625Y-119106175D01*
X112292857Y-129507142D02*
X112340476Y-129554761D01*
X112483333Y-129602380D01*
X112578571Y-129602380D01*
X112721428Y-129554761D01*
X112816666Y-129459523D01*
X112864285Y-129364285D01*
X112911904Y-129173809D01*
X112911904Y-129030952D01*
X112864285Y-128840476D01*
X112816666Y-128745238D01*
X112721428Y-128650000D01*
X112578571Y-128602380D01*
X112483333Y-128602380D01*
X112340476Y-128650000D01*
X112292857Y-128697619D01*
X111340476Y-129602380D02*
X111911904Y-129602380D01*
X111626190Y-129602380D02*
X111626190Y-128602380D01*
X111721428Y-128745238D01*
X111816666Y-128840476D01*
X111911904Y-128888095D01*
X110388095Y-129602380D02*
X110959523Y-129602380D01*
X110673809Y-129602380D02*
X110673809Y-128602380D01*
X110769047Y-128745238D01*
X110864285Y-128840476D01*
X110959523Y-128888095D01*
X106207142Y-106357142D02*
X106254761Y-106309523D01*
X106302380Y-106166666D01*
X106302380Y-106071428D01*
X106254761Y-105928571D01*
X106159523Y-105833333D01*
X106064285Y-105785714D01*
X105873809Y-105738095D01*
X105730952Y-105738095D01*
X105540476Y-105785714D01*
X105445238Y-105833333D01*
X105350000Y-105928571D01*
X105302380Y-106071428D01*
X105302380Y-106166666D01*
X105350000Y-106309523D01*
X105397619Y-106357142D01*
X106302380Y-107309523D02*
X106302380Y-106738095D01*
X106302380Y-107023809D02*
X105302380Y-107023809D01*
X105445238Y-106928571D01*
X105540476Y-106833333D01*
X105588095Y-106738095D01*
X105397619Y-107690476D02*
X105350000Y-107738095D01*
X105302380Y-107833333D01*
X105302380Y-108071428D01*
X105350000Y-108166666D01*
X105397619Y-108214285D01*
X105492857Y-108261904D01*
X105588095Y-108261904D01*
X105730952Y-108214285D01*
X106302380Y-107642857D01*
X106302380Y-108261904D01*
X110807142Y-124907142D02*
X110854761Y-124859523D01*
X110902380Y-124716666D01*
X110902380Y-124621428D01*
X110854761Y-124478571D01*
X110759523Y-124383333D01*
X110664285Y-124335714D01*
X110473809Y-124288095D01*
X110330952Y-124288095D01*
X110140476Y-124335714D01*
X110045238Y-124383333D01*
X109950000Y-124478571D01*
X109902380Y-124621428D01*
X109902380Y-124716666D01*
X109950000Y-124859523D01*
X109997619Y-124907142D01*
X110902380Y-125859523D02*
X110902380Y-125288095D01*
X110902380Y-125573809D02*
X109902380Y-125573809D01*
X110045238Y-125478571D01*
X110140476Y-125383333D01*
X110188095Y-125288095D01*
X109902380Y-126192857D02*
X109902380Y-126811904D01*
X110283333Y-126478571D01*
X110283333Y-126621428D01*
X110330952Y-126716666D01*
X110378571Y-126764285D01*
X110473809Y-126811904D01*
X110711904Y-126811904D01*
X110807142Y-126764285D01*
X110854761Y-126716666D01*
X110902380Y-126621428D01*
X110902380Y-126335714D01*
X110854761Y-126240476D01*
X110807142Y-126192857D01*
X83608957Y-133007142D02*
X83656576Y-133054761D01*
X83799433Y-133102380D01*
X83894671Y-133102380D01*
X84037528Y-133054761D01*
X84132766Y-132959523D01*
X84180385Y-132864285D01*
X84228004Y-132673809D01*
X84228004Y-132530952D01*
X84180385Y-132340476D01*
X84132766Y-132245238D01*
X84037528Y-132150000D01*
X83894671Y-132102380D01*
X83799433Y-132102380D01*
X83656576Y-132150000D01*
X83608957Y-132197619D01*
X82656576Y-133102380D02*
X83228004Y-133102380D01*
X82942290Y-133102380D02*
X82942290Y-132102380D01*
X83037528Y-132245238D01*
X83132766Y-132340476D01*
X83228004Y-132388095D01*
X81751814Y-132102380D02*
X82228004Y-132102380D01*
X82275623Y-132578571D01*
X82228004Y-132530952D01*
X82132766Y-132483333D01*
X81894671Y-132483333D01*
X81799433Y-132530952D01*
X81751814Y-132578571D01*
X81704195Y-132673809D01*
X81704195Y-132911904D01*
X81751814Y-133007142D01*
X81799433Y-133054761D01*
X81894671Y-133102380D01*
X82132766Y-133102380D01*
X82228004Y-133054761D01*
X82275623Y-133007142D01*
X77033333Y-141427380D02*
X77033333Y-142141666D01*
X77080952Y-142284523D01*
X77176190Y-142379761D01*
X77319047Y-142427380D01*
X77414285Y-142427380D01*
X76033333Y-142427380D02*
X76604761Y-142427380D01*
X76319047Y-142427380D02*
X76319047Y-141427380D01*
X76414285Y-141570238D01*
X76509523Y-141665476D01*
X76604761Y-141713095D01*
X86816666Y-111652380D02*
X87150000Y-111176190D01*
X87388095Y-111652380D02*
X87388095Y-110652380D01*
X87007142Y-110652380D01*
X86911904Y-110700000D01*
X86864285Y-110747619D01*
X86816666Y-110842857D01*
X86816666Y-110985714D01*
X86864285Y-111080952D01*
X86911904Y-111128571D01*
X87007142Y-111176190D01*
X87388095Y-111176190D01*
X85864285Y-111652380D02*
X86435714Y-111652380D01*
X86150000Y-111652380D02*
X86150000Y-110652380D01*
X86245238Y-110795238D01*
X86340476Y-110890476D01*
X86435714Y-110938095D01*
X76385214Y-113309112D02*
X76284199Y-112736692D01*
X76789275Y-112905051D02*
X76082169Y-112197944D01*
X75812794Y-112467318D01*
X75779123Y-112568333D01*
X75779123Y-112635677D01*
X75812794Y-112736692D01*
X75913810Y-112837707D01*
X76014825Y-112871379D01*
X76082169Y-112871379D01*
X76183184Y-112837707D01*
X76452558Y-112568333D01*
X75476077Y-112938723D02*
X75408733Y-112938723D01*
X75307718Y-112972394D01*
X75139359Y-113140753D01*
X75105688Y-113241769D01*
X75105688Y-113309112D01*
X75139359Y-113410127D01*
X75206703Y-113477471D01*
X75341390Y-113544814D01*
X76149512Y-113544814D01*
X75711779Y-113982547D01*
X79035650Y-114999948D02*
X78934635Y-114427528D01*
X79439711Y-114595887D02*
X78732605Y-113888780D01*
X78463230Y-114158154D01*
X78429559Y-114259169D01*
X78429559Y-114326513D01*
X78463230Y-114427528D01*
X78564246Y-114528543D01*
X78665261Y-114562215D01*
X78732605Y-114562215D01*
X78833620Y-114528543D01*
X79102994Y-114259169D01*
X78092841Y-114528543D02*
X77655108Y-114966276D01*
X78160185Y-114999948D01*
X78059169Y-115100963D01*
X78025498Y-115201979D01*
X78025498Y-115269322D01*
X78059169Y-115370337D01*
X78227528Y-115538696D01*
X78328543Y-115572368D01*
X78395887Y-115572368D01*
X78496902Y-115538696D01*
X78698933Y-115336666D01*
X78732605Y-115235650D01*
X78732605Y-115168307D01*
X120816666Y-127102380D02*
X121150000Y-126626190D01*
X121388095Y-127102380D02*
X121388095Y-126102380D01*
X121007142Y-126102380D01*
X120911904Y-126150000D01*
X120864285Y-126197619D01*
X120816666Y-126292857D01*
X120816666Y-126435714D01*
X120864285Y-126530952D01*
X120911904Y-126578571D01*
X121007142Y-126626190D01*
X121388095Y-126626190D01*
X119959523Y-126435714D02*
X119959523Y-127102380D01*
X120197619Y-126054761D02*
X120435714Y-126769047D01*
X119816666Y-126769047D01*
X120816666Y-124902380D02*
X121150000Y-124426190D01*
X121388095Y-124902380D02*
X121388095Y-123902380D01*
X121007142Y-123902380D01*
X120911904Y-123950000D01*
X120864285Y-123997619D01*
X120816666Y-124092857D01*
X120816666Y-124235714D01*
X120864285Y-124330952D01*
X120911904Y-124378571D01*
X121007142Y-124426190D01*
X121388095Y-124426190D01*
X119911904Y-123902380D02*
X120388095Y-123902380D01*
X120435714Y-124378571D01*
X120388095Y-124330952D01*
X120292857Y-124283333D01*
X120054761Y-124283333D01*
X119959523Y-124330952D01*
X119911904Y-124378571D01*
X119864285Y-124473809D01*
X119864285Y-124711904D01*
X119911904Y-124807142D01*
X119959523Y-124854761D01*
X120054761Y-124902380D01*
X120292857Y-124902380D01*
X120388095Y-124854761D01*
X120435714Y-124807142D01*
X113266666Y-102402380D02*
X113600000Y-101926190D01*
X113838095Y-102402380D02*
X113838095Y-101402380D01*
X113457142Y-101402380D01*
X113361904Y-101450000D01*
X113314285Y-101497619D01*
X113266666Y-101592857D01*
X113266666Y-101735714D01*
X113314285Y-101830952D01*
X113361904Y-101878571D01*
X113457142Y-101926190D01*
X113838095Y-101926190D01*
X112409523Y-101402380D02*
X112600000Y-101402380D01*
X112695238Y-101450000D01*
X112742857Y-101497619D01*
X112838095Y-101640476D01*
X112885714Y-101830952D01*
X112885714Y-102211904D01*
X112838095Y-102307142D01*
X112790476Y-102354761D01*
X112695238Y-102402380D01*
X112504761Y-102402380D01*
X112409523Y-102354761D01*
X112361904Y-102307142D01*
X112314285Y-102211904D01*
X112314285Y-101973809D01*
X112361904Y-101878571D01*
X112409523Y-101830952D01*
X112504761Y-101783333D01*
X112695238Y-101783333D01*
X112790476Y-101830952D01*
X112838095Y-101878571D01*
X112885714Y-101973809D01*
X79947969Y-132937733D02*
X80520389Y-132836718D01*
X80352030Y-133341794D02*
X81059137Y-132634688D01*
X80789763Y-132365313D01*
X80688748Y-132331642D01*
X80621404Y-132331642D01*
X80520389Y-132365313D01*
X80419374Y-132466329D01*
X80385702Y-132567344D01*
X80385702Y-132634688D01*
X80419374Y-132735703D01*
X80688748Y-133005077D01*
X80419374Y-131994924D02*
X79947969Y-131523520D01*
X79543908Y-132533672D01*
X119066666Y-102352380D02*
X119400000Y-101876190D01*
X119638095Y-102352380D02*
X119638095Y-101352380D01*
X119257142Y-101352380D01*
X119161904Y-101400000D01*
X119114285Y-101447619D01*
X119066666Y-101542857D01*
X119066666Y-101685714D01*
X119114285Y-101780952D01*
X119161904Y-101828571D01*
X119257142Y-101876190D01*
X119638095Y-101876190D01*
X118495238Y-101780952D02*
X118590476Y-101733333D01*
X118638095Y-101685714D01*
X118685714Y-101590476D01*
X118685714Y-101542857D01*
X118638095Y-101447619D01*
X118590476Y-101400000D01*
X118495238Y-101352380D01*
X118304761Y-101352380D01*
X118209523Y-101400000D01*
X118161904Y-101447619D01*
X118114285Y-101542857D01*
X118114285Y-101590476D01*
X118161904Y-101685714D01*
X118209523Y-101733333D01*
X118304761Y-101780952D01*
X118495238Y-101780952D01*
X118590476Y-101828571D01*
X118638095Y-101876190D01*
X118685714Y-101971428D01*
X118685714Y-102161904D01*
X118638095Y-102257142D01*
X118590476Y-102304761D01*
X118495238Y-102352380D01*
X118304761Y-102352380D01*
X118209523Y-102304761D01*
X118161904Y-102257142D01*
X118114285Y-102161904D01*
X118114285Y-101971428D01*
X118161904Y-101876190D01*
X118209523Y-101828571D01*
X118304761Y-101780952D01*
X78572969Y-134487732D02*
X79145389Y-134386717D01*
X78977030Y-134891793D02*
X79684137Y-134184687D01*
X79414763Y-133915312D01*
X79313748Y-133881641D01*
X79246404Y-133881641D01*
X79145389Y-133915312D01*
X79044374Y-134016328D01*
X79010702Y-134117343D01*
X79010702Y-134184687D01*
X79044374Y-134285702D01*
X79313748Y-134555076D01*
X78236251Y-134151015D02*
X78101564Y-134016328D01*
X78067893Y-133915312D01*
X78067893Y-133847969D01*
X78101564Y-133679610D01*
X78202580Y-133511251D01*
X78471954Y-133241877D01*
X78572969Y-133208206D01*
X78640312Y-133208206D01*
X78741328Y-133241877D01*
X78876015Y-133376564D01*
X78909687Y-133477580D01*
X78909687Y-133544923D01*
X78876015Y-133645938D01*
X78707656Y-133814297D01*
X78606641Y-133847969D01*
X78539297Y-133847969D01*
X78438282Y-133814297D01*
X78303595Y-133679610D01*
X78269923Y-133578595D01*
X78269923Y-133511251D01*
X78303595Y-133410236D01*
X76174449Y-127215312D02*
X76073434Y-126642893D01*
X76578510Y-126811251D02*
X75871403Y-126104145D01*
X75602029Y-126373519D01*
X75568357Y-126474534D01*
X75568357Y-126541877D01*
X75602029Y-126642893D01*
X75703044Y-126743908D01*
X75804060Y-126777580D01*
X75871403Y-126777580D01*
X75972418Y-126743908D01*
X76241792Y-126474534D01*
X75501014Y-127888748D02*
X75905075Y-127484687D01*
X75703044Y-127686717D02*
X74995937Y-126979610D01*
X75164296Y-127013282D01*
X75298983Y-127013282D01*
X75399999Y-126979610D01*
X74356174Y-127619374D02*
X74288831Y-127686717D01*
X74255159Y-127787732D01*
X74255159Y-127855076D01*
X74288831Y-127956091D01*
X74389846Y-128124450D01*
X74558205Y-128292809D01*
X74726563Y-128393824D01*
X74827579Y-128427496D01*
X74894922Y-128427496D01*
X74995937Y-128393824D01*
X75063281Y-128326480D01*
X75096953Y-128225465D01*
X75096953Y-128158122D01*
X75063281Y-128057106D01*
X74962266Y-127888748D01*
X74793907Y-127720389D01*
X74625548Y-127619374D01*
X74524533Y-127585702D01*
X74457189Y-127585702D01*
X74356174Y-127619374D01*
X81859687Y-124999450D02*
X82432106Y-124898435D01*
X82263748Y-125403511D02*
X82970854Y-124696404D01*
X82701480Y-124427030D01*
X82600465Y-124393358D01*
X82533122Y-124393358D01*
X82432106Y-124427030D01*
X82331091Y-124528045D01*
X82297419Y-124629061D01*
X82297419Y-124696404D01*
X82331091Y-124797419D01*
X82600465Y-125066793D01*
X81186251Y-124326015D02*
X81590312Y-124730076D01*
X81388282Y-124528045D02*
X82095389Y-123820938D01*
X82061717Y-123989297D01*
X82061717Y-124123984D01*
X82095389Y-124225000D01*
X80512816Y-123652580D02*
X80916877Y-124056641D01*
X80714847Y-123854610D02*
X81421954Y-123147503D01*
X81388282Y-123315862D01*
X81388282Y-123450549D01*
X81421954Y-123551564D01*
X93092857Y-125502380D02*
X93426190Y-125026190D01*
X93664285Y-125502380D02*
X93664285Y-124502380D01*
X93283333Y-124502380D01*
X93188095Y-124550000D01*
X93140476Y-124597619D01*
X93092857Y-124692857D01*
X93092857Y-124835714D01*
X93140476Y-124930952D01*
X93188095Y-124978571D01*
X93283333Y-125026190D01*
X93664285Y-125026190D01*
X92140476Y-125502380D02*
X92711904Y-125502380D01*
X92426190Y-125502380D02*
X92426190Y-124502380D01*
X92521428Y-124645238D01*
X92616666Y-124740476D01*
X92711904Y-124788095D01*
X91759523Y-124597619D02*
X91711904Y-124550000D01*
X91616666Y-124502380D01*
X91378571Y-124502380D01*
X91283333Y-124550000D01*
X91235714Y-124597619D01*
X91188095Y-124692857D01*
X91188095Y-124788095D01*
X91235714Y-124930952D01*
X91807142Y-125502380D01*
X91188095Y-125502380D01*
X125242857Y-102402380D02*
X125576190Y-101926190D01*
X125814285Y-102402380D02*
X125814285Y-101402380D01*
X125433333Y-101402380D01*
X125338095Y-101450000D01*
X125290476Y-101497619D01*
X125242857Y-101592857D01*
X125242857Y-101735714D01*
X125290476Y-101830952D01*
X125338095Y-101878571D01*
X125433333Y-101926190D01*
X125814285Y-101926190D01*
X124290476Y-102402380D02*
X124861904Y-102402380D01*
X124576190Y-102402380D02*
X124576190Y-101402380D01*
X124671428Y-101545238D01*
X124766666Y-101640476D01*
X124861904Y-101688095D01*
X123957142Y-101402380D02*
X123338095Y-101402380D01*
X123671428Y-101783333D01*
X123528571Y-101783333D01*
X123433333Y-101830952D01*
X123385714Y-101878571D01*
X123338095Y-101973809D01*
X123338095Y-102211904D01*
X123385714Y-102307142D01*
X123433333Y-102354761D01*
X123528571Y-102402380D01*
X123814285Y-102402380D01*
X123909523Y-102354761D01*
X123957142Y-102307142D01*
X73562605Y-135246532D02*
X74135024Y-135145517D01*
X73966666Y-135650593D02*
X74673772Y-134943486D01*
X74404398Y-134674112D01*
X74303383Y-134640440D01*
X74236040Y-134640440D01*
X74135024Y-134674112D01*
X74034009Y-134775127D01*
X74000337Y-134876143D01*
X74000337Y-134943486D01*
X74034009Y-135044501D01*
X74303383Y-135313875D01*
X72889169Y-134573097D02*
X73293230Y-134977158D01*
X73091200Y-134775127D02*
X73798307Y-134068020D01*
X73764635Y-134236379D01*
X73764635Y-134371066D01*
X73798307Y-134472082D01*
X72754482Y-133495601D02*
X72283078Y-133967005D01*
X73192215Y-133394585D02*
X72855498Y-134068020D01*
X72417765Y-133630288D01*
X122152380Y-113188095D02*
X122961904Y-113188095D01*
X123057142Y-113235714D01*
X123104761Y-113283333D01*
X123152380Y-113378571D01*
X123152380Y-113569047D01*
X123104761Y-113664285D01*
X123057142Y-113711904D01*
X122961904Y-113759523D01*
X122152380Y-113759523D01*
X122152380Y-114140476D02*
X122152380Y-114759523D01*
X122533333Y-114426190D01*
X122533333Y-114569047D01*
X122580952Y-114664285D01*
X122628571Y-114711904D01*
X122723809Y-114759523D01*
X122961904Y-114759523D01*
X123057142Y-114711904D01*
X123104761Y-114664285D01*
X123152380Y-114569047D01*
X123152380Y-114283333D01*
X123104761Y-114188095D01*
X123057142Y-114140476D01*
M02*
