M48
; DRILL file {KiCad 5.1.5} date Mon 16 Dec 2019 03:31:02 PM EST
; FORMAT={-:-/ absolute / metric / decimal}
; #@! TF.CreationDate,2019-12-16T15:31:02-05:00
; #@! TF.GenerationSoftware,Kicad,Pcbnew,5.1.5
; #@! TF.FileFunction,Plated,1,2,PTH
FMAT,2
METRIC
T1C0.400
T2C0.600
T3C0.850
T4C1.000
T5C1.016
%
G90
G05
T1
X71.028Y-105.891
X71.301Y-124.925
X71.614Y-109.787
X72.961Y-119.046
X73.404Y-116.857
X73.475Y-117.959
X74.181Y-98.5
X74.438Y-115.655
X74.499Y-128.004
X74.638Y-101.776
X74.925Y-117.556
X74.98Y-114.688
X75.663Y-107.296
X76.626Y-106.15
X77.024Y-98.219
X77.748Y-105.17
X78.641Y-109.35
X79.558Y-110.14
X79.848Y-121.106
X81.009Y-107.25
X81.55Y-122.467
X81.978Y-124.218
X81.991Y-120.991
X82.543Y-122.013
X82.559Y-120.144
X83.528Y-119.051
X83.778Y-109.695
X84.1Y-127.022
X84.223Y-97.863
X84.982Y-137.461
X85.937Y-111.837
X86.045Y-135.01
X86.249Y-120.951
X86.66Y-138.51
X86.67Y-108.526
X87.1Y-115.712
X88.971Y-135.477
X90.682Y-113.899
X91.991Y-136.435
X93.094Y-103.355
X93.658Y-110.517
X94.2Y-108.287
X94.661Y-132.727
X95.369Y-105.862
X95.56Y-104.471
X95.906Y-121.136
X96.711Y-126.323
X96.871Y-112.663
X97.136Y-111.599
X98.84Y-106.214
X99.31Y-124.853
X100.065Y-111.16
X101.409Y-124.265
X102.431Y-107.949
X102.585Y-137.779
X102.864Y-134.691
X103.638Y-126.494
X103.676Y-112.395
X103.85Y-130.025
X104.047Y-133.747
X104.492Y-127.985
X105.18Y-134.881
X105.825Y-123.025
X106.356Y-135.448
X106.928Y-105.093
X107.092Y-121.767
X107.586Y-128.053
X107.605Y-136.175
X109.179Y-107.345
X109.405Y-125.025
X111.65Y-133.25
X112.486Y-114.15
X112.729Y-119.404
X113.089Y-102.723
X116.579Y-132.546
X117.434Y-112.513
X117.666Y-130.434
X118.021Y-97.951
X119.045Y-108.103
X119.68Y-109.791
X121.7Y-128.875
X125.108Y-119.864
X127.325Y-101.6
T3
X79.45Y-139.626
X84.45Y-139.626
T4
X89.25Y-140.45
X91.79Y-140.45
X94.33Y-140.45
X96.87Y-140.45
X99.41Y-140.45
X101.95Y-140.45
X104.49Y-140.45
X107.03Y-140.45
X109.57Y-140.45
X112.11Y-140.45
X114.65Y-140.45
X117.19Y-140.45
X119.73Y-140.45
X122.27Y-140.45
X124.81Y-140.45
X127.35Y-140.45
X77.33Y-95.95
X79.87Y-95.95
X82.41Y-95.95
X84.95Y-95.95
X77.33Y-99.85
X79.87Y-99.85
X82.41Y-99.85
X84.95Y-99.85
X89.25Y-99.85
X91.79Y-99.85
X94.33Y-99.85
X96.87Y-99.85
X99.41Y-99.85
X101.95Y-99.85
X104.49Y-99.85
X107.03Y-99.85
X109.57Y-99.85
X112.11Y-99.85
X114.65Y-99.85
X117.19Y-99.85
X119.73Y-99.85
X122.27Y-99.85
X124.81Y-99.85
X127.35Y-99.85
X89.25Y-95.95
X91.79Y-95.95
X94.33Y-95.95
X96.87Y-95.95
X99.41Y-95.95
X101.95Y-95.95
X104.49Y-95.95
X107.03Y-95.95
X109.57Y-95.95
X112.11Y-95.95
X114.65Y-95.95
X117.19Y-95.95
X119.73Y-95.95
X122.27Y-95.95
X124.81Y-95.95
X127.35Y-95.95
T5
X87.84Y-127.81
X87.84Y-130.35
X90.38Y-127.81
X90.38Y-130.35
X92.92Y-127.81
X92.92Y-130.35
X95.46Y-127.81
X95.46Y-130.35
X98.0Y-127.81
X98.0Y-130.35
T2
G00X78.45Y-142.676
M15
G01X78.45Y-141.976
M16
G05
G00X85.45Y-141.976
M15
G01X85.45Y-142.676
M16
G05
T0
M30
