G04 #@! TF.GenerationSoftware,KiCad,Pcbnew,5.1.4*
G04 #@! TF.CreationDate,2019-11-07T13:03:23-05:00*
G04 #@! TF.ProjectId,rustypill,72757374-7970-4696-9c6c-2e6b69636164,rev?*
G04 #@! TF.SameCoordinates,Original*
G04 #@! TF.FileFunction,Legend,Bot*
G04 #@! TF.FilePolarity,Positive*
%FSLAX46Y46*%
G04 Gerber Fmt 4.6, Leading zero omitted, Abs format (unit mm)*
G04 Created by KiCad (PCBNEW 5.1.4) date 2019-11-07 13:03:23*
%MOMM*%
%LPD*%
G04 APERTURE LIST*
%ADD10C,0.120000*%
%ADD11C,0.152400*%
%ADD12C,0.150000*%
%ADD13C,0.050000*%
G04 APERTURE END LIST*
D10*
X104700000Y-115650000D02*
X104700000Y-116650000D01*
X103000000Y-116650000D02*
X103000000Y-115650000D01*
X91850000Y-120400000D02*
X91850000Y-121400000D01*
X90150000Y-121400000D02*
X90150000Y-120400000D01*
X101100000Y-120350000D02*
X100100000Y-120350000D01*
X100100000Y-118650000D02*
X101100000Y-118650000D01*
X79950000Y-105950000D02*
X79950000Y-106950000D01*
X78250000Y-106950000D02*
X78250000Y-105950000D01*
X85654594Y-120697487D02*
X84947487Y-121404594D01*
X83745406Y-120202513D02*
X84452513Y-119495406D01*
X85829306Y-122018513D02*
X86536413Y-121311406D01*
X87738494Y-122513487D02*
X87031387Y-123220594D01*
X75736413Y-122238594D02*
X75029306Y-121531487D01*
X76231387Y-120329406D02*
X76938494Y-121036513D01*
X74647487Y-121895406D02*
X75354594Y-122602513D01*
X74152513Y-123804594D02*
X73445406Y-123097487D01*
X119050000Y-130250000D02*
X119050000Y-131250000D01*
X117350000Y-131250000D02*
X117350000Y-130250000D01*
X98150000Y-109250000D02*
X98150000Y-108250000D01*
X99850000Y-108250000D02*
X99850000Y-109250000D01*
X111350000Y-126050000D02*
X111350000Y-125050000D01*
X113050000Y-125050000D02*
X113050000Y-126050000D01*
X93550000Y-121400000D02*
X93550000Y-120400000D01*
X95250000Y-120400000D02*
X95250000Y-121400000D01*
X82466100Y-130016000D02*
X83466100Y-130016000D01*
X83466100Y-131716000D02*
X82466100Y-131716000D01*
X85850000Y-135550000D02*
X85400000Y-135550000D01*
X85850000Y-137400000D02*
X85850000Y-135550000D01*
X78050000Y-139950000D02*
X78050000Y-139700000D01*
X85850000Y-139950000D02*
X85850000Y-139700000D01*
X78050000Y-137400000D02*
X78050000Y-135550000D01*
X78050000Y-135550000D02*
X78500000Y-135550000D01*
X83650000Y-135000000D02*
X83200000Y-135000000D01*
X83650000Y-135000000D02*
X83650000Y-135450000D01*
X87250000Y-108620000D02*
X86050000Y-108620000D01*
X86050000Y-110380000D02*
X87250000Y-110380000D01*
X74943390Y-112951518D02*
X75791918Y-112102990D01*
X74547410Y-110858482D02*
X73698882Y-111707010D01*
X79602010Y-114953482D02*
X78753482Y-115802010D01*
X79997990Y-117046518D02*
X80846518Y-116197990D01*
X116450000Y-127530000D02*
X117650000Y-127530000D01*
X117650000Y-125770000D02*
X116450000Y-125770000D01*
X117650000Y-123570000D02*
X116450000Y-123570000D01*
X116450000Y-125330000D02*
X117650000Y-125330000D01*
X112500000Y-104530000D02*
X113700000Y-104530000D01*
X113700000Y-102770000D02*
X112500000Y-102770000D01*
X78996518Y-129702010D02*
X78147990Y-128853482D01*
X76903482Y-130097990D02*
X77752010Y-130946518D01*
X118300000Y-104530000D02*
X119500000Y-104530000D01*
X119500000Y-102770000D02*
X118300000Y-102770000D01*
X78197990Y-125596518D02*
X79046518Y-124747990D01*
X77802010Y-123503482D02*
X76953482Y-124352010D01*
X79502010Y-125253482D02*
X78653482Y-126102010D01*
X79897990Y-127346518D02*
X80746518Y-126497990D01*
X96900000Y-124170000D02*
X95700000Y-124170000D01*
X95700000Y-125930000D02*
X96900000Y-125930000D01*
X125200000Y-102770000D02*
X124000000Y-102770000D01*
X124000000Y-104530000D02*
X125200000Y-104530000D01*
D11*
X100225800Y-107618800D02*
G75*
G03X100225800Y-107009200I0J304800D01*
G01*
X100225800Y-107009200D02*
X100225800Y-105942400D01*
X100225800Y-107618800D02*
X100225800Y-107009200D01*
X100225800Y-108685600D02*
X100225800Y-107618800D01*
X105204200Y-105942400D02*
X105204200Y-108685600D01*
D10*
X134800000Y-122076000D02*
X134800000Y-105836000D01*
X134800000Y-105836000D02*
X127180000Y-105836000D01*
X111180000Y-105836000D02*
X110560000Y-105836000D01*
X110560000Y-105836000D02*
X110560000Y-107956000D01*
X110560000Y-119956000D02*
X110560000Y-122076000D01*
X110560000Y-122076000D02*
X111180000Y-122076000D01*
X127180000Y-122076000D02*
X134800000Y-122076000D01*
X127180000Y-122076000D02*
X127180000Y-122686000D01*
D12*
X102457142Y-115983333D02*
X102504761Y-115935714D01*
X102552380Y-115792857D01*
X102552380Y-115697619D01*
X102504761Y-115554761D01*
X102409523Y-115459523D01*
X102314285Y-115411904D01*
X102123809Y-115364285D01*
X101980952Y-115364285D01*
X101790476Y-115411904D01*
X101695238Y-115459523D01*
X101600000Y-115554761D01*
X101552380Y-115697619D01*
X101552380Y-115792857D01*
X101600000Y-115935714D01*
X101647619Y-115983333D01*
X102552380Y-116935714D02*
X102552380Y-116364285D01*
X102552380Y-116650000D02*
X101552380Y-116650000D01*
X101695238Y-116554761D01*
X101790476Y-116459523D01*
X101838095Y-116364285D01*
X89707142Y-119433333D02*
X89754761Y-119385714D01*
X89802380Y-119242857D01*
X89802380Y-119147619D01*
X89754761Y-119004761D01*
X89659523Y-118909523D01*
X89564285Y-118861904D01*
X89373809Y-118814285D01*
X89230952Y-118814285D01*
X89040476Y-118861904D01*
X88945238Y-118909523D01*
X88850000Y-119004761D01*
X88802380Y-119147619D01*
X88802380Y-119242857D01*
X88850000Y-119385714D01*
X88897619Y-119433333D01*
X88897619Y-119814285D02*
X88850000Y-119861904D01*
X88802380Y-119957142D01*
X88802380Y-120195238D01*
X88850000Y-120290476D01*
X88897619Y-120338095D01*
X88992857Y-120385714D01*
X89088095Y-120385714D01*
X89230952Y-120338095D01*
X89802380Y-119766666D01*
X89802380Y-120385714D01*
X100766666Y-121607142D02*
X100814285Y-121654761D01*
X100957142Y-121702380D01*
X101052380Y-121702380D01*
X101195238Y-121654761D01*
X101290476Y-121559523D01*
X101338095Y-121464285D01*
X101385714Y-121273809D01*
X101385714Y-121130952D01*
X101338095Y-120940476D01*
X101290476Y-120845238D01*
X101195238Y-120750000D01*
X101052380Y-120702380D01*
X100957142Y-120702380D01*
X100814285Y-120750000D01*
X100766666Y-120797619D01*
X100433333Y-120702380D02*
X99814285Y-120702380D01*
X100147619Y-121083333D01*
X100004761Y-121083333D01*
X99909523Y-121130952D01*
X99861904Y-121178571D01*
X99814285Y-121273809D01*
X99814285Y-121511904D01*
X99861904Y-121607142D01*
X99909523Y-121654761D01*
X100004761Y-121702380D01*
X100290476Y-121702380D01*
X100385714Y-121654761D01*
X100433333Y-121607142D01*
X81207142Y-106283333D02*
X81254761Y-106235714D01*
X81302380Y-106092857D01*
X81302380Y-105997619D01*
X81254761Y-105854761D01*
X81159523Y-105759523D01*
X81064285Y-105711904D01*
X80873809Y-105664285D01*
X80730952Y-105664285D01*
X80540476Y-105711904D01*
X80445238Y-105759523D01*
X80350000Y-105854761D01*
X80302380Y-105997619D01*
X80302380Y-106092857D01*
X80350000Y-106235714D01*
X80397619Y-106283333D01*
X80302380Y-107140476D02*
X80302380Y-106950000D01*
X80350000Y-106854761D01*
X80397619Y-106807142D01*
X80540476Y-106711904D01*
X80730952Y-106664285D01*
X81111904Y-106664285D01*
X81207142Y-106711904D01*
X81254761Y-106759523D01*
X81302380Y-106854761D01*
X81302380Y-107045238D01*
X81254761Y-107140476D01*
X81207142Y-107188095D01*
X81111904Y-107235714D01*
X80873809Y-107235714D01*
X80778571Y-107188095D01*
X80730952Y-107140476D01*
X80683333Y-107045238D01*
X80683333Y-106854761D01*
X80730952Y-106759523D01*
X80778571Y-106711904D01*
X80873809Y-106664285D01*
X87570389Y-118134686D02*
X87637732Y-118134686D01*
X87772419Y-118067342D01*
X87839763Y-117999999D01*
X87907106Y-117865311D01*
X87907106Y-117730624D01*
X87873435Y-117629609D01*
X87772419Y-117461250D01*
X87671404Y-117360235D01*
X87503045Y-117259220D01*
X87402030Y-117225548D01*
X87267343Y-117225548D01*
X87132656Y-117292892D01*
X87065312Y-117360235D01*
X86997969Y-117494922D01*
X86997969Y-117562266D01*
X86694923Y-117730624D02*
X86223519Y-118202029D01*
X87233671Y-118606090D01*
X88391726Y-123638124D02*
X88459069Y-123638124D01*
X88593756Y-123570780D01*
X88661100Y-123503437D01*
X88728443Y-123368749D01*
X88728443Y-123234062D01*
X88694772Y-123133047D01*
X88593756Y-122964688D01*
X88492741Y-122863673D01*
X88324382Y-122762658D01*
X88223367Y-122728986D01*
X88088680Y-122728986D01*
X87953993Y-122796330D01*
X87886649Y-122863673D01*
X87819306Y-122998360D01*
X87819306Y-123065704D01*
X87650947Y-123705467D02*
X87684619Y-123604452D01*
X87684619Y-123537108D01*
X87650947Y-123436093D01*
X87617275Y-123402421D01*
X87516260Y-123368749D01*
X87448917Y-123368749D01*
X87347901Y-123402421D01*
X87213214Y-123537108D01*
X87179543Y-123638124D01*
X87179543Y-123705467D01*
X87213214Y-123806482D01*
X87246886Y-123840154D01*
X87347901Y-123873826D01*
X87415245Y-123873826D01*
X87516260Y-123840154D01*
X87650947Y-123705467D01*
X87751962Y-123671795D01*
X87819306Y-123671795D01*
X87920321Y-123705467D01*
X88055008Y-123840154D01*
X88088680Y-123941169D01*
X88088680Y-124008513D01*
X88055008Y-124109528D01*
X87920321Y-124244215D01*
X87819306Y-124277887D01*
X87751962Y-124277887D01*
X87650947Y-124244215D01*
X87516260Y-124109528D01*
X87482588Y-124008513D01*
X87482588Y-123941169D01*
X87516260Y-123840154D01*
X73465312Y-119370389D02*
X73465312Y-119437732D01*
X73532656Y-119572419D01*
X73600000Y-119639763D01*
X73734687Y-119707106D01*
X73869374Y-119707106D01*
X73970389Y-119673435D01*
X74138748Y-119572419D01*
X74239763Y-119471404D01*
X74340778Y-119303045D01*
X74374450Y-119202030D01*
X74374450Y-119067343D01*
X74307106Y-118932656D01*
X74239763Y-118865312D01*
X74105076Y-118797969D01*
X74037732Y-118797969D01*
X73061251Y-119101015D02*
X72926564Y-118966328D01*
X72892893Y-118865312D01*
X72892893Y-118797969D01*
X72926564Y-118629610D01*
X73027580Y-118461251D01*
X73296954Y-118191877D01*
X73397969Y-118158206D01*
X73465312Y-118158206D01*
X73566328Y-118191877D01*
X73701015Y-118326564D01*
X73734687Y-118427580D01*
X73734687Y-118494923D01*
X73701015Y-118595938D01*
X73532656Y-118764297D01*
X73431641Y-118797969D01*
X73364297Y-118797969D01*
X73263282Y-118764297D01*
X73128595Y-118629610D01*
X73094923Y-118528595D01*
X73094923Y-118461251D01*
X73128595Y-118360236D01*
X71952030Y-120857106D02*
X71952030Y-120924450D01*
X72019374Y-121059137D01*
X72086717Y-121126480D01*
X72221404Y-121193824D01*
X72356091Y-121193824D01*
X72457106Y-121160152D01*
X72625465Y-121059137D01*
X72726480Y-120958122D01*
X72827496Y-120789763D01*
X72861167Y-120688748D01*
X72861167Y-120554061D01*
X72793824Y-120419374D01*
X72726480Y-120352030D01*
X72591793Y-120284687D01*
X72524450Y-120284687D01*
X71211251Y-120251015D02*
X71615312Y-120655076D01*
X71413282Y-120453045D02*
X72120389Y-119745938D01*
X72086717Y-119914297D01*
X72086717Y-120048984D01*
X72120389Y-120150000D01*
X71480625Y-119106175D02*
X71413282Y-119038832D01*
X71312267Y-119005160D01*
X71244923Y-119005160D01*
X71143908Y-119038832D01*
X70975549Y-119139847D01*
X70807190Y-119308206D01*
X70706175Y-119476564D01*
X70672503Y-119577580D01*
X70672503Y-119644923D01*
X70706175Y-119745938D01*
X70773519Y-119813282D01*
X70874534Y-119846954D01*
X70941877Y-119846954D01*
X71042893Y-119813282D01*
X71211251Y-119712267D01*
X71379610Y-119543908D01*
X71480625Y-119375549D01*
X71514297Y-119274534D01*
X71514297Y-119207190D01*
X71480625Y-119106175D01*
X116807142Y-130107142D02*
X116854761Y-130059523D01*
X116902380Y-129916666D01*
X116902380Y-129821428D01*
X116854761Y-129678571D01*
X116759523Y-129583333D01*
X116664285Y-129535714D01*
X116473809Y-129488095D01*
X116330952Y-129488095D01*
X116140476Y-129535714D01*
X116045238Y-129583333D01*
X115950000Y-129678571D01*
X115902380Y-129821428D01*
X115902380Y-129916666D01*
X115950000Y-130059523D01*
X115997619Y-130107142D01*
X116902380Y-131059523D02*
X116902380Y-130488095D01*
X116902380Y-130773809D02*
X115902380Y-130773809D01*
X116045238Y-130678571D01*
X116140476Y-130583333D01*
X116188095Y-130488095D01*
X116902380Y-132011904D02*
X116902380Y-131440476D01*
X116902380Y-131726190D02*
X115902380Y-131726190D01*
X116045238Y-131630952D01*
X116140476Y-131535714D01*
X116188095Y-131440476D01*
X97757142Y-108107142D02*
X97804761Y-108059523D01*
X97852380Y-107916666D01*
X97852380Y-107821428D01*
X97804761Y-107678571D01*
X97709523Y-107583333D01*
X97614285Y-107535714D01*
X97423809Y-107488095D01*
X97280952Y-107488095D01*
X97090476Y-107535714D01*
X96995238Y-107583333D01*
X96900000Y-107678571D01*
X96852380Y-107821428D01*
X96852380Y-107916666D01*
X96900000Y-108059523D01*
X96947619Y-108107142D01*
X97852380Y-109059523D02*
X97852380Y-108488095D01*
X97852380Y-108773809D02*
X96852380Y-108773809D01*
X96995238Y-108678571D01*
X97090476Y-108583333D01*
X97138095Y-108488095D01*
X96947619Y-109440476D02*
X96900000Y-109488095D01*
X96852380Y-109583333D01*
X96852380Y-109821428D01*
X96900000Y-109916666D01*
X96947619Y-109964285D01*
X97042857Y-110011904D01*
X97138095Y-110011904D01*
X97280952Y-109964285D01*
X97852380Y-109392857D01*
X97852380Y-110011904D01*
X110807142Y-124907142D02*
X110854761Y-124859523D01*
X110902380Y-124716666D01*
X110902380Y-124621428D01*
X110854761Y-124478571D01*
X110759523Y-124383333D01*
X110664285Y-124335714D01*
X110473809Y-124288095D01*
X110330952Y-124288095D01*
X110140476Y-124335714D01*
X110045238Y-124383333D01*
X109950000Y-124478571D01*
X109902380Y-124621428D01*
X109902380Y-124716666D01*
X109950000Y-124859523D01*
X109997619Y-124907142D01*
X110902380Y-125859523D02*
X110902380Y-125288095D01*
X110902380Y-125573809D02*
X109902380Y-125573809D01*
X110045238Y-125478571D01*
X110140476Y-125383333D01*
X110188095Y-125288095D01*
X109902380Y-126192857D02*
X109902380Y-126811904D01*
X110283333Y-126478571D01*
X110283333Y-126621428D01*
X110330952Y-126716666D01*
X110378571Y-126764285D01*
X110473809Y-126811904D01*
X110711904Y-126811904D01*
X110807142Y-126764285D01*
X110854761Y-126716666D01*
X110902380Y-126621428D01*
X110902380Y-126335714D01*
X110854761Y-126240476D01*
X110807142Y-126192857D01*
X93107142Y-119407142D02*
X93154761Y-119359523D01*
X93202380Y-119216666D01*
X93202380Y-119121428D01*
X93154761Y-118978571D01*
X93059523Y-118883333D01*
X92964285Y-118835714D01*
X92773809Y-118788095D01*
X92630952Y-118788095D01*
X92440476Y-118835714D01*
X92345238Y-118883333D01*
X92250000Y-118978571D01*
X92202380Y-119121428D01*
X92202380Y-119216666D01*
X92250000Y-119359523D01*
X92297619Y-119407142D01*
X93202380Y-120359523D02*
X93202380Y-119788095D01*
X93202380Y-120073809D02*
X92202380Y-120073809D01*
X92345238Y-119978571D01*
X92440476Y-119883333D01*
X92488095Y-119788095D01*
X92535714Y-121216666D02*
X93202380Y-121216666D01*
X92154761Y-120978571D02*
X92869047Y-120740476D01*
X92869047Y-121359523D01*
X83608957Y-129557142D02*
X83656576Y-129604761D01*
X83799433Y-129652380D01*
X83894671Y-129652380D01*
X84037528Y-129604761D01*
X84132766Y-129509523D01*
X84180385Y-129414285D01*
X84228004Y-129223809D01*
X84228004Y-129080952D01*
X84180385Y-128890476D01*
X84132766Y-128795238D01*
X84037528Y-128700000D01*
X83894671Y-128652380D01*
X83799433Y-128652380D01*
X83656576Y-128700000D01*
X83608957Y-128747619D01*
X82656576Y-129652380D02*
X83228004Y-129652380D01*
X82942290Y-129652380D02*
X82942290Y-128652380D01*
X83037528Y-128795238D01*
X83132766Y-128890476D01*
X83228004Y-128938095D01*
X81751814Y-128652380D02*
X82228004Y-128652380D01*
X82275623Y-129128571D01*
X82228004Y-129080952D01*
X82132766Y-129033333D01*
X81894671Y-129033333D01*
X81799433Y-129080952D01*
X81751814Y-129128571D01*
X81704195Y-129223809D01*
X81704195Y-129461904D01*
X81751814Y-129557142D01*
X81799433Y-129604761D01*
X81894671Y-129652380D01*
X82132766Y-129652380D01*
X82228004Y-129604761D01*
X82275623Y-129557142D01*
X82183333Y-139852380D02*
X82183333Y-140566666D01*
X82230952Y-140709523D01*
X82326190Y-140804761D01*
X82469047Y-140852380D01*
X82564285Y-140852380D01*
X81183333Y-140852380D02*
X81754761Y-140852380D01*
X81469047Y-140852380D02*
X81469047Y-139852380D01*
X81564285Y-139995238D01*
X81659523Y-140090476D01*
X81754761Y-140138095D01*
X86816666Y-111652380D02*
X87150000Y-111176190D01*
X87388095Y-111652380D02*
X87388095Y-110652380D01*
X87007142Y-110652380D01*
X86911904Y-110700000D01*
X86864285Y-110747619D01*
X86816666Y-110842857D01*
X86816666Y-110985714D01*
X86864285Y-111080952D01*
X86911904Y-111128571D01*
X87007142Y-111176190D01*
X87388095Y-111176190D01*
X85864285Y-111652380D02*
X86435714Y-111652380D01*
X86150000Y-111652380D02*
X86150000Y-110652380D01*
X86245238Y-110795238D01*
X86340476Y-110890476D01*
X86435714Y-110938095D01*
X76385214Y-113309112D02*
X76284199Y-112736692D01*
X76789275Y-112905051D02*
X76082169Y-112197944D01*
X75812794Y-112467318D01*
X75779123Y-112568333D01*
X75779123Y-112635677D01*
X75812794Y-112736692D01*
X75913810Y-112837707D01*
X76014825Y-112871379D01*
X76082169Y-112871379D01*
X76183184Y-112837707D01*
X76452558Y-112568333D01*
X75476077Y-112938723D02*
X75408733Y-112938723D01*
X75307718Y-112972394D01*
X75139359Y-113140753D01*
X75105688Y-113241769D01*
X75105688Y-113309112D01*
X75139359Y-113410127D01*
X75206703Y-113477471D01*
X75341390Y-113544814D01*
X76149512Y-113544814D01*
X75711779Y-113982547D01*
X79035650Y-114999948D02*
X78934635Y-114427528D01*
X79439711Y-114595887D02*
X78732605Y-113888780D01*
X78463230Y-114158154D01*
X78429559Y-114259169D01*
X78429559Y-114326513D01*
X78463230Y-114427528D01*
X78564246Y-114528543D01*
X78665261Y-114562215D01*
X78732605Y-114562215D01*
X78833620Y-114528543D01*
X79102994Y-114259169D01*
X78092841Y-114528543D02*
X77655108Y-114966276D01*
X78160185Y-114999948D01*
X78059169Y-115100963D01*
X78025498Y-115201979D01*
X78025498Y-115269322D01*
X78059169Y-115370337D01*
X78227528Y-115538696D01*
X78328543Y-115572368D01*
X78395887Y-115572368D01*
X78496902Y-115538696D01*
X78698933Y-115336666D01*
X78732605Y-115235650D01*
X78732605Y-115168307D01*
X120816666Y-127102380D02*
X121150000Y-126626190D01*
X121388095Y-127102380D02*
X121388095Y-126102380D01*
X121007142Y-126102380D01*
X120911904Y-126150000D01*
X120864285Y-126197619D01*
X120816666Y-126292857D01*
X120816666Y-126435714D01*
X120864285Y-126530952D01*
X120911904Y-126578571D01*
X121007142Y-126626190D01*
X121388095Y-126626190D01*
X119959523Y-126435714D02*
X119959523Y-127102380D01*
X120197619Y-126054761D02*
X120435714Y-126769047D01*
X119816666Y-126769047D01*
X120816666Y-124902380D02*
X121150000Y-124426190D01*
X121388095Y-124902380D02*
X121388095Y-123902380D01*
X121007142Y-123902380D01*
X120911904Y-123950000D01*
X120864285Y-123997619D01*
X120816666Y-124092857D01*
X120816666Y-124235714D01*
X120864285Y-124330952D01*
X120911904Y-124378571D01*
X121007142Y-124426190D01*
X121388095Y-124426190D01*
X119911904Y-123902380D02*
X120388095Y-123902380D01*
X120435714Y-124378571D01*
X120388095Y-124330952D01*
X120292857Y-124283333D01*
X120054761Y-124283333D01*
X119959523Y-124330952D01*
X119911904Y-124378571D01*
X119864285Y-124473809D01*
X119864285Y-124711904D01*
X119911904Y-124807142D01*
X119959523Y-124854761D01*
X120054761Y-124902380D01*
X120292857Y-124902380D01*
X120388095Y-124854761D01*
X120435714Y-124807142D01*
X113266666Y-102402380D02*
X113600000Y-101926190D01*
X113838095Y-102402380D02*
X113838095Y-101402380D01*
X113457142Y-101402380D01*
X113361904Y-101450000D01*
X113314285Y-101497619D01*
X113266666Y-101592857D01*
X113266666Y-101735714D01*
X113314285Y-101830952D01*
X113361904Y-101878571D01*
X113457142Y-101926190D01*
X113838095Y-101926190D01*
X112409523Y-101402380D02*
X112600000Y-101402380D01*
X112695238Y-101450000D01*
X112742857Y-101497619D01*
X112838095Y-101640476D01*
X112885714Y-101830952D01*
X112885714Y-102211904D01*
X112838095Y-102307142D01*
X112790476Y-102354761D01*
X112695238Y-102402380D01*
X112504761Y-102402380D01*
X112409523Y-102354761D01*
X112361904Y-102307142D01*
X112314285Y-102211904D01*
X112314285Y-101973809D01*
X112361904Y-101878571D01*
X112409523Y-101830952D01*
X112504761Y-101783333D01*
X112695238Y-101783333D01*
X112790476Y-101830952D01*
X112838095Y-101878571D01*
X112885714Y-101973809D01*
X76547969Y-131637732D02*
X77120389Y-131536717D01*
X76952030Y-132041793D02*
X77659137Y-131334687D01*
X77389763Y-131065312D01*
X77288748Y-131031641D01*
X77221404Y-131031641D01*
X77120389Y-131065312D01*
X77019374Y-131166328D01*
X76985702Y-131267343D01*
X76985702Y-131334687D01*
X77019374Y-131435702D01*
X77288748Y-131705076D01*
X77019374Y-130694923D02*
X76547969Y-130223519D01*
X76143908Y-131233671D01*
X119066666Y-102352380D02*
X119400000Y-101876190D01*
X119638095Y-102352380D02*
X119638095Y-101352380D01*
X119257142Y-101352380D01*
X119161904Y-101400000D01*
X119114285Y-101447619D01*
X119066666Y-101542857D01*
X119066666Y-101685714D01*
X119114285Y-101780952D01*
X119161904Y-101828571D01*
X119257142Y-101876190D01*
X119638095Y-101876190D01*
X118495238Y-101780952D02*
X118590476Y-101733333D01*
X118638095Y-101685714D01*
X118685714Y-101590476D01*
X118685714Y-101542857D01*
X118638095Y-101447619D01*
X118590476Y-101400000D01*
X118495238Y-101352380D01*
X118304761Y-101352380D01*
X118209523Y-101400000D01*
X118161904Y-101447619D01*
X118114285Y-101542857D01*
X118114285Y-101590476D01*
X118161904Y-101685714D01*
X118209523Y-101733333D01*
X118304761Y-101780952D01*
X118495238Y-101780952D01*
X118590476Y-101828571D01*
X118638095Y-101876190D01*
X118685714Y-101971428D01*
X118685714Y-102161904D01*
X118638095Y-102257142D01*
X118590476Y-102304761D01*
X118495238Y-102352380D01*
X118304761Y-102352380D01*
X118209523Y-102304761D01*
X118161904Y-102257142D01*
X118114285Y-102161904D01*
X118114285Y-101971428D01*
X118161904Y-101876190D01*
X118209523Y-101828571D01*
X118304761Y-101780952D01*
X76174449Y-127215312D02*
X76073434Y-126642893D01*
X76578510Y-126811251D02*
X75871403Y-126104145D01*
X75602029Y-126373519D01*
X75568357Y-126474534D01*
X75568357Y-126541877D01*
X75602029Y-126642893D01*
X75703044Y-126743908D01*
X75804060Y-126777580D01*
X75871403Y-126777580D01*
X75972418Y-126743908D01*
X76241792Y-126474534D01*
X75501014Y-127888748D02*
X75905075Y-127484687D01*
X75703044Y-127686717D02*
X74995937Y-126979610D01*
X75164296Y-127013282D01*
X75298983Y-127013282D01*
X75399999Y-126979610D01*
X74356174Y-127619374D02*
X74288831Y-127686717D01*
X74255159Y-127787732D01*
X74255159Y-127855076D01*
X74288831Y-127956091D01*
X74389846Y-128124450D01*
X74558205Y-128292809D01*
X74726563Y-128393824D01*
X74827579Y-128427496D01*
X74894922Y-128427496D01*
X74995937Y-128393824D01*
X75063281Y-128326480D01*
X75096953Y-128225465D01*
X75096953Y-128158122D01*
X75063281Y-128057106D01*
X74962266Y-127888748D01*
X74793907Y-127720389D01*
X74625548Y-127619374D01*
X74524533Y-127585702D01*
X74457189Y-127585702D01*
X74356174Y-127619374D01*
X82274450Y-126715312D02*
X82173435Y-126142893D01*
X82678511Y-126311251D02*
X81971404Y-125604145D01*
X81702030Y-125873519D01*
X81668358Y-125974534D01*
X81668358Y-126041877D01*
X81702030Y-126142893D01*
X81803045Y-126243908D01*
X81904061Y-126277580D01*
X81971404Y-126277580D01*
X82072419Y-126243908D01*
X82341793Y-125974534D01*
X81601015Y-127388748D02*
X82005076Y-126984687D01*
X81803045Y-127186717D02*
X81095938Y-126479610D01*
X81264297Y-126513282D01*
X81398984Y-126513282D01*
X81500000Y-126479610D01*
X80927580Y-128062183D02*
X81331641Y-127658122D01*
X81129610Y-127860152D02*
X80422503Y-127153045D01*
X80590862Y-127186717D01*
X80725549Y-127186717D01*
X80826564Y-127153045D01*
X93092857Y-125502380D02*
X93426190Y-125026190D01*
X93664285Y-125502380D02*
X93664285Y-124502380D01*
X93283333Y-124502380D01*
X93188095Y-124550000D01*
X93140476Y-124597619D01*
X93092857Y-124692857D01*
X93092857Y-124835714D01*
X93140476Y-124930952D01*
X93188095Y-124978571D01*
X93283333Y-125026190D01*
X93664285Y-125026190D01*
X92140476Y-125502380D02*
X92711904Y-125502380D01*
X92426190Y-125502380D02*
X92426190Y-124502380D01*
X92521428Y-124645238D01*
X92616666Y-124740476D01*
X92711904Y-124788095D01*
X91759523Y-124597619D02*
X91711904Y-124550000D01*
X91616666Y-124502380D01*
X91378571Y-124502380D01*
X91283333Y-124550000D01*
X91235714Y-124597619D01*
X91188095Y-124692857D01*
X91188095Y-124788095D01*
X91235714Y-124930952D01*
X91807142Y-125502380D01*
X91188095Y-125502380D01*
X125242857Y-102402380D02*
X125576190Y-101926190D01*
X125814285Y-102402380D02*
X125814285Y-101402380D01*
X125433333Y-101402380D01*
X125338095Y-101450000D01*
X125290476Y-101497619D01*
X125242857Y-101592857D01*
X125242857Y-101735714D01*
X125290476Y-101830952D01*
X125338095Y-101878571D01*
X125433333Y-101926190D01*
X125814285Y-101926190D01*
X124290476Y-102402380D02*
X124861904Y-102402380D01*
X124576190Y-102402380D02*
X124576190Y-101402380D01*
X124671428Y-101545238D01*
X124766666Y-101640476D01*
X124861904Y-101688095D01*
X123957142Y-101402380D02*
X123338095Y-101402380D01*
X123671428Y-101783333D01*
X123528571Y-101783333D01*
X123433333Y-101830952D01*
X123385714Y-101878571D01*
X123338095Y-101973809D01*
X123338095Y-102211904D01*
X123385714Y-102307142D01*
X123433333Y-102354761D01*
X123528571Y-102402380D01*
X123814285Y-102402380D01*
X123909523Y-102354761D01*
X123957142Y-102307142D01*
D13*
X103901969Y-106450146D02*
X103901969Y-107780364D01*
X103823721Y-107936860D01*
X103745473Y-108015108D01*
X103588977Y-108093356D01*
X103275984Y-108093356D01*
X103119488Y-108015108D01*
X103041240Y-107936860D01*
X102962992Y-107780364D01*
X102962992Y-106450146D01*
X102258759Y-106606643D02*
X102180511Y-106528395D01*
X102024015Y-106450146D01*
X101632774Y-106450146D01*
X101476278Y-106528395D01*
X101398030Y-106606643D01*
X101319782Y-106763139D01*
X101319782Y-106919635D01*
X101398030Y-107154379D01*
X102337007Y-108093356D01*
X101319782Y-108093356D01*
D12*
X127392380Y-123754095D02*
X128201904Y-123754095D01*
X128297142Y-123801714D01*
X128344761Y-123849333D01*
X128392380Y-123944571D01*
X128392380Y-124135047D01*
X128344761Y-124230285D01*
X128297142Y-124277904D01*
X128201904Y-124325523D01*
X127392380Y-124325523D01*
X127392380Y-124706476D02*
X127392380Y-125325523D01*
X127773333Y-124992190D01*
X127773333Y-125135047D01*
X127820952Y-125230285D01*
X127868571Y-125277904D01*
X127963809Y-125325523D01*
X128201904Y-125325523D01*
X128297142Y-125277904D01*
X128344761Y-125230285D01*
X128392380Y-125135047D01*
X128392380Y-124849333D01*
X128344761Y-124754095D01*
X128297142Y-124706476D01*
M02*
