G04 #@! TF.GenerationSoftware,KiCad,Pcbnew,5.1.4*
G04 #@! TF.CreationDate,2019-11-07T13:03:23-05:00*
G04 #@! TF.ProjectId,rustypill,72757374-7970-4696-9c6c-2e6b69636164,rev?*
G04 #@! TF.SameCoordinates,Original*
G04 #@! TF.FileFunction,Paste,Bot*
G04 #@! TF.FilePolarity,Positive*
%FSLAX46Y46*%
G04 Gerber Fmt 4.6, Leading zero omitted, Abs format (unit mm)*
G04 Created by KiCad (PCBNEW 5.1.4) date 2019-11-07 13:03:23*
%MOMM*%
%LPD*%
G04 APERTURE LIST*
%ADD10R,1.250000X1.500000*%
%ADD11R,1.500000X1.250000*%
%ADD12C,1.250000*%
%ADD13C,0.100000*%
%ADD14R,1.500000X1.900000*%
%ADD15R,0.400000X1.350000*%
%ADD16R,1.500000X1.300000*%
%ADD17C,1.300000*%
%ADD18R,0.558800X1.981200*%
%ADD19R,1.000000X2.500000*%
%ADD20R,1.800000X1.000000*%
G04 APERTURE END LIST*
D10*
X103850000Y-117400000D03*
X103850000Y-114900000D03*
X91000000Y-122150000D03*
X91000000Y-119650000D03*
D11*
X99350000Y-119500000D03*
X101850000Y-119500000D03*
D10*
X79100000Y-107700000D03*
X79100000Y-105200000D03*
D12*
X83816117Y-121333883D03*
D13*
G36*
X83727729Y-122306155D02*
G01*
X82843845Y-121422271D01*
X83904505Y-120361611D01*
X84788389Y-121245495D01*
X83727729Y-122306155D01*
X83727729Y-122306155D01*
G37*
D12*
X85583883Y-119566117D03*
D13*
G36*
X85495495Y-120538389D02*
G01*
X84611611Y-119654505D01*
X85672271Y-118593845D01*
X86556155Y-119477729D01*
X85495495Y-120538389D01*
X85495495Y-120538389D01*
G37*
D12*
X87667783Y-121382117D03*
D13*
G36*
X87579395Y-122354389D02*
G01*
X86695511Y-121470505D01*
X87756171Y-120409845D01*
X88640055Y-121293729D01*
X87579395Y-122354389D01*
X87579395Y-122354389D01*
G37*
D12*
X85900017Y-123149883D03*
D13*
G36*
X85811629Y-124122155D02*
G01*
X84927745Y-123238271D01*
X85988405Y-122177611D01*
X86872289Y-123061495D01*
X85811629Y-124122155D01*
X85811629Y-124122155D01*
G37*
D12*
X75100017Y-120400117D03*
D13*
G36*
X74127745Y-120311729D02*
G01*
X75011629Y-119427845D01*
X76072289Y-120488505D01*
X75188405Y-121372389D01*
X74127745Y-120311729D01*
X74127745Y-120311729D01*
G37*
D12*
X76867783Y-122167883D03*
D13*
G36*
X75895511Y-122079495D02*
G01*
X76779395Y-121195611D01*
X77840055Y-122256271D01*
X76956171Y-123140155D01*
X75895511Y-122079495D01*
X75895511Y-122079495D01*
G37*
D12*
X75283883Y-123733883D03*
D13*
G36*
X74311611Y-123645495D02*
G01*
X75195495Y-122761611D01*
X76256155Y-123822271D01*
X75372271Y-124706155D01*
X74311611Y-123645495D01*
X74311611Y-123645495D01*
G37*
D12*
X73516117Y-121966117D03*
D13*
G36*
X72543845Y-121877729D02*
G01*
X73427729Y-120993845D01*
X74488389Y-122054505D01*
X73604505Y-122938389D01*
X72543845Y-121877729D01*
X72543845Y-121877729D01*
G37*
D10*
X118200000Y-132000000D03*
X118200000Y-129500000D03*
X99000000Y-107500000D03*
X99000000Y-110000000D03*
X112200000Y-124300000D03*
X112200000Y-126800000D03*
X94400000Y-119650000D03*
X94400000Y-122150000D03*
D11*
X84216100Y-130866000D03*
X81716100Y-130866000D03*
D14*
X80950000Y-138550000D03*
D15*
X82600000Y-135850000D03*
X83250000Y-135850000D03*
X80650000Y-135850000D03*
X81300000Y-135850000D03*
X81950000Y-135850000D03*
D14*
X82950000Y-138550000D03*
D16*
X85300000Y-109500000D03*
X88000000Y-109500000D03*
D17*
X75699994Y-110950406D03*
D13*
G36*
X75629283Y-111940355D02*
G01*
X74710045Y-111021117D01*
X75770705Y-109960457D01*
X76689943Y-110879695D01*
X75629283Y-111940355D01*
X75629283Y-111940355D01*
G37*
D17*
X73790806Y-112859594D03*
D13*
G36*
X73720095Y-113849543D02*
G01*
X72800857Y-112930305D01*
X73861517Y-111869645D01*
X74780755Y-112788883D01*
X73720095Y-113849543D01*
X73720095Y-113849543D01*
G37*
D17*
X78845406Y-116954594D03*
D13*
G36*
X78916117Y-115964645D02*
G01*
X79835355Y-116883883D01*
X78774695Y-117944543D01*
X77855457Y-117025305D01*
X78916117Y-115964645D01*
X78916117Y-115964645D01*
G37*
D17*
X80754594Y-115045406D03*
D13*
G36*
X80825305Y-114055457D02*
G01*
X81744543Y-114974695D01*
X80683883Y-116035355D01*
X79764645Y-115116117D01*
X80825305Y-114055457D01*
X80825305Y-114055457D01*
G37*
D16*
X118400000Y-126650000D03*
X115700000Y-126650000D03*
X115700000Y-124450000D03*
X118400000Y-124450000D03*
X114450000Y-103650000D03*
X111750000Y-103650000D03*
D17*
X76995406Y-128945406D03*
D13*
G36*
X77985355Y-129016117D02*
G01*
X77066117Y-129935355D01*
X76005457Y-128874695D01*
X76924695Y-127955457D01*
X77985355Y-129016117D01*
X77985355Y-129016117D01*
G37*
D17*
X78904594Y-130854594D03*
D13*
G36*
X79894543Y-130925305D02*
G01*
X78975305Y-131844543D01*
X77914645Y-130783883D01*
X78833883Y-129864645D01*
X79894543Y-130925305D01*
X79894543Y-130925305D01*
G37*
D16*
X120250000Y-103650000D03*
X117550000Y-103650000D03*
D17*
X78954594Y-123595406D03*
D13*
G36*
X78883883Y-124585355D02*
G01*
X77964645Y-123666117D01*
X79025305Y-122605457D01*
X79944543Y-123524695D01*
X78883883Y-124585355D01*
X78883883Y-124585355D01*
G37*
D17*
X77045406Y-125504594D03*
D13*
G36*
X76974695Y-126494543D02*
G01*
X76055457Y-125575305D01*
X77116117Y-124514645D01*
X78035355Y-125433883D01*
X76974695Y-126494543D01*
X76974695Y-126494543D01*
G37*
D17*
X78745406Y-127254594D03*
D13*
G36*
X78674695Y-128244543D02*
G01*
X77755457Y-127325305D01*
X78816117Y-126264645D01*
X79735355Y-127183883D01*
X78674695Y-128244543D01*
X78674695Y-128244543D01*
G37*
D17*
X80654594Y-125345406D03*
D13*
G36*
X80583883Y-126335355D02*
G01*
X79664645Y-125416117D01*
X80725305Y-124355457D01*
X81644543Y-125274695D01*
X80583883Y-126335355D01*
X80583883Y-126335355D01*
G37*
D16*
X94950000Y-125050000D03*
X97650000Y-125050000D03*
X123250000Y-103650000D03*
X125950000Y-103650000D03*
D18*
X100810000Y-109777800D03*
X102080000Y-109777800D03*
X103350000Y-109777800D03*
X104620000Y-109777800D03*
X104620000Y-104850200D03*
X103350000Y-104850200D03*
X102080000Y-104850200D03*
X100810000Y-104850200D03*
D19*
X126180000Y-121556000D03*
X124180000Y-121556000D03*
X122180000Y-121556000D03*
X120180000Y-121556000D03*
X118180000Y-121556000D03*
X116180000Y-121556000D03*
X114180000Y-121556000D03*
X112180000Y-121556000D03*
D20*
X110680000Y-118956000D03*
X110680000Y-116956000D03*
X110680000Y-114956000D03*
X110680000Y-112956000D03*
X110680000Y-110956000D03*
X110680000Y-108956000D03*
D19*
X112180000Y-106356000D03*
X114180000Y-106356000D03*
X116180000Y-106356000D03*
X118180000Y-106356000D03*
X120180000Y-106356000D03*
X122180000Y-106356000D03*
X124180000Y-106356000D03*
X126180000Y-106356000D03*
M02*
