G04 #@! TF.GenerationSoftware,KiCad,Pcbnew,5.1.4*
G04 #@! TF.CreationDate,2019-11-07T13:03:23-05:00*
G04 #@! TF.ProjectId,rustypill,72757374-7970-4696-9c6c-2e6b69636164,rev?*
G04 #@! TF.SameCoordinates,Original*
G04 #@! TF.FileFunction,Copper,L2,Bot*
G04 #@! TF.FilePolarity,Positive*
%FSLAX46Y46*%
G04 Gerber Fmt 4.6, Leading zero omitted, Abs format (unit mm)*
G04 Created by KiCad (PCBNEW 5.1.4) date 2019-11-07 13:03:23*
%MOMM*%
%LPD*%
G04 APERTURE LIST*
%ADD10C,2.290000*%
%ADD11R,1.250000X1.500000*%
%ADD12R,1.500000X1.250000*%
%ADD13C,1.250000*%
%ADD14C,0.100000*%
%ADD15R,1.500000X1.900000*%
%ADD16C,1.450000*%
%ADD17R,0.400000X1.350000*%
%ADD18O,1.200000X1.900000*%
%ADD19R,1.200000X1.900000*%
%ADD20O,1.700000X1.700000*%
%ADD21R,1.700000X1.700000*%
%ADD22R,1.727200X1.727200*%
%ADD23O,1.727200X1.727200*%
%ADD24R,1.500000X1.300000*%
%ADD25C,1.300000*%
%ADD26R,0.558800X1.981200*%
%ADD27R,1.000000X2.500000*%
%ADD28R,1.800000X1.000000*%
%ADD29C,0.800000*%
%ADD30C,0.250000*%
%ADD31C,0.254000*%
G04 APERTURE END LIST*
D10*
X109000000Y-129300000D03*
X109000000Y-106440000D03*
D11*
X103850000Y-117400000D03*
X103850000Y-114900000D03*
X91000000Y-122150000D03*
X91000000Y-119650000D03*
D12*
X99350000Y-119500000D03*
X101850000Y-119500000D03*
D11*
X79100000Y-107700000D03*
X79100000Y-105200000D03*
D13*
X83816117Y-121333883D03*
D14*
G36*
X83727729Y-122306155D02*
G01*
X82843845Y-121422271D01*
X83904505Y-120361611D01*
X84788389Y-121245495D01*
X83727729Y-122306155D01*
X83727729Y-122306155D01*
G37*
D13*
X85583883Y-119566117D03*
D14*
G36*
X85495495Y-120538389D02*
G01*
X84611611Y-119654505D01*
X85672271Y-118593845D01*
X86556155Y-119477729D01*
X85495495Y-120538389D01*
X85495495Y-120538389D01*
G37*
D13*
X87667783Y-121382117D03*
D14*
G36*
X87579395Y-122354389D02*
G01*
X86695511Y-121470505D01*
X87756171Y-120409845D01*
X88640055Y-121293729D01*
X87579395Y-122354389D01*
X87579395Y-122354389D01*
G37*
D13*
X85900017Y-123149883D03*
D14*
G36*
X85811629Y-124122155D02*
G01*
X84927745Y-123238271D01*
X85988405Y-122177611D01*
X86872289Y-123061495D01*
X85811629Y-124122155D01*
X85811629Y-124122155D01*
G37*
D13*
X75100017Y-120400117D03*
D14*
G36*
X74127745Y-120311729D02*
G01*
X75011629Y-119427845D01*
X76072289Y-120488505D01*
X75188405Y-121372389D01*
X74127745Y-120311729D01*
X74127745Y-120311729D01*
G37*
D13*
X76867783Y-122167883D03*
D14*
G36*
X75895511Y-122079495D02*
G01*
X76779395Y-121195611D01*
X77840055Y-122256271D01*
X76956171Y-123140155D01*
X75895511Y-122079495D01*
X75895511Y-122079495D01*
G37*
D13*
X75283883Y-123733883D03*
D14*
G36*
X74311611Y-123645495D02*
G01*
X75195495Y-122761611D01*
X76256155Y-123822271D01*
X75372271Y-124706155D01*
X74311611Y-123645495D01*
X74311611Y-123645495D01*
G37*
D13*
X73516117Y-121966117D03*
D14*
G36*
X72543845Y-121877729D02*
G01*
X73427729Y-120993845D01*
X74488389Y-122054505D01*
X73604505Y-122938389D01*
X72543845Y-121877729D01*
X72543845Y-121877729D01*
G37*
D11*
X118200000Y-132000000D03*
X118200000Y-129500000D03*
X99000000Y-107500000D03*
X99000000Y-110000000D03*
X112200000Y-124300000D03*
X112200000Y-126800000D03*
X94400000Y-119650000D03*
X94400000Y-122150000D03*
D12*
X84216100Y-130866000D03*
X81716100Y-130866000D03*
D15*
X80950000Y-138550000D03*
D16*
X84450000Y-135850000D03*
D17*
X82600000Y-135850000D03*
X83250000Y-135850000D03*
X80650000Y-135850000D03*
X81300000Y-135850000D03*
X81950000Y-135850000D03*
D16*
X79450000Y-135850000D03*
D15*
X82950000Y-138550000D03*
D18*
X85450000Y-138550000D03*
X78450000Y-138550000D03*
D19*
X79050000Y-138550000D03*
X84850000Y-138550000D03*
D20*
X84970000Y-95950000D03*
X82430000Y-95950000D03*
X79890000Y-95950000D03*
D21*
X77350000Y-95950000D03*
X127350000Y-135950000D03*
D20*
X124810000Y-135950000D03*
X122270000Y-135950000D03*
X119730000Y-135950000D03*
X117190000Y-135950000D03*
X114650000Y-135950000D03*
X112110000Y-135950000D03*
X109570000Y-135950000D03*
X107030000Y-135950000D03*
X104490000Y-135950000D03*
X101950000Y-135950000D03*
X99410000Y-135950000D03*
X96870000Y-135950000D03*
X94330000Y-135950000D03*
X91790000Y-135950000D03*
X89250000Y-135950000D03*
X89250000Y-99850000D03*
X91790000Y-99850000D03*
X94330000Y-99850000D03*
X96870000Y-99850000D03*
X99410000Y-99850000D03*
X101950000Y-99850000D03*
X104490000Y-99850000D03*
X107030000Y-99850000D03*
X109570000Y-99850000D03*
X112110000Y-99850000D03*
X114650000Y-99850000D03*
X117190000Y-99850000D03*
X119730000Y-99850000D03*
X122270000Y-99850000D03*
X124810000Y-99850000D03*
D21*
X127350000Y-99850000D03*
X127350000Y-95950000D03*
D20*
X124810000Y-95950000D03*
X122270000Y-95950000D03*
X119730000Y-95950000D03*
X117190000Y-95950000D03*
X114650000Y-95950000D03*
X112110000Y-95950000D03*
X109570000Y-95950000D03*
X107030000Y-95950000D03*
X104490000Y-95950000D03*
X101950000Y-95950000D03*
X99410000Y-95950000D03*
X96870000Y-95950000D03*
X94330000Y-95950000D03*
X91790000Y-95950000D03*
X89250000Y-95950000D03*
D22*
X87850000Y-130350000D03*
D23*
X87850000Y-127810000D03*
X90390000Y-130350000D03*
X90390000Y-127810000D03*
X92930000Y-130350000D03*
X92930000Y-127810000D03*
X95470000Y-130350000D03*
X95470000Y-127810000D03*
X98010000Y-130350000D03*
X98010000Y-127810000D03*
D24*
X85300000Y-109500000D03*
X88000000Y-109500000D03*
D25*
X75699994Y-110950406D03*
D14*
G36*
X75629283Y-111940355D02*
G01*
X74710045Y-111021117D01*
X75770705Y-109960457D01*
X76689943Y-110879695D01*
X75629283Y-111940355D01*
X75629283Y-111940355D01*
G37*
D25*
X73790806Y-112859594D03*
D14*
G36*
X73720095Y-113849543D02*
G01*
X72800857Y-112930305D01*
X73861517Y-111869645D01*
X74780755Y-112788883D01*
X73720095Y-113849543D01*
X73720095Y-113849543D01*
G37*
D25*
X78845406Y-116954594D03*
D14*
G36*
X78916117Y-115964645D02*
G01*
X79835355Y-116883883D01*
X78774695Y-117944543D01*
X77855457Y-117025305D01*
X78916117Y-115964645D01*
X78916117Y-115964645D01*
G37*
D25*
X80754594Y-115045406D03*
D14*
G36*
X80825305Y-114055457D02*
G01*
X81744543Y-114974695D01*
X80683883Y-116035355D01*
X79764645Y-115116117D01*
X80825305Y-114055457D01*
X80825305Y-114055457D01*
G37*
D24*
X118400000Y-126650000D03*
X115700000Y-126650000D03*
X115700000Y-124450000D03*
X118400000Y-124450000D03*
X114450000Y-103650000D03*
X111750000Y-103650000D03*
D25*
X76995406Y-128945406D03*
D14*
G36*
X77985355Y-129016117D02*
G01*
X77066117Y-129935355D01*
X76005457Y-128874695D01*
X76924695Y-127955457D01*
X77985355Y-129016117D01*
X77985355Y-129016117D01*
G37*
D25*
X78904594Y-130854594D03*
D14*
G36*
X79894543Y-130925305D02*
G01*
X78975305Y-131844543D01*
X77914645Y-130783883D01*
X78833883Y-129864645D01*
X79894543Y-130925305D01*
X79894543Y-130925305D01*
G37*
D24*
X120250000Y-103650000D03*
X117550000Y-103650000D03*
D25*
X78954594Y-123595406D03*
D14*
G36*
X78883883Y-124585355D02*
G01*
X77964645Y-123666117D01*
X79025305Y-122605457D01*
X79944543Y-123524695D01*
X78883883Y-124585355D01*
X78883883Y-124585355D01*
G37*
D25*
X77045406Y-125504594D03*
D14*
G36*
X76974695Y-126494543D02*
G01*
X76055457Y-125575305D01*
X77116117Y-124514645D01*
X78035355Y-125433883D01*
X76974695Y-126494543D01*
X76974695Y-126494543D01*
G37*
D25*
X78745406Y-127254594D03*
D14*
G36*
X78674695Y-128244543D02*
G01*
X77755457Y-127325305D01*
X78816117Y-126264645D01*
X79735355Y-127183883D01*
X78674695Y-128244543D01*
X78674695Y-128244543D01*
G37*
D25*
X80654594Y-125345406D03*
D14*
G36*
X80583883Y-126335355D02*
G01*
X79664645Y-125416117D01*
X80725305Y-124355457D01*
X81644543Y-125274695D01*
X80583883Y-126335355D01*
X80583883Y-126335355D01*
G37*
D24*
X94950000Y-125050000D03*
X97650000Y-125050000D03*
X123250000Y-103650000D03*
X125950000Y-103650000D03*
D26*
X100810000Y-109777800D03*
X102080000Y-109777800D03*
X103350000Y-109777800D03*
X104620000Y-109777800D03*
X104620000Y-104850200D03*
X103350000Y-104850200D03*
X102080000Y-104850200D03*
X100810000Y-104850200D03*
D27*
X126180000Y-121556000D03*
X124180000Y-121556000D03*
X122180000Y-121556000D03*
X120180000Y-121556000D03*
X118180000Y-121556000D03*
X116180000Y-121556000D03*
X114180000Y-121556000D03*
X112180000Y-121556000D03*
D28*
X110680000Y-118956000D03*
X110680000Y-116956000D03*
X110680000Y-114956000D03*
X110680000Y-112956000D03*
X110680000Y-110956000D03*
X110680000Y-108956000D03*
D27*
X112180000Y-106356000D03*
X114180000Y-106356000D03*
X116180000Y-106356000D03*
X118180000Y-106356000D03*
X120180000Y-106356000D03*
X122180000Y-106356000D03*
X124180000Y-106356000D03*
X126180000Y-106356000D03*
D29*
X115692400Y-130390700D03*
X82928000Y-122401000D03*
X74417700Y-115890200D03*
X102050400Y-111381500D03*
X127234300Y-113059600D03*
X110959700Y-127430900D03*
X97114600Y-108815500D03*
X96857600Y-113103600D03*
X72883600Y-107288000D03*
X76205000Y-115914000D03*
X91355000Y-114402400D03*
X93020200Y-112320200D03*
X107393900Y-120776000D03*
X99810800Y-120776000D03*
X96871500Y-114550000D03*
X120666300Y-129409700D03*
X82470800Y-115919100D03*
X83519500Y-108124600D03*
X81990600Y-114341900D03*
X89644200Y-106950000D03*
X79834900Y-121137600D03*
X76344838Y-98654240D03*
X82750300Y-116975000D03*
X94447200Y-108188600D03*
X115420300Y-93979300D03*
X83945900Y-109747800D03*
X106897300Y-103803300D03*
X99589000Y-125398100D03*
X102103800Y-132025100D03*
X115688100Y-128395800D03*
X80581900Y-123488900D03*
X82586000Y-125952100D03*
X106067700Y-132351100D03*
X117188600Y-119948000D03*
X76951800Y-131025200D03*
X83897700Y-100474400D03*
X82557900Y-100121200D03*
X124404900Y-124493400D03*
X97182900Y-107576000D03*
X84711100Y-112322700D03*
X113671100Y-113673300D03*
X117081100Y-116322400D03*
X112202800Y-115701600D03*
X121173900Y-125907100D03*
X113671100Y-116703900D03*
X78298600Y-114712900D03*
X114377900Y-119187400D03*
X113529700Y-123626100D03*
X101582000Y-122915100D03*
X89191700Y-121945700D03*
X82890200Y-111071400D03*
X81592000Y-127740200D03*
X80087000Y-118657900D03*
X82290200Y-109055500D03*
X77909800Y-110157700D03*
X74813926Y-100870626D03*
X130015300Y-125054400D03*
X73037000Y-105243500D03*
X79108900Y-112948100D03*
X80336100Y-107578900D03*
X107802100Y-97236700D03*
X126114400Y-108565500D03*
X101794300Y-102623000D03*
X95952200Y-119287100D03*
X90739200Y-116775400D03*
X93374000Y-125576000D03*
X107385700Y-118344100D03*
X92363800Y-118807700D03*
X108087000Y-117630600D03*
X89354700Y-119284000D03*
X120463500Y-101189700D03*
X113199700Y-115235500D03*
X112337300Y-131168700D03*
D30*
X109000000Y-129300000D02*
X114601700Y-129300000D01*
X114601700Y-129300000D02*
X115692400Y-130390700D01*
X81590100Y-129489700D02*
X86341300Y-124738500D01*
X86341300Y-124738500D02*
X86341300Y-123591100D01*
X73684100Y-121798100D02*
X73684100Y-123718700D01*
X73684100Y-123718700D02*
X78723600Y-128758200D01*
X78723600Y-128758200D02*
X80858600Y-128758200D01*
X80858600Y-128758200D02*
X81590100Y-129489700D01*
X81590100Y-129489700D02*
X81590100Y-129789700D01*
X81590100Y-129789700D02*
X81716100Y-129915700D01*
X86341300Y-123591100D02*
X86572000Y-123821800D01*
X85900000Y-123149900D02*
X86341300Y-123591100D01*
X90093800Y-122150000D02*
X89093900Y-123149900D01*
X89093900Y-123149900D02*
X87243900Y-123149900D01*
X87243900Y-123149900D02*
X86572000Y-123821800D01*
X88000000Y-110475300D02*
X88000000Y-119463400D01*
X88000000Y-119463400D02*
X90093800Y-121557200D01*
X90093800Y-121557200D02*
X90093800Y-122150000D01*
X81716100Y-130866000D02*
X81716100Y-129915700D01*
X73684100Y-121798100D02*
X73852100Y-121630100D01*
X73516100Y-121966100D02*
X73684100Y-121798100D01*
X84488100Y-122005800D02*
X84755900Y-122005800D01*
X84755900Y-122005800D02*
X85900000Y-123149900D01*
X83055800Y-122094200D02*
X83055800Y-122094300D01*
X83055800Y-122094300D02*
X83055800Y-122273200D01*
X83055800Y-122273200D02*
X82928000Y-122401000D01*
X83816100Y-121333900D02*
X83055800Y-122094200D01*
X83816100Y-121333900D02*
X84488100Y-122005800D01*
X89075300Y-109500000D02*
X89468500Y-109893200D01*
X89468500Y-109893200D02*
X96036900Y-109893200D01*
X96036900Y-109893200D02*
X97114600Y-108815500D01*
X97114600Y-108815500D02*
X98049700Y-107880400D01*
X98049700Y-107880400D02*
X98049700Y-107500000D01*
X127234300Y-113059600D02*
X127461700Y-113287000D01*
X127461700Y-113287000D02*
X127461700Y-123736200D01*
X127461700Y-123736200D02*
X119197900Y-132000000D01*
X119197900Y-132000000D02*
X119150300Y-132000000D01*
X113150300Y-126800000D02*
X113150300Y-126959200D01*
X113150300Y-126959200D02*
X115558600Y-129367500D01*
X115558600Y-129367500D02*
X115717800Y-129367500D01*
X115717800Y-129367500D02*
X117249700Y-130899400D01*
X117249700Y-130899400D02*
X117249700Y-132000000D01*
X75100000Y-120400100D02*
X74339700Y-119639700D01*
X74417700Y-115890200D02*
X74417700Y-119561700D01*
X74417700Y-119561700D02*
X74339700Y-119639700D01*
X73852100Y-121630100D02*
X73870000Y-121630100D01*
X73870000Y-121630100D02*
X74428100Y-121072000D01*
X75100000Y-120400100D02*
X74428100Y-121072000D01*
X76000700Y-97541100D02*
X76000700Y-95125200D01*
X76000700Y-95125200D02*
X76801600Y-94324300D01*
X76801600Y-94324300D02*
X89294800Y-94324300D01*
X89294800Y-94324300D02*
X90463700Y-95493200D01*
X90463700Y-95493200D02*
X90463700Y-96409200D01*
X90463700Y-96409200D02*
X89714000Y-97158900D01*
X89714000Y-97158900D02*
X87354200Y-97158900D01*
X87354200Y-97158900D02*
X86145300Y-95950000D01*
X91000000Y-122150000D02*
X90093800Y-122150000D01*
X102080000Y-111356000D02*
X102148600Y-111356000D01*
X102148600Y-111356000D02*
X104802800Y-114010200D01*
X104802800Y-114010200D02*
X104802800Y-115806500D01*
X104802800Y-115806500D02*
X104284600Y-116324700D01*
X104284600Y-116324700D02*
X103850000Y-116324700D01*
X81716100Y-130866000D02*
X81716100Y-131816300D01*
X81716100Y-131816300D02*
X84450000Y-134550200D01*
X84450000Y-134550200D02*
X84450000Y-135850000D01*
X84970000Y-95950000D02*
X86145300Y-95950000D01*
X99000000Y-107500000D02*
X99000000Y-106424700D01*
X100810000Y-105179100D02*
X99564400Y-106424700D01*
X99564400Y-106424700D02*
X99000000Y-106424700D01*
X100810000Y-105179100D02*
X100810000Y-105508100D01*
X100810000Y-104850200D02*
X100810000Y-105179100D01*
X99000000Y-107500000D02*
X98049700Y-107500000D01*
X100810000Y-105508100D02*
X102080000Y-105508100D01*
X102080000Y-105508100D02*
X103350000Y-105508100D01*
X102080000Y-104850200D02*
X102080000Y-105508100D01*
X79050000Y-138550000D02*
X79050000Y-137274700D01*
X79450000Y-135850000D02*
X79450000Y-136874700D01*
X79450000Y-136874700D02*
X79050000Y-137274700D01*
X79450000Y-135850000D02*
X80650000Y-135850000D01*
X104620000Y-104850200D02*
X104620000Y-106166100D01*
X103350000Y-105508100D02*
X104008000Y-106166100D01*
X104008000Y-106166100D02*
X104620000Y-106166100D01*
X103350000Y-104850200D02*
X103350000Y-105508100D01*
X102050400Y-111381500D02*
X102075900Y-111356000D01*
X102075900Y-111356000D02*
X102080000Y-111356000D01*
X102080000Y-111356000D02*
X102080000Y-111093700D01*
X102080000Y-109777800D02*
X102080000Y-111093700D01*
X88000000Y-109500000D02*
X89075300Y-109500000D01*
X98010000Y-127810000D02*
X98010000Y-126621100D01*
X96574600Y-122150000D02*
X94400000Y-122150000D01*
X101850000Y-120450300D02*
X100150300Y-122150000D01*
X100150300Y-122150000D02*
X96574600Y-122150000D01*
X98010000Y-126621100D02*
X97322100Y-126621100D01*
X97322100Y-126621100D02*
X96574600Y-125873600D01*
X96574600Y-125873600D02*
X96574600Y-122150000D01*
X101850000Y-119500000D02*
X101850000Y-120450300D01*
X101850000Y-119024800D02*
X101850000Y-119500000D01*
X127234300Y-113059600D02*
X127234300Y-105178100D01*
X127234300Y-105178100D02*
X126681500Y-104625300D01*
X126681500Y-104625300D02*
X125950000Y-104625300D01*
X125950000Y-103650000D02*
X125950000Y-104625300D01*
X118200000Y-132000000D02*
X119150300Y-132000000D01*
X117737600Y-132000000D02*
X118200000Y-132000000D01*
X112200000Y-126800000D02*
X111249700Y-126800000D01*
X110959700Y-127430900D02*
X111249700Y-127140900D01*
X111249700Y-127140900D02*
X111249700Y-126800000D01*
X103850000Y-117400000D02*
X103850000Y-116324700D01*
X88000000Y-109531200D02*
X88000000Y-109500000D01*
X88000000Y-109531200D02*
X88000000Y-110475300D01*
X117737600Y-132000000D02*
X117249700Y-132000000D01*
X101850000Y-119024800D02*
X101850000Y-118549700D01*
X112200000Y-126800000D02*
X113150300Y-126800000D01*
X109000000Y-106440000D02*
X111666000Y-106440000D01*
X111666000Y-106440000D02*
X111750000Y-106356000D01*
X111750000Y-106356000D02*
X111750000Y-104625300D01*
X111750000Y-103650000D02*
X111750000Y-104625300D01*
X127350000Y-97125300D02*
X126037100Y-98438200D01*
X126037100Y-98438200D02*
X126037100Y-102587600D01*
X126037100Y-102587600D02*
X125950000Y-102674700D01*
X82950000Y-138550000D02*
X81874700Y-138550000D01*
X80950000Y-137912300D02*
X81237000Y-137912300D01*
X81237000Y-137912300D02*
X81874700Y-138550000D01*
X80950000Y-137912300D02*
X80950000Y-137274700D01*
X80950000Y-138550000D02*
X80950000Y-137912300D01*
X80950000Y-137274700D02*
X80650000Y-136974700D01*
X80650000Y-136974700D02*
X80650000Y-136850300D01*
X80650000Y-135850000D02*
X80650000Y-136850300D01*
X125950000Y-103650000D02*
X125950000Y-102674700D01*
X127350000Y-95950000D02*
X127350000Y-97125300D01*
X103850000Y-117400000D02*
X102899700Y-117400000D01*
X101850000Y-118549700D02*
X102899700Y-117500000D01*
X102899700Y-117500000D02*
X102899700Y-117400000D01*
X79050000Y-138550000D02*
X78450000Y-138550000D01*
X82950000Y-138550000D02*
X84850000Y-138550000D01*
X84850000Y-138550000D02*
X85450000Y-138550000D01*
X74017701Y-115490201D02*
X74417700Y-115890200D01*
X76276957Y-97541100D02*
X79100000Y-100364143D01*
X79100000Y-100364143D02*
X79100000Y-104200000D01*
X76000700Y-97541100D02*
X76276957Y-97541100D01*
X71658900Y-102363920D02*
X71658900Y-113131400D01*
X71658900Y-113131400D02*
X74017701Y-115490201D01*
X75700022Y-98322800D02*
X71658900Y-102363920D01*
X75700022Y-97841778D02*
X75700022Y-98322800D01*
X76000700Y-97541100D02*
X75700022Y-97841778D01*
X79100000Y-104200000D02*
X79100000Y-105200000D01*
X111750000Y-106356000D02*
X112180000Y-106356000D01*
X91000000Y-119650000D02*
X91000000Y-118574700D01*
X96857600Y-113284900D02*
X101284600Y-113284900D01*
X101284600Y-113284900D02*
X102899700Y-114900000D01*
X91000000Y-118574700D02*
X91567800Y-118574700D01*
X91567800Y-118574700D02*
X96857600Y-113284900D01*
X96857600Y-113284900D02*
X96857600Y-113103600D01*
X103850000Y-114900000D02*
X102899700Y-114900000D01*
X77310600Y-117019600D02*
X78796700Y-118505700D01*
X78796700Y-118505700D02*
X78796700Y-119073300D01*
X78796700Y-119073300D02*
X80237700Y-120514300D01*
X80237700Y-120514300D02*
X80237700Y-120514400D01*
X80237700Y-120514400D02*
X80588200Y-120864900D01*
X80588200Y-120864900D02*
X80588200Y-121410100D01*
X80588200Y-121410100D02*
X80135400Y-121862900D01*
X80135400Y-121862900D02*
X79534500Y-121862900D01*
X79534500Y-121862900D02*
X79456400Y-121784800D01*
X79456400Y-121784800D02*
X77828600Y-121784800D01*
X77828600Y-121784800D02*
X77539800Y-121495900D01*
X77310600Y-117019600D02*
X76205000Y-115914000D01*
X79994200Y-115805800D02*
X79818500Y-115630100D01*
X79818500Y-115630100D02*
X78700100Y-115630100D01*
X78700100Y-115630100D02*
X77310600Y-117019600D01*
X80754600Y-115045400D02*
X79994200Y-115805800D01*
X76205000Y-115914000D02*
X76205000Y-115273800D01*
X76205000Y-115273800D02*
X73790800Y-112859600D01*
X76867800Y-122167900D02*
X77539800Y-121495900D01*
X77045400Y-125504600D02*
X76355700Y-124814900D01*
X75619900Y-123397900D02*
X76355700Y-124133700D01*
X76355700Y-124133700D02*
X76355700Y-124814900D01*
X75619900Y-123397900D02*
X75955900Y-123061900D01*
X75283900Y-123733900D02*
X75619900Y-123397900D01*
X77045400Y-125504600D02*
X77735100Y-126194300D01*
X76867800Y-122167900D02*
X75973700Y-123062000D01*
X75973700Y-123062000D02*
X75955900Y-123062000D01*
X75955900Y-123062000D02*
X75955900Y-123061900D01*
X114624700Y-124450000D02*
X114624700Y-125250500D01*
X114624700Y-125250500D02*
X115048900Y-125674700D01*
X115048900Y-125674700D02*
X115700000Y-125674700D01*
X115700000Y-126650000D02*
X115700000Y-125674700D01*
X113150300Y-124300000D02*
X113300300Y-124450000D01*
X113300300Y-124450000D02*
X114624700Y-124450000D01*
X72883600Y-107288000D02*
X72883600Y-111952400D01*
X72883600Y-111952400D02*
X73790800Y-112859600D01*
X78745400Y-127254600D02*
X77735100Y-126244300D01*
X77735100Y-126244300D02*
X77735100Y-126194300D01*
X96712100Y-117937400D02*
X96112600Y-117937400D01*
X96112600Y-117937400D02*
X94400000Y-119650000D01*
X93020200Y-112320200D02*
X93020200Y-112737200D01*
X93020200Y-112737200D02*
X91355000Y-114402400D01*
X98049700Y-110000000D02*
X95729500Y-112320200D01*
X95729500Y-112320200D02*
X93020200Y-112320200D01*
X99000000Y-110000000D02*
X98049700Y-110000000D01*
X93874700Y-125050000D02*
X92965400Y-124140700D01*
X92965400Y-124140700D02*
X92965400Y-120134300D01*
X92965400Y-120134300D02*
X93449700Y-119650000D01*
X96712100Y-117937400D02*
X98274700Y-119500000D01*
X96871500Y-114550000D02*
X96871500Y-117778000D01*
X96871500Y-117778000D02*
X96712100Y-117937400D01*
X99350000Y-119500000D02*
X98274700Y-119500000D01*
X99350000Y-119500000D02*
X99350000Y-120450300D01*
X112180000Y-121813000D02*
X108430900Y-121813000D01*
X108430900Y-121813000D02*
X107393900Y-120776000D01*
X99350000Y-120450300D02*
X99485100Y-120450300D01*
X99485100Y-120450300D02*
X99810800Y-120776000D01*
X112180000Y-121813000D02*
X112180000Y-123131300D01*
X112180000Y-121556000D02*
X112180000Y-121813000D01*
X118200000Y-128424700D02*
X117400600Y-127625300D01*
X117400600Y-127625300D02*
X115700000Y-127625300D01*
X118200000Y-128962300D02*
X120666300Y-128962300D01*
X120666300Y-128962300D02*
X120666300Y-129409700D01*
X118200000Y-128962300D02*
X118200000Y-128424700D01*
X118200000Y-129500000D02*
X118200000Y-128962300D01*
X94950000Y-125050000D02*
X93874700Y-125050000D01*
X94400000Y-119650000D02*
X93449700Y-119650000D01*
X112200000Y-124300000D02*
X113150300Y-124300000D01*
X115700000Y-124450000D02*
X114624700Y-124450000D01*
X115700000Y-126650000D02*
X115700000Y-127625300D01*
X112180000Y-123131300D02*
X112180000Y-123204700D01*
X112180000Y-123204700D02*
X112200000Y-123224700D01*
X112200000Y-124300000D02*
X112200000Y-123224700D01*
X99000000Y-110000000D02*
X99950300Y-110000000D01*
X100810000Y-109777800D02*
X100810000Y-111093700D01*
X99950300Y-110000000D02*
X99950300Y-110681700D01*
X99950300Y-110681700D02*
X100362300Y-111093700D01*
X100362300Y-111093700D02*
X100810000Y-111093700D01*
X120250000Y-104625300D02*
X120737700Y-104625300D01*
X127005400Y-113889400D02*
X127005400Y-123555600D01*
X121598700Y-128962300D02*
X120666300Y-128962300D01*
X121225300Y-108109300D02*
X127005400Y-113889400D01*
X127005400Y-123555600D02*
X121598700Y-128962300D01*
X120250000Y-103650000D02*
X120250000Y-104625300D01*
X121225300Y-105112900D02*
X121225300Y-108109300D01*
X120737700Y-104625300D02*
X121225300Y-105112900D01*
X82470800Y-115919100D02*
X82745800Y-115644100D01*
X82745800Y-115644100D02*
X82745800Y-114011500D01*
X82745800Y-114011500D02*
X82158700Y-113424400D01*
X82158700Y-113424400D02*
X82158700Y-110509100D01*
X82158700Y-110509100D02*
X83519500Y-109148300D01*
X83519500Y-109148300D02*
X83519500Y-108124600D01*
X89644200Y-106950000D02*
X89587900Y-106893700D01*
X89587900Y-106893700D02*
X83085600Y-106893700D01*
X83085600Y-106893700D02*
X81564900Y-108414400D01*
X81564900Y-108414400D02*
X81564900Y-113916200D01*
X81564900Y-113916200D02*
X81990600Y-114341900D01*
X73024100Y-104196800D02*
X72109300Y-105111600D01*
X72109300Y-105111600D02*
X72109300Y-112740900D01*
X72109300Y-112740900D02*
X74284800Y-114916400D01*
X74284800Y-114916400D02*
X74488700Y-114916400D01*
X74488700Y-114916400D02*
X75323300Y-115751000D01*
X75323300Y-115751000D02*
X75323300Y-116626000D01*
X75323300Y-116626000D02*
X79834900Y-121137600D01*
X73024100Y-104196800D02*
X75010300Y-106183000D01*
X75010300Y-106183000D02*
X75010300Y-110260700D01*
X76389700Y-111640100D02*
X77453200Y-111640100D01*
X77453200Y-111640100D02*
X79100000Y-109993300D01*
X79100000Y-109993300D02*
X79100000Y-108775300D01*
X75700000Y-110950400D02*
X75010300Y-110260700D01*
X79100000Y-107700000D02*
X79100000Y-108775300D01*
X75700000Y-110950400D02*
X76389700Y-111640100D01*
X73024100Y-101635130D02*
X75604991Y-99054239D01*
X73024100Y-104196800D02*
X73024100Y-101635130D01*
X75604991Y-99054239D02*
X75944839Y-99054239D01*
X75944839Y-99054239D02*
X76344838Y-98654240D01*
X78845400Y-116954600D02*
X79535100Y-117644300D01*
X79535100Y-117644300D02*
X80204400Y-116975000D01*
X80204400Y-116975000D02*
X82750300Y-116975000D01*
X85583900Y-119566100D02*
X82992800Y-116975000D01*
X82992800Y-116975000D02*
X82750300Y-116975000D01*
X86995900Y-120710100D02*
X86995800Y-120710200D01*
X86995800Y-120710200D02*
X86728000Y-120710200D01*
X86728000Y-120710200D02*
X86255900Y-120238000D01*
X85583900Y-119566100D02*
X86255900Y-120238000D01*
X87667800Y-121382100D02*
X86995900Y-120710100D01*
X86010900Y-131585500D02*
X85291400Y-130866000D01*
X91741100Y-130350000D02*
X91741100Y-130721500D01*
X91741100Y-130721500D02*
X90877100Y-131585500D01*
X90877100Y-131585500D02*
X86010900Y-131585500D01*
X86010900Y-131585500D02*
X86010900Y-135775800D01*
X86010900Y-135775800D02*
X84864900Y-136921800D01*
X84864900Y-136921800D02*
X83321500Y-136921800D01*
X83321500Y-136921800D02*
X83250000Y-136850300D01*
X83250000Y-135850000D02*
X83250000Y-136850300D01*
X84216100Y-130866000D02*
X85291400Y-130866000D01*
X92930000Y-130350000D02*
X91741100Y-130350000D01*
X100675100Y-94271200D02*
X100675100Y-101960700D01*
X100675100Y-101960700D02*
X94447200Y-108188600D01*
X100675100Y-94271200D02*
X100967000Y-93979300D01*
X100967000Y-93979300D02*
X115420300Y-93979300D01*
X78650100Y-129485600D02*
X78925600Y-129485600D01*
X74800000Y-94966300D02*
X74800000Y-97950000D01*
X99782900Y-93379000D02*
X76387300Y-93379000D01*
X100675100Y-94271200D02*
X99782900Y-93379000D01*
X77872900Y-130262800D02*
X78650100Y-129485600D01*
X76387300Y-93379000D02*
X74800000Y-94966300D01*
X74800000Y-97950000D02*
X70746600Y-102003400D01*
X76829100Y-130262800D02*
X77872900Y-130262800D01*
X70746600Y-124180300D02*
X76829100Y-130262800D01*
X78925600Y-129485600D02*
X80589600Y-131149600D01*
X80589600Y-131632500D02*
X83250000Y-134292900D01*
X83250000Y-134292900D02*
X83250000Y-135850000D01*
X80589600Y-131149600D02*
X80589600Y-131632500D01*
X70746600Y-102003400D02*
X70746600Y-124180300D01*
X84224700Y-109500000D02*
X84193700Y-109500000D01*
X84193700Y-109500000D02*
X83945900Y-109747800D01*
X85300000Y-109500000D02*
X84224700Y-109500000D01*
X107030000Y-101025300D02*
X106897300Y-101158000D01*
X106897300Y-101158000D02*
X106897300Y-103803300D01*
X98725300Y-125050000D02*
X99240900Y-125050000D01*
X99240900Y-125050000D02*
X99589000Y-125398100D01*
X107030000Y-99850000D02*
X107030000Y-101025300D01*
X97650000Y-125050000D02*
X98725300Y-125050000D01*
X105342400Y-132025100D02*
X102103800Y-132025100D01*
X104620000Y-111093700D02*
X105735500Y-112209200D01*
X105735500Y-112209200D02*
X105735500Y-131632000D01*
X105735500Y-131632000D02*
X105342400Y-132025100D01*
X105342400Y-132025100D02*
X105342400Y-132651500D01*
X105342400Y-132651500D02*
X105665300Y-132974400D01*
X105665300Y-132974400D02*
X105665300Y-135950000D01*
X80488500Y-125179300D02*
X80654600Y-125345400D01*
X104928900Y-135950000D02*
X104490000Y-135950000D01*
X104928900Y-135950000D02*
X105367700Y-135950000D01*
X80488500Y-125179300D02*
X79964900Y-124655700D01*
X79964900Y-124655700D02*
X80581900Y-124038700D01*
X80581900Y-124038700D02*
X80581900Y-123488900D01*
X105367700Y-135950000D02*
X106586600Y-137168900D01*
X106586600Y-137168900D02*
X107486400Y-137168900D01*
X107486400Y-137168900D02*
X108215800Y-136439500D01*
X108215800Y-136439500D02*
X108215800Y-132695700D01*
X108215800Y-132695700D02*
X107529600Y-132009500D01*
X107529600Y-132009500D02*
X107529600Y-128640000D01*
X107529600Y-128640000D02*
X110445000Y-125724600D01*
X110445000Y-125724600D02*
X112971300Y-125724600D01*
X112971300Y-125724600D02*
X114046600Y-126799900D01*
X114046600Y-126799900D02*
X114046600Y-126929700D01*
X114046600Y-126929700D02*
X115512700Y-128395800D01*
X115512700Y-128395800D02*
X115688100Y-128395800D01*
X105371500Y-135950000D02*
X105367700Y-135950000D01*
X105371500Y-135950000D02*
X105665300Y-135950000D01*
X104620000Y-109777800D02*
X104620000Y-111093700D01*
X82586000Y-125952100D02*
X82586000Y-127826400D01*
X82586000Y-127826400D02*
X81904100Y-128508300D01*
X81904100Y-128508300D02*
X81305100Y-128508300D01*
X81305100Y-128508300D02*
X80866600Y-128069800D01*
X80866600Y-128069800D02*
X80866600Y-127386700D01*
X80866600Y-127386700D02*
X79299400Y-125819500D01*
X79299400Y-125819500D02*
X79299400Y-124630000D01*
X79299400Y-124630000D02*
X79644300Y-124285100D01*
X78954600Y-123595400D02*
X79644300Y-124285100D01*
X106668600Y-132351100D02*
X106668600Y-134413300D01*
X106668600Y-134413300D02*
X107030000Y-134774700D01*
X107029800Y-119948000D02*
X106668600Y-120309200D01*
X106668600Y-120309200D02*
X106668600Y-132351100D01*
X106668600Y-132351100D02*
X106067700Y-132351100D01*
X107029800Y-119948000D02*
X106660300Y-119578500D01*
X106660300Y-119578500D02*
X106660300Y-110071900D01*
X106660300Y-110071900D02*
X105050200Y-108461800D01*
X105050200Y-108461800D02*
X104177900Y-108461800D01*
X104177900Y-108461800D02*
X103350000Y-109289700D01*
X103350000Y-109289700D02*
X103350000Y-109777800D01*
X107030000Y-135950000D02*
X107030000Y-134774700D01*
X107029800Y-119948000D02*
X117188600Y-119948000D01*
X81950000Y-135850000D02*
X81950000Y-134849700D01*
X81950000Y-134849700D02*
X80776300Y-134849700D01*
X80776300Y-134849700D02*
X76951800Y-131025200D01*
X79664900Y-131614900D02*
X79657800Y-131622000D01*
X79657800Y-131622000D02*
X80385800Y-132363300D01*
X80385800Y-132363300D02*
X80385700Y-132363400D01*
X80385700Y-132363400D02*
X80385700Y-132612300D01*
X80385700Y-132612300D02*
X81289800Y-133516400D01*
X81289800Y-133516400D02*
X82550000Y-134799700D01*
X82550000Y-134799700D02*
X82600000Y-134849700D01*
X78904600Y-130854600D02*
X79664900Y-131614900D01*
X82600000Y-135850000D02*
X82600000Y-134849700D01*
X83897700Y-100537900D02*
X83897700Y-100474400D01*
X93154700Y-99850000D02*
X93154700Y-100217300D01*
X93154700Y-100217300D02*
X92322900Y-101049100D01*
X92322900Y-101049100D02*
X84408900Y-101049100D01*
X84408900Y-101049100D02*
X83897700Y-100537900D01*
X79890000Y-97125300D02*
X79890000Y-98479000D01*
X79890000Y-98479000D02*
X82265300Y-100854300D01*
X82265300Y-100854300D02*
X83581300Y-100854300D01*
X83581300Y-100854300D02*
X83897700Y-100537900D01*
X94330000Y-99850000D02*
X93154700Y-99850000D01*
X79890000Y-95950000D02*
X79890000Y-97125300D01*
X83178600Y-98669100D02*
X82558000Y-99289700D01*
X82558000Y-99289700D02*
X82558000Y-100121200D01*
X82558000Y-100121200D02*
X82557900Y-100121200D01*
X82430000Y-97125300D02*
X82430000Y-97920500D01*
X82430000Y-97920500D02*
X83178600Y-98669100D01*
X90614700Y-99850000D02*
X90614700Y-99482700D01*
X90614700Y-99482700D02*
X89801100Y-98669100D01*
X89801100Y-98669100D02*
X83178600Y-98669100D01*
X91790000Y-99850000D02*
X90614700Y-99850000D01*
X82430000Y-95950000D02*
X82430000Y-97125300D01*
X84711100Y-112322700D02*
X86377600Y-110656200D01*
X86377600Y-110656200D02*
X86377600Y-109240000D01*
X86377600Y-109240000D02*
X87093300Y-108524300D01*
X87093300Y-108524300D02*
X91805100Y-108524300D01*
X91805100Y-108524300D02*
X92666300Y-109385500D01*
X92666300Y-109385500D02*
X95373400Y-109385500D01*
X95373400Y-109385500D02*
X97182900Y-107576000D01*
X125005400Y-120109500D02*
X118569200Y-113673300D01*
X125005400Y-123892900D02*
X125005400Y-120109500D01*
X118569200Y-113673300D02*
X113671100Y-113673300D01*
X124404900Y-124493400D02*
X125005400Y-123892900D01*
X116722900Y-115964200D02*
X112465400Y-115964200D01*
X117081100Y-116322400D02*
X116722900Y-115964200D01*
X112465400Y-115964200D02*
X112202800Y-115701600D01*
X121173900Y-125907100D02*
X123013700Y-124067300D01*
X121398200Y-118531100D02*
X115498300Y-118531100D01*
X123013700Y-124067300D02*
X123013700Y-120146600D01*
X123013700Y-120146600D02*
X121398200Y-118531100D01*
X115498300Y-118531100D02*
X113671100Y-116703900D01*
X119730000Y-134774700D02*
X119730000Y-134313800D01*
X119730000Y-134313800D02*
X129453500Y-124590300D01*
X129453500Y-124590300D02*
X129453500Y-94556900D01*
X103933200Y-94774700D02*
X103125300Y-95582600D01*
X119730000Y-135950000D02*
X119730000Y-134774700D01*
X129453500Y-94556900D02*
X128760600Y-93864000D01*
X117613700Y-93864000D02*
X116703000Y-94774700D01*
X128760600Y-93864000D02*
X117613700Y-93864000D01*
X116703000Y-94774700D02*
X103933200Y-94774700D01*
X103125300Y-95582600D02*
X103125300Y-95950000D01*
X101950000Y-95950000D02*
X103125300Y-95950000D01*
X78298600Y-114712900D02*
X78394200Y-114712900D01*
X78394200Y-114712900D02*
X80522400Y-112584700D01*
X80522400Y-112584700D02*
X80522400Y-108820000D01*
X80522400Y-108820000D02*
X84388000Y-104954400D01*
X84388000Y-104954400D02*
X90911400Y-104954400D01*
X90911400Y-104954400D02*
X95694700Y-100171100D01*
X95694700Y-100171100D02*
X95694700Y-98300600D01*
X95694700Y-98300600D02*
X96870000Y-97125300D01*
X96870000Y-95950000D02*
X96870000Y-97125300D01*
X120165200Y-123760100D02*
X119005400Y-122600400D01*
X119005400Y-122600400D02*
X119005400Y-120163900D01*
X119005400Y-120163900D02*
X118028900Y-119187400D01*
X118028900Y-119187400D02*
X114377900Y-119187400D01*
X120165200Y-123760100D02*
X119475300Y-124450000D01*
X122180000Y-123131300D02*
X120794000Y-123131300D01*
X120794000Y-123131300D02*
X120165200Y-123760100D01*
X122180000Y-121556000D02*
X122180000Y-123131300D01*
X118400000Y-124450000D02*
X119475300Y-124450000D01*
X118400000Y-126650000D02*
X118400000Y-125674700D01*
X118400000Y-125674700D02*
X117759900Y-125674700D01*
X117759900Y-125674700D02*
X116785100Y-124699900D01*
X116785100Y-124699900D02*
X116785100Y-123592100D01*
X116785100Y-123592100D02*
X116667600Y-123474600D01*
X116667600Y-123474600D02*
X113681200Y-123474600D01*
X113681200Y-123474600D02*
X113529700Y-123626100D01*
X119475300Y-126650000D02*
X123274100Y-126650000D01*
X123274100Y-126650000D02*
X126180000Y-123744100D01*
X126180000Y-123744100D02*
X126180000Y-123131300D01*
X118400000Y-126650000D02*
X119475300Y-126650000D01*
X126180000Y-121556000D02*
X126180000Y-123131300D01*
X82890200Y-111071400D02*
X82890200Y-111527500D01*
X82890200Y-111527500D02*
X84096200Y-112733500D01*
X84096200Y-112733500D02*
X84096200Y-116196500D01*
X84096200Y-116196500D02*
X89191700Y-121292000D01*
X89191700Y-121292000D02*
X89191700Y-121945700D01*
X101582000Y-122915100D02*
X101378500Y-123118600D01*
X101378500Y-123118600D02*
X101378500Y-134203200D01*
X101378500Y-134203200D02*
X101950000Y-134774700D01*
X101950000Y-135950000D02*
X101950000Y-134774700D01*
X80087000Y-118657900D02*
X81985900Y-120556800D01*
X81985900Y-120556800D02*
X81985900Y-125526500D01*
X81985900Y-125526500D02*
X81592000Y-125920400D01*
X81592000Y-125920400D02*
X81592000Y-127740200D01*
X119730000Y-95950000D02*
X118554700Y-95950000D01*
X82290200Y-109055500D02*
X82290200Y-108327100D01*
X82290200Y-108327100D02*
X83235900Y-107381400D01*
X83235900Y-107381400D02*
X86644100Y-107381400D01*
X86644100Y-107381400D02*
X87176500Y-107913800D01*
X87176500Y-107913800D02*
X92725400Y-107913800D01*
X92725400Y-107913800D02*
X93736700Y-108925100D01*
X93736700Y-108925100D02*
X94736600Y-108925100D01*
X94736600Y-108925100D02*
X101002700Y-102659000D01*
X101002700Y-102659000D02*
X101002700Y-102371100D01*
X101002700Y-102371100D02*
X101476200Y-101897600D01*
X101476200Y-101897600D02*
X101637900Y-101897600D01*
X101637900Y-101897600D02*
X103220000Y-100315500D01*
X103220000Y-100315500D02*
X103220000Y-99354200D01*
X103220000Y-99354200D02*
X104349900Y-98224300D01*
X104349900Y-98224300D02*
X107840300Y-98224300D01*
X107840300Y-98224300D02*
X108939300Y-97125300D01*
X108939300Y-97125300D02*
X117746800Y-97125300D01*
X117746800Y-97125300D02*
X118554700Y-96317400D01*
X118554700Y-96317400D02*
X118554700Y-95950000D01*
X113380000Y-136417100D02*
X113380000Y-135493700D01*
X111679200Y-138117900D02*
X113380000Y-136417100D01*
X99845800Y-138117900D02*
X111679200Y-138117900D01*
X96870000Y-135950000D02*
X98045300Y-135950000D01*
X128584100Y-94324400D02*
X122163600Y-94324400D01*
X119252800Y-134154100D02*
X129003200Y-124403700D01*
X114719600Y-134154100D02*
X119252800Y-134154100D01*
X129003200Y-94743500D02*
X128584100Y-94324400D01*
X98045300Y-135950000D02*
X98045300Y-136317400D01*
X113380000Y-135493700D02*
X114719600Y-134154100D01*
X122163600Y-94324400D02*
X120905300Y-95582700D01*
X98045300Y-136317400D02*
X99845800Y-138117900D01*
X120905300Y-95582700D02*
X120905300Y-95950000D01*
X129003200Y-124403700D02*
X129003200Y-94743500D01*
X119730000Y-95950000D02*
X120905300Y-95950000D01*
X77909800Y-110157700D02*
X77909800Y-103966500D01*
X77909800Y-103966500D02*
X75213925Y-101270625D01*
X75213925Y-101270625D02*
X74813926Y-100870626D01*
X95505300Y-135950000D02*
X95505300Y-136317300D01*
X95505300Y-136317300D02*
X97756200Y-138568200D01*
X121000000Y-134069700D02*
X130015300Y-125054400D01*
X94330000Y-135950000D02*
X95505300Y-135950000D01*
X97756200Y-138568200D02*
X118812600Y-138568200D01*
X118812600Y-138568200D02*
X121000000Y-136380800D01*
X121000000Y-136380800D02*
X121000000Y-134069700D01*
X79108900Y-112948100D02*
X76099900Y-112948100D01*
X76099900Y-112948100D02*
X74055700Y-110903900D01*
X74055700Y-110903900D02*
X74055700Y-106262200D01*
X74055700Y-106262200D02*
X73037000Y-105243500D01*
X88074700Y-95950000D02*
X86899400Y-94774700D01*
X86899400Y-94774700D02*
X79398800Y-94774700D01*
X79398800Y-94774700D02*
X78694300Y-95479200D01*
X78694300Y-95479200D02*
X78694300Y-98151300D01*
X78694300Y-98151300D02*
X80336100Y-99793100D01*
X80336100Y-99793100D02*
X80336100Y-107578900D01*
X89250000Y-95950000D02*
X88074700Y-95950000D01*
X98234700Y-95625300D02*
X96483400Y-93874000D01*
X75250011Y-98136400D02*
X71205300Y-102181110D01*
X71205300Y-102181110D02*
X71205300Y-123155300D01*
X75250011Y-95211089D02*
X75250011Y-98136400D01*
X71205300Y-123155300D02*
X76995400Y-128945400D01*
X76587100Y-93874000D02*
X75250011Y-95211089D01*
X99410000Y-99850000D02*
X98234700Y-98674700D01*
X98234700Y-98674700D02*
X98234700Y-95625300D01*
X96483400Y-93874000D02*
X76587100Y-93874000D01*
X101950000Y-99850000D02*
X104563300Y-97236700D01*
X104563300Y-97236700D02*
X107802100Y-97236700D01*
X126180000Y-108499900D02*
X126114400Y-108565500D01*
X126180000Y-106356000D02*
X126180000Y-108499900D01*
X104490000Y-101025300D02*
X103392000Y-101025300D01*
X103392000Y-101025300D02*
X101794300Y-102623000D01*
X104490000Y-99850000D02*
X105665300Y-99850000D01*
X104490000Y-99850000D02*
X104490000Y-101025300D01*
X105665300Y-99850000D02*
X105665300Y-99482600D01*
X105665300Y-99482600D02*
X106473200Y-98674700D01*
X106473200Y-98674700D02*
X110368400Y-98674700D01*
X110368400Y-98674700D02*
X111286100Y-97757000D01*
X111286100Y-97757000D02*
X119305100Y-97757000D01*
X119305100Y-97757000D02*
X121000000Y-99451900D01*
X121000000Y-99451900D02*
X121000000Y-100700000D01*
X121000000Y-100700000D02*
X121763300Y-101463300D01*
X121763300Y-101463300D02*
X121763300Y-104025400D01*
X121763300Y-104025400D02*
X122518600Y-104780700D01*
X122518600Y-104780700D02*
X124180000Y-104780700D01*
X124180000Y-106356000D02*
X124180000Y-104780700D01*
X90739200Y-116775400D02*
X90629700Y-116665900D01*
X90629700Y-116665900D02*
X90629700Y-113647700D01*
X90629700Y-113647700D02*
X93630800Y-110646600D01*
X93630800Y-110646600D02*
X96309300Y-110646600D01*
X96309300Y-110646600D02*
X98031300Y-108924600D01*
X98031300Y-108924600D02*
X99466600Y-108924600D01*
X99466600Y-108924600D02*
X101643100Y-106748100D01*
X101643100Y-106748100D02*
X104996300Y-106748100D01*
X104996300Y-106748100D02*
X109570000Y-102174400D01*
X109570000Y-102174400D02*
X109570000Y-99850000D01*
X98010000Y-130350000D02*
X98010000Y-129161100D01*
X95952200Y-119287100D02*
X95952200Y-119950400D01*
X95952200Y-119950400D02*
X95177200Y-120725400D01*
X95177200Y-120725400D02*
X93989400Y-120725400D01*
X93989400Y-120725400D02*
X93449600Y-121265200D01*
X93449600Y-121265200D02*
X93449600Y-123120700D01*
X93449600Y-123120700D02*
X93603700Y-123274800D01*
X93603700Y-123274800D02*
X95092800Y-123274800D01*
X95092800Y-123274800D02*
X96025400Y-124207400D01*
X96025400Y-124207400D02*
X96025400Y-126097300D01*
X96025400Y-126097300D02*
X96821100Y-126893000D01*
X96821100Y-126893000D02*
X96821100Y-128343800D01*
X96821100Y-128343800D02*
X97638400Y-129161100D01*
X97638400Y-129161100D02*
X98010000Y-129161100D01*
X95470000Y-127810000D02*
X95470000Y-126621100D01*
X93374000Y-125576000D02*
X94419100Y-126621100D01*
X94419100Y-126621100D02*
X95470000Y-126621100D01*
X115834300Y-99274800D02*
X115217200Y-98657700D01*
X115834300Y-100328100D02*
X115834300Y-99274800D01*
X113005400Y-103157000D02*
X115834300Y-100328100D01*
X113302300Y-98657700D02*
X112110000Y-99850000D01*
X113005400Y-110557900D02*
X113005400Y-103157000D01*
X115217200Y-98657700D02*
X113302300Y-98657700D01*
X111432700Y-112130600D02*
X113005400Y-110557900D01*
X107316900Y-114426900D02*
X109613200Y-112130600D01*
X107316900Y-118275300D02*
X107316900Y-114426900D01*
X107385700Y-118344100D02*
X107316900Y-118275300D01*
X109613200Y-112130600D02*
X111432700Y-112130600D01*
X113474700Y-99850000D02*
X113474700Y-100217400D01*
X113474700Y-100217400D02*
X112666800Y-101025300D01*
X112666800Y-101025300D02*
X111992800Y-101025300D01*
X111992800Y-101025300D02*
X111992800Y-101025400D01*
X111992800Y-101025400D02*
X105144400Y-107873800D01*
X105144400Y-107873800D02*
X103476700Y-107873800D01*
X103476700Y-107873800D02*
X102745200Y-108605300D01*
X102745200Y-108605300D02*
X102745200Y-111050500D01*
X102745200Y-111050500D02*
X105259000Y-113564300D01*
X105259000Y-113564300D02*
X105259000Y-118178500D01*
X105259000Y-118178500D02*
X100438300Y-122999200D01*
X100438300Y-122999200D02*
X100438300Y-129603300D01*
X100438300Y-129603300D02*
X98465400Y-131576200D01*
X98465400Y-131576200D02*
X97464300Y-131576200D01*
X97464300Y-131576200D02*
X96658900Y-130770800D01*
X96658900Y-130770800D02*
X96658900Y-130350000D01*
X92363800Y-118807700D02*
X92439400Y-118883300D01*
X92439400Y-118883300D02*
X92439400Y-125667100D01*
X92439400Y-125667100D02*
X93073600Y-126301300D01*
X93073600Y-126301300D02*
X93121200Y-126301300D01*
X93121200Y-126301300D02*
X94281100Y-127461200D01*
X94281100Y-127461200D02*
X94281100Y-128343800D01*
X94281100Y-128343800D02*
X95098400Y-129161100D01*
X95098400Y-129161100D02*
X95470000Y-129161100D01*
X95470000Y-130350000D02*
X95470000Y-129161100D01*
X95470000Y-130350000D02*
X96658900Y-130350000D01*
X114650000Y-99850000D02*
X113474700Y-99850000D01*
X116358900Y-101856400D02*
X117190000Y-101025300D01*
X109574200Y-114130600D02*
X111448100Y-114130600D01*
X116358900Y-103645400D02*
X116358900Y-101856400D01*
X115005400Y-110573300D02*
X115005400Y-104998900D01*
X117190000Y-99850000D02*
X117190000Y-101025300D01*
X115005400Y-104998900D02*
X116358900Y-103645400D01*
X108087000Y-117630600D02*
X108087000Y-115617800D01*
X108087000Y-115617800D02*
X109574200Y-114130600D01*
X111448100Y-114130600D02*
X115005400Y-110573300D01*
X89354700Y-119284000D02*
X90025100Y-119284000D01*
X90025100Y-119284000D02*
X90025100Y-120510200D01*
X90025100Y-120510200D02*
X90414900Y-120900000D01*
X90414900Y-120900000D02*
X91588200Y-120900000D01*
X91588200Y-120900000D02*
X91953000Y-121264800D01*
X91953000Y-121264800D02*
X91953000Y-125058100D01*
X91953000Y-125058100D02*
X90390000Y-126621100D01*
X118554700Y-99850000D02*
X118554700Y-99482600D01*
X118554700Y-99482600D02*
X117279400Y-98207300D01*
X117279400Y-98207300D02*
X112046700Y-98207300D01*
X112046700Y-98207300D02*
X110840000Y-99414000D01*
X110840000Y-99414000D02*
X110840000Y-101541300D01*
X110840000Y-101541300D02*
X104957800Y-107423500D01*
X104957800Y-107423500D02*
X102656300Y-107423500D01*
X102656300Y-107423500D02*
X101475200Y-108604600D01*
X101475200Y-108604600D02*
X101475200Y-110931000D01*
X101475200Y-110931000D02*
X101325100Y-111081100D01*
X101325100Y-111081100D02*
X101325100Y-111218800D01*
X101325100Y-111218800D02*
X100601100Y-111942800D01*
X100601100Y-111942800D02*
X96862800Y-111942800D01*
X96862800Y-111942800D02*
X90025100Y-118780500D01*
X90025100Y-118780500D02*
X90025100Y-119284000D01*
X119730000Y-99850000D02*
X118554700Y-99850000D01*
X90390000Y-127810000D02*
X90390000Y-126621100D01*
X120463500Y-101189700D02*
X119005400Y-102647800D01*
X113818600Y-112948000D02*
X113370700Y-112948000D01*
X113370700Y-112948000D02*
X112945800Y-113372900D01*
X119005400Y-102647800D02*
X119005400Y-107761200D01*
X119005400Y-107761200D02*
X113818600Y-112948000D01*
X112945800Y-113372900D02*
X112945800Y-114981600D01*
X112945800Y-114981600D02*
X113199700Y-115235500D01*
X124810000Y-97902100D02*
X124810000Y-99850000D01*
X89038900Y-127810000D02*
X89038900Y-128181600D01*
X100680000Y-135549200D02*
X100680000Y-136435900D01*
X126174600Y-94965300D02*
X126174600Y-96537500D01*
X126365200Y-94774700D02*
X126174600Y-94965300D01*
X128377500Y-94774700D02*
X126365200Y-94774700D01*
X128552900Y-94950100D02*
X128377500Y-94774700D01*
X109551900Y-137667600D02*
X110840000Y-136379500D01*
X93265700Y-128998900D02*
X94200000Y-129933200D01*
X97127300Y-133723700D02*
X98854500Y-133723700D01*
X101911700Y-137667600D02*
X109551900Y-137667600D01*
X94200000Y-130796400D02*
X97127300Y-133723700D01*
X89038900Y-128181600D02*
X89856200Y-128998900D01*
X89856200Y-128998900D02*
X93265700Y-128998900D01*
X87850000Y-127810000D02*
X89038900Y-127810000D01*
X110840000Y-136379500D02*
X110840000Y-135488800D01*
X128552900Y-124217100D02*
X128552900Y-94950100D01*
X126174600Y-96537500D02*
X124810000Y-97902100D01*
X100680000Y-136435900D02*
X101911700Y-137667600D01*
X94200000Y-129933200D02*
X94200000Y-130796400D01*
X98854500Y-133723700D02*
X100680000Y-135549200D01*
X110840000Y-135488800D02*
X112652400Y-133676400D01*
X112652400Y-133676400D02*
X119093600Y-133676400D01*
X119093600Y-133676400D02*
X128552900Y-124217100D01*
X127970400Y-101645700D02*
X127970400Y-124065100D01*
X127350000Y-101025300D02*
X127970400Y-101645700D01*
X114244000Y-133075400D02*
X112337300Y-131168700D01*
X118960100Y-133075400D02*
X114244000Y-133075400D01*
X127350000Y-99850000D02*
X127350000Y-101025300D01*
X127970400Y-124065100D02*
X118960100Y-133075400D01*
X114294600Y-104780700D02*
X114450000Y-104625300D01*
X114450000Y-103650000D02*
X114450000Y-104625300D01*
X114180000Y-104780700D02*
X114294600Y-104780700D01*
X114180000Y-106356000D02*
X114180000Y-104780700D01*
X118180000Y-106356000D02*
X118180000Y-104780700D01*
X118180000Y-104780700D02*
X117550000Y-104780700D01*
X117550000Y-104780700D02*
X117550000Y-103650000D01*
X116180000Y-104780700D02*
X117550000Y-104780700D01*
X116180000Y-106356000D02*
X116180000Y-104780700D01*
X122270000Y-95950000D02*
X122270000Y-97125300D01*
X123250000Y-103650000D02*
X123250000Y-102674700D01*
X123250000Y-102674700D02*
X123445300Y-102479400D01*
X123445300Y-102479400D02*
X123445300Y-98300600D01*
X123445300Y-98300600D02*
X122270000Y-97125300D01*
D31*
G36*
X76095053Y-92673454D02*
G01*
X75963024Y-92744026D01*
X75847299Y-92838999D01*
X75823501Y-92867997D01*
X74289003Y-94402496D01*
X74259999Y-94426299D01*
X74207474Y-94490302D01*
X74165026Y-94542024D01*
X74114643Y-94636283D01*
X74094454Y-94674054D01*
X74050997Y-94817315D01*
X74040000Y-94928968D01*
X74040000Y-94928978D01*
X74036324Y-94966300D01*
X74040000Y-95003623D01*
X74040001Y-97635197D01*
X70235603Y-101439596D01*
X70206599Y-101463399D01*
X70151613Y-101530400D01*
X70111626Y-101579124D01*
X70046640Y-101700703D01*
X70041054Y-101711154D01*
X69997597Y-101854415D01*
X69986600Y-101966068D01*
X69986600Y-101966078D01*
X69982924Y-102003400D01*
X69986600Y-102040722D01*
X69986601Y-124142967D01*
X69982924Y-124180300D01*
X69986601Y-124217633D01*
X69997598Y-124329286D01*
X70007855Y-124363100D01*
X70041054Y-124472546D01*
X70111626Y-124604576D01*
X70174101Y-124680701D01*
X70206600Y-124720301D01*
X70235598Y-124744099D01*
X76032207Y-130540709D01*
X75956574Y-130723302D01*
X75916800Y-130923261D01*
X75916800Y-131127139D01*
X75956574Y-131327098D01*
X76034595Y-131515456D01*
X76147863Y-131684974D01*
X76292026Y-131829137D01*
X76461544Y-131942405D01*
X76649902Y-132020426D01*
X76849861Y-132060200D01*
X76911999Y-132060200D01*
X79342417Y-134490619D01*
X79111709Y-134525952D01*
X78859900Y-134617391D01*
X78752965Y-134674550D01*
X78690472Y-134910867D01*
X79450000Y-135670395D01*
X79464143Y-135656253D01*
X79643748Y-135835858D01*
X79629605Y-135850000D01*
X79643748Y-135864143D01*
X79464143Y-136043748D01*
X79450000Y-136029605D01*
X78690472Y-136789133D01*
X78736909Y-136964733D01*
X78450000Y-136961928D01*
X78418808Y-136965000D01*
X78322998Y-136965000D01*
X78322998Y-136974952D01*
X78205820Y-137010498D01*
X78168735Y-137030321D01*
X78132391Y-137006538D01*
X78094718Y-137010409D01*
X77869467Y-137102579D01*
X77666526Y-137236922D01*
X77493693Y-137408275D01*
X77357610Y-137610054D01*
X77263507Y-137834504D01*
X77215000Y-138073000D01*
X77215000Y-138423000D01*
X80823000Y-138423000D01*
X80823000Y-138403000D01*
X81077000Y-138403000D01*
X81077000Y-138423000D01*
X82823000Y-138423000D01*
X82823000Y-138403000D01*
X83077000Y-138403000D01*
X83077000Y-138423000D01*
X86685000Y-138423000D01*
X86685000Y-138073000D01*
X86636493Y-137834504D01*
X86542390Y-137610054D01*
X86406307Y-137408275D01*
X86233474Y-137236922D01*
X86030533Y-137102579D01*
X85837790Y-137023711D01*
X86521903Y-136339599D01*
X86550901Y-136315801D01*
X86645874Y-136200076D01*
X86716446Y-136068047D01*
X86759903Y-135924786D01*
X86770900Y-135813133D01*
X86770900Y-135813125D01*
X86774576Y-135775800D01*
X86770900Y-135738475D01*
X86770900Y-132345500D01*
X90839778Y-132345500D01*
X90877100Y-132349176D01*
X90914422Y-132345500D01*
X90914433Y-132345500D01*
X91026086Y-132334503D01*
X91169347Y-132291046D01*
X91301376Y-132220474D01*
X91417101Y-132125501D01*
X91440903Y-132096498D01*
X92006580Y-131530822D01*
X92093394Y-131602069D01*
X92353736Y-131741225D01*
X92636223Y-131826916D01*
X92856381Y-131848600D01*
X93003619Y-131848600D01*
X93223777Y-131826916D01*
X93506264Y-131741225D01*
X93766606Y-131602069D01*
X93856826Y-131528027D01*
X96563500Y-134234702D01*
X96587299Y-134263701D01*
X96703024Y-134358674D01*
X96835053Y-134429246D01*
X96957714Y-134466454D01*
X96942950Y-134465000D01*
X96797050Y-134465000D01*
X96578889Y-134486487D01*
X96298966Y-134571401D01*
X96040986Y-134709294D01*
X95814866Y-134894866D01*
X95629294Y-135120986D01*
X95600000Y-135175791D01*
X95570706Y-135120986D01*
X95385134Y-134894866D01*
X95159014Y-134709294D01*
X94901034Y-134571401D01*
X94621111Y-134486487D01*
X94402950Y-134465000D01*
X94257050Y-134465000D01*
X94038889Y-134486487D01*
X93758966Y-134571401D01*
X93500986Y-134709294D01*
X93274866Y-134894866D01*
X93089294Y-135120986D01*
X93060000Y-135175791D01*
X93030706Y-135120986D01*
X92845134Y-134894866D01*
X92619014Y-134709294D01*
X92361034Y-134571401D01*
X92081111Y-134486487D01*
X91862950Y-134465000D01*
X91717050Y-134465000D01*
X91498889Y-134486487D01*
X91218966Y-134571401D01*
X90960986Y-134709294D01*
X90734866Y-134894866D01*
X90549294Y-135120986D01*
X90520000Y-135175791D01*
X90490706Y-135120986D01*
X90305134Y-134894866D01*
X90079014Y-134709294D01*
X89821034Y-134571401D01*
X89541111Y-134486487D01*
X89322950Y-134465000D01*
X89177050Y-134465000D01*
X88958889Y-134486487D01*
X88678966Y-134571401D01*
X88420986Y-134709294D01*
X88194866Y-134894866D01*
X88009294Y-135120986D01*
X87871401Y-135378966D01*
X87786487Y-135658889D01*
X87757815Y-135950000D01*
X87786487Y-136241111D01*
X87871401Y-136521034D01*
X88009294Y-136779014D01*
X88194866Y-137005134D01*
X88420986Y-137190706D01*
X88678966Y-137328599D01*
X88958889Y-137413513D01*
X89177050Y-137435000D01*
X89322950Y-137435000D01*
X89541111Y-137413513D01*
X89821034Y-137328599D01*
X90079014Y-137190706D01*
X90305134Y-137005134D01*
X90490706Y-136779014D01*
X90520000Y-136724209D01*
X90549294Y-136779014D01*
X90734866Y-137005134D01*
X90960986Y-137190706D01*
X91218966Y-137328599D01*
X91498889Y-137413513D01*
X91717050Y-137435000D01*
X91862950Y-137435000D01*
X92081111Y-137413513D01*
X92361034Y-137328599D01*
X92619014Y-137190706D01*
X92845134Y-137005134D01*
X93030706Y-136779014D01*
X93060000Y-136724209D01*
X93089294Y-136779014D01*
X93274866Y-137005134D01*
X93500986Y-137190706D01*
X93758966Y-137328599D01*
X94038889Y-137413513D01*
X94257050Y-137435000D01*
X94402950Y-137435000D01*
X94621111Y-137413513D01*
X94901034Y-137328599D01*
X95159014Y-137190706D01*
X95238595Y-137125396D01*
X97192401Y-139079203D01*
X97216199Y-139108201D01*
X97331924Y-139203174D01*
X97463953Y-139273746D01*
X97607214Y-139317203D01*
X97718867Y-139328200D01*
X97718876Y-139328200D01*
X97756199Y-139331876D01*
X97793522Y-139328200D01*
X118775278Y-139328200D01*
X118812600Y-139331876D01*
X118849922Y-139328200D01*
X118849933Y-139328200D01*
X118961586Y-139317203D01*
X119104847Y-139273746D01*
X119236876Y-139203174D01*
X119352601Y-139108201D01*
X119376404Y-139079197D01*
X121344269Y-137111333D01*
X121440986Y-137190706D01*
X121698966Y-137328599D01*
X121978889Y-137413513D01*
X122197050Y-137435000D01*
X122342950Y-137435000D01*
X122561111Y-137413513D01*
X122841034Y-137328599D01*
X123099014Y-137190706D01*
X123325134Y-137005134D01*
X123510706Y-136779014D01*
X123540000Y-136724209D01*
X123569294Y-136779014D01*
X123754866Y-137005134D01*
X123980986Y-137190706D01*
X124238966Y-137328599D01*
X124518889Y-137413513D01*
X124737050Y-137435000D01*
X124882950Y-137435000D01*
X125101111Y-137413513D01*
X125381034Y-137328599D01*
X125639014Y-137190706D01*
X125865134Y-137005134D01*
X125889607Y-136975313D01*
X125910498Y-137044180D01*
X125969463Y-137154494D01*
X126048815Y-137251185D01*
X126145506Y-137330537D01*
X126255820Y-137389502D01*
X126375518Y-137425812D01*
X126500000Y-137438072D01*
X128200000Y-137438072D01*
X128324482Y-137425812D01*
X128444180Y-137389502D01*
X128554494Y-137330537D01*
X128651185Y-137251185D01*
X128730537Y-137154494D01*
X128789502Y-137044180D01*
X128825812Y-136924482D01*
X128838072Y-136800000D01*
X128838072Y-136154495D01*
X131215000Y-136154495D01*
X131215000Y-136545505D01*
X131291282Y-136929003D01*
X131440915Y-137290250D01*
X131658149Y-137615364D01*
X131934636Y-137891851D01*
X132259750Y-138109085D01*
X132620997Y-138258718D01*
X133004495Y-138335000D01*
X133395505Y-138335000D01*
X133779003Y-138258718D01*
X134140250Y-138109085D01*
X134465364Y-137891851D01*
X134741851Y-137615364D01*
X134959085Y-137290250D01*
X135108718Y-136929003D01*
X135185000Y-136545505D01*
X135185000Y-136154495D01*
X135108718Y-135770997D01*
X134959085Y-135409750D01*
X134741851Y-135084636D01*
X134465364Y-134808149D01*
X134140250Y-134590915D01*
X133779003Y-134441282D01*
X133395505Y-134365000D01*
X133004495Y-134365000D01*
X132620997Y-134441282D01*
X132259750Y-134590915D01*
X131934636Y-134808149D01*
X131658149Y-135084636D01*
X131440915Y-135409750D01*
X131291282Y-135770997D01*
X131215000Y-136154495D01*
X128838072Y-136154495D01*
X128838072Y-135100000D01*
X128825812Y-134975518D01*
X128789502Y-134855820D01*
X128730537Y-134745506D01*
X128651185Y-134648815D01*
X128554494Y-134569463D01*
X128444180Y-134510498D01*
X128324482Y-134474188D01*
X128200000Y-134461928D01*
X126500000Y-134461928D01*
X126375518Y-134474188D01*
X126255820Y-134510498D01*
X126145506Y-134569463D01*
X126048815Y-134648815D01*
X125969463Y-134745506D01*
X125910498Y-134855820D01*
X125889607Y-134924687D01*
X125865134Y-134894866D01*
X125639014Y-134709294D01*
X125381034Y-134571401D01*
X125101111Y-134486487D01*
X124882950Y-134465000D01*
X124737050Y-134465000D01*
X124518889Y-134486487D01*
X124238966Y-134571401D01*
X123980986Y-134709294D01*
X123754866Y-134894866D01*
X123569294Y-135120986D01*
X123540000Y-135175791D01*
X123510706Y-135120986D01*
X123325134Y-134894866D01*
X123099014Y-134709294D01*
X122841034Y-134571401D01*
X122561111Y-134486487D01*
X122342950Y-134465000D01*
X122197050Y-134465000D01*
X121978889Y-134486487D01*
X121760000Y-134552886D01*
X121760000Y-134384501D01*
X130055102Y-126089400D01*
X130117239Y-126089400D01*
X130317198Y-126049626D01*
X130505556Y-125971605D01*
X130675074Y-125858337D01*
X130819237Y-125714174D01*
X130932505Y-125544656D01*
X131010526Y-125356298D01*
X131050300Y-125156339D01*
X131050300Y-124952461D01*
X131010526Y-124752502D01*
X130932505Y-124564144D01*
X130819237Y-124394626D01*
X130675074Y-124250463D01*
X130505556Y-124137195D01*
X130317198Y-124059174D01*
X130213500Y-124038547D01*
X130213500Y-122242514D01*
X130229443Y-122255597D01*
X130251399Y-122267333D01*
X130275224Y-122274560D01*
X130300000Y-122277000D01*
X136190000Y-122277000D01*
X136190000Y-135967721D01*
X136123286Y-136648126D01*
X135935057Y-137271570D01*
X135629323Y-137846573D01*
X135217721Y-138351248D01*
X134715933Y-138766362D01*
X134143077Y-139076104D01*
X133520961Y-139268682D01*
X132842417Y-139340000D01*
X86605256Y-139340000D01*
X86636493Y-139265496D01*
X86685000Y-139027000D01*
X86685000Y-138677000D01*
X83077000Y-138677000D01*
X83077000Y-138697000D01*
X82823000Y-138697000D01*
X82823000Y-138677000D01*
X81077000Y-138677000D01*
X81077000Y-138697000D01*
X80823000Y-138697000D01*
X80823000Y-138677000D01*
X77215000Y-138677000D01*
X77215000Y-139027000D01*
X77263507Y-139265496D01*
X77294744Y-139340000D01*
X71882279Y-139340000D01*
X71201874Y-139273286D01*
X70578430Y-139085057D01*
X70003427Y-138779323D01*
X69498752Y-138367721D01*
X69083638Y-137865933D01*
X68773896Y-137293077D01*
X68581318Y-136670961D01*
X68527036Y-136154495D01*
X69515000Y-136154495D01*
X69515000Y-136545505D01*
X69591282Y-136929003D01*
X69740915Y-137290250D01*
X69958149Y-137615364D01*
X70234636Y-137891851D01*
X70559750Y-138109085D01*
X70920997Y-138258718D01*
X71304495Y-138335000D01*
X71695505Y-138335000D01*
X72079003Y-138258718D01*
X72440250Y-138109085D01*
X72765364Y-137891851D01*
X73041851Y-137615364D01*
X73259085Y-137290250D01*
X73408718Y-136929003D01*
X73485000Y-136545505D01*
X73485000Y-136154495D01*
X73439049Y-135923482D01*
X78085396Y-135923482D01*
X78125952Y-136188291D01*
X78217391Y-136440100D01*
X78274550Y-136547035D01*
X78510867Y-136609528D01*
X79270395Y-135850000D01*
X78510867Y-135090472D01*
X78274550Y-135152965D01*
X78161150Y-135395678D01*
X78097281Y-135655849D01*
X78085396Y-135923482D01*
X73439049Y-135923482D01*
X73408718Y-135770997D01*
X73259085Y-135409750D01*
X73041851Y-135084636D01*
X72765364Y-134808149D01*
X72440250Y-134590915D01*
X72079003Y-134441282D01*
X71695505Y-134365000D01*
X71304495Y-134365000D01*
X70920997Y-134441282D01*
X70559750Y-134590915D01*
X70234636Y-134808149D01*
X69958149Y-135084636D01*
X69740915Y-135409750D01*
X69591282Y-135770997D01*
X69515000Y-136154495D01*
X68527036Y-136154495D01*
X68510000Y-135992417D01*
X68510000Y-96032278D01*
X68566651Y-95454495D01*
X69515000Y-95454495D01*
X69515000Y-95845505D01*
X69591282Y-96229003D01*
X69740915Y-96590250D01*
X69958149Y-96915364D01*
X70234636Y-97191851D01*
X70559750Y-97409085D01*
X70920997Y-97558718D01*
X71304495Y-97635000D01*
X71695505Y-97635000D01*
X72079003Y-97558718D01*
X72440250Y-97409085D01*
X72765364Y-97191851D01*
X73041851Y-96915364D01*
X73259085Y-96590250D01*
X73408718Y-96229003D01*
X73485000Y-95845505D01*
X73485000Y-95454495D01*
X73408718Y-95070997D01*
X73259085Y-94709750D01*
X73041851Y-94384636D01*
X72765364Y-94108149D01*
X72440250Y-93890915D01*
X72079003Y-93741282D01*
X71695505Y-93665000D01*
X71304495Y-93665000D01*
X70920997Y-93741282D01*
X70559750Y-93890915D01*
X70234636Y-94108149D01*
X69958149Y-94384636D01*
X69740915Y-94709750D01*
X69591282Y-95070997D01*
X69515000Y-95454495D01*
X68566651Y-95454495D01*
X68576714Y-95351874D01*
X68764943Y-94728428D01*
X69070681Y-94153421D01*
X69482279Y-93648753D01*
X69984067Y-93233638D01*
X70556924Y-92923895D01*
X71179039Y-92731318D01*
X71857584Y-92660000D01*
X76139406Y-92660000D01*
X76095053Y-92673454D01*
X76095053Y-92673454D01*
G37*
X76095053Y-92673454D02*
X75963024Y-92744026D01*
X75847299Y-92838999D01*
X75823501Y-92867997D01*
X74289003Y-94402496D01*
X74259999Y-94426299D01*
X74207474Y-94490302D01*
X74165026Y-94542024D01*
X74114643Y-94636283D01*
X74094454Y-94674054D01*
X74050997Y-94817315D01*
X74040000Y-94928968D01*
X74040000Y-94928978D01*
X74036324Y-94966300D01*
X74040000Y-95003623D01*
X74040001Y-97635197D01*
X70235603Y-101439596D01*
X70206599Y-101463399D01*
X70151613Y-101530400D01*
X70111626Y-101579124D01*
X70046640Y-101700703D01*
X70041054Y-101711154D01*
X69997597Y-101854415D01*
X69986600Y-101966068D01*
X69986600Y-101966078D01*
X69982924Y-102003400D01*
X69986600Y-102040722D01*
X69986601Y-124142967D01*
X69982924Y-124180300D01*
X69986601Y-124217633D01*
X69997598Y-124329286D01*
X70007855Y-124363100D01*
X70041054Y-124472546D01*
X70111626Y-124604576D01*
X70174101Y-124680701D01*
X70206600Y-124720301D01*
X70235598Y-124744099D01*
X76032207Y-130540709D01*
X75956574Y-130723302D01*
X75916800Y-130923261D01*
X75916800Y-131127139D01*
X75956574Y-131327098D01*
X76034595Y-131515456D01*
X76147863Y-131684974D01*
X76292026Y-131829137D01*
X76461544Y-131942405D01*
X76649902Y-132020426D01*
X76849861Y-132060200D01*
X76911999Y-132060200D01*
X79342417Y-134490619D01*
X79111709Y-134525952D01*
X78859900Y-134617391D01*
X78752965Y-134674550D01*
X78690472Y-134910867D01*
X79450000Y-135670395D01*
X79464143Y-135656253D01*
X79643748Y-135835858D01*
X79629605Y-135850000D01*
X79643748Y-135864143D01*
X79464143Y-136043748D01*
X79450000Y-136029605D01*
X78690472Y-136789133D01*
X78736909Y-136964733D01*
X78450000Y-136961928D01*
X78418808Y-136965000D01*
X78322998Y-136965000D01*
X78322998Y-136974952D01*
X78205820Y-137010498D01*
X78168735Y-137030321D01*
X78132391Y-137006538D01*
X78094718Y-137010409D01*
X77869467Y-137102579D01*
X77666526Y-137236922D01*
X77493693Y-137408275D01*
X77357610Y-137610054D01*
X77263507Y-137834504D01*
X77215000Y-138073000D01*
X77215000Y-138423000D01*
X80823000Y-138423000D01*
X80823000Y-138403000D01*
X81077000Y-138403000D01*
X81077000Y-138423000D01*
X82823000Y-138423000D01*
X82823000Y-138403000D01*
X83077000Y-138403000D01*
X83077000Y-138423000D01*
X86685000Y-138423000D01*
X86685000Y-138073000D01*
X86636493Y-137834504D01*
X86542390Y-137610054D01*
X86406307Y-137408275D01*
X86233474Y-137236922D01*
X86030533Y-137102579D01*
X85837790Y-137023711D01*
X86521903Y-136339599D01*
X86550901Y-136315801D01*
X86645874Y-136200076D01*
X86716446Y-136068047D01*
X86759903Y-135924786D01*
X86770900Y-135813133D01*
X86770900Y-135813125D01*
X86774576Y-135775800D01*
X86770900Y-135738475D01*
X86770900Y-132345500D01*
X90839778Y-132345500D01*
X90877100Y-132349176D01*
X90914422Y-132345500D01*
X90914433Y-132345500D01*
X91026086Y-132334503D01*
X91169347Y-132291046D01*
X91301376Y-132220474D01*
X91417101Y-132125501D01*
X91440903Y-132096498D01*
X92006580Y-131530822D01*
X92093394Y-131602069D01*
X92353736Y-131741225D01*
X92636223Y-131826916D01*
X92856381Y-131848600D01*
X93003619Y-131848600D01*
X93223777Y-131826916D01*
X93506264Y-131741225D01*
X93766606Y-131602069D01*
X93856826Y-131528027D01*
X96563500Y-134234702D01*
X96587299Y-134263701D01*
X96703024Y-134358674D01*
X96835053Y-134429246D01*
X96957714Y-134466454D01*
X96942950Y-134465000D01*
X96797050Y-134465000D01*
X96578889Y-134486487D01*
X96298966Y-134571401D01*
X96040986Y-134709294D01*
X95814866Y-134894866D01*
X95629294Y-135120986D01*
X95600000Y-135175791D01*
X95570706Y-135120986D01*
X95385134Y-134894866D01*
X95159014Y-134709294D01*
X94901034Y-134571401D01*
X94621111Y-134486487D01*
X94402950Y-134465000D01*
X94257050Y-134465000D01*
X94038889Y-134486487D01*
X93758966Y-134571401D01*
X93500986Y-134709294D01*
X93274866Y-134894866D01*
X93089294Y-135120986D01*
X93060000Y-135175791D01*
X93030706Y-135120986D01*
X92845134Y-134894866D01*
X92619014Y-134709294D01*
X92361034Y-134571401D01*
X92081111Y-134486487D01*
X91862950Y-134465000D01*
X91717050Y-134465000D01*
X91498889Y-134486487D01*
X91218966Y-134571401D01*
X90960986Y-134709294D01*
X90734866Y-134894866D01*
X90549294Y-135120986D01*
X90520000Y-135175791D01*
X90490706Y-135120986D01*
X90305134Y-134894866D01*
X90079014Y-134709294D01*
X89821034Y-134571401D01*
X89541111Y-134486487D01*
X89322950Y-134465000D01*
X89177050Y-134465000D01*
X88958889Y-134486487D01*
X88678966Y-134571401D01*
X88420986Y-134709294D01*
X88194866Y-134894866D01*
X88009294Y-135120986D01*
X87871401Y-135378966D01*
X87786487Y-135658889D01*
X87757815Y-135950000D01*
X87786487Y-136241111D01*
X87871401Y-136521034D01*
X88009294Y-136779014D01*
X88194866Y-137005134D01*
X88420986Y-137190706D01*
X88678966Y-137328599D01*
X88958889Y-137413513D01*
X89177050Y-137435000D01*
X89322950Y-137435000D01*
X89541111Y-137413513D01*
X89821034Y-137328599D01*
X90079014Y-137190706D01*
X90305134Y-137005134D01*
X90490706Y-136779014D01*
X90520000Y-136724209D01*
X90549294Y-136779014D01*
X90734866Y-137005134D01*
X90960986Y-137190706D01*
X91218966Y-137328599D01*
X91498889Y-137413513D01*
X91717050Y-137435000D01*
X91862950Y-137435000D01*
X92081111Y-137413513D01*
X92361034Y-137328599D01*
X92619014Y-137190706D01*
X92845134Y-137005134D01*
X93030706Y-136779014D01*
X93060000Y-136724209D01*
X93089294Y-136779014D01*
X93274866Y-137005134D01*
X93500986Y-137190706D01*
X93758966Y-137328599D01*
X94038889Y-137413513D01*
X94257050Y-137435000D01*
X94402950Y-137435000D01*
X94621111Y-137413513D01*
X94901034Y-137328599D01*
X95159014Y-137190706D01*
X95238595Y-137125396D01*
X97192401Y-139079203D01*
X97216199Y-139108201D01*
X97331924Y-139203174D01*
X97463953Y-139273746D01*
X97607214Y-139317203D01*
X97718867Y-139328200D01*
X97718876Y-139328200D01*
X97756199Y-139331876D01*
X97793522Y-139328200D01*
X118775278Y-139328200D01*
X118812600Y-139331876D01*
X118849922Y-139328200D01*
X118849933Y-139328200D01*
X118961586Y-139317203D01*
X119104847Y-139273746D01*
X119236876Y-139203174D01*
X119352601Y-139108201D01*
X119376404Y-139079197D01*
X121344269Y-137111333D01*
X121440986Y-137190706D01*
X121698966Y-137328599D01*
X121978889Y-137413513D01*
X122197050Y-137435000D01*
X122342950Y-137435000D01*
X122561111Y-137413513D01*
X122841034Y-137328599D01*
X123099014Y-137190706D01*
X123325134Y-137005134D01*
X123510706Y-136779014D01*
X123540000Y-136724209D01*
X123569294Y-136779014D01*
X123754866Y-137005134D01*
X123980986Y-137190706D01*
X124238966Y-137328599D01*
X124518889Y-137413513D01*
X124737050Y-137435000D01*
X124882950Y-137435000D01*
X125101111Y-137413513D01*
X125381034Y-137328599D01*
X125639014Y-137190706D01*
X125865134Y-137005134D01*
X125889607Y-136975313D01*
X125910498Y-137044180D01*
X125969463Y-137154494D01*
X126048815Y-137251185D01*
X126145506Y-137330537D01*
X126255820Y-137389502D01*
X126375518Y-137425812D01*
X126500000Y-137438072D01*
X128200000Y-137438072D01*
X128324482Y-137425812D01*
X128444180Y-137389502D01*
X128554494Y-137330537D01*
X128651185Y-137251185D01*
X128730537Y-137154494D01*
X128789502Y-137044180D01*
X128825812Y-136924482D01*
X128838072Y-136800000D01*
X128838072Y-136154495D01*
X131215000Y-136154495D01*
X131215000Y-136545505D01*
X131291282Y-136929003D01*
X131440915Y-137290250D01*
X131658149Y-137615364D01*
X131934636Y-137891851D01*
X132259750Y-138109085D01*
X132620997Y-138258718D01*
X133004495Y-138335000D01*
X133395505Y-138335000D01*
X133779003Y-138258718D01*
X134140250Y-138109085D01*
X134465364Y-137891851D01*
X134741851Y-137615364D01*
X134959085Y-137290250D01*
X135108718Y-136929003D01*
X135185000Y-136545505D01*
X135185000Y-136154495D01*
X135108718Y-135770997D01*
X134959085Y-135409750D01*
X134741851Y-135084636D01*
X134465364Y-134808149D01*
X134140250Y-134590915D01*
X133779003Y-134441282D01*
X133395505Y-134365000D01*
X133004495Y-134365000D01*
X132620997Y-134441282D01*
X132259750Y-134590915D01*
X131934636Y-134808149D01*
X131658149Y-135084636D01*
X131440915Y-135409750D01*
X131291282Y-135770997D01*
X131215000Y-136154495D01*
X128838072Y-136154495D01*
X128838072Y-135100000D01*
X128825812Y-134975518D01*
X128789502Y-134855820D01*
X128730537Y-134745506D01*
X128651185Y-134648815D01*
X128554494Y-134569463D01*
X128444180Y-134510498D01*
X128324482Y-134474188D01*
X128200000Y-134461928D01*
X126500000Y-134461928D01*
X126375518Y-134474188D01*
X126255820Y-134510498D01*
X126145506Y-134569463D01*
X126048815Y-134648815D01*
X125969463Y-134745506D01*
X125910498Y-134855820D01*
X125889607Y-134924687D01*
X125865134Y-134894866D01*
X125639014Y-134709294D01*
X125381034Y-134571401D01*
X125101111Y-134486487D01*
X124882950Y-134465000D01*
X124737050Y-134465000D01*
X124518889Y-134486487D01*
X124238966Y-134571401D01*
X123980986Y-134709294D01*
X123754866Y-134894866D01*
X123569294Y-135120986D01*
X123540000Y-135175791D01*
X123510706Y-135120986D01*
X123325134Y-134894866D01*
X123099014Y-134709294D01*
X122841034Y-134571401D01*
X122561111Y-134486487D01*
X122342950Y-134465000D01*
X122197050Y-134465000D01*
X121978889Y-134486487D01*
X121760000Y-134552886D01*
X121760000Y-134384501D01*
X130055102Y-126089400D01*
X130117239Y-126089400D01*
X130317198Y-126049626D01*
X130505556Y-125971605D01*
X130675074Y-125858337D01*
X130819237Y-125714174D01*
X130932505Y-125544656D01*
X131010526Y-125356298D01*
X131050300Y-125156339D01*
X131050300Y-124952461D01*
X131010526Y-124752502D01*
X130932505Y-124564144D01*
X130819237Y-124394626D01*
X130675074Y-124250463D01*
X130505556Y-124137195D01*
X130317198Y-124059174D01*
X130213500Y-124038547D01*
X130213500Y-122242514D01*
X130229443Y-122255597D01*
X130251399Y-122267333D01*
X130275224Y-122274560D01*
X130300000Y-122277000D01*
X136190000Y-122277000D01*
X136190000Y-135967721D01*
X136123286Y-136648126D01*
X135935057Y-137271570D01*
X135629323Y-137846573D01*
X135217721Y-138351248D01*
X134715933Y-138766362D01*
X134143077Y-139076104D01*
X133520961Y-139268682D01*
X132842417Y-139340000D01*
X86605256Y-139340000D01*
X86636493Y-139265496D01*
X86685000Y-139027000D01*
X86685000Y-138677000D01*
X83077000Y-138677000D01*
X83077000Y-138697000D01*
X82823000Y-138697000D01*
X82823000Y-138677000D01*
X81077000Y-138677000D01*
X81077000Y-138697000D01*
X80823000Y-138697000D01*
X80823000Y-138677000D01*
X77215000Y-138677000D01*
X77215000Y-139027000D01*
X77263507Y-139265496D01*
X77294744Y-139340000D01*
X71882279Y-139340000D01*
X71201874Y-139273286D01*
X70578430Y-139085057D01*
X70003427Y-138779323D01*
X69498752Y-138367721D01*
X69083638Y-137865933D01*
X68773896Y-137293077D01*
X68581318Y-136670961D01*
X68527036Y-136154495D01*
X69515000Y-136154495D01*
X69515000Y-136545505D01*
X69591282Y-136929003D01*
X69740915Y-137290250D01*
X69958149Y-137615364D01*
X70234636Y-137891851D01*
X70559750Y-138109085D01*
X70920997Y-138258718D01*
X71304495Y-138335000D01*
X71695505Y-138335000D01*
X72079003Y-138258718D01*
X72440250Y-138109085D01*
X72765364Y-137891851D01*
X73041851Y-137615364D01*
X73259085Y-137290250D01*
X73408718Y-136929003D01*
X73485000Y-136545505D01*
X73485000Y-136154495D01*
X73439049Y-135923482D01*
X78085396Y-135923482D01*
X78125952Y-136188291D01*
X78217391Y-136440100D01*
X78274550Y-136547035D01*
X78510867Y-136609528D01*
X79270395Y-135850000D01*
X78510867Y-135090472D01*
X78274550Y-135152965D01*
X78161150Y-135395678D01*
X78097281Y-135655849D01*
X78085396Y-135923482D01*
X73439049Y-135923482D01*
X73408718Y-135770997D01*
X73259085Y-135409750D01*
X73041851Y-135084636D01*
X72765364Y-134808149D01*
X72440250Y-134590915D01*
X72079003Y-134441282D01*
X71695505Y-134365000D01*
X71304495Y-134365000D01*
X70920997Y-134441282D01*
X70559750Y-134590915D01*
X70234636Y-134808149D01*
X69958149Y-135084636D01*
X69740915Y-135409750D01*
X69591282Y-135770997D01*
X69515000Y-136154495D01*
X68527036Y-136154495D01*
X68510000Y-135992417D01*
X68510000Y-96032278D01*
X68566651Y-95454495D01*
X69515000Y-95454495D01*
X69515000Y-95845505D01*
X69591282Y-96229003D01*
X69740915Y-96590250D01*
X69958149Y-96915364D01*
X70234636Y-97191851D01*
X70559750Y-97409085D01*
X70920997Y-97558718D01*
X71304495Y-97635000D01*
X71695505Y-97635000D01*
X72079003Y-97558718D01*
X72440250Y-97409085D01*
X72765364Y-97191851D01*
X73041851Y-96915364D01*
X73259085Y-96590250D01*
X73408718Y-96229003D01*
X73485000Y-95845505D01*
X73485000Y-95454495D01*
X73408718Y-95070997D01*
X73259085Y-94709750D01*
X73041851Y-94384636D01*
X72765364Y-94108149D01*
X72440250Y-93890915D01*
X72079003Y-93741282D01*
X71695505Y-93665000D01*
X71304495Y-93665000D01*
X70920997Y-93741282D01*
X70559750Y-93890915D01*
X70234636Y-94108149D01*
X69958149Y-94384636D01*
X69740915Y-94709750D01*
X69591282Y-95070997D01*
X69515000Y-95454495D01*
X68566651Y-95454495D01*
X68576714Y-95351874D01*
X68764943Y-94728428D01*
X69070681Y-94153421D01*
X69482279Y-93648753D01*
X69984067Y-93233638D01*
X70556924Y-92923895D01*
X71179039Y-92731318D01*
X71857584Y-92660000D01*
X76139406Y-92660000D01*
X76095053Y-92673454D01*
G36*
X80813782Y-137092032D02*
G01*
X80822998Y-137101248D01*
X80822998Y-137123748D01*
X80777002Y-137077752D01*
X80777002Y-137072372D01*
X80813782Y-137092032D01*
X80813782Y-137092032D01*
G37*
X80813782Y-137092032D02*
X80822998Y-137101248D01*
X80822998Y-137123748D01*
X80777002Y-137077752D01*
X80777002Y-137072372D01*
X80813782Y-137092032D01*
G36*
X84643748Y-135835858D02*
G01*
X84629605Y-135850000D01*
X84643748Y-135864143D01*
X84464143Y-136043748D01*
X84450000Y-136029605D01*
X84435858Y-136043748D01*
X84256253Y-135864143D01*
X84270395Y-135850000D01*
X84256253Y-135835858D01*
X84435858Y-135656253D01*
X84450000Y-135670395D01*
X84464143Y-135656253D01*
X84643748Y-135835858D01*
X84643748Y-135835858D01*
G37*
X84643748Y-135835858D02*
X84629605Y-135850000D01*
X84643748Y-135864143D01*
X84464143Y-136043748D01*
X84450000Y-136029605D01*
X84435858Y-136043748D01*
X84256253Y-135864143D01*
X84270395Y-135850000D01*
X84256253Y-135835858D01*
X84435858Y-135656253D01*
X84450000Y-135670395D01*
X84464143Y-135656253D01*
X84643748Y-135835858D01*
G36*
X83014915Y-131942185D02*
G01*
X83111606Y-132021537D01*
X83221920Y-132080502D01*
X83341618Y-132116812D01*
X83466100Y-132129072D01*
X84966100Y-132129072D01*
X85090582Y-132116812D01*
X85210280Y-132080502D01*
X85250900Y-132058790D01*
X85250901Y-134869491D01*
X85209527Y-134910865D01*
X85147035Y-134674550D01*
X84904322Y-134561150D01*
X84644151Y-134497281D01*
X84376518Y-134485396D01*
X84111709Y-134525952D01*
X84010000Y-134562885D01*
X84010000Y-134330225D01*
X84013676Y-134292900D01*
X84010000Y-134255575D01*
X84010000Y-134255567D01*
X83999003Y-134143914D01*
X83955546Y-134000653D01*
X83884974Y-133868624D01*
X83790001Y-133752899D01*
X83761004Y-133729102D01*
X82158941Y-132127039D01*
X82466100Y-132129072D01*
X82590582Y-132116812D01*
X82710280Y-132080502D01*
X82820594Y-132021537D01*
X82917285Y-131942185D01*
X82966100Y-131882704D01*
X83014915Y-131942185D01*
X83014915Y-131942185D01*
G37*
X83014915Y-131942185D02*
X83111606Y-132021537D01*
X83221920Y-132080502D01*
X83341618Y-132116812D01*
X83466100Y-132129072D01*
X84966100Y-132129072D01*
X85090582Y-132116812D01*
X85210280Y-132080502D01*
X85250900Y-132058790D01*
X85250901Y-134869491D01*
X85209527Y-134910865D01*
X85147035Y-134674550D01*
X84904322Y-134561150D01*
X84644151Y-134497281D01*
X84376518Y-134485396D01*
X84111709Y-134525952D01*
X84010000Y-134562885D01*
X84010000Y-134330225D01*
X84013676Y-134292900D01*
X84010000Y-134255575D01*
X84010000Y-134255567D01*
X83999003Y-134143914D01*
X83955546Y-134000653D01*
X83884974Y-133868624D01*
X83790001Y-133752899D01*
X83761004Y-133729102D01*
X82158941Y-132127039D01*
X82466100Y-132129072D01*
X82590582Y-132116812D01*
X82710280Y-132080502D01*
X82820594Y-132021537D01*
X82917285Y-131942185D01*
X82966100Y-131882704D01*
X83014915Y-131942185D01*
G36*
X117044463Y-128395506D02*
G01*
X116985498Y-128505820D01*
X116949188Y-128625518D01*
X116936928Y-128750000D01*
X116936928Y-130250000D01*
X116949188Y-130374482D01*
X116985498Y-130494180D01*
X117044463Y-130604494D01*
X117123815Y-130701185D01*
X117183296Y-130750000D01*
X117123815Y-130798815D01*
X117044463Y-130895506D01*
X116985498Y-131005820D01*
X116949188Y-131125518D01*
X116936928Y-131250000D01*
X116940000Y-131714250D01*
X117098750Y-131873000D01*
X118073000Y-131873000D01*
X118073000Y-131853000D01*
X118327000Y-131853000D01*
X118327000Y-131873000D01*
X118347000Y-131873000D01*
X118347000Y-132127000D01*
X118327000Y-132127000D01*
X118327000Y-132147000D01*
X118073000Y-132147000D01*
X118073000Y-132127000D01*
X117098750Y-132127000D01*
X116940000Y-132285750D01*
X116939804Y-132315400D01*
X114558802Y-132315400D01*
X113372300Y-131128899D01*
X113372300Y-131066761D01*
X113332526Y-130866802D01*
X113254505Y-130678444D01*
X113141237Y-130508926D01*
X112997074Y-130364763D01*
X112827556Y-130251495D01*
X112639198Y-130173474D01*
X112439239Y-130133700D01*
X112235361Y-130133700D01*
X112035402Y-130173474D01*
X111847044Y-130251495D01*
X111677526Y-130364763D01*
X111533363Y-130508926D01*
X111420095Y-130678444D01*
X111342074Y-130866802D01*
X111302300Y-131066761D01*
X111302300Y-131270639D01*
X111342074Y-131470598D01*
X111420095Y-131658956D01*
X111533363Y-131828474D01*
X111677526Y-131972637D01*
X111847044Y-132085905D01*
X112035402Y-132163926D01*
X112235361Y-132203700D01*
X112297499Y-132203700D01*
X113010198Y-132916400D01*
X112689725Y-132916400D01*
X112652400Y-132912724D01*
X112615075Y-132916400D01*
X112615067Y-132916400D01*
X112503414Y-132927397D01*
X112360153Y-132970854D01*
X112228124Y-133041426D01*
X112112399Y-133136399D01*
X112088601Y-133165397D01*
X110479034Y-134774965D01*
X110399014Y-134709294D01*
X110141034Y-134571401D01*
X109861111Y-134486487D01*
X109642950Y-134465000D01*
X109497050Y-134465000D01*
X109278889Y-134486487D01*
X108998966Y-134571401D01*
X108975800Y-134583783D01*
X108975800Y-132733022D01*
X108979476Y-132695699D01*
X108975800Y-132658376D01*
X108975800Y-132658367D01*
X108964803Y-132546714D01*
X108921346Y-132403453D01*
X108850774Y-132271424D01*
X108755801Y-132155699D01*
X108726802Y-132131901D01*
X108289600Y-131694699D01*
X108289600Y-130932401D01*
X108480793Y-131011596D01*
X108824685Y-131080000D01*
X109175315Y-131080000D01*
X109519207Y-131011596D01*
X109843146Y-130877416D01*
X110134684Y-130682617D01*
X110382617Y-130434684D01*
X110577416Y-130143146D01*
X110611856Y-130060000D01*
X114286899Y-130060000D01*
X114657400Y-130430502D01*
X114657400Y-130492639D01*
X114697174Y-130692598D01*
X114775195Y-130880956D01*
X114888463Y-131050474D01*
X115032626Y-131194637D01*
X115202144Y-131307905D01*
X115390502Y-131385926D01*
X115590461Y-131425700D01*
X115794339Y-131425700D01*
X115994298Y-131385926D01*
X116182656Y-131307905D01*
X116352174Y-131194637D01*
X116496337Y-131050474D01*
X116609605Y-130880956D01*
X116687626Y-130692598D01*
X116727400Y-130492639D01*
X116727400Y-130288761D01*
X116687626Y-130088802D01*
X116609605Y-129900444D01*
X116496337Y-129730926D01*
X116352174Y-129586763D01*
X116182656Y-129473495D01*
X115994298Y-129395474D01*
X115980967Y-129392822D01*
X115989998Y-129391026D01*
X116178356Y-129313005D01*
X116347874Y-129199737D01*
X116492037Y-129055574D01*
X116605305Y-128886056D01*
X116683326Y-128697698D01*
X116723100Y-128497739D01*
X116723100Y-128385300D01*
X117052839Y-128385300D01*
X117044463Y-128395506D01*
X117044463Y-128395506D01*
G37*
X117044463Y-128395506D02*
X116985498Y-128505820D01*
X116949188Y-128625518D01*
X116936928Y-128750000D01*
X116936928Y-130250000D01*
X116949188Y-130374482D01*
X116985498Y-130494180D01*
X117044463Y-130604494D01*
X117123815Y-130701185D01*
X117183296Y-130750000D01*
X117123815Y-130798815D01*
X117044463Y-130895506D01*
X116985498Y-131005820D01*
X116949188Y-131125518D01*
X116936928Y-131250000D01*
X116940000Y-131714250D01*
X117098750Y-131873000D01*
X118073000Y-131873000D01*
X118073000Y-131853000D01*
X118327000Y-131853000D01*
X118327000Y-131873000D01*
X118347000Y-131873000D01*
X118347000Y-132127000D01*
X118327000Y-132127000D01*
X118327000Y-132147000D01*
X118073000Y-132147000D01*
X118073000Y-132127000D01*
X117098750Y-132127000D01*
X116940000Y-132285750D01*
X116939804Y-132315400D01*
X114558802Y-132315400D01*
X113372300Y-131128899D01*
X113372300Y-131066761D01*
X113332526Y-130866802D01*
X113254505Y-130678444D01*
X113141237Y-130508926D01*
X112997074Y-130364763D01*
X112827556Y-130251495D01*
X112639198Y-130173474D01*
X112439239Y-130133700D01*
X112235361Y-130133700D01*
X112035402Y-130173474D01*
X111847044Y-130251495D01*
X111677526Y-130364763D01*
X111533363Y-130508926D01*
X111420095Y-130678444D01*
X111342074Y-130866802D01*
X111302300Y-131066761D01*
X111302300Y-131270639D01*
X111342074Y-131470598D01*
X111420095Y-131658956D01*
X111533363Y-131828474D01*
X111677526Y-131972637D01*
X111847044Y-132085905D01*
X112035402Y-132163926D01*
X112235361Y-132203700D01*
X112297499Y-132203700D01*
X113010198Y-132916400D01*
X112689725Y-132916400D01*
X112652400Y-132912724D01*
X112615075Y-132916400D01*
X112615067Y-132916400D01*
X112503414Y-132927397D01*
X112360153Y-132970854D01*
X112228124Y-133041426D01*
X112112399Y-133136399D01*
X112088601Y-133165397D01*
X110479034Y-134774965D01*
X110399014Y-134709294D01*
X110141034Y-134571401D01*
X109861111Y-134486487D01*
X109642950Y-134465000D01*
X109497050Y-134465000D01*
X109278889Y-134486487D01*
X108998966Y-134571401D01*
X108975800Y-134583783D01*
X108975800Y-132733022D01*
X108979476Y-132695699D01*
X108975800Y-132658376D01*
X108975800Y-132658367D01*
X108964803Y-132546714D01*
X108921346Y-132403453D01*
X108850774Y-132271424D01*
X108755801Y-132155699D01*
X108726802Y-132131901D01*
X108289600Y-131694699D01*
X108289600Y-130932401D01*
X108480793Y-131011596D01*
X108824685Y-131080000D01*
X109175315Y-131080000D01*
X109519207Y-131011596D01*
X109843146Y-130877416D01*
X110134684Y-130682617D01*
X110382617Y-130434684D01*
X110577416Y-130143146D01*
X110611856Y-130060000D01*
X114286899Y-130060000D01*
X114657400Y-130430502D01*
X114657400Y-130492639D01*
X114697174Y-130692598D01*
X114775195Y-130880956D01*
X114888463Y-131050474D01*
X115032626Y-131194637D01*
X115202144Y-131307905D01*
X115390502Y-131385926D01*
X115590461Y-131425700D01*
X115794339Y-131425700D01*
X115994298Y-131385926D01*
X116182656Y-131307905D01*
X116352174Y-131194637D01*
X116496337Y-131050474D01*
X116609605Y-130880956D01*
X116687626Y-130692598D01*
X116727400Y-130492639D01*
X116727400Y-130288761D01*
X116687626Y-130088802D01*
X116609605Y-129900444D01*
X116496337Y-129730926D01*
X116352174Y-129586763D01*
X116182656Y-129473495D01*
X115994298Y-129395474D01*
X115980967Y-129392822D01*
X115989998Y-129391026D01*
X116178356Y-129313005D01*
X116347874Y-129199737D01*
X116492037Y-129055574D01*
X116605305Y-128886056D01*
X116683326Y-128697698D01*
X116723100Y-128497739D01*
X116723100Y-128385300D01*
X117052839Y-128385300D01*
X117044463Y-128395506D01*
G36*
X82090526Y-117778937D02*
G01*
X82260044Y-117892205D01*
X82448402Y-117970226D01*
X82648361Y-118010000D01*
X82852239Y-118010000D01*
X82936282Y-117993283D01*
X84154067Y-119211069D01*
X84081074Y-119300011D01*
X84022109Y-119410325D01*
X83985799Y-119530023D01*
X83973539Y-119654505D01*
X83981081Y-119731081D01*
X83904505Y-119723539D01*
X83780024Y-119735800D01*
X83660326Y-119772109D01*
X83550012Y-119831073D01*
X83453320Y-119910426D01*
X83127218Y-120240873D01*
X83127218Y-120465379D01*
X83816117Y-121154278D01*
X83830260Y-121140136D01*
X84009865Y-121319741D01*
X83995722Y-121333883D01*
X84684621Y-122022782D01*
X84909127Y-122022782D01*
X85239574Y-121696680D01*
X85318927Y-121599988D01*
X85377891Y-121489674D01*
X85414200Y-121369976D01*
X85426461Y-121245495D01*
X85418919Y-121168919D01*
X85495495Y-121176461D01*
X85619977Y-121164201D01*
X85739675Y-121127891D01*
X85849989Y-121068926D01*
X85938961Y-120995909D01*
X86128068Y-121185056D01*
X86106009Y-121226325D01*
X86069699Y-121346023D01*
X86057439Y-121470505D01*
X86064981Y-121547081D01*
X85988405Y-121539539D01*
X85863924Y-121551800D01*
X85744226Y-121588109D01*
X85633912Y-121647073D01*
X85537220Y-121726426D01*
X85211118Y-122056873D01*
X85211118Y-122281379D01*
X85900017Y-122970278D01*
X85914160Y-122956136D01*
X86093765Y-123135741D01*
X86079622Y-123149883D01*
X86768521Y-123838782D01*
X86993027Y-123838782D01*
X87323474Y-123512680D01*
X87402827Y-123415988D01*
X87461791Y-123305674D01*
X87498100Y-123185976D01*
X87510361Y-123061495D01*
X87502819Y-122984919D01*
X87579395Y-122992461D01*
X87703877Y-122980201D01*
X87823575Y-122943891D01*
X87933889Y-122884926D01*
X88030580Y-122805574D01*
X88324844Y-122511310D01*
X88387763Y-122605474D01*
X88531926Y-122749637D01*
X88701444Y-122862905D01*
X88889802Y-122940926D01*
X89089761Y-122980700D01*
X89293639Y-122980700D01*
X89493598Y-122940926D01*
X89681956Y-122862905D01*
X89737419Y-122825846D01*
X89736928Y-122900000D01*
X89749188Y-123024482D01*
X89785498Y-123144180D01*
X89844463Y-123254494D01*
X89923815Y-123351185D01*
X90020506Y-123430537D01*
X90130820Y-123489502D01*
X90250518Y-123525812D01*
X90375000Y-123538072D01*
X90714250Y-123535000D01*
X90873000Y-123376250D01*
X90873000Y-122277000D01*
X90853000Y-122277000D01*
X90853000Y-122023000D01*
X90873000Y-122023000D01*
X90873000Y-122003000D01*
X91127000Y-122003000D01*
X91127000Y-122023000D01*
X91147000Y-122023000D01*
X91147000Y-122277000D01*
X91127000Y-122277000D01*
X91127000Y-123376250D01*
X91193001Y-123442251D01*
X91193001Y-124743297D01*
X89878998Y-126057301D01*
X89850000Y-126081099D01*
X89826202Y-126110097D01*
X89826201Y-126110098D01*
X89755026Y-126196824D01*
X89684454Y-126328854D01*
X89663675Y-126397356D01*
X89640998Y-126472114D01*
X89636944Y-126513272D01*
X89553394Y-126557931D01*
X89325203Y-126745203D01*
X89137931Y-126973394D01*
X89120000Y-127006940D01*
X89102069Y-126973394D01*
X88914797Y-126745203D01*
X88686606Y-126557931D01*
X88426264Y-126418775D01*
X88143777Y-126333084D01*
X87923619Y-126311400D01*
X87776381Y-126311400D01*
X87556223Y-126333084D01*
X87273736Y-126418775D01*
X87013394Y-126557931D01*
X86785203Y-126745203D01*
X86597931Y-126973394D01*
X86458775Y-127233736D01*
X86373084Y-127516223D01*
X86344149Y-127810000D01*
X86373084Y-128103777D01*
X86458775Y-128386264D01*
X86597931Y-128646606D01*
X86785203Y-128874797D01*
X86793265Y-128881414D01*
X86742220Y-128896898D01*
X86631906Y-128955863D01*
X86535215Y-129035215D01*
X86455863Y-129131906D01*
X86396898Y-129242220D01*
X86360588Y-129361918D01*
X86348328Y-129486400D01*
X86348328Y-130825500D01*
X86325702Y-130825500D01*
X85855203Y-130355002D01*
X85831401Y-130325999D01*
X85715676Y-130231026D01*
X85596939Y-130167559D01*
X85591912Y-130116518D01*
X85555602Y-129996820D01*
X85496637Y-129886506D01*
X85417285Y-129789815D01*
X85320594Y-129710463D01*
X85210280Y-129651498D01*
X85090582Y-129615188D01*
X84966100Y-129602928D01*
X83466100Y-129602928D01*
X83341618Y-129615188D01*
X83221920Y-129651498D01*
X83111606Y-129710463D01*
X83014915Y-129789815D01*
X82966100Y-129849296D01*
X82917285Y-129789815D01*
X82820594Y-129710463D01*
X82710280Y-129651498D01*
X82590582Y-129615188D01*
X82466100Y-129602928D01*
X82001850Y-129606000D01*
X81843100Y-129764750D01*
X81843100Y-130739000D01*
X81863100Y-130739000D01*
X81863100Y-130993000D01*
X81843100Y-130993000D01*
X81843100Y-131013000D01*
X81589100Y-131013000D01*
X81589100Y-130993000D01*
X81569100Y-130993000D01*
X81569100Y-130739000D01*
X81589100Y-130739000D01*
X81589100Y-129764750D01*
X81430350Y-129606000D01*
X80966100Y-129602928D01*
X80841618Y-129615188D01*
X80721920Y-129651498D01*
X80611606Y-129710463D01*
X80514915Y-129789815D01*
X80435563Y-129886506D01*
X80423631Y-129908829D01*
X79489404Y-128974603D01*
X79465601Y-128945599D01*
X79349876Y-128850626D01*
X79217847Y-128780054D01*
X79075677Y-128736928D01*
X79125880Y-128695728D01*
X80106600Y-127715008D01*
X80106600Y-128032478D01*
X80102924Y-128069800D01*
X80106600Y-128107122D01*
X80106600Y-128107132D01*
X80117597Y-128218785D01*
X80150522Y-128327326D01*
X80161054Y-128362046D01*
X80231626Y-128494076D01*
X80269315Y-128540000D01*
X80326599Y-128609801D01*
X80355603Y-128633604D01*
X80741296Y-129019297D01*
X80765099Y-129048301D01*
X80880824Y-129143274D01*
X81012853Y-129213846D01*
X81156114Y-129257303D01*
X81267767Y-129268300D01*
X81267775Y-129268300D01*
X81305100Y-129271976D01*
X81342425Y-129268300D01*
X81866778Y-129268300D01*
X81904100Y-129271976D01*
X81941422Y-129268300D01*
X81941433Y-129268300D01*
X82053086Y-129257303D01*
X82196347Y-129213846D01*
X82328376Y-129143274D01*
X82444101Y-129048301D01*
X82467903Y-129019298D01*
X83097002Y-128390199D01*
X83126001Y-128366401D01*
X83220974Y-128250676D01*
X83291546Y-128118647D01*
X83335003Y-127975386D01*
X83346000Y-127863733D01*
X83346000Y-127863724D01*
X83349676Y-127826401D01*
X83346000Y-127789078D01*
X83346000Y-126655811D01*
X83389937Y-126611874D01*
X83503205Y-126442356D01*
X83581226Y-126253998D01*
X83621000Y-126054039D01*
X83621000Y-125850161D01*
X83581226Y-125650202D01*
X83503205Y-125461844D01*
X83389937Y-125292326D01*
X83245774Y-125148163D01*
X83076256Y-125034895D01*
X82887898Y-124956874D01*
X82745900Y-124928629D01*
X82745900Y-124106775D01*
X85122730Y-124106775D01*
X85122730Y-124331282D01*
X85360444Y-124573340D01*
X85457135Y-124652693D01*
X85567449Y-124711657D01*
X85687147Y-124747966D01*
X85811629Y-124760227D01*
X85936110Y-124747966D01*
X86055808Y-124711657D01*
X86166122Y-124652693D01*
X86262814Y-124573340D01*
X86588916Y-124242893D01*
X86588916Y-124018387D01*
X85900017Y-123329488D01*
X85122730Y-124106775D01*
X82745900Y-124106775D01*
X82745900Y-123238271D01*
X84289673Y-123238271D01*
X84301934Y-123362753D01*
X84338243Y-123482451D01*
X84397207Y-123592765D01*
X84476560Y-123689456D01*
X84718618Y-123927170D01*
X84943125Y-123927170D01*
X85720412Y-123149883D01*
X85031513Y-122460984D01*
X84807007Y-122460984D01*
X84476560Y-122787086D01*
X84397207Y-122883778D01*
X84338243Y-122994092D01*
X84301934Y-123113790D01*
X84289673Y-123238271D01*
X82745900Y-123238271D01*
X82745900Y-122290775D01*
X83038830Y-122290775D01*
X83038830Y-122515282D01*
X83276544Y-122757340D01*
X83373235Y-122836693D01*
X83483549Y-122895657D01*
X83603247Y-122931966D01*
X83727729Y-122944227D01*
X83852210Y-122931966D01*
X83971908Y-122895657D01*
X84082222Y-122836693D01*
X84178914Y-122757340D01*
X84505016Y-122426893D01*
X84505016Y-122202387D01*
X83816117Y-121513488D01*
X83038830Y-122290775D01*
X82745900Y-122290775D01*
X82745900Y-122111170D01*
X82859225Y-122111170D01*
X83636512Y-121333883D01*
X82947613Y-120644984D01*
X82745900Y-120644984D01*
X82745900Y-120594122D01*
X82749576Y-120556799D01*
X82745900Y-120519476D01*
X82745900Y-120519467D01*
X82734903Y-120407814D01*
X82691446Y-120264553D01*
X82678454Y-120240247D01*
X82620874Y-120132523D01*
X82549699Y-120045797D01*
X82525901Y-120016799D01*
X82496904Y-119993002D01*
X81122000Y-118618099D01*
X81122000Y-118555961D01*
X81082226Y-118356002D01*
X81004205Y-118167644D01*
X80890937Y-117998126D01*
X80746774Y-117853963D01*
X80577256Y-117740695D01*
X80563507Y-117735000D01*
X82046589Y-117735000D01*
X82090526Y-117778937D01*
X82090526Y-117778937D01*
G37*
X82090526Y-117778937D02*
X82260044Y-117892205D01*
X82448402Y-117970226D01*
X82648361Y-118010000D01*
X82852239Y-118010000D01*
X82936282Y-117993283D01*
X84154067Y-119211069D01*
X84081074Y-119300011D01*
X84022109Y-119410325D01*
X83985799Y-119530023D01*
X83973539Y-119654505D01*
X83981081Y-119731081D01*
X83904505Y-119723539D01*
X83780024Y-119735800D01*
X83660326Y-119772109D01*
X83550012Y-119831073D01*
X83453320Y-119910426D01*
X83127218Y-120240873D01*
X83127218Y-120465379D01*
X83816117Y-121154278D01*
X83830260Y-121140136D01*
X84009865Y-121319741D01*
X83995722Y-121333883D01*
X84684621Y-122022782D01*
X84909127Y-122022782D01*
X85239574Y-121696680D01*
X85318927Y-121599988D01*
X85377891Y-121489674D01*
X85414200Y-121369976D01*
X85426461Y-121245495D01*
X85418919Y-121168919D01*
X85495495Y-121176461D01*
X85619977Y-121164201D01*
X85739675Y-121127891D01*
X85849989Y-121068926D01*
X85938961Y-120995909D01*
X86128068Y-121185056D01*
X86106009Y-121226325D01*
X86069699Y-121346023D01*
X86057439Y-121470505D01*
X86064981Y-121547081D01*
X85988405Y-121539539D01*
X85863924Y-121551800D01*
X85744226Y-121588109D01*
X85633912Y-121647073D01*
X85537220Y-121726426D01*
X85211118Y-122056873D01*
X85211118Y-122281379D01*
X85900017Y-122970278D01*
X85914160Y-122956136D01*
X86093765Y-123135741D01*
X86079622Y-123149883D01*
X86768521Y-123838782D01*
X86993027Y-123838782D01*
X87323474Y-123512680D01*
X87402827Y-123415988D01*
X87461791Y-123305674D01*
X87498100Y-123185976D01*
X87510361Y-123061495D01*
X87502819Y-122984919D01*
X87579395Y-122992461D01*
X87703877Y-122980201D01*
X87823575Y-122943891D01*
X87933889Y-122884926D01*
X88030580Y-122805574D01*
X88324844Y-122511310D01*
X88387763Y-122605474D01*
X88531926Y-122749637D01*
X88701444Y-122862905D01*
X88889802Y-122940926D01*
X89089761Y-122980700D01*
X89293639Y-122980700D01*
X89493598Y-122940926D01*
X89681956Y-122862905D01*
X89737419Y-122825846D01*
X89736928Y-122900000D01*
X89749188Y-123024482D01*
X89785498Y-123144180D01*
X89844463Y-123254494D01*
X89923815Y-123351185D01*
X90020506Y-123430537D01*
X90130820Y-123489502D01*
X90250518Y-123525812D01*
X90375000Y-123538072D01*
X90714250Y-123535000D01*
X90873000Y-123376250D01*
X90873000Y-122277000D01*
X90853000Y-122277000D01*
X90853000Y-122023000D01*
X90873000Y-122023000D01*
X90873000Y-122003000D01*
X91127000Y-122003000D01*
X91127000Y-122023000D01*
X91147000Y-122023000D01*
X91147000Y-122277000D01*
X91127000Y-122277000D01*
X91127000Y-123376250D01*
X91193001Y-123442251D01*
X91193001Y-124743297D01*
X89878998Y-126057301D01*
X89850000Y-126081099D01*
X89826202Y-126110097D01*
X89826201Y-126110098D01*
X89755026Y-126196824D01*
X89684454Y-126328854D01*
X89663675Y-126397356D01*
X89640998Y-126472114D01*
X89636944Y-126513272D01*
X89553394Y-126557931D01*
X89325203Y-126745203D01*
X89137931Y-126973394D01*
X89120000Y-127006940D01*
X89102069Y-126973394D01*
X88914797Y-126745203D01*
X88686606Y-126557931D01*
X88426264Y-126418775D01*
X88143777Y-126333084D01*
X87923619Y-126311400D01*
X87776381Y-126311400D01*
X87556223Y-126333084D01*
X87273736Y-126418775D01*
X87013394Y-126557931D01*
X86785203Y-126745203D01*
X86597931Y-126973394D01*
X86458775Y-127233736D01*
X86373084Y-127516223D01*
X86344149Y-127810000D01*
X86373084Y-128103777D01*
X86458775Y-128386264D01*
X86597931Y-128646606D01*
X86785203Y-128874797D01*
X86793265Y-128881414D01*
X86742220Y-128896898D01*
X86631906Y-128955863D01*
X86535215Y-129035215D01*
X86455863Y-129131906D01*
X86396898Y-129242220D01*
X86360588Y-129361918D01*
X86348328Y-129486400D01*
X86348328Y-130825500D01*
X86325702Y-130825500D01*
X85855203Y-130355002D01*
X85831401Y-130325999D01*
X85715676Y-130231026D01*
X85596939Y-130167559D01*
X85591912Y-130116518D01*
X85555602Y-129996820D01*
X85496637Y-129886506D01*
X85417285Y-129789815D01*
X85320594Y-129710463D01*
X85210280Y-129651498D01*
X85090582Y-129615188D01*
X84966100Y-129602928D01*
X83466100Y-129602928D01*
X83341618Y-129615188D01*
X83221920Y-129651498D01*
X83111606Y-129710463D01*
X83014915Y-129789815D01*
X82966100Y-129849296D01*
X82917285Y-129789815D01*
X82820594Y-129710463D01*
X82710280Y-129651498D01*
X82590582Y-129615188D01*
X82466100Y-129602928D01*
X82001850Y-129606000D01*
X81843100Y-129764750D01*
X81843100Y-130739000D01*
X81863100Y-130739000D01*
X81863100Y-130993000D01*
X81843100Y-130993000D01*
X81843100Y-131013000D01*
X81589100Y-131013000D01*
X81589100Y-130993000D01*
X81569100Y-130993000D01*
X81569100Y-130739000D01*
X81589100Y-130739000D01*
X81589100Y-129764750D01*
X81430350Y-129606000D01*
X80966100Y-129602928D01*
X80841618Y-129615188D01*
X80721920Y-129651498D01*
X80611606Y-129710463D01*
X80514915Y-129789815D01*
X80435563Y-129886506D01*
X80423631Y-129908829D01*
X79489404Y-128974603D01*
X79465601Y-128945599D01*
X79349876Y-128850626D01*
X79217847Y-128780054D01*
X79075677Y-128736928D01*
X79125880Y-128695728D01*
X80106600Y-127715008D01*
X80106600Y-128032478D01*
X80102924Y-128069800D01*
X80106600Y-128107122D01*
X80106600Y-128107132D01*
X80117597Y-128218785D01*
X80150522Y-128327326D01*
X80161054Y-128362046D01*
X80231626Y-128494076D01*
X80269315Y-128540000D01*
X80326599Y-128609801D01*
X80355603Y-128633604D01*
X80741296Y-129019297D01*
X80765099Y-129048301D01*
X80880824Y-129143274D01*
X81012853Y-129213846D01*
X81156114Y-129257303D01*
X81267767Y-129268300D01*
X81267775Y-129268300D01*
X81305100Y-129271976D01*
X81342425Y-129268300D01*
X81866778Y-129268300D01*
X81904100Y-129271976D01*
X81941422Y-129268300D01*
X81941433Y-129268300D01*
X82053086Y-129257303D01*
X82196347Y-129213846D01*
X82328376Y-129143274D01*
X82444101Y-129048301D01*
X82467903Y-129019298D01*
X83097002Y-128390199D01*
X83126001Y-128366401D01*
X83220974Y-128250676D01*
X83291546Y-128118647D01*
X83335003Y-127975386D01*
X83346000Y-127863733D01*
X83346000Y-127863724D01*
X83349676Y-127826401D01*
X83346000Y-127789078D01*
X83346000Y-126655811D01*
X83389937Y-126611874D01*
X83503205Y-126442356D01*
X83581226Y-126253998D01*
X83621000Y-126054039D01*
X83621000Y-125850161D01*
X83581226Y-125650202D01*
X83503205Y-125461844D01*
X83389937Y-125292326D01*
X83245774Y-125148163D01*
X83076256Y-125034895D01*
X82887898Y-124956874D01*
X82745900Y-124928629D01*
X82745900Y-124106775D01*
X85122730Y-124106775D01*
X85122730Y-124331282D01*
X85360444Y-124573340D01*
X85457135Y-124652693D01*
X85567449Y-124711657D01*
X85687147Y-124747966D01*
X85811629Y-124760227D01*
X85936110Y-124747966D01*
X86055808Y-124711657D01*
X86166122Y-124652693D01*
X86262814Y-124573340D01*
X86588916Y-124242893D01*
X86588916Y-124018387D01*
X85900017Y-123329488D01*
X85122730Y-124106775D01*
X82745900Y-124106775D01*
X82745900Y-123238271D01*
X84289673Y-123238271D01*
X84301934Y-123362753D01*
X84338243Y-123482451D01*
X84397207Y-123592765D01*
X84476560Y-123689456D01*
X84718618Y-123927170D01*
X84943125Y-123927170D01*
X85720412Y-123149883D01*
X85031513Y-122460984D01*
X84807007Y-122460984D01*
X84476560Y-122787086D01*
X84397207Y-122883778D01*
X84338243Y-122994092D01*
X84301934Y-123113790D01*
X84289673Y-123238271D01*
X82745900Y-123238271D01*
X82745900Y-122290775D01*
X83038830Y-122290775D01*
X83038830Y-122515282D01*
X83276544Y-122757340D01*
X83373235Y-122836693D01*
X83483549Y-122895657D01*
X83603247Y-122931966D01*
X83727729Y-122944227D01*
X83852210Y-122931966D01*
X83971908Y-122895657D01*
X84082222Y-122836693D01*
X84178914Y-122757340D01*
X84505016Y-122426893D01*
X84505016Y-122202387D01*
X83816117Y-121513488D01*
X83038830Y-122290775D01*
X82745900Y-122290775D01*
X82745900Y-122111170D01*
X82859225Y-122111170D01*
X83636512Y-121333883D01*
X82947613Y-120644984D01*
X82745900Y-120644984D01*
X82745900Y-120594122D01*
X82749576Y-120556799D01*
X82745900Y-120519476D01*
X82745900Y-120519467D01*
X82734903Y-120407814D01*
X82691446Y-120264553D01*
X82678454Y-120240247D01*
X82620874Y-120132523D01*
X82549699Y-120045797D01*
X82525901Y-120016799D01*
X82496904Y-119993002D01*
X81122000Y-118618099D01*
X81122000Y-118555961D01*
X81082226Y-118356002D01*
X81004205Y-118167644D01*
X80890937Y-117998126D01*
X80746774Y-117853963D01*
X80577256Y-117740695D01*
X80563507Y-117735000D01*
X82046589Y-117735000D01*
X82090526Y-117778937D01*
G36*
X98929226Y-126202037D02*
G01*
X99098744Y-126315305D01*
X99287102Y-126393326D01*
X99487061Y-126433100D01*
X99678301Y-126433100D01*
X99678301Y-129288497D01*
X99328716Y-129638082D01*
X99262069Y-129513394D01*
X99074797Y-129285203D01*
X98846606Y-129097931D01*
X98806567Y-129076530D01*
X99020293Y-128916854D01*
X99216817Y-128698488D01*
X99366964Y-128445978D01*
X99464963Y-128169027D01*
X99344464Y-127937000D01*
X98137000Y-127937000D01*
X98137000Y-127957000D01*
X97883000Y-127957000D01*
X97883000Y-127937000D01*
X97863000Y-127937000D01*
X97863000Y-127683000D01*
X97883000Y-127683000D01*
X97883000Y-127663000D01*
X98137000Y-127663000D01*
X98137000Y-127683000D01*
X99344464Y-127683000D01*
X99464963Y-127450973D01*
X99366964Y-127174022D01*
X99216817Y-126921512D01*
X99020293Y-126703146D01*
X98784944Y-126527316D01*
X98519814Y-126400778D01*
X98369026Y-126355042D01*
X98137002Y-126476182D01*
X98137002Y-126338072D01*
X98400000Y-126338072D01*
X98524482Y-126325812D01*
X98644180Y-126289502D01*
X98754494Y-126230537D01*
X98851185Y-126151185D01*
X98863441Y-126136252D01*
X98929226Y-126202037D01*
X98929226Y-126202037D01*
G37*
X98929226Y-126202037D02*
X99098744Y-126315305D01*
X99287102Y-126393326D01*
X99487061Y-126433100D01*
X99678301Y-126433100D01*
X99678301Y-129288497D01*
X99328716Y-129638082D01*
X99262069Y-129513394D01*
X99074797Y-129285203D01*
X98846606Y-129097931D01*
X98806567Y-129076530D01*
X99020293Y-128916854D01*
X99216817Y-128698488D01*
X99366964Y-128445978D01*
X99464963Y-128169027D01*
X99344464Y-127937000D01*
X98137000Y-127937000D01*
X98137000Y-127957000D01*
X97883000Y-127957000D01*
X97883000Y-127937000D01*
X97863000Y-127937000D01*
X97863000Y-127683000D01*
X97883000Y-127683000D01*
X97883000Y-127663000D01*
X98137000Y-127663000D01*
X98137000Y-127683000D01*
X99344464Y-127683000D01*
X99464963Y-127450973D01*
X99366964Y-127174022D01*
X99216817Y-126921512D01*
X99020293Y-126703146D01*
X98784944Y-126527316D01*
X98519814Y-126400778D01*
X98369026Y-126355042D01*
X98137002Y-126476182D01*
X98137002Y-126338072D01*
X98400000Y-126338072D01*
X98524482Y-126325812D01*
X98644180Y-126289502D01*
X98754494Y-126230537D01*
X98851185Y-126151185D01*
X98863441Y-126136252D01*
X98929226Y-126202037D01*
G36*
X110940000Y-126514250D02*
G01*
X111098750Y-126673000D01*
X112073000Y-126673000D01*
X112073000Y-126653000D01*
X112327000Y-126653000D01*
X112327000Y-126673000D01*
X112347000Y-126673000D01*
X112347000Y-126927000D01*
X112327000Y-126927000D01*
X112327000Y-128026250D01*
X112485750Y-128185000D01*
X112825000Y-128188072D01*
X112949482Y-128175812D01*
X113069180Y-128139502D01*
X113179494Y-128080537D01*
X113276185Y-128001185D01*
X113355537Y-127904494D01*
X113414502Y-127794180D01*
X113450812Y-127674482D01*
X113463072Y-127550000D01*
X113462183Y-127415579D01*
X113506599Y-127469701D01*
X113535601Y-127493502D01*
X114580509Y-128538411D01*
X114564378Y-128540000D01*
X110611856Y-128540000D01*
X110577416Y-128456854D01*
X110382617Y-128165316D01*
X110134684Y-127917383D01*
X109843146Y-127722584D01*
X109615932Y-127628469D01*
X109694401Y-127550000D01*
X110936928Y-127550000D01*
X110949188Y-127674482D01*
X110985498Y-127794180D01*
X111044463Y-127904494D01*
X111123815Y-128001185D01*
X111220506Y-128080537D01*
X111330820Y-128139502D01*
X111450518Y-128175812D01*
X111575000Y-128188072D01*
X111914250Y-128185000D01*
X112073000Y-128026250D01*
X112073000Y-126927000D01*
X111098750Y-126927000D01*
X110940000Y-127085750D01*
X110936928Y-127550000D01*
X109694401Y-127550000D01*
X110759802Y-126484600D01*
X110939804Y-126484600D01*
X110940000Y-126514250D01*
X110940000Y-126514250D01*
G37*
X110940000Y-126514250D02*
X111098750Y-126673000D01*
X112073000Y-126673000D01*
X112073000Y-126653000D01*
X112327000Y-126653000D01*
X112327000Y-126673000D01*
X112347000Y-126673000D01*
X112347000Y-126927000D01*
X112327000Y-126927000D01*
X112327000Y-128026250D01*
X112485750Y-128185000D01*
X112825000Y-128188072D01*
X112949482Y-128175812D01*
X113069180Y-128139502D01*
X113179494Y-128080537D01*
X113276185Y-128001185D01*
X113355537Y-127904494D01*
X113414502Y-127794180D01*
X113450812Y-127674482D01*
X113463072Y-127550000D01*
X113462183Y-127415579D01*
X113506599Y-127469701D01*
X113535601Y-127493502D01*
X114580509Y-128538411D01*
X114564378Y-128540000D01*
X110611856Y-128540000D01*
X110577416Y-128456854D01*
X110382617Y-128165316D01*
X110134684Y-127917383D01*
X109843146Y-127722584D01*
X109615932Y-127628469D01*
X109694401Y-127550000D01*
X110936928Y-127550000D01*
X110949188Y-127674482D01*
X110985498Y-127794180D01*
X111044463Y-127904494D01*
X111123815Y-128001185D01*
X111220506Y-128080537D01*
X111330820Y-128139502D01*
X111450518Y-128175812D01*
X111575000Y-128188072D01*
X111914250Y-128185000D01*
X112073000Y-128026250D01*
X112073000Y-126927000D01*
X111098750Y-126927000D01*
X110940000Y-127085750D01*
X110936928Y-127550000D01*
X109694401Y-127550000D01*
X110759802Y-126484600D01*
X110939804Y-126484600D01*
X110940000Y-126514250D01*
G36*
X73721000Y-115427402D02*
G01*
X73744799Y-115456401D01*
X73860524Y-115551374D01*
X73992553Y-115621946D01*
X74135814Y-115665403D01*
X74165861Y-115668362D01*
X74563300Y-116065802D01*
X74563300Y-116588678D01*
X74559624Y-116626000D01*
X74563300Y-116663322D01*
X74563300Y-116663333D01*
X74574298Y-116774986D01*
X74576160Y-116781125D01*
X74617754Y-116918246D01*
X74688326Y-117050276D01*
X74756461Y-117133298D01*
X74783300Y-117166001D01*
X74812298Y-117189799D01*
X78647298Y-121024800D01*
X78143479Y-121024800D01*
X78103642Y-120984949D01*
X78079801Y-120955899D01*
X78020306Y-120907073D01*
X77964185Y-120861000D01*
X77964131Y-120860971D01*
X77964076Y-120860926D01*
X77894811Y-120823903D01*
X77832168Y-120790405D01*
X77832106Y-120790386D01*
X77832046Y-120790354D01*
X77758268Y-120767974D01*
X77688915Y-120746923D01*
X77688851Y-120746917D01*
X77688786Y-120746897D01*
X77610614Y-120739198D01*
X77539932Y-120732224D01*
X77539871Y-120732230D01*
X77539800Y-120732223D01*
X77460305Y-120740053D01*
X77390944Y-120746872D01*
X77390884Y-120746890D01*
X77390814Y-120746897D01*
X77314700Y-120769985D01*
X77269762Y-120783608D01*
X77230580Y-120744426D01*
X77133889Y-120665074D01*
X77023575Y-120606109D01*
X76903877Y-120569799D01*
X76779395Y-120557539D01*
X76702819Y-120565081D01*
X76710361Y-120488505D01*
X76698100Y-120364024D01*
X76661791Y-120244326D01*
X76602827Y-120134012D01*
X76523474Y-120037320D01*
X76193027Y-119711218D01*
X75968521Y-119711218D01*
X75279622Y-120400117D01*
X75293765Y-120414260D01*
X75114160Y-120593865D01*
X75100017Y-120579722D01*
X74411118Y-121268621D01*
X74411118Y-121277218D01*
X74384621Y-121277218D01*
X73695722Y-121966117D01*
X73709865Y-121980260D01*
X73530260Y-122159865D01*
X73516117Y-122145722D01*
X72827218Y-122834621D01*
X72827218Y-123059127D01*
X73153320Y-123389574D01*
X73250012Y-123468927D01*
X73360326Y-123527891D01*
X73480024Y-123564200D01*
X73604505Y-123576461D01*
X73681081Y-123568919D01*
X73673539Y-123645495D01*
X73685799Y-123769977D01*
X73722109Y-123889675D01*
X73781074Y-123999989D01*
X73860426Y-124096680D01*
X74921086Y-125157340D01*
X75017777Y-125236692D01*
X75128091Y-125295657D01*
X75247789Y-125331967D01*
X75372271Y-125344227D01*
X75464743Y-125335120D01*
X75429645Y-125450823D01*
X75417385Y-125575305D01*
X75429645Y-125699787D01*
X75465955Y-125819485D01*
X75524920Y-125929799D01*
X75604272Y-126026490D01*
X76523510Y-126945728D01*
X76620201Y-127025080D01*
X76730515Y-127084045D01*
X76850213Y-127120355D01*
X76974695Y-127132615D01*
X77099177Y-127120355D01*
X77159616Y-127102021D01*
X77129645Y-127200823D01*
X77117385Y-127325305D01*
X77119926Y-127351107D01*
X77049177Y-127329645D01*
X76924695Y-127317385D01*
X76800213Y-127329645D01*
X76680515Y-127365955D01*
X76570201Y-127424920D01*
X76558953Y-127434151D01*
X71965300Y-122840499D01*
X71965300Y-122142407D01*
X72013307Y-122232222D01*
X72092660Y-122328914D01*
X72423107Y-122655016D01*
X72647613Y-122655016D01*
X73336512Y-121966117D01*
X72559225Y-121188830D01*
X72334718Y-121188830D01*
X72092660Y-121426544D01*
X72013307Y-121523235D01*
X71965300Y-121613050D01*
X71965300Y-120784718D01*
X72738830Y-120784718D01*
X72738830Y-121009225D01*
X73516117Y-121786512D01*
X74205016Y-121097613D01*
X74205016Y-121089016D01*
X74231513Y-121089016D01*
X74920412Y-120400117D01*
X74143125Y-119622830D01*
X73918618Y-119622830D01*
X73676560Y-119860544D01*
X73597207Y-119957235D01*
X73538243Y-120067549D01*
X73501934Y-120187247D01*
X73489673Y-120311729D01*
X73494661Y-120362366D01*
X73427729Y-120355773D01*
X73303247Y-120368034D01*
X73183549Y-120404343D01*
X73073235Y-120463307D01*
X72976544Y-120542660D01*
X72738830Y-120784718D01*
X71965300Y-120784718D01*
X71965300Y-119218718D01*
X74322730Y-119218718D01*
X74322730Y-119443225D01*
X75100017Y-120220512D01*
X75788916Y-119531613D01*
X75788916Y-119307107D01*
X75462814Y-118976660D01*
X75366122Y-118897307D01*
X75255808Y-118838343D01*
X75136110Y-118802034D01*
X75011629Y-118789773D01*
X74887147Y-118802034D01*
X74767449Y-118838343D01*
X74657135Y-118897307D01*
X74560444Y-118976660D01*
X74322730Y-119218718D01*
X71965300Y-119218718D01*
X71965300Y-113671701D01*
X73721000Y-115427402D01*
X73721000Y-115427402D01*
G37*
X73721000Y-115427402D02*
X73744799Y-115456401D01*
X73860524Y-115551374D01*
X73992553Y-115621946D01*
X74135814Y-115665403D01*
X74165861Y-115668362D01*
X74563300Y-116065802D01*
X74563300Y-116588678D01*
X74559624Y-116626000D01*
X74563300Y-116663322D01*
X74563300Y-116663333D01*
X74574298Y-116774986D01*
X74576160Y-116781125D01*
X74617754Y-116918246D01*
X74688326Y-117050276D01*
X74756461Y-117133298D01*
X74783300Y-117166001D01*
X74812298Y-117189799D01*
X78647298Y-121024800D01*
X78143479Y-121024800D01*
X78103642Y-120984949D01*
X78079801Y-120955899D01*
X78020306Y-120907073D01*
X77964185Y-120861000D01*
X77964131Y-120860971D01*
X77964076Y-120860926D01*
X77894811Y-120823903D01*
X77832168Y-120790405D01*
X77832106Y-120790386D01*
X77832046Y-120790354D01*
X77758268Y-120767974D01*
X77688915Y-120746923D01*
X77688851Y-120746917D01*
X77688786Y-120746897D01*
X77610614Y-120739198D01*
X77539932Y-120732224D01*
X77539871Y-120732230D01*
X77539800Y-120732223D01*
X77460305Y-120740053D01*
X77390944Y-120746872D01*
X77390884Y-120746890D01*
X77390814Y-120746897D01*
X77314700Y-120769985D01*
X77269762Y-120783608D01*
X77230580Y-120744426D01*
X77133889Y-120665074D01*
X77023575Y-120606109D01*
X76903877Y-120569799D01*
X76779395Y-120557539D01*
X76702819Y-120565081D01*
X76710361Y-120488505D01*
X76698100Y-120364024D01*
X76661791Y-120244326D01*
X76602827Y-120134012D01*
X76523474Y-120037320D01*
X76193027Y-119711218D01*
X75968521Y-119711218D01*
X75279622Y-120400117D01*
X75293765Y-120414260D01*
X75114160Y-120593865D01*
X75100017Y-120579722D01*
X74411118Y-121268621D01*
X74411118Y-121277218D01*
X74384621Y-121277218D01*
X73695722Y-121966117D01*
X73709865Y-121980260D01*
X73530260Y-122159865D01*
X73516117Y-122145722D01*
X72827218Y-122834621D01*
X72827218Y-123059127D01*
X73153320Y-123389574D01*
X73250012Y-123468927D01*
X73360326Y-123527891D01*
X73480024Y-123564200D01*
X73604505Y-123576461D01*
X73681081Y-123568919D01*
X73673539Y-123645495D01*
X73685799Y-123769977D01*
X73722109Y-123889675D01*
X73781074Y-123999989D01*
X73860426Y-124096680D01*
X74921086Y-125157340D01*
X75017777Y-125236692D01*
X75128091Y-125295657D01*
X75247789Y-125331967D01*
X75372271Y-125344227D01*
X75464743Y-125335120D01*
X75429645Y-125450823D01*
X75417385Y-125575305D01*
X75429645Y-125699787D01*
X75465955Y-125819485D01*
X75524920Y-125929799D01*
X75604272Y-126026490D01*
X76523510Y-126945728D01*
X76620201Y-127025080D01*
X76730515Y-127084045D01*
X76850213Y-127120355D01*
X76974695Y-127132615D01*
X77099177Y-127120355D01*
X77159616Y-127102021D01*
X77129645Y-127200823D01*
X77117385Y-127325305D01*
X77119926Y-127351107D01*
X77049177Y-127329645D01*
X76924695Y-127317385D01*
X76800213Y-127329645D01*
X76680515Y-127365955D01*
X76570201Y-127424920D01*
X76558953Y-127434151D01*
X71965300Y-122840499D01*
X71965300Y-122142407D01*
X72013307Y-122232222D01*
X72092660Y-122328914D01*
X72423107Y-122655016D01*
X72647613Y-122655016D01*
X73336512Y-121966117D01*
X72559225Y-121188830D01*
X72334718Y-121188830D01*
X72092660Y-121426544D01*
X72013307Y-121523235D01*
X71965300Y-121613050D01*
X71965300Y-120784718D01*
X72738830Y-120784718D01*
X72738830Y-121009225D01*
X73516117Y-121786512D01*
X74205016Y-121097613D01*
X74205016Y-121089016D01*
X74231513Y-121089016D01*
X74920412Y-120400117D01*
X74143125Y-119622830D01*
X73918618Y-119622830D01*
X73676560Y-119860544D01*
X73597207Y-119957235D01*
X73538243Y-120067549D01*
X73501934Y-120187247D01*
X73489673Y-120311729D01*
X73494661Y-120362366D01*
X73427729Y-120355773D01*
X73303247Y-120368034D01*
X73183549Y-120404343D01*
X73073235Y-120463307D01*
X72976544Y-120542660D01*
X72738830Y-120784718D01*
X71965300Y-120784718D01*
X71965300Y-119218718D01*
X74322730Y-119218718D01*
X74322730Y-119443225D01*
X75100017Y-120220512D01*
X75788916Y-119531613D01*
X75788916Y-119307107D01*
X75462814Y-118976660D01*
X75366122Y-118897307D01*
X75255808Y-118838343D01*
X75136110Y-118802034D01*
X75011629Y-118789773D01*
X74887147Y-118802034D01*
X74767449Y-118838343D01*
X74657135Y-118897307D01*
X74560444Y-118976660D01*
X74322730Y-119218718D01*
X71965300Y-119218718D01*
X71965300Y-113671701D01*
X73721000Y-115427402D01*
G36*
X97882998Y-126476182D02*
G01*
X97650974Y-126355042D01*
X97500186Y-126400778D01*
X97428421Y-126435029D01*
X97361101Y-126352999D01*
X97342912Y-126338072D01*
X97882998Y-126338072D01*
X97882998Y-126476182D01*
X97882998Y-126476182D01*
G37*
X97882998Y-126476182D02*
X97650974Y-126355042D01*
X97500186Y-126400778D01*
X97428421Y-126435029D01*
X97361101Y-126352999D01*
X97342912Y-126338072D01*
X97882998Y-126338072D01*
X97882998Y-126476182D01*
G36*
X97710901Y-120011003D02*
G01*
X97734699Y-120040001D01*
X97763697Y-120063799D01*
X97850423Y-120134974D01*
X97969161Y-120198441D01*
X97974188Y-120249482D01*
X98010498Y-120369180D01*
X98069463Y-120479494D01*
X98148815Y-120576185D01*
X98245506Y-120655537D01*
X98355820Y-120714502D01*
X98475518Y-120750812D01*
X98600000Y-120763072D01*
X98655425Y-120763072D01*
X98715026Y-120874576D01*
X98794359Y-120971244D01*
X98815574Y-121077898D01*
X98893595Y-121266256D01*
X99006863Y-121435774D01*
X99151026Y-121579937D01*
X99320544Y-121693205D01*
X99508902Y-121771226D01*
X99708861Y-121811000D01*
X99912739Y-121811000D01*
X100112698Y-121771226D01*
X100301056Y-121693205D01*
X100470574Y-121579937D01*
X100614737Y-121435774D01*
X100728005Y-121266256D01*
X100806026Y-121077898D01*
X100845800Y-120877939D01*
X100845800Y-120709146D01*
X100855820Y-120714502D01*
X100975518Y-120750812D01*
X101100000Y-120763072D01*
X101564250Y-120760000D01*
X101722998Y-120601252D01*
X101722998Y-120639701D01*
X99927303Y-122435396D01*
X99898299Y-122459199D01*
X99849595Y-122518546D01*
X99803326Y-122574924D01*
X99763786Y-122648898D01*
X99732754Y-122706954D01*
X99689297Y-122850215D01*
X99678300Y-122961868D01*
X99678300Y-122961878D01*
X99674624Y-122999200D01*
X99678300Y-123036523D01*
X99678300Y-124363100D01*
X99568031Y-124363100D01*
X99533147Y-124344454D01*
X99389886Y-124300997D01*
X99278233Y-124290000D01*
X99278222Y-124290000D01*
X99240900Y-124286324D01*
X99203578Y-124290000D01*
X99027238Y-124290000D01*
X99025812Y-124275518D01*
X98989502Y-124155820D01*
X98930537Y-124045506D01*
X98851185Y-123948815D01*
X98754494Y-123869463D01*
X98644180Y-123810498D01*
X98524482Y-123774188D01*
X98400000Y-123761928D01*
X96900000Y-123761928D01*
X96775518Y-123774188D01*
X96672329Y-123805490D01*
X96660374Y-123783124D01*
X96628196Y-123743915D01*
X96565401Y-123667399D01*
X96536404Y-123643602D01*
X95662208Y-122769407D01*
X95660000Y-122435750D01*
X95501250Y-122277000D01*
X94527000Y-122277000D01*
X94527000Y-122297000D01*
X94273000Y-122297000D01*
X94273000Y-122277000D01*
X94253000Y-122277000D01*
X94253000Y-122023000D01*
X94273000Y-122023000D01*
X94273000Y-122003000D01*
X94527000Y-122003000D01*
X94527000Y-122023000D01*
X95501250Y-122023000D01*
X95660000Y-121864250D01*
X95663072Y-121400000D01*
X95654855Y-121316567D01*
X95717201Y-121265401D01*
X95741003Y-121236398D01*
X96463202Y-120514199D01*
X96492201Y-120490401D01*
X96587174Y-120374676D01*
X96657746Y-120242647D01*
X96701203Y-120099386D01*
X96711864Y-119991147D01*
X96756137Y-119946874D01*
X96869405Y-119777356D01*
X96947426Y-119588998D01*
X96987200Y-119389039D01*
X96987200Y-119287302D01*
X97710901Y-120011003D01*
X97710901Y-120011003D01*
G37*
X97710901Y-120011003D02*
X97734699Y-120040001D01*
X97763697Y-120063799D01*
X97850423Y-120134974D01*
X97969161Y-120198441D01*
X97974188Y-120249482D01*
X98010498Y-120369180D01*
X98069463Y-120479494D01*
X98148815Y-120576185D01*
X98245506Y-120655537D01*
X98355820Y-120714502D01*
X98475518Y-120750812D01*
X98600000Y-120763072D01*
X98655425Y-120763072D01*
X98715026Y-120874576D01*
X98794359Y-120971244D01*
X98815574Y-121077898D01*
X98893595Y-121266256D01*
X99006863Y-121435774D01*
X99151026Y-121579937D01*
X99320544Y-121693205D01*
X99508902Y-121771226D01*
X99708861Y-121811000D01*
X99912739Y-121811000D01*
X100112698Y-121771226D01*
X100301056Y-121693205D01*
X100470574Y-121579937D01*
X100614737Y-121435774D01*
X100728005Y-121266256D01*
X100806026Y-121077898D01*
X100845800Y-120877939D01*
X100845800Y-120709146D01*
X100855820Y-120714502D01*
X100975518Y-120750812D01*
X101100000Y-120763072D01*
X101564250Y-120760000D01*
X101722998Y-120601252D01*
X101722998Y-120639701D01*
X99927303Y-122435396D01*
X99898299Y-122459199D01*
X99849595Y-122518546D01*
X99803326Y-122574924D01*
X99763786Y-122648898D01*
X99732754Y-122706954D01*
X99689297Y-122850215D01*
X99678300Y-122961868D01*
X99678300Y-122961878D01*
X99674624Y-122999200D01*
X99678300Y-123036523D01*
X99678300Y-124363100D01*
X99568031Y-124363100D01*
X99533147Y-124344454D01*
X99389886Y-124300997D01*
X99278233Y-124290000D01*
X99278222Y-124290000D01*
X99240900Y-124286324D01*
X99203578Y-124290000D01*
X99027238Y-124290000D01*
X99025812Y-124275518D01*
X98989502Y-124155820D01*
X98930537Y-124045506D01*
X98851185Y-123948815D01*
X98754494Y-123869463D01*
X98644180Y-123810498D01*
X98524482Y-123774188D01*
X98400000Y-123761928D01*
X96900000Y-123761928D01*
X96775518Y-123774188D01*
X96672329Y-123805490D01*
X96660374Y-123783124D01*
X96628196Y-123743915D01*
X96565401Y-123667399D01*
X96536404Y-123643602D01*
X95662208Y-122769407D01*
X95660000Y-122435750D01*
X95501250Y-122277000D01*
X94527000Y-122277000D01*
X94527000Y-122297000D01*
X94273000Y-122297000D01*
X94273000Y-122277000D01*
X94253000Y-122277000D01*
X94253000Y-122023000D01*
X94273000Y-122023000D01*
X94273000Y-122003000D01*
X94527000Y-122003000D01*
X94527000Y-122023000D01*
X95501250Y-122023000D01*
X95660000Y-121864250D01*
X95663072Y-121400000D01*
X95654855Y-121316567D01*
X95717201Y-121265401D01*
X95741003Y-121236398D01*
X96463202Y-120514199D01*
X96492201Y-120490401D01*
X96587174Y-120374676D01*
X96657746Y-120242647D01*
X96701203Y-120099386D01*
X96711864Y-119991147D01*
X96756137Y-119946874D01*
X96869405Y-119777356D01*
X96947426Y-119588998D01*
X96987200Y-119389039D01*
X96987200Y-119287302D01*
X97710901Y-120011003D01*
G36*
X102335901Y-115411003D02*
G01*
X102359699Y-115440001D01*
X102475424Y-115534974D01*
X102586928Y-115594575D01*
X102586928Y-115650000D01*
X102599188Y-115774482D01*
X102635498Y-115894180D01*
X102694463Y-116004494D01*
X102773815Y-116101185D01*
X102833296Y-116150000D01*
X102773815Y-116198815D01*
X102694463Y-116295506D01*
X102635498Y-116405820D01*
X102599188Y-116525518D01*
X102586928Y-116650000D01*
X102590000Y-117114250D01*
X102748750Y-117273000D01*
X103723000Y-117273000D01*
X103723000Y-117253000D01*
X103977000Y-117253000D01*
X103977000Y-117273000D01*
X103997000Y-117273000D01*
X103997000Y-117527000D01*
X103977000Y-117527000D01*
X103977000Y-117547000D01*
X103723000Y-117547000D01*
X103723000Y-117527000D01*
X102748750Y-117527000D01*
X102590000Y-117685750D01*
X102586928Y-118150000D01*
X102595492Y-118236958D01*
X102135750Y-118240000D01*
X101977000Y-118398750D01*
X101977000Y-119373000D01*
X101997000Y-119373000D01*
X101997000Y-119627000D01*
X101977000Y-119627000D01*
X101977000Y-119647000D01*
X101723000Y-119647000D01*
X101723000Y-119627000D01*
X101703000Y-119627000D01*
X101703000Y-119373000D01*
X101723000Y-119373000D01*
X101723000Y-118398750D01*
X101564250Y-118240000D01*
X101100000Y-118236928D01*
X100975518Y-118249188D01*
X100855820Y-118285498D01*
X100745506Y-118344463D01*
X100648815Y-118423815D01*
X100600000Y-118483296D01*
X100551185Y-118423815D01*
X100454494Y-118344463D01*
X100344180Y-118285498D01*
X100224482Y-118249188D01*
X100100000Y-118236928D01*
X98600000Y-118236928D01*
X98475518Y-118249188D01*
X98355820Y-118285498D01*
X98245506Y-118344463D01*
X98217197Y-118367695D01*
X97634488Y-117784987D01*
X97635176Y-117778000D01*
X97631500Y-117740675D01*
X97631500Y-115253711D01*
X97675437Y-115209774D01*
X97788705Y-115040256D01*
X97866726Y-114851898D01*
X97906500Y-114651939D01*
X97906500Y-114448061D01*
X97866726Y-114248102D01*
X97788705Y-114059744D01*
X97778787Y-114044900D01*
X100969799Y-114044900D01*
X102335901Y-115411003D01*
X102335901Y-115411003D01*
G37*
X102335901Y-115411003D02*
X102359699Y-115440001D01*
X102475424Y-115534974D01*
X102586928Y-115594575D01*
X102586928Y-115650000D01*
X102599188Y-115774482D01*
X102635498Y-115894180D01*
X102694463Y-116004494D01*
X102773815Y-116101185D01*
X102833296Y-116150000D01*
X102773815Y-116198815D01*
X102694463Y-116295506D01*
X102635498Y-116405820D01*
X102599188Y-116525518D01*
X102586928Y-116650000D01*
X102590000Y-117114250D01*
X102748750Y-117273000D01*
X103723000Y-117273000D01*
X103723000Y-117253000D01*
X103977000Y-117253000D01*
X103977000Y-117273000D01*
X103997000Y-117273000D01*
X103997000Y-117527000D01*
X103977000Y-117527000D01*
X103977000Y-117547000D01*
X103723000Y-117547000D01*
X103723000Y-117527000D01*
X102748750Y-117527000D01*
X102590000Y-117685750D01*
X102586928Y-118150000D01*
X102595492Y-118236958D01*
X102135750Y-118240000D01*
X101977000Y-118398750D01*
X101977000Y-119373000D01*
X101997000Y-119373000D01*
X101997000Y-119627000D01*
X101977000Y-119627000D01*
X101977000Y-119647000D01*
X101723000Y-119647000D01*
X101723000Y-119627000D01*
X101703000Y-119627000D01*
X101703000Y-119373000D01*
X101723000Y-119373000D01*
X101723000Y-118398750D01*
X101564250Y-118240000D01*
X101100000Y-118236928D01*
X100975518Y-118249188D01*
X100855820Y-118285498D01*
X100745506Y-118344463D01*
X100648815Y-118423815D01*
X100600000Y-118483296D01*
X100551185Y-118423815D01*
X100454494Y-118344463D01*
X100344180Y-118285498D01*
X100224482Y-118249188D01*
X100100000Y-118236928D01*
X98600000Y-118236928D01*
X98475518Y-118249188D01*
X98355820Y-118285498D01*
X98245506Y-118344463D01*
X98217197Y-118367695D01*
X97634488Y-117784987D01*
X97635176Y-117778000D01*
X97631500Y-117740675D01*
X97631500Y-115253711D01*
X97675437Y-115209774D01*
X97788705Y-115040256D01*
X97866726Y-114851898D01*
X97906500Y-114651939D01*
X97906500Y-114448061D01*
X97866726Y-114248102D01*
X97788705Y-114059744D01*
X97778787Y-114044900D01*
X100969799Y-114044900D01*
X102335901Y-115411003D01*
G36*
X92102501Y-109896503D02*
G01*
X92126299Y-109925501D01*
X92242024Y-110020474D01*
X92374053Y-110091046D01*
X92517314Y-110134503D01*
X92628967Y-110145500D01*
X92628975Y-110145500D01*
X92666300Y-110149176D01*
X92703625Y-110145500D01*
X93057098Y-110145500D01*
X90118698Y-113083901D01*
X90089700Y-113107699D01*
X90065902Y-113136697D01*
X90065901Y-113136698D01*
X89994726Y-113223424D01*
X89924154Y-113355454D01*
X89903151Y-113424695D01*
X89880698Y-113498714D01*
X89870301Y-113604272D01*
X89866024Y-113647700D01*
X89869701Y-113685032D01*
X89869700Y-116213748D01*
X89821995Y-116285144D01*
X89743974Y-116473502D01*
X89704200Y-116673461D01*
X89704200Y-116877339D01*
X89743974Y-117077298D01*
X89821995Y-117265656D01*
X89935263Y-117435174D01*
X90079426Y-117579337D01*
X90122608Y-117608190D01*
X89514103Y-118216696D01*
X89485099Y-118240499D01*
X89475108Y-118252674D01*
X89456639Y-118249000D01*
X89252761Y-118249000D01*
X89052802Y-118288774D01*
X88864444Y-118366795D01*
X88694926Y-118480063D01*
X88550763Y-118624226D01*
X88437495Y-118793744D01*
X88359474Y-118982102D01*
X88319700Y-119182061D01*
X88319700Y-119345198D01*
X84856200Y-115881699D01*
X84856200Y-113349115D01*
X85012998Y-113317926D01*
X85201356Y-113239905D01*
X85370874Y-113126637D01*
X85515037Y-112982474D01*
X85628305Y-112812956D01*
X85706326Y-112624598D01*
X85746100Y-112424639D01*
X85746100Y-112362501D01*
X86888604Y-111219998D01*
X86917601Y-111196201D01*
X86959129Y-111145599D01*
X87012574Y-111080477D01*
X87083146Y-110948447D01*
X87089787Y-110926554D01*
X87126603Y-110805186D01*
X87129458Y-110776200D01*
X87250000Y-110788072D01*
X87714250Y-110785000D01*
X87873000Y-110626250D01*
X87873000Y-109627000D01*
X88127000Y-109627000D01*
X88127000Y-110626250D01*
X88285750Y-110785000D01*
X88750000Y-110788072D01*
X88874482Y-110775812D01*
X88994180Y-110739502D01*
X89104494Y-110680537D01*
X89201185Y-110601185D01*
X89280537Y-110504494D01*
X89339502Y-110394180D01*
X89375812Y-110274482D01*
X89388072Y-110150000D01*
X89385000Y-109785750D01*
X89226250Y-109627000D01*
X88127000Y-109627000D01*
X87873000Y-109627000D01*
X87853000Y-109627000D01*
X87853000Y-109373000D01*
X87873000Y-109373000D01*
X87873000Y-109353000D01*
X88127000Y-109353000D01*
X88127000Y-109373000D01*
X89226250Y-109373000D01*
X89314950Y-109284300D01*
X91490299Y-109284300D01*
X92102501Y-109896503D01*
X92102501Y-109896503D01*
G37*
X92102501Y-109896503D02*
X92126299Y-109925501D01*
X92242024Y-110020474D01*
X92374053Y-110091046D01*
X92517314Y-110134503D01*
X92628967Y-110145500D01*
X92628975Y-110145500D01*
X92666300Y-110149176D01*
X92703625Y-110145500D01*
X93057098Y-110145500D01*
X90118698Y-113083901D01*
X90089700Y-113107699D01*
X90065902Y-113136697D01*
X90065901Y-113136698D01*
X89994726Y-113223424D01*
X89924154Y-113355454D01*
X89903151Y-113424695D01*
X89880698Y-113498714D01*
X89870301Y-113604272D01*
X89866024Y-113647700D01*
X89869701Y-113685032D01*
X89869700Y-116213748D01*
X89821995Y-116285144D01*
X89743974Y-116473502D01*
X89704200Y-116673461D01*
X89704200Y-116877339D01*
X89743974Y-117077298D01*
X89821995Y-117265656D01*
X89935263Y-117435174D01*
X90079426Y-117579337D01*
X90122608Y-117608190D01*
X89514103Y-118216696D01*
X89485099Y-118240499D01*
X89475108Y-118252674D01*
X89456639Y-118249000D01*
X89252761Y-118249000D01*
X89052802Y-118288774D01*
X88864444Y-118366795D01*
X88694926Y-118480063D01*
X88550763Y-118624226D01*
X88437495Y-118793744D01*
X88359474Y-118982102D01*
X88319700Y-119182061D01*
X88319700Y-119345198D01*
X84856200Y-115881699D01*
X84856200Y-113349115D01*
X85012998Y-113317926D01*
X85201356Y-113239905D01*
X85370874Y-113126637D01*
X85515037Y-112982474D01*
X85628305Y-112812956D01*
X85706326Y-112624598D01*
X85746100Y-112424639D01*
X85746100Y-112362501D01*
X86888604Y-111219998D01*
X86917601Y-111196201D01*
X86959129Y-111145599D01*
X87012574Y-111080477D01*
X87083146Y-110948447D01*
X87089787Y-110926554D01*
X87126603Y-110805186D01*
X87129458Y-110776200D01*
X87250000Y-110788072D01*
X87714250Y-110785000D01*
X87873000Y-110626250D01*
X87873000Y-109627000D01*
X88127000Y-109627000D01*
X88127000Y-110626250D01*
X88285750Y-110785000D01*
X88750000Y-110788072D01*
X88874482Y-110775812D01*
X88994180Y-110739502D01*
X89104494Y-110680537D01*
X89201185Y-110601185D01*
X89280537Y-110504494D01*
X89339502Y-110394180D01*
X89375812Y-110274482D01*
X89388072Y-110150000D01*
X89385000Y-109785750D01*
X89226250Y-109627000D01*
X88127000Y-109627000D01*
X87873000Y-109627000D01*
X87853000Y-109627000D01*
X87853000Y-109373000D01*
X87873000Y-109373000D01*
X87873000Y-109353000D01*
X88127000Y-109353000D01*
X88127000Y-109373000D01*
X89226250Y-109373000D01*
X89314950Y-109284300D01*
X91490299Y-109284300D01*
X92102501Y-109896503D01*
G36*
X102110226Y-111474776D02*
G01*
X102181401Y-111561502D01*
X102205200Y-111590501D01*
X102234198Y-111614299D01*
X104131826Y-113511928D01*
X103225000Y-113511928D01*
X103100518Y-113524188D01*
X102980820Y-113560498D01*
X102870506Y-113619463D01*
X102773815Y-113698815D01*
X102773590Y-113699089D01*
X101848404Y-112773903D01*
X101824601Y-112744899D01*
X101708876Y-112649926D01*
X101576847Y-112579354D01*
X101433586Y-112535897D01*
X101321933Y-112524900D01*
X101321922Y-112524900D01*
X101284600Y-112521224D01*
X101247278Y-112524900D01*
X101089803Y-112524900D01*
X101141101Y-112482801D01*
X101164903Y-112453798D01*
X101836102Y-111782599D01*
X101865101Y-111758801D01*
X101960074Y-111643076D01*
X101978050Y-111609446D01*
X102030646Y-111511047D01*
X102058973Y-111417665D01*
X102070680Y-111403400D01*
X102072074Y-111403400D01*
X102110226Y-111474776D01*
X102110226Y-111474776D01*
G37*
X102110226Y-111474776D02*
X102181401Y-111561502D01*
X102205200Y-111590501D01*
X102234198Y-111614299D01*
X104131826Y-113511928D01*
X103225000Y-113511928D01*
X103100518Y-113524188D01*
X102980820Y-113560498D01*
X102870506Y-113619463D01*
X102773815Y-113698815D01*
X102773590Y-113699089D01*
X101848404Y-112773903D01*
X101824601Y-112744899D01*
X101708876Y-112649926D01*
X101576847Y-112579354D01*
X101433586Y-112535897D01*
X101321933Y-112524900D01*
X101321922Y-112524900D01*
X101284600Y-112521224D01*
X101247278Y-112524900D01*
X101089803Y-112524900D01*
X101141101Y-112482801D01*
X101164903Y-112453798D01*
X101836102Y-111782599D01*
X101865101Y-111758801D01*
X101960074Y-111643076D01*
X101978050Y-111609446D01*
X102030646Y-111511047D01*
X102058973Y-111417665D01*
X102070680Y-111403400D01*
X102072074Y-111403400D01*
X102110226Y-111474776D01*
G36*
X110365000Y-103777002D02*
G01*
X110523748Y-103777002D01*
X110365000Y-103935750D01*
X110361928Y-104300000D01*
X110374188Y-104424482D01*
X110410498Y-104544180D01*
X110469463Y-104654494D01*
X110548815Y-104751185D01*
X110645506Y-104830537D01*
X110755820Y-104889502D01*
X110875518Y-104925812D01*
X111000000Y-104938072D01*
X111067503Y-104937625D01*
X111054188Y-104981518D01*
X111041928Y-105106000D01*
X111045000Y-106070250D01*
X111203750Y-106229000D01*
X112053000Y-106229000D01*
X112053000Y-106209000D01*
X112245401Y-106209000D01*
X112245400Y-110243098D01*
X112194447Y-110294052D01*
X112169502Y-110211820D01*
X112110537Y-110101506D01*
X112031185Y-110004815D01*
X111971704Y-109956000D01*
X112031185Y-109907185D01*
X112110537Y-109810494D01*
X112169502Y-109700180D01*
X112205812Y-109580482D01*
X112218072Y-109456000D01*
X112218072Y-108456000D01*
X112205812Y-108331518D01*
X112169502Y-108211820D01*
X112110537Y-108101506D01*
X112053000Y-108031397D01*
X112053000Y-106483000D01*
X111203750Y-106483000D01*
X111045000Y-106641750D01*
X111041928Y-107606000D01*
X111054188Y-107730482D01*
X111080714Y-107817928D01*
X110002743Y-107817928D01*
X110059181Y-107678786D01*
X109000000Y-106619605D01*
X107940819Y-107678786D01*
X108054078Y-107958015D01*
X108368403Y-108113387D01*
X108707000Y-108204452D01*
X109056858Y-108227709D01*
X109191405Y-108210123D01*
X109190498Y-108211820D01*
X109154188Y-108331518D01*
X109141928Y-108456000D01*
X109141928Y-109456000D01*
X109154188Y-109580482D01*
X109190498Y-109700180D01*
X109249463Y-109810494D01*
X109328815Y-109907185D01*
X109388296Y-109956000D01*
X109328815Y-110004815D01*
X109249463Y-110101506D01*
X109190498Y-110211820D01*
X109154188Y-110331518D01*
X109141928Y-110456000D01*
X109141928Y-111456000D01*
X109149053Y-111528347D01*
X109073199Y-111590599D01*
X109049401Y-111619597D01*
X107420300Y-113248699D01*
X107420300Y-110109222D01*
X107423976Y-110071899D01*
X107420300Y-110034576D01*
X107420300Y-110034567D01*
X107409303Y-109922914D01*
X107365846Y-109779653D01*
X107295274Y-109647624D01*
X107200301Y-109531899D01*
X107171303Y-109508101D01*
X105878101Y-108214900D01*
X107256662Y-106836339D01*
X107257733Y-106844530D01*
X107370130Y-107176657D01*
X107481985Y-107385922D01*
X107761214Y-107499181D01*
X108820395Y-106440000D01*
X109179605Y-106440000D01*
X110238786Y-107499181D01*
X110518015Y-107385922D01*
X110673387Y-107071597D01*
X110764452Y-106733000D01*
X110787709Y-106383142D01*
X110742267Y-106035470D01*
X110629870Y-105703343D01*
X110518015Y-105494078D01*
X110238786Y-105380819D01*
X109179605Y-106440000D01*
X108820395Y-106440000D01*
X108806253Y-106425858D01*
X108985858Y-106246253D01*
X109000000Y-106260395D01*
X110059181Y-105201214D01*
X109945922Y-104921985D01*
X109631597Y-104766613D01*
X109391076Y-104701925D01*
X110365000Y-103728002D01*
X110365000Y-103777002D01*
X110365000Y-103777002D01*
G37*
X110365000Y-103777002D02*
X110523748Y-103777002D01*
X110365000Y-103935750D01*
X110361928Y-104300000D01*
X110374188Y-104424482D01*
X110410498Y-104544180D01*
X110469463Y-104654494D01*
X110548815Y-104751185D01*
X110645506Y-104830537D01*
X110755820Y-104889502D01*
X110875518Y-104925812D01*
X111000000Y-104938072D01*
X111067503Y-104937625D01*
X111054188Y-104981518D01*
X111041928Y-105106000D01*
X111045000Y-106070250D01*
X111203750Y-106229000D01*
X112053000Y-106229000D01*
X112053000Y-106209000D01*
X112245401Y-106209000D01*
X112245400Y-110243098D01*
X112194447Y-110294052D01*
X112169502Y-110211820D01*
X112110537Y-110101506D01*
X112031185Y-110004815D01*
X111971704Y-109956000D01*
X112031185Y-109907185D01*
X112110537Y-109810494D01*
X112169502Y-109700180D01*
X112205812Y-109580482D01*
X112218072Y-109456000D01*
X112218072Y-108456000D01*
X112205812Y-108331518D01*
X112169502Y-108211820D01*
X112110537Y-108101506D01*
X112053000Y-108031397D01*
X112053000Y-106483000D01*
X111203750Y-106483000D01*
X111045000Y-106641750D01*
X111041928Y-107606000D01*
X111054188Y-107730482D01*
X111080714Y-107817928D01*
X110002743Y-107817928D01*
X110059181Y-107678786D01*
X109000000Y-106619605D01*
X107940819Y-107678786D01*
X108054078Y-107958015D01*
X108368403Y-108113387D01*
X108707000Y-108204452D01*
X109056858Y-108227709D01*
X109191405Y-108210123D01*
X109190498Y-108211820D01*
X109154188Y-108331518D01*
X109141928Y-108456000D01*
X109141928Y-109456000D01*
X109154188Y-109580482D01*
X109190498Y-109700180D01*
X109249463Y-109810494D01*
X109328815Y-109907185D01*
X109388296Y-109956000D01*
X109328815Y-110004815D01*
X109249463Y-110101506D01*
X109190498Y-110211820D01*
X109154188Y-110331518D01*
X109141928Y-110456000D01*
X109141928Y-111456000D01*
X109149053Y-111528347D01*
X109073199Y-111590599D01*
X109049401Y-111619597D01*
X107420300Y-113248699D01*
X107420300Y-110109222D01*
X107423976Y-110071899D01*
X107420300Y-110034576D01*
X107420300Y-110034567D01*
X107409303Y-109922914D01*
X107365846Y-109779653D01*
X107295274Y-109647624D01*
X107200301Y-109531899D01*
X107171303Y-109508101D01*
X105878101Y-108214900D01*
X107256662Y-106836339D01*
X107257733Y-106844530D01*
X107370130Y-107176657D01*
X107481985Y-107385922D01*
X107761214Y-107499181D01*
X108820395Y-106440000D01*
X109179605Y-106440000D01*
X110238786Y-107499181D01*
X110518015Y-107385922D01*
X110673387Y-107071597D01*
X110764452Y-106733000D01*
X110787709Y-106383142D01*
X110742267Y-106035470D01*
X110629870Y-105703343D01*
X110518015Y-105494078D01*
X110238786Y-105380819D01*
X109179605Y-106440000D01*
X108820395Y-106440000D01*
X108806253Y-106425858D01*
X108985858Y-106246253D01*
X109000000Y-106260395D01*
X110059181Y-105201214D01*
X109945922Y-104921985D01*
X109631597Y-104766613D01*
X109391076Y-104701925D01*
X110365000Y-103728002D01*
X110365000Y-103777002D01*
G36*
X127210401Y-113019599D02*
G01*
X122434873Y-108244072D01*
X122680000Y-108244072D01*
X122804482Y-108231812D01*
X122924180Y-108195502D01*
X123034494Y-108136537D01*
X123131185Y-108057185D01*
X123180000Y-107997704D01*
X123228815Y-108057185D01*
X123325506Y-108136537D01*
X123435820Y-108195502D01*
X123555518Y-108231812D01*
X123680000Y-108244072D01*
X124680000Y-108244072D01*
X124804482Y-108231812D01*
X124924180Y-108195502D01*
X125034494Y-108136537D01*
X125131185Y-108057185D01*
X125180000Y-107997704D01*
X125218037Y-108044052D01*
X125197195Y-108075244D01*
X125119174Y-108263602D01*
X125079400Y-108463561D01*
X125079400Y-108667439D01*
X125119174Y-108867398D01*
X125197195Y-109055756D01*
X125310463Y-109225274D01*
X125454626Y-109369437D01*
X125624144Y-109482705D01*
X125812502Y-109560726D01*
X126012461Y-109600500D01*
X126216339Y-109600500D01*
X126416298Y-109560726D01*
X126604656Y-109482705D01*
X126774174Y-109369437D01*
X126918337Y-109225274D01*
X127031605Y-109055756D01*
X127109626Y-108867398D01*
X127149400Y-108667439D01*
X127149400Y-108463561D01*
X127109626Y-108263602D01*
X127051286Y-108122757D01*
X127131185Y-108057185D01*
X127210400Y-107960661D01*
X127210401Y-113019599D01*
X127210401Y-113019599D01*
G37*
X127210401Y-113019599D02*
X122434873Y-108244072D01*
X122680000Y-108244072D01*
X122804482Y-108231812D01*
X122924180Y-108195502D01*
X123034494Y-108136537D01*
X123131185Y-108057185D01*
X123180000Y-107997704D01*
X123228815Y-108057185D01*
X123325506Y-108136537D01*
X123435820Y-108195502D01*
X123555518Y-108231812D01*
X123680000Y-108244072D01*
X124680000Y-108244072D01*
X124804482Y-108231812D01*
X124924180Y-108195502D01*
X125034494Y-108136537D01*
X125131185Y-108057185D01*
X125180000Y-107997704D01*
X125218037Y-108044052D01*
X125197195Y-108075244D01*
X125119174Y-108263602D01*
X125079400Y-108463561D01*
X125079400Y-108667439D01*
X125119174Y-108867398D01*
X125197195Y-109055756D01*
X125310463Y-109225274D01*
X125454626Y-109369437D01*
X125624144Y-109482705D01*
X125812502Y-109560726D01*
X126012461Y-109600500D01*
X126216339Y-109600500D01*
X126416298Y-109560726D01*
X126604656Y-109482705D01*
X126774174Y-109369437D01*
X126918337Y-109225274D01*
X127031605Y-109055756D01*
X127109626Y-108867398D01*
X127149400Y-108667439D01*
X127149400Y-108463561D01*
X127109626Y-108263602D01*
X127051286Y-108122757D01*
X127131185Y-108057185D01*
X127210400Y-107960661D01*
X127210401Y-113019599D01*
G36*
X95994499Y-109886600D02*
G01*
X95947101Y-109886600D01*
X97222702Y-108611000D01*
X97270098Y-108611000D01*
X95994499Y-109886600D01*
X95994499Y-109886600D01*
G37*
X95994499Y-109886600D02*
X95947101Y-109886600D01*
X97222702Y-108611000D01*
X97270098Y-108611000D01*
X95994499Y-109886600D01*
G36*
X105789294Y-100679014D02*
G01*
X105974866Y-100905134D01*
X106144793Y-101044590D01*
X106137300Y-101120668D01*
X106137300Y-101120678D01*
X106133624Y-101158000D01*
X106137300Y-101195323D01*
X106137301Y-103099588D01*
X106093363Y-103143526D01*
X105980095Y-103313044D01*
X105902074Y-103501402D01*
X105862300Y-103701361D01*
X105862300Y-103905239D01*
X105902074Y-104105198D01*
X105980095Y-104293556D01*
X106093363Y-104463074D01*
X106149944Y-104519655D01*
X105534024Y-105135574D01*
X105375650Y-104977200D01*
X104747000Y-104977200D01*
X104747000Y-104997200D01*
X104493000Y-104997200D01*
X104493000Y-104977200D01*
X103477000Y-104977200D01*
X103477000Y-104997200D01*
X103223000Y-104997200D01*
X103223000Y-104977200D01*
X102207000Y-104977200D01*
X102207000Y-104997200D01*
X101953000Y-104997200D01*
X101953000Y-104977200D01*
X100937000Y-104977200D01*
X100937000Y-106317050D01*
X100968174Y-106348224D01*
X100261051Y-107055347D01*
X100263072Y-106750000D01*
X100250812Y-106625518D01*
X100214502Y-106505820D01*
X100155537Y-106395506D01*
X100076185Y-106298815D01*
X99979494Y-106219463D01*
X99869180Y-106160498D01*
X99749482Y-106124188D01*
X99625000Y-106111928D01*
X99285750Y-106115000D01*
X99127000Y-106273750D01*
X99127000Y-107373000D01*
X99147000Y-107373000D01*
X99147000Y-107627000D01*
X99127000Y-107627000D01*
X99127000Y-107647000D01*
X98873000Y-107647000D01*
X98873000Y-107627000D01*
X98853000Y-107627000D01*
X98853000Y-107373000D01*
X98873000Y-107373000D01*
X98873000Y-106273750D01*
X98714250Y-106115000D01*
X98622334Y-106114168D01*
X98897251Y-105839251D01*
X99892530Y-105839251D01*
X99904488Y-105963762D01*
X99940507Y-106083548D01*
X99999204Y-106194005D01*
X100078321Y-106290889D01*
X100174820Y-106370475D01*
X100284990Y-106429707D01*
X100404600Y-106466308D01*
X100524250Y-106475800D01*
X100683000Y-106317050D01*
X100683000Y-104977200D01*
X100054350Y-104977200D01*
X99895600Y-105135950D01*
X99892530Y-105839251D01*
X98897251Y-105839251D01*
X100033826Y-104702676D01*
X100054350Y-104723200D01*
X100683000Y-104723200D01*
X100683000Y-104703200D01*
X100937000Y-104703200D01*
X100937000Y-104723200D01*
X101953000Y-104723200D01*
X101953000Y-104703200D01*
X102207000Y-104703200D01*
X102207000Y-104723200D01*
X103223000Y-104723200D01*
X103223000Y-103383350D01*
X103477000Y-103383350D01*
X103477000Y-104723200D01*
X104493000Y-104723200D01*
X104493000Y-103383350D01*
X104747000Y-103383350D01*
X104747000Y-104723200D01*
X105375650Y-104723200D01*
X105534400Y-104564450D01*
X105537470Y-103861149D01*
X105525512Y-103736638D01*
X105489493Y-103616852D01*
X105430796Y-103506395D01*
X105351679Y-103409511D01*
X105255180Y-103329925D01*
X105145010Y-103270693D01*
X105025400Y-103234092D01*
X104905750Y-103224600D01*
X104747000Y-103383350D01*
X104493000Y-103383350D01*
X104334250Y-103224600D01*
X104214600Y-103234092D01*
X104094990Y-103270693D01*
X103985000Y-103329828D01*
X103875010Y-103270693D01*
X103755400Y-103234092D01*
X103635750Y-103224600D01*
X103477000Y-103383350D01*
X103223000Y-103383350D01*
X103064250Y-103224600D01*
X102944600Y-103234092D01*
X102824990Y-103270693D01*
X102715000Y-103329828D01*
X102605966Y-103271207D01*
X102711505Y-103113256D01*
X102789526Y-102924898D01*
X102829300Y-102724939D01*
X102829300Y-102662801D01*
X103706802Y-101785300D01*
X104452667Y-101785300D01*
X104490000Y-101788977D01*
X104638986Y-101774303D01*
X104782247Y-101730846D01*
X104914276Y-101660274D01*
X105030001Y-101565301D01*
X105124974Y-101449576D01*
X105195546Y-101317547D01*
X105239003Y-101174286D01*
X105243246Y-101131205D01*
X105319014Y-101090706D01*
X105545134Y-100905134D01*
X105730706Y-100679014D01*
X105760000Y-100624209D01*
X105789294Y-100679014D01*
X105789294Y-100679014D01*
G37*
X105789294Y-100679014D02*
X105974866Y-100905134D01*
X106144793Y-101044590D01*
X106137300Y-101120668D01*
X106137300Y-101120678D01*
X106133624Y-101158000D01*
X106137300Y-101195323D01*
X106137301Y-103099588D01*
X106093363Y-103143526D01*
X105980095Y-103313044D01*
X105902074Y-103501402D01*
X105862300Y-103701361D01*
X105862300Y-103905239D01*
X105902074Y-104105198D01*
X105980095Y-104293556D01*
X106093363Y-104463074D01*
X106149944Y-104519655D01*
X105534024Y-105135574D01*
X105375650Y-104977200D01*
X104747000Y-104977200D01*
X104747000Y-104997200D01*
X104493000Y-104997200D01*
X104493000Y-104977200D01*
X103477000Y-104977200D01*
X103477000Y-104997200D01*
X103223000Y-104997200D01*
X103223000Y-104977200D01*
X102207000Y-104977200D01*
X102207000Y-104997200D01*
X101953000Y-104997200D01*
X101953000Y-104977200D01*
X100937000Y-104977200D01*
X100937000Y-106317050D01*
X100968174Y-106348224D01*
X100261051Y-107055347D01*
X100263072Y-106750000D01*
X100250812Y-106625518D01*
X100214502Y-106505820D01*
X100155537Y-106395506D01*
X100076185Y-106298815D01*
X99979494Y-106219463D01*
X99869180Y-106160498D01*
X99749482Y-106124188D01*
X99625000Y-106111928D01*
X99285750Y-106115000D01*
X99127000Y-106273750D01*
X99127000Y-107373000D01*
X99147000Y-107373000D01*
X99147000Y-107627000D01*
X99127000Y-107627000D01*
X99127000Y-107647000D01*
X98873000Y-107647000D01*
X98873000Y-107627000D01*
X98853000Y-107627000D01*
X98853000Y-107373000D01*
X98873000Y-107373000D01*
X98873000Y-106273750D01*
X98714250Y-106115000D01*
X98622334Y-106114168D01*
X98897251Y-105839251D01*
X99892530Y-105839251D01*
X99904488Y-105963762D01*
X99940507Y-106083548D01*
X99999204Y-106194005D01*
X100078321Y-106290889D01*
X100174820Y-106370475D01*
X100284990Y-106429707D01*
X100404600Y-106466308D01*
X100524250Y-106475800D01*
X100683000Y-106317050D01*
X100683000Y-104977200D01*
X100054350Y-104977200D01*
X99895600Y-105135950D01*
X99892530Y-105839251D01*
X98897251Y-105839251D01*
X100033826Y-104702676D01*
X100054350Y-104723200D01*
X100683000Y-104723200D01*
X100683000Y-104703200D01*
X100937000Y-104703200D01*
X100937000Y-104723200D01*
X101953000Y-104723200D01*
X101953000Y-104703200D01*
X102207000Y-104703200D01*
X102207000Y-104723200D01*
X103223000Y-104723200D01*
X103223000Y-103383350D01*
X103477000Y-103383350D01*
X103477000Y-104723200D01*
X104493000Y-104723200D01*
X104493000Y-103383350D01*
X104747000Y-103383350D01*
X104747000Y-104723200D01*
X105375650Y-104723200D01*
X105534400Y-104564450D01*
X105537470Y-103861149D01*
X105525512Y-103736638D01*
X105489493Y-103616852D01*
X105430796Y-103506395D01*
X105351679Y-103409511D01*
X105255180Y-103329925D01*
X105145010Y-103270693D01*
X105025400Y-103234092D01*
X104905750Y-103224600D01*
X104747000Y-103383350D01*
X104493000Y-103383350D01*
X104334250Y-103224600D01*
X104214600Y-103234092D01*
X104094990Y-103270693D01*
X103985000Y-103329828D01*
X103875010Y-103270693D01*
X103755400Y-103234092D01*
X103635750Y-103224600D01*
X103477000Y-103383350D01*
X103223000Y-103383350D01*
X103064250Y-103224600D01*
X102944600Y-103234092D01*
X102824990Y-103270693D01*
X102715000Y-103329828D01*
X102605966Y-103271207D01*
X102711505Y-103113256D01*
X102789526Y-102924898D01*
X102829300Y-102724939D01*
X102829300Y-102662801D01*
X103706802Y-101785300D01*
X104452667Y-101785300D01*
X104490000Y-101788977D01*
X104638986Y-101774303D01*
X104782247Y-101730846D01*
X104914276Y-101660274D01*
X105030001Y-101565301D01*
X105124974Y-101449576D01*
X105195546Y-101317547D01*
X105239003Y-101174286D01*
X105243246Y-101131205D01*
X105319014Y-101090706D01*
X105545134Y-100905134D01*
X105730706Y-100679014D01*
X105760000Y-100624209D01*
X105789294Y-100679014D01*
G36*
X76048815Y-97251185D02*
G01*
X76145506Y-97330537D01*
X76255820Y-97389502D01*
X76375518Y-97425812D01*
X76500000Y-97438072D01*
X77934301Y-97438072D01*
X77934301Y-98113968D01*
X77930624Y-98151300D01*
X77934301Y-98188633D01*
X77945298Y-98300286D01*
X77946800Y-98305236D01*
X77988754Y-98443546D01*
X78059326Y-98575576D01*
X78126724Y-98657700D01*
X78154300Y-98691301D01*
X78183298Y-98715099D01*
X79576100Y-100107902D01*
X79576101Y-103813276D01*
X79385750Y-103815000D01*
X79227000Y-103973750D01*
X79227000Y-105073000D01*
X79247000Y-105073000D01*
X79247000Y-105327000D01*
X79227000Y-105327000D01*
X79227000Y-105347000D01*
X78973000Y-105347000D01*
X78973000Y-105327000D01*
X78953000Y-105327000D01*
X78953000Y-105073000D01*
X78973000Y-105073000D01*
X78973000Y-103973750D01*
X78814250Y-103815000D01*
X78657610Y-103813582D01*
X78615346Y-103674253D01*
X78544774Y-103542223D01*
X78473599Y-103455497D01*
X78449801Y-103426499D01*
X78420803Y-103402701D01*
X75848926Y-100830825D01*
X75848926Y-100768687D01*
X75809152Y-100568728D01*
X75731131Y-100380370D01*
X75617863Y-100210852D01*
X75570521Y-100163510D01*
X75918692Y-99815340D01*
X75944839Y-99817915D01*
X75982161Y-99814239D01*
X75982172Y-99814239D01*
X76093825Y-99803242D01*
X76237086Y-99759785D01*
X76369064Y-99689240D01*
X76446777Y-99689240D01*
X76646736Y-99649466D01*
X76835094Y-99571445D01*
X77004612Y-99458177D01*
X77148775Y-99314014D01*
X77262043Y-99144496D01*
X77340064Y-98956138D01*
X77379838Y-98756179D01*
X77379838Y-98552301D01*
X77340064Y-98352342D01*
X77262043Y-98163984D01*
X77148775Y-97994466D01*
X77004612Y-97850303D01*
X76835094Y-97737035D01*
X76646736Y-97659014D01*
X76446777Y-97619240D01*
X76242899Y-97619240D01*
X76042940Y-97659014D01*
X76010011Y-97672654D01*
X76010011Y-97203902D01*
X76048815Y-97251185D01*
X76048815Y-97251185D01*
G37*
X76048815Y-97251185D02*
X76145506Y-97330537D01*
X76255820Y-97389502D01*
X76375518Y-97425812D01*
X76500000Y-97438072D01*
X77934301Y-97438072D01*
X77934301Y-98113968D01*
X77930624Y-98151300D01*
X77934301Y-98188633D01*
X77945298Y-98300286D01*
X77946800Y-98305236D01*
X77988754Y-98443546D01*
X78059326Y-98575576D01*
X78126724Y-98657700D01*
X78154300Y-98691301D01*
X78183298Y-98715099D01*
X79576100Y-100107902D01*
X79576101Y-103813276D01*
X79385750Y-103815000D01*
X79227000Y-103973750D01*
X79227000Y-105073000D01*
X79247000Y-105073000D01*
X79247000Y-105327000D01*
X79227000Y-105327000D01*
X79227000Y-105347000D01*
X78973000Y-105347000D01*
X78973000Y-105327000D01*
X78953000Y-105327000D01*
X78953000Y-105073000D01*
X78973000Y-105073000D01*
X78973000Y-103973750D01*
X78814250Y-103815000D01*
X78657610Y-103813582D01*
X78615346Y-103674253D01*
X78544774Y-103542223D01*
X78473599Y-103455497D01*
X78449801Y-103426499D01*
X78420803Y-103402701D01*
X75848926Y-100830825D01*
X75848926Y-100768687D01*
X75809152Y-100568728D01*
X75731131Y-100380370D01*
X75617863Y-100210852D01*
X75570521Y-100163510D01*
X75918692Y-99815340D01*
X75944839Y-99817915D01*
X75982161Y-99814239D01*
X75982172Y-99814239D01*
X76093825Y-99803242D01*
X76237086Y-99759785D01*
X76369064Y-99689240D01*
X76446777Y-99689240D01*
X76646736Y-99649466D01*
X76835094Y-99571445D01*
X77004612Y-99458177D01*
X77148775Y-99314014D01*
X77262043Y-99144496D01*
X77340064Y-98956138D01*
X77379838Y-98756179D01*
X77379838Y-98552301D01*
X77340064Y-98352342D01*
X77262043Y-98163984D01*
X77148775Y-97994466D01*
X77004612Y-97850303D01*
X76835094Y-97737035D01*
X76646736Y-97659014D01*
X76446777Y-97619240D01*
X76242899Y-97619240D01*
X76042940Y-97659014D01*
X76010011Y-97672654D01*
X76010011Y-97203902D01*
X76048815Y-97251185D01*
G36*
X113820986Y-101090706D02*
G01*
X113935620Y-101151979D01*
X112692713Y-102394886D01*
X112624482Y-102374188D01*
X112500000Y-102361928D01*
X112035750Y-102365000D01*
X111877000Y-102523750D01*
X111877000Y-103523000D01*
X111897000Y-103523000D01*
X111897000Y-103777000D01*
X111877000Y-103777000D01*
X111877000Y-103797000D01*
X111623000Y-103797000D01*
X111623000Y-103777000D01*
X111603000Y-103777000D01*
X111603000Y-103523000D01*
X111623000Y-103523000D01*
X111623000Y-102523750D01*
X111596126Y-102496876D01*
X112307702Y-101785300D01*
X112629478Y-101785300D01*
X112666800Y-101788976D01*
X112704122Y-101785300D01*
X112704133Y-101785300D01*
X112815786Y-101774303D01*
X112959047Y-101730846D01*
X113091076Y-101660274D01*
X113206801Y-101565301D01*
X113230603Y-101536298D01*
X113741461Y-101025441D01*
X113820986Y-101090706D01*
X113820986Y-101090706D01*
G37*
X113820986Y-101090706D02*
X113935620Y-101151979D01*
X112692713Y-102394886D01*
X112624482Y-102374188D01*
X112500000Y-102361928D01*
X112035750Y-102365000D01*
X111877000Y-102523750D01*
X111877000Y-103523000D01*
X111897000Y-103523000D01*
X111897000Y-103777000D01*
X111877000Y-103777000D01*
X111877000Y-103797000D01*
X111623000Y-103797000D01*
X111623000Y-103777000D01*
X111603000Y-103777000D01*
X111603000Y-103523000D01*
X111623000Y-103523000D01*
X111623000Y-102523750D01*
X111596126Y-102496876D01*
X112307702Y-101785300D01*
X112629478Y-101785300D01*
X112666800Y-101788976D01*
X112704122Y-101785300D01*
X112704133Y-101785300D01*
X112815786Y-101774303D01*
X112959047Y-101730846D01*
X113091076Y-101660274D01*
X113206801Y-101565301D01*
X113230603Y-101536298D01*
X113741461Y-101025441D01*
X113820986Y-101090706D01*
G36*
X125910498Y-100944180D02*
G01*
X125969463Y-101054494D01*
X126048815Y-101151185D01*
X126145506Y-101230537D01*
X126255820Y-101289502D01*
X126375518Y-101325812D01*
X126500000Y-101338072D01*
X126655425Y-101338072D01*
X126715026Y-101449576D01*
X126786201Y-101536302D01*
X126810000Y-101565301D01*
X126838998Y-101589099D01*
X127210400Y-101960502D01*
X127210400Y-102620969D01*
X127151185Y-102548815D01*
X127054494Y-102469463D01*
X126944180Y-102410498D01*
X126824482Y-102374188D01*
X126700000Y-102361928D01*
X126235750Y-102365000D01*
X126077000Y-102523750D01*
X126077000Y-103523000D01*
X126097000Y-103523000D01*
X126097000Y-103777000D01*
X126077000Y-103777000D01*
X126077000Y-103797000D01*
X125823000Y-103797000D01*
X125823000Y-103777000D01*
X125803000Y-103777000D01*
X125803000Y-103523000D01*
X125823000Y-103523000D01*
X125823000Y-102523750D01*
X125664250Y-102365000D01*
X125200000Y-102361928D01*
X125075518Y-102374188D01*
X124955820Y-102410498D01*
X124845506Y-102469463D01*
X124748815Y-102548815D01*
X124669463Y-102645506D01*
X124610498Y-102755820D01*
X124600000Y-102790427D01*
X124589502Y-102755820D01*
X124530537Y-102645506D01*
X124451185Y-102548815D01*
X124354494Y-102469463D01*
X124244180Y-102410498D01*
X124205300Y-102398704D01*
X124205300Y-101210604D01*
X124238966Y-101228599D01*
X124518889Y-101313513D01*
X124737050Y-101335000D01*
X124882950Y-101335000D01*
X125101111Y-101313513D01*
X125381034Y-101228599D01*
X125639014Y-101090706D01*
X125865134Y-100905134D01*
X125889607Y-100875313D01*
X125910498Y-100944180D01*
X125910498Y-100944180D01*
G37*
X125910498Y-100944180D02*
X125969463Y-101054494D01*
X126048815Y-101151185D01*
X126145506Y-101230537D01*
X126255820Y-101289502D01*
X126375518Y-101325812D01*
X126500000Y-101338072D01*
X126655425Y-101338072D01*
X126715026Y-101449576D01*
X126786201Y-101536302D01*
X126810000Y-101565301D01*
X126838998Y-101589099D01*
X127210400Y-101960502D01*
X127210400Y-102620969D01*
X127151185Y-102548815D01*
X127054494Y-102469463D01*
X126944180Y-102410498D01*
X126824482Y-102374188D01*
X126700000Y-102361928D01*
X126235750Y-102365000D01*
X126077000Y-102523750D01*
X126077000Y-103523000D01*
X126097000Y-103523000D01*
X126097000Y-103777000D01*
X126077000Y-103777000D01*
X126077000Y-103797000D01*
X125823000Y-103797000D01*
X125823000Y-103777000D01*
X125803000Y-103777000D01*
X125803000Y-103523000D01*
X125823000Y-103523000D01*
X125823000Y-102523750D01*
X125664250Y-102365000D01*
X125200000Y-102361928D01*
X125075518Y-102374188D01*
X124955820Y-102410498D01*
X124845506Y-102469463D01*
X124748815Y-102548815D01*
X124669463Y-102645506D01*
X124610498Y-102755820D01*
X124600000Y-102790427D01*
X124589502Y-102755820D01*
X124530537Y-102645506D01*
X124451185Y-102548815D01*
X124354494Y-102469463D01*
X124244180Y-102410498D01*
X124205300Y-102398704D01*
X124205300Y-101210604D01*
X124238966Y-101228599D01*
X124518889Y-101313513D01*
X124737050Y-101335000D01*
X124882950Y-101335000D01*
X125101111Y-101313513D01*
X125381034Y-101228599D01*
X125639014Y-101090706D01*
X125865134Y-100905134D01*
X125889607Y-100875313D01*
X125910498Y-100944180D01*
G36*
X87510901Y-96461003D02*
G01*
X87534699Y-96490001D01*
X87650424Y-96584974D01*
X87782453Y-96655546D01*
X87925714Y-96699003D01*
X87968795Y-96703246D01*
X88009294Y-96779014D01*
X88194866Y-97005134D01*
X88420986Y-97190706D01*
X88678966Y-97328599D01*
X88958889Y-97413513D01*
X89177050Y-97435000D01*
X89322950Y-97435000D01*
X89541111Y-97413513D01*
X89821034Y-97328599D01*
X90079014Y-97190706D01*
X90305134Y-97005134D01*
X90490706Y-96779014D01*
X90520000Y-96724209D01*
X90549294Y-96779014D01*
X90734866Y-97005134D01*
X90960986Y-97190706D01*
X91218966Y-97328599D01*
X91498889Y-97413513D01*
X91717050Y-97435000D01*
X91862950Y-97435000D01*
X92081111Y-97413513D01*
X92361034Y-97328599D01*
X92619014Y-97190706D01*
X92845134Y-97005134D01*
X93030706Y-96779014D01*
X93060000Y-96724209D01*
X93089294Y-96779014D01*
X93274866Y-97005134D01*
X93500986Y-97190706D01*
X93758966Y-97328599D01*
X94038889Y-97413513D01*
X94257050Y-97435000D01*
X94402950Y-97435000D01*
X94621111Y-97413513D01*
X94901034Y-97328599D01*
X95159014Y-97190706D01*
X95385134Y-97005134D01*
X95570706Y-96779014D01*
X95600000Y-96724209D01*
X95629294Y-96779014D01*
X95814866Y-97005134D01*
X95870064Y-97050434D01*
X95183698Y-97736801D01*
X95154700Y-97760599D01*
X95130902Y-97789597D01*
X95130901Y-97789598D01*
X95059726Y-97876324D01*
X94989154Y-98008354D01*
X94964254Y-98090441D01*
X94945698Y-98151614D01*
X94935966Y-98250424D01*
X94931024Y-98300600D01*
X94934701Y-98337932D01*
X94934701Y-98489396D01*
X94901034Y-98471401D01*
X94621111Y-98386487D01*
X94402950Y-98365000D01*
X94257050Y-98365000D01*
X94038889Y-98386487D01*
X93758966Y-98471401D01*
X93500986Y-98609294D01*
X93274866Y-98794866D01*
X93089294Y-99020986D01*
X93060000Y-99075791D01*
X93030706Y-99020986D01*
X92845134Y-98794866D01*
X92619014Y-98609294D01*
X92361034Y-98471401D01*
X92081111Y-98386487D01*
X91862950Y-98365000D01*
X91717050Y-98365000D01*
X91498889Y-98386487D01*
X91218966Y-98471401D01*
X90960986Y-98609294D01*
X90881406Y-98674604D01*
X90364903Y-98158102D01*
X90341101Y-98129099D01*
X90225376Y-98034126D01*
X90093347Y-97963554D01*
X89950086Y-97920097D01*
X89838433Y-97909100D01*
X89838422Y-97909100D01*
X89801100Y-97905424D01*
X89763778Y-97909100D01*
X83493402Y-97909100D01*
X83190000Y-97605699D01*
X83190000Y-97227595D01*
X83259014Y-97190706D01*
X83485134Y-97005134D01*
X83670706Y-96779014D01*
X83705201Y-96714477D01*
X83774822Y-96831355D01*
X83969731Y-97047588D01*
X84203080Y-97221641D01*
X84465901Y-97346825D01*
X84613110Y-97391476D01*
X84843000Y-97270155D01*
X84843000Y-96077000D01*
X85097000Y-96077000D01*
X85097000Y-97270155D01*
X85326890Y-97391476D01*
X85474099Y-97346825D01*
X85736920Y-97221641D01*
X85970269Y-97047588D01*
X86165178Y-96831355D01*
X86314157Y-96581252D01*
X86411481Y-96306891D01*
X86290814Y-96077000D01*
X85097000Y-96077000D01*
X84843000Y-96077000D01*
X84823000Y-96077000D01*
X84823000Y-95823000D01*
X84843000Y-95823000D01*
X84843000Y-95803000D01*
X85097000Y-95803000D01*
X85097000Y-95823000D01*
X86290814Y-95823000D01*
X86411481Y-95593109D01*
X86390762Y-95534700D01*
X86584599Y-95534700D01*
X87510901Y-96461003D01*
X87510901Y-96461003D01*
G37*
X87510901Y-96461003D02*
X87534699Y-96490001D01*
X87650424Y-96584974D01*
X87782453Y-96655546D01*
X87925714Y-96699003D01*
X87968795Y-96703246D01*
X88009294Y-96779014D01*
X88194866Y-97005134D01*
X88420986Y-97190706D01*
X88678966Y-97328599D01*
X88958889Y-97413513D01*
X89177050Y-97435000D01*
X89322950Y-97435000D01*
X89541111Y-97413513D01*
X89821034Y-97328599D01*
X90079014Y-97190706D01*
X90305134Y-97005134D01*
X90490706Y-96779014D01*
X90520000Y-96724209D01*
X90549294Y-96779014D01*
X90734866Y-97005134D01*
X90960986Y-97190706D01*
X91218966Y-97328599D01*
X91498889Y-97413513D01*
X91717050Y-97435000D01*
X91862950Y-97435000D01*
X92081111Y-97413513D01*
X92361034Y-97328599D01*
X92619014Y-97190706D01*
X92845134Y-97005134D01*
X93030706Y-96779014D01*
X93060000Y-96724209D01*
X93089294Y-96779014D01*
X93274866Y-97005134D01*
X93500986Y-97190706D01*
X93758966Y-97328599D01*
X94038889Y-97413513D01*
X94257050Y-97435000D01*
X94402950Y-97435000D01*
X94621111Y-97413513D01*
X94901034Y-97328599D01*
X95159014Y-97190706D01*
X95385134Y-97005134D01*
X95570706Y-96779014D01*
X95600000Y-96724209D01*
X95629294Y-96779014D01*
X95814866Y-97005134D01*
X95870064Y-97050434D01*
X95183698Y-97736801D01*
X95154700Y-97760599D01*
X95130902Y-97789597D01*
X95130901Y-97789598D01*
X95059726Y-97876324D01*
X94989154Y-98008354D01*
X94964254Y-98090441D01*
X94945698Y-98151614D01*
X94935966Y-98250424D01*
X94931024Y-98300600D01*
X94934701Y-98337932D01*
X94934701Y-98489396D01*
X94901034Y-98471401D01*
X94621111Y-98386487D01*
X94402950Y-98365000D01*
X94257050Y-98365000D01*
X94038889Y-98386487D01*
X93758966Y-98471401D01*
X93500986Y-98609294D01*
X93274866Y-98794866D01*
X93089294Y-99020986D01*
X93060000Y-99075791D01*
X93030706Y-99020986D01*
X92845134Y-98794866D01*
X92619014Y-98609294D01*
X92361034Y-98471401D01*
X92081111Y-98386487D01*
X91862950Y-98365000D01*
X91717050Y-98365000D01*
X91498889Y-98386487D01*
X91218966Y-98471401D01*
X90960986Y-98609294D01*
X90881406Y-98674604D01*
X90364903Y-98158102D01*
X90341101Y-98129099D01*
X90225376Y-98034126D01*
X90093347Y-97963554D01*
X89950086Y-97920097D01*
X89838433Y-97909100D01*
X89838422Y-97909100D01*
X89801100Y-97905424D01*
X89763778Y-97909100D01*
X83493402Y-97909100D01*
X83190000Y-97605699D01*
X83190000Y-97227595D01*
X83259014Y-97190706D01*
X83485134Y-97005134D01*
X83670706Y-96779014D01*
X83705201Y-96714477D01*
X83774822Y-96831355D01*
X83969731Y-97047588D01*
X84203080Y-97221641D01*
X84465901Y-97346825D01*
X84613110Y-97391476D01*
X84843000Y-97270155D01*
X84843000Y-96077000D01*
X85097000Y-96077000D01*
X85097000Y-97270155D01*
X85326890Y-97391476D01*
X85474099Y-97346825D01*
X85736920Y-97221641D01*
X85970269Y-97047588D01*
X86165178Y-96831355D01*
X86314157Y-96581252D01*
X86411481Y-96306891D01*
X86290814Y-96077000D01*
X85097000Y-96077000D01*
X84843000Y-96077000D01*
X84823000Y-96077000D01*
X84823000Y-95823000D01*
X84843000Y-95823000D01*
X84843000Y-95803000D01*
X85097000Y-95803000D01*
X85097000Y-95823000D01*
X86290814Y-95823000D01*
X86411481Y-95593109D01*
X86390762Y-95534700D01*
X86584599Y-95534700D01*
X87510901Y-96461003D01*
G36*
X127477000Y-95823000D02*
G01*
X127497000Y-95823000D01*
X127497000Y-96077000D01*
X127477000Y-96077000D01*
X127477000Y-97276250D01*
X127635750Y-97435000D01*
X127792901Y-97435856D01*
X127792901Y-98361928D01*
X126500000Y-98361928D01*
X126375518Y-98374188D01*
X126255820Y-98410498D01*
X126145506Y-98469463D01*
X126048815Y-98548815D01*
X125969463Y-98645506D01*
X125910498Y-98755820D01*
X125889607Y-98824687D01*
X125865134Y-98794866D01*
X125639014Y-98609294D01*
X125570000Y-98572405D01*
X125570000Y-98216901D01*
X126364448Y-97422454D01*
X126375518Y-97425812D01*
X126500000Y-97438072D01*
X127064250Y-97435000D01*
X127223000Y-97276250D01*
X127223000Y-96077000D01*
X127203000Y-96077000D01*
X127203000Y-95823000D01*
X127223000Y-95823000D01*
X127223000Y-95803000D01*
X127477000Y-95803000D01*
X127477000Y-95823000D01*
X127477000Y-95823000D01*
G37*
X127477000Y-95823000D02*
X127497000Y-95823000D01*
X127497000Y-96077000D01*
X127477000Y-96077000D01*
X127477000Y-97276250D01*
X127635750Y-97435000D01*
X127792901Y-97435856D01*
X127792901Y-98361928D01*
X126500000Y-98361928D01*
X126375518Y-98374188D01*
X126255820Y-98410498D01*
X126145506Y-98469463D01*
X126048815Y-98548815D01*
X125969463Y-98645506D01*
X125910498Y-98755820D01*
X125889607Y-98824687D01*
X125865134Y-98794866D01*
X125639014Y-98609294D01*
X125570000Y-98572405D01*
X125570000Y-98216901D01*
X126364448Y-97422454D01*
X126375518Y-97425812D01*
X126500000Y-97438072D01*
X127064250Y-97435000D01*
X127223000Y-97276250D01*
X127223000Y-96077000D01*
X127203000Y-96077000D01*
X127203000Y-95823000D01*
X127223000Y-95823000D01*
X127223000Y-95803000D01*
X127477000Y-95803000D01*
X127477000Y-95823000D01*
M02*
